<svg width="1140" height="780" viewBox="0 0 1140 780" fill="none" xmlns="http://www.w3.org/2000/svg">
<g id="Level 1 - v5">
<g id="A1">
<path id="A1_2" d="M225 67H40V232H80V189H178V232H225V67Z" stroke="#C4C4C4" stroke-width="2" stroke-linecap="round"/>
<circle id="Ellipse 256" cx="60" cy="101" r="10" fill="#C4C4C4"/>
<circle id="Ellipse 257" cx="101" cy="116" r="10" fill="#C4C4C4"/>
<circle id="Ellipse 258" cx="146" cy="91" r="10" fill="#C4C4C4"/>
<circle id="Ellipse 259" cx="202" cy="212" r="10" fill="#C4C4C4"/>
<g id="Group 183">
<circle id="Ellipse 260" cx="140" cy="155" r="21" fill="#FECA19"/>
<text id="1-3" fill="black" xml:space="preserve" style="white-space: pre" font-family="IBM Plex Mono" font-size="12" font-weight="600" letter-spacing="0em"><tspan x="128.207" y="158.5">1-3</tspan></text>
</g>
<circle id="Ellipse 263" cx="78" cy="154" r="21" fill="#FECA19"/>
<circle id="Ellipse 261" cx="190" cy="106" r="21" fill="#FECA19"/>
<circle id="Ellipse 262" cx="195" cy="165" r="21" fill="#FECA19"/>
<g id="Group 179">
<rect id="Rectangle 1142" x="76.5" y="75" width="53" height="22" fill="#C4C4C4"/>
<text id="1-3_2" fill="black" xml:space="preserve" style="white-space: pre" font-family="IBM Plex Mono" font-size="16" font-weight="600" letter-spacing="0em"><tspan x="89.6094" y="92">1-3</tspan></text>
</g>
</g>
<g id="E">
<circle id="Ellipse 245" cx="838" cy="108" r="34.5" fill="#353535" stroke="#353535"/>
<circle id="Ellipse 288" cx="771" cy="163" r="21" fill="#FECA19"/>
<g id="Group 383">
<circle id="Ellipse 289" cx="826" cy="194" r="21" fill="#FECA19"/>
<text id="2-5" fill="black" xml:space="preserve" style="white-space: pre" font-family="IBM Plex Mono" font-size="12" font-weight="600" letter-spacing="0em"><tspan x="815.414" y="198.5">2-5</tspan></text>
</g>
<g id="Group 185">
<circle id="Ellipse 291" cx="884" cy="195" r="21" fill="#FECA19"/>
<text id="1-6" fill="black" xml:space="preserve" style="white-space: pre" font-family="IBM Plex Mono" font-size="12" font-weight="600" letter-spacing="0em"><tspan x="873.207" y="199.5">1-6</tspan></text>
</g>
<circle id="Ellipse 290" cx="895" cy="137" r="21" fill="#FECA19"/>
<circle id="Ellipse 286" cx="867" cy="91" r="10" fill="#C4C4C4"/>
<circle id="Ellipse 285" cx="832" cy="77" r="10" fill="#C4C4C4"/>
<circle id="Ellipse 287" cx="847" cy="122" r="10" fill="#C4C4C4"/>
<circle id="Ellipse 284" cx="801" cy="111" r="10" fill="#C4C4C4"/>
<path id="Elevator" d="M828 24L830.499 34L823.999 35.5L825 39L839 36L853 39L853.999 35.5L847.999 34L851 24L867 28L864.499 38L858.999 36.5L858 40L870 43L882 52L884.499 49L880.499 45.5L887 37L900 47L893.499 55.5L889.499 52.5L886.999 55.5L896 63L901.499 75.5L905 74L903 69L913.999 64L921 79L910.499 84L908 79L904 81L910 93V110H934.999V232H741L740.999 110H767V93L773 80L769.499 78.5L766.999 83.5L757 79L764 64L773.999 68.5L771.499 73.5L775 75L781 63L791 55L788.499 52.5L784.499 55.5L777 47L791 36L797.499 45.5L792.499 49.5L795 52L807 43L820 40L819 36.5L814 37.5L811 28L828 24Z" stroke="#C4C4C4" stroke-width="2" stroke-linecap="round"/>
</g>
<g id="A5">
<circle id="Ellipse 292" cx="979" cy="133" r="21" fill="#FECA19"/>
<circle id="Ellipse 299" cx="1017" cy="103" r="21" fill="#FECA19"/>
<circle id="Ellipse 298" cx="1068" cy="147" r="21" fill="#FECA19"/>
<g id="Group 186">
<circle id="Ellipse 293" cx="1012" cy="194" r="21" fill="#FECA19"/>
<text id="2-4" fill="black" xml:space="preserve" style="white-space: pre" font-family="IBM Plex Mono" font-size="12" font-weight="600" letter-spacing="0em"><tspan x="1001.21" y="197.5">2-4</tspan></text>
</g>
<circle id="Ellipse 294" cx="969" cy="170" r="10" fill="#C4C4C4"/>
<circle id="Ellipse 295" cx="1084" cy="213" r="10" fill="#C4C4C4"/>
<circle id="Ellipse 296" cx="1027" cy="155" r="10" fill="#C4C4C4"/>
<circle id="Ellipse 297" cx="1052" cy="85" r="10" fill="#C4C4C4"/>
<path id="A5_2" d="M975 67H1066L1101 110.792V255H1080V232H941V110L975 67Z" stroke="#C4C4C4" stroke-width="2" stroke-linecap="round"/>
</g>
<g id="A2">
<circle id="Ellipse 264" cx="266" cy="136" r="21" fill="#FECA19"/>
<circle id="Ellipse 267" cx="313" cy="103" r="21" fill="#FECA19"/>
<g id="Group 376">
<circle id="Ellipse 265" cx="339" cy="152" r="21" fill="#FECA19"/>
<text id="1-2" fill="black" xml:space="preserve" style="white-space: pre" font-family="IBM Plex Mono" font-size="12" font-weight="600" letter-spacing="0em"><tspan x="328.207" y="155.5">1-2</tspan></text>
</g>
<circle id="Ellipse 266" cx="264" cy="196" r="21" fill="#FECA19"/>
<path id="A2_2" d="M231 67V232H369V130L414 110V67H231Z" stroke="#C4C4C4" stroke-width="2"/>
<circle id="Ellipse 256_2" cx="259" cy="87" r="10" fill="#C4C4C4"/>
<circle id="Ellipse 257_2" cx="337" cy="203" r="10" fill="#C4C4C4"/>
<circle id="Ellipse 258_2" cx="390" cy="91" r="10" fill="#C4C4C4"/>
<circle id="Ellipse 259_2" cx="310" cy="187" r="10" fill="#C4C4C4"/>
</g>
<g id="B5">
<circle id="Ellipse 300" cx="950" cy="282" r="21" fill="#FECA19"/>
<circle id="Ellipse 301" cx="980" cy="366" r="21" fill="#FECA19"/>
<circle id="Ellipse 302" cx="1070" cy="345" r="21" fill="#FECA19"/>
<circle id="Ellipse 303" cx="1023" cy="267" r="21" fill="#FECA19"/>
<circle id="Ellipse 304" cx="991" cy="297" r="10" fill="#C4C4C4"/>
<circle id="Ellipse 305" cx="1037" cy="312" r="10" fill="#C4C4C4"/>
<circle id="Ellipse 306" cx="1036" cy="371" r="10" fill="#C4C4C4"/>
<circle id="Ellipse 307" cx="1001" cy="331" r="10" fill="#C4C4C4"/>
<path id="B5_2" d="M942 340V400H1101V383H1077V378H1101V261H1074V238H913V340H942Z" stroke="#C4C4C4" stroke-width="2" stroke-linecap="round"/>
</g>
<g id="C3">
<circle id="Ellipse 320" cx="817" cy="441" r="21" fill="#FECA19"/>
<circle id="Ellipse 321" cx="876" cy="441" r="21" fill="#FECA19"/>
<g id="Group 382">
<circle id="Ellipse 322" cx="849" cy="490" r="21" fill="#FECA19"/>
<text id="1-5" fill="black" xml:space="preserve" style="white-space: pre" font-family="IBM Plex Mono" font-size="12" font-weight="600" letter-spacing="0em"><tspan x="838.207" y="494.5">1-5</tspan></text>
</g>
<circle id="Ellipse 323" cx="825" cy="535" r="21" fill="#FECA19"/>
<circle id="Ellipse 316" cx="761" cy="435" r="10" fill="#C4C4C4"/>
<circle id="Ellipse 317" cx="878" cy="537" r="10" fill="#C4C4C4"/>
<circle id="Ellipse 318" cx="775" cy="522" r="10" fill="#C4C4C4"/>
<circle id="Ellipse 319" cx="785" cy="483" r="10" fill="#C4C4C4"/>
<path id="C3_2" d="M908 568V442H936V406H741V499H747V554H741V568H908Z" stroke="#C4C4C4" stroke-width="2" stroke-linecap="round"/>
</g>
<g id="S">
<circle id="Ellipse 241" cx="1016" cy="548" r="34.5" fill="#353535" stroke="#353535"/>
<circle id="Ellipse 308" cx="975" cy="439" r="21" fill="#FECA19"/>
<circle id="Ellipse 313" cx="1038" cy="443" r="21" fill="#FECA19"/>
<circle id="Ellipse 314" cx="1001" cy="487" r="21" fill="#FECA19"/>
<circle id="Ellipse 315" cx="957" cy="533" r="21" fill="#FECA19"/>
<circle id="Ellipse 311" cx="1052" cy="562" r="10" fill="#C4C4C4"/>
<circle id="Ellipse 312" cx="1027" cy="583" r="10" fill="#C4C4C4"/>
<circle id="Ellipse 310" cx="1016" cy="537" r="10" fill="#C4C4C4"/>
<circle id="Ellipse 309" cx="997" cy="563" r="10" fill="#C4C4C4"/>
<path id="Server" d="M942 448H914V568H959C966.554 592.803 989.68 612 1017 612C1021.97 612 1026.38 611.127 1031 610L1036 620L1047 615L1042 606C1045.88 604.173 1049.62 601.573 1053 599L1062 608L1070 599L1062 591C1064.32 588.36 1066.16 585.017 1068 582L1079 587L1084 576L1074 572C1075.19 568.707 1075.39 564.53 1076 561H1087V549H1077C1076.9 545.524 1076.66 542.305 1076 539L1085 538L1083 526L1072 528C1065.96 513.72 1055.22 502.188 1041 496V474H1101V464H1079V459H1101V444H1079V439H1101V424H1079V419H1101V406H942V448Z" stroke="#C4C4C4" stroke-width="2" stroke-linecap="round"/>
</g>
<g id="D1">
<circle id="Ellipse 382" cx="121" cy="614" r="21" fill="#FECA19"/>
<g id="Group 379">
<circle id="Ellipse 383" cx="185" cy="646" r="21" fill="#FECA19"/>
<text id="2-4_2" fill="black" xml:space="preserve" style="white-space: pre" font-family="IBM Plex Mono" font-size="12" font-weight="600" letter-spacing="0em"><tspan x="174.414" y="650.5">2-4</tspan></text>
</g>
<circle id="Ellipse 384" cx="173" cy="702" r="21" fill="#FECA19"/>
<circle id="Ellipse 385" cx="96" cy="682" r="21" fill="#FECA19"/>
<circle id="Ellipse 378" cx="71" cy="603" r="10" fill="#C4C4C4"/>
<circle id="Ellipse 379" cx="221" cy="721" r="10" fill="#C4C4C4"/>
<circle id="Ellipse 380" cx="142" cy="671" r="10" fill="#C4C4C4"/>
<circle id="Ellipse 381" cx="206" cy="600" r="10" fill="#C4C4C4"/>
<path id="D1_2" d="M252 573H40V638H64V704L100 739H249V703H224V615L252 573Z" stroke="#C4C4C4" stroke-width="2" stroke-linecap="round"/>
</g>
<g id="D2">
<circle id="Ellipse 390" cx="280" cy="620" r="21" fill="#FECA19"/>
<circle id="Ellipse 391" cx="298" cy="694" r="21" fill="#FECA19"/>
<circle id="Ellipse 392" cx="457" cy="687" r="21" fill="#FECA19"/>
<circle id="Ellipse 393" cx="387" cy="614" r="21" fill="#FECA19"/>
<g id="Terminal">
<rect id="Rectangle 1144" x="360" y="708" width="53" height="22" fill="#C4C4C4"/>
<text id="1-5_2" fill="black" xml:space="preserve" style="white-space: pre" font-family="IBM Plex Mono" font-size="16" font-weight="600" letter-spacing="0em"><tspan x="373.109" y="725">1-5</tspan></text>
</g>
<circle id="Ellipse 386" cx="323" cy="583" r="10" fill="#C4C4C4"/>
<circle id="Ellipse 387" cx="446" cy="615" r="10" fill="#C4C4C4"/>
<circle id="Ellipse 388" cx="319" cy="651" r="10" fill="#C4C4C4"/>
<circle id="Ellipse 389" cx="358" cy="674" r="10" fill="#C4C4C4"/>
<path id="D2_2" d="M255 739H527V698H510V573H368V549H302V573H259L230 617V697H255V739Z" stroke="#C4C4C4" stroke-width="2" stroke-linecap="round"/>
</g>
<g id="L">
<circle id="Ellipse 243" cx="672.998" cy="529" r="34.5" fill="#353535" stroke="#353535"/>
<circle id="Ellipse 402" cx="647" cy="584" r="10" fill="#C4C4C4"/>
<circle id="Ellipse 399" cx="557" cy="617" r="21" fill="#FECA19"/>
<g id="Group 381">
<circle id="Ellipse 406" cx="686.998" cy="630" r="21" fill="#FECA19"/>
<text id="1-3_3" fill="black" xml:space="preserve" style="white-space: pre" font-family="IBM Plex Mono" font-size="12" font-weight="600" letter-spacing="0em"><tspan x="676.205" y="634.5">1-3</tspan></text>
</g>
<circle id="Ellipse 407" cx="693.998" cy="702" r="21" fill="#FECA19"/>
<circle id="Ellipse 408" cx="588" cy="698" r="21" fill="#FECA19"/>
<circle id="Ellipse 403" cx="714" cy="580" r="10" fill="#C4C4C4"/>
<circle id="Ellipse 404" cx="647" cy="677" r="10" fill="#C4C4C4"/>
<circle id="Ellipse 405" cx="607" cy="619" r="10" fill="#C4C4C4"/>
<path id="Lobby" d="M612.999 547H606.999V506H612.999V489L632.997 470L653.997 461H689.997L714.997 468.5L734.998 489V505H740.998V548H734.998V707H767.998V739H533L533 692H516V573H541.498H612.999V547Z" stroke="#C4C4C4" stroke-width="2" stroke-linecap="round"/>
</g>
<g id="B1">
<path id="B1_2" d="M199 238H172V195H86V238H40V284H64V400H249V352H199V238Z" stroke="#C4C4C4" stroke-width="2" stroke-linecap="round"/>
<circle id="Ellipse 358" cx="126" cy="264" r="21" fill="#FECA19"/>
<circle id="Ellipse 359" cx="105" cy="315" r="21" fill="#FECA19"/>
<circle id="Ellipse 360" cx="167" cy="337" r="21" fill="#FECA19"/>
<circle id="Ellipse 361" cx="121" cy="367" r="21" fill="#FECA19"/>
<circle id="Ellipse 354" cx="172" cy="259" r="10" fill="#C4C4C4"/>
<circle id="Ellipse 355" cx="172" cy="378" r="10" fill="#C4C4C4"/>
<circle id="Ellipse 356" cx="156" cy="298" r="10" fill="#C4C4C4"/>
<circle id="Ellipse 357" cx="221" cy="378" r="10" fill="#C4C4C4"/>
<g id="Group 177">
<rect id="Rectangle 1141" x="102" y="206" width="53" height="22" fill="#C4C4C4"/>
<text id="1-4" fill="black" xml:space="preserve" style="white-space: pre" font-family="IBM Plex Mono" font-size="16" font-weight="600" letter-spacing="0em"><tspan x="114.109" y="223">1-4</tspan></text>
</g>
</g>
<g id="Q">
<circle id="Ellipse 247" cx="484" cy="312" r="34.5" fill="#353535" stroke="#353535"/>
<circle id="Ellipse 344" cx="442" cy="313" r="21" fill="#FECA19"/>
<circle id="Ellipse 346" cx="525" cy="269" r="21" fill="#FECA19"/>
<circle id="Ellipse 345" cx="535" cy="349" r="21" fill="#FECA19"/>
<circle id="Ellipse 347" cx="495" cy="315" r="21" fill="#FECA19"/>
<circle id="Ellipse 340" cx="438" cy="364" r="10" fill="#C4C4C4"/>
<circle id="Ellipse 341" cx="482" cy="259" r="10" fill="#C4C4C4"/>
<circle id="Ellipse 342" cx="543" cy="307" r="10" fill="#C4C4C4"/>
<circle id="Ellipse 343" cx="442" cy="269" r="10" fill="#C4C4C4"/>
<g id="Group 180">
<rect id="Rectangle 1147" x="459" y="364" width="53" height="22" fill="#C4C4C4"/>
<text id="1-3_4" fill="black" xml:space="preserve" style="white-space: pre" font-family="IBM Plex Mono" font-size="16" font-weight="600" letter-spacing="0em"><tspan x="472.109" y="381">1-3</tspan></text>
</g>
<path id="Q_2" d="M496.143 236.929L496.105 237.965H497.142H546.059L552.49 253.105L552.841 253.929L553.698 253.672C554.851 253.326 556.074 253.139 557.343 253.139C564.333 253.139 570 258.806 570 265.796C570 270.535 567.397 274.666 563.538 276.837L562.757 277.275L563.107 278.099L570 294.326V343.488L562.758 360.536L562.398 361.385L563.214 361.813C567.25 363.93 570 368.159 570 373.029C570 380.019 564.333 385.686 557.343 385.686C555.945 385.686 554.602 385.46 553.347 385.043L552.472 384.752L552.112 385.601L546.059 399.849H497.142H496.178L496.143 400.812C495.896 407.585 490.327 413 483.494 413C476.661 413 471.092 407.585 470.846 400.812L470.811 399.849H469.846H421.941L415.888 385.601L415.528 384.752L414.653 385.043C413.398 385.46 412.055 385.686 410.657 385.686C403.667 385.686 398 380.019 398 373.029C398 368.159 400.75 363.93 404.786 361.813L405.602 361.385L405.242 360.536L398 343.488V294.326L404.893 278.099L405.243 277.275L404.462 276.837C400.603 274.666 398 270.535 398 265.796C398 258.806 403.667 253.139 410.657 253.139C411.926 253.139 413.149 253.326 414.302 253.672L415.16 253.929L415.51 253.105L421.941 237.965L469.846 237.965L470.883 237.965L470.846 236.929C470.84 236.773 470.837 236.616 470.837 236.459C470.837 229.469 476.504 223.802 483.494 223.802C490.484 223.802 496.151 229.469 496.151 236.459C496.151 236.616 496.148 236.773 496.143 236.929Z" stroke="#FECA19" stroke-width="2"/>
</g>
<g id="C1">
<circle id="Ellipse 366" cx="126" cy="439" r="21" fill="#FECA19"/>
<circle id="Ellipse 367" cx="186" cy="471" r="21" fill="#FECA19"/>
<circle id="Ellipse 368" cx="132" cy="496" r="21" fill="#FECA19"/>
<circle id="Ellipse 369" cx="75" cy="487" r="21" fill="#FECA19"/>
<circle id="Ellipse 362" cx="195.207" cy="427" r="10" fill="#C4C4C4"/>
<circle id="Ellipse 363" cx="192" cy="513" r="10" fill="#C4C4C4"/>
<circle id="Ellipse 364" cx="153" cy="542" r="10" fill="#C4C4C4"/>
<circle id="Ellipse 365" cx="84" cy="535" r="10" fill="#C4C4C4"/>
<path id="C1_2" d="M224 406H64V428H40V567H253V525H224V406Z" stroke="#C4C4C4" stroke-width="2" stroke-linecap="round"/>
<g id="Terminal_2">
<rect id="Rectangle 1144_2" x="189" y="536" width="53" height="22" fill="#C4C4C4"/>
<text id="1-4_2" fill="black" xml:space="preserve" style="white-space: pre" font-family="IBM Plex Mono" font-size="16" font-weight="600" letter-spacing="0em"><tspan x="202.109" y="553">1-4</tspan></text>
</g>
</g>
<g id="B4">
<circle id="Ellipse 328" cx="820" cy="285" r="21" fill="#FECA19"/>
<circle id="Ellipse 331" cx="877" cy="279" r="21" fill="#FECA19"/>
<circle id="Ellipse 329" cx="825" cy="337" r="21" fill="#FECA19"/>
<circle id="Ellipse 330" cx="776" cy="365" r="21" fill="#FECA19"/>
<circle id="Ellipse 324" cx="778" cy="261" r="10" fill="#C4C4C4"/>
<circle id="Ellipse 325" cx="880.999" cy="336" r="10" fill="#C4C4C4"/>
<circle id="Ellipse 326" cx="775" cy="305" r="10" fill="#C4C4C4"/>
<circle id="Ellipse 327" cx="848" cy="375" r="10" fill="#C4C4C4"/>
<path id="B4_2" d="M740.993 238L906.993 238V345H935.993V400H740.993L740.993 238Z" stroke="#C4C4C4" stroke-width="2" stroke-linecap="round"/>
<g id="Group 181">
<rect id="Rectangle 1145" x="874.999" y="364" width="53" height="22" fill="#C4C4C4"/>
<text id="1-4_3" fill="black" xml:space="preserve" style="white-space: pre" font-family="IBM Plex Mono" font-size="16" font-weight="600" letter-spacing="0em"><tspan x="889.108" y="381">1-4</tspan></text>
</g>
</g>
<g id="D4">
<circle id="Ellipse 412" cx="781" cy="617" r="21" fill="#FECA19"/>
<circle id="Ellipse 416" cx="824" cy="654" r="21" fill="#FECA19"/>
<circle id="Ellipse 417" cx="884" cy="654" r="21" fill="#FECA19"/>
<circle id="Ellipse 413" cx="905" cy="600" r="21" fill="#FECA19"/>
<circle id="Ellipse 410" cx="792" cy="696" r="10" fill="#C4C4C4"/>
<circle id="Ellipse 411" cx="860" cy="619" r="10" fill="#C4C4C4"/>
<circle id="Ellipse 414" cx="822" cy="603" r="10" fill="#C4C4C4"/>
<circle id="Ellipse 415" cx="770" cy="660" r="10" fill="#C4C4C4"/>
<path id="D5" d="M741 574H936V656C936 656 909 652.5 909 676V739H774V701H741V574Z" stroke="#C4C4C4" stroke-width="2" stroke-linecap="round"/>
<g id="Group 182">
<rect id="Rectangle 1146" x="838" y="694" width="53" height="24" fill="#C4C4C4"/>
<text id="2-2" fill="black" xml:space="preserve" style="white-space: pre" font-family="IBM Plex Mono" font-size="16" font-weight="600" letter-spacing="0em"><tspan x="851.109" y="712">2-2</tspan></text>
</g>
</g>
<g id="A3">
<circle id="Ellipse 269" cx="414" cy="199" r="21" fill="#FECA19"/>
<circle id="Ellipse 274" cx="461" cy="163" r="21" fill="#FECA19"/>
<circle id="Ellipse 275" cx="509" cy="126" r="21" fill="#FECA19"/>
<circle id="Ellipse 270" cx="510" cy="191" r="21" fill="#FECA19"/>
<circle id="Ellipse 268" cx="451" cy="122" r="10" fill="#C4C4C4"/>
<circle id="Ellipse 271" cx="414" cy="152" r="10" fill="#C4C4C4"/>
<circle id="Ellipse 272" cx="452" cy="209" r="10" fill="#C4C4C4"/>
<circle id="Ellipse 273" cx="530" cy="84" r="10" fill="#C4C4C4"/>
<g id="Group 178">
<rect id="Rectangle 1142_2" x="458" y="75" width="53" height="22" fill="#C4C4C4"/>
<text id="1-5_3" fill="black" xml:space="preserve" style="white-space: pre" font-family="IBM Plex Mono" font-size="16" font-weight="600" letter-spacing="0em"><tspan x="471.109" y="92">1-5</tspan></text>
</g>
<path id="A3_2" d="M420.075 67H564.075V101H537V175H565.075V232H502C500.364 223.456 492.596 218 483.575 218C474.555 218 466.698 223.456 465.062 232H375.075V134L420.075 114V67Z" stroke="#C4C4C4" stroke-width="2" stroke-linecap="round"/>
</g>
<g id="B2">
<circle id="Ellipse 350" cx="273" cy="320" r="21" fill="#FECA19"/>
<circle id="Ellipse 353" cx="296" cy="273" r="21" fill="#FECA19"/>
<circle id="Ellipse 351" cx="356" cy="298" r="21" fill="#FECA19"/>
<g id="Group 184">
<circle id="Ellipse 352" cx="328" cy="347" r="21" fill="#FECA19"/>
<text id="1-1" fill="black" xml:space="preserve" style="white-space: pre" font-family="IBM Plex Mono" font-size="12" font-weight="600" letter-spacing="0em"><tspan x="317.207" y="350.5">1-1</tspan></text>
</g>
<circle id="Ellipse 346_2" cx="229.5" cy="297" r="10" fill="#C4C4C4"/>
<circle id="Ellipse 348" cx="348" cy="257" r="10" fill="#C4C4C4"/>
<circle id="Ellipse 349" cx="284" cy="363" r="10" fill="#C4C4C4"/>
<circle id="Ellipse 347_2" cx="372" cy="375" r="10" fill="#C4C4C4"/>
<path id="B2_2" d="M205 238V346H255V400H416L412.369 391.907C411.755 391.968 411.131 392 410.5 392C400.283 392 392 383.717 392 373.5C392 368.104 394.31 363.247 397.996 359.866L392 346.5V294L397.909 279.919C393.696 276.528 391 271.329 391 265.5C391 255.283 399.283 247 409.5 247C410.234 247 410.958 247.043 411.67 247.126L415.5 238H205Z" stroke="#C4C4C4" stroke-width="2" stroke-linecap="round"/>
</g>
<g id="B3">
<circle id="Ellipse 336" cx="599" cy="405" r="21" fill="#FECA19"/>
<circle id="Ellipse 337" cx="619" cy="292" r="21" fill="#FECA19"/>
<circle id="Ellipse 338" cx="704" cy="423" r="21" fill="#FECA19"/>
<g id="Group 380">
<circle id="Ellipse 339" cx="639" cy="183" r="21" fill="#FECA19"/>
<text id="1-5_4" fill="black" xml:space="preserve" style="white-space: pre" font-family="IBM Plex Mono" font-size="12" font-weight="600" letter-spacing="0em"><tspan x="628.207" y="187.5">1-5</tspan></text>
</g>
<circle id="Ellipse 333" cx="694" cy="339" r="10" fill="#C4C4C4"/>
<circle id="Ellipse 334" cx="696.998" cy="235" r="10" fill="#C4C4C4"/>
<circle id="Ellipse 335" cx="690" cy="139.5" r="10" fill="#C4C4C4"/>
<circle id="Ellipse 332" cx="599" cy="124" r="10" fill="#C4C4C4"/>
<path id="B3_2" d="M551 455V402L555.363 391.878C556.064 391.959 556.777 392 557.5 392C567.717 392 576 383.717 576 373.5C576 367.811 573.432 362.722 569.393 359.329L576 344V293.05L570.135 279.013C573.744 275.637 576 270.832 576 265.5C576 255.283 567.717 247 557.5 247C557.254 247 557.01 247.005 556.766 247.014L553 238H571V169H543V107H570V67.0001L692 67.5L735 109V238V480L718 463L692 455H652L630 464L613 480V455H551Z" stroke="#C4C4C4" stroke-width="2" stroke-linecap="round"/>
<g id="Group 181_2">
<rect id="Rectangle 1145_2" x="597" y="75.0001" width="53" height="22" fill="#C4C4C4"/>
<text id="1-4_4" fill="black" xml:space="preserve" style="white-space: pre" font-family="IBM Plex Mono" font-size="16" font-weight="600" letter-spacing="0em"><tspan x="611.109" y="92.0001">1-4</tspan></text>
</g>
</g>
<g id="C2">
<g id="Group 377">
<circle id="Ellipse 374" cx="328" cy="459" r="21" fill="#FECA19"/>
<text id="1-2_2" fill="black" xml:space="preserve" style="white-space: pre" font-family="IBM Plex Mono" font-size="12" font-weight="600" letter-spacing="0em"><tspan x="317.414" y="462.5">1-2</tspan></text>
</g>
<circle id="Ellipse 375" cx="436" cy="471" r="21" fill="#FECA19"/>
<g id="Group 378">
<circle id="Ellipse 376" cx="497" cy="508" r="21" fill="#FECA19"/>
<text id="1-1_2" fill="black" xml:space="preserve" style="white-space: pre" font-family="IBM Plex Mono" font-size="12" font-weight="600" letter-spacing="0em"><tspan x="486.707" y="512.5">1-1</tspan></text>
</g>
<circle id="Ellipse 377" cx="429" cy="531" r="21" fill="#FECA19"/>
<circle id="Ellipse 370" cx="255" cy="438" r="10" fill="#C4C4C4"/>
<circle id="Ellipse 371" cx="358" cy="508" r="10" fill="#C4C4C4"/>
<circle id="Ellipse 372" cx="504" cy="439" r="10" fill="#C4C4C4"/>
<circle id="Ellipse 373" cx="543" cy="524" r="10" fill="#C4C4C4"/>
<path id="C2_2" d="M465.551 406H230.001L230 519H259.001V567H296.001V543H374V567H607V553H601V500H607V461H545V406H501.449C499.439 414.043 492.165 420 483.5 420C474.835 420 467.561 414.043 465.551 406Z" stroke="#C4C4C4" stroke-width="2" stroke-linecap="round"/>
</g>
<rect id="B2-C2" x="286" y="399" width="30" height="8" fill="#C4C4C4"/>
<rect id="C1-D1" x="122" y="566" width="30" height="8" fill="#353535"/>
<rect id="B4-C3" x="813" y="399" width="30" height="8" fill="#353535"/>
<rect id="B5-A5" x="993" y="231" width="30" height="8" fill="#353535"/>
<rect id="B4-B5" x="906" y="298" width="30" height="8" transform="rotate(-90 906 298)" fill="#353535"/>
<g id="C3-S lock">
<rect id="C3-S" x="907" y="523" width="30" height="8" transform="rotate(-90 907 523)" fill="#353535"/>
<text id="2-4_3" transform="translate(920 497) rotate(90)" fill="#F86132" xml:space="preserve" style="white-space: pre" font-family="IBM Plex Mono" font-size="12" font-weight="600" letter-spacing="0em"><tspan x="0.207031" y="12.5">2-4</tspan></text>
</g>
<rect id="L-C3" x="740" y="542" width="30" height="8" transform="rotate(-90 740 542)" fill="#353535"/>
<g id="L-D4 Lock">
<rect id="L-D4" x="734" y="671" width="30" height="8" transform="rotate(-90 734 671)" fill="#353535"/>
<text id="1-5_5" transform="translate(748 645) rotate(90)" fill="#F86132" xml:space="preserve" style="white-space: pre" font-family="IBM Plex Mono" font-size="12" font-weight="600" letter-spacing="0em"><tspan x="0.207031" y="12.5">1-5</tspan></text>
</g>
<rect id="D2-L" x="509" y="671" width="30" height="8" transform="rotate(-90 509 671)" fill="#353535"/>
<rect id="D1-D2" x="223" y="671" width="30" height="8" transform="rotate(-90 223 671)" fill="#353535"/>
<rect id="A1-A2" x="224" y="152" width="30" height="8" transform="rotate(-90 224 152)" fill="#353535"/>
<g id="Lock E-A5">
<rect id="E-A5" x="934" y="192" width="30" height="8" transform="rotate(-90 934 192)" fill="#353535"/>
<text id="1-3_5" transform="translate(947 166) rotate(90)" fill="#F86132" xml:space="preserve" style="white-space: pre" font-family="IBM Plex Mono" font-size="12" font-weight="600" letter-spacing="0em"><tspan x="0.207031" y="12.5">1-3</tspan></text>
</g>
<rect id="A2-A3" x="368" y="203" width="30" height="8" transform="rotate(-90 368 203)" fill="#353535"/>
<g id="B2-Q Lock">
<rect id="B2-Q" x="391" y="332" width="30" height="8" transform="rotate(-90 391 332)" fill="#353535"/>
<text id="1-2_3" transform="translate(404 306) rotate(90)" fill="#F86132" xml:space="preserve" style="white-space: pre" font-family="IBM Plex Mono" font-size="12" font-weight="600" letter-spacing="0em"><tspan x="0.207031" y="12.5">1-2</tspan></text>
</g>
<rect id="B1-B2" x="198" y="312" width="30" height="8" transform="rotate(-90 198 312)" fill="#353535"/>
<rect id="A2-B2" x="283" y="231" width="30" height="8" fill="#353535"/>
<rect id="B3-B4" x="734" y="299" width="30" height="8" transform="rotate(-90 734 299)" fill="#353535"/>
<g id="C2-D2 lock">
<rect id="C2-D2" x="322" y="542" width="30" height="8" fill="#353535"/>
<text id="1-4_5" fill="#F86132" xml:space="preserve" style="white-space: pre" font-family="IBM Plex Mono" font-size="12" font-weight="600" letter-spacing="0em"><tspan x="326.207" y="549.5">1-4</tspan></text>
</g>
</g>
</svg>
