<svg width="1140" height="780" viewBox="0 0 1140 780" fill="none" xmlns="http://www.w3.org/2000/svg">
<g id="Level 2 - v2">
<g id="B1">
<path id="B1_2" d="M110.735 276.011H193V468H27V276L110.735 276.011H110.735Z" stroke="#C4C4C4" stroke-width="2"/>
<circle id="Ellipse 318" cx="79.9688" cy="307.494" r="21" fill="#FECA19"/>
<circle id="Ellipse 317" cx="61.75" cy="394.432" r="21" fill="#FECA19"/>
<circle id="Ellipse 289" cx="142.969" cy="307.494" r="21" fill="#FECA19"/>
<circle id="Ellipse 312" cx="121.969" cy="408.556" r="21" fill="#FECA19"/>
<circle id="Ellipse 313" cx="105.324" cy="349.184" r="10" fill="#C4C4C4"/>
<circle id="Ellipse 314" cx="149.25" cy="452" r="10" fill="#C4C4C4"/>
<circle id="Ellipse 315" cx="66.2109" cy="446.416" r="10" fill="#C4C4C4"/>
<circle id="Ellipse 316" cx="159.25" cy="377.556" r="10" fill="#C4C4C4"/>
</g>
<g id="C2">
<path id="C2_2" d="M367 525H382V593.5V632H367H199V474H366V524V525H367Z" stroke="#C4C4C4" stroke-width="2"/>
<circle id="Ellipse 333" cx="292.664" cy="508.589" r="21" fill="#FECA19"/>
<circle id="Ellipse 334" cx="325.086" cy="600.42" r="21" fill="#FECA19"/>
<circle id="Ellipse 289_2" cx="354.914" cy="554.42" r="21" fill="#FECA19"/>
<circle id="Ellipse 335" cx="244.398" cy="563.339" r="21" fill="#FECA19"/>
<circle id="Ellipse 336" cx="340.309" cy="501.126" r="10" fill="#C4C4C4"/>
<circle id="Ellipse 337" cx="226.332" cy="496" r="10" fill="#C4C4C4"/>
<circle id="Ellipse 338" cx="230.281" cy="606.339" r="10" fill="#C4C4C4"/>
<circle id="Ellipse 339" cx="294.086" cy="556.695" r="10" fill="#C4C4C4"/>
</g>
<g id="D4">
<path id="D4_2" d="M1107 606V606.124V606.397V606.673V606.951V607.232V607.516V607.803V608.092V608.384V608.679V608.977V609.277V609.58V609.886V610.194V610.506V610.82V611.137V611.456V611.779V612.104V612.433V612.764V613.098V613.435V613.774V614.117V614.463V614.811V615.162V615.517V615.874V616.234V616.597V616.964V617.333V617.705V618.08V618.458V618.839V619.224V619.611V620.001V620.395V620.791V621.191V621.593V621.999V622.408V622.82V623.235V623.653V624.074V624.499V624.927V625.357V625.791V626.229V626.669V627.113V627.56V628.01V628.463V628.92V629.38V629.843V630.31V630.779V631.253V631.729V632.209V632.692V633.178V633.668V634.161V634.658V635.157V635.661V636.167V636.678V637.191V637.708V638.228V638.752V639.28V639.81V640.345V640.883V641.424V641.969V642.517V643.069V643.624V644.183V644.746V645.312V645.881V646.455V647.031V647.612V648.196V648.784V649.375V649.97V650.569V651.171V651.777V652.387V653C1107 705.213 1087.63 731.13 1068.44 744.045C1058.82 750.522 1049.19 753.763 1041.97 755.384C1038.36 756.194 1035.35 756.598 1033.26 756.8C1032.21 756.9 1031.39 756.95 1030.83 756.975C1030.55 756.988 1030.34 756.994 1030.2 756.997C1030.13 756.999 1030.08 756.999 1030.05 757L1030.01 757L1030 757H1030H1030H969.75H831.899L792 719.071V694V693H791H772V641H791H792V640V606H890H908H963H964V605V586H1053V605V606H1054H1107Z" stroke="#C4C4C4" stroke-width="2"/>
<circle id="Ellipse 410" cx="1024.31" cy="641.694" r="21" fill="#FECA19"/>
<circle id="Ellipse 411" cx="844.32" cy="694" r="21" fill="#FECA19"/>
<circle id="Ellipse 289_3" cx="889" cy="654" r="21" fill="#FECA19"/>
<circle id="Ellipse 412" cx="964.496" cy="716.904" r="21" fill="#FECA19"/>
<circle id="Ellipse 413" cx="912" cy="719.537" r="10" fill="#C4C4C4"/>
<circle id="Ellipse 414" cx="1048" cy="695" r="10" fill="#C4C4C4"/>
<circle id="Ellipse 415" cx="949.5" cy="644.127" r="10" fill="#C4C4C4"/>
<circle id="Ellipse 416" cx="823.32" cy="634.127" r="10" fill="#C4C4C4"/>
</g>
<g id="B2">
<path id="B2_2" d="M366 448.5V468H199V318.5H366V388.5V389.5H367H382V447.5H367H366V448.5Z" stroke="#C4C4C4" stroke-width="2"/>
<circle id="Ellipse 341" cx="344" cy="434.177" r="21" fill="#FECA19"/>
<g id="Group 468">
<circle id="Ellipse 340" cx="331" cy="351" r="21" fill="#FECA19"/>
<text id="1-5" fill="black" xml:space="preserve" style="white-space: pre" font-family="IBM Plex Mono" font-size="12" font-weight="600" letter-spacing="0em"><tspan x="320.402" y="355.465">1-5</tspan></text>
</g>
<circle id="Ellipse 289_4" cx="262" cy="387.556" r="21" fill="#FECA19"/>
<circle id="Ellipse 342" cx="235.363" cy="435.416" r="21" fill="#FECA19"/>
<circle id="Ellipse 343" cx="306" cy="400.883" r="10" fill="#C4C4C4"/>
<circle id="Ellipse 344" cx="233.5" cy="342.958" r="10" fill="#C4C4C4"/>
<circle id="Ellipse 345" cx="220.414" cy="383.25" r="10" fill="#C4C4C4"/>
<circle id="Ellipse 346" cx="288.164" cy="435.416" r="10" fill="#C4C4C4"/>
</g>
<g id="B6">
<path id="B6_2" d="M1107 268.894V416H911V390H926H927V389V364.5V314V313H926H911V237.897H940.5H1078.07L1107 268.894Z" stroke="#C4C4C4" stroke-width="2"/>
<g id="Group 475">
<circle id="Ellipse 396" cx="993.578" cy="279.599" r="21" fill="#FECA19"/>
<text id="2-3" fill="black" xml:space="preserve" style="white-space: pre" font-family="IBM Plex Mono" font-size="12" font-weight="600" letter-spacing="0em"><tspan x="982.785" y="283.099">2-3</tspan></text>
</g>
<circle id="Ellipse 404" cx="1065.02" cy="377.213" r="21" fill="#FECA19"/>
<circle id="Ellipse 289_5" cx="1076.62" cy="313.493" r="21" fill="#FECA19"/>
<circle id="Ellipse 405" cx="955.75" cy="367.959" r="21" fill="#FECA19"/>
<circle id="Ellipse 406" cx="1052.96" cy="267.134" r="10" fill="#C4C4C4"/>
<circle id="Ellipse 407" cx="941.43" cy="283.672" r="10" fill="#C4C4C4"/>
<circle id="Ellipse 408" cx="983.578" cy="326.811" r="10" fill="#C4C4C4"/>
<circle id="Ellipse 409" cx="1022.58" cy="367.811" r="10" fill="#C4C4C4"/>
</g>
<g id="D2">
<path id="D2_2" d="M459.082 757.002H285V638H357.5H387H388V637V602H497V640V641H498H517V693H498H497V694V718.59L459.082 757.002Z" stroke="#C4C4C4" stroke-width="2"/>
<g id="Group 444">
<rect id="Rectangle 1145" x="398.75" y="611" width="53" height="22" fill="#C4C4C4"/>
<text id="1-5_2" fill="black" xml:space="preserve" style="white-space: pre" font-family="IBM Plex Mono" font-size="16" font-weight="600" letter-spacing="0em"><tspan x="410.859" y="628">1-5</tspan></text>
</g>
<circle id="Ellipse 347" cx="459" cy="679.501" r="21" fill="#FECA19"/>
<circle id="Ellipse 348" cx="410.148" cy="713.937" r="21" fill="#FECA19"/>
<circle id="Ellipse 289_6" cx="320" cy="664.037" r="21" fill="#FECA19"/>
<circle id="Ellipse 349" cx="316" cy="723.937" r="21" fill="#FECA19"/>
<circle id="Ellipse 350" cx="410.148" cy="654.127" r="10" fill="#C4C4C4"/>
<circle id="Ellipse 351" cx="454" cy="730.497" r="10" fill="#C4C4C4"/>
<circle id="Ellipse 352" cx="472" cy="638" r="10" fill="#C4C4C4"/>
<circle id="Ellipse 353" cx="361.586" cy="695.399" r="10" fill="#C4C4C4"/>
</g>
<g id="C6">
<path id="C6_2" d="M926.024 448H911V422H926H1107V600H1059V581V580H1058H959.5H958.5V581V600H911V525H926.073H927.074L927.073 523.999L927.049 493.499V493.499L927.024 448.999L927.024 448H926.024Z" stroke="#C4C4C4" stroke-width="2"/>
<g id="Group 409">
<rect id="Rectangle 1145_2" x="1045.31" y="431.958" width="53" height="22" fill="#C4C4C4"/>
<text id="1-3" fill="black" xml:space="preserve" style="white-space: pre" font-family="IBM Plex Mono" font-size="16" font-weight="600" letter-spacing="0em"><tspan x="1059.42" y="448.958">1-3</tspan></text>
</g>
<g id="Group 474">
<circle id="Ellipse 396_2" cx="997.5" cy="464.636" r="21" fill="#FECA19"/>
<text id="1-4" fill="black" xml:space="preserve" style="white-space: pre" font-family="IBM Plex Mono" font-size="12" font-weight="600" letter-spacing="0em"><tspan x="986.707" y="468.136">1-4</tspan></text>
</g>
<circle id="Ellipse 397" cx="1015.53" cy="538.594" r="21" fill="#FECA19"/>
<circle id="Ellipse 289_7" cx="1079" cy="555" r="21" fill="#FECA19"/>
<circle id="Ellipse 398" cx="961" cy="516.776" r="21" fill="#FECA19"/>
<circle id="Ellipse 399" cx="1045" cy="484" r="10" fill="#C4C4C4"/>
<circle id="Ellipse 400" cx="950" cy="452.261" r="10" fill="#C4C4C4"/>
<circle id="Ellipse 401" cx="939.5" cy="562" r="10" fill="#C4C4C4"/>
<circle id="Ellipse 402" cx="1082.5" cy="499" r="10" fill="#C4C4C4"/>
</g>
<g id="C1">
<path id="C1_2" d="M27 474H193V632H27V474Z" stroke="#C4C4C4" stroke-width="2"/>
<circle id="Ellipse 319" cx="105.758" cy="519.611" r="21" fill="#FECA19"/>
<circle id="Ellipse 320" cx="108.758" cy="586.69" r="21" fill="#FECA19"/>
<circle id="Ellipse 289_8" cx="162.262" cy="514" r="21" fill="#FECA19"/>
<circle id="Ellipse 321" cx="65.7383" cy="554.69" r="21" fill="#FECA19"/>
<circle id="Ellipse 322" cx="155.98" cy="556.771" r="10" fill="#C4C4C4"/>
<circle id="Ellipse 323" cx="55.7383" cy="504" r="10" fill="#C4C4C4"/>
<circle id="Ellipse 324" cx="63.7578" cy="597.69" r="10" fill="#C4C4C4"/>
<circle id="Ellipse 325" cx="169.008" cy="591.753" r="10" fill="#C4C4C4"/>
</g>
<g id="D1">
<path id="D1_2" d="M27 638H279L278.966 757.012H278.916H278.861H278.806H278.749H278.691H278.631H278.57H278.508H278.444H278.379H278.313H278.245H278.176H278.106H278.034H277.961H277.887H277.811H277.734H277.656H277.576H277.495H277.413H277.329H277.244H277.158H277.071H276.982H276.891H276.8H276.707H276.613H276.517H276.421H276.322H276.223H276.122H276.02H275.917H275.812H275.706H275.599H275.49H275.38H275.269H275.157H275.043H274.928H274.812H274.694H274.575H274.455H274.333H274.21H274.086H273.961H273.834H273.706H273.577H273.446H273.315H273.182H273.047H272.911H272.775H272.636H272.497H272.356H272.214H272.071H271.926H271.78H271.633H271.485H271.335H271.184H271.032H270.879H270.724H270.568H270.411H270.252H270.093H269.932H269.769H269.606H269.441H269.275H269.108H268.939H268.77H268.599H268.426H268.253H268.078H267.902H267.725H267.547H267.367H267.186H267.004H266.821H266.636H266.45H266.263H266.075H265.885H265.695H265.503H265.309H265.115H264.919H264.722H264.524H264.325H264.124H263.923H263.72H263.516H263.31H263.104H262.896H262.687H262.476H262.265H262.052H261.838H261.623H261.407H261.19H260.971H260.751H260.53H260.308H260.084H259.86H259.634H259.407H259.179H258.949H258.719H258.487H258.254H258.02H257.784H257.548H257.31H257.071H256.831H256.59H256.347H256.104H255.859H255.613H255.366H255.118H254.868H254.617H254.366H254.113H253.858H253.603H253.347H253.089H252.83H252.57H252.309H252.047H251.783H251.519H251.253H250.986H250.718H250.449H250.179H249.907H249.635H249.361H249.086H248.81H248.532H248.254H247.975H247.694H247.412H247.129H246.845H246.56H246.274H245.986H245.698H245.408H245.117H244.825H244.532H244.238H243.943H243.646H243.348H243.05H242.75H242.449H242.147H241.844H241.539H241.234H240.927H240.62H240.311H240.001H239.69H239.378H239.065H238.751H238.435H238.119H237.801H237.483H237.163H236.842H236.52H236.197H235.873H235.547H235.221H234.894H234.565H234.236H233.905H233.573H233.24H232.906H232.571H232.235H231.898H231.56H231.22H230.88H230.538H230.196H229.852H229.507H229.161H228.815H228.467H228.118H227.768H227.416H227.064H226.711H226.357H226.001H225.645H225.287H224.929H224.569H224.208H223.847H223.484H223.12H222.755H222.389H222.022H221.654H221.285H220.915H220.544H220.172H219.799H219.424H219.049H218.673H218.295H217.917H217.537H217.157H216.775H216.393H216.009H215.625H215.239H214.852H214.465H214.076H213.686H213.295H212.904H212.511H212.117H211.722H211.326H210.93H210.532H210.133H209.733H209.332H208.93H208.527H208.123H207.718H207.312H206.905H206.498H206.089H205.679H205.268H204.856H204.443H204.029H203.614H203.198H202.781H202.363H201.945H201.525H201.104H200.682H200.259H199.835H199.411H198.985H198.558H198.13H197.702H197.272H196.841H196.41H195.977H195.544H195.109H194.674H194.237H193.8H193.361H192.922H192.482H192.04H191.598H191.155H190.711H190.266H189.82H189.373H188.925H188.476H188.026H187.575H187.123H186.67H186.217H185.762H185.307H184.85H184.393H183.934H183.475H183.015H182.553H182.091H181.628H181.164H180.699H180.233H179.766H179.299H178.83H178.36H177.89H177.418H176.946H176.473H175.999H175.523H175.047H174.57H174.093H173.614H173.134H172.653H172.172H171.689H171.206H170.722H170.237H169.75H169.263H168.776H168.287H167.797H167.306H166.815H166.323H165.829H165.335H164.84H164.344H163.847H163.349H162.851H162.351H161.851H161.349H160.847H160.344H159.84H159.335H158.83H158.323H157.815H157.307H156.798H156.288H155.777H155.265H154.752H154.239H153.724H153.209H152.693H152.175H151.657H151.139H150.619H150.098H149.577H149.055H148.532H148.008H147.483H146.957H146.431H145.903H145.375H144.846H144.316H143.785H143.254H142.721H142.188H141.654H141.119H140.583H140.046H139.509H138.971H138.431H137.891H137.351H136.809H136.266H135.723H135.179H134.634H134.088H133.541H132.994H132.446H131.897H131.347H130.796H130.244H129.692H129.139H128.585H128.03H127.474H126.918H126.361H125.802H125.244H124.684H124.123H123.562H123C99.2099 757.012 81.365 750.077 67.9551 739.718C54.5311 729.348 45.4956 715.502 39.4162 701.605C33.3368 687.708 30.2303 673.797 28.6449 663.352C27.8526 658.131 27.4413 653.783 27.228 650.743C27.1214 649.223 27.0643 648.031 27.034 647.22C27.0188 646.815 27.0103 646.506 27.0055 646.299C27.0032 646.195 27.0018 646.117 27.001 646.065L27.0002 646.008L27 645.995V638Z" stroke="#C4C4C4" stroke-width="2"/>
<circle id="Ellipse 327" cx="237.332" cy="667.127" r="21" fill="#FECA19"/>
<g id="Group 469">
<circle id="Ellipse 326" cx="133.02" cy="661.5" r="21" fill="#FECA19"/>
<text id="2-4" fill="black" xml:space="preserve" style="white-space: pre" font-family="IBM Plex Mono" font-size="12" font-weight="600" letter-spacing="0em"><tspan x="122.41" y="666.627">2-4</tspan></text>
</g>
<circle id="Ellipse 289_9" cx="180.664" cy="703.937" r="21" fill="#FECA19"/>
<circle id="Ellipse 328" cx="97.2109" cy="716" r="21" fill="#FECA19"/>
<circle id="Ellipse 329" cx="180.664" cy="654.037" r="10" fill="#C4C4C4"/>
<circle id="Ellipse 330" cx="74.7578" cy="665.561" r="10" fill="#C4C4C4"/>
<circle id="Ellipse 331" cx="242" cy="734.937" r="10" fill="#C4C4C4"/>
<circle id="Ellipse 332" cx="140.758" cy="724.937" r="10" fill="#C4C4C4"/>
</g>
<g id="Lock B1-B2">
<rect id="B1-B2" x="192" y="409" width="30" height="8" transform="rotate(-90 192 409)" fill="#353535"/>
<text id="1-4_2" transform="translate(205 382) rotate(90)" fill="#F86132" xml:space="preserve" style="white-space: pre" font-family="IBM Plex Mono" font-size="12" font-weight="600" letter-spacing="0em"><tspan x="0.207031" y="12.5">1-4</tspan></text>
</g>
<g id="Lock B1-C1">
<rect id="B1-C1" x="273" y="467" width="30" height="8" fill="#353535"/>
<text id="1-3_2" transform="translate(277 462)" fill="#F86132" xml:space="preserve" style="white-space: pre" font-family="IBM Plex Mono" font-size="12" font-weight="600" letter-spacing="0em"><tspan x="0.207031" y="12.5">1-3</tspan></text>
</g>
<rect id="C-D3" x="632" y="594" width="30" height="8" fill="#C4C4C4"/>
<rect id="D3-D2" x="278" y="716" width="30" height="8" transform="rotate(-90 278 716)" fill="#353535"/>
<rect id="D3-D2_2" x="192" y="559" width="30" height="8" transform="rotate(-90 192 559)" fill="#353535"/>
<rect id="D4-C6" x="991" y="579" width="30" height="8" fill="#353535"/>
<rect id="D4-C6_2" x="991" y="415" width="30" height="8" fill="#353535"/>
<g id="C">
<path id="C_2" d="M627 257.205V244H667V257.205V257.939L667.7 258.159C694.816 266.675 714.754 290.466 716.001 320.042L716.041 321H717H735V382H717H716V383V457V458H717H735V518H716.937H715.978L715.938 518.958C714.69 548.554 694.797 573.331 667.7 581.841L667 582.061V582.795V595H627V582.795V582.061L626.3 581.841C599.203 573.331 579.31 548.554 578.062 518.958L578.022 518H577.063H558V458H577H578V457V383V382H577H558V321H577H577.959L577.999 320.042C579.246 290.466 599.184 266.675 626.3 258.159L627 257.939V257.205Z" stroke="#C4C4C4" stroke-width="2"/>
<circle id="Ellipse 245" cx="646.508" cy="420" r="34.5" fill="#353535" stroke="#353535"/>
<circle id="Ellipse 376" cx="626.906" cy="472.128" r="21" fill="#FECA19"/>
<circle id="Ellipse 377" cx="683.836" cy="518.3" r="21" fill="#FECA19"/>
<circle id="Ellipse 378" cx="672.836" cy="295" r="10" fill="#C4C4C4"/>
<circle id="Ellipse 379" cx="627.773" cy="536.695" r="10" fill="#C4C4C4"/>
<circle id="Ellipse 380" cx="607.773" cy="304.7" r="10" fill="#C4C4C4"/>
<circle id="Ellipse 381" cx="700.289" cy="464.636" r="10" fill="#C4C4C4"/>
<g id="Group 471">
<circle id="Ellipse 289_10" cx="673.352" cy="348.673" r="21" fill="#FECA19"/>
<text id="1-5_3" fill="black" xml:space="preserve" style="white-space: pre" font-family="IBM Plex Mono" font-size="12" font-weight="600" letter-spacing="0em"><tspan x="662.809" y="353.138">1-5</tspan></text>
</g>
<g id="Group 472">
<circle id="Ellipse 375" cx="618.773" cy="373" r="21" fill="#FECA19"/>
<text id="2-4_2" fill="black" xml:space="preserve" style="white-space: pre" font-family="IBM Plex Mono" font-size="12" font-weight="600" letter-spacing="0em"><tspan x="608.414" y="377.171">2-4</tspan></text>
</g>
</g>
<g id="C3">
<path id="C3_2" d="M387 519H388V520V596H499.476L552.002 519.689V462.5V453V452H553.002H572.002V422H553.002H388V453V454H387H372V519H387Z" stroke="#C4C4C4" stroke-width="2"/>
<circle id="Ellipse 361" cx="515.355" cy="451.933" r="21" fill="#FECA19"/>
<circle id="Ellipse 362" cx="474.578" cy="562.305" r="21" fill="#FECA19"/>
<circle id="Ellipse 289_11" cx="419.219" cy="463.261" r="21" fill="#FECA19"/>
<circle id="Ellipse 363" cx="468.289" cy="483" r="21" fill="#FECA19"/>
<circle id="Ellipse 364" cx="506.703" cy="517.594" r="10" fill="#C4C4C4"/>
<circle id="Ellipse 365" cx="441.754" cy="525.89" r="10" fill="#C4C4C4"/>
<circle id="Ellipse 366" cx="407" cy="511.126" r="10" fill="#C4C4C4"/>
<circle id="Ellipse 367" cx="417" cy="559.452" r="10" fill="#C4C4C4"/>
</g>
<g id="B5">
<path id="B5_2" d="M740 388H722V416H741H905V385V384H906H921V319H906H905V318V303.5V238H791.055L741 318.286V375.5V387V388H740Z" stroke="#C4C4C4" stroke-width="2"/>
<circle id="Ellipse 390" cx="826.352" cy="381.921" r="21" fill="#FECA19"/>
<circle id="Ellipse 289_12" cx="876" cy="267.244" r="21" fill="#FECA19"/>
<circle id="Ellipse 391" cx="879.555" cy="341.983" r="21" fill="#FECA19"/>
<g id="Group 473">
<circle id="Ellipse 389" cx="826.336" cy="304.983" r="21" fill="#FECA19"/>
<text id="1-3_3" fill="black" xml:space="preserve" style="white-space: pre" font-family="IBM Plex Mono" font-size="12" font-weight="600" letter-spacing="0em"><tspan x="815.562" y="308.421">1-3</tspan></text>
</g>
<circle id="Ellipse 392" cx="770.996" cy="330.983" r="10" fill="#C4C4C4"/>
<circle id="Ellipse 393" cx="801.996" cy="261.5" r="10" fill="#C4C4C4"/>
<circle id="Ellipse 394" cx="772" cy="385" r="10" fill="#C4C4C4"/>
<circle id="Ellipse 395" cx="876.996" cy="390" r="10" fill="#C4C4C4"/>
</g>
<g id="C5">
<path id="C5_2" d="M740 452H722V422H741H905V453V454H906H921V519H906H905V520V600H790.057L741 520.716V462.5V453V452H740Z" stroke="#C4C4C4" stroke-width="2"/>
<g id="Group 441">
<rect id="Rectangle 1145_3" x="841.996" y="569.452" width="53" height="22" fill="#C4C4C4"/>
<text id="1-4_3" fill="black" xml:space="preserve" style="white-space: pre" font-family="IBM Plex Mono" font-size="16" font-weight="600" letter-spacing="0em"><tspan x="854.105" y="586.452">1-4</tspan></text>
</g>
<circle id="Ellipse 382" cx="823.32" cy="452.958" r="21" fill="#FECA19"/>
<circle id="Ellipse 383" cx="808.367" cy="562" r="21" fill="#FECA19"/>
<circle id="Ellipse 289_13" cx="865.996" cy="534" r="21" fill="#FECA19"/>
<circle id="Ellipse 384" cx="774.312" cy="492" r="21" fill="#FECA19"/>
<circle id="Ellipse 385" cx="874.336" cy="450.207" r="10" fill="#C4C4C4"/>
<circle id="Ellipse 386" cx="767.367" cy="445" r="10" fill="#C4C4C4"/>
<circle id="Ellipse 387" cx="890.555" cy="489" r="10" fill="#C4C4C4"/>
<circle id="Ellipse 388" cx="828.117" cy="505.776" r="10" fill="#C4C4C4"/>
</g>
<g id="Lock C-B3">
<rect id="C-B3" x="551" y="502" width="30" height="8" transform="rotate(-90 551 502)" fill="#353535"/>
<text id="1-4_4" transform="translate(564 477) rotate(90)" fill="#F86132" xml:space="preserve" style="white-space: pre" font-family="IBM Plex Mono" font-size="12" font-weight="600" letter-spacing="0em"><tspan x="0.207031" y="12.5">1-3</tspan></text>
</g>
<g id="Lock C-B5">
<rect id="C-B5" x="734" y="367" width="30" height="8" transform="rotate(-90 734 367)" fill="#353535"/>
<text id="1-2" transform="translate(747 340) rotate(90)" fill="#F86132" xml:space="preserve" style="white-space: pre" font-family="IBM Plex Mono" font-size="12" font-weight="600" letter-spacing="0em"><tspan x="0.207031" y="12.5">1-2</tspan></text>
</g>
<g id="D3">
<path id="D3_2" d="M767 635H786V605.281L736.439 524H730H726.5H721.579C718.526 552.777 699.207 576.683 673 586.369V600V601H672H622H621V600V586.369C594.793 576.683 575.474 552.777 572.421 524H570H556.524L503 601.312V635H522H523V636V698V699H522H503V718.578L542.407 757H621V743.5V742.5H622H672H673V743.5V757H720.674H747.09L786 718.582V699H767H766V698V636V635H767Z" stroke="#C4C4C4" stroke-width="2"/>
<circle id="Ellipse 354" cx="585" cy="641.127" r="21" fill="#FECA19"/>
<circle id="Ellipse 355" cx="715" cy="638" r="21" fill="#FECA19"/>
<circle id="Ellipse 289_14" cx="627" cy="701" r="21" fill="#FECA19"/>
<circle id="Ellipse 356" cx="559" cy="713.937" r="21" fill="#FECA19"/>
<circle id="Ellipse 357" cx="692" cy="705" r="10" fill="#C4C4C4"/>
<circle id="Ellipse 358" cx="647" cy="634.127" r="10" fill="#C4C4C4"/>
<circle id="Ellipse 359" cx="739" cy="596.69" r="10" fill="#C4C4C4"/>
<circle id="Ellipse 360" cx="553" cy="588" r="10" fill="#C4C4C4"/>
</g>
<rect id="C-D3_2" x="632" y="237" width="30" height="8" fill="#C4C4C4"/>
<g id="Lock D3-D4">
<rect id="D3-D4" x="765" y="681" width="30" height="8" transform="rotate(-90 765 681)" fill="#353535"/>
<text id="1-3_4" transform="translate(778 655) rotate(90)" fill="#F86132" xml:space="preserve" style="white-space: pre" font-family="IBM Plex Mono" font-size="12" font-weight="600" letter-spacing="0em"><tspan x="0.207031" y="12.5">1-3</tspan></text>
</g>
<g id="O">
<path id="O_2" d="M394 139H497V236H383H382V237V313H346H199V237V236H198H164V208.44C164 182.857 171.919 165.58 186.047 154.659C200.228 143.698 220.838 139 246.5 139H250H251V138V108H393V138V139H394Z" stroke="#C4C4C4" stroke-width="2"/>
<g id="Group 443">
<rect id="Rectangle 1145_4" x="427.078" y="146" width="53" height="22" fill="#C4C4C4"/>
<text id="3-4" fill="black" xml:space="preserve" style="white-space: pre" font-family="IBM Plex Mono" font-size="16" font-weight="600" letter-spacing="0em"><tspan x="439.188" y="163">3-4</tspan></text>
</g>
<circle id="Ellipse 245_2" cx="323" cy="210.5" r="34.5" fill="#353535" stroke="#353535"/>
<circle id="Ellipse 289_15" cx="269.5" cy="182" r="21" fill="#FECA19"/>
<circle id="Ellipse 291" cx="400.141" cy="194.303" r="21" fill="#FECA19"/>
<circle id="Ellipse 298" cx="344" cy="147" r="21" fill="#FECA19"/>
<circle id="Ellipse 299" cx="283" cy="130.5" r="10" fill="#C4C4C4"/>
<circle id="Ellipse 294" cx="264.266" cy="278" r="10" fill="#C4C4C4"/>
<circle id="Ellipse 295" cx="458.285" cy="193.303" r="10" fill="#C4C4C4"/>
<circle id="Ellipse 296" cx="199" cy="183.303" r="10" fill="#C4C4C4"/>
<g id="Group 466">
<circle id="Ellipse 297" cx="339.805" cy="278" r="21" fill="#FECA19"/>
<text id="2-3_2" fill="black" xml:space="preserve" style="white-space: pre" font-family="IBM Plex Mono" font-size="12" font-weight="600" letter-spacing="0em"><tspan x="328.746" y="281.5">2-3</tspan></text>
</g>
</g>
<g id="A1">
<path id="A1_2" d="M158 241V242H159H193V270.009L139.004 270.5L138.998 270.5L27 270.004V269.991V269.948V269.904V269.86V269.814V269.767V269.72V269.671V269.622V269.572V269.521V269.469V269.416V269.362V269.307V269.251V269.194V269.137V269.078V269.019V268.958V268.897V268.835V268.771V268.707V268.642V268.576V268.509V268.441V268.372V268.302V268.232V268.16V268.087V268.014V267.939V267.864V267.787V267.71V267.632V267.552V267.472V267.391V267.309V267.226V267.141V267.056V266.97V266.883V266.796V266.707V266.617V266.526V266.434V266.341V266.248V266.153V266.057V265.961V265.863V265.764V265.665V265.564V265.463V265.36V265.257V265.152V265.047V264.94V264.833V264.725V264.615V264.505V264.393V264.281V264.168V264.053V263.938V263.822V263.704V263.586V263.467V263.346V263.225V263.103V262.979V262.855V262.73V262.603V262.476V262.348V262.218V262.088V261.956V261.824V261.69V261.556V261.421V261.284V261.147V261.008V260.869V260.728V260.586V260.444V260.3V260.156V260.01V259.863V259.715V259.567V259.417V259.266V259.114V258.961V258.807V258.652V258.496V258.339V258.181V258.022V257.862V257.701V257.538V257.375V257.211V257.045V256.879V256.711V256.543V256.373V256.203V256.031V255.858V255.684V255.509V255.333V255.157V254.978V254.799V254.619V254.438V254.256V254.072V253.888V253.702V253.516V253.328V253.139V252.949V252.759V252.567V252.374V252.18V251.984V251.788V251.591V251.392V251.193V250.992V250.791V250.588V250.384V250.179V249.973V249.766V249.558V249.348V249.138V248.926V248.714V248.5V248.285V248.069V247.852V247.634V247.415V247.195V246.974V246.751V246.527V246.303V246.077V245.85V245.622V245.393V245.162V244.931V244.699V244.465V244.23V243.994V243.757V243.519V243.28V243.04V242.798V242.556V242.312V242.067V241.821V241.574V241.326V241.076V240.826V240.574V240.322V240.068V239.813V239.556V239.299V239.041V238.781V238.52V238.258V237.995V237.731V237.466V237.199V236.932V236.663V236.393V236.122V235.85V235.576V235.302V235.026V234.749V234.471V234.192V233.912V233.63V233.347V233.064V232.779V232.492V232.205V231.916V231.627V231.336V231.044V230.751V230.456V230.161V229.864V229.566V229.267V228.967V228.665V228.363V228.059V227.754V227.448V227.14V226.832V226.522V226.211V225.899V225.586V225.271V224.955V224.639V224.32V224.001V223.681V223.359V223.036V222.712V222.387V222.06V221.732V221.403V221.073V220.742V220.409V220.076V219.741V219.405V219.067V218.729V218.389V218.048V217.705V217.362V217.017V216.671V216.324V215.976V215.626V215.275V214.923V214.57V214.215V213.86V213.503V213.145V212.785V212.424V212.062V211.699V211.335V210.969V210.602V210.234V209.865V209.494V209.123V208.749V208.375V208V207.623V207.245V206.865V206.485V206.103V205.72V205.335V204.95V204.563V204.175V203.785V203.395V203.003V202.61V202.215V201.82V201.423V201.024V200.625V200.224V199.822V199.419V199.014V198.608V198.201V197.793V197.383V196.972V196.56V196.146V195.731V195.315V194.898V194.479V194.059V193.638V193.215V192.792V192.366V191.94V191.512V191.083V190.653V190.221V189.789V189.354V188.919V188.482V188.044V187.605V187.164V186.722V186.279V185.834V185.388V184.941V184.492V184.042V183.591V183.139V182.685V182.23V181.773V181.316V180.857V180.396V179.935V179.472V179.007V178.542V178.074V177.606V177.137V176.666V176.193V175.72V175.245V174.768V174.291V173.812V173.331V172.85V172.367V171.882V171.397V170.91V170.421V169.931V169.44V168.948V168.454V167.959V167.463V166.965V166.466V165.965V165.463V164.96V164.456V163.95V163.442V162.934V162.424V161.912V161.4V160.885V160.37V159.853V159.335V158.815V158.294V157.772V157.248V156.723V156.197V155.669V155.14V154.609V154.077V153.544V153.009V152.473V151.936V151.397V150.857V150.315V149.772V149.228V148.682V148.135V147.586V147.036V146.485V145.932V145.378V144.822V144.265V143.707V143.147V142.586V142.024V141.46V140.894V140.328V139.759V139.19V138.619V138.046V137.473V136.897V136.321V135.743V135.163V134.582V134C27 84.6294 49.7916 56.6867 75.1501 41.0386C100.576 25.3489 128.63 22 139 22L352.375 22.0001L488.734 22.0001L533.201 22.0001L545.615 22.0001L548.881 22.0001H549V133H399V103V102H398H246H245V103V133.003C218.571 133.128 196.912 138.27 181.794 150.124C166.438 162.164 158 180.993 158 208V241Z" stroke="#C4C4C4" stroke-width="2"/>
<g id="Group 465">
<circle id="Ellipse 306" cx="468" cy="65.5911" r="21" fill="#FECA19"/>
<text id="1-3_5" fill="black" xml:space="preserve" style="white-space: pre" font-family="IBM Plex Mono" font-size="12" font-weight="600" letter-spacing="0em"><tspan x="457.492" y="69.7957">1-3</tspan></text>
</g>
<circle id="Ellipse 289_16" cx="173" cy="65.2957" r="21" fill="#FECA19"/>
<circle id="Ellipse 291_2" cx="309" cy="62" r="21" fill="#FECA19"/>
<circle id="Ellipse 307" cx="120" cy="197" r="21" fill="#FECA19"/>
<circle id="Ellipse 308" cx="373" cy="55.2957" r="10" fill="#C4C4C4"/>
<circle id="Ellipse 309" cx="223" cy="65.2957" r="10" fill="#C4C4C4"/>
<circle id="Ellipse 310" cx="62.0664" cy="193" r="10" fill="#C4C4C4"/>
<circle id="Ellipse 311" cx="99" cy="108" r="10" fill="#C4C4C4"/>
</g>
<g id="Lock C2-B2">
<rect id="C2-B2" x="273" y="312" width="30" height="8" fill="#353535"/>
<text id="1-2_2" transform="translate(277 307)" fill="#F86132" xml:space="preserve" style="white-space: pre" font-family="IBM Plex Mono" font-size="12" font-weight="600" letter-spacing="0em"><tspan x="0.207031" y="12.5">1-2</tspan></text>
</g>
<g id="Lock B1-C1_2">
<rect id="B1-C1_2" x="90" y="467" width="30" height="8" fill="#353535"/>
<text id="1-3_6" transform="translate(94 462)" fill="#F86132" xml:space="preserve" style="white-space: pre" font-family="IBM Plex Mono" font-size="12" font-weight="600" letter-spacing="0em"><tspan x="0.207031" y="12.5">1-3</tspan></text>
</g>
<rect id="A1-B1" x="94" y="269" width="30" height="8" fill="#353535"/>
<g id="A3">
<path id="A3_2" d="M503 172.5V139H554H555V138V22H607H622H651.5L651.502 22L651.511 22L651.553 22.0003C651.591 22.0006 651.649 22.0013 651.726 22.0025C651.88 22.0051 652.111 22.0104 652.414 22.0209C653.021 22.0419 653.915 22.0842 655.057 22.1691C657.34 22.3389 660.608 22.6791 664.532 23.3603C672.386 24.7234 682.843 27.4479 693.288 32.887C703.729 38.3236 714.145 46.465 721.955 58.6641C729.761 70.8589 735 87.1669 735 109V129.5V183.5V215.5V237V238H736H784.184L735.449 315H730H726.5H721.579C718.526 286.223 699.207 262.317 673 252.631V239V238H672H622H621V239V252.631C594.793 262.317 575.474 286.223 572.421 315H570H557.522L503 236.686V210.5V172.5Z" stroke="#C4C4C4" stroke-width="2"/>
<circle id="Ellipse 300" cx="555" cy="246" r="21" fill="#FECA19"/>
<circle id="Ellipse 291_3" cx="696.293" cy="200" r="21" fill="#FECA19"/>
<circle id="Ellipse 301" cx="622.074" cy="145.085" r="21" fill="#FECA19"/>
<circle id="Ellipse 302" cx="591.074" cy="45.1047" r="10" fill="#C4C4C4"/>
<circle id="Ellipse 303" cx="692.133" cy="75" r="10" fill="#C4C4C4"/>
<circle id="Ellipse 304" cx="685.293" cy="137.401" r="10" fill="#C4C4C4"/>
<circle id="Ellipse 305" cx="563" cy="189" r="10" fill="#C4C4C4"/>
<g id="Group 470">
<circle id="Ellipse 289_17" cx="641.602" cy="71" r="21" fill="#FECA19"/>
<text id="1-4_5" fill="black" xml:space="preserve" style="white-space: pre" font-family="IBM Plex Mono" font-size="12" font-weight="600" letter-spacing="0em"><tspan x="631.301" y="74.5">1-4</tspan></text>
</g>
</g>
<rect id="A1-A3" x="548" y="92" width="30" height="8" transform="rotate(-90 548 92)" fill="#353535"/>
<rect id="D3-D2_3" x="516" y="681" width="30" height="8" transform="rotate(-90 516 681)" fill="#353535"/>
<g id="B3">
<path id="B3_2" d="M387 319H388V318V242H499.474L552 318.311V375.5V387V388H553H572V416H553H388V385V384H387H372V319H387Z" stroke="#C4C4C4" stroke-width="2"/>
<g id="Group 442">
<rect id="Rectangle 1145_5" x="412.578" y="384" width="53" height="22" fill="#C4C4C4"/>
<text id="1-4_6" fill="black" xml:space="preserve" style="white-space: pre" font-family="IBM Plex Mono" font-size="16" font-weight="600" letter-spacing="0em"><tspan x="424.688" y="401">1-4</tspan></text>
</g>
<circle id="Ellipse 368" cx="429.461" cy="272.354" r="21" fill="#FECA19"/>
<circle id="Ellipse 369" cx="482.906" cy="271.5" r="21" fill="#FECA19"/>
<circle id="Ellipse 289_18" cx="516.648" cy="318.354" r="21" fill="#FECA19"/>
<g id="Group 467">
<circle id="Ellipse 370" cx="418" cy="349.148" r="21" fill="#FECA19"/>
<text id="2-2" fill="black" xml:space="preserve" style="white-space: pre" font-family="IBM Plex Mono" font-size="12" font-weight="600" letter-spacing="0em"><tspan x="407.332" y="352.854">2-2</tspan></text>
</g>
<circle id="Ellipse 371" cx="457.285" cy="317" r="10" fill="#C4C4C4"/>
<circle id="Ellipse 372" cx="527.148" cy="363.25" r="10" fill="#C4C4C4"/>
<circle id="Ellipse 373" cx="478.074" cy="357.329" r="10" fill="#C4C4C4"/>
<circle id="Ellipse 374" cx="492.906" cy="393.25" r="10" fill="#C4C4C4"/>
</g>
<g id="Lock C-C3">
<rect id="C-C3" x="551" y="367" width="30" height="8" transform="rotate(-90 551 367)" fill="#353535"/>
<text id="1-4_7" transform="translate(564 342) rotate(90)" fill="#F86132" xml:space="preserve" style="white-space: pre" font-family="IBM Plex Mono" font-size="12" font-weight="600" letter-spacing="0em"><tspan x="0.207031" y="12.5">1-4</tspan></text>
</g>
<g id="E">
<path id="E_2" d="M827.997 24L830.496 34L823.996 35.5L824.997 39L838.997 36L852.997 39L853.996 35.5L847.996 34L850.997 24L866.997 28L864.496 38L858.996 36.5L857.997 40L869.997 43L881.997 52L884.496 49L880.496 45.5L886.997 37L899.997 47L893.496 55.5L889.496 52.5L886.996 55.5L895.997 63L901.496 75.5L904.997 74L902.997 69L913.996 64L920.997 79L910.496 84L907.997 79L903.997 81L909.997 93V110H934.996V232H740.997L740.996 110H766.997V93L772.997 80L769.496 78.5L766.996 83.5L756.997 79L763.997 64L773.996 68.5L771.496 73.5L774.997 75L780.997 63L790.997 55L788.496 52.5L784.496 55.5L776.997 47L790.997 36L797.496 45.5L792.496 49.5L794.997 52L806.997 43L819.997 40L818.997 36.5L813.997 37.5L810.997 28L827.997 24Z" stroke="#FECA19" stroke-width="2" stroke-linecap="round"/>
<circle id="Ellipse 245_3" cx="838.996" cy="110.085" r="34.5" fill="#353535" stroke="#353535"/>
<circle id="Ellipse 288" cx="780.996" cy="150.303" r="21" fill="#FECA19"/>
<circle id="Ellipse 289_19" cx="819.996" cy="194.303" r="21" fill="#FECA19"/>
<circle id="Ellipse 291_4" cx="883.996" cy="192.303" r="21" fill="#FECA19"/>
<circle id="Ellipse 290" cx="894.996" cy="134.303" r="21" fill="#FECA19"/>
<circle id="Ellipse 286" cx="866.996" cy="88.3029" r="10" fill="#C4C4C4"/>
<circle id="Ellipse 285" cx="831.996" cy="74.3029" r="10" fill="#C4C4C4"/>
<circle id="Ellipse 287" cx="846.996" cy="143" r="10" fill="#C4C4C4"/>
<circle id="Ellipse 284" cx="800.996" cy="108.303" r="10" fill="#C4C4C4"/>
</g>
<g id="S">
<path id="S_2" d="M1015.5 25H1107V101.284L1096.36 110.235L1095.46 110.99L1096.35 111.757L1106.49 120.519L1096.33 129.76L1095.51 130.5L1096.33 131.24L1106.55 140.534L1096.29 150.793L1095.51 151.574L1096.37 152.274L1106.55 160.604L1096.26 171.824L1095.64 172.5L1096.26 173.176L1107 184.889V205.565L1078.61 232H941V146V110C941 88.2722 945.686 72.1391 952.661 60.1514C959.636 48.1644 968.933 40.2676 978.238 35.0602C987.551 29.849 996.873 27.3314 1003.87 26.1181C1007.37 25.5119 1010.29 25.2324 1012.32 25.1045C1013.34 25.0405 1014.13 25.0145 1014.67 25.0043C1014.94 24.9993 1015.15 24.9982 1015.28 24.9984C1015.35 24.9984 1015.4 24.9988 1015.43 24.9992L1015.47 24.9997L1015.48 24.9998L1015.48 24.9998L1015.48 24.9998L1015.49 25H1015.5Z" stroke="#C4C4C4" stroke-width="2"/>
<circle id="Ellipse 245_4" cx="1023.51" cy="128" r="34.5" fill="#353535" stroke="#353535"/>
<g id="Group 475_2">
<circle id="Ellipse 396_3" cx="1069.2" cy="104.82" r="21" fill="#FECA19"/>
<text id="2-5" fill="black" xml:space="preserve" style="white-space: pre" font-family="IBM Plex Mono" font-size="12" font-weight="600" letter-spacing="0em"><tspan x="1058.41" y="108.32">2-5</tspan></text>
</g>
<circle id="Ellipse 418" cx="1056.8" cy="184.82" r="21" fill="#FECA19"/>
<circle id="Ellipse 289_20" cx="1006.8" cy="60.9243" r="21" fill="#FECA19"/>
<circle id="Ellipse 419" cx="968" cy="187.681" r="21" fill="#FECA19"/>
<circle id="Ellipse 420" cx="1066.8" cy="54.8195" r="10" fill="#C4C4C4"/>
<circle id="Ellipse 421" cx="970.094" cy="107.503" r="10" fill="#C4C4C4"/>
<circle id="Ellipse 422" cx="1004.53" cy="208.681" r="10" fill="#C4C4C4"/>
<circle id="Ellipse 296_2" cx="989" cy="146" r="10" fill="#C4C4C4"/>
</g>
<g id="Lock B6-S">
<rect id="B6-S" x="993.797" y="230.964" width="30" height="8" fill="#353535"/>
<text id="1-3_7" transform="translate(998 226)" fill="#F86132" xml:space="preserve" style="white-space: pre" font-family="IBM Plex Mono" font-size="12" font-weight="600" letter-spacing="0em"><tspan x="0.207031" y="12.5">1-3</tspan></text>
</g>
<rect id="E-A3" x="734" y="194" width="30" height="8" transform="rotate(-90 734 194)" fill="#353535"/>
<g id="Lock C-C5">
<rect id="C-C5" x="734" y="499" width="30" height="8" transform="rotate(-90 734 499)" fill="#353535"/>
<text id="1-5_4" transform="translate(747 471) rotate(90)" fill="#F86132" xml:space="preserve" style="white-space: pre" font-family="IBM Plex Mono" font-size="12" font-weight="600" letter-spacing="0em"><tspan x="0.207031" y="12.5">1-5</tspan></text>
</g>
</g>
</svg>
