<svg width="125" height="125" viewBox="0 0 125 125" fill="none" xmlns="http://www.w3.org/2000/svg">
<path d="M37.28 66.351V62.851H28.6V66.351H37.28ZM57.3451 73.127V70.131H52.9211V53.583H47.2931L42.4491 59.351L44.7451 61.283L49.0011 56.243H49.2531V70.131H43.8771V73.127H57.3451Z" fill="#FAFAFA"/>
<path fill-rule="evenodd" clip-rule="evenodd" d="M65.7434 55.6074C65.7434 52.846 67.982 50.6074 70.7434 50.6074H86.8218C89.5833 50.6074 91.8218 52.846 91.8218 55.6074V69.6074C91.8218 72.3688 89.5833 74.6074 86.8218 74.6074H70.7434C67.982 74.6074 65.7434 72.3688 65.7434 69.6074V55.6074ZM79.4175 54.8404L70.4561 63.8017L69.749 63.0946L78.7104 54.1332L79.4175 54.8404ZM72.7902 65.9249L81.7515 56.9636L81.0444 56.2565L72.0831 65.2178L72.7902 65.9249ZM84.0856 59.0868L75.1243 68.0481L74.4172 67.341L83.3785 58.3797L84.0856 59.0868ZM77.4583 70.1708L86.4196 61.2095L85.7125 60.5024L76.7512 69.4637L77.4583 70.1708Z" fill="#FAFAFA"/>
</svg>
