<svg width="125" height="125" viewBox="0 0 125 125" fill="none" xmlns="http://www.w3.org/2000/svg">
<path fill-rule="evenodd" clip-rule="evenodd" d="M31.5122 75.251L43.1282 51.251L48.7627 61.248L66.421 61.248L61.3677 55.4093C60.8608 54.8235 60.8608 53.8738 61.3677 53.288C61.8747 52.7022 62.6967 52.7022 63.2037 53.288L70.4069 61.6108C70.5336 61.7572 70.6287 61.9264 70.692 62.107C70.7841 62.3013 70.8355 62.5187 70.8355 62.748C70.8355 63.0412 70.7514 63.3148 70.606 63.5459C70.5475 63.6713 70.4724 63.7891 70.3807 63.895L63.2037 72.1876C62.6967 72.7734 61.8747 72.7734 61.3677 72.1876C60.8608 71.6018 60.8608 70.6521 61.3677 70.0663L66.4033 64.248L50.4536 64.248L56.6551 75.251H31.5122Z" fill="#FECA19"/>
<circle cx="85.8354" cy="64.1123" r="9.5" stroke="white" stroke-width="5"/>
</svg>
