<svg width="125" height="125" viewBox="0 0 125 125" fill="none" xmlns="http://www.w3.org/2000/svg">
<path d="M36.28 64.351V60.851H27.6V64.351H36.28ZM56.3451 71.127V68.131H51.9211V51.583H46.2931L41.4491 57.351L43.7451 59.283L48.0011 54.243H48.2531V68.131H42.8771V71.127H56.3451Z" fill="#2CED0C"/>
<path d="M87.1352 57.6783C87.3752 57.6783 87.6152 57.4383 87.6152 57.1983V55.7583C87.6152 55.5183 87.3752 55.2783 87.1352 55.2783H85.2152V52.8783C85.2152 52.1583 84.7352 51.6783 84.0152 51.6783H81.6152V49.7583C81.6152 49.5183 81.3752 49.2783 81.1352 49.2783H79.6952C79.4552 49.2783 79.2152 49.5183 79.2152 49.7583V51.6783H76.8152V49.7583C76.8152 49.5183 76.5752 49.2783 76.3352 49.2783H74.8952C74.6552 49.2783 74.4152 49.5183 74.4152 49.7583V51.6783H72.0152V49.7583C72.0152 49.5183 71.7752 49.2783 71.5352 49.2783H70.0952C69.8552 49.2783 69.6152 49.5183 69.6152 49.7583V51.6783H67.2152C66.4952 51.6783 66.0152 52.1583 66.0152 52.8783V55.2783H64.0952C63.8552 55.2783 63.6152 55.5183 63.6152 55.7583V57.1983C63.6152 57.4383 63.8552 57.6783 64.0952 57.6783H66.0152V60.0783H64.0952C63.8552 60.0783 63.6152 60.3183 63.6152 60.5583V61.9983C63.6152 62.2383 63.8552 62.4783 64.0952 62.4783H66.0152V64.8783H64.0952C63.8552 64.8783 63.6152 65.1183 63.6152 65.3583V66.7983C63.6152 67.0383 63.8552 67.2783 64.0952 67.2783H66.0152V69.6783C66.0152 70.3983 66.4952 70.8783 67.2152 70.8783H69.6152V72.7983C69.6152 73.0383 69.8552 73.2783 70.0952 73.2783H71.5352C71.7752 73.2783 72.0152 73.0383 72.0152 72.7983V70.8783H74.4152V72.7983C74.4152 73.0383 74.6552 73.2783 74.8952 73.2783H76.3352C76.5752 73.2783 76.8152 73.0383 76.8152 72.7983V70.8783H79.2152V72.7983C79.2152 73.0383 79.4552 73.2783 79.6952 73.2783H81.1352C81.3752 73.2783 81.6152 73.0383 81.6152 72.7983V70.8783H84.0152C84.7352 70.8783 85.2152 70.3983 85.2152 69.6783V67.2783H87.1352C87.3752 67.2783 87.6152 67.0383 87.6152 66.7983V65.3583C87.6152 65.1183 87.3752 64.8783 87.1352 64.8783H85.2152V62.4783H87.1352C87.3752 62.4783 87.6152 62.2383 87.6152 61.9983V60.5583C87.6152 60.3183 87.3752 60.0783 87.1352 60.0783H85.2152V57.6783H87.1352ZM82.8152 67.2783C82.8152 67.9983 82.3352 68.4783 81.6152 68.4783H69.6152C68.8952 68.4783 68.4152 67.9983 68.4152 67.2783V55.2783C68.4152 54.5583 68.8952 54.0783 69.6152 54.0783H81.6152C82.3352 54.0783 82.8152 54.5583 82.8152 55.2783V67.2783Z" fill="#2CED0C"/>
<path d="M79.769 56.6631H71.4613C71.2305 56.6631 70.9998 56.8939 70.9998 57.1246V65.4323C70.9998 65.6631 71.2305 65.8939 71.4613 65.8939H79.769C79.9998 65.8939 80.2305 65.6631 80.2305 65.4323V57.1246C80.2305 56.8939 79.9998 56.6631 79.769 56.6631Z" fill="#2CED0C"/>
</svg>
