<svg width="125" height="125" viewBox="0 0 125 125" fill="none" xmlns="http://www.w3.org/2000/svg">
<path d="M83.0315 60.0023H70.6565V56.4023C70.6565 54.4175 72.5072 52.8023 74.7815 52.8023C77.0557 52.8023 78.9065 54.4175 78.9065 56.4023H81.6565C81.6565 53.0939 78.5724 50.4023 74.7815 50.4023C70.9906 50.4023 67.9065 53.0939 67.9065 56.4023V60.0023H66.5315C65.8021 60.0023 65.1027 60.2552 64.587 60.7053C64.0712 61.1554 63.7815 61.7658 63.7815 62.4023V72.0023C63.7815 72.6389 64.0712 73.2493 64.587 73.6994C65.1027 74.1495 65.8021 74.4023 66.5315 74.4023H83.0315C83.7608 74.4023 84.4603 74.1495 84.976 73.6994C85.4918 73.2493 85.7815 72.6389 85.7815 72.0023V62.4023C85.7815 61.7658 85.4918 61.1554 84.976 60.7053C84.4603 60.2552 83.7608 60.0023 83.0315 60.0023ZM72.1154 66.6011C72.2844 66.0365 72.6832 65.5448 73.2372 65.218C73.7912 64.8911 74.4627 64.7515 75.1261 64.8251C75.7895 64.8988 76.3995 65.1806 76.8421 65.6181C77.2848 66.0556 77.5298 66.6187 77.5315 67.2023C77.5307 67.622 77.4032 68.0341 77.1618 68.3971C76.9204 68.7601 76.5737 69.0612 76.1565 69.2699V72.0023H73.4065V69.2699C72.8862 69.0098 72.4782 68.6078 72.2449 68.1257C72.0117 67.6436 71.9662 67.108 72.1154 66.6011V66.6011Z" fill="#F86132"/>
<path fill-rule="evenodd" clip-rule="evenodd" d="M49.1506 72.8018C49.1506 73.6302 48.479 74.3018 47.6506 74.3018C46.8222 74.3018 46.1506 73.6302 46.1506 72.8018L46.1506 55.1983L40.3118 60.8036C39.726 61.3659 38.7762 61.3659 38.1904 60.8036C37.6047 60.2412 37.6047 59.3295 38.1904 58.7671L46.5133 50.7772C46.6136 50.6809 46.7246 50.6011 46.8426 50.5378C47.0758 50.3884 47.3531 50.3018 47.6506 50.3018C48.0307 50.3018 48.3777 50.4431 48.6421 50.6761C48.6961 50.7155 48.748 50.7589 48.7973 50.8062L57.09 58.7671C57.6757 59.3295 57.6757 60.2412 57.09 60.8036C56.5042 61.3659 55.5544 61.3659 54.9686 60.8036L49.1506 55.2183L49.1506 72.8018Z" fill="#F86132"/>
<rect x="27.251" y="41.8018" width="72" height="41" rx="3.5" stroke="#F86132" stroke-width="3"/>
</svg>
