<svg width="125" height="125" viewBox="0 0 125 125" fill="none" xmlns="http://www.w3.org/2000/svg">
<path d="M27.6 63.351V59.851H36.28V63.351H27.6ZM42.8771 70.127V67.131H48.2531V53.243H48.0011L43.7451 58.283L41.4491 56.351L46.2931 50.583H51.9211V67.131H56.3451V70.127H42.8771Z" fill="#F86132"/>
<path d="M81.2417 57.1356H68.8667V53.5356C68.8667 51.5508 70.7174 49.9356 72.9917 49.9356C75.2659 49.9356 77.1167 51.5508 77.1167 53.5356H79.8667C79.8667 50.2272 76.7826 47.5356 72.9917 47.5356C69.2008 47.5356 66.1167 50.2272 66.1167 53.5356V57.1356H64.7417C64.0124 57.1356 63.3129 57.3885 62.7972 57.8386C62.2814 58.2887 61.9917 58.8991 61.9917 59.5356V69.1356C61.9917 69.7722 62.2814 70.3826 62.7972 70.8327C63.3129 71.2828 64.0124 71.5356 64.7417 71.5356H81.2417C81.971 71.5356 82.6705 71.2828 83.1862 70.8327C83.702 70.3826 83.9917 69.7722 83.9917 69.1356V59.5356C83.9917 58.8991 83.702 58.2887 83.1862 57.8386C82.6705 57.3885 81.971 57.1356 81.2417 57.1356ZM70.3256 63.7344C70.4946 63.1698 70.8934 62.6781 71.4474 62.3513C72.0015 62.0244 72.6729 61.8848 73.3363 61.9584C73.9997 62.0321 74.6097 62.3139 75.0523 62.7514C75.495 63.1889 75.74 63.752 75.7417 64.3356C75.7409 64.7553 75.6134 65.1674 75.372 65.5304C75.1306 65.8934 74.7839 66.1945 74.3667 66.4032V69.1356H71.6167V66.4032C71.0964 66.1431 70.6884 65.7411 70.4551 65.259C70.2219 64.7769 70.1764 64.2413 70.3256 63.7344V63.7344Z" fill="#F86132"/>
</svg>
