<svg width="125" height="125" viewBox="0 0 125 125" fill="none" xmlns="http://www.w3.org/2000/svg">
<rect x="37.6211" y="63.2168" width="2.14288" height="9.2858" rx="1" transform="rotate(-79.9116 37.6211 63.2168)" fill="#FECA19"/>
<rect x="48.3353" y="44.4312" width="2.14288" height="9.2858" rx="1" transform="rotate(-33.4607 48.3353 44.4312)" fill="#FECA19"/>
<rect x="41.907" y="53.6045" width="2.14288" height="9.2858" rx="1" transform="rotate(-56.3305 41.907 53.6045)" fill="#FECA19"/>
<rect width="2.14288" height="9.2858" rx="1" transform="matrix(-0.175168 -0.984539 -0.984539 0.175168 85.2434 63.2168)" fill="#FECA19"/>
<rect width="2.14288" height="9.2858" rx="1" transform="matrix(-0.834264 -0.551365 -0.551365 0.834264 74.5292 44.4312)" fill="#FECA19"/>
<rect width="2.14288" height="9.2858" rx="1" transform="matrix(-0.554401 -0.832249 -0.832249 0.554401 80.9575 53.6045)" fill="#FECA19"/>
<path d="M61.1631 43.9639L44.0498 73.2499H79.7644L61.1631 43.9639Z" fill="#FECA19"/>
</svg>
