<svg width="125" height="125" viewBox="0 0 125 125" fill="none" xmlns="http://www.w3.org/2000/svg">
<path d="M31.5078 65.351V61.851H40.1878V65.351H31.5078ZM46.7848 72.127V69.131H52.1608V55.243H51.9088L47.6528 60.283L45.3568 58.351L50.2008 52.583H55.8288V69.131H60.2528V72.127H46.7848Z" fill="#FAFAFA"/>
<path d="M73.4158 50.4795C77.534 50.4795 80.8696 53.5517 80.8696 57.3416C80.8696 53.5517 84.2052 50.4795 88.3235 50.4795C92.4417 50.4795 95.7773 53.5517 95.7773 57.3416C95.7773 63.0536 89.7509 65.0685 81.6001 74.1607C81.5104 74.2606 81.3985 74.3409 81.2723 74.3959C81.1462 74.451 81.0087 74.4795 80.8696 74.4795C80.7305 74.4795 80.5931 74.451 80.4669 74.3959C80.3407 74.3409 80.2289 74.2606 80.1391 74.1607C71.9884 65.0685 65.9619 63.0536 65.9619 57.3416C65.9619 53.5517 69.2975 50.4795 73.4158 50.4795Z" fill="#CB0000"/>
</svg>
