<svg width="125" height="125" viewBox="0 0 125 125" fill="none" xmlns="http://www.w3.org/2000/svg">
<mask id="path-1-inside-1" fill="white">
<path fill-rule="evenodd" clip-rule="evenodd" d="M49.3742 74.2964C49.3742 75.1248 48.7027 75.7964 47.8742 75.7964C47.0458 75.7964 46.3742 75.1248 46.3742 74.2964L46.3742 56.6929L40.5354 62.2982C39.9496 62.8605 38.9999 62.8605 38.4141 62.2982C37.8283 61.7358 37.8283 60.824 38.4141 60.2617L46.7369 52.2718C46.8374 52.1753 46.9486 52.0954 47.0668 52.032C47.2999 51.8829 47.577 51.7964 47.8742 51.7964C48.2541 51.7964 48.601 51.9376 48.8653 52.1704C48.9195 52.2098 48.9715 52.2533 49.021 52.3008L57.3136 60.2617C57.8994 60.824 57.8994 61.7358 57.3136 62.2982C56.7278 62.8605 55.7781 62.8605 55.1923 62.2982L49.3742 56.7128L49.3742 74.2964Z"/>
</mask>
<path fill-rule="evenodd" clip-rule="evenodd" d="M49.3742 74.2964C49.3742 75.1248 48.7027 75.7964 47.8742 75.7964C47.0458 75.7964 46.3742 75.1248 46.3742 74.2964L46.3742 56.6929L40.5354 62.2982C39.9496 62.8605 38.9999 62.8605 38.4141 62.2982C37.8283 61.7358 37.8283 60.824 38.4141 60.2617L46.7369 52.2718C46.8374 52.1753 46.9486 52.0954 47.0668 52.032C47.2999 51.8829 47.577 51.7964 47.8742 51.7964C48.2541 51.7964 48.601 51.9376 48.8653 52.1704C48.9195 52.2098 48.9715 52.2533 49.021 52.3008L57.3136 60.2617C57.8994 60.824 57.8994 61.7358 57.3136 62.2982C56.7278 62.8605 55.7781 62.8605 55.1923 62.2982L49.3742 56.7128L49.3742 74.2964Z" fill="#2CED0C"/>
<path d="M46.3742 74.2964L47.3742 74.2964L46.3742 74.2964ZM46.3742 56.6929L47.3742 56.6929L47.3742 54.3466L45.6817 55.9715L46.3742 56.6929ZM40.5354 62.2982L39.8429 61.5768L39.8429 61.5768L40.5354 62.2982ZM38.4141 62.2982L39.1066 61.5768L39.1066 61.5768L38.4141 62.2982ZM38.4141 60.2617L39.1066 60.9831L39.1066 60.9831L38.4141 60.2617ZM46.7369 52.2718L46.0444 51.5504L46.0444 51.5504L46.7369 52.2718ZM47.0668 52.032L47.5392 52.9134L47.5733 52.8952L47.6058 52.8743L47.0668 52.032ZM48.8653 52.1704L48.2043 52.9208L48.2392 52.9515L48.2767 52.9788L48.8653 52.1704ZM49.021 52.3008L49.7135 51.5794L49.7135 51.5794L49.021 52.3008ZM57.3136 60.2617L58.0061 59.5403L58.0061 59.5403L57.3136 60.2617ZM55.1923 62.2982L54.4997 63.0195L54.4997 63.0195L55.1923 62.2982ZM49.3742 56.7128L50.0668 55.9915L48.3742 54.3666L48.3742 56.7128L49.3742 56.7128ZM47.8742 76.7964C49.2549 76.7964 50.3742 75.6771 50.3742 74.2964L48.3742 74.2964C48.3742 74.5725 48.1504 74.7964 47.8742 74.7964L47.8742 76.7964ZM45.3742 74.2964C45.3742 75.6771 46.4935 76.7964 47.8742 76.7964L47.8742 74.7964C47.5981 74.7964 47.3742 74.5725 47.3742 74.2964L45.3742 74.2964ZM45.3742 56.6929L45.3742 74.2964L47.3742 74.2964L47.3742 56.6929L45.3742 56.6929ZM41.2279 63.0195L47.0668 57.4142L45.6817 55.9715L39.8429 61.5768L41.2279 63.0195ZM37.7215 63.0195C38.6943 63.9534 40.2552 63.9534 41.2279 63.0195L39.8429 61.5768C39.644 61.7676 39.3054 61.7676 39.1066 61.5768L37.7215 63.0195ZM37.7215 59.5403C36.7258 60.4962 36.7258 62.0636 37.7215 63.0195L39.1066 61.5768C38.9308 61.408 38.9308 61.1519 39.1066 60.9831L37.7215 59.5403ZM46.0444 51.5504L37.7215 59.5403L39.1066 60.9831L47.4294 52.9932L46.0444 51.5504ZM46.5944 51.1507C46.3975 51.2562 46.2119 51.3895 46.0444 51.5504L47.4294 52.9932C47.4628 52.9611 47.4996 52.9346 47.5392 52.9134L46.5944 51.1507ZM47.8742 50.7964C47.3803 50.7964 46.917 50.9407 46.5278 51.1897L47.6058 52.8743C47.6828 52.8251 47.7736 52.7964 47.8742 52.7964L47.8742 50.7964ZM49.5263 51.42C49.0864 51.0325 48.5067 50.7964 47.8742 50.7964L47.8742 52.7964C48.0015 52.7964 48.1156 52.8427 48.2043 52.9208L49.5263 51.42ZM49.7135 51.5794C49.6311 51.5003 49.5443 51.4278 49.4538 51.3619L48.2767 52.9788C48.2946 52.9919 48.3119 53.0063 48.3285 53.0222L49.7135 51.5794ZM58.0061 59.5403L49.7135 51.5794L48.3284 53.0222L56.6211 60.9831L58.0061 59.5403ZM58.0061 63.0195C59.0019 62.0636 59.0019 60.4962 58.0061 59.5403L56.6211 60.9831C56.7969 61.1519 56.7969 61.408 56.6211 61.5768L58.0061 63.0195ZM54.4997 63.0195C55.4725 63.9534 57.0334 63.9534 58.0061 63.0195L56.6211 61.5768C56.4222 61.7676 56.0836 61.7676 55.8848 61.5768L54.4997 63.0195ZM48.6817 57.4342L54.4997 63.0195L55.8848 61.5768L50.0668 55.9915L48.6817 57.4342ZM50.3742 74.2964L50.3742 56.7128L48.3742 56.7128L48.3742 74.2964L50.3742 74.2964Z" fill="#2CED0C" mask="url(#path-1-inside-1)"/>
<path d="M84.8527 57.269V57.769H85.3527H87.2453C87.2466 57.7701 87.2478 57.7713 87.2491 57.7726C87.2504 57.7739 87.2516 57.7752 87.2527 57.7764V59.1617C87.2516 59.1629 87.2504 59.1642 87.2491 59.1655C87.2478 59.1668 87.2466 59.168 87.2453 59.169H85.3527H84.8527V59.669V62.069V62.569H85.3527H87.2453C87.2466 62.5701 87.2478 62.5713 87.2491 62.5726C87.2504 62.5739 87.2516 62.5752 87.2527 62.5764V63.9617C87.2516 63.9629 87.2504 63.9642 87.2491 63.9655C87.2478 63.9668 87.2466 63.968 87.2453 63.969H85.3527H84.8527V64.469V66.869V67.369H85.3527H87.2453C87.2466 67.3701 87.2478 67.3713 87.2491 67.3726C87.2504 67.3739 87.2516 67.3752 87.2527 67.3764V68.7617C87.2516 68.7629 87.2504 68.7642 87.2491 68.7655C87.2478 68.7668 87.2466 68.768 87.2453 68.769H85.3527H84.8527V69.269V71.669C84.8527 71.9154 84.7727 72.0819 84.6691 72.1855C84.5655 72.2891 84.3991 72.369 84.1527 72.369H81.7527H81.2527V72.869V74.7617C81.2516 74.7629 81.2504 74.7642 81.2491 74.7655C81.2478 74.7668 81.2466 74.768 81.2453 74.769H79.8601C79.8588 74.768 79.8575 74.7668 79.8562 74.7655C79.855 74.7642 79.8538 74.763 79.8528 74.7618C79.8527 74.7617 79.8527 74.7617 79.8527 74.7617V72.869V72.369H79.3527H76.9527H76.4527V72.869V74.7617C76.4516 74.7629 76.4504 74.7642 76.4491 74.7655C76.4478 74.7668 76.4466 74.768 76.4453 74.769H75.0601C75.0588 74.768 75.0575 74.7668 75.0562 74.7655C75.0549 74.7642 75.0538 74.7629 75.0527 74.7617V72.869V72.369H74.5527H72.1527H71.6527V72.869V74.7617C71.6516 74.7629 71.6504 74.7642 71.6491 74.7655C71.6478 74.7668 71.6466 74.768 71.6453 74.769H70.2601C70.2588 74.768 70.2575 74.7668 70.2562 74.7655C70.2549 74.7642 70.2538 74.7629 70.2527 74.7617V72.869V72.369H69.7527H67.3527C67.1063 72.369 66.9398 72.2891 66.8362 72.1855C66.7326 72.0819 66.6527 71.9154 66.6527 71.669V69.269V68.769H66.1527H64.2601C64.2588 68.768 64.2575 68.7668 64.2562 68.7655C64.2549 68.7642 64.2538 68.7629 64.2527 68.7617V67.3764C64.2538 67.3752 64.2549 67.3739 64.2562 67.3726C64.2575 67.3713 64.2588 67.3701 64.2601 67.369H66.1527H66.6527V66.869V64.469V63.969H66.1527H64.2601C64.2588 63.968 64.2575 63.9668 64.2562 63.9655C64.2549 63.9642 64.2538 63.9629 64.2527 63.9617V62.5764C64.2538 62.5752 64.2549 62.5739 64.2562 62.5726C64.2575 62.5713 64.2588 62.5701 64.2601 62.569H66.1527H66.6527V62.069V59.669V59.169H66.1527H64.2601C64.2588 59.168 64.2575 59.1668 64.2562 59.1655C64.2549 59.1642 64.2538 59.1629 64.2527 59.1617V57.7764C64.2538 57.7752 64.2549 57.7739 64.2562 57.7726C64.2575 57.7713 64.2588 57.7701 64.2601 57.769H66.1527H66.6527V57.269V54.869C66.6527 54.6227 66.7326 54.4562 66.8362 54.3526C66.9398 54.249 67.1063 54.169 67.3527 54.169H69.7527H70.2527V53.669V51.7764C70.2538 51.7752 70.2549 51.7739 70.2562 51.7726C70.2575 51.7713 70.2588 51.7701 70.2601 51.769H71.6453C71.6466 51.7701 71.6478 51.7713 71.6491 51.7726C71.6504 51.7739 71.6516 51.7752 71.6527 51.7764V53.669V54.169H72.1527H74.5527H75.0527V53.669V51.7764C75.0538 51.7752 75.0549 51.7739 75.0562 51.7726C75.0575 51.7713 75.0588 51.7701 75.0601 51.769H76.4453C76.4466 51.7701 76.4478 51.7713 76.4491 51.7726C76.4504 51.7739 76.4516 51.7752 76.4527 51.7764V53.669V54.169H76.9527H79.3527H79.8527V53.669V51.7764C79.8538 51.7752 79.8549 51.7739 79.8562 51.7726C79.8575 51.7713 79.8588 51.7701 79.8601 51.769H81.2453C81.2466 51.7701 81.2478 51.7713 81.2491 51.7726C81.2504 51.7739 81.2516 51.7752 81.2527 51.7764V53.669V54.169H81.7527H84.1527C84.3991 54.169 84.5655 54.249 84.6691 54.3526C84.7727 54.4562 84.8527 54.6227 84.8527 54.869V57.269ZM81.7527 70.969C82.2263 70.969 82.6598 70.809 82.9762 70.4926C83.2926 70.1762 83.4527 69.7427 83.4527 69.269V57.269C83.4527 56.7954 83.2926 56.3619 82.9762 56.0455C82.6598 55.7291 82.2263 55.569 81.7527 55.569H69.7527C69.2791 55.569 68.8455 55.7291 68.5291 56.0455C68.2127 56.3619 68.0527 56.7954 68.0527 57.269V69.269C68.0527 69.7427 68.2127 70.1762 68.5291 70.4926C68.8455 70.809 69.2791 70.969 69.7527 70.969H81.7527Z" fill="#2CED0C" stroke="#2CED0C"/>
<path d="M71.637 67.3846V59.1538H79.8677V67.3846H71.637Z" fill="#2CED0C" stroke="#2CED0C"/>
<rect x="27.4746" y="42.5508" width="72" height="41" rx="3.5" stroke="#2CED0C" stroke-width="3"/>
</svg>
