<svg width="125" height="125" viewBox="0 0 125 125" fill="none" xmlns="http://www.w3.org/2000/svg">
<path d="M39.28 64.351V60.851H30.6V64.351H39.28ZM59.3451 71.127V68.131H54.9211V51.583H49.2931L44.4491 57.351L46.7451 59.283L51.0011 54.243H51.2531V68.131H45.8771V71.127H59.3451Z" fill="#FAFAFA"/>
<path d="M87.7745 52.7296L86.0979 52.0226V63.4229L89.1384 56.0247C89.6514 54.7369 89.0633 53.2598 87.7745 52.7296ZM64.7042 56.072L70.9103 71.1588C71.0931 71.6178 71.4048 72.0129 71.8072 72.2955C72.2095 72.5781 72.685 72.7359 73.1751 72.7495C73.5004 72.7495 73.8382 72.6864 74.1636 72.5475L83.3852 68.6969C84.3236 68.3055 84.8992 67.3713 84.9242 66.437C84.9367 66.1088 84.8742 65.7427 84.7616 65.4144L78.5054 50.3276C78.3285 49.8656 78.0179 49.4679 77.614 49.1865C77.21 48.905 76.7315 48.7528 76.2406 48.7495C75.9153 48.7495 75.59 48.8253 75.2772 48.9389L66.068 52.7895C65.4559 53.0424 64.9683 53.5303 64.7126 54.1458C64.4568 54.7614 64.4538 55.4542 64.7042 56.072ZM84.4688 51.7174C84.4688 51.0478 84.2051 50.4055 83.7358 49.932C83.2665 49.4585 82.63 49.1924 81.9663 49.1924H80.152L84.4688 59.7216" fill="#FAFAFA"/>
</svg>
