<svg xmlns="http://www.w3.org/2000/svg" viewBox="0 0 142 123"><defs><style>.cls-1{fill:#feca19;}</style></defs><g id="Layer_2" data-name="Layer 2"><g id="Layer_1-2" data-name="Layer 1"><path class="cls-1" d="M43.84,94.94a12,12,0,0,0,20.36,8.5l-3.89-3.15.25-3,3.18-1.36,3.37-4.66a14.06,14.06,0,0,0-1.1-1.1c-.59-.52-4.08-.78-4.08-.78L59.27,91H52.79l.45-6.15-1-1.29A12,12,0,0,0,43.84,94.94Z"/><path class="cls-1" d="M38.47,56.35,0,123H142L105.32,59.45l-.71-1.23-1-1.83-1.27-2.18-2.78-4.82-1.23-2.08L96.67,44.5l-1.35-2.37-2.76-4.77-1.3-2.24-1.15-2L71,0,55.16,27.43ZM45,45.05l-3.45,6M60,28.78,71,10l5.51,9.55-.26,1L59.68,82.64l22.09-54,2.38,4.13-5.93,6.67.72,5,3-1.14,2.28-4.77.62-4.6,1.83,3.16L68.4,72.31l21-30.4,2.67,4.63L60.73,89.44,95.89,53.12l2.58,4.47L69.14,83.51l32-21.28,4.33,7.5L69.14,85.67l39.29-10.83,13.33,23.1-51.89-2L126,105.19,133.34,118H126.2L67.94,98.53,109,118H8.66L38.47,66.36v.81L52.06,83,41.18,61.65l1.33-2.29L53.85,83.51,45.11,54.85,47,51.62l6,20-3.14-25,4.53-7.83L56.24,83"/><polygon class="cls-1" points="64.45 57.12 59.17 60.88 60.37 69.42 64.45 57.12"/><polygon class="cls-1" points="65.37 44.77 60.73 51.29 63.08 54.98 65.37 44.77"/><polygon class="cls-1" points="108.98 79.98 81.04 85.67 105.58 84.43 108.98 79.98"/><polygon class="cls-1" points="111.19 88.61 110.08 86.13 69.87 88.98 105.86 90.95 111.19 88.61"/><polygon class="cls-1" points="62.2 100.22 65.42 102.15 67.76 99.12 62.02 98.2 62.2 100.22"/><polygon class="cls-1" points="66.11 104.29 72.35 108.12 72.76 105.37 67.48 103.12 66.11 104.29"/><polygon class="cls-1" points="76.94 92.65 80.84 94.49 86.81 94.72 89.15 92.65 80.43 90.77 76.94 92.65"/><polygon class="cls-1" points="60.96 84.25 55.87 84.66 53.85 88.89 58.9 89.44 60.96 84.25"/><polygon class="cls-1" points="44.44 86.36 47.47 84.43 44.26 82.64 44.44 86.36"/><polygon class="cls-1" points="48.62 80.85 48.25 82.96 49.81 82.64 48.62 80.85"/><polygon class="cls-1" points="47.47 78.92 44.26 76.17 43.34 79.25 46.92 80.85 47.47 78.92"/><polygon class="cls-1" points="76.39 97.97 74.69 99.9 78.41 99.9 76.39 97.97"/><polygon class="cls-1" points="98.38 91.87 96.45 94.99 105.81 95.91 107.1 93.8 101.64 91.41 98.38 91.87"/><polygon class="cls-1" points="74.93 52.97 70.44 59.09 70.44 62.2 74.73 57.43 74.93 52.97"/><polygon class="cls-1" points="67.01 40.45 73.31 24.44 68.4 26.9 62.69 37.72 64.45 40.45 67.01 40.45"/><polygon class="cls-1" points="97.28 72 100.43 66.7 98.51 66.08 88.1 71.96 88.58 74.88 97.28 72"/></g></g></svg>