<svg xmlns="http://www.w3.org/2000/svg" viewBox="0 0 198.91 129.21"><defs><style>.cls-1{fill:#151515;}</style></defs><g id="Layer_2" data-name="Layer 2"><g id="Layer_1-2" data-name="Layer 1"><path class="cls-1" d="M191.2,0H7.72A7.71,7.71,0,0,0,0,7.72V112.27A7.72,7.72,0,0,0,7.72,120H75.09v6.24H43.89c-2.36,0-4.29,1.34-4.29,3H159.31c0-1.64-1.93-3-4.28-3H123.82V120H191.2a7.72,7.72,0,0,0,7.71-7.72V7.72A7.71,7.71,0,0,0,191.2,0Zm2.16,113a1.81,1.81,0,0,1-1.81,1.81H7.43A1.81,1.81,0,0,1,5.62,113V7.82A1.81,1.81,0,0,1,7.43,6H191.55a1.81,1.81,0,0,1,1.81,1.81Z"/></g></g></svg>