<svg fill="none" height="117" viewBox="0 0 106 117" width="106" xmlns="http://www.w3.org/2000/svg"><path clip-rule="evenodd" d="m26.0488.19043c-11.0457 0-19.99997 8.95431-19.99997 19.99997v19.3671c0 10.3428 7.85097 18.852 17.91857 19.893l4.7073 8.0408 4.6446-7.9338h40.5317l4.4353 7.9337 4.5548-8.1475c9.6543-1.4198 17.065-9.7376 17.065-19.7862v-19.3671c0-11.04566-8.9543-19.99997-20-19.99997zm22.6667 112.91557c0-5.043-3.0005-9.584-7.7969-12.486-3.0821 3.291-7.1289 5.293-11.6138 5.293-4.6965 0-8.9125-2.195-12.0435-5.767-5.2631 2.86-8.62332 7.622-8.62332 12.96 0 .696.05729 1.388.17071 2.07l.23691 1.426h39.2622l.2369-1.426c.1135-.682.1708-1.374.1708-2.07zm-33.6318-26.1508c0 10.0664 6.2149 14.5148 14.0194 14.5148s14.4228-4.4484 14.4228-14.5148-6.6183-15.5434-14.4228-15.5434-14.0194 5.477-14.0194 15.5434zm82.2364 26.1508c0-5.043-3.0005-9.584-7.7969-12.486-3.0821 3.291-7.1289 5.293-11.6138 5.293-4.6965 0-8.9125-2.195-12.0435-5.767-5.2631 2.86-8.6233 7.622-8.6233 12.96 0 .696.0573 1.388.1707 2.07l.2369 1.426h39.2622l.2369-1.426c.1135-.682.1708-1.374.1708-2.07zm-33.4301-26.1479c0 10.0664 6.2149 14.5149 14.0194 14.5149s14.4228-4.4485 14.4228-14.5149-6.6183-15.5434-14.4228-15.5434-14.0194 5.477-14.0194 15.5434z" fill="#ffffff" fill-rule="evenodd"/><path d="m101.91 57.6729h112.147v8.3559h-112.147z" fill="#fd0909" transform="matrix(-.90444025 -.42660031 .42660031 -.90444025 169.478229 153.30943)"/></svg>