<svg width="106" height="117" viewBox="0 0 106 117" fill="none" xmlns="http://www.w3.org/2000/svg">
<path fill-rule="evenodd" clip-rule="evenodd" d="M26.0488 0.19043C15.0031 0.19043 6.04883 9.14474 6.04883 20.1904V39.5575C6.04883 49.9003 13.8998 58.4095 23.9674 59.4505L28.6747 67.4913L33.3193 59.5575H73.851L78.2863 67.4912L82.8411 59.3437C92.4954 57.9239 99.9061 49.6061 99.9061 39.5575V20.1904C99.9061 9.14474 90.9518 0.19043 79.9061 0.19043H26.0488ZM48.7155 113.106C48.7155 108.063 45.715 103.522 40.9186 100.62C37.8365 103.911 33.7897 105.913 29.3048 105.913C24.6083 105.913 20.3923 103.718 17.2613 100.146C11.9982 103.006 8.63798 107.768 8.63798 113.106C8.63798 113.802 8.69527 114.494 8.80869 115.176L9.0456 116.602H48.3078L48.5447 115.176C48.6582 114.494 48.7155 113.802 48.7155 113.106ZM15.0837 86.9552C15.0837 97.0216 21.2986 101.47 29.1031 101.47C36.9076 101.47 43.5259 97.0216 43.5259 86.9552C43.5259 76.8888 36.9076 71.4118 29.1031 71.4118C21.2986 71.4118 15.0837 76.8888 15.0837 86.9552ZM97.3201 113.106C97.3201 108.063 94.3196 103.522 89.5232 100.62C86.4411 103.911 82.3943 105.913 77.9094 105.913C73.2129 105.913 68.9969 103.718 65.8659 100.146C60.6028 103.006 57.2426 107.768 57.2426 113.106C57.2426 113.802 57.2999 114.494 57.4133 115.176L57.6502 116.602H96.9124L97.1493 115.176C97.2628 114.494 97.3201 113.802 97.3201 113.106ZM63.89 86.9581C63.89 97.0245 70.1049 101.473 77.9094 101.473C85.7139 101.473 92.3322 97.0245 92.3322 86.9581C92.3322 76.8917 85.7139 71.4147 77.9094 71.4147C70.1049 71.4147 63.89 76.8917 63.89 86.9581Z" fill="#151515"/>
<rect x="101.91" y="57.6729" width="112.147" height="8.3559" transform="rotate(-154.748 101.91 57.6729)" fill="#FD0909"/>
</svg>
