<svg width="95" height="117" viewBox="0 0 95 117" fill="none" xmlns="http://www.w3.org/2000/svg">
<path fill-rule="evenodd" clip-rule="evenodd" d="M20.8281 0.296875C9.78243 0.296875 0.828125 9.25119 0.828125 20.2969V39.664C0.828125 50.0068 8.67913 58.5159 18.7467 59.557L23.454 67.5978L28.0986 59.664H68.6303L73.0656 67.5977L77.6204 59.4501C87.2747 58.0303 94.6854 49.7126 94.6854 39.664V20.2969C94.6854 9.25118 85.7311 0.296875 74.6854 0.296875H20.8281ZM43.4948 113.213C43.4948 108.17 40.4943 103.628 35.6979 100.727C32.6158 104.017 28.569 106.02 24.0841 106.02C19.3876 106.02 15.1715 103.825 12.0406 100.253C6.77745 103.113 3.41727 107.875 3.41727 113.213C3.41727 113.909 3.47456 114.6 3.58798 115.283L3.82489 116.708H43.0871L43.324 115.283C43.4375 114.6 43.4948 113.909 43.4948 113.213ZM9.863 87.0617C9.863 97.1281 16.0779 101.577 23.8824 101.577C31.6869 101.577 38.3052 97.1281 38.3052 87.0617C38.3052 76.9953 31.6869 71.5183 23.8824 71.5183C16.0779 71.5183 9.863 76.9953 9.863 87.0617ZM92.0993 113.213C92.0993 108.17 89.0989 103.628 84.3025 100.727C81.2204 104.017 77.1736 106.02 72.6887 106.02C67.9922 106.02 63.7761 103.825 60.6452 100.253C55.382 103.113 52.0219 107.875 52.0219 113.213C52.0219 113.909 52.0792 114.6 52.1926 115.283L52.4295 116.708H91.6917L91.9286 115.283C92.0421 114.6 92.0993 113.909 92.0993 113.213ZM58.6693 87.0645C58.6693 97.1309 64.8842 101.579 72.6887 101.579C80.4932 101.579 87.1115 97.1309 87.1115 87.0645C87.1115 76.9981 80.4932 71.5211 72.6887 71.5211C64.8842 71.5211 58.6693 76.9981 58.6693 87.0645ZM47.1911 38.2818C44.697 39.3569 41.5571 39.5394 37.7767 39.1439C31.0558 38.4407 28.5518 39.8715 27.4264 41.3916C26.7902 42.251 26.3615 43.4251 26.1106 45.0145C25.8584 46.6115 25.8112 48.4448 25.8103 50.5328L20.8103 50.5307C20.8112 48.4315 20.853 46.2536 21.1717 44.2348C21.4916 42.2085 22.1154 40.1624 23.4078 38.4166C26.1396 34.7265 30.9971 33.4073 38.2969 34.171C41.7557 34.5329 43.8807 34.2641 45.2119 33.6902C46.3892 33.1827 47.154 32.3487 47.7006 30.8599C48.2946 29.2422 48.5785 26.9732 48.68 23.8169C48.7454 21.7844 48.7344 19.5313 48.7184 16.9909L44.5059 20.9765L41.0695 17.3445L47.6198 11.1471L47.5958 11.1229L51.1518 7.60791L60.8398 17.4092L57.2838 20.9241L53.7208 17.3194C53.7353 19.7429 53.7416 21.9822 53.6774 23.9776C53.5732 27.2168 53.2812 30.1677 52.3943 32.5832C51.46 35.1277 49.8391 37.1403 47.1911 38.2818ZM27.7839 18.6639C27.7839 20.3517 26.4157 21.7199 24.7279 21.7199C23.0401 21.7199 21.6719 20.3517 21.6719 18.6639C21.6719 16.9761 23.0401 15.6079 24.7279 15.6079C26.4157 15.6079 27.7839 16.9761 27.7839 18.6639ZM32.7839 18.6639C32.7839 23.1131 29.1771 26.7199 24.7279 26.7199C20.2787 26.7199 16.6719 23.1131 16.6719 18.6639C16.6719 14.2147 20.2787 10.6079 24.7279 10.6079C29.1771 10.6079 32.7839 14.2147 32.7839 18.6639ZM71.7308 16.8465L66.8125 12.0854L70.2901 8.49293L75.184 13.2303L79.8473 8.34714L83.4633 11.8003L78.7766 16.708L83.9382 21.7045L80.4606 25.2971L75.3234 20.3242L70.5742 25.2974L66.9582 21.8442L71.7308 16.8465ZM62.5785 41.804L57.6602 37.043L61.1378 33.4505L66.0317 38.1879L70.6949 33.3047L74.311 36.7578L69.6243 41.6656L74.7859 46.6621L71.3083 50.2546L66.1711 45.2817L61.4219 50.2549L57.8058 46.8017L62.5785 41.804Z" fill="#151515"/>
</svg>
