<?xml version="1.0" encoding="utf-8"?>
<!-- Generator: Adobe Illustrator 25.0.0, SVG Export Plug-In . SVG Version: 6.00 Build 0)  -->
<svg version="1.1" id="Layer_1" xmlns="http://www.w3.org/2000/svg" xmlns:xlink="http://www.w3.org/1999/xlink" x="0px" y="0px"
	 viewBox="0 0 39 29" style="enable-background:new 0 0 39 29;" xml:space="preserve">
<style type="text/css">
	.st0{fill:#FFFFFF;}
</style>
<g>
	<path class="st0" d="M2.9,14.7c-0.1,0.1-0.2,0.3-0.2,0.4c0,0.2,0.3,0.5,0.7,0.7l5.9,2.6l0.1-0.1c-0.3-0.3-0.5-0.7-0.7-1l-5.6-2.5
		C3,14.7,3,14.7,2.9,14.7z"/>
	<path class="st0" d="M14.2,20.3c0.7,0.2,1.5,0.3,2.2,0.4c0.8,0,1.5-0.1,2.1-0.2c3.7-0.9,6.5-4.2,6.5-8.2c0-4.6-3.8-8.4-8.4-8.4
		c-2.3,0-4.3,0.9-5.9,2.4c0,0-0.1,0.1-0.1,0.1c0,0-0.1,0.1-0.1,0.1C10,7.1,9.4,7.9,9.1,8.7L9,8.7C8.5,9.8,8.2,11,8.2,12.2
		c0,1.6,0.5,3.1,1.3,4.4c0.1,0.1,0.2,0.3,0.3,0.4c0.1,0.1,0.1,0.2,0.2,0.3c0.2,0.2,0.4,0.5,0.6,0.7c0,0,0.1,0.1,0.1,0.1c0,0,0,0,0,0
		c-0.2,0.3-0.3,0.6-0.5,0.8c0,0,0,0,0,0L7,24.5c-0.1,0.3-0.2,0.6-0.1,0.8c0,0.1,0.1,0.3,0.2,0.4c0.1,0,0.1,0.1,0.2,0.1L9.2,27
		c0.2,0.1,0.5,0.2,0.7,0.1c0.2-0.1,0.4-0.2,0.6-0.4l3.2-5.5l0,0c0.1-0.2,0.2-0.3,0.3-0.5l0.1-0.2l0,0C14.2,20.4,14.2,20.3,14.2,20.3
		C14.2,20.3,14.2,20.3,14.2,20.3z M12.4,17.7c-1.7-1.3-2.8-3.3-2.8-5.7c0-1.9,0.8-3.7,2-4.9l-0.1,0.1c0.5-0.6,1.1-1,1.8-1.4
		c0,0,0,0,0,0c0.3-0.2,0.6-0.3,0.9-0.4c0.1,0,0.3-0.1,0.4-0.1c0.1,0,0.1,0,0.2-0.1c0.1,0,0.1,0,0.2,0C15.3,5.1,15.6,5,15.8,5
		c0,0,0.1,0,0.1,0c0.2,0,0.5,0,0.7,0c0.1,0,0.2,0,0.3,0c0.1,0,0.1,0,0.2,0c1.9,0.1,3.6,1,4.8,2.3c0,0,0,0,0,0
		c0.2,0.3,0.5,0.5,0.7,0.8c0,0,0,0,0,0l0,0c0.7,1.1,1.2,2.5,1.2,3.9c0,3.9-3.2,7.1-7.1,7.1C15.1,19.2,13.7,18.7,12.4,17.7z"/>
	<path class="st0" d="M25.9,24.1c-0.8,0.5-1.8,0.8-2.9,0.8c-0.7,0-1.4-0.1-2-0.4l-6.5-2.8l-0.4,0.7l7.3,3.2c1.1,0.5,2.9,0.3,3.9-0.3
		l9.8-6.3c0.4-0.2,0.6-0.5,0.6-0.8c0-0.1-0.1-0.2-0.1-0.3L25.9,24.1z"/>
	<path class="st0" d="M25.9,22.2C25.1,22.7,24.1,23,23,23c-0.7,0-1.4-0.1-2-0.4l-2.6-1.1c-0.5,0.1-1,0.1-1.5,0.2l4.5,2
		c1.1,0.5,2.9,0.3,3.9-0.3l9.8-6.3c0.4-0.2,0.6-0.5,0.6-0.8c0-0.1-0.1-0.2-0.1-0.3L25.9,22.2z"/>
	<path class="st0" d="M8.9,19.2l-5.8-2.5c-0.1,0-0.1-0.1-0.2-0.1c-0.1,0.1-0.2,0.3-0.2,0.4c0,0.2,0.3,0.5,0.7,0.7l5,2.2L8.9,19.2z"
		/>
	<path class="st0" d="M3.5,13.8l4.5,2c-0.4-1.1-0.7-2.3-0.7-3.5c0-0.9,0.1-1.8,0.4-2.6l-4.2,2.7c-0.4,0.2-0.6,0.5-0.6,0.8
		C2.8,13.4,3.1,13.6,3.5,13.8z"/>
	<path class="st0" d="M20,21l1.4,0.6c1.1,0.5,2.9,0.3,3.9-0.3l9.8-6.3c0.4-0.2,0.6-0.5,0.6-0.8c0-0.2-0.3-0.5-0.7-0.7l-9.4-4.1
		c0.3,0.9,0.4,1.8,0.4,2.8C26.1,16.2,23.6,19.7,20,21z"/>
	<path class="st0" d="M22.8,12.1c0-3.4-2.8-6.2-6.2-6.2s-6.2,2.8-6.2,6.2c0,3.4,2.8,6.2,6.2,6.2S22.8,15.5,22.8,12.1z M17.5,15.2
		c0,0.4-0.2,0.7-0.9,0.7c-0.7,0-0.9-0.3-0.9-0.7v-0.3c0-0.4,0.2-0.7,0.9-0.7c0.7,0,0.9,0.3,0.9,0.7V15.2z M17.1,12.8v0.8h-1.2V12
		c1,0,1.7-0.4,1.7-1.2v-0.1c0-0.6-0.4-0.9-1-0.9c-0.6,0-1,0.4-1.2,1l-1.1-0.4c0.2-0.8,0.9-1.6,2.3-1.6c1.4,0,2.3,0.8,2.3,2
		C19,11.9,18.1,12.6,17.1,12.8z"/>
</g>
</svg>
