<svg xmlns="http://www.w3.org/2000/svg" viewBox="0 0 135.08 184"><defs><style>.cls-1{fill:#fafafa;}</style></defs><g id="Layer_2" data-name="Layer 2"><g id="Layer_1-2" data-name="Layer 1"><path class="cls-1" d="M108.06,75.58l-9.2-11.77a1.72,1.72,0,0,0-3,.58L89.35,87.21l31.5,73.35a1.56,1.56,0,0,1-1.43,2.17H104.36a4.37,4.37,0,0,1-4-2.52L73.81,103.16a1.65,1.65,0,0,0-3,0L58.57,128.87a8.09,8.09,0,0,1-7.31,4.61H21.81v29.25L0,184H79.24l19-16a4.15,4.15,0,0,1,2.69-1h15.15a1.4,1.4,0,0,1,1,2.42L101.58,184h11.7l21.8-21.27V78.17h-21.7A6.77,6.77,0,0,1,108.06,75.58Z"/><path class="cls-1" d="M21.81,0V116.46H40.13a5,5,0,0,0,4.67-3.26L66.3,54.58A1.43,1.43,0,0,0,65,52.65H52.37a2,2,0,0,0-1.81,1.21l-5.9,14.52a2,2,0,0,1-1.9,1.28H33.51a1.42,1.42,0,0,1-1.32-2L42.56,42.45a4.14,4.14,0,0,1,3.82-2.57H85.17C88.43,43,93.91,45,98.78,45a18.06,18.06,0,0,0,5-.72L116.9,61.73a9.21,9.21,0,0,0,7.37,3.68h10.81V0Zm78,41.84a15.12,15.12,0,1,1,13-13A15.13,15.13,0,0,1,99.83,41.84Z"/></g></g></svg>