<svg width="304" height="304" viewBox="0 0 304 304" fill="none" xmlns="http://www.w3.org/2000/svg">
<path d="M34 39.8V41.4L9.4 66H0V64H8.6L32 40.6V0H34V39.8Z" fill="#2CED0C"/>
<path d="M2 300.1C4 300.5 5.5 302 5.9 304H3.8C3.2 302.4 1.5 301.6 0 302.2V256H18V304H16V258H2V300.1Z" fill="#2CED0C"/>
<path d="M34 241V304H32V242H0V240H34V241Z" fill="#2CED0C"/>
<path d="M17 18H0V16H16V0H18V18H17Z" fill="#2CED0C"/>
<path d="M290 16H304V18H288V0H290V16Z" fill="#2CED0C"/>
<path d="M258 289V304H256V290H242V304H240V288H258V289Z" fill="#2CED0C"/>
<path d="M0 92.0998C2.7 91.5998 5.4 93.2998 5.9 95.9998C6 96.3998 6 96.6998 6 96.9998C6 99.7998 3.8 102 1 102C0.7 102 0.3 102 0 101.9V99.7998C1.6 100.3 3.3 99.4998 3.8 97.9998C4.3 96.4998 3.6 94.6998 2 94.1998C1.4 93.9998 0.7 93.9998 0 94.1998V92.0998Z" fill="#2CED0C"/>
<path d="M82 272H80V304H82V272Z" fill="#2CED0C"/>
<path d="M117.9 304H115.8C115.3 302.4 113.5 301.6 112 302.2C111.1 302.5 110.5 303.2 110.2 304H108.1C108.6 301.3 111.3 299.5 114 300.1C116 300.5 117.5 302 117.9 304Z" fill="#F86132"/>
<path d="M5.9 0C6.4 2.7 4.7 5.4 2 5.9C1.3 6 0.6 6 0 5.9V3.8C1.6 4.4 3.3 3.6 3.8 2C4 1.4 4 0.6 3.8 0H5.9Z" fill="#2CED0C"/>
<path d="M300.1 0H302.2C301.6 1.6 302.5 3.3 304 3.8V5.9C301.3 5.3 299.5 2.7 300.1 0Z" fill="#2CED0C"/>
<path d="M304 300.1V302.2C303.1 302.5 302.5 303.2 302.2 304H300.1C300.5 302 302 300.5 304 300.1Z" fill="#2CED0C"/>
<path d="M130 108.1C127.3 107.5 124.7 109.3 124.1 112H112V160H85.9C85.5 158 84 156.5 82 156.1C79.3 155.5 76.7 157.3 76.1 160C75.5 162.7 77.3 165.3 80 165.9C82.7 166.5 85.3 164.7 85.9 162H114V114H124.1C124.5 116 126 117.5 128 117.9C130.7 118.5 133.3 116.7 133.9 114C134.5 111.3 132.7 108.7 130 108.1ZM81 164C79.3 164 78 162.7 78 161C78 159.3 79.3 158 81 158C82.7 158 84 159.3 84 161C84 162.7 82.7 164 81 164ZM129 116C127.3 116 126 114.7 126 113C126 111.3 127.3 110 129 110C130.7 110 132 111.3 132 113C132 114.7 130.7 116 129 116Z" fill="#F86132"/>
<path d="M130 220.1C127.3 219.5 124.7 221.3 124.1 224H114V176H101.9C101.5 174 100 172.5 98 172.1C95.3 171.5 92.7 173.3 92.1 176C91.5 178.7 93.3 181.3 96 181.9C98.7 182.5 101.3 180.7 101.9 178H112V226H124.1C124.5 228 126 229.5 128 229.9C130.7 230.5 133.3 228.7 133.9 226C134.5 223.3 132.7 220.7 130 220.1ZM97 180C95.3 180 94 178.7 94 177C94 175.3 95.3 174 97 174C98.7 174 100 175.3 100 177C100 178.7 98.7 180 97 180ZM129 228C127.3 228 126 226.7 126 225C126 223.3 127.3 222 129 222C130.7 222 132 223.3 132 225C132 226.7 130.7 228 129 228Z" fill="#FECA19"/>
<path d="M146 220.1V208H130V133.9C132 133.5 133.5 132 133.9 130C134.5 127.3 132.7 124.7 130 124.1C127.3 123.5 124.7 125.3 124.1 128C123.5 130.7 125.3 133.3 128 133.9V210H144V220.1C142 220.5 140.5 222 140.1 224C139.5 226.7 141.3 229.3 144 229.9C146.7 230.5 149.3 228.7 149.9 226C150.5 223.3 148.7 220.7 146 220.1ZM126 129C126 127.3 127.3 126 129 126C130.7 126 132 127.3 132 129C132 130.7 130.7 132 129 132C127.3 132 126 130.7 126 129ZM145 228C143.3 228 142 226.7 142 225C142 223.3 143.3 222 145 222C146.7 222 148 223.3 148 225C148 226.7 146.7 228 145 228Z" fill="#2CED0C"/>
<path d="M304 94.1996V92.0996C302 92.4996 300.5 93.9996 300.1 95.9996H184.6L160 120.6V220.1C158 220.5 156.5 222 156.1 224C155.5 226.7 157.3 229.3 160 229.9C162.7 230.5 165.3 228.7 165.9 226C166.5 223.3 164.7 220.7 162 220.1V121.4L185.4 97.9996H300.1C300.5 99.9996 302 101.5 304 101.9V99.7996C303.1 99.4996 302.5 98.7996 302.2 97.9996C301.6 96.3996 302.4 94.6996 304 94.1996ZM164 225C164 226.7 162.7 228 161 228C159.3 228 158 226.7 158 225C158 223.3 159.3 222 161 222C162.7 222 164 223.3 164 225Z" fill="#2CED0C"/>
<path d="M178 156.1C175.3 155.5 172.7 157.3 172.1 160C171.5 162.7 173.3 165.3 176 165.9V240H117.9C117.5 238 116 236.5 114 236.1C111.3 235.5 108.7 237.3 108.1 240C107.5 242.7 109.3 245.3 112 245.9C114.7 246.5 117.3 244.7 117.9 242H178V165.9C180 165.5 181.5 164 181.9 162C182.5 159.3 180.7 156.7 178 156.1ZM113 244C111.3 244 110 242.7 110 241C110 239.3 111.3 238 113 238C114.7 238 116 239.3 116 241C116 242.7 114.7 244 113 244ZM177 164C175.3 164 174 162.7 174 161C174 159.3 175.3 158 177 158C178.7 158 180 159.3 180 161C180 162.7 178.7 164 177 164Z" fill="#2CED0C"/>
<path d="M194 220.1V165.9C196 165.5 197.5 164 197.9 162C198.5 159.3 196.7 156.7 194 156.1C191.3 155.5 188.7 157.3 188.1 160C187.5 162.7 189.3 165.3 192 165.9V220.1C190 220.5 188.5 222 188.1 224C187.5 226.7 189.3 229.3 192 229.9C194.7 230.5 197.3 228.7 197.9 226C198.5 223.3 196.7 220.7 194 220.1ZM190 161C190 159.3 191.3 158 193 158C194.7 158 196 159.3 196 161C196 162.7 194.7 164 193 164C191.3 164 190 162.7 190 161ZM193 228C191.3 228 190 226.7 190 225C190 223.3 191.3 222 193 222C194.7 222 196 223.3 196 225C196 226.7 194.7 228 193 228Z" fill="#FECA19"/>
<path d="M210 268.1C207.3 267.5 204.7 269.3 204.1 272H82V274H204.1C204.5 276 206 277.5 208 277.9C210.7 278.5 213.3 276.7 213.9 274C214.5 271.3 212.7 268.7 210 268.1ZM209 276C207.3 276 206 274.7 206 273C206 271.3 207.3 270 209 270C210.7 270 212 271.3 212 273C212 274.7 210.7 276 209 276Z" fill="#2CED0C"/>
<path d="M226 284.1C223.3 283.5 220.7 285.3 220.1 288H96V304H98V290H220.1C220.5 292 222 293.5 224 293.9C226.7 294.5 229.3 292.7 229.9 290C230.5 287.3 228.7 284.7 226 284.1ZM225 292C223.3 292 222 290.7 222 289C222 287.3 223.3 286 225 286C226.7 286 228 287.3 228 289C228 290.7 226.7 292 225 292Z" fill="#2CED0C"/>
<path d="M242 256V194H258V160H242V149.9C244 149.5 245.5 148 245.9 146C246.5 143.3 244.7 140.7 242 140.1C239.3 139.5 236.7 141.3 236.1 144C235.5 146.7 237.3 149.3 240 149.9V162H256V192H240V258H288V304H290V256H242ZM238 145C238 143.3 239.3 142 241 142C242.7 142 244 143.3 244 145C244 146.7 242.7 148 241 148C239.3 148 238 146.7 238 145Z" fill="#2CED0C"/>
<path d="M226 272V178H236.1C236.5 180 238 181.5 240 181.9C242.7 182.5 245.3 180.7 245.9 178C246.5 175.3 244.7 172.7 242 172.1C239.3 171.5 236.7 173.3 236.1 176H224V274H272V304H274V272H226ZM241 174C242.7 174 244 175.3 244 177C244 178.7 242.7 180 241 180C239.3 180 238 178.7 238 177C238 175.3 239.3 174 241 174Z" fill="#2CED0C"/>
<path d="M274 124.1C271.3 123.5 268.7 125.3 268.1 128H181.9C181.5 126 180 124.5 178 124.1C175.3 123.5 172.7 125.3 172.1 128C171.5 130.7 173.3 133.3 176 133.9C178.7 134.5 181.3 132.7 181.9 130H268.1C268.5 132 270 133.5 272 133.9C274.7 134.5 277.3 132.7 277.9 130C278.5 127.3 276.7 124.7 274 124.1ZM177 132C175.3 132 174 130.7 174 129C174 127.3 175.3 126 177 126C178.7 126 180 127.3 180 129C180 130.7 178.7 132 177 132ZM273 132C271.3 132 270 130.7 270 129C270 127.3 271.3 126 273 126C274.7 126 276 127.3 276 129C276 130.7 274.7 132 273 132Z" fill="#2CED0C"/>
<path d="M181.9 144C181.5 142 180 140.5 178 140.1C175.3 139.5 172.7 141.3 172.1 144C171.5 146.7 173.3 149.3 176 149.9C178.7 150.5 181.3 148.7 181.9 146H224V160H208V240H197.9C197.5 238 196 236.5 194 236.1C191.3 235.5 188.7 237.3 188.1 240C187.5 242.7 189.3 245.3 192 245.9C194.7 246.5 197.3 244.7 197.9 242H210V162H226V144H181.9ZM177 148C175.3 148 174 146.7 174 145C174 143.3 175.3 142 177 142C178.7 142 180 143.3 180 145C180 146.7 178.7 148 177 148ZM193 244C191.3 244 190 242.7 190 241C190 239.3 191.3 238 193 238C194.7 238 196 239.3 196 241C196 242.7 194.7 244 193 244Z" fill="#F86132"/>
<path d="M290 108.1C287.3 107.5 284.7 109.3 284.1 112H197.9C197.5 110 196 108.5 194 108.1C191.3 107.5 188.7 109.3 188.1 112C187.5 114.7 189.3 117.3 192 117.9C194.7 118.5 197.3 116.7 197.9 114H284.1C284.5 116 286 117.5 288 117.9C290.7 118.5 293.3 116.7 293.9 114C294.5 111.3 292.7 108.7 290 108.1ZM193 116C191.3 116 190 114.7 190 113C190 111.3 191.3 110 193 110C194.7 110 196 111.3 196 113C196 114.7 194.7 116 193 116ZM289 116C287.3 116 286 114.7 286 113C286 111.3 287.3 110 289 110C290.7 110 292 111.3 292 113C292 114.7 290.7 116 289 116Z" fill="#FECA19"/>
<path d="M296.6 47.9996H277.9C277.5 45.9996 276 44.4996 274 44.0996C271.3 43.4996 268.7 45.2996 268.1 47.9996C267.5 50.6996 269.3 53.2996 272 53.8996C274.7 54.4996 277.3 52.6996 277.9 49.9996H297.4L304 43.3996V40.5996L296.6 47.9996ZM273 51.9996C271.3 51.9996 270 50.6996 270 48.9996C270 47.2996 271.3 45.9996 273 45.9996C274.7 45.9996 276 47.2996 276 48.9996C276 50.6996 274.7 51.9996 273 51.9996Z" fill="#2CED0C"/>
<path d="M290 28.1C287.3 27.5 284.7 29.3 284.1 32H274V0H272V34H284.1C284.5 36 286 37.5 288 37.9C290.7 38.5 293.3 36.7 293.9 34C294.5 31.3 292.7 28.7 290 28.1ZM289 36C287.3 36 286 34.7 286 33C286 31.3 287.3 30 289 30C290.7 30 292 31.3 292 33C292 34.7 290.7 36 289 36Z" fill="#2CED0C"/>
<path d="M258 64V37.9C260 37.5 261.5 36 261.9 34C262.5 31.3 260.7 28.7 258 28.1C255.3 27.5 252.7 29.3 252.1 32C251.5 34.7 253.3 37.3 256 37.9V66H304V64H258ZM254 33C254 31.3 255.3 30 257 30C258.7 30 260 31.3 260 33C260 34.7 258.7 36 257 36C255.3 36 254 34.7 254 33Z" fill="#2CED0C"/>
<path d="M258 12.1V0H256V12.1C254 12.5 252.5 14 252.1 16C251.5 18.7 253.3 21.3 256 21.9C258.7 22.5 261.3 20.7 261.9 18C262.5 15.3 260.7 12.7 258 12.1ZM257 20C255.3 20 254 18.7 254 17C254 15.3 255.3 14 257 14C258.7 14 260 15.3 260 17C260 18.7 258.7 20 257 20Z" fill="#2CED0C"/>
<path d="M242 80V21.9C244 21.5 245.5 20 245.9 18C246.5 15.3 244.7 12.7 242 12.1C239.3 11.5 236.7 13.3 236.1 16C235.5 18.7 237.3 21.3 240 21.9V82H304V80H242ZM238 17C238 15.3 239.3 14 241 14C242.7 14 244 15.3 244 17C244 18.7 242.7 20 241 20C239.3 20 238 18.7 238 17Z" fill="#F86132"/>
<path d="M226 12.1C223.3 11.5 220.7 13.3 220.1 16C219.5 18.7 221.3 21.3 224 21.9V80H175.6L144 111.6V188.1C142 188.5 140.5 190 140.1 192C139.5 194.7 141.3 197.3 144 197.9C146.7 198.5 149.3 196.7 149.9 194C150.5 191.3 148.7 188.7 146 188.1V112.4L176.4 82H226V21.9C228 21.5 229.5 20 229.9 18C230.5 15.3 228.7 12.7 226 12.1ZM148 193C148 194.7 146.7 196 145 196C143.3 196 142 194.7 142 193C142 191.3 143.3 190 145 190C146.7 190 148 191.3 148 193ZM225 20C223.3 20 222 18.7 222 17C222 15.3 223.3 14 225 14C226.7 14 228 15.3 228 17C228 18.7 226.7 20 225 20Z" fill="#F86132"/>
<path d="M210 12.1C207.3 11.5 204.7 13.3 204.1 16C203.5 18.7 205.3 21.3 208 21.9V64H169L137 96H117.9C117.5 94 116 92.5 114 92.1C111.3 91.5 108.7 93.3 108.1 96C107.5 98.7 109.3 101.3 112 101.9C114.7 102.5 117.3 100.7 117.9 98H137.8L169.8 66H210V21.9C212 21.5 213.5 20 213.9 18C214.5 15.3 212.7 12.7 210 12.1ZM113 100C111.3 100 110 98.7 110 97C110 95.3 111.3 94 113 94C114.7 94 116 95.3 116 97C116 98.7 114.7 100 113 100ZM209 20C207.3 20 206 18.7 206 17C206 15.3 207.3 14 209 14C210.7 14 212 15.3 212 17C212 18.7 210.7 20 209 20Z" fill="#2CED0C"/>
<path d="M80 0V32H53.9C53.5 30 52 28.5 50 28.1C47.3 27.5 44.7 29.3 44.1 32C43.5 34.7 45.3 37.3 48 37.9C50.7 38.5 53.3 36.7 53.9 34H82V0H80ZM49 36C47.3 36 46 34.7 46 33C46 31.3 47.3 30 49 30C50.7 30 52 31.3 52 33C52 34.7 50.7 36 49 36Z" fill="#2CED0C"/>
<path d="M18 28.1C15.3 27.5 12.7 29.3 12.1 32H8.6L0 40.6V43.4L9.4 34H12.1C12.5 36 14 37.5 16 37.9C18.7 38.5 21.3 36.7 21.9 34C22.5 31.3 20.7 28.7 18 28.1ZM17 36C15.3 36 14 34.7 14 33C14 31.3 15.3 30 17 30C18.7 30 20 31.3 20 33C20 34.7 18.7 36 17 36Z" fill="#2CED0C"/>
<path d="M34 60.1C31.3 59.5 28.7 61.3 28.1 64C27.5 66.7 29.3 69.3 32 69.9V88.6L0 120.6V123.4L34 89.4V69.9C36 69.5 37.5 68 37.9 66C38.5 63.3 36.7 60.7 34 60.1ZM33 68C31.3 68 30 66.7 30 65C30 63.3 31.3 62 33 62C34.7 62 36 63.3 36 65C36 66.7 34.7 68 33 68Z" fill="#2CED0C"/>
<path d="M48 0V2H64V16H53.9C53.5 14 52 12.5 50 12.1C47.3 11.5 44.7 13.3 44.1 16C43.5 18.7 45.3 21.3 48 21.9C50.7 22.5 53.3 20.7 53.9 18H66V0H48ZM49 20C47.3 20 46 18.7 46 17C46 15.3 47.3 14 49 14C50.7 14 52 15.3 52 17C52 18.7 50.7 20 49 20Z" fill="#2CED0C"/>
<path d="M66 284.1V272H48V304H50V274H64V284.1C62 284.5 60.5 286 60.1 288C59.5 290.7 61.3 293.3 64 293.9C66.7 294.5 69.3 292.7 69.9 290C70.5 287.3 68.7 284.7 66 284.1ZM65 292C63.3 292 62 290.7 62 289C62 287.3 63.3 286 65 286C66.7 286 68 287.3 68 289C68 290.7 66.7 292 65 292Z" fill="#2CED0C"/>
<path d="M50 220.1C47.3 219.5 44.7 221.3 44.1 224H0V226H44.1C44.5 228 46 229.5 48 229.9C50.7 230.5 53.3 228.7 53.9 226C54.5 223.3 52.7 220.7 50 220.1ZM49 228C47.3 228 46 226.7 46 225C46 223.3 47.3 222 49 222C50.7 222 52 223.3 52 225C52 226.7 50.7 228 49 228Z" fill="#FECA19"/>
<path d="M50 44.1C47.3 43.5 44.7 45.3 44.1 48C43.5 50.7 45.3 53.3 48 53.9V96.6L0 144.6V210H28.1C28.5 212 30 213.5 32 213.9C34.7 214.5 37.3 212.7 37.9 210C38.5 207.3 36.7 204.7 34 204.1C31.3 203.5 28.7 205.3 28.1 208H2V145.4L50 97.4V53.9C52 53.5 53.5 52 53.9 50C54.5 47.3 52.7 44.7 50 44.1ZM33 206C34.7 206 36 207.3 36 209C36 210.7 34.7 212 33 212C31.3 212 30 210.7 30 209C30 207.3 31.3 206 33 206ZM49 52C47.3 52 46 50.7 46 49C46 47.3 47.3 46 49 46C50.7 46 52 47.3 52 49C52 50.7 50.7 52 49 52Z" fill="#2CED0C"/>
<path d="M130 28.1C127.3 27.5 124.7 29.3 124.1 32C123.5 34.7 125.3 37.3 128 37.9V80H101.9C101.5 78 100 76.5 98 76.1C95.3 75.5 92.7 77.3 92.1 80C91.5 82.7 93.3 85.3 96 85.9C98.7 86.5 101.3 84.7 101.9 82H130V37.9C132 37.5 133.5 36 133.9 34C134.5 31.3 132.7 28.7 130 28.1ZM97 84C95.3 84 94 82.7 94 81C94 79.3 95.3 78 97 78C98.7 78 100 79.3 100 81C100 82.7 98.7 84 97 84ZM129 36C127.3 36 126 34.7 126 33C126 31.3 127.3 30 129 30C130.7 30 132 31.3 132 33C132 34.7 130.7 36 129 36Z" fill="#2CED0C"/>
<path d="M146 60.1V16H117.9C117.5 14 116 12.5 114 12.1C111.3 11.5 108.7 13.3 108.1 16C107.5 18.7 109.3 21.3 112 21.9C114.7 22.5 117.3 20.7 117.9 18H144V60.1C142 60.5 140.5 62 140.1 64C139.5 66.7 141.3 69.3 144 69.9C146.7 70.5 149.3 68.7 149.9 66C150.5 63.3 148.7 60.7 146 60.1ZM113 20C111.3 20 110 18.7 110 17C110 15.3 111.3 14 113 14C114.7 14 116 15.3 116 17C116 18.7 114.7 20 113 20ZM145 68C143.3 68 142 66.7 142 65C142 63.3 143.3 62 145 62C146.7 62 148 63.3 148 65C148 66.7 146.7 68 145 68Z" fill="#FECA19"/>
<path d="M192 0V48H165.9C165.5 46 164 44.5 162 44.1C159.3 43.5 156.7 45.3 156.1 48C155.5 50.7 157.3 53.3 160 53.9C162.7 54.5 165.3 52.7 165.9 50H194V2H242V0H192ZM161 52C159.3 52 158 50.7 158 49C158 47.3 159.3 46 161 46C162.7 46 164 47.3 164 49C164 50.7 162.7 52 161 52Z" fill="#2CED0C"/>
<path d="M115.8 0C116 0.6 116 1.3 115.8 2C115.3 3.6 113.5 4.4 112 3.8C110.4 3.3 109.6 1.5 110.2 0H108.1C107.5 2.7 109.3 5.3 112 5.9C114.7 6.5 117.3 4.7 117.9 2H176V32H162V21.9C164 21.5 165.5 20 165.9 18C166.5 15.3 164.7 12.7 162 12.1C159.3 11.5 156.7 13.3 156.1 16C155.5 18.7 157.3 21.3 160 21.9V34H178V0H115.8ZM158 17C158 15.3 159.3 14 161 14C162.7 14 164 15.3 164 17C164 18.7 162.7 20 161 20C159.3 20 158 18.7 158 17Z" fill="#F86132"/>
<path d="M274 188.1V144H261.9C261.5 142 260 140.5 258 140.1C255.3 139.5 252.7 141.3 252.1 144C251.5 146.7 253.3 149.3 256 149.9C258.7 150.5 261.3 148.7 261.9 146H272V188.1C270 188.5 268.5 190 268.1 192C267.5 194.7 269.3 197.3 272 197.9C274.7 198.5 277.3 196.7 277.9 194C278.5 191.3 276.7 188.7 274 188.1ZM257 148C255.3 148 254 146.7 254 145C254 143.3 255.3 142 257 142C258.7 142 260 143.3 260 145C260 146.7 258.7 148 257 148ZM273 196C271.3 196 270 194.7 270 193C270 191.3 271.3 190 273 190C274.7 190 276 191.3 276 193C276 194.7 274.7 196 273 196Z" fill="#FECA19"/>
<path d="M288 136.6V208H261.9C261.5 206 260 204.5 258 204.1C255.3 203.5 252.7 205.3 252.1 208C251.5 210.7 253.3 213.3 256 213.9C258.7 214.5 261.3 212.7 261.9 210H290V137.4L304 123.4V120.6L288 136.6ZM257 212C255.3 212 254 210.7 254 209C254 207.3 255.3 206 257 206C258.7 206 260 207.3 260 209C260 210.7 258.7 212 257 212Z" fill="#2CED0C"/>
<path d="M261.9 224C261.5 222 260 220.5 258 220.1C255.3 219.5 252.7 221.3 252.1 224C251.5 226.7 253.3 229.3 256 229.9C258.7 230.5 261.3 228.7 261.9 226H304V224H261.9ZM257 228C255.3 228 254 226.7 254 225C254 223.3 255.3 222 257 222C258.7 222 260 223.3 260 225C260 226.7 258.7 228 257 228Z" fill="#FECA19"/>
<path d="M261.9 240C261.5 238 260 236.5 258 236.1C255.3 235.5 252.7 237.3 252.1 240C251.5 242.7 253.3 245.3 256 245.9C258.7 246.5 261.3 244.7 261.9 242H304V240H261.9ZM257 244C255.3 244 254 242.7 254 241C254 239.3 255.3 238 257 238C258.7 238 260 239.3 260 241C260 242.7 258.7 244 257 244Z" fill="#2CED0C"/>
<path d="M49.4 176H21.9C21.5 174 20 172.5 18 172.1C15.3 171.5 12.7 173.3 12.1 176C11.5 178.7 13.3 181.3 16 181.9C18.7 182.5 21.3 180.7 21.9 178H48.6L80 209.4V256H53.9C53.5 254 52 252.5 50 252.1C47.3 251.5 44.7 253.3 44.1 256C43.5 258.7 45.3 261.3 48 261.9C50.7 262.5 53.3 260.7 53.9 258H82V208.6L49.4 176ZM17 180C15.3 180 14 178.7 14 177C14 175.3 15.3 174 17 174C18.7 174 20 175.3 20 177C20 178.7 18.7 180 17 180ZM49 260C47.3 260 46 258.7 46 257C46 255.3 47.3 254 49 254C50.7 254 52 255.3 52 257C52 258.7 50.7 260 49 260Z" fill="#F86132"/>
<path d="M41.4 192H21.9C21.5 190 20 188.5 18 188.1C15.3 187.5 12.7 189.3 12.1 192C11.5 194.7 13.3 197.3 16 197.9C18.7 198.5 21.3 196.7 21.9 194H40.6L64 217.4V240H53.9C53.5 238 52 236.5 50 236.1C47.3 235.5 44.7 237.3 44.1 240C43.5 242.7 45.3 245.3 48 245.9C50.7 246.5 53.3 244.7 53.9 242H66V216.6L41.4 192ZM17 196C15.3 196 14 194.7 14 193C14 191.3 15.3 190 17 190C18.7 190 20 191.3 20 193C20 194.7 18.7 196 17 196ZM49 244C47.3 244 46 242.7 46 241C46 239.3 47.3 238 49 238C50.7 238 52 239.3 52 241C52 242.7 50.7 244 49 244Z" fill="#FECA19"/>
<path d="M96 0V48H64V104.6L16 152.6V156.1C14 156.5 12.5 158 12.1 160C11.5 162.7 13.3 165.3 16 165.9C18.7 166.5 21.3 164.7 21.9 162C22.5 159.3 20.7 156.7 18 156.1V153.4L66 105.4V50H98V0H96ZM20 161C20 162.7 18.7 164 17 164C15.3 164 14 162.7 14 161C14 159.3 15.3 158 17 158C18.7 158 20 159.3 20 161Z" fill="#2CED0C"/>
<path d="M210 252.1C207.3 251.5 204.7 253.3 204.1 256H98V200.6L57.4 160H37.9C37.5 158 36 156.5 34 156.1C31.3 155.5 28.7 157.3 28.1 160C27.5 162.7 29.3 165.3 32 165.9C34.7 166.5 37.3 164.7 37.9 162H56.6L96 201.4V258H204.1C204.5 260 206 261.5 208 261.9C210.7 262.5 213.3 260.7 213.9 258C214.5 255.3 212.7 252.7 210 252.1ZM33 164C31.3 164 30 162.7 30 161C30 159.3 31.3 158 33 158C34.7 158 36 159.3 36 161C36 162.7 34.7 164 33 164ZM209 260C207.3 260 206 258.7 206 257C206 255.3 207.3 254 209 254C210.7 254 212 255.3 212 257C212 258.7 210.7 260 209 260Z" fill="#2CED0C"/>
<path d="M18 76.1C15.3 75.5 12.7 77.3 12.1 80H0V82H12.1C12.5 84 14 85.5 16 85.9C18.7 86.5 21.3 84.7 21.9 82C22.5 79.3 20.7 76.7 18 76.1ZM17 84C15.3 84 14 82.7 14 81C14 79.3 15.3 78 17 78C18.7 78 20 79.3 20 81C20 82.7 18.7 84 17 84Z" fill="#F86132"/>
<path d="M98 92.1C95.3 91.5 92.7 93.3 92.1 96C91.5 98.7 93.3 101.3 96 101.9V144H53.9C53.5 142 52 140.5 50 140.1C47.3 139.5 44.7 141.3 44.1 144C43.5 146.7 45.3 149.3 48 149.9C50.7 150.5 53.3 148.7 53.9 146H98V101.9C100 101.5 101.5 100 101.9 98C102.5 95.3 100.7 92.7 98 92.1ZM49 148C47.3 148 46 146.7 46 145C46 143.3 47.3 142 49 142C50.7 142 52 143.3 52 145C52 146.7 50.7 148 49 148ZM97 100C95.3 100 94 98.7 94 97C94 95.3 95.3 94 97 94C98.7 94 100 95.3 100 97C100 98.7 98.7 100 97 100Z" fill="#FECA19"/>
<path d="M114 28.1C111.3 27.5 108.7 29.3 108.1 32C107.5 34.7 109.3 37.3 112 37.9V64H80V128H69.9C69.5 126 68 124.5 66 124.1C63.3 123.5 60.7 125.3 60.1 128C59.5 130.7 61.3 133.3 64 133.9C66.7 134.5 69.3 132.7 69.9 130H82V66H114V37.9C116 37.5 117.5 36 117.9 34C118.5 31.3 116.7 28.7 114 28.1ZM65 132C63.3 132 62 130.7 62 129C62 127.3 63.3 126 65 126C66.7 126 68 127.3 68 129C68 130.7 66.7 132 65 132ZM113 36C111.3 36 110 34.7 110 33C110 31.3 111.3 30 113 30C114.7 30 116 31.3 116 33C116 34.7 114.7 36 113 36Z" fill="#2CED0C"/>
</svg>
