<svg width="275" height="279" viewBox="0 0 275 279" fill="none" xmlns="http://www.w3.org/2000/svg">
<path fill-rule="evenodd" clip-rule="evenodd" d="M0.0458984 0.882812H274.999V278.255H0.0458984V0.882812ZM226.017 109.262C227.89 109.262 229.763 107.389 229.763 105.517V94.2818C229.763 92.4092 227.89 90.5367 226.017 90.5367H211.037V71.8114C211.037 66.1938 207.292 62.4488 201.675 62.4488H182.949V47.4685C182.949 45.596 181.077 43.7235 179.204 43.7235H167.969C166.097 43.7235 164.224 45.596 164.224 47.4685V62.4488H145.499V47.4685C145.499 45.596 143.626 43.7235 141.754 43.7235H130.519C128.646 43.7235 126.773 45.596 126.773 47.4685V62.4488H108.048V47.4685C108.048 45.596 106.176 43.7235 104.303 43.7235H93.0679C91.1954 43.7235 89.3229 45.596 89.3229 47.4685V62.4488H70.5976C64.98 62.4488 61.2349 66.1938 61.2349 71.8114V90.5367H46.2547C44.3822 90.5367 42.5097 92.4092 42.5097 94.2818V105.517C42.5097 107.389 44.3822 109.262 46.2547 109.262H61.2349V127.987H46.2547C44.3822 127.987 42.5097 129.86 42.5097 131.732V142.968C42.5097 144.84 44.3822 146.713 46.2547 146.713H61.2349V165.438H46.2547C44.3822 165.438 42.5097 167.31 42.5097 169.183V180.418C42.5097 182.291 44.3822 184.163 46.2547 184.163H61.2349V202.888C61.2349 208.506 64.98 212.251 70.5976 212.251H89.3229V227.231C89.3229 229.104 91.1954 230.976 93.0679 230.976H104.303C106.176 230.976 108.048 229.104 108.048 227.231V212.251H126.773V227.231C126.773 229.104 128.646 230.976 130.519 230.976H141.754C143.626 230.976 145.499 229.104 145.499 227.231V212.251H164.224V227.231C164.224 229.104 166.097 230.976 167.969 230.976H179.204C181.077 230.976 182.949 229.104 182.949 227.231V212.251H201.675C207.292 212.251 211.037 208.506 211.037 202.888V184.163H226.017C227.89 184.163 229.763 182.291 229.763 180.418V169.183C229.763 167.31 227.89 165.438 226.017 165.438H211.037V146.713H226.017C227.89 146.713 229.763 144.84 229.763 142.968V131.732C229.763 129.86 227.89 127.987 226.017 127.987H211.037V109.262H226.017ZM192.312 184.163C192.312 189.781 188.567 193.526 182.949 193.526H89.3229C83.7053 193.526 79.9602 189.781 79.9602 184.163V90.5367C79.9602 84.9191 83.7053 81.1741 89.3229 81.1741H182.949C188.567 81.1741 192.312 84.9191 192.312 90.5367V184.163ZM103.726 101.339H168.545C170.345 101.339 172.146 103.14 172.146 104.94V169.759C172.146 171.559 170.345 173.36 168.545 173.36H103.726C101.926 173.36 100.125 171.559 100.125 169.759V104.94C100.125 103.14 101.926 101.339 103.726 101.339Z" fill="#151515"/>
</svg>
