<svg width="14" height="15" viewBox="0 0 14 15" fill="none" xmlns="http://www.w3.org/2000/svg">
<path fill-rule="evenodd" clip-rule="evenodd" d="M13.0543 5.26789C13.0543 5.39843 12.9238 5.52897 12.7932 5.52897H11.7489V6.83441H12.7932C12.9238 6.83441 13.0543 6.96495 13.0543 7.09549V7.87875C13.0543 8.0093 12.9238 8.13984 12.7932 8.13984H11.7489V9.44527H12.7932C12.9238 9.44527 13.0543 9.57582 13.0543 9.70636V10.4896C13.0543 10.6202 12.9238 10.7507 12.7932 10.7507H11.7489V12.0561C11.7489 12.4478 11.4878 12.7089 11.0962 12.7089H9.79074V13.7532C9.79074 13.8837 9.6602 14.0143 9.52966 14.0143H8.7464C8.61585 14.0143 8.48531 13.8837 8.48531 13.7532V12.7089H7.17988V13.7532C7.17988 13.8837 7.04934 14.0143 6.91879 14.0143H6.13553C6.00499 14.0143 5.87445 13.8837 5.87445 13.7532V12.7089H4.56901V13.7532C4.56901 13.8837 4.43847 14.0143 4.30793 14.0143H3.52467C3.39412 14.0143 3.26358 13.8837 3.26358 13.7532V12.7089H1.95815C1.56652 12.7089 1.30543 12.4478 1.30543 12.0561V10.7507H0.261086C0.130543 10.7507 0 10.6202 0 10.4896V9.70636C0 9.57582 0.130543 9.44527 0.261086 9.44527H1.30543V8.13984H0.261086C0.130543 8.13984 0 8.0093 0 7.87875V7.09549C0 6.96495 0.130543 6.83441 0.261086 6.83441H1.30543V5.52897H0.261086C0.130543 5.52897 0 5.39843 0 5.26789V4.48463C0 4.35409 0.130543 4.22354 0.261086 4.22354H1.30543V2.91811C1.30543 2.52648 1.56652 2.26539 1.95815 2.26539H3.26358V1.22105C3.26358 1.0905 3.39412 0.959961 3.52467 0.959961H4.30793C4.43847 0.959961 4.56901 1.0905 4.56901 1.22105V2.26539H5.87445V1.22105C5.87445 1.0905 6.00499 0.959961 6.13553 0.959961H6.91879C7.04934 0.959961 7.17988 1.0905 7.17988 1.22105V2.26539H8.48531V1.22105C8.48531 1.0905 8.61585 0.959961 8.7464 0.959961H9.52966C9.6602 0.959961 9.79074 1.0905 9.79074 1.22105V2.26539H11.0962C11.4878 2.26539 11.7489 2.52648 11.7489 2.91811V4.22354H12.7932C12.9238 4.22354 13.0543 4.35409 13.0543 4.48463V5.26789ZM9.79074 11.4034C10.1824 11.4034 10.4435 11.1423 10.4435 10.7507V4.22354C10.4435 3.83191 10.1824 3.57083 9.79074 3.57083H3.26358C2.87195 3.57083 2.61086 3.83191 2.61086 4.22354V10.7507C2.61086 11.1423 2.87195 11.4034 3.26358 11.4034H9.79074ZM4.26835 4.9768H8.78716C8.91268 4.9768 9.0382 5.10232 9.0382 5.22784V9.74665C9.0382 9.87217 8.91268 9.99769 8.78716 9.99769H4.26835C4.14283 9.99769 4.01731 9.87217 4.01731 9.74665V5.22784C4.01731 5.10232 4.14283 4.9768 4.26835 4.9768Z" fill="#606060"/>
</svg>
