<svg xmlns="http://www.w3.org/2000/svg" viewBox="0 0 102.92 114.02"><defs><style>.cls-1,.cls-2{fill:#feca19;}.cls-1{fill-rule:evenodd;}</style></defs><g id="Layer_2" data-name="Layer 2"><g id="Layer_1-2" data-name="Layer 1"><path class="cls-1" d="M47.12,65.47c3.77.22,5.41-.06,6.51-1a1.52,1.52,0,0,1,1-.5c1.48,0,2.08,2.69,1.36,4.69-.7,2.19-3.19,2.82-4.43,3.2-4.3.86-7.76.07-12.22-.22-2.16-.38-4.53-5.07-.77-6.44C39.44,64.5,47.12,65.47,47.12,65.47Zm28.3-.33c-1.16,1.7-2.21,5.43-7.09,6.16-3.52.52-6.65-.62-9.8-2.34a1.09,1.09,0,0,1-.66-1.22c.14-1-1.44-3.48-.82-5.12a14.28,14.28,0,0,0-.32-10,3.49,3.49,0,0,0-2.41-1.94h0a7.3,7.3,0,0,0-.25-5.36s1.74-1.59,2-1.92c1.3-1.76,1.15-3.06,1.3-4.93.1-.35-.06-1.21-.38-1.27s-.45.25-.58.68c-1,4.77-1.72,6.25-6.92,7.72-3.43.91-6.16-2.05-6-4.17a6.08,6.08,0,0,1,1.6-3c2.37-2.69,2.45-4,4.14-5.89,3.43-3.94,9.72-3,14.38-1.34,3.44,1.21,9.93,5.42,12,10.9,0,.08.19.68.24.77h27V67.57Zm2.12-9.55v-.05M47.37,33C44.06,36.88,42,39,42,40.49A9.7,9.7,0,0,0,42.28,43c-2.63.21-6.11.73-8.31,0-3.37-.78-5.48-6.33-.88-8.39a1.94,1.94,0,0,1,.54-.13c6.74-.55,7-2,11.18-2A4.32,4.32,0,0,1,47.37,33Zm-3,13.51A8.51,8.51,0,0,0,49,47.61a13.27,13.27,0,0,0,3.59-1.39c1,1.8.65,4.39-.19,5.34s-3,1.31-3,1.31c-4.41.64-8.69.78-13.25,1.42-5.68.63-8.27-4.14-5.68-7.1,2-2.33,10.94-2.79,12.14-2.89A5.91,5.91,0,0,0,44.35,46.48Zm6.09,7.86c1.05-.23,1.37-.27,2.89-1.71h0c2.07,1.35,3,2.7,2.31,6.68,0,0-.43,1.35-.44,1.36a4.54,4.54,0,0,1-2.7,2.67h0c-4.39.72-7,.13-11.51-.24-.21,0-6.5-.1-6.7-.13a3.9,3.9,0,0,1-2.07-6.53c2.64-.7,13.07-1.4,18.22-2.1Z"/><rect class="cls-2" x="30.99" y="67.58" width="7.62" height="46.94" rx="0.19" transform="translate(-33.44 21.45) rotate(-23.52)"/><rect class="cls-2" x="52.4" y="75.69" width="2.94" height="26.32" rx="0.48" transform="translate(-50.02 91.08) rotate(-60)"/><path class="cls-1" d="M36,24.65c-.26.09-.18.16-.33-.26l-.81-2.3c0-.08,0-.16,0-.17l14-5c.05,0,.11,0,.14.11l.78,2.22c.15.42.12.34-.13.43"/><rect class="cls-2" x="25.28" y="-0.26" width="8.28" height="34.15" rx="0.13" transform="translate(46.49 46.08) rotate(-150)"/><path class="cls-2" d="M4.62,36.42h9.89a.77.77,0,0,1,.77.77v15.6a.26.26,0,0,1-.26.26H4.62a.77.77,0,0,1-.77-.77V37.19a.77.77,0,0,1,.77-.77Z" transform="translate(45.1 73.55) rotate(141.11)"/><rect class="cls-2" x="12.98" y="56.63" width="7.58" height="16.63" rx="0.28" transform="translate(-1.19 129.57) rotate(-150)"/><rect class="cls-2" x="9.01" y="22.87" width="5.83" height="5.83" rx="0.17" transform="translate(28.87 48.59) rotate(168.22)"/><rect class="cls-2" x="2.76" y="14.03" width="5.83" height="5.83" rx="0.2" transform="translate(4.98 34.8) rotate(-159.25)"/><rect class="cls-2" x="17.22" y="5.66" width="3" height="3" rx="0.1" transform="translate(38.61 4.7) rotate(152.02)"/><rect class="cls-2" x="0.69" y="58.62" width="3" height="3" rx="0.18" transform="translate(-52.32 85.57) rotate(-112.95)"/></g></g></svg>