<svg width="276" height="279" viewBox="0 0 276 279" fill="none" xmlns="http://www.w3.org/2000/svg">
<path fill-rule="evenodd" clip-rule="evenodd" d="M275.737 0.882812H0.78418V278.255H275.737V0.882812ZM77.64 117.445V93.1962C77.64 77.1185 84.0268 61.6993 95.3955 50.3307C106.764 38.962 122.183 32.5752 138.261 32.5752C154.339 32.5752 169.758 38.962 181.126 50.3307C192.495 61.6993 198.882 77.1185 198.882 93.1962V117.445C205.313 117.445 211.481 119.999 216.028 124.547C220.576 129.094 223.13 135.262 223.13 141.693V202.314C223.13 208.745 220.576 214.913 216.028 219.46C211.481 224.008 205.313 226.562 198.882 226.562H77.64C71.2089 226.562 65.0412 224.008 60.4938 219.46C55.9463 214.913 53.3916 208.745 53.3916 202.314V141.693C53.3916 135.262 55.9463 129.094 60.4938 124.547C65.0412 119.999 71.2089 117.445 77.64 117.445ZM174.634 93.1962V117.445H101.888V93.1962C101.888 83.5496 105.72 74.2981 112.542 67.4769C119.363 60.6557 128.614 56.8236 138.261 56.8236C147.908 56.8236 157.159 60.6557 163.98 67.4769C170.801 74.2981 174.634 83.5496 174.634 93.1962ZM162.507 178.061C162.507 191.453 151.651 202.31 138.259 202.31C124.867 202.31 114.01 191.453 114.01 178.061C114.01 164.669 124.867 153.813 138.259 153.813C151.651 153.813 162.507 164.669 162.507 178.061Z" fill="#151515"/>
</svg>
