<svg width="12" height="12" viewBox="0 0 12 12" fill="none" xmlns="http://www.w3.org/2000/svg">
<path fill-rule="evenodd" clip-rule="evenodd" d="M2.18893 3.92831V4.29138C1.78503 4.29138 1.39767 4.45693 1.11207 4.75161C0.826465 5.04629 0.666016 5.44596 0.666016 5.8627V9.79101C0.666016 10.2078 0.826465 10.6074 1.11207 10.9021C1.39767 11.1968 1.78503 11.3623 2.18893 11.3623H9.8035C10.2074 11.3623 10.5948 11.1968 10.8804 10.9021C11.166 10.6074 11.3264 10.2078 11.3264 9.79101V5.8627C11.3264 5.44596 11.166 5.04629 10.8804 4.75161C10.5948 4.45693 10.2074 4.29138 9.8035 4.29138V3.92831C9.8035 2.88646 9.40238 1.88728 8.68837 1.15058C7.97437 0.413875 7.00597 0 5.99621 0C4.98646 0 4.01806 0.413875 3.30406 1.15058C2.59005 1.88728 2.18893 2.88646 2.18893 3.92831ZM8.28059 4.29138V3.92831C8.28059 3.3032 8.03991 2.70369 7.61151 2.26167C7.18311 1.81965 6.60207 1.57133 5.99621 1.57133C5.39036 1.57133 4.80932 1.81965 4.38092 2.26167C3.95252 2.70369 3.71184 3.3032 3.71184 3.92831V4.29138H8.28059ZM5.9955 9.6749C6.73623 9.6749 7.3367 9.05534 7.3367 8.29106C7.3367 7.52679 6.73623 6.90723 5.9955 6.90723C5.25478 6.90723 4.6543 7.52679 4.6543 8.29106C4.6543 9.05534 5.25478 9.6749 5.9955 9.6749Z" fill="#F86132"/>
</svg>
