<svg width="40" height="24" viewBox="0 0 40 24" fill="none" xmlns="http://www.w3.org/2000/svg">
<rect x="0.879202" y="-0.0692036" width="16.6921" height="24.5904" rx="2.5" transform="matrix(0.842212 -0.539147 0.916192 0.40074 1.18956 14.0439)" fill="#FAFAFA"/>
<rect x="0.879202" y="-0.0692036" width="16.6921" height="24.5904" rx="2.5" transform="matrix(0.842212 -0.539147 0.916192 0.40074 1.18956 14.0439)" stroke="#151515"/>
<rect x="0.879202" y="-0.0692036" width="16.6921" height="24.5904" rx="2.5" transform="matrix(0.842212 -0.539147 0.916192 0.40074 1.18956 12.1259)" fill="#FAFAFA"/>
<rect x="0.879202" y="-0.0692036" width="16.6921" height="24.5904" rx="2.5" transform="matrix(0.842212 -0.539147 0.916192 0.40074 1.18956 12.1259)" stroke="#151515"/>
<rect x="0.879202" y="-0.0692036" width="16.6921" height="24.5904" rx="2.5" transform="matrix(0.842212 -0.539147 0.916192 0.40074 1.18956 10.1786)" fill="#FAFAFA"/>
<rect x="0.879202" y="-0.0692036" width="16.6921" height="24.5904" rx="2.5" transform="matrix(0.842212 -0.539147 0.916192 0.40074 1.18956 10.1786)" stroke="#151515"/>
</svg>
