<?xml version="1.0" encoding="utf-8"?>
<!-- Generator: Adobe Illustrator 25.0.0, SVG Export Plug-In . SVG Version: 6.00 Build 0)  -->
<svg version="1.1" id="Layer_1" xmlns="http://www.w3.org/2000/svg" xmlns:xlink="http://www.w3.org/1999/xlink" x="0px" y="0px"
	 viewBox="0 0 39 25" style="enable-background:new 0 0 39 25;" xml:space="preserve">
<style type="text/css">
	.st0{fill:#FFF;}
</style>
<g>
	<path class="st0" d="M20.9,18.7C20.9,18.7,20.9,18.7,20.9,18.7C20.9,18.7,20.9,18.7,20.9,18.7l0.6,0.2c1.1,0.5,2.9,0.3,3.9-0.3
		l9.8-6.3c0.4-0.2,0.6-0.5,0.6-0.8c0-0.2-0.3-0.5-0.7-0.7l-9-3.9c0.4,1,0.6,2.1,0.6,3.2C26.7,14,24.3,17.3,20.9,18.7z"/>
	<path class="st0" d="M14.3,17.9l0.4,0.1c0.8,0.2,1.6,0.4,2.5,0.4c0,0,0,0,0,0h0c4.7,0,8.5-3.7,8.5-8.3c0-4.6-3.8-8.3-8.5-8.3
		s-8.5,3.7-8.5,8.3c0,2,0.7,3.9,2.1,5.5l0.3,0.3l0,0.4c-0.1,0.9-0.5,2-0.9,2.9C10,19.6,9.8,20,9.6,20.4c0,0.1-0.1,0.1-0.1,0.2
		c0.7-0.2,1.5-0.6,2.3-1.1c0.5-0.3,0.9-0.5,1.2-0.8l0.2-0.1c0.3-0.2,0.5-0.4,0.7-0.5L14.3,17.9z M16.5,5.7h1.7v2.4l-0.6,3.1h-0.5
		l-0.6-3.1V5.7z M16.2,13c0-0.5,0.3-0.9,1.1-0.9s1.1,0.4,1.1,0.9v0.3c0,0.5-0.3,0.9-1.1,0.9s-1.1-0.4-1.1-0.9V13z"/>
	<path class="st0" d="M2.9,11.9c-0.1,0.1-0.2,0.3-0.2,0.4c0,0.2,0.3,0.5,0.7,0.7l6.2,2.7c-0.3-0.4-0.5-0.8-0.8-1.2c0,0,0,0,0,0
		L3.1,12C3,12,3,12,2.9,11.9z"/>
	<path class="st0" d="M9.9,16.9l-6.8-3c-0.1,0-0.1-0.1-0.2-0.1c-0.1,0.1-0.2,0.3-0.2,0.4c0,0.2,0.3,0.5,0.7,0.7l6.2,2.7
		C9.8,17.4,9.9,17.2,9.9,16.9z"/>
	<path class="st0" d="M3.5,11.1l4.8,2.1c0,0,0,0,0,0c-0.3-1-0.5-2-0.5-3c0-1.4,0.3-2.7,0.9-3.8L3.4,9.6C3,9.8,2.8,10.1,2.8,10.4
		C2.8,10.6,3.1,10.9,3.5,11.1z"/>
	<path class="st0" d="M25.9,21.4c-0.8,0.5-1.8,0.8-2.9,0.8c-0.7,0-1.4-0.1-2-0.4l-5.9-2.6c0,0,0,0,0,0c-0.2-0.1-0.5-0.1-0.7-0.2l0,0
		c-0.2,0.1-0.4,0.2-0.6,0.4l0,0l0,0l7.6,3.3c1.1,0.5,2.9,0.3,3.9-0.3l9.8-6.3c0.4-0.2,0.6-0.5,0.6-0.8c0-0.1-0.1-0.2-0.1-0.3
		L25.9,21.4z"/>
	<path class="st0" d="M18,19.4C18,19.4,18,19.4,18,19.4C18,19.4,18,19.4,18,19.4l3.5,1.5c1.1,0.5,2.9,0.3,3.9-0.3l9.8-6.3
		c0.4-0.2,0.6-0.5,0.6-0.8c0-0.1-0.1-0.2-0.1-0.3l-9.8,6.3c-0.8,0.5-1.8,0.8-2.9,0.8c-0.7,0-1.4-0.1-2-0.4l-1.6-0.7c0,0,0,0,0,0
		C18.9,19.3,18.5,19.3,18,19.4z"/>
</g>
</svg>
