<svg width="36" height="36" viewBox="0 0 36 36" fill="none" xmlns="http://www.w3.org/2000/svg">
<path d="M24.87 6.69C26.6295 7.51874 28.1697 8.7491 29.3667 10.282C30.5637 11.8149 31.384 13.6074 31.7615 15.5153C32.1389 17.4232 32.0631 19.3931 31.54 21.2663C31.017 23.1395 30.0613 24.8637 28.75 26.3L30.17 27.72C31.7076 26.0564 32.8319 24.0541 33.4519 21.8752C34.072 19.6963 34.1703 17.4021 33.7389 15.1782C33.3076 12.9542 32.3587 10.8631 30.9691 9.07402C29.5794 7.28494 27.7881 5.84817 25.74 4.88C25.5025 4.77325 25.2327 4.76336 24.988 4.85243C24.7433 4.9415 24.543 5.1225 24.4297 5.35695C24.3164 5.59139 24.299 5.86079 24.3812 6.10787C24.4635 6.35494 24.6388 6.5602 24.87 6.68V6.69Z" fill="#FAFAFA"/>
<path d="M27.3 27.67L23.46 23.83L22.89 23.26L4.63 5L3.21 6.41L8.8 12H3C2.73478 12 2.48043 12.1054 2.29289 12.2929C2.10536 12.4804 2 12.7348 2 13V23C2 23.2652 2.10536 23.5196 2.29289 23.7071C2.48043 23.8946 2.73478 24 3 24H8.83L18.34 32.3C18.4844 32.4268 18.6622 32.5094 18.8523 32.5378C19.0424 32.5662 19.2366 32.5392 19.4117 32.46C19.5869 32.3809 19.7355 32.253 19.8398 32.0916C19.9441 31.9302 19.9998 31.7422 20 31.55V23.2L25.59 28.79C25.42 28.89 25.25 28.99 25.08 29.08C24.9625 29.1391 24.8577 29.2208 24.7718 29.3203C24.6858 29.4199 24.6203 29.5354 24.5789 29.6603C24.5376 29.7852 24.5213 29.917 24.5309 30.0482C24.5405 30.1794 24.5759 30.3075 24.635 30.425C24.6941 30.5425 24.7758 30.6473 24.8753 30.7332C24.9749 30.8192 25.0904 30.8847 25.2153 30.9261C25.3402 30.9674 25.472 30.9837 25.6032 30.9741C25.7344 30.9645 25.8625 30.9291 25.98 30.87C26.35 30.68 26.7 30.47 27.06 30.25L29.2 32.39L30.61 31L27.36 27.75L27.3 27.67Z" fill="#FAFAFA"/>
<path d="M22.69 12.62C23.6312 13.1692 24.413 13.9542 24.9584 14.8976C25.5037 15.841 25.7938 16.9103 25.8 18C25.7958 19.4318 25.2938 20.8177 24.38 21.92L25.8 23.34C27.0871 21.8584 27.7972 19.9626 27.8 18C27.7935 16.5607 27.4119 15.148 26.6929 13.9012C25.974 12.6544 24.9424 11.6165 23.7 10.89C23.5862 10.8176 23.4589 10.769 23.3258 10.7471C23.1927 10.7253 23.0566 10.7305 22.9256 10.7626C22.7946 10.7947 22.6715 10.8529 22.5636 10.9339C22.4557 11.0148 22.3652 11.1167 22.2977 11.2334C22.2302 11.3502 22.1871 11.4794 22.1708 11.6133C22.1545 11.7472 22.1655 11.883 22.2031 12.0125C22.2407 12.142 22.3041 12.2626 22.3895 12.367C22.4749 12.4714 22.5805 12.5575 22.7 12.62H22.69Z" fill="#FAFAFA"/>
<path d="M20 4.61995C19.9998 4.42777 19.9442 4.23974 19.8398 4.07834C19.7355 3.91695 19.5869 3.78904 19.4117 3.70991C19.2366 3.63079 19.0424 3.6038 18.8523 3.63218C18.6623 3.66057 18.4844 3.74311 18.34 3.86995L11.92 9.46995L20 17.54V4.61995Z" fill="#FAFAFA"/>
</svg>
