<svg width="36" height="36" viewBox="0 0 36 36" fill="none" xmlns="http://www.w3.org/2000/svg">
<path d="M23.41 25.25C23.1914 25.2529 22.9779 25.1841 22.8021 25.0541C22.6263 24.9241 22.498 24.7401 22.4367 24.5303C22.3754 24.3204 22.3846 24.0962 22.4629 23.8921C22.5412 23.688 22.6842 23.5151 22.87 23.4C23.7799 22.832 24.5273 22.038 25.0391 21.0954C25.551 20.1528 25.81 19.0936 25.7909 18.0212C25.7717 16.9487 25.4751 15.8995 24.93 14.9757C24.3848 14.0519 23.6096 13.2851 22.68 12.75C22.5605 12.6875 22.4549 12.6014 22.3695 12.497C22.2841 12.3926 22.2207 12.272 22.1831 12.1425C22.1455 12.013 22.1346 11.8772 22.1508 11.7433C22.1671 11.6094 22.2103 11.4802 22.2778 11.3634C22.3452 11.2467 22.4357 11.1448 22.5436 11.0639C22.6515 10.9829 22.7746 10.9247 22.9056 10.8926C23.0366 10.8605 23.1727 10.8553 23.3058 10.8772C23.4389 10.899 23.5662 10.9476 23.68 11.02C24.9039 11.7297 25.9237 12.7436 26.6403 13.9634C27.357 15.1833 27.7463 16.5676 27.7705 17.9822C27.7946 19.3968 27.4528 20.7936 26.7782 22.0372C26.1035 23.2808 25.119 24.3289 23.92 25.08C23.7687 25.1821 23.5923 25.2409 23.41 25.25V25.25Z" fill="#FAFAFA"/>
<path d="M25.62 31.18C25.3961 31.1787 25.1791 31.1022 25.0038 30.9629C24.8285 30.8236 24.705 30.6295 24.6531 30.4117C24.6013 30.1938 24.624 29.9649 24.7177 29.7615C24.8114 29.5581 24.9707 29.3921 25.17 29.29C27.2678 28.2564 29.0317 26.6523 30.2595 24.6619C31.4872 22.6715 32.129 20.3753 32.1113 18.0367C32.0935 15.6981 31.4169 13.4119 30.1591 11.4404C28.9013 9.4688 27.1132 7.89171 25 6.89002C24.8781 6.83523 24.7684 6.75655 24.6774 6.65863C24.5864 6.56072 24.516 6.44555 24.4703 6.31995C24.4245 6.19435 24.4045 6.06085 24.4112 5.92736C24.418 5.79387 24.4514 5.66308 24.5096 5.54274C24.5678 5.42239 24.6495 5.31493 24.7499 5.2267C24.8503 5.13847 24.9674 5.07127 25.0942 5.02906C25.221 4.98686 25.355 4.97051 25.4883 4.98098C25.6215 4.99145 25.7513 5.02853 25.87 5.09002C28.3247 6.24883 30.403 8.07606 31.8666 10.3621C33.3302 12.6481 34.1198 15.3004 34.1448 18.0147C34.1699 20.7291 33.4294 23.3955 32.0082 25.7081C30.5871 28.0208 28.5428 29.8861 26.11 31.09C25.9569 31.1609 25.7883 31.1918 25.62 31.18V31.18Z" fill="#FAFAFA"/>
<path d="M18.33 4.00005L9.07001 12H3.07001C2.80479 12 2.55044 12.1054 2.3629 12.2929C2.17536 12.4805 2.07001 12.7348 2.07001 13V22.92C2.07001 23.1853 2.17536 23.4396 2.3629 23.6272C2.55044 23.8147 2.80479 23.92 3.07001 23.92H8.88001L18.34 32.16C18.4831 32.2858 18.6591 32.3681 18.8474 32.3972C19.0357 32.4263 19.2284 32.4011 19.4028 32.3244C19.5772 32.2477 19.726 32.1228 19.8318 31.9643C19.9377 31.8059 19.996 31.6205 20 31.43V4.72005C19.9958 4.52853 19.9366 4.34225 19.8296 4.18339C19.7225 4.02452 19.5721 3.89974 19.3962 3.8239C19.2202 3.74805 19.0262 3.72434 18.8372 3.75556C18.6482 3.78679 18.4722 3.87165 18.33 4.00005V4.00005Z" fill="#FAFAFA"/>
</svg>
