<svg width="24" height="21" viewBox="0 0 24 21" fill="none" xmlns="http://www.w3.org/2000/svg">
<path d="M6 -0.000732422C9.315 -0.000732422 12 2.63177 12 5.87927C12 2.63177 14.685 -0.000732422 18 -0.000732422C21.315 -0.000732422 24 2.63177 24 5.87927C24 10.7738 19.149 12.5003 12.588 20.2913C12.5158 20.3768 12.4257 20.4456 12.3242 20.4928C12.2226 20.54 12.112 20.5644 12 20.5644C11.888 20.5644 11.7774 20.54 11.6758 20.4928C11.5743 20.4456 11.4842 20.3768 11.412 20.2913C4.851 12.5003 0 10.7738 0 5.87927C0 2.63177 2.685 -0.000732422 6 -0.000732422Z" fill="white"/>
</svg>
