<svg width="297" height="359" viewBox="0 0 297 359" fill="none" xmlns="http://www.w3.org/2000/svg">
<g clip-path="url(#clip0)">
<g clip-path="url(#clip1)">
<path d="M22.6174 353.315C22.1555 352.492 22.1807 352.106 22.4746 351.753C26.9335 346.27 28.6381 339.594 30.4603 333.002C31.2916 329.995 32.8871 327.367 34.1298 324.386C32.2741 322.446 29.7213 321.522 27.4877 320.162C23.3059 317.626 18.9646 315.35 14.7493 312.873C11.1301 310.757 9.13996 307.868 9.25752 303.308C9.51783 293.097 9.38349 282.877 9.31631 272.657C9.29112 269.172 10.895 266.804 13.8339 265.225C26.648 258.339 38.9918 250.647 51.5958 243.391C61.2945 237.807 70.9344 232.139 80.5911 226.495C82.0354 225.656 83.4294 224.724 84.7897 223.867C84.5378 222.532 83.4714 222.297 82.6568 221.826C62.6633 210.322 42.6109 198.901 22.7013 187.245C19.7371 185.507 17.6882 186.187 15.1271 187.665C-15.2369 205.266 -45.6681 222.759 -75.9985 240.41C-78.694 241.981 -80.6254 241.947 -83.1781 240.293C-87.9812 237.177 -92.9775 234.339 -97.9738 231.534C-99.7876 230.518 -100.518 229.275 -100.501 227.192C-100.417 217.812 -100.359 208.441 -100.535 199.061C-100.585 196.357 -99.0235 195.483 -97.1509 194.408C-74.8145 181.636 -52.5034 168.838 -30.1838 156.04C-21.5683 151.102 -12.9949 146.106 -4.32063 141.277C-2.34731 140.185 -1.4908 138.976 -1.59157 136.684C-1.76791 132.493 -1.50759 128.286 -1.69232 124.096C-1.80149 121.677 -0.936587 120.292 1.1543 119.108C14.766 111.357 28.3022 103.496 41.872 95.6699C53.502 88.9603 65.1236 82.2506 76.7536 75.5494C80.3392 73.4836 82.844 76.8639 80.6859 73.4881C77.6462 68.7267 82.5196 79.5426 81.6127 73.9247C81.5119 73.2697 81.2516 72.5475 82.1333 72.1528C83.1158 72.3039 82.9479 73.1689 83.0402 73.7735C83.9387 79.5762 79.2668 68.8107 82.5417 73.5889C84.1876 75.9906 81.7667 72.6354 84.3027 71.1742C99.09 62.6759 113.869 54.1524 128.648 45.6289C152.143 32.0668 175.672 18.5719 199.075 4.85032C201.829 3.23799 203.634 3.99377 205.885 5.29539C238.449 24.1227 271.021 42.9248 303.611 61.7102C334.982 79.7985 366.354 97.8953 397.784 115.883C400.765 117.588 402.033 119.343 401.899 123.063C401.555 133.123 401.781 143.208 402.008 153.269C402.067 156.006 401.21 157.543 398.817 158.904C380.713 169.216 362.684 179.654 344.639 190.075C272.466 231.744 200.301 273.421 128.127 315.09C111.174 324.873 94.1693 334.572 77.2911 344.49C74.5116 346.127 72.4795 346.152 69.7001 344.498C59.6235 338.469 49.3622 332.75 39.1933 326.863C35.2131 324.554 35.7085 325.058 33.8275 328.643C32.6435 330.894 32.0053 333.312 31.2916 335.723C29.587 341.492 27.9411 347.294 23.9441 352.031C23.5914 352.476 23.1464 352.812 22.6174 353.315ZM242.118 215.889L242.202 215.847C240.212 215.386 238.718 215.957 237.903 217.93C237.248 218.291 236.593 218.661 235.946 219.03C234.267 219.324 232.378 219.316 232.176 221.7C227.163 225.37 221.68 228.242 216.18 231.097C215.189 230.442 214.248 230.997 213.484 231.45C210.679 233.104 207.942 234.885 205.179 236.615C204.793 236.908 204.407 237.202 204.021 237.496C202.014 237.513 200.393 238.235 199.335 240.016C197.32 240.696 195.044 240.998 194.238 243.467C191.954 242.988 190.686 244.634 189.225 245.877C188.763 246.146 188.301 246.406 187.839 246.675C186.672 246.566 185.631 247.095 184.791 247.708C181.457 250.135 177.947 252.242 174.236 254.023C173.321 254.459 172.75 255.207 172.447 256.164L172.489 256.131C170.298 255.803 168.853 257.113 167.409 258.44C167.048 258.751 166.695 259.053 166.334 259.364C164.655 259.229 163.286 259.8 162.253 261.144C160.624 262.244 158.617 262.748 157.324 264.352C156.971 264.646 156.619 264.948 156.266 265.242C152.084 265.687 149.372 268.609 146.374 271.07L146.273 271.129C144.107 271.464 142.209 272.38 140.488 273.707C138.54 274.874 136.592 276.041 134.643 277.208C132.981 278.241 130.705 278.275 129.622 280.265C129.261 280.576 128.9 280.886 128.539 281.197C126.876 281.063 125.516 281.634 124.483 282.952C122.888 284.078 120.889 284.581 119.554 286.11C118.966 286.538 118.37 286.966 117.782 287.395C115.859 286.866 114.566 287.739 113.583 289.284C112.215 289.964 110.846 290.644 109.477 291.325C107.823 292.005 105.984 292.408 105.186 294.314C103.263 295.28 101.34 296.237 99.4175 297.203C97.8472 297.74 96.4869 297.329 95.0678 296.506C85.6378 291.031 76.1491 285.656 66.7107 280.181C63.2007 278.149 63.3266 275.982 66.9962 273.891C74.646 269.525 82.2622 265.091 89.9959 260.875C92.0784 259.741 92.683 258.482 92.3891 256.231C91.4654 249.035 90.8524 241.796 89.8028 234.616C89.3241 231.349 89.6264 227.906 88.2241 224.833C86.8722 224.698 85.9905 225.463 85.0416 226.017C73.5711 232.71 62.1007 239.411 50.6302 246.121C38.7986 253.04 26.9671 259.951 15.1523 266.905C11.1721 269.247 10.2736 272.271 12.2133 276.436C12.4484 276.94 12.6836 277.435 12.9271 277.931C12.0286 278.073 11.3904 278.426 11.4072 279.509C11.4408 281.323 11.5751 283.154 11.3484 284.943C10.9286 288.176 12.4904 290.258 14.934 291.929C15.9668 292.635 17.092 293.197 18.1753 293.827C32.1481 301.939 46.1125 310.076 60.1105 318.138C61.706 319.053 62.8564 320.011 62.5373 322.001C62.3526 323.151 63.1587 324.865 61.58 325.276C60.3037 325.612 59.464 324.302 58.8594 323.185C60.6899 322.933 60.9251 321.841 59.9846 320.565C59.4388 319.826 58.4563 319.381 57.6166 318.894C43.9797 310.958 30.3511 303.006 16.6806 295.137C15.1187 294.239 13.5569 293.08 11.4996 292.836C11.7683 294.877 12.9942 295.801 14.2034 296.758C15.1607 297.514 16.6218 297.614 17.1424 298.95C15.0599 299.328 13.792 297.052 11.3904 297.195C11.3904 299.05 11.6087 300.856 11.3484 302.594C10.7438 306.617 12.4148 309.287 15.7989 311.21C21.3662 314.384 27.0007 317.475 32.4084 320.901C34.5413 322.253 36.2039 322.396 38.6979 320.515C36.2207 323.319 38.0345 324.1 39.7307 325.066C49.908 330.869 60.0601 336.713 70.2207 342.533C71.0352 343.003 71.8161 343.751 73.1093 343.003C73.1093 333.925 73.0757 324.722 73.1513 315.526C73.1597 314.065 72.236 313.293 71.5726 312.285C73.4116 312.68 75.0154 311.647 76.7536 311.437C74.8643 313.066 74.2093 315.023 74.2765 317.601C74.478 324.73 74.3269 331.868 74.3605 339.006C74.3689 340.35 74.0834 341.752 74.8055 343.255C76.1323 343.112 77.1483 342.399 78.2148 341.786C89.8364 335.076 101.458 328.375 113.08 321.673C186.563 279.266 260.055 236.858 333.538 194.442C354.724 182.215 375.885 169.946 397.121 157.803C399.514 156.435 400.354 154.873 400.287 152.16C400.11 144.611 400.245 137.053 400.211 129.495C400.203 128.278 400.547 126.984 399.682 125.75C397.029 126.052 395.282 128.664 392.519 128.689C389.026 132.594 383.921 133.954 379.689 136.7C370.51 142.654 360.652 147.5 351.34 153.269C350.895 153.546 350.282 153.554 349.753 153.689C347.309 152.866 346.234 155.066 344.589 156.015C343.438 156.829 341.263 156.435 341.381 158.736C339.072 160.482 336.586 161.918 333.874 162.96C329.65 163.321 326.459 165.58 323.621 168.502C323.008 168.846 322.387 169.191 321.774 169.535C319.414 168.997 318.658 170.786 317.735 172.331C316.005 173.776 314.174 175.035 311.907 175.497C309.95 175.153 308.699 176.211 307.633 177.638C302.351 182.03 296.381 185.28 290.184 188.144C287.967 187.783 286.615 188.816 285.859 190.823C284.045 192.133 282.324 193.594 280.015 193.98C278.05 193.627 276.513 194.131 275.715 196.13C270.517 200.639 264.228 203.352 258.283 206.627C256.402 206.073 255.201 207.391 253.824 208.239C251.985 209.658 249.172 209.566 248.013 212.018C247.425 212.421 246.829 212.816 246.241 213.219C243.873 212.623 243.092 214.403 242.118 215.889ZM74.9399 166.075C76.1155 167.091 77.2071 168.275 79.0041 167.923C79.5079 168.149 79.9949 168.443 80.5156 168.578C83.8156 169.434 84.2103 169.09 84.5546 173.196C84.8317 176.522 85.4363 179.822 85.8141 183.147C88.5936 207.534 91.2975 231.929 94.1777 256.307C94.5304 259.271 93.7998 260.9 91.1631 262.319C84.1515 266.082 77.2743 270.104 70.3718 274.068C69.3558 274.655 68.029 274.983 67.6512 276.486C68.113 276.856 68.4909 277.284 68.9611 277.536C77.7949 282.28 86.1417 287.856 95.0678 292.442C96.932 293.399 98.3007 293.533 100.047 292.416C103.448 290.233 106.899 288.117 110.854 287.034C111.249 286.924 111.828 286.849 111.971 286.572C113.567 283.624 116.724 282.784 119.302 281.29C124.852 278.09 130.193 274.496 136.079 271.893C138.405 272.338 140.093 271.397 141.328 269.474C142.075 268.047 143.376 267.308 144.745 266.56C152.823 262.16 160.801 257.55 168.736 252.939C175.294 249.127 181.953 245.398 188.444 241.418C197.546 235.842 206.901 230.686 216.146 225.345C232.756 215.755 249.357 206.148 265.966 196.558C276.664 190.378 287.362 184.205 298.06 178.016C307.339 172.659 316.601 167.284 325.88 161.935C327.92 160.759 329.877 159.424 332.32 159.088C334.848 158.736 335.704 156.074 337.82 154.999C341.792 152.975 345.848 150.951 349.417 148.314C354.548 144.51 360.795 143.015 365.993 139.102C372.156 134.458 379.185 130.772 386.263 127.446C388.707 128.118 390.093 126.472 391.57 125.028C392.486 123.071 394.341 122.257 396.155 121.644C397.348 121.24 398.355 120.577 398.599 119.62C398.943 118.259 397.39 117.965 396.491 117.445C390.21 113.792 383.895 110.189 377.598 106.553C320.573 73.6431 263.531 40.7583 206.556 7.75587C203.391 5.9252 201.056 5.81604 197.815 7.69709C161.447 28.8589 124.987 49.8528 88.5516 70.8971C82.9088 74.1554 82.9675 74.1302 84.6134 80.3024C85.1676 82.3766 85.9569 84.5096 85.2012 86.7517C84.1599 84.4256 83.6561 82.0155 82.9591 79.6558C81.5568 74.9447 81.5064 74.9363 77.2323 77.4052C52.6539 91.5887 28.0755 105.772 3.5055 119.964C2.69937 120.426 1.61615 120.636 1.54897 122.055C3.32916 123.415 5.52919 124.406 6.9735 126.321C7.69565 127.278 8.84607 127.505 9.87052 127.891C16.7981 130.486 22.9868 134.341 28.8564 138.766C29.8893 140.194 30.6954 142.092 33.055 140.882C35.6665 141.092 36.9345 143.427 38.9246 144.619C39.907 146.19 40.9819 147.584 43.1651 146.668C50.3279 150.019 56.8692 154.495 63.8053 158.257C66.316 159.626 68.7596 161.121 70.8421 163.128C71.6818 164.857 73.2688 165.529 74.9399 166.075ZM-84.488 224.195C-90.0049 222.246 -90.408 221.591 -89.2576 216.25C-86.0919 217.082 -83.7491 219.845 -80.2139 220.357C-79.9452 216.108 -79.7437 212.11 -80.3986 208.105C-79.8108 208.105 -79.223 208.105 -78.6352 208.105C-79.1559 212.102 -79.2818 216.099 -78.7024 220.189C-76.9726 220.273 -75.9062 219.265 -74.7306 218.593C-58.2302 209.163 -41.7382 199.724 -25.2547 190.277C-11.559 182.425 2.14516 174.573 15.8241 166.705C16.8737 166.1 18.4944 165.832 18.5532 164.37C18.7043 160.717 19.1158 157.014 18.276 153.328C14.4973 154.209 12.1377 157.274 8.60254 157.854C10.2232 155.586 12.9775 155.015 15.1187 153.521C15.8745 153 16.9829 152.782 16.8485 151.253C12.482 148.742 7.88041 146.366 3.57268 143.536C0.583303 141.571 -1.75111 141.773 -4.79087 143.536C-34.206 160.524 -63.7051 177.353 -93.1707 194.24C-94.573 195.047 -95.8829 196.012 -97.1425 196.852C-96.731 198.557 -94.8837 198.481 -94.5646 199.833C-96.0005 200.203 -96.941 198.246 -98.7044 199.111C-98.7044 208.34 -98.6708 217.67 -98.738 226.999C-98.7464 228.679 -97.915 229.435 -96.6051 230.19C-92.4905 232.542 -88.4767 235.061 -84.3537 237.387C-83.2033 238.042 -82.1872 239.209 -80.6757 238.983C-79.8864 238.302 -80.0376 237.421 -80.046 236.631C-80.0963 233.298 -79.7269 229.938 -80.4154 226.63C-77.9299 226.084 -76.0657 224.077 -73.513 223.691C-74.4451 224.766 -75.5955 225.513 -76.8382 226.193C-77.7032 226.663 -78.5681 227.243 -78.5765 228.377C-78.61 231.912 -78.8452 235.456 -78.4421 239.184C-76.1161 238.563 -74.6634 237.446 -73.1183 236.556C-60.1615 229.099 -47.2216 221.6 -34.2732 214.126C-17.5797 204.485 -0.869425 194.854 15.8157 185.196C16.8653 184.592 18.486 184.323 18.5447 182.862C18.6875 179.209 19.1158 175.514 18.2341 171.735C14.5225 172.802 12.079 175.699 8.56896 176.345C11.382 173.44 15.337 172.298 18.4944 169.921C18.9814 169.552 19.5272 169.61 20.0058 169.988C22.2647 171.76 25.1617 172.541 27.2022 174.657C24.6999 174.842 23.1884 172.23 20.4173 172.264C19.8379 175.018 20.3165 177.79 20.0898 180.502C19.8883 182.895 20.854 184.247 22.9616 185.448C43.6606 197.247 64.2839 209.163 84.9492 221.003C85.8225 221.507 86.6623 222.523 88.2325 221.726C87.9638 219.089 87.5943 216.36 87.4432 213.622C87.3256 211.447 86.7042 209.591 85.008 208.164C86.3516 207.97 87.292 207.391 86.2004 206.031C85.537 205.199 84.4874 204.628 83.5301 204.074C63.3518 192.385 43.1399 180.771 23.012 168.989C20.2662 167.385 17.9821 166.94 15.463 169.023C15.1439 169.291 14.7577 169.476 14.3966 169.686C-15.6316 186.918 -45.6849 204.116 -75.671 221.423C-78.3665 222.977 -80.6002 223.624 -83.2117 221.507C-84.3789 220.567 -85.8064 219.668 -87.2423 221.289C-86.9904 222.927 -84.8407 222.717 -84.488 224.195ZM0.0962658 125.918C0.0962658 129.865 0.230613 133.442 0.0458761 137.011C-0.0716838 139.312 0.860403 140.546 2.82533 141.588C7.76284 144.208 12.5492 147.097 17.4615 149.767C19.4097 150.825 20.3501 152.16 20.1486 154.444C19.9723 156.527 20.3165 158.66 20.0646 160.726C19.6532 164.118 21.0639 165.999 23.9945 167.662C40.646 177.109 57.1716 186.767 73.7559 196.331C77.585 198.54 81.4645 200.681 85.3019 202.84C86.2424 201.504 85.8561 200.396 85.7386 199.329C84.9073 191.704 84.0172 184.088 83.2362 176.454C83.0011 174.112 81.7416 172.801 79.785 171.668C55.7188 157.736 31.6947 143.738 7.62848 129.806C5.39484 128.513 3.31237 126.808 0.0962658 125.918Z" fill="#151515"/>
<path d="M19.8718 370.06C21.736 371.135 23.8773 369.917 26.2705 371.529C23.2055 372.235 20.7032 371.974 18.226 371.832C17.3527 371.781 17.2771 371.009 17.3947 370.253C17.6886 368.448 18.965 367.347 20.2497 366.273C21.207 365.475 22.3406 364.862 23.2307 363.997C24.7926 362.485 24.8178 360.781 23.4826 359.647C22.307 358.656 21.081 359.017 19.7879 360.856C19.4016 361.41 19.284 362.166 18.1672 362.208C17.4199 360.495 17.8817 359.143 19.41 358.077C20.9299 357.018 22.6093 356.951 24.1628 357.799C25.7498 358.664 26.4468 360.209 26.3209 362.023C26.1697 364.173 24.7842 365.534 23.1383 366.684C21.8284 367.599 20.0818 368.112 19.8718 370.06Z" fill="#151515"/>
<path d="M12.8431 371.765C12.2973 369.406 11.4324 368.213 8.87124 368.389C6.72997 368.532 6.29331 367.659 7.217 365.879C8.44298 363.527 9.8621 361.277 11.2224 358.993C11.5835 358.388 12.0957 357.758 12.8515 357.901C13.9683 358.119 13.7248 359.16 13.75 359.941C13.8088 361.755 13.1958 363.88 13.9347 365.324C15.2363 367.877 13.6576 369.573 12.8431 371.765ZM11.7095 362.335C9.8537 364.241 9.8705 364.249 9.31629 366.634C12.1965 366.71 12.1965 366.71 11.7095 362.335Z" fill="#151515"/>
<path d="M187.839 246.658C188.167 247.044 188.091 247.456 187.713 247.674C182.675 250.596 177.922 254.023 172.439 256.147C172.741 255.19 173.312 254.442 174.228 254.006C177.947 252.234 181.449 250.118 184.783 247.691C185.631 247.078 186.664 246.549 187.839 246.658Z" fill="#151515"/>
<path d="M216.172 231.097C213.619 233.13 210.663 234.507 207.875 236.153C207.019 236.657 206.154 236.934 205.171 236.615C207.934 234.885 210.663 233.104 213.476 231.45C214.249 230.997 215.181 230.442 216.172 231.097Z" fill="#151515"/>
<path d="M156.25 265.233C153.537 268.164 150.111 269.894 146.358 271.061C149.356 268.601 152.068 265.678 156.25 265.233Z" fill="#151515"/>
<path d="M98.4691 299.353C98.3515 298.446 99.0905 297.908 99.4012 297.178C101.324 296.212 103.247 295.255 105.17 294.289C106.304 293.835 107.211 292.735 108.613 293.038L108.537 292.954C105.766 296.002 101.811 297.194 98.4691 299.353Z" fill="#151515"/>
<path d="M116.422 288.688C114.004 290.493 111.602 292.332 108.537 292.962L108.613 293.046C108.898 292.467 109.175 291.887 109.461 291.316C110.83 290.636 112.198 289.956 113.567 289.276C114.491 288.948 115.398 288.528 116.422 288.688Z" fill="#151515"/>
<path d="M253.917 209.188C252.111 210.482 250.558 212.312 247.988 212.002C249.155 209.549 251.969 209.642 253.799 208.223C253.833 208.542 253.875 208.869 253.917 209.188Z" fill="#151515"/>
<path d="M200.284 240.167C198.512 241.72 196.598 242.997 194.23 243.459C195.036 240.99 197.303 240.688 199.327 240.007C199.646 240.058 199.965 240.116 200.284 240.167Z" fill="#151515"/>
<path d="M140.581 274.773C138.842 276.301 136.835 277.351 134.694 278.166C134.669 277.847 134.644 277.519 134.627 277.2C136.575 276.033 138.523 274.865 140.471 273.698C140.505 274.059 140.547 274.412 140.581 274.773Z" fill="#151515"/>
<path d="M140.58 274.773C140.547 274.412 140.505 274.059 140.471 273.698C142.193 272.371 144.099 271.456 146.257 271.12C144.905 273.178 142.621 273.782 140.58 274.773Z" fill="#151515"/>
<path d="M200.284 240.167C199.965 240.116 199.646 240.057 199.327 240.007C200.385 238.227 202.014 237.505 204.012 237.488C203.542 239.453 201.787 239.629 200.284 240.167Z" fill="#151515"/>
<path d="M134.627 277.2C134.652 277.519 134.677 277.846 134.694 278.165C133.166 279.274 131.822 280.827 129.605 280.256C130.689 278.266 132.964 278.233 134.627 277.2Z" fill="#151515"/>
<path d="M136.088 271.91C137.583 270.558 139.102 269.256 141.336 269.491C140.102 271.414 138.414 272.355 136.088 271.91Z" fill="#151515"/>
<path d="M28.8564 138.775C30.6366 138.725 31.9298 139.648 33.055 140.891C30.6954 142.1 29.8977 140.203 28.8564 138.775Z" fill="#151515"/>
<path d="M235.938 219.03C235.46 221.02 233.772 221.306 232.168 221.7C232.37 219.315 234.259 219.324 235.938 219.03Z" fill="#151515"/>
<path d="M279.99 193.963C278.89 195.349 277.613 196.382 275.69 196.113C276.48 194.114 278.016 193.611 279.99 193.963Z" fill="#151515"/>
<path d="M38.9331 144.628C40.7301 144.527 42.0317 145.434 43.1737 146.677C40.9904 147.592 39.924 146.198 38.9331 144.628Z" fill="#151515"/>
<path d="M172.473 256.122C171.146 257.701 169.635 258.877 167.393 258.432C168.837 257.105 170.281 255.795 172.473 256.122Z" fill="#151515"/>
<path d="M166.318 259.355C165.671 261.228 164 261.631 162.38 262.118C162.329 261.791 162.287 261.463 162.237 261.144C163.27 259.784 164.638 259.221 166.318 259.355Z" fill="#151515"/>
<path d="M70.8506 163.144C72.6476 163.01 73.9239 163.942 75.0576 165.176C75.0156 165.479 74.982 165.781 74.94 166.083C73.269 165.529 71.6819 164.857 70.8506 163.144Z" fill="#151515"/>
<path d="M124.609 283.968C123.156 285.245 121.712 286.546 119.537 286.101C120.872 284.573 122.871 284.069 124.466 282.944C124.517 283.28 124.567 283.624 124.609 283.968Z" fill="#151515"/>
<path d="M162.245 261.135C162.295 261.463 162.337 261.79 162.388 262.109C160.96 263.453 159.491 264.687 157.316 264.335C158.609 262.739 160.616 262.235 162.245 261.135Z" fill="#151515"/>
<path d="M124.609 283.968C124.567 283.624 124.517 283.28 124.466 282.944C125.499 281.625 126.859 281.054 128.522 281.189C128.001 283.212 126.087 283.28 124.609 283.968Z" fill="#151515"/>
<path d="M194.238 243.458C192.97 245.096 191.459 246.238 189.225 245.869C190.678 244.626 191.946 242.98 194.238 243.458Z" fill="#151515"/>
<path d="M242.203 215.856C241.103 217.233 239.776 218.149 237.903 217.939C238.718 215.965 240.213 215.394 242.203 215.856Z" fill="#151515"/>
<path d="M253.917 209.188C253.875 208.869 253.841 208.541 253.799 208.222C255.168 207.374 256.377 206.064 258.258 206.61C257.057 207.886 255.638 208.793 253.917 209.188Z" fill="#151515"/>
<path d="M290.15 188.127C289.101 189.647 287.438 190.185 285.826 190.806C286.581 188.808 287.942 187.775 290.15 188.127Z" fill="#151515"/>
<path d="M74.9404 166.075C74.9824 165.773 75.016 165.47 75.058 165.168C76.6702 165.663 78.3497 166.058 79.0046 167.922C77.216 168.275 76.116 167.091 74.9404 166.075Z" fill="#151515"/>
<path d="M246.208 213.202C245.511 215.108 243.756 215.411 242.119 215.889C243.093 214.403 243.874 212.623 246.208 213.202Z" fill="#151515"/>
<path d="M136.919 147.432C135.399 147.466 135.206 146.307 134.795 145.509C134.199 144.359 133.317 143.486 132.452 142.579C131.755 141.848 131.058 141.739 130.302 142.461C129.589 143.15 130.076 143.729 130.521 144.258C131.612 145.535 132.687 146.819 132.998 148.541C133.04 148.751 132.796 149.02 132.687 149.255C131.57 149.49 131.268 148.6 130.898 147.894C130.235 146.626 129.278 145.635 128.237 144.678C127.607 144.099 126.952 144.199 126.33 144.611C125.541 145.14 125.885 145.736 126.246 146.391C127.17 148.029 128.724 149.389 128.757 151.463C127.506 152.11 127.137 151.27 126.733 150.59C125.961 149.263 125.197 147.919 124.021 146.887C123.375 146.316 122.711 146.525 122.157 147.046C121.678 147.5 121.771 148.062 122.174 148.516C123.568 150.069 124.752 151.707 124.836 153.848C123.417 154.52 123.156 153.521 122.762 152.874C122.115 151.799 121.653 150.615 120.713 149.725C119.949 149.003 119.159 148.415 118.177 149.297C117.161 150.204 118.168 150.749 118.655 151.32C119.89 152.798 120.772 154.386 121.015 156.367C119.142 156.577 119.042 155.385 118.664 154.579C118.051 153.269 117.119 152.253 115.952 151.446C115.271 150.976 114.591 151.253 114.079 151.791C113.592 152.295 113.894 152.79 114.289 153.227C115.7 154.772 116.816 156.451 117.001 158.584C115.691 159.197 115.322 158.341 114.919 157.661C114.281 156.577 113.819 155.402 112.887 154.503C112.131 153.773 111.241 153.143 110.309 153.865C109.007 154.881 110.426 155.477 110.905 156.174C112.307 158.215 112.307 158.206 112.282 161.095C110.619 160.927 110.695 159.374 110.09 158.374C108.587 155.88 107.664 155.444 105.018 156.812C103.389 157.652 102.155 157.409 100.753 156.603C90.5754 150.741 80.3897 144.896 70.2124 139.052C69.8513 138.842 69.4566 138.674 69.1291 138.413C67.1474 136.843 64.8718 135.961 62.5374 135.827C62.361 135.819 62.2015 135.457 61.832 135.029C68.2474 131.653 74.117 127.505 80.4821 124.112C83.9081 122.29 87.2837 120.157 90.6426 118.175C93.5648 116.454 96.9321 115.27 99.9634 113.565C101.349 112.792 102.357 113.649 103.431 114.27C111.308 118.797 119.193 123.315 127.078 127.841C129.505 129.235 131.898 130.671 134.366 131.981C135.718 132.703 136.692 133.551 136.441 135.206C136.147 137.12 137.305 138.346 138.406 139.614C139.741 141.159 140.933 142.763 140.857 145.341C138.842 144.586 138.825 142.721 137.801 141.714C137.205 141.126 136.659 140.479 136.046 139.917C135.374 139.304 134.719 139.673 134.215 140.177C133.77 140.614 133.821 141.159 134.232 141.663C135.601 143.351 137.163 144.964 136.919 147.432ZM116.926 145.232C117.329 145.316 117.732 145.367 118.126 145.476C120.881 146.223 121.074 146.013 120.368 143.057C120.545 142.948 120.721 142.839 120.897 142.73C122.543 143.091 124.542 145.039 125.331 141.638C125.608 140.437 126.624 141.134 127.363 141.151C129.773 141.218 129.202 139.816 128.665 138.447C132.578 138.884 132.578 138.884 133.552 135.416C132.737 135.491 132.099 136.238 131.209 136.012C131.36 134.97 132.771 134.828 132.847 133.375C132.695 133.274 132.36 133.014 131.998 132.804C122.333 127.219 112.651 121.66 103.003 116.042C101.45 115.135 100.224 115.488 98.771 116.345C92.3976 120.082 85.9318 123.651 79.5584 127.387C76.7202 129.059 73.5712 130.285 70.9765 132.745C73.5376 135.298 77.14 135.869 79.2561 138.523C75.9392 138.086 73.7224 135.054 70.4139 134.5C69.5406 136.826 71.1697 137.381 72.4712 138.136C81.4226 143.301 90.3739 148.457 99.3252 153.613C99.8039 153.89 100.283 154.192 100.803 154.394C101.282 154.587 101.886 155.007 102.289 154.36C102.718 153.689 102.466 153.084 101.895 152.521C100.61 151.262 98.5863 150.985 97.6038 149.322C98.6535 149.12 99.4932 149.7 100.207 150.262C102.08 151.74 103.91 151.614 105.816 150.439C104.977 151.95 105.556 152.874 107.143 152.891C109.091 152.916 109.351 151.732 108.629 150.153L108.52 150.254C109.041 150.237 109.578 150.145 110.09 150.212C112.635 150.548 112.635 150.556 112.828 147.651L112.735 147.726C116.674 148.398 116.674 148.398 117.026 145.131L116.926 145.232Z" fill="#151515"/>
<path d="M309.867 118.041C307.457 116.235 307.49 114.111 306.138 112.868C305.29 112.095 304.627 111.046 303.367 111.986C302.082 112.944 303.342 113.691 303.737 114.447C304.593 116.093 306.054 117.529 305.651 119.746C303.669 119.208 303.72 117.285 302.695 116.219C302.116 115.614 301.671 114.883 301.058 114.321C300.462 113.767 299.756 113.96 299.16 114.422C298.421 115.001 298.665 115.673 299.152 116.219C300.546 117.789 301.621 119.494 301.923 121.61C300.479 122.223 300.311 121.198 299.908 120.569C299.463 119.863 299.185 118.965 298.581 118.452C297.632 117.655 297.053 115.454 295.398 116.605C293.358 118.016 295.81 118.814 296.305 119.863C296.935 121.198 297.943 122.382 298.01 123.886C296.599 124.683 296.297 123.617 295.986 122.962C295.314 121.534 294.332 120.384 293.249 119.284C292.585 118.604 291.897 118.268 291.124 119.074C290.511 119.712 290.755 120.392 291.267 120.921C292.359 122.038 293.114 123.373 293.853 124.717C294.13 125.212 294.189 125.783 293.677 126.271C292.233 126.329 292.031 125.061 291.468 124.171C290.713 122.979 289.772 121.946 288.639 121.123C288.152 120.77 287.572 120.913 287.102 121.308C286.598 121.736 286.573 122.265 286.892 122.794C287.95 124.557 289.344 126.153 289.848 128.244C288.387 129.143 287.967 128.068 287.522 127.27C286.774 125.918 285.994 124.583 284.759 123.634C284.138 123.155 283.399 123.331 282.87 123.894C282.4 124.398 282.677 124.902 283.063 125.347C284.44 126.9 285.54 128.58 285.809 131.133C282.609 130.133 282.945 124.608 278.327 126.195C279.335 128.655 282.03 130.234 281.652 133.35C279.687 133.199 279.754 131.41 279.007 130.427C277.109 127.916 276.463 127.581 273.515 129.025C272.021 129.756 270.904 129.512 269.627 128.781C259.215 122.786 248.786 116.806 238.365 110.819C238.004 110.609 237.424 110.433 237.349 110.13C236.644 107.418 234.897 107.216 232.63 108.014C232.092 108.207 231.496 108.09 231.295 107.418C231.068 106.654 231.748 106.519 232.201 106.251C238.583 102.472 244.915 98.609 251.364 94.956C256.872 91.8406 262.557 89.0274 268.099 85.9623C269.77 85.0385 270.979 85.6767 272.348 86.4661C281.308 91.6306 290.284 96.7615 299.261 101.901C300.227 102.455 301.167 103.076 302.166 103.564C304.005 104.462 305.618 105.445 305.223 107.922C304.954 109.585 306.407 110.374 307.272 111.373C308.783 113.086 309.85 114.858 309.867 118.041ZM285.7 117.445C289.646 118.133 289.646 118.133 289.907 114.925C291.074 114.909 292.476 116.479 293.265 115.219C294.189 113.767 295.104 113.33 296.733 113.246C297.968 113.187 297.749 111.886 297.649 110.928C298.329 110.97 299.017 110.97 299.698 111.071C300.621 111.214 301.394 111.029 301.637 110.055C301.763 109.568 301.889 108.896 301.369 108.526C300.672 108.023 300.109 108.627 299.496 108.871C299.118 109.022 298.698 109.064 298.295 109.148C298.606 107.342 301.268 107.653 301.486 105.596C301.058 105.251 300.663 104.848 300.201 104.588C290.897 99.222 281.568 93.9147 272.306 88.4983C270.526 87.457 269.157 87.4234 267.335 88.4899C259.064 93.3521 250.7 98.0547 242.379 102.816C241.17 103.505 239.918 104.168 239.608 105.713C238.608 108.661 238.583 108.711 241.153 110.198C249.928 115.27 258.72 120.325 267.537 125.33C268.62 125.943 269.871 127.698 271.072 126.287C272.096 125.078 269.728 124.49 269.569 123.264C272.659 124.322 274.783 121.795 277.42 121.165C276.522 122.483 275.094 123.138 273.86 124.045C273.482 124.431 273.003 124.759 272.76 125.212C272.491 125.708 272.575 126.329 273.289 126.405C273.843 126.464 273.826 125.893 273.843 125.523C273.86 124.994 273.784 124.465 273.75 123.936C276.899 127.438 277.991 121.114 280.762 122.441C281.123 122.618 281.602 121.803 281.635 121.215C281.661 120.804 281.551 120.384 281.509 119.972C282.164 120.065 282.819 120.182 283.474 120.241C285.557 120.434 285.876 120.031 285.7 117.445Z" fill="#151515"/>
<path d="M189.721 218.669C187.991 218.644 187.907 217.3 187.395 216.418C186.748 215.302 185.917 214.386 184.909 213.622C184.221 213.101 183.591 213.429 183.07 213.966C182.583 214.479 182.81 214.949 183.205 215.402C184.565 216.973 185.724 218.635 185.875 220.81C184.515 221.297 184.33 220.34 183.91 219.693C183.305 218.761 182.743 217.796 182.037 216.939C181.315 216.066 180.375 215.15 179.216 216.124C177.948 217.191 179.451 217.728 179.896 218.442C180.82 219.912 182.113 221.239 181.744 223.271C179.863 223.128 179.988 221.457 179.199 220.6C178.544 219.887 177.914 219.131 177.184 218.493C176.613 217.997 175.866 217.98 175.269 218.501C174.53 219.148 175.051 219.752 175.496 220.264C176.823 221.826 177.772 223.514 178.158 225.647C176.277 225.731 176.151 224.556 175.723 223.766C175.118 222.633 174.312 221.7 173.363 220.861C172.624 220.206 171.843 220.105 171.138 220.802C170.475 221.465 170.987 222.062 171.474 222.574C172.918 224.127 173.833 225.849 173.54 228.167C171.81 227.957 171.826 226.63 171.365 225.723C170.785 224.581 170.038 223.582 168.938 222.901C168.233 222.465 167.569 222.691 167.057 223.229C166.578 223.733 166.965 224.228 167.25 224.698C168.291 226.437 169.685 228.041 169.778 230.585C167.46 230.165 167.326 228.234 166.486 227.008C164.89 224.682 164.739 224.438 162.203 225.891C160.423 226.915 159.088 226.546 157.56 225.681C151.363 222.171 145.157 218.694 138.952 215.201C138.591 214.999 137.969 214.873 137.885 214.588C136.928 211.204 134.207 211.338 131.327 210.977C134.451 209.02 137.549 207.013 140.707 205.115C146.803 201.462 153.202 198.347 159.222 194.534C162.245 192.62 165.865 191.688 168.971 189.79C169.895 189.227 170.827 189.681 171.717 190.193C178.259 193.947 184.808 197.675 191.375 201.37C192.273 201.874 193.239 202.411 193.113 203.486C192.819 206.056 194.406 207.584 195.867 209.28C196.674 210.221 197.253 211.363 197.908 212.43C198.219 212.942 198.277 213.555 197.681 213.857C197.093 214.151 196.581 213.74 196.313 213.244C195.498 211.766 194.558 210.397 193.306 209.247C192.735 208.718 192.148 208.474 191.459 208.961C190.468 209.658 190.938 210.364 191.476 211.061C192.643 212.556 194.012 213.95 194.154 215.965C192.845 216.687 192.458 215.747 192.106 215.1C191.493 213.983 190.787 212.975 189.864 212.094C189.158 211.422 188.537 210.473 187.428 211.371C186.186 212.371 187.378 213.034 187.831 213.798C188.713 215.318 189.998 216.662 189.721 218.669ZM181.567 209.826C183.079 209.616 185.64 211.674 185.925 209.516C186.379 206.073 189.125 209.096 189.88 207.483C190.334 206.518 190.283 205.711 189.486 205.04C187.504 205.552 186.16 207.282 184.103 207.399C185.195 205.065 188.562 205.308 189.637 202.562C183.868 199.271 178.15 196.121 172.565 192.746C170.626 191.578 169.19 191.62 167.25 192.762C158.987 197.633 150.607 202.319 142.285 207.097C141.479 207.559 140.514 207.92 140.203 209.003C140.824 210.431 142.294 210.725 143.461 211.371C144.586 211.993 145.653 212.572 145.98 213.941C144.401 213.076 142.823 212.186 141.227 211.346C140.539 210.985 139.716 210.229 139.103 211.262C138.649 212.026 138.977 212.9 139.707 213.462C140.144 213.798 140.648 214.042 141.135 214.311C146.215 217.183 151.296 220.046 156.384 222.91C156.989 223.254 157.619 223.556 158.248 223.85C158.651 224.035 159.105 224.043 159.306 223.607C159.474 223.254 159.558 222.809 159.5 222.423C159.357 221.499 158.542 221.18 157.87 220.684C156.796 219.887 155.251 219.668 154.713 218.199C155.368 218.4 156.166 218.434 156.653 218.837C159.155 220.936 161.406 220.34 163.79 218.585C165.1 217.619 166.503 216.62 168.266 216.528C167.972 217.947 166.024 217.754 165.713 219.148C164.068 219.106 163.043 220.18 161.901 221.18C165.537 222.515 165.537 222.515 165.629 219.064C167.107 219.29 169.022 220.936 169.87 218.61C170.441 217.04 171.121 217.199 172.263 217.384C172.985 217.502 173.808 217.216 173.875 216.469C174.01 214.924 174.724 214.848 176.067 214.974C178.242 215.176 178.275 213.924 177.419 212.371C178.082 212.421 178.754 212.455 179.417 212.522C181.777 212.723 181.819 212.673 181.567 209.826Z" fill="#151515"/>
<path d="M175.596 73.8364C173.673 72.5012 173.396 70.2758 171.818 69.0918C170.97 68.4536 170.231 67.8741 169.257 68.7559C168.324 69.5956 169.072 70.2674 169.559 70.8972C170.676 72.3248 171.49 73.8448 171.767 75.9358C169.928 75.8098 169.828 74.4998 169.231 73.7188C168.551 72.8371 167.905 71.9301 167.157 71.1072C166.435 70.3094 165.646 70.5949 164.974 71.2247C164.21 71.9301 164.84 72.4676 165.301 72.9379C166.41 74.0631 167.048 75.4487 167.636 76.8763C167.879 77.4557 167.804 77.9428 167.048 78.3039C165.78 77.8504 165.679 76.4144 164.966 75.4655C164.285 74.567 163.605 73.6684 162.572 73.173C162.06 72.9211 161.481 73.0386 161.036 73.4921C160.549 73.9875 160.675 74.4746 161.078 74.9449C162.404 76.5068 163.639 78.1275 163.798 80.2857C162.06 80.7812 161.976 79.4628 161.573 78.7322C160.876 77.4809 160.02 76.406 158.836 75.6251C158.155 75.18 157.433 75.3563 156.963 75.9358C156.568 76.4144 156.871 76.9771 157.24 77.4305C158.55 79.0177 159.852 80.6048 159.701 82.9561C157.694 82.7042 157.82 80.8819 156.93 79.933C156.359 79.32 155.788 78.707 155.225 78.0855C154.52 77.3046 153.797 77.3382 153.075 78.0268C152.353 78.7154 152.865 79.2864 153.31 79.8071C154.687 81.4026 155.804 83.0737 155.326 85.383C153.47 85.1563 153.739 83.4684 153 82.5614C152.471 81.9148 151.967 81.2514 151.438 80.6048C150.85 79.8742 150.077 79.5047 149.255 80.0842C148.331 80.7392 148.776 81.5034 149.28 82.2424C150.355 83.8211 151.463 85.3998 151.597 87.7511C149.691 87.4656 149.641 85.9709 148.952 85.1059C148.339 84.3417 147.835 83.4936 147.172 82.7798C146.517 82.066 145.694 82.0324 144.964 82.7126C144.283 83.3424 144.603 84.031 145.073 84.5517C146.475 86.0884 147.407 87.7931 147.844 90.2788C145.602 89.7918 145.56 88.1374 144.821 87.1297C142.881 84.4845 142.369 84.2242 139.505 85.7189C138.061 86.4747 136.919 86.3907 135.618 85.6182C129.253 81.8393 122.963 77.8924 116.422 74.4326C114.692 73.5173 115.33 70.998 113.281 70.9644C111.803 70.9392 110.334 71.7622 108.344 70.9308C111.98 68.7475 115.322 66.7992 118.597 64.7586C123.383 61.7691 128.421 59.2162 133.208 56.2099C137.49 53.5143 142.201 51.5157 146.685 49.1392C147.911 48.4925 148.793 48.9712 149.784 49.5506C156.291 53.3799 162.791 57.2008 169.324 60.9797C170.399 61.6011 171.154 62.3569 171.012 63.6082C170.793 65.5312 171.834 66.6649 173.102 67.8825C174.656 69.3521 176.226 70.9812 175.596 73.8364ZM141.395 78.7993C141.21 79.6139 139.959 80.4705 141.437 81.2094C142.243 81.6125 143.402 81.6629 143.536 80.714C143.83 78.6818 145.669 79.7735 146.106 79.3032C147.617 77.6657 149.238 76.7084 151.429 76.574C151.597 76.5656 151.9 76.1541 151.883 75.9526C151.74 74.0547 152.874 74.3486 154.041 74.6341C154.637 74.7769 155.418 74.5754 155.477 74.1051C155.737 72.0057 156.904 71.8714 158.584 72.3584C158.861 72.4424 159.6 71.9973 159.6 71.7958C159.6 69.5032 160.775 69.52 162.48 70.1079C162.925 70.259 163.572 69.7552 163.723 69.1757C163.857 68.6383 163.689 68.0673 163.261 67.6558C162.74 67.1603 162.237 67.471 161.758 67.7482C160.54 68.4452 159.323 69.117 157.87 69.1505C160.767 66.4717 164.915 65.5396 167.846 62.3485C161.64 58.704 155.72 55.2946 149.884 51.734C148.113 50.6507 146.794 51.1546 145.258 52.0531C136.726 57.0916 128.161 62.0966 119.596 67.0848C118.571 67.681 117.732 68.294 117.858 69.6208C116.598 70.872 116.539 72.0981 118.135 73.047C124.223 76.6748 130.344 80.2521 136.625 83.9471C136.726 81.4194 136.726 81.4194 135.382 79.6391C137.541 80.4369 139.422 79.2696 141.395 78.7993ZM164.386 66.7572C165.117 67.3955 165.772 67.9245 166.67 67.7482C167.77 67.5298 168.324 66.9168 167.972 65.6991C167.577 64.3555 166.796 64.9854 166.074 65.2793C165.436 65.5312 164.814 65.8167 164.386 66.7572ZM138.934 81.3522C138.834 81.7049 138.641 82.0828 138.632 82.4691C138.615 82.8974 138.842 83.3676 139.363 83.2249C139.783 83.1073 139.951 82.6622 139.724 82.2171C139.547 81.8896 139.631 81.3354 138.934 81.3522Z" fill="#151515"/>
<path d="M241.312 51.2805C241.312 49.9033 241.396 49.1979 241.296 48.5093C240.977 46.2503 241.816 44.8479 243.983 43.9662C245.914 43.1852 247.829 42.2111 249.508 40.9934C251.674 39.4231 253.429 39.8514 255.579 41.1026C274.657 52.2042 293.795 63.205 312.906 74.2394C313.15 74.3822 313.385 74.5249 313.629 74.6593C320.472 78.5557 320.439 78.5557 319.792 86.4578C319.674 87.8686 319.263 88.868 317.97 89.4558C317.718 89.5733 317.5 89.7581 317.256 89.9009C314.468 91.4964 311.781 94.1248 308.876 94.3851C305.928 94.6539 303.224 91.7231 300.453 90.1276C282.181 79.5803 263.985 68.9153 245.637 58.5108C242.278 56.5961 240.322 54.5807 241.312 51.2805ZM311.706 82.469C308.817 85.089 309.212 88.2465 309.892 91.6391C317.953 88.3221 319.196 86.0884 316.786 79.7062C316.257 77.8504 314.544 77.2961 313.133 76.4816C294.76 65.867 276.379 55.2861 257.989 44.7136C252.178 41.3713 252.17 41.3881 246.401 44.7808C246.284 44.8479 246.166 44.9403 246.04 44.9823C244.117 45.6205 244.965 46.771 245.503 47.8627C244.755 48.039 243.731 47.3756 243.286 48.4337C242.068 51.3308 243.345 54.883 246.149 56.5121C265.471 67.7397 284.793 78.9672 304.14 90.1444C305.282 90.7994 306.306 91.9918 308.238 91.5468C308.061 89.0023 308.817 86.3823 307.532 83.8714C308.926 83.4011 310.32 82.9393 311.706 82.469Z" fill="#151515"/>
<path d="M206.061 143.654C205.297 145.753 203.685 146.165 202.434 146.929C199.461 148.751 196.379 150.389 193.432 152.236C191.996 153.135 190.762 153.42 189.217 152.48C185.522 150.237 181.735 148.155 178.048 145.896C175.857 144.552 175.899 143.822 178.225 142.419C181.802 140.253 185.438 138.187 189.074 136.113C190.014 135.575 190.93 134.778 192.156 135.5C196.799 138.237 201.451 140.958 206.061 143.654ZM203.089 144.074C199.234 141.815 195.901 139.858 192.559 137.901C191.66 137.372 190.72 137.272 189.796 137.817C186.378 139.824 182.969 141.848 179.216 144.074C182.91 146.92 186.655 148.701 190.199 150.8C191.014 151.287 191.794 150.976 192.542 150.531C195.85 148.575 199.343 146.887 203.089 144.074Z" fill="#151515"/>
<path d="M202.123 51.4062C201.544 51.171 200.872 50.9695 200.267 50.642C196.472 48.5762 192.668 46.5356 188.914 44.3858C186.916 43.2354 186.916 42.4376 189.015 41.1528C192.819 38.8266 196.732 36.6769 200.561 34.3927C201.644 33.7461 202.576 33.6957 203.668 34.3423C207.631 36.6769 211.654 38.9106 215.592 41.2871C217.288 42.3116 217.364 43.1598 215.819 44.0583C211.729 46.4432 207.556 48.6854 203.399 50.9695C203.047 51.171 202.627 51.2466 202.123 51.4062ZM214.324 42.7735C210.117 40.3214 206.666 38.2976 203.206 36.299C202.576 35.9379 201.821 35.8539 201.199 36.2318C197.698 38.348 193.902 40.0191 190.384 43.0002C194.028 45.0324 197.32 46.7875 200.536 48.6854C201.804 49.4327 202.803 49.29 204.004 48.5846C207.119 46.7539 210.293 45.0324 214.324 42.7735Z" fill="#151515"/>
<path d="M259.593 172.533C260.206 172.793 260.861 173.011 261.457 173.347C265.093 175.396 268.746 177.412 272.323 179.561C274.649 180.964 274.624 181.409 272.172 182.946C268.637 185.163 264.992 187.22 261.449 189.429C260.248 190.176 259.182 190.31 257.964 189.588C254.009 187.254 250.037 184.953 246.082 182.627C244.688 181.804 244.235 180.838 245.914 179.889C249.911 177.63 253.933 175.43 257.956 173.213C258.451 172.953 258.98 172.793 259.593 172.533ZM247.602 181.375C251.448 183.609 254.689 185.49 257.922 187.371C258.644 187.791 259.417 188.303 260.248 187.825C263.808 185.784 267.453 183.861 271.206 181.09C267.394 178.89 264.17 177.025 260.945 175.144C260.021 174.607 259.098 174.573 258.182 175.128C254.882 177.126 251.297 178.646 247.602 181.375Z" fill="#151515"/>
<path d="M86.6792 305.642C88.283 303.786 90.3236 302.695 92.6915 302.191C91.0961 304.038 89.0556 305.138 86.6792 305.642Z" fill="#151515"/>
<path d="M92.5571 302.284C93.464 300.52 95.4458 300.285 96.8565 299.244C96.2603 301.435 94.4801 301.964 92.5571 302.284Z" fill="#151515"/>
<path d="M82.5142 308.59C83.1859 306.499 84.9073 305.895 86.8135 305.55C85.9822 307.415 83.9333 307.557 82.5142 308.59Z" fill="#151515"/>
<path d="M76.6113 311.529C77.493 309.732 79.4747 309.489 80.9106 308.481C80.2893 310.648 78.5091 311.168 76.6113 311.529Z" fill="#151515"/>
<path d="M57.8353 303.938C53.7963 302.846 50.2946 300.797 47.2129 297.984C51.1595 299.26 54.5268 301.553 57.8353 303.938Z" fill="#151515"/>
<path d="M47.3557 298.085C44.9625 297.606 42.9724 296.43 41.335 294.633C43.703 295.154 45.7519 296.229 47.3557 298.085Z" fill="#151515"/>
<path d="M17.1259 280.45C15.1946 280.391 13.7167 279.559 12.793 277.838C14.4304 278.375 16.1182 278.854 17.1259 280.45Z" fill="#151515"/>
<path d="M21.3246 282.969C19.4353 282.843 17.949 282.029 16.9917 280.357C18.7215 280.752 20.3254 281.348 21.3246 282.969Z" fill="#151515"/>
<path d="M25.6909 285.497C23.8687 285.177 22.2397 284.522 21.1816 282.876C23.0458 283.128 24.5741 283.96 25.6909 285.497Z" fill="#151515"/>
<path d="M31.401 288.847C29.5788 288.537 27.9833 287.848 26.9253 286.236C28.7643 286.505 30.3765 287.168 31.401 288.847Z" fill="#151515"/>
<path d="M36.0027 291.35C34.0797 291.115 32.3667 290.485 31.2583 288.755C33.1393 289.066 34.7263 289.931 36.0027 291.35Z" fill="#151515"/>
<path d="M41.4695 294.726C39.4962 294.583 38.1274 293.332 36.7251 292.131C38.7824 292.139 40.2855 293.139 41.4695 294.726Z" fill="#151515"/>
<path d="M67.5001 309.85C65.7535 309.413 64.0909 308.833 63.0244 307.229C64.8382 307.557 66.5176 308.103 67.5001 309.85Z" fill="#151515"/>
<path d="M71.6987 312.369C70.0024 311.916 68.4322 311.252 67.3657 309.749C69.1795 310.009 70.8254 310.547 71.6987 312.369Z" fill="#151515"/>
<path d="M8.72029 157.745C5.85687 160.717 1.89343 161.952 -1.45703 164.152C-1.33947 163.757 -1.33947 163.161 -1.07916 163.01C2.12854 161.154 5.06754 158.769 8.72029 157.745Z" fill="#151515"/>
<path d="M47.2129 316.467C51.1344 317.768 54.5268 320.019 57.8353 322.421C53.7123 321.472 50.345 319.188 47.2129 316.467Z" fill="#151515"/>
<path d="M31.2583 307.229C35.0286 308.59 38.5638 310.362 41.4692 313.209C37.6737 311.882 34.2729 309.892 31.2583 307.229Z" fill="#151515"/>
<path d="M41.335 313.108C43.703 313.62 45.7519 314.703 47.3557 316.559C44.9541 316.089 42.964 314.905 41.335 313.108Z" fill="#151515"/>
<path d="M16.9917 298.824C18.7131 299.227 20.3338 299.806 21.3246 301.435C19.4269 301.309 17.949 300.503 16.9917 298.824Z" fill="#151515"/>
<path d="M21.1816 301.352C23.071 301.654 24.6328 302.561 25.926 303.955C23.9695 303.77 22.3152 303.039 21.1816 301.352Z" fill="#151515"/>
<path d="M26.917 304.71C28.7644 304.979 30.3682 305.651 31.4011 307.322C29.5789 307.011 27.975 306.323 26.917 304.71Z" fill="#151515"/>
<path d="M-1.45703 182.627C-1.33947 182.232 -1.33108 181.636 -1.07077 181.485C2.14534 179.629 5.06756 177.235 8.72871 176.219C5.84849 179.192 1.90183 180.443 -1.45703 182.627Z" fill="#151515"/>
<path d="M45.5332 185.474C46.4149 185.331 47.1455 185.684 47.876 186.112C52.6624 188.9 57.4655 191.663 62.2603 194.442C62.7389 194.719 63.2008 195.03 63.31 195.643C58.3388 193.896 54.1403 190.705 49.5638 188.228C48.1447 187.455 46.5409 186.876 45.5332 185.474Z" fill="#151515"/>
<path d="M63.1675 195.542C65.5019 196.121 67.6096 197.087 69.1798 199.002C66.837 198.439 64.7545 197.431 63.1675 195.542Z" fill="#151515"/>
<path d="M79.1221 204.779C81.5404 205.216 83.5558 206.341 85.1344 208.231C82.7748 207.702 80.7679 206.568 79.1221 204.779Z" fill="#151515"/>
<path d="M74.7974 202.26C76.6195 202.554 78.2738 203.15 79.2562 204.872C77.5096 204.444 75.8722 203.839 74.7974 202.26Z" fill="#151515"/>
<path d="M69.0454 198.901C70.9432 199.186 72.505 200.093 73.7898 201.496C71.8249 201.336 70.179 200.589 69.0454 198.901Z" fill="#151515"/>
<path d="M41.335 182.946C43.1235 183.248 44.761 183.802 45.6679 185.566C43.98 185.087 42.3174 184.583 41.335 182.946Z" fill="#151515"/>
<path d="M36.9937 180.426C38.8242 180.72 40.4869 181.3 41.4778 183.038C39.5296 182.937 38.1441 181.879 36.9937 180.426Z" fill="#151515"/>
<path d="M31.2583 177.059C33.1141 177.42 34.6759 178.327 36.0027 179.654C34.0629 179.452 32.3247 178.881 31.2583 177.059Z" fill="#151515"/>
<path d="M27.0684 174.54C28.7478 175.018 30.4104 175.522 31.4013 177.16C29.4531 177.118 28.0172 176.236 27.0684 174.54Z" fill="#151515"/>
<path d="M106.245 150.833C107.429 148.801 109.587 148.003 111.476 146.979C114.717 145.224 117.572 142.747 121.225 141.772C121.116 142.092 121.007 142.411 120.889 142.721C120.713 142.831 120.537 142.94 120.36 143.049C119.159 143.687 117.833 144.124 116.926 145.224L117.018 145.148C115.397 145.694 113.97 146.576 112.727 147.743L112.82 147.668C111.165 148.171 109.721 149.028 108.512 150.271L108.621 150.17C107.823 150.397 107.034 150.615 106.245 150.833Z" fill="#151515"/>
<path d="M131.318 135.919C130.924 137.238 129.379 137.439 128.757 138.539C125.86 138.859 124.097 141.789 121.107 141.898C124.122 139.236 127.481 137.162 131.318 135.919Z" fill="#151515"/>
<path d="M97.7299 149.448C95.8825 149.246 94.4214 148.398 93.397 146.828C95.1352 147.222 96.8314 147.684 97.7299 149.448Z" fill="#151515"/>
<path d="M93.5397 146.929C91.7092 146.635 90.1221 145.921 89.0557 144.317C90.8946 144.594 92.5069 145.257 93.5397 146.929Z" fill="#151515"/>
<path d="M88.0735 143.553C86.1001 143.402 84.4543 142.646 83.3291 140.95C85.3024 141.101 86.7467 142.218 88.0735 143.553Z" fill="#151515"/>
<path d="M83.4633 141.05C81.5907 140.882 80.2388 139.866 79.1304 138.438C81.0113 138.581 82.3969 139.547 83.4633 141.05Z" fill="#151515"/>
<path d="M249.718 111.659C245.872 110.424 242.581 108.241 239.507 105.68C243.336 106.956 246.754 108.921 249.718 111.659Z" fill="#151515"/>
<path d="M259.803 117.537C255.957 116.294 252.582 114.262 249.592 111.566C253.396 112.86 256.763 114.917 259.803 117.537Z" fill="#151515"/>
<path d="M289.991 115.01C288.185 115.178 286.884 116.185 285.784 117.529C284.633 117.814 283.483 118.091 282.333 118.377C285.297 115.639 288.765 113.75 292.544 112.398C292.275 113.834 290.276 113.59 289.991 115.01Z" fill="#151515"/>
<path d="M298.422 109.047C298.094 109.593 297.767 110.131 297.439 110.676C295.499 110.559 294.374 112.675 292.409 112.499C294.005 110.635 296.02 109.501 298.422 109.047Z" fill="#151515"/>
<path d="M282.458 118.276C282.173 118.872 281.887 119.468 281.602 120.065C280.233 119.863 279.301 120.862 278.167 121.333C278.764 119.132 280.653 118.763 282.458 118.276Z" fill="#151515"/>
<path d="M264.405 120.04C262.398 119.947 260.811 119.099 259.66 117.445C261.6 117.655 263.044 118.78 264.405 120.04Z" fill="#151515"/>
<path d="M154.839 218.308C151.749 217.628 149.188 215.931 146.736 214.042C149.918 214.546 152.471 216.251 154.839 218.308Z" fill="#151515"/>
<path d="M181.667 209.91C180.374 209.617 179.509 211.053 178.216 210.75C179.854 208.962 181.802 207.71 184.229 207.299C183.876 208.659 182.113 208.642 181.667 209.91Z" fill="#151515"/>
<path d="M172.439 213.588C171.86 215.814 170.021 216.259 168.131 216.637C169.03 214.856 171.003 214.596 172.439 213.588Z" fill="#151515"/>
<path d="M178.342 210.649C178.048 211.237 177.754 211.825 177.469 212.413C176.058 212.111 175.193 213.269 174.051 213.689C174.656 211.514 176.47 211.044 178.342 210.649Z" fill="#151515"/>
<path d="M135.517 79.7565C131.05 78.1526 127.12 75.5745 123.215 72.9629C127.884 74.2057 131.822 76.767 135.517 79.7565Z" fill="#151515"/>
<path d="M145.568 75.8687C144.905 77.968 143.192 78.5895 141.269 78.9086C142.117 77.0695 144.116 76.8512 145.568 75.8687Z" fill="#151515"/>
<path d="M151.446 72.5093C150.968 74.827 148.583 74.8018 147.181 75.9691C147.617 73.6094 150.053 73.7017 151.446 72.5093Z" fill="#151515"/>
<path d="M157.324 69.1504C156.795 71.4093 154.537 71.5353 153.05 72.6186C153.487 70.2505 155.889 70.3009 157.324 69.1504Z" fill="#151515"/>
<path d="M122.057 72.6269C120.663 71.5604 118.723 71.2497 117.757 69.5786C119.63 69.9565 121.502 70.3596 122.057 72.6269Z" fill="#151515"/>
<path d="M277.294 66.2197C281.073 67.5633 284.574 69.4024 287.505 72.1904C283.81 70.704 280.191 69.0833 277.294 66.2197Z" fill="#151515"/>
<path d="M245.385 47.7451C248.459 48.4673 250.869 50.4491 253.497 52.0111C250.172 51.7675 247.686 49.9369 245.385 47.7451Z" fill="#151515"/>
<path d="M271.416 62.8608C273.843 63.2807 275.825 64.4648 277.428 66.3122C275.044 65.8336 273.087 64.5991 271.416 62.8608Z" fill="#151515"/>
<path d="M287.379 72.0894C289.714 72.6688 291.805 73.6597 293.392 75.5492C291.024 75.0201 288.941 74.004 287.379 72.0894Z" fill="#151515"/>
<path d="M293.249 75.457C295.138 75.7677 296.7 76.6663 297.993 78.0602C296.02 77.9007 294.374 77.1617 293.249 75.457Z" fill="#151515"/>
<path d="M267.092 60.3413C268.931 60.61 270.493 61.3574 271.551 62.9529C269.737 62.6422 268.15 61.9536 267.092 60.3413Z" fill="#151515"/>
<path d="M261.34 56.9824C263.254 57.2427 264.799 58.1749 266.084 59.5773C264.128 59.4093 262.482 58.6452 261.34 56.9824Z" fill="#151515"/>
<path d="M256.999 54.4629C258.779 54.8492 260.475 55.3698 261.483 57.0745C259.602 56.8562 258.073 56.0416 256.999 54.4629Z" fill="#151515"/>
<path d="M249.97 45.9143C251.246 44.2516 252.38 43.9157 254.454 45.1921C262.171 49.9367 270.072 54.379 277.907 58.9305C285.674 63.44 293.425 67.9915 301.217 72.4422C304.627 74.3904 307.734 76.8341 311.437 78.3205C309.27 81.5703 308.237 80.5542 305.869 79.1854C292.72 71.552 279.595 63.8935 266.453 56.2433C261.633 53.4385 256.805 50.6421 251.985 47.8289C251.171 47.3587 250.154 47.0648 249.97 45.9143Z" fill="#151515"/>
</g>
</g>
<defs>
<clipPath id="clip0">
<rect width="297" height="359" fill="white"/>
</clipPath>
<clipPath id="clip1">
<rect width="555" height="450" fill="white" transform="translate(-153 -78)"/>
</clipPath>
</defs>
</svg>
