<svg width="279" height="351" viewBox="0 0 279 351" fill="none" xmlns="http://www.w3.org/2000/svg">
<g clip-path="url(#clip0)">
<path d="M360.795 127.05C355.937 127.173 351.169 127.968 346.493 129.228C343.473 130.039 343.228 130.324 344.046 133.195C346.998 143.589 347.914 154.19 347.678 164.938C347.625 167.423 348.036 167.734 350.562 167.042C353.396 166.276 356.201 165.433 359.108 165.003C359.814 164.897 360.55 164.681 361.15 165.446C360.831 166.998 359.399 166.761 358.432 167.043C355.757 167.812 353.058 168.515 350.337 169.051C348.171 169.482 347.158 170.525 346.828 172.796C345.118 184.436 342.113 195.749 337.862 206.726C337.656 207.259 337.502 207.831 338.069 208.762C341.048 208.772 343.343 206.109 346.405 205.868C349.346 205.628 352.138 205.738 354.861 207.107C354.111 208.81 352.98 208.215 352.098 208.012C348.49 207.161 345.306 208.267 341.872 209.338C336.857 210.905 334.384 214.206 332.482 218.73C330.779 222.765 328.458 226.544 326.259 230.349C325.525 231.627 325.322 232.612 325.986 233.992C328.274 238.756 328.505 243.551 325.351 248.749C330.527 248.63 335.321 248.755 339.498 251.448C339.099 252.989 338.127 252.368 337.378 252.186C335.954 251.849 334.574 251.293 333.137 251.017C327.686 249.975 322.767 250.339 318.869 255.216C316.049 258.746 312.612 261.785 309.454 265.059C306.979 267.627 307.081 268.443 310.132 270.346C311.902 271.449 313.889 271.965 315.862 272.542C320.263 273.835 323.688 276.457 326.091 280.373C326.396 280.87 326.722 281.384 326.297 282.081C324.934 282.724 324.586 281.404 324.107 280.693C321.781 277.228 318.542 275.171 314.565 274.128C312.145 273.489 309.771 272.652 307.849 270.968C306.022 269.357 304.6 269.78 302.932 271.352C300.057 274.064 296.979 276.56 294.01 279.171C290.241 282.473 286.114 283.72 281.521 281.061C278.846 279.513 276.891 280.134 275.007 282.32C273.674 283.874 272.152 285.255 270.719 286.725C269.514 287.96 269.735 288.914 271.097 289.951C273.334 291.647 275.762 292.973 278.201 294.322C279.146 294.839 280.478 294.993 280.752 296.82C277.242 296.596 274.737 294.584 272.146 292.935C267.454 289.959 267.493 289.879 263.83 293.99C260.517 297.712 257.298 301.508 254.781 305.843C252.665 309.501 252.671 309.559 256.247 312.05C259.016 313.98 261.962 315.609 265.001 317.086C265.997 317.565 267.317 317.676 267.705 319.067C266.493 320.065 265.46 319.15 264.479 318.732C260.967 317.241 257.711 315.281 254.571 313.111C251.959 311.314 251.726 311.359 250.757 314.473C248.826 320.657 247.946 327.04 247.519 333.496C246.785 344.652 247.494 355.739 248.96 366.805C251.293 384.382 253.539 401.964 255.863 419.537C256.807 426.649 257.919 433.738 259.389 440.771C259.731 442.417 260.414 444.076 259.985 446.132C258.008 445.413 258.173 443.794 257.879 442.504C255.527 432.209 254.19 421.735 252.796 411.287C250.493 394.012 248.232 376.725 246.276 359.399C244.706 345.509 244.79 331.609 247.971 317.884C248.2 316.88 248.268 315.78 248.755 314.917C250.876 311.121 249.287 308.687 246.548 305.783C237.731 296.437 232.919 285.029 231.179 272.39C230.782 269.495 229.87 267.948 227.002 267.201C223.906 266.389 220.839 265.343 217.97 263.836C217.34 263.51 216.544 263.404 216.585 261.993C221.063 263.409 225.093 266.17 230.057 266.038C230.432 261.101 230.788 256.316 231.177 251.544C231.272 250.369 230.745 249.584 229.877 248.936C219.515 241.262 209.64 232.979 199.657 224.836C199.483 224.697 199.11 224.793 198.695 224.772C197.374 226.959 199.124 229.668 197.639 231.841C197.486 231.897 197.326 231.951 197.174 232.007C196.162 229.636 196.646 227.15 196.661 224.717C196.667 223.021 196.364 221.577 195.041 220.433C190.422 216.47 185.821 212.486 181.199 208.531C180.765 208.156 180.185 207.998 179.565 208.332C178.624 209.562 180.122 210.817 179.584 212.073C179.421 212.135 179.257 212.197 179.088 212.247C177.566 211.339 177.582 209.666 177.588 208.326C177.585 205.098 175.811 203.6 173.066 202.673C170.757 201.888 168.484 201.004 166.271 200.188C166.818 197.66 168.38 199.99 169.142 199.117C169.008 197.876 168.07 197.342 167.324 196.693C160.405 190.597 153.466 184.503 146.536 178.413C146.097 178.026 145.649 177.636 145.169 177.309C144.313 176.731 143.389 176.081 142.378 176.89C141.435 177.641 142.361 178.489 142.389 179.305C142.409 179.735 142.314 180.169 142.267 180.602L142.185 180.647C140.342 177.707 138.092 178.06 135.175 179.227C114.437 187.543 97.4636 200.51 85.3725 219.423C81.431 225.589 78.1863 232.179 73.4962 237.881C60.6067 253.563 44.5922 264.717 25.4688 271.452C23.4638 272.157 21.2193 272.419 19.3016 274.16C21.6651 276.861 24.4011 278.779 27.1063 280.704C37.2703 287.949 48.1386 294.045 59.1221 299.931C61.6995 301.312 64.3291 302.628 66.8065 304.179C69.1909 305.677 71.0823 307.8 72.4059 310.267C74.2108 313.643 74.4525 313.394 77.6978 311.232C82.4765 308.039 86.7487 304.21 90.6314 300.012C99.1782 290.769 105.54 280.252 110.049 268.395C119.15 244.459 135.264 226.747 158.731 216.041C161.393 214.826 164.226 214.013 166.999 213.055C167.643 212.833 168.412 212.478 169.067 213.526C168.325 214.904 166.748 215.008 165.48 215.47C139.097 225.232 121.359 243.659 111.48 269.757C104.628 287.843 93.4914 302.511 77.5738 313.503C75.584 314.881 74.6975 316.243 74.9187 318.876C75.9384 330.875 75.7435 342.886 73.9997 354.823C73.049 361.349 71.8819 367.852 69.9132 374.162C69.4275 375.71 69.1575 377.486 67.2659 378.393C69.777 368.371 72.1119 358.368 72.9597 348.099C73.7935 337.918 74.0144 327.746 72.8355 317.273C65.9555 319.804 60.2208 323.911 53.3442 325.082C53.1734 325.113 52.9426 324.747 52.6983 324.544C53.0018 323.033 54.439 323.206 55.4228 322.828C60.3635 320.952 65.2865 319.023 69.8173 316.274C72.4405 314.679 72.5705 313.996 70.9626 311.358C68.6765 307.608 65.3641 305.064 61.476 303.116C49.5461 297.125 38.0223 290.44 26.9984 282.907C23.9637 280.831 20.982 278.663 18.4551 276.025C16.9636 274.472 15.5451 274.324 13.7506 274.892C9.39628 276.271 4.84468 276.657 0.384357 277.509C-0.442063 277.664 -1.32979 277.909 -2.34743 276.878C0.323185 274.925 3.43927 275.379 6.20981 274.684C9.02252 273.975 11.993 273.831 14.5736 272.531C14.6267 272.081 14.7732 271.76 14.6771 271.537C11.4023 263.698 13.2985 256.592 17.8378 249.924C19.2303 247.876 20.9341 246.028 22.5283 244.12C23.706 242.706 24.383 241.276 23.9296 239.298C23.1751 236 22.9647 235.781 19.5169 236.406C14.621 237.294 9.71678 238.179 4.73176 238.444C4.02316 238.483 3.2602 238.746 2.56947 237.769C3.26857 236.432 4.70445 236.736 5.8491 236.557C10.1899 235.877 14.5711 235.418 18.8853 234.606C22.7148 233.888 22.6862 233.737 22.059 230.016C20.9443 223.367 24.3227 219.264 31.0705 219.002C34.2967 218.878 37.3945 219.559 40.6692 220.55C40.9523 218.891 40.0659 218.114 39.2056 217.394C36.7274 215.336 34.2287 213.308 31.7187 211.286C26.4948 207.081 25.4256 201.734 28.8411 195.826C29.9306 193.938 31.447 192.292 32.7361 190.525C34.5138 188.094 35.8094 185.494 34.9888 182.349C34.4863 180.429 33.3744 178.94 31.6642 177.878C29.1755 176.333 26.7367 174.703 24.2419 173.173C16.7636 168.57 15.5254 160.881 21.2146 154.224C21.7754 153.568 22.597 153.12 22.8271 151.732C17.4175 148.923 10.8158 148.254 5.7888 144.075C7.12998 142.956 7.95504 144.001 8.82535 144.312C13.0965 145.858 17.3484 147.481 21.6013 149.076C24.3952 150.124 26.8701 149.976 29.3838 147.966C31.2975 146.439 33.6055 145.216 35.9253 144.42C39.4727 143.194 42.4333 141.142 45.3547 138.916C50.1308 135.273 54.9764 131.72 59.7712 128.102C61.0289 127.159 62.4253 126.322 63.3809 124.62C57.9387 122.052 51.8678 121.241 46.7408 117.053C49.0532 116.583 50.2364 117.572 51.5558 118.039C54.7314 119.172 57.9631 120.203 61.0309 121.578C64.7495 123.248 67.5605 122.239 70.655 119.824C75.3197 116.176 77.6892 111.477 79.2606 105.94C80.6593 101.023 80.3918 96.5815 77.7806 92.1858C75.9975 89.1835 76.2458 86.1418 77.638 82.9492C79.5223 78.6246 81.6309 74.4296 84.4551 70.6859C86.3641 68.1529 86.9241 65.9201 85.1349 63.1126C84.2721 61.7627 83.3388 60.1712 84.0458 57.8706C86.3649 59.8509 86.1809 62.7944 88.0667 64.4743C89.6386 64.4344 90.1882 63.0702 91.0059 62.1239C101.039 50.5015 112.451 40.4847 125.603 32.5164C126.23 32.1378 126.823 31.6996 127.474 31.3579C129.36 30.3642 129.882 29.0744 128.877 27.0433C127.244 23.7589 125.874 20.3741 125.068 16.7563C124.613 14.6839 122.28 13.9369 121.358 12.0589C120.882 11.0859 119.789 12.0905 118.973 12.1931C116.158 12.5255 115.71 12.1634 115.253 9.15243C116.36 8.64125 116.333 9.78501 116.754 10.2215C117.528 11.0227 118.801 11.0041 118.959 10.2459C119.32 8.50271 119.268 6.78554 120.12 5.00756C120.65 3.89903 118.244 4.70098 117.372 3.91061C118.329 2.33087 119.629 2.36875 120.812 3.07698C121.848 3.7026 122.362 4.82986 122.101 6.12229C122.018 6.55136 121.816 6.94608 121.639 7.34993C121.33 8.06156 121.114 8.92927 121.894 9.2823C122.72 9.66186 123.174 8.93806 123.377 8.15904C123.488 7.73084 123.519 7.26395 123.731 6.89183C124.56 5.43337 125.866 4.78917 127.422 5.45611C128.952 6.11393 129.737 7.39728 128.82 9.02006C127.8 10.8206 128.626 13.1608 126.98 14.7775C126.701 15.05 126.875 15.9021 127.003 16.4464C127.854 19.8651 128.927 23.2156 130.552 26.3661C131.374 27.9542 132.296 28.4064 134.039 27.5196C137.82 25.5827 141.717 23.8666 145.557 22.0261C148.336 20.6956 151.108 19.2589 154.17 18.7644C156.563 18.3797 156.827 16.976 156.785 15.028C156.729 12.0993 156.748 9.17009 156.879 6.2444C156.93 5.13759 156.82 3.85862 157.894 3.00661C159.264 3.53965 158.823 4.70947 158.739 5.62587C158.47 8.69763 158.491 11.7729 158.575 14.8529C158.632 16.8626 159.437 17.8347 161.532 17.6496C164.631 17.3846 167.645 18.0164 170.685 18.4987C176.751 19.4488 182.245 21.8766 187.362 25.0473C191.053 27.3268 195.01 27.7904 199.111 28.0914C200.956 28.2271 201.521 27.4316 201.076 25.7383C200.165 22.2787 198.728 19.1508 196.03 16.6462C192.598 13.4587 190.253 9.63948 189.956 4.82053C189.916 4.13975 189.66 3.33245 190.655 2.7704C192.122 3.3956 191.765 4.95234 192.008 6.07394C192.736 9.4944 194.222 12.4902 196.81 14.7852C200.14 17.7385 202.177 21.4255 202.921 25.6958C203.364 28.2607 204.573 29.0533 206.945 29.2612C209.697 29.5061 212.422 30.1066 215.597 30.6293C214.894 25.586 213.654 20.7013 216.15 15.9643C217.642 16.8799 217.03 18.0332 216.891 19.0982C216.437 22.4678 216.266 25.8099 217.724 29.0304C218.365 30.4485 219.175 31.535 220.823 31.8233C227.481 33.0008 233.87 35.2143 240.421 36.784C243.877 37.6162 244.279 37.2111 243.739 33.6628C243.179 30.0137 242.137 26.628 239.76 23.5848C235.362 17.9775 235.082 11.4575 236.451 4.73844C236.569 4.16287 236.841 3.65339 237.83 3.38912C238.523 4.89244 237.813 6.41308 237.717 7.8694C237.351 13.5978 238.216 18.8884 241.949 23.5754C244.674 26.9998 245.571 31.1859 245.733 35.5327C245.833 38.1871 248.327 40.3817 250.857 40.1602C251.748 40.085 252.092 39.4803 252.118 38.6734C252.183 36.765 252.119 34.9026 251.573 33.0224C250.136 28.0369 250.433 23.1837 253.067 18.5818C253.641 17.5832 254.599 16.5104 254.029 15.334C252.665 12.5426 254.933 10.639 255.551 8.35237C256.01 6.67349 257.42 6.20796 259.08 6.89491C260.703 7.55838 261.373 8.74348 260.694 10.4071C259.717 12.805 260.059 16.1298 256.438 16.7657C252.962 21.2075 251.849 26.2664 253.122 31.6701C253.668 33.982 254.212 36.2743 254.006 38.5905C253.81 40.7511 254.565 41.911 256.532 42.5045C257.232 42.7158 257.902 43.0375 258.566 43.3479C260.512 44.2527 261.842 43.8515 262.809 41.7875C263.883 39.5096 264.587 37.1421 265.172 34.7124C266.252 30.2039 268.125 26.138 271.593 22.913C272.738 21.8432 273.911 20.9247 275.635 20.5748C275.765 22.5645 274.399 22.8866 273.604 23.6165C270.182 26.7928 267.705 30.4861 266.909 35.1929C266.447 37.9495 265.634 40.6143 264.33 43.1078C263.578 44.538 263.889 45.6283 265.408 46.3192C265.809 46.5044 266.186 46.7279 266.584 46.9213C271.116 49.2104 272.262 49.0513 274.481 44.4559C277.567 38.0413 282.707 34.3255 289.18 32.0857C290.836 31.5137 290.846 31.5363 293.572 32.3624C290.725 33.5182 288.179 34.5218 285.659 35.582C279.645 38.1314 277.04 43.6727 274.086 48.8884C273.514 49.9065 274.257 50.5369 275.059 50.9825C276.849 51.9799 278.701 52.8872 280.471 53.9146C282.008 54.8093 283.308 54.1064 284.607 53.4313C289.587 50.8384 294.874 49.1185 300.319 47.8602C301.25 47.6499 302.249 46.9765 303.58 48.5081C297.389 51.1801 290.409 51.4601 285.013 55.6915C286.417 58.0943 288.836 58.7326 290.662 60.0903C294.427 62.8845 298.348 65.4552 302.074 68.3011C303.897 69.6949 305.445 70.0497 307.668 69.1334C312.005 67.3448 316.488 65.9478 320.907 64.3678C322.636 63.7479 323.431 64.2657 323.219 66.1389L323.306 66.1055C317.573 66.7977 312.497 69.421 307.287 71.2631C306.948 72.8455 307.957 73.3673 308.639 74.0598C313.266 78.7664 317.637 83.6794 321.577 88.9772C323.611 91.706 323.614 91.67 327.041 90.4655C329.809 89.4966 332.595 88.5812 335.38 87.6937C336.325 87.3946 337.33 87.1364 338.352 87.8507C337.631 89.4518 336.159 89.3222 335.013 89.6316C332.589 90.2771 330.242 91.0725 327.963 92.0901C325.178 93.3342 324.937 93.7332 326.758 96.2243C330.684 101.583 333.655 107.471 336.528 113.399C338.44 117.349 340.044 121.449 341.64 125.545C342.431 127.572 343.463 128.234 345.639 127.497C349.678 126.134 353.919 125.623 358.157 125.299C359.335 125.208 360.99 124.739 360.887 126.952L360.795 127.05ZM249.627 49.4819C248.688 50.0931 247.086 50.6751 247.649 51.8958C248.502 53.73 250.36 53.4484 252.194 53.0546C251.571 51.4365 248.857 51.6468 249.598 49.4058C251.25 50.0145 252.894 50.6202 254.711 51.2897C252.871 47.3471 252.822 47.3289 249.627 49.4819ZM259.299 257.507C258.98 258.628 258.711 259.739 259.604 260.753C260.212 261.445 260.995 262.044 261.826 261.496C262.855 260.815 262.154 259.994 261.558 259.371C260.865 258.656 260.224 257.848 259.212 257.54C258.932 253.131 258.857 248.779 261.757 245.007C262.117 244.539 262.196 243.893 261.604 243.487C260.961 243.044 260.394 243.538 260.129 243.976C258.297 246.987 256.903 250.16 256.854 253.782C256.824 255.619 257.65 256.815 259.299 257.507ZM252.772 216.639C252.789 220.004 252.77 223.365 251.343 226.526C251.161 226.918 251.011 227.351 250.947 227.778C250.785 228.778 251.36 229.534 252.122 229.937C253.234 230.534 253.552 229.441 254.052 228.772C255.597 226.667 255.845 224.16 256.103 221.704C256.443 218.489 256.109 218.122 252.69 216.684C253.023 215.221 255.933 215.037 254.372 212.501C251.947 208.568 246.339 202.833 239.158 204.475C239.39 205.807 240.218 206.385 241.523 206.509C247.765 207.111 251.023 211.051 252.772 216.639ZM181.137 131.124C180.819 132.114 180.574 133.112 181.821 133.646C182.22 133.812 182.849 133.659 182.873 133.236C182.937 132.275 182.095 131.833 181.423 131.342C181.311 131.263 181.165 131.228 181.036 131.171C179.328 127.633 177.897 124.133 178.203 119.967C178.519 115.75 181.217 112.729 183.109 109.045C179.443 109.524 178.949 109.745 177.457 112.141C174.263 117.268 174.53 122.629 176.526 128.083C177.327 130.236 178.835 131.261 181.137 131.124ZM170.369 42.8294C172.174 41.9278 173.014 40.7928 171.789 38.7465C170.675 36.8819 169.79 34.8769 168.821 32.925C167.744 30.7552 165.96 31.2702 164.312 31.8731C162.1 32.6812 163.298 34.1919 163.807 35.4583C164.29 36.6682 165.051 37.7837 165.45 39.0188C166.246 41.5167 167.884 42.7488 170.469 42.8102C169.6 44.1783 169.114 45.2659 170.293 47.0323C173.235 51.4466 177.142 55.0251 180.256 59.2777C182.114 61.8201 183.731 64.5359 185.655 67.0552C182.784 60.4346 179.398 54.1209 176.384 47.6351C175.09 44.8598 173.333 43.2369 170.369 42.8294ZM279.93 229.498C273.659 230.274 268.272 233.843 262.08 234.938C264.298 235.971 266.247 235.545 268.271 234.508C273.529 231.821 278.854 231.4 284.165 234.501C284.512 234.705 284.977 234.716 285.314 234.794C286.397 234.095 285.464 232.682 286.492 232.057C288.836 231.804 290.697 234.188 293.694 233.566C291.661 231.522 290.042 229.856 288.385 228.242C285.596 225.526 285.361 225.552 282.029 227.467C281.102 227.997 280.396 228.666 279.853 229.554L279.93 229.498ZM159.058 139.921C160.595 139.24 161.823 138.454 159.813 136.907C158.249 135.702 156.461 135.184 154.483 135.205C149.936 135.247 146.726 137.544 144.394 141.225C143.585 142.503 141.787 143.97 143.117 145.455C144.414 146.899 146.059 145.338 147.484 144.728C149.432 143.898 151.028 142.112 153.436 142.502C153.713 142.82 153.992 143.411 154.257 143.405C157.273 143.316 160.204 142.82 163.584 141.26C161.66 140.524 160.035 141.191 159.058 139.921ZM275.864 250.562C276.352 251.454 275.616 252.28 275.705 253.083C275.851 254.365 276.807 254.877 277.917 254.104C279.384 253.078 280.241 251.49 281.143 249.983C282.075 248.422 282.896 246.83 282.324 244.743C280.464 245.868 279.757 247.559 278.641 248.883C277.854 249.822 277.115 250.656 275.787 250.618C276.803 247.812 279.08 245.883 280.708 243.5C282.118 241.43 281.788 239.986 279.607 238.929C278.715 238.497 277.654 238.144 276.687 238.172C272.734 238.282 269.456 240.151 266.432 242.527C265.77 243.052 265.571 243.795 266.117 244.428C268.208 246.849 270.442 249.136 273.023 251.044C274.059 251.82 274.873 250.553 275.864 250.562ZM116.009 131.723C112.984 130.308 111.169 127.622 109.109 125.193C105.362 120.773 106.158 120.982 100.284 122.87C98.272 123.517 98.2163 124.585 99.4304 126.102C102.275 129.636 105.079 133.202 107.915 136.733C108.462 137.413 108.929 138.308 109.862 138.426C115.669 139.187 121.399 140.389 127.088 141.753C127.226 141.785 127.435 141.806 127.518 141.733C129.167 140.211 130.523 141.649 131.926 142.194C135.456 143.561 135.431 143.579 137.089 140.25C140.241 133.935 145.046 129.833 152.292 129.135C155.549 128.825 158.666 129.251 161.679 130.746C165.285 132.544 167.438 136.02 170.687 138.202C170.798 138.281 170.617 138.749 170.613 139.038C170.559 141.654 171.975 140.741 173.777 140.279C171.409 137.896 170.912 134.842 168.917 132.719C165.386 128.96 162.951 124.47 160.355 120.108C159.049 117.9 157.354 116.619 154.93 116.12C153.499 115.827 152.073 115.471 150.633 115.203C145.209 114.189 145.206 114.198 143.022 119.031C142.905 119.297 142.739 119.545 142.613 119.809C139.54 126.369 134.214 130.054 127.182 130.577C120.064 131.106 114.427 127.997 110.724 121.727C110.431 121.224 110.124 120.708 109.736 120.284C109.424 119.934 108.945 119.936 108.543 120.21C108.142 120.484 108.009 120.923 108.244 121.329C108.529 121.828 108.99 122.232 109.267 122.728C111.114 126.092 114.767 127.963 116.435 131.458C116.292 131.565 116.151 131.644 116.009 131.723ZM100.941 112.634C102.705 113.143 103.057 114.961 104.101 116.125C105.059 117.191 105.684 118.856 107.501 118.203C109.23 117.583 108.489 115.978 108.402 114.764C107.908 107.931 109.872 102.069 115.185 97.5534C116.498 96.4332 116.856 95.233 116.001 93.7079C114.585 91.1599 113.502 88.3967 111.413 86.2761C110.355 85.2014 109.586 83.445 107.483 84.5935C106.815 84.9569 106.395 84.3895 106.551 83.687C107.032 81.4908 105.384 80.9212 103.94 80.2578C102.743 79.7134 101.467 79.356 100.261 78.8365C98.5103 78.0882 97.2382 78.5107 96.1066 80.0544C91.9416 85.7056 87.9245 91.4394 84.3077 97.4615C83.473 98.8613 83.2977 100.101 83.9923 101.576C87.0555 108.08 91.0213 114.044 95.0239 119.985C95.6786 120.958 96.4784 121.918 97.8817 121.572C100.068 121.037 102.326 120.612 104.123 119.069C102.865 116.729 100.907 115.22 100.444 112.836C100.608 112.774 100.774 112.704 100.941 112.634ZM206.658 133.098L206.628 133.002C204.101 135.073 200.545 135.583 198.207 138.493C204.188 140.03 210.307 140.305 215.776 143.081C212.377 142.832 209.026 142.329 205.748 141.525C198.35 139.708 190.726 139.573 183.251 138.347C180.427 137.889 179.784 138.768 180.517 141.59C181.743 146.31 183.767 150.668 187.035 154.376C189.45 157.114 189.477 157.246 192.7 155.704C195.719 154.256 198.722 154.152 201.516 155.838C203.527 157.048 205.312 156.965 207.328 156.178C208.687 155.647 210.141 155.367 211.516 154.87C216.835 152.936 222.143 150.98 227.435 147.743C224.1 145.491 220.375 145.366 217.402 143.427C220.379 143.013 223.091 144.969 226.232 144.438C225.358 140.777 222.751 138.409 221.318 135.423C220.322 133.339 218.804 132.545 216.254 132.591C218.675 131.138 218.051 129.65 217.07 128.06C215.314 125.189 213.62 122.276 211.9 119.382C211.273 118.335 211.031 116.979 209.294 116.142C209.987 121.773 208.987 126.676 206.137 131.152C205.679 131.912 206.164 132.531 206.658 133.098ZM165.112 44.645C165.141 40.6216 162.481 37.6058 161.095 34.1118C160.508 32.6481 159.082 33.2857 157.995 33.5887C153.887 34.7301 150.002 36.441 146.17 38.2845C145.347 38.6848 144.091 38.7847 144.183 40.2163C145.817 41.2032 147.759 41.8906 148.99 43.2352C151.731 46.2341 154.747 47.3172 158.595 45.9114C158.694 45.8728 158.859 46.0088 158.997 46.0688C158.86 46.694 158.428 47.0509 157.898 47.3434C155.11 48.877 155.047 48.9196 156.443 51.3193C158.216 54.3742 159.579 57.6252 160.872 60.8879C161.677 62.9294 162.537 63.7528 165.015 63.4934C174.295 62.5222 181.286 67.275 184.166 76.0848C186.439 83.0292 183.862 91.8549 178.23 96.4214C171.7 101.717 164.042 102.413 156.976 98.3462C154.243 96.7763 153.403 97.1984 153.365 100.28C153.351 101.589 153.394 102.974 153.788 104.198C155.649 109.968 157.563 115.721 164.484 117.483C165.846 117.835 166.657 117.824 167.244 116.408C168.178 114.153 169.895 112.497 171.993 111.413C175.789 109.462 179.225 107.061 182.507 104.367C183.973 103.163 185.83 102.552 187.728 102.163C191.795 101.335 191.801 101.319 191.767 97.1598C191.648 83.6072 186.672 71.7546 179.031 60.8435C175.67 56.0401 171.145 52.1778 168.141 47.0931C167.444 45.8793 166.355 45.1684 165.112 44.645ZM235.529 268.476L235.5 268.4C233.272 268.695 232.501 269.922 232.855 272.144C233.676 277.222 234.96 282.189 236.87 286.935C239.736 294.052 243.68 300.533 249.165 305.988C250.372 307.193 251.445 307.794 252.593 305.825C255.857 300.226 259.98 295.273 264.407 290.591C266.069 288.83 265.667 287.631 264.327 286.124C260.033 281.305 257.229 275.778 256.392 269.316C256.166 267.563 255.485 266.712 253.439 267.477C251.272 268.292 248.981 268.884 246.684 269.238C244.328 269.598 241.84 270.164 239.216 268.578C241.691 267.182 244.128 268.333 246.293 267.649C248.44 266.967 250.977 267.311 252.843 265.278C251.391 263.617 249.526 262.771 247.902 261.628C243.831 258.777 239.806 255.85 235.694 253.058C233.899 251.844 232.976 252.235 232.69 254.362C232.381 256.678 232.424 259.03 232.223 261.358C231.969 264.388 232.384 267.055 235.529 268.476ZM142.306 53.0241L142.347 53.1145C142.432 51.8416 143.444 51.5391 144.382 51.1062C145.965 50.3759 147.503 49.5357 149.106 48.8506C150.972 48.0651 150.805 46.9905 149.504 45.9388C144.592 42.0087 141.01 39.8636 134.769 44.1492C125.337 50.627 116.358 57.5535 108.42 65.7825C105.32 69.0024 102.074 72.1592 99.6546 76.4085C103.158 77.6711 106.008 79.7627 109.533 80.2267L109.79 80.5745C109.989 81.1267 110.041 81.8022 110.402 82.1978C113.354 85.4902 115.96 88.9833 117.635 93.1185C118.439 95.1126 119.877 94.2637 121.314 93.902C130.573 91.535 136.689 93.8541 142.205 101.722C142.855 102.655 143.246 103.784 144.621 104.075C146.884 104.553 149.114 105.196 151.454 105.796C152.304 103.21 151.053 100.723 151.686 98.2921C152.345 95.7672 151.77 93.5575 150.58 91.1864C146.498 83.0686 148.863 73.0861 155.923 67.3946C156.723 66.7512 157.568 66.1622 158.427 65.6154C159.725 64.7899 160.141 63.7892 159.525 62.2772C158.036 58.6045 156.447 54.9984 154.364 51.6135C153.243 49.7933 151.983 49.5728 149.952 50.2974C147.4 51.2146 145.191 53.1116 142.306 53.0241ZM255.939 139.127C254.223 138.41 253.755 136.474 252.294 135.448C251.414 134.833 250.702 134.017 249.616 134.696C248.642 135.303 247.423 135.914 247.302 137.183C247.19 138.352 248.245 138.825 249.196 139.325C250.462 139.989 252.311 140.061 252.636 142.235C250.516 141.829 248.896 140.903 247.257 139.953C245.958 139.202 244.653 138.899 243.213 140.057C241.053 141.794 238.684 143.285 236.433 144.914C232.378 147.847 232.056 149.511 234.704 153.526C238.179 158.784 241.661 164.026 245.128 169.281C247.034 172.179 247.127 172.232 250.233 170.168C257.5 165.341 263.791 159.469 269.011 152.481C269.77 151.466 270.93 150.608 270.583 148.904C267.716 148.945 265.283 150.328 262.831 151.507C258.2 153.741 253.344 154.316 248.313 153.841C245.739 153.596 243.302 152.952 241.438 150.857C249.907 153.893 257.869 152.296 265.638 148.601C266.559 148.162 267.485 147.584 268.46 147.409C273.028 146.596 275.473 143.548 277.083 139.535C277.521 138.449 278.075 137.405 278.496 136.313C283.914 122.399 292.906 111.284 304.844 102.437C305.887 101.667 307.415 101.086 307.519 99.7077C307.653 97.9184 308.28 98.2805 309.686 98.2828C313.136 98.2877 313.935 96.5275 312.007 93.6126C309.013 89.0852 305.602 84.8735 301.872 80.919C300.764 79.7509 299.702 78.534 298.53 77.4363C297.04 76.0333 295.78 77.1357 294.67 78.059C293.34 79.1732 294.314 80.0948 295.127 80.9948C295.606 81.5278 296.022 82.1312 296.469 82.6994L296.556 82.6659C295.851 82.7719 295.166 83.0541 294.472 82.5171C291.041 79.8643 291.038 79.8725 287.671 82.4407C286.744 83.1497 285.784 83.8187 284.876 84.5534C276.715 91.1434 269.492 98.679 265.715 108.573C262.652 116.581 259.143 124.144 253.403 130.556C252.194 131.903 252.237 133.007 253.395 134.371C254.557 135.747 256.47 136.743 256.157 139.02L255.939 139.127ZM137.475 162.982C138.568 163.629 138.268 164.672 138.381 165.69C139.017 171.346 143.397 174.226 148.826 172.934C153.383 171.846 158.007 171.035 162.606 170.188C163.643 169.998 164.929 169.459 165.768 171.231C159.681 173.163 153.076 172.858 147.3 175.599C147.595 177.218 148.617 177.857 149.481 178.617C156.868 185.072 164.368 191.4 171.585 198.037C175.202 201.359 179.25 203.254 184.008 203.938C185.674 204.176 187.425 204.287 189.201 206.086C186.146 206.077 183.709 204.953 180.89 205.678C188.699 212.515 196.116 219.094 203.631 225.559C211.4 232.249 219.369 238.703 227.599 244.832C231.839 247.989 231.816 248.027 232.979 242.884C233.047 242.599 233.048 242.29 233.173 242.026C234.092 239.991 233.328 239.035 231.387 237.963C222.968 233.341 219.682 224.081 222.972 214.974C224.551 210.612 224.551 210.612 220.489 208.627C222.531 207.438 224.915 209.039 226.867 207.638C226.008 205.183 223.789 203.999 222.464 202.122C221.09 200.172 219.648 199.987 217.67 201.36C214.518 203.547 211.056 203.651 207.649 202.001C205.539 200.98 203.791 199.435 202.305 197.537C197.24 191.093 192.632 184.301 186.77 178.492C180.441 172.219 180.393 166.751 186.426 160.306C187.374 159.286 187.835 158.367 186.951 157.253C184.222 153.837 181.842 150.062 177.677 148.076C173.382 146.034 172.148 146.583 171.176 151.131C171.049 151.704 170.956 152.289 170.796 152.849C168.486 161.435 160.107 167.269 151.234 166.654C146.413 166.322 142.735 163.879 139.405 160.569C138.69 161.516 138.1 162.303 137.505 163.078C136.535 161.688 137.443 160.241 137.373 158.826C137.061 152.801 135.294 151.69 130.098 154.335C128.966 154.912 127.6 155.206 126.815 156.371C128.509 158.928 133.66 164.016 136.297 165.719C136.691 164.804 137.081 163.897 137.475 162.982ZM325.623 135.075C330.446 134.282 331.113 133.364 329.683 129.226C326.271 119.366 322.203 109.809 316.796 100.856C316.155 99.7942 315.775 98.0779 314.004 98.7577C312.584 99.3036 310.822 99.8083 310.98 101.977C311.016 102.413 310.994 102.855 310.991 103.295C309.295 101.966 307.829 102.533 306.248 103.667C300.616 107.699 295.861 112.608 291.337 117.808C285.074 125.003 281.69 133.756 277.699 142.192C277.109 143.438 277.478 144.446 278.18 145.446L278.135 145.364C276.01 146.42 274.357 147.902 273.048 149.953C271.487 152.408 269.66 154.718 267.777 156.951C263.037 162.559 257.666 167.485 251.52 171.562C248.406 173.623 248.364 173.992 250.33 177.108C251.182 178.463 252.422 179.605 253.138 181.023C254.357 183.442 256.211 183.656 258.587 183.368C279.026 180.956 295.521 171.883 307.11 154.614C311.398 148.221 316.661 142.824 322.787 138.214C323.95 137.348 325.329 136.712 325.623 135.075ZM327.361 139.065C325.576 138.435 324.23 139.365 322.953 140.386C317.557 144.721 312.721 149.543 308.874 155.377C297.806 172.125 282.036 181.521 262.394 184.771C260.606 185.069 258.672 184.919 256.848 186.077C260.175 191.89 264.335 196.819 268.232 201.923C273.214 208.44 278.556 214.667 283.955 220.84C285.261 222.335 286.51 223.02 288.444 221.641C296.175 216.112 303.045 209.741 307.092 200.997C311.405 191.686 317.738 184.225 326.155 178.49C328.483 176.909 330.248 175.223 329.805 172.124C329.686 171.301 329.532 170.344 330.565 169.833C332.334 170.785 330.324 173.056 332.029 174.031C336.357 172.596 336.503 172.481 336.42 168.351C336.212 158.199 334.384 148.266 332.349 138.36C332.149 137.377 331.838 136.361 330.855 135.643C328.993 136.036 327.84 137.205 327.342 139.067L327.361 139.065ZM224.778 132.27L224.748 132.174C224.289 133.14 221.937 133.005 223.249 135.018C225.237 138.077 227.113 141.207 228.998 144.341C229.946 145.919 231.059 146.207 232.61 145.156C234.661 143.764 236.801 142.488 238.842 141.073C239.913 140.333 240.882 139.433 241.837 138.546C243.26 137.232 239.83 136.737 241.196 135.374C241.541 135.379 241.847 135.313 242.109 135.391C244.617 136.119 247.235 135.254 248.267 133.139C249.252 131.128 247.267 130.406 246.354 129.216C246.095 128.877 245.96 128.452 245.766 128.061C245.914 127.966 246.067 127.881 246.22 127.797C246.753 128.031 247.41 128.132 247.797 128.509C250.736 131.403 251.215 130.257 253.278 127.762C257.213 122.992 260.538 117.838 262.44 111.86C263.827 107.511 265.946 103.517 268.316 99.6058C273.822 90.5181 282.55 84.6532 289.954 77.4658C291.098 76.3487 292.455 77.299 293.532 76.3357C294.592 75.3942 295.808 74.7917 294.254 73.3088C289.467 68.7309 283.944 65.1102 278.609 61.2587C277.519 60.4727 276.304 60.7661 275.517 61.8833C274.684 63.077 275.649 63.7422 276.453 64.3856C279.742 67.0424 283.06 69.6722 286.315 72.3724C287.488 73.3393 288.875 74.2071 289.25 75.8647C288.12 76.4615 287.73 75.7364 287.204 75.2799C284.655 73.0836 282.129 70.8768 279.527 68.7456C272.869 63.2904 271.361 63.6163 267.941 71.5495C265.862 76.3748 262.728 80.3233 258.806 83.7374C251.766 89.8584 243.385 93.2806 234.504 95.4869C231.725 96.1797 230.135 97.3386 229.332 100.054C228.503 102.863 227.45 105.618 226.299 108.308C225.193 110.903 224.417 113.29 227.824 115.399C224.749 113.816 223.668 115.247 222.863 117.558C222.502 118.588 222.468 120.283 220.38 120.02C220.437 119.329 220.392 118.74 220.534 118.201C221.682 113.812 221.688 113.823 218.127 111.47C218.042 111.42 218.226 110.971 218.284 110.711C222.658 111.751 222.781 111.796 223.764 109.156C230.193 91.8345 236.578 74.5058 242.925 57.1536C243.979 54.268 243.836 54.0462 241.005 52.9189C237.6 51.5702 234.146 50.3258 230.698 49.0928C229.156 48.5432 228.047 47.7594 228.511 45.9135C228.849 44.565 228.177 44.2237 227.008 43.8585C222.506 42.4811 222.4 42.4889 220.701 46.7413C220.541 47.1512 220.305 47.4864 219.779 47.3864C219.605 47.1721 219.28 46.9586 219.272 46.7495C219.195 42.3775 219.189 42.4692 214.645 41.9203C212.469 41.6629 210.11 42.0318 208.034 40.8167C208.518 39.8599 209.087 39.9195 209.671 39.9656C212.44 40.1887 215.209 40.3645 217.966 40.6207C219.299 40.7459 219.838 40.2504 219.791 38.901C219.665 35.0928 217.895 32.996 214.192 32.3537C213.178 32.1772 212.183 31.9511 211.169 31.7745C198.571 29.609 185.952 28.0082 173.165 30.0977C169.87 30.6379 169.972 30.591 171.181 33.5224C172.998 37.9349 175.767 41.8259 177.798 46.1393C183.592 58.4714 189.793 70.6158 196.016 82.7497C199.631 89.7946 202.11 97.3498 206.007 104.264C207.117 106.24 208.354 107.39 210.544 107.888C212.588 108.35 214.798 108.742 216.532 110.807C214.743 110.954 213.589 110.267 212.367 109.891C211.542 109.634 210.641 109.049 209.968 109.936C209.349 110.749 209.968 111.615 210.354 112.377C212.826 117.2 215.553 121.891 218.238 126.595C219.851 129.423 221.609 131.552 224.778 132.27ZM24.086 224.693C23.249 226.608 23.515 227.898 23.7945 229.201C24.6577 233.3 24.6485 233.325 28.5733 232.322C36.7119 230.246 44.4332 227.087 51.8524 223.17C67.7672 214.756 80.6813 203.182 89.587 187.364C92.7721 181.699 96.9909 176.818 101.533 172.206C107.01 166.635 113.229 162.003 119.754 157.738C122.537 155.911 122.56 155.798 120.561 153.56C117.055 149.632 113.438 145.804 109.909 141.887C108.712 140.554 107.2 140.25 105.552 140.243C94.8977 140.211 84.4955 141.734 74.6288 145.904C60.0148 152.086 44.9366 154.766 29.1188 152.428C27.9629 152.255 26.7196 151.938 25.7166 152.75C22.72 155.154 19.6981 157.653 19.5979 161.922C19.4968 166.218 21.3516 169.51 25.1597 171.701C27.6954 173.17 30.1576 174.762 32.5759 176.423C37.1043 179.536 38.2135 183.603 36.0509 188.632C35.2905 190.416 34.0728 191.862 32.8324 193.319C31.0108 195.462 29.5366 197.808 29.0408 200.655C28.4525 204.06 28.9936 206.97 32.0179 209.201C34.8435 211.283 37.4308 213.681 40.1778 215.876C41.1041 216.62 42.0275 217.373 42.566 218.407C43.1702 219.567 43.7931 220.932 42.9532 222.142C41.9937 223.524 40.5696 222.934 39.361 222.395C36.1911 220.992 32.915 220.489 29.4911 220.972C26.7919 221.347 25.0064 222.959 24.086 224.693ZM125.152 158.235C123.704 157.429 122.819 158.023 121.966 158.581C119.88 159.942 117.766 161.273 115.735 162.711C105.577 169.887 96.6887 178.376 90.519 189.265C82.648 203.166 71.4833 213.658 57.9986 221.842C48.6813 227.499 38.7307 231.769 28.1058 234.355C26.0657 234.851 24.7906 235.816 25.5686 238.007C26.7813 241.437 25.3675 243.899 23.0742 246.253C20.0844 249.326 17.7867 252.889 16.2489 256.909C14.7407 260.875 14.331 264.89 15.8028 268.94C16.8181 271.735 17.6476 272.106 20.4129 271.221C21.8054 270.777 23.1756 270.241 24.5637 269.758C44.268 262.797 60.6956 251.26 73.6103 234.771C77.3353 230.008 79.9065 224.558 83.1063 219.489C95.6587 199.63 113.114 185.686 135.046 177.313C139.237 175.714 139.799 174.139 137.3 170.329C136.827 169.601 136.204 168.949 135.586 168.337C132.569 165.349 129.526 162.38 126.488 159.422C125.955 158.934 125.398 158.457 125.152 158.235ZM272.427 225.036C275.356 226.406 277.976 227.849 281.088 225.844C283.993 223.969 284.208 224.048 282.028 221.462C279.391 218.333 276.683 215.243 274.035 212.119C264.745 201.154 256.447 189.456 248.457 177.534C246.757 174.994 246.712 174.987 243.952 176.343C238.821 178.862 233.698 181.411 228.15 182.922C226.678 183.328 225.865 183.854 226.36 185.668C227.492 189.8 226.37 193.43 223.622 196.686C221.904 198.727 221.993 199.81 224.334 201.095C227.83 203.012 231.423 204.082 235.657 202.903C247.479 199.613 258.703 208.946 257.993 221.105C257.822 224.091 257.147 226.863 255.849 229.546C255.322 230.647 254.082 231.822 255.23 233.136C256.279 234.339 257.754 233.747 258.969 233.454C263.382 232.397 267.865 231.563 272.055 229.739C272.916 229.362 274.119 229.28 274.29 228.001C273.946 226.974 272.31 227.085 272.427 225.036ZM329.789 184.032C329.236 183.265 328.972 183.065 328.952 182.841C328.859 181.794 330.049 180.422 328.488 179.772C327.454 179.344 326.571 180.341 325.781 180.932C318.942 186.151 313.141 192.297 309.512 200.21C307.165 205.33 304.024 209.858 300.213 213.988C297.011 217.461 293.339 220.349 289.554 223.11C288.488 223.89 287.604 224.812 288.843 225.906C291.951 228.646 293.884 232.82 298.397 233.836C299.031 233.975 299.453 234.178 299.528 234.89C299.818 237.821 302.518 238.666 304.333 240.207C306.126 241.731 307.998 241.463 309.759 239.842C310.286 239.352 310.713 238.73 311.159 238.154C322.661 223.132 330.22 206.283 334.234 187.855C335.109 183.825 336.255 179.697 335.572 175.44C329.912 175.728 331.194 180.525 329.789 184.032ZM30.404 150.162C30.7396 150.473 30.8291 150.638 30.9426 150.661C31.5121 150.795 32.0815 150.93 32.6589 150.993C45.5988 152.384 58.1907 150.569 70.1138 145.657C80.6965 141.301 91.4722 138.611 102.889 138.381C103.814 138.365 104.988 138.769 105.692 137.293C102.712 133.465 99.6194 129.586 96.6552 125.614C95.5432 124.126 94.2968 124.351 92.7788 124.627C85.2397 125.967 77.6633 126.365 70.0565 125.241C68.055 124.945 66.3396 125.297 64.718 126.567C60.4584 129.904 56.1771 133.223 51.8127 136.437C46.5362 140.318 41.6288 144.776 35.1913 146.87C33.4381 147.453 31.6335 148.251 30.404 150.162ZM221.37 182.713C220.712 180.398 219.009 179.216 217.728 177.703C213.394 172.56 209.245 167.27 205.348 161.781C201.08 155.771 195.756 154.945 190.011 159.488C188.634 160.576 187.325 161.763 186.11 163.023C183.755 165.467 183.253 168.358 184.32 171.547C185.127 173.965 186.607 175.955 188.436 177.689C191.73 180.816 194.598 184.312 197.308 187.956C199.579 191.007 201.851 194.058 204.272 196.986C208.39 201.974 212.885 202.505 218.06 198.746C219.24 197.886 220.41 197.003 221.528 196.055C223.528 194.372 224.593 192.119 224.93 189.598C225.167 187.836 225.15 185.973 222.887 184.426C222.537 186.774 222.95 188.811 221.23 190.195C218.496 192.396 215.947 194.833 213.178 196.975C210.461 199.079 208.546 198.776 206.307 196.272C204.168 193.88 204.163 191.73 206.606 189.403C208.719 187.386 211.098 185.664 213.265 183.704C215.689 181.53 218.162 180.471 221.37 182.713ZM231.688 93.8113C236.854 93.7446 240.711 91.8824 244.554 90.2594C254.266 86.1547 262.422 80.2385 266.645 70.0496C267.145 68.8454 267.926 67.7448 268.643 66.6393C270.846 63.2577 270.862 63.2637 268.587 60.1458C270.171 59.1064 270.76 61.1997 272.026 61.2254C273.031 61.2485 273.682 60.8038 274.285 60.1347C274.736 59.6253 274.788 59.0254 274.315 58.5789C272.366 56.7634 270.155 55.3295 267.591 54.6004C266.589 54.3156 265.455 54.7702 264.94 55.7344C264.407 56.7482 265.43 57.2564 266.03 57.8433C266.422 58.2316 267.107 58.409 266.882 59.1984C265.744 59.7644 264.574 58.0011 263.647 58.9635C261.569 61.1153 259.604 59.678 257.628 59.0063C254.85 58.0671 252.139 56.9463 249.364 55.9989C246.223 54.9258 246.049 54.9649 244.867 58.1223C241.921 65.9394 239.066 73.7899 236.177 81.6283C234.756 85.4856 233.341 89.3263 231.688 93.8113ZM244.612 173.66C245.077 172.602 244.586 171.999 244.198 171.397C239.786 164.48 235.348 157.582 230.97 150.649C229.837 148.862 228.638 149.546 227.233 150.201C221.125 153.054 215.054 155.986 208.496 157.744C205.769 158.475 205.591 158.934 207.318 161.325C212.035 167.847 216.96 174.212 222.499 180.08C224.052 181.722 225.631 181.816 227.633 181.194C232.979 179.542 238.034 177.23 243.006 174.71C243.64 174.39 244.206 173.923 244.612 173.66ZM138.186 39.7139C136.479 37.7249 134.867 35.8642 133.271 33.9818C131.149 31.4924 131.152 31.4842 128.295 33.1521C114.789 41.0369 103.044 51.0433 92.87 62.8952C88.6012 67.8608 88.3591 66.6084 93.0222 72.004C93.1134 72.1127 93.2273 72.2109 93.3299 72.3144C96.4807 75.3985 97.3779 75.382 100.261 72.0635C107.66 63.5419 115.612 55.6085 124.781 48.9777C129.133 45.8248 133.623 42.8545 138.186 39.7139ZM201.948 123.173C202.422 122.062 202.659 119.739 202.379 117.393C201.48 109.829 193.937 105.577 187.49 108.971C181.274 112.243 178.353 120.248 181.008 126.714C183.099 131.809 188.402 134.373 193.585 132.577C197.57 131.184 200.018 128.156 201.948 123.173ZM176.825 86.2318C177.95 83.2788 178.091 79.841 177.43 77.027C176.256 72.0163 169.897 67.6091 163.944 70.2189C158.226 72.7275 154.678 78.7935 155.554 85.1483C156.117 89.2209 158.059 92.3006 161.884 93.9631C165.829 95.6796 169.39 94.393 172.579 92.0504C174.594 90.579 176.057 88.5193 176.825 86.2318ZM235.176 241.582C234.78 243.115 234.632 243.999 234.331 244.817C233.16 248.072 234.21 250.185 237.163 252.024C242.615 255.431 247.83 259.228 253.161 262.835C253.843 263.301 254.503 264.183 255.477 263.678C256.559 263.111 256.45 261.954 256.426 260.951C256.409 260.232 256.232 259.491 255.98 258.826C254.109 253.924 255.133 249.311 257.411 244.86C259.458 240.858 259.508 240.876 256.503 237.574C255.916 236.926 255.235 236.356 254.666 235.686C253.503 234.31 252.366 234.136 250.994 235.468C247.533 238.827 243.303 240.149 238.551 239.908C236.736 239.793 235.379 240.241 235.176 241.582ZM338.949 170.474C340.229 170.871 341.052 170.039 342.019 169.832C344.691 169.25 345.714 167.723 345.795 164.882C346.073 154.731 345.236 144.732 342.527 134.925C341.346 130.644 341.156 130.574 337.227 132.25C333.385 133.892 333.393 133.998 334.38 138.143C335.567 143.12 336.638 148.131 337.203 153.217C337.825 158.99 338.371 164.764 338.949 170.474ZM323.174 94.6222C321.177 94.7212 319.56 95.4949 318.238 96.6121C316.833 97.8019 318.128 99.0483 318.773 100.074C323.968 108.302 327.803 117.116 330.898 126.334C333.203 133.215 332.097 131.916 338.612 129.636C340.172 129.095 340.639 128.235 340.051 126.648C336.054 115.729 330.975 105.377 324.224 95.872C323.901 95.4247 323.499 95.0139 323.174 94.6222ZM151.543 76.7097C149.895 80.8773 150.221 85.0316 151.666 89.1567C151.983 90.0523 152.241 91.4139 153.591 91.0857C154.933 90.7545 154.651 89.6094 154.355 88.553C154.08 87.5697 153.911 86.5507 153.759 85.5377C153.028 80.5966 154.37 76.166 157.613 72.4827C160.887 68.7642 165.044 66.6747 170.148 67.8426C174.819 68.9162 177.857 71.9494 179.189 76.5306C180.072 79.5576 179.907 82.705 178.985 85.6394C175.922 95.4023 164.907 100.246 157.6 93.4447C157.384 93.243 157.161 93.0578 156.924 92.8861C156.36 92.4813 155.831 92.5678 155.389 93.0803C154.938 93.6176 155.047 94.2115 155.462 94.6645C157.616 97.0156 160.319 98.4146 163.432 98.9521C170.346 100.149 178.047 96.0258 181.235 89.489C184.6 82.5957 183.152 74.1537 177.873 69.2067C169.213 61.0626 154.547 66.3155 151.543 76.7097ZM156.304 20.3295C155.022 20.6263 153.711 20.7997 152.483 21.2292C147.645 22.927 143.008 25.0739 138.441 27.3872C132.257 30.5218 132.157 30.9726 137.265 35.8474C137.69 36.2478 138.158 36.6078 138.565 37.0299C139.859 38.3794 141.201 38.4798 142.909 37.6644C146.076 36.1482 149.388 34.9485 152.541 33.418C154.826 32.3087 158.614 32.7475 159.207 30.1705C159.765 27.74 158.202 24.8281 157.565 22.1263C157.502 21.8402 157.459 21.5242 157.296 21.3046C157.053 20.9712 156.707 20.7125 156.304 20.3295ZM130.768 99.7122C124.11 96.8553 114.197 104.179 115.139 113.513C115.282 114.907 116.065 115.149 117.264 114.849C123.228 113.379 129.257 112.42 135.405 112.181C136.738 112.128 137.544 111.571 137.588 110.049C137.706 105.936 134.549 101.087 130.768 99.7122ZM163.413 151.883C164.119 150.248 164.533 148.562 164.461 146.772C164.367 144.279 164.065 143.952 161.64 144.297C156.861 144.994 152.14 145.993 147.58 147.625C146.361 148.057 145.149 148.699 144.146 149.511C142.8 150.591 142.217 152.122 142.941 153.823C144.408 157.225 146.655 159.732 150.56 160.336C155.943 161.157 160.981 157.872 163.413 151.883ZM295.728 236.117C293.412 236.061 291.217 235.374 289.053 234.501C287.697 233.955 287.254 235.03 286.963 236.048C286.697 236.973 287.258 237.743 287.581 238.546C289.496 243.38 288.751 248.049 286.492 252.526C285.648 254.204 284.423 255.695 283.32 257.239C282.874 257.863 282.402 258.533 282.896 259.203C283.508 260.039 284.442 259.998 285.227 259.396C286.73 258.243 288.192 257.027 289.644 255.808C294.006 252.143 298.363 248.467 302.711 244.788C303.475 244.14 304.721 243.305 303.676 242.347C301.22 240.101 298.828 237.709 295.728 236.117ZM229.397 216.835C228.232 220.327 228.051 223.647 229.318 226.928C232.65 235.529 241.091 235 246.123 230.559C247.515 229.327 247.567 228.118 246.296 226.805C242.317 222.712 238.369 218.584 234.346 214.531C232.513 212.683 231.709 212.827 230.308 215.051C229.921 215.668 229.641 216.353 229.397 216.835ZM82.3454 96.9824C86.5943 90.3395 90.4689 84.3562 94.8751 78.7375C95.725 77.6529 95.6194 76.6665 94.5361 75.6857C92.8025 74.1276 91.0811 72.5364 89.534 70.8031C88.272 69.3906 87.3156 69.6949 86.3866 70.9942C84.0941 74.2115 82.4002 77.7901 80.4003 81.1809C77.1474 86.6991 78.7387 91.4694 82.3454 96.9824ZM70.0366 122.851C78.1237 124.555 85.874 124.296 94.0479 122.252C89.8479 115.498 85.7565 109.365 81.8139 101.862C80.2524 110.911 77.4885 118.158 70.0366 122.851ZM275.922 276.653C276.849 276.835 277.685 277.087 278.471 276.382C282.05 273.16 285.634 269.95 289.197 266.722C289.664 266.294 289.834 265.681 289.367 265.19C288.968 264.771 288.3 264.497 287.768 264.77C286.738 265.3 285.778 265.969 284.82 266.61C283.887 267.233 283.002 268.464 281.841 267.183C280.805 266.05 279.367 264.836 280.998 263.082C281.511 262.53 282.014 261.927 281.315 261.229C280.735 260.64 279.979 260.68 279.296 261.057C278.53 261.479 277.802 261.979 277.055 262.427C272.617 265.078 267.922 266.21 262.815 264.769C261.965 264.53 261.155 264.232 260.254 264.538C259.666 264.734 259.191 265.056 258.998 265.632C258.77 266.327 259.3 266.72 259.793 267.013C265.156 270.228 270.539 273.441 275.922 276.653ZM344.92 171.126C338.573 172.794 338.609 172.797 337.918 178.237C336.915 186.104 335.281 193.823 332.742 201.349C332.183 203.019 331.643 204.687 331.142 206.379C330.837 207.411 330.726 208.449 331.999 208.965C333.207 209.457 334.353 209.325 335.104 208.177C335.586 207.454 335.88 206.605 336.209 205.788C339.028 198.853 341.024 191.652 342.789 184.394C343.812 180.165 345.042 175.937 344.92 171.126ZM331.578 216.652C332.019 215.455 332.47 214.383 332.809 213.26C333.094 212.333 332.856 211.504 331.871 211.122C330.902 210.746 329.876 210.425 329.15 211.555C328.84 212.041 328.611 212.585 328.369 213.115C323.962 222.861 318.622 232.057 312.082 240.539C311.559 241.218 311.105 242.017 310.879 242.835C310.687 243.533 311.017 244.293 311.686 244.718C312.394 245.166 313.082 244.978 313.667 244.434C314.094 244.038 314.525 243.634 314.887 243.186C321.538 234.989 327.184 226.159 331.578 216.652ZM111.841 140.844C115.525 146.02 119.438 149.685 123.161 153.505C123.895 154.263 124.85 154.728 125.938 154.219C128.583 152.998 131.286 151.874 133.812 150.441C135.593 149.427 135.519 147.59 133.641 146.729C127.011 143.694 120.182 141.3 111.841 140.844ZM299.812 75.357C302.579 78.4402 305.203 81.1709 307.587 84.0945C310.076 87.1412 312.279 90.4296 314.719 93.5332C316.04 95.2204 318.152 94.9858 320.371 93.1392C322.061 91.7355 320.481 90.703 319.837 89.8278C316.099 84.7731 311.893 80.0992 307.479 75.6304C304.304 72.4342 304.275 72.4611 299.812 75.357ZM121.523 123.811C127.279 126.063 135.633 121.44 136.686 115.758C136.983 114.16 135.866 114.086 134.849 114.096C128.989 114.113 123.313 115.361 117.663 116.769C116.094 117.157 116.054 118.184 116.697 119.443C117.829 121.615 119.73 122.897 121.523 123.811ZM240.166 212.051C238.787 213.297 236.963 211.171 235.431 212.961C238.698 216.341 241.988 219.786 245.321 223.19C246.392 224.279 247.218 226.366 248.965 225.724C250.475 225.165 250.579 223.074 250.801 221.504C250.968 220.365 250.919 219.174 250.787 218.028C250.606 216.432 249.573 215.62 248.114 214.923C246.357 214.088 249.158 212.418 247.549 210.906C244.754 208.281 240.06 207.602 236.591 209.964C237.226 211.502 239.475 210.183 240.166 212.051ZM258.301 268.593C258.731 274.071 260.659 278.13 263.25 281.843C267.16 287.449 267.248 287.388 272.046 282.692C272.778 281.977 273.511 281.262 274.287 280.581C275.616 279.42 275.58 278.319 274.059 277.458C269.112 274.641 264.147 271.873 258.301 268.593ZM224.592 215.44C222.882 219.903 223.174 224.814 225.525 229.433C227.689 233.692 230.925 236.085 235.819 237.316C240.749 238.551 244.722 237.595 248.616 235.099C249.71 234.395 251.985 233.414 250.32 231.44C248.784 229.626 247.767 231.7 246.765 232.484C243.448 235.071 239.819 236.21 235.688 235.101C229.866 233.537 226.22 228.132 226.61 221.727C226.796 218.625 227.47 215.675 229.394 213.1C229.888 212.447 230.387 211.477 229.346 210.812C228.489 210.262 227.628 210.639 226.986 211.312C225.858 212.463 225.139 213.906 224.592 215.44ZM203.838 105.848C202.314 99.0857 192.739 79.347 190.106 77.4293C190.79 79.8764 191.501 82.2491 192.1 84.6463C193.249 89.2161 193.691 93.8725 193.619 98.5741C193.6 99.7209 193.296 101.335 194.671 101.626C197.968 102.353 200.686 104.293 203.838 105.848ZM114.221 107.349C114.82 106.181 115.299 104.932 116.035 103.852C122.045 95.025 132.505 95.6615 137.047 102.429C137.374 102.916 137.73 103.375 138.109 103.824C138.66 104.468 139.386 104.585 140.071 104.153C141.138 103.496 140.637 102.692 140.16 101.925C136.401 95.9338 128.215 93.302 121.599 95.7518C120.111 96.3012 119.46 97.6093 118.147 98.2978C112.38 101.295 109.195 108.105 110.386 114.472C110.543 115.318 110.498 116.409 111.65 116.439C113.008 116.47 113.251 115.378 113.232 114.283C113.195 111.915 113.445 109.605 114.221 107.349ZM140.968 155.207C138.959 157.375 140.379 158.536 141.395 159.727C145.299 164.28 151.643 166.13 157.301 164.218C163.916 161.974 168.071 157.445 169.399 150.505C169.579 149.558 170.036 148.216 168.739 147.841C167.229 147.407 166.384 148.352 165.949 149.862C165.462 151.54 164.886 153.232 164.069 154.76C158.954 164.339 147.483 164.512 142.442 157.139C142.043 156.541 141.575 156.003 140.968 155.207ZM121.271 128.108C129.48 131.546 139.738 124.838 142.026 116.694C142.295 115.733 142.709 114.534 141.329 114.129C140.338 113.839 139.244 114.083 138.714 115.192C138.205 116.243 137.847 117.368 137.324 118.404C133.947 125.124 126.836 127.926 120.45 125.17C117.762 124.011 115.91 122.062 114.578 119.516C114.105 118.61 113.303 118.24 112.41 118.83C111.64 119.343 112.013 120.138 112.341 120.775C114.107 124.155 116.891 126.401 121.271 128.108ZM269.679 257.063C272.055 253.135 272.058 253.127 269.13 250.228C267.99 249.095 266.804 248.011 265.707 246.838C264.64 245.685 263.807 245.809 262.88 247.025C260.977 249.541 260.488 252.372 261.228 255.328C261.978 258.334 264.321 259.357 267.196 257.996C268.185 257.526 268.863 256.884 269.736 258.154C270.541 259.332 271.682 258.552 272.488 258.145C273.513 257.631 275.527 257.154 274.411 255.523C273.537 254.254 272.419 255.634 271.545 256.353C271.244 256.608 270.791 256.666 269.679 257.063ZM139.577 148.494C140.194 144.528 141.623 141.921 143.31 139.456C148.276 132.243 157.723 131.174 163.292 137.316C164.294 138.417 165.075 139.53 165.651 140.868C165.891 141.416 166.574 141.574 167.153 141.225C167.346 141.108 167.556 140.613 167.513 140.579C165.438 138.801 165.974 135.64 163.34 133.853C158.201 130.384 152.996 130.023 147.55 132.2C143.796 133.707 141.174 136.596 139.141 140.181C137.625 142.868 138.659 145.078 139.577 148.494ZM174.259 112.595C171.909 113.652 169.764 114.635 168.638 117.156C167.746 119.144 169.859 119.801 170.197 121.201C165.939 122.165 165.152 123.892 167.288 127.287C169.254 130.404 171.993 132.239 176.522 132.294C172.642 125.817 172.545 119.412 174.259 112.595ZM302.252 71.0025C296.221 65.7786 289.799 61.7983 283.434 57.7364C283.191 57.5812 282.913 57.4694 282.628 57.402C281.686 57.1581 280.908 57.4624 280.33 58.2157C279.581 59.206 280.313 59.8416 280.969 60.4024C281.517 60.8763 282.19 61.1898 282.78 61.6232C287.038 64.6835 291.332 67.692 295.236 71.2034C298.091 73.7659 298.116 73.7472 302.252 71.0025ZM209.878 196.434C210.412 196.537 211.213 196.223 211.905 195.643C214.574 193.39 217.235 191.134 219.885 188.855C221.356 187.586 220.844 186.328 219.854 185.044C218.74 183.611 217.48 182.781 215.813 184.146C213.107 186.348 210.349 188.512 207.818 190.9C206.044 192.582 207.103 195.665 209.878 196.434ZM185.622 26.9952C185.645 26.7035 185.676 26.4149 185.702 26.1149C182.941 24.8254 180.189 23.5111 177.401 22.2681C175.385 21.375 173.222 20.8785 171.039 20.7962C168.66 20.7079 167.699 21.892 167.778 24.3508C167.875 27.3978 168.703 28.6129 171.02 28.4348C175.899 28.0751 180.758 27.4919 185.622 26.9952ZM199.959 107.796C199.761 108.511 200.089 108.791 200.34 109.128C205.65 116.028 205.662 123.097 200.397 129.928C199.749 130.768 198.118 131.555 199.268 132.711C200.321 133.774 201.727 132.81 202.827 132.09C203.299 131.776 203.682 131.298 204.052 130.853C208.868 125.141 208.8 115.04 204 109.304C202.843 107.911 201.534 107.569 199.959 107.796ZM323.764 234.777C320.983 238.302 318.517 241.381 316.135 244.509C315.551 245.279 314.779 246.204 315.966 247.157C318.775 249.412 324.851 247.739 325.552 244.31C326.184 241.194 326.179 237.975 323.764 234.777ZM282.758 279.819C286.511 281.624 289.556 280.26 292.276 278.073C295.681 275.322 298.908 272.345 302.212 269.463C302.432 269.273 302.653 269.082 302.868 268.88C303.562 268.244 304.097 267.503 303.443 266.606C302.546 265.374 301.675 266.16 300.858 266.798C300.048 267.418 299.237 268.039 298.451 268.697C295.213 271.425 291.991 274.187 288.747 276.904C286.211 279.027 286.162 279.057 283.246 277.016C282.263 276.325 281.448 275.94 280.676 277.091C279.815 278.359 280.8 278.919 281.731 279.422C282.115 279.629 282.551 279.743 282.758 279.819ZM227.01 35.2475C225.474 34.8318 224.222 34.464 222.964 34.16C221.433 33.7835 220.727 34.349 221.072 35.9584C221.257 36.8052 221.704 37.6547 221.653 38.4803C221.513 40.9991 223.076 41.6969 225.094 41.9995C225.804 42.1109 226.526 42.1613 227.24 42.2087C229.594 42.3632 231.155 40.9026 230.777 38.6711C230.405 36.4983 229.156 35.1002 227.01 35.2475ZM166.173 19.9226C164.475 19.3626 162.891 19.4356 161.285 19.5663C159.809 19.6789 159.122 20.3453 159.474 21.8351C160.015 24.1079 160.588 26.3732 161.168 28.6417C161.629 30.4719 162.874 30.302 164.266 29.8582C165.501 29.4596 167.077 29.3836 166.36 27.3838C165.481 24.9584 165.951 22.4862 166.173 19.9226ZM155.818 114.243C153.755 109.711 150.076 106.864 146.281 106.366C145.674 106.283 145.081 106.262 144.678 106.77C143.62 108.116 144.96 112.268 146.656 112.63C149.495 113.226 152.381 113.642 155.818 114.243ZM285.335 239.905C283.853 240.644 284.395 241.922 284.464 243.008C284.706 246.831 283.375 250.139 281.235 253.197C280.736 253.914 280.216 254.613 279.704 255.316C279.319 255.85 279.251 256.416 279.775 256.853C280.348 257.336 280.86 256.99 281.275 256.552C284.956 252.72 287.283 248.315 286.742 242.834C286.636 241.772 286.675 240.445 285.335 239.905ZM289.997 262.871C291.732 263.66 292.805 263.652 293.832 262.773C296.624 260.416 299.475 258.127 302.218 255.723C302.84 255.182 304.36 254.57 303.133 253.367C302.285 252.539 301.234 252.921 300.37 253.662C296.956 256.588 293.208 259.147 289.997 262.871ZM237.575 49.1688C236.33 46.7681 236.33 46.7681 232.363 44.3965C233.911 43.4285 235.275 44.4375 236.616 44.4628C237.279 44.4724 237.798 44.1851 237.968 43.6195C238.173 42.9631 237.615 42.617 237.096 42.3222C233.588 40.3076 232.295 40.8631 231.052 44.5421C230.435 46.3692 230.952 47.31 232.628 47.8526C234.128 48.3396 235.518 49.2269 237.575 49.1688ZM317.301 254.047C315.991 253.377 314.828 253.783 314.34 254.523C312.292 257.662 309.052 259.479 306.461 262.005C305.947 262.509 305.432 263.042 305.009 263.627C304.622 264.169 304.813 264.746 305.255 265.2C305.792 265.755 306.433 265.493 306.801 265.104C310.28 261.442 314.192 258.183 317.301 254.047ZM265.449 263.375C267.984 264.309 275.674 261.974 277.631 259.693C277.943 259.33 278.078 258.938 277.759 258.53C277.32 257.965 276.73 258.038 276.214 258.345C273.166 260.177 269.949 261.422 266.325 261.353C266.047 261.344 265.703 261.386 265.495 261.544C265.178 261.793 264.803 262.124 264.716 262.486C264.613 262.917 265.036 263.195 265.449 263.375ZM280.878 234.866C278.372 234.056 276.042 234.192 273.711 234.561C273.014 234.67 272.076 234.747 272.162 235.736C272.246 236.705 273.115 236.687 273.848 236.582C276.514 236.195 279.115 236.112 281.429 237.827C282.175 238.374 283.07 238.873 283.673 237.848C284.246 236.877 283.375 236.237 282.641 235.76C282.035 235.368 281.339 235.093 280.878 234.866ZM197.449 135.127C193.209 135.253 188.972 135.371 184.732 135.497C189.007 137.364 193.277 138.43 197.449 135.127ZM270.597 52.9594C272.314 54.868 274.574 55.6349 276.414 57.007C277.222 57.6144 278.118 57.3723 278.72 56.628C279.549 55.6013 278.634 55.0295 277.917 54.6339C276.279 53.7305 274.595 52.9035 272.89 52.1344C272.099 51.7866 271.208 51.6083 270.597 52.9594ZM318.59 250.348C316.855 249.708 315.55 249.228 314.237 248.744C312.824 248.223 312.064 249.219 311.274 250.063C310.888 250.474 310.543 251.079 310.963 251.646C311.686 252.635 312.792 252.461 313.773 252.269C315.269 251.976 316.923 251.994 318.59 250.348ZM310.339 248.067C310.313 247.758 310.386 247.278 310.207 246.949C309.984 246.539 309.458 246.514 309.051 246.702C307.579 247.388 306.336 248.393 305.221 249.559C304.718 250.086 304.125 250.703 304.838 251.388C305.387 251.909 306.216 252.027 306.869 251.554C308.166 250.606 309.35 249.532 310.339 248.067ZM240.469 45.4885C245.24 48.0719 245.356 48.0867 248.576 46.5527C245.989 45.7587 243.855 44.0154 240.469 45.4885ZM141.054 106.27C140.72 106.362 140.238 106.372 139.927 106.605C138.82 107.445 139.207 111.461 140.47 111.955C140.946 112.14 141.682 112.102 142.127 111.862C143.331 111.217 142.725 110.112 142.57 109.183C142.378 108.099 142.513 106.817 141.054 106.27ZM172.371 133.607C172.86 136.658 174.646 137.156 176.904 136.91C177.354 136.86 177.765 136.711 177.906 136.228C178.087 135.61 177.941 135.115 177.365 134.743C175.959 133.822 174.345 133.875 172.371 133.607ZM257.669 52.3515C258.446 53.7822 259.673 54.2439 260.867 54.5431C261.682 54.7496 262.625 54.3558 262.941 53.4216C263.352 52.2035 262.355 51.93 261.54 51.8265C260.33 51.6717 259.035 50.96 257.669 52.3515ZM178.084 145.75C176.798 143.869 175.984 142.03 173.568 142.603C172.889 142.766 171.973 142.757 171.8 143.556C171.536 144.782 172.66 144.914 173.449 145.064C174.836 145.322 176.163 145.999 178.084 145.75ZM183.972 106.145C186.293 105.65 189.047 106.805 191.408 104.091C188.193 103.573 185.952 104.361 183.972 106.145ZM237.165 206.32C234.867 206.242 233.38 205.441 231.91 206.579C231.428 206.945 230.983 207.363 231.157 207.962C231.38 208.729 232.058 209.157 232.815 208.91C234.145 208.481 235.46 207.943 237.165 206.32ZM263.426 241.316C265.66 241.06 267.216 239.814 268.979 237.78C265.687 237.421 264.326 239.002 263.426 241.316ZM240.352 48.3533C240.972 49.8014 242.189 50.5218 243.493 51.1336C244.011 51.381 244.607 51.5723 245.011 50.9332C245.368 50.3707 245.194 49.9029 244.67 49.466C243.424 48.4161 242.099 47.787 240.352 48.3533ZM139.824 152.863C139.779 152.095 140.749 151.092 139.614 150.581C138.747 150.186 137.886 150.713 137.675 151.695C137.492 152.547 137.526 153.601 138.368 154.015C139.21 154.428 139.611 153.619 139.824 152.863ZM161.868 119.211C162.844 120.331 162.744 122.104 164.783 121.89C164.968 121.873 165.273 121.451 165.258 121.239C165.153 119.333 163.952 118.9 161.868 119.211ZM124.437 13.3528C125.296 13.5663 125.867 13.2137 126.118 12.4056C126.36 11.6222 126.193 10.904 125.352 10.641C124.552 10.3932 123.878 10.7452 123.63 11.5451C123.383 12.3172 123.655 12.9802 124.437 13.3528ZM198.782 104.98C196.932 104.401 195.475 103.161 193.082 104.793C195.265 105.438 196.77 106.189 198.782 104.98ZM258.248 45.8667C256.882 44.9411 255.563 43.6577 252.959 44.0024C254.848 45.4957 256.398 45.9731 258.248 45.8667ZM250.57 42.822C249.201 41.9798 247.936 40.7817 246.055 41.6084C247.46 42.3514 248.733 43.5053 250.57 42.822ZM256.17 14.5377C256.975 14.8246 257.554 14.5504 257.898 13.7953C258.254 13.0071 257.989 12.4028 257.22 12.0724C256.437 11.7276 255.804 12.0197 255.482 12.7644C255.144 13.5308 255.453 14.142 256.17 14.5377ZM169.236 144.609C169.281 143.876 168.906 143.493 168.261 143.434C167.525 143.37 166.754 143.451 166.516 144.302C166.353 144.87 166.511 145.538 167.173 145.651C168.062 145.809 168.874 145.565 169.236 144.609ZM177.956 141.565C178.49 140.421 178.615 139.369 177.371 138.62C177.21 138.523 176.67 138.69 176.587 138.866C176.001 140.226 176.867 140.93 177.956 141.565ZM242.615 40.2002C242.608 39.4285 241.929 39.4129 241.459 39.2116C240.833 38.9524 240.192 38.5007 239.46 38.9345C239.456 39.6836 240.065 39.8892 240.568 40.0275C241.214 40.2092 241.875 40.7062 242.615 40.2002ZM259.288 9.33547C259.341 8.63252 259 8.20691 258.37 8.23731C258.027 8.25164 257.515 8.52244 257.403 8.80023C257.176 9.36406 257.503 9.87836 258.093 10.0584C258.716 10.2505 259.109 9.89799 259.288 9.33547ZM257.458 55.698C257.587 55.0698 257.352 54.5612 256.764 54.4007C256.024 54.1938 255.355 54.5572 255.001 55.1866C254.56 55.9526 255.352 56.0944 255.794 56.2948C256.489 56.5978 257.134 56.554 257.458 55.698ZM127.226 8.43267C127.584 7.7393 127.418 7.34978 127.069 7.12718C126.556 6.78807 126.011 6.84065 125.667 7.41751C125.426 7.81658 125.578 8.21958 125.967 8.43783C126.478 8.72955 127.001 8.76262 127.226 8.43267ZM260.463 238.817C261.189 239.216 261.702 239.02 262.065 238.544C262.373 238.142 262.184 237.687 261.722 237.564C261.118 237.398 260.344 237.028 260.002 237.906C259.905 238.142 260.334 238.582 260.463 238.817Z" fill="#151515"/>
<path d="M42.349 325.797C43.795 325.335 43.3199 324.231 43.6629 323.504C44.3255 322.088 45.4601 321.605 46.8912 321.973C48.3389 322.347 49.1457 323.442 48.9356 324.903C48.696 326.597 48.336 328.312 47.7207 329.906C47.0873 331.548 44.9214 331.876 43.2065 331.056C41.8263 330.398 41.8303 328.936 41.0674 327.951C36.84 329.545 36.5418 329.464 35.2139 326.245C36.1734 325.576 36.3728 326.587 36.8141 326.994C37.45 327.584 38.1938 327.755 38.7082 327.072C39.3625 326.188 38.403 325.787 37.847 325.489C36.5407 324.782 35.9026 323.815 36.1031 322.304C36.361 320.382 37.6291 319.461 39.3606 319.395C40.9891 319.329 42.1302 320.331 42.3284 322.008C42.4683 323.233 42.3539 324.485 42.349 325.797ZM40.6746 323.06C40.9768 322.214 40.776 321.511 40.0561 321.199C39.141 320.806 38.3441 321.263 37.945 322.091C37.5368 322.945 37.6932 323.818 38.7305 324.135C39.7182 324.433 40.3133 323.836 40.6746 323.06ZM45.1677 327.211C44.1787 327.043 43.5862 327.556 43.4279 328.521C43.2905 329.352 43.7943 329.894 44.5707 330.002C45.375 330.111 45.914 329.615 46.1075 328.861C46.3071 328.09 46.042 327.486 45.1677 327.211ZM46.4725 323.695C46.023 323.642 45.6187 323.746 45.5039 324.21C45.3417 324.854 45.7078 325.261 46.2938 325.402C46.7168 325.502 47.1589 325.346 47.2758 324.901C47.4463 324.26 47.0455 323.897 46.4725 323.695Z" fill="#151515"/>
<path d="M-5.2539 235.909C-3.41194 235.34 -2.3203 234.363 -1.14128 233.531C-0.634371 233.174 -0.0335735 233.02 0.467212 233.392C0.973214 233.776 0.938839 234.429 0.809263 235.01C0.559239 236.147 0.00317179 237.274 0.0518061 238.389C0.112597 239.828 -0.58257 240.595 -1.63855 241.144C-3.28315 241.992 -2.8905 240.035 -3.61734 239.589C-5.04711 238.734 -6.10691 237.537 -8.23973 238.768C-10.4291 240.025 -11.368 239.238 -12.5038 236.465C-11.0549 235.817 -10.4825 238.973 -8.61655 237.015C-10.1589 235.396 -12.9976 233.909 -10.9447 230.96C-10.169 229.848 -8.92266 229.266 -7.47896 229.676C-5.73703 230.168 -5.19066 231.664 -5.2539 235.909ZM-8.86553 234.381C-8.03564 234.471 -7.38223 234.149 -7.13832 233.385C-6.82657 232.412 -7.19386 231.601 -8.24763 231.457C-9.02405 231.349 -9.66921 231.852 -9.8088 232.664C-9.93317 233.434 -9.68106 234.1 -8.86553 234.381ZM-1.91526 236.905C-1.90393 236.543 -2.09781 236.331 -2.43299 236.451C-2.64992 236.531 -2.88339 236.783 -2.94905 237.012C-3.04601 237.351 -2.79735 237.593 -2.46217 237.473C-2.2422 237.385 -2.09133 237.103 -1.91526 236.905Z" fill="#151515"/>
<path d="M181.071 379.098C183.19 369.682 185.309 360.265 187.428 350.849C187.817 350.936 188.199 351.02 188.586 351.116C186.874 360.626 184.771 370.049 182.268 379.389C181.873 379.29 181.474 379.2 181.071 379.098Z" fill="#151515"/>
<path d="M188.648 249.035C191.031 250.739 192.208 253.096 192.821 255.939C193.656 259.783 194.869 263.542 195.825 267.365C196.163 268.737 196.921 270.142 196.115 271.618L195.732 271.768C193.919 267.929 193.172 263.77 192.09 259.703C191.121 256.072 189.99 252.522 188.044 249.272C188.25 249.198 188.447 249.121 188.648 249.035Z" fill="#151515"/>
<path d="M273.764 325.69C275.431 325.366 276.493 327.371 277.783 325.755C277.772 324.437 276.265 324.707 275.671 323.926C274.629 322.528 274.765 321.19 275.54 319.825C276.277 318.539 277.485 318.009 278.905 318.382C280.341 318.761 280.953 319.877 281.122 321.328C281.375 323.542 280.607 325.397 279.12 326.913C277.567 328.48 276.489 328.223 273.764 325.69ZM279.339 322.219C279.664 321.466 279.622 320.738 278.904 320.295C278.182 319.86 277.444 320.057 277.03 320.796C276.558 321.645 276.561 322.528 277.574 323.013C278.381 323.395 278.947 322.928 279.339 322.219Z" fill="#151515"/>
<path d="M212.014 262.814C211.239 260.258 209.534 258.42 207.627 256.619C204.698 253.851 201.955 250.88 201.069 246.717C201.276 246.615 201.49 246.516 201.697 246.413C204.024 248.603 204.852 251.854 207.228 254.061C209.834 256.485 212.331 259.028 215.45 260.975C214.679 262.201 213.071 261.524 212.534 262.677C212.365 262.728 212.188 262.775 212.014 262.814Z" fill="#151515"/>
<path d="M5.2089 142.67C5.10804 142.868 4.92803 143.458 4.56371 143.887C3.40423 145.251 2.07564 146.591 0.115945 145.672C-1.62987 144.86 -1.60892 143.122 -1.42669 141.482C-1.36189 140.924 -1.11885 140.367 -0.904506 139.836C0.212002 137.086 2.15877 135.749 3.93198 136.487C5.55347 137.178 6.19935 139.855 5.2089 142.67ZM3.43351 142.091C3.8444 140.62 4.79001 138.97 3.24633 138.373C1.40008 137.655 0.987864 139.614 0.506994 140.919C0.266559 141.571 0.19262 142.332 0.223451 143.038C0.234737 143.389 0.572061 143.823 0.890704 144.053C1.45974 144.469 2.08315 144.126 2.44965 143.717C2.91439 143.194 3.19787 142.501 3.43351 142.091Z" fill="#151515"/>
<path d="M276.772 11.022C275.656 13.5938 276.727 16.9247 273.8 18.9608C272.781 19.0264 272.721 18.1974 272.6 17.5335C272.34 16.1246 269.866 16.4231 270.279 14.7929C270.743 12.9749 272.663 12.3973 274.085 11.4392C274.774 10.9706 275.532 10.415 276.772 11.022Z" fill="#151515"/>
<path d="M40.2261 112.711C40.5492 112.089 40.8266 111.413 41.2404 110.824C42.0487 109.649 43.2311 109.062 44.6188 109.395C46.0673 109.741 46.578 110.952 46.7157 112.335C46.9104 114.302 46.4199 116.091 45.0196 117.498C43.9727 118.557 42.6998 119.364 41.157 118.561C39.6525 117.781 39.4217 116.345 39.6726 114.824C39.7644 114.117 40.0253 113.434 40.2261 112.711ZM44.5668 114.705C44.7299 113.498 45.8589 111.86 44.2309 111.288C42.4542 110.661 41.9768 112.568 41.5207 113.882C41.2916 114.53 41.2567 115.286 41.3071 115.989C41.3297 116.335 41.667 116.769 41.9753 116.977C42.5565 117.36 43.1325 117.019 43.4886 116.587C43.9264 116.035 44.2068 115.351 44.5668 114.705Z" fill="#151515"/>
<path d="M28.0986 111.61C28.3945 112.742 29.9583 112.521 30.209 113.673C29.4265 114.473 28.574 114.037 27.8068 113.726C26.77 113.306 25.3245 113.13 25.3346 111.652C25.3411 110.463 26.5158 110.126 27.4531 109.721C28.2578 109.371 29.0646 109.039 29.8298 108.618C30.6175 108.186 31.3818 107.613 31.0441 106.57C30.6959 105.503 29.7691 105.575 28.8674 105.73C28.4362 105.806 27.9958 105.906 27.7702 105.373C29.9057 103.702 31.0129 103.65 32.2201 105.211C33.5828 106.961 33.1785 108.491 31.0043 109.885C30.0631 110.505 28.6955 110.423 28.0986 111.61Z" fill="#151515"/>
<path d="M204.381 328.999C203.563 328.266 203.689 327.694 203.805 327.126C205.075 321.234 206.346 315.342 207.72 308.991C208.944 312.059 207.259 321.495 204.381 328.999Z" fill="#151515"/>
<path d="M197.819 299.836C196.749 306.28 195.678 312.725 194.61 319.161C194.22 319.101 193.824 319.03 193.433 318.971C193.916 312.413 195.237 305.977 196.539 299.542C196.962 299.642 197.385 299.742 197.819 299.836Z" fill="#151515"/>
<path d="M269.493 316.377C273.388 315.608 274.68 316.684 273.677 319.739C273.354 320.717 273.204 321.684 272.984 322.663C272.586 324.431 271.494 325.51 269.56 325.285C267.717 325.066 266.683 324.104 266.859 322.151C268.004 321.513 268.195 322.447 268.559 322.984C269.033 323.684 269.617 323.984 270.397 323.549C271.116 323.148 271.362 322.507 271.098 321.696C270.887 321.047 270.224 320.352 270.987 319.732C274.205 317.109 270.142 317.695 269.493 316.377Z" fill="#151515"/>
<path d="M212.47 282.251C212.301 288.793 211.514 295.257 210.003 301.624C209.69 301.583 209.385 301.546 209.068 301.513C209.801 294.992 210.535 288.47 211.265 281.957C211.668 282.058 212.063 282.157 212.47 282.251Z" fill="#151515"/>
<path d="M276.98 19.1659C278.169 18.713 278.532 19.9442 279.381 20.032C280.419 20.1425 281.51 19.6531 281.18 18.7905C280.526 17.0768 280.716 16.0022 282.258 14.9754C282.605 14.7468 282.092 13.9482 281.473 13.6921C280.726 13.3791 279.795 14.4528 279.115 13.3203C279.835 11.7749 281.075 11.8193 282.347 12.391C283.503 12.9201 284.102 13.9665 283.931 15.2451C283.76 16.5236 283.106 17.6895 283.107 19.0597C283.112 20.8812 281.706 21.5641 280.189 21.7088C278.415 21.89 277.171 21.1409 276.98 19.1659Z" fill="#151515"/>
<path d="M30.0635 317.996C31.3369 316.373 32.6154 316.366 33.7866 317.21C34.9277 318.034 35.4793 319.363 34.781 320.672C34.198 321.771 34.1828 322.881 34.0079 324.018C33.7327 325.783 32.4324 326.486 30.8565 326.384C29.2085 326.274 27.8413 325.554 27.8114 323.573C29.0169 323.051 29.2099 324.004 29.7059 324.44C30.3727 325.024 31.2948 325.016 31.6291 324.389C32.4721 322.814 31.9771 320.924 33.0396 319.186C33.6061 318.26 31.0964 318.986 30.0635 317.996Z" fill="#151515"/>
<path d="M148.134 187.492C150.456 188.395 152.072 190.322 154.088 191.675C156.857 193.53 159.574 195.422 162.654 196.764C163.641 197.193 164.963 197.371 165.3 199.155C162.878 198.882 160.914 197.717 159.003 196.666C155.587 194.788 152.411 192.511 149.406 189.997C148.554 189.279 147.952 188.598 148.211 187.436C148.211 187.436 148.134 187.492 148.134 187.492Z" fill="#151515"/>
<path d="M212.534 262.677C213.813 268.524 213.097 274.311 212.325 280.096C211.287 277.95 211.261 266.233 212.014 262.814C212.188 262.775 212.365 262.727 212.534 262.677Z" fill="#151515"/>
<path d="M198.092 280.968C200.087 281.637 200.198 283.526 200.005 284.966C199.408 289.361 199.029 293.828 197.453 298.078C196.628 292.324 199.244 286.702 198.134 280.955L198.092 280.968Z" fill="#151515"/>
<path d="M197.642 231.833C198.994 236.693 200.345 241.553 201.697 246.413C201.491 246.516 201.276 246.615 201.069 246.717C198.129 242.247 196.801 237.348 197.174 232.007C197.326 231.951 197.487 231.897 197.642 231.833Z" fill="#151515"/>
<path d="M195.303 363.948C195.29 359.478 197.01 355.393 198.056 350.647C199.242 353.842 198.535 357.315 195.303 363.948Z" fill="#151515"/>
<path d="M33.8912 115.264C33.4597 112.056 36.2024 111.003 37.1911 108.956C36.8377 107.701 35.3688 107.919 34.9602 106.915C35.1106 106.736 35.2389 106.464 35.4301 106.403C35.6862 106.319 36.017 106.338 36.2731 106.432C37.6068 106.886 39.4335 106.893 39.8699 108.433C40.3085 109.993 38.4104 110.306 37.5801 111.211C36.3432 112.556 35.1198 113.916 33.8912 115.264Z" fill="#151515"/>
<path d="M192.376 327.109C192.667 331.691 191.755 336.074 190.132 340.326C189.667 335.707 191.149 331.432 192.376 327.109Z" fill="#151515"/>
<path d="M186.354 237.083C187.118 241.07 187.884 245.048 188.648 249.035C188.451 249.113 188.253 249.19 188.053 249.276C185.386 246.051 185.584 242.024 185.018 238.213C184.979 237.936 185.525 237.575 185.803 237.255C185.983 237.199 186.166 237.135 186.354 237.083Z" fill="#151515"/>
<path d="M201.318 340.648C201.556 337.124 201.817 333.59 203.711 330.488C204.341 334.2 202.554 337.369 201.318 340.648Z" fill="#151515"/>
<path d="M198.137 280.947C197.042 277.964 195.626 275.059 195.732 271.768L196.115 271.618C197.734 274.532 199.313 277.45 198.095 280.96C198.092 280.968 198.137 280.947 198.137 280.947Z" fill="#151515"/>
<path d="M142.27 180.594C145.007 182.231 146.625 184.816 148.131 187.5L148.211 187.436C147.788 187.439 147.158 187.62 146.964 187.408C145.082 185.364 142.764 183.609 142.188 180.639C142.188 180.639 142.27 180.594 142.27 180.594Z" fill="#151515"/>
<path d="M187.114 225.064C188.579 227.837 187.988 230.508 186.672 233.166C186.434 230.527 185.995 227.898 186.596 225.249C186.779 225.185 186.943 225.123 187.114 225.064Z" fill="#151515"/>
<path d="M208.544 307.85C207.975 306.186 208.099 304.627 209.231 302.624C210.179 304.915 209.5 306.401 208.544 307.85Z" fill="#151515"/>
<path d="M180.075 215.247C182.448 216.14 182.959 218.392 183.822 220.38L183.907 220.327C181.209 219.68 180.141 217.842 180.165 215.205L180.075 215.247Z" fill="#151515"/>
<path d="M189.668 341.458C190.458 343.644 190.261 345.044 188.858 346.967C188.209 344.757 188.397 343.354 189.668 341.458Z" fill="#151515"/>
<path d="M194.222 321.053C193.879 322.672 194.019 324.252 192.726 325.699C192.529 322.287 192.53 322.287 194.222 321.053Z" fill="#151515"/>
<path d="M186.605 225.252C185.579 223.682 184.119 222.347 183.904 220.335L183.819 220.388C186.447 220.869 187.235 222.651 187.123 225.067C186.943 225.123 186.779 225.185 186.605 225.252Z" fill="#151515"/>
<path d="M199.905 346.469C199.415 344.871 199.692 343.482 200.682 341.586C201.919 343.956 200.904 345.233 199.905 346.469Z" fill="#151515"/>
<path d="M185.803 237.255C185.335 236.82 185.254 236.274 185.448 235.698C185.623 235.172 185.819 234.512 186.539 234.824C186.775 234.921 186.911 235.571 186.877 235.943C186.834 236.34 186.538 236.71 186.351 237.091C186.166 237.135 185.983 237.199 185.803 237.255Z" fill="#151515"/>
<path d="M180.163 215.213C178.927 214.543 178.656 213.523 179.088 212.247C179.252 212.185 179.412 212.132 179.584 212.073C180.384 213.034 180.943 214.038 180.072 215.255C180.075 215.247 180.163 215.213 180.163 215.213Z" fill="#151515"/>
<path d="M191.941 40.1684C193.75 38.6683 195.87 39.5617 197.842 39.4536C200.841 39.2829 203.832 39.4656 206.783 40.3935C201.867 40.9275 196.978 41.3398 192.058 40.587L191.941 40.1684Z" fill="#151515"/>
<path d="M229.423 115.82C234.011 117.116 238.12 119.128 241.609 123.509C238.223 123.152 236.996 120.702 235.025 119.507C233.098 118.347 230.675 117.998 229.423 115.82Z" fill="#151515"/>
<path d="M192.055 40.5953C190.389 41.529 188.665 41.4194 186.084 41.0684C188.415 39.4509 190.117 39.3649 191.938 40.1766C191.941 40.1684 192.055 40.5953 192.055 40.5953Z" fill="#151515"/>
<path d="M228.8 132.683C230.396 132.145 231.991 131.738 233.59 133.406C231.651 134.315 230.234 133.324 228.8 132.683Z" fill="#151515"/>
<path d="M235.188 133.067C236.599 133.464 238.013 133.854 239.423 134.252C237.571 135.408 236.054 135.121 234.735 133.941C234.88 133.647 235.034 133.357 235.188 133.067Z" fill="#151515"/>
<path d="M245.772 128.073C244.208 127.122 242.536 126.289 241.712 123.509C243.84 125.016 245.752 125.58 246.217 127.805C246.072 127.893 245.925 127.988 245.772 128.073Z" fill="#151515"/>
<path d="M224.778 132.27C225.138 132.056 225.48 131.741 225.864 131.666C226.438 131.559 227.198 131.661 227.159 132.378C227.116 133.131 226.395 133.025 225.861 132.819C225.467 132.665 225.117 132.395 224.751 132.166C224.751 132.166 224.778 132.27 224.778 132.27Z" fill="#151515"/>
<path d="M181.909 41.6033C181.654 41.6594 181.28 41.8593 180.945 41.8015C180.477 41.7228 180.328 41.3115 180.575 40.8959C180.795 40.5269 181.186 40.4082 181.6 40.5325C182.08 40.6812 182.178 41.0269 181.909 41.6033Z" fill="#151515"/>
<path d="M278.176 145.454C278.294 143.481 279.578 143.1 281.401 143.247C280.861 144.915 279.524 145.182 278.131 145.372C278.128 145.38 278.176 145.454 278.176 145.454Z" fill="#151515"/>
<path d="M190.894 205.387C193.586 205.769 196.319 206.195 199.066 206.531C200.017 206.647 201.11 206.862 200.717 207.956C199.502 211.354 199.711 215.09 197.916 219.147C197.169 216.058 197.889 213.771 198.261 211.516C198.806 208.152 198.878 208.16 195.656 207.639C194.212 207.407 192.759 207.2 191.331 206.899C190.629 206.743 190.512 206.194 190.894 205.387Z" fill="#151515"/>
<path d="M202.439 207.662C207.024 207.259 211.518 207.029 215.902 208.27C211.32 209.274 206.811 208.832 202.439 207.662Z" fill="#151515"/>
<path d="M257.879 141.652C259.185 142.003 260.103 142.669 259.3 144.137C258.833 144.996 257.905 145.274 257.023 144.714C256.059 144.096 254.776 143.989 253.966 142.725C255.117 141.638 257.229 143.721 257.958 141.616C257.961 141.608 257.879 141.652 257.879 141.652Z" fill="#151515"/>
<path d="M238.777 150.083C237.518 150.013 236.181 150.205 235.376 148.774C236.859 148.542 237.89 149.156 238.777 150.083Z" fill="#151515"/>
<path d="M256.151 139.008C257.408 139.443 258.192 140.192 257.876 141.661L257.958 141.616C256.565 141.375 256.072 140.396 255.936 139.135C255.939 139.127 256.151 139.008 256.151 139.008Z" fill="#151515"/>
<path d="M121.597 66.0975C122.841 62.9254 125.837 61.7687 128.415 60.1199L128.382 60.0325C128.325 60.5933 128.482 61.4393 128.171 61.6719C126.072 63.2716 124.38 65.5468 121.544 66.0123L121.597 66.0975Z" fill="#151515"/>
<path d="M109.53 80.235C109.703 78.0097 111.231 76.7904 113.315 74.8755C112.958 78.0086 111.651 79.4687 109.786 80.5828C109.798 80.5776 109.53 80.235 109.53 80.235Z" fill="#151515"/>
<path d="M142.306 53.0242C141.763 54.0627 141.06 54.9013 139.754 54.9077L139.785 55.0034C139.566 52.9245 140.739 52.7189 142.347 53.1146C142.347 53.1146 142.306 53.0242 142.306 53.0242Z" fill="#151515"/>
<path d="M139.751 54.916C139.078 55.5215 138.657 56.6892 137.411 55.9957C137.272 55.9162 137.189 55.454 137.289 55.2845C137.983 54.1143 138.886 54.5129 139.785 55.0034C139.785 55.0034 139.751 54.916 139.751 54.916Z" fill="#151515"/>
<path d="M128.418 60.1118C129.341 59.2885 130.298 58.6752 131.552 59.4747L131.507 59.3925C130.769 61.0905 129.659 60.9444 128.385 60.0245C128.385 60.0245 128.418 60.1118 128.418 60.1118Z" fill="#151515"/>
<path d="M131.552 59.4745C131.646 59.2185 131.735 58.9511 131.846 58.7012C132.155 57.9895 132.681 57.6579 133.466 57.844C133.551 57.8661 133.642 58.0779 133.644 58.2005C133.653 59.0669 133.109 59.3729 132.345 59.4102C132.068 59.4211 131.796 59.3959 131.518 59.3872C131.507 59.3924 131.552 59.4745 131.552 59.4745Z" fill="#151515"/>
<path d="M121.544 66.0123C121.499 66.2866 121.479 66.5701 121.407 66.8435C121.249 67.4234 120.928 67.8868 120.247 67.7764C120.044 67.7394 119.73 67.4733 119.713 67.289C119.655 66.5826 120.238 66.3752 120.764 66.194C121.02 66.1101 121.315 66.1249 121.589 66.0945C121.597 66.0975 121.544 66.0123 121.544 66.0123Z" fill="#151515"/>
<path d="M115.83 72.5564C115.496 72.1895 115.543 71.7843 115.807 71.4222C116.086 71.0466 116.5 70.9176 116.83 71.3206C116.972 71.4949 116.976 71.8905 116.886 72.1105C116.705 72.5504 116.318 72.736 115.83 72.5564Z" fill="#151515"/>
<path d="M259.65 217.448C263.474 219.776 267.3 222.096 271.123 224.424C270.956 224.7 270.794 224.987 270.626 225.264C266.391 223.647 262.588 221.288 259.118 218.359C259.297 218.05 259.474 217.749 259.65 217.448Z" fill="#151515"/>
<path d="M235.529 268.477C235.906 268.268 236.275 268.029 236.673 267.866C237.082 267.698 237.554 267.665 237.847 268.065C237.965 268.23 237.966 268.634 237.85 268.797C237.547 269.211 237.095 269.063 236.701 268.909C236.3 268.751 235.907 268.569 235.509 268.403C235.509 268.403 235.529 268.477 235.529 268.477Z" fill="#151515"/>
<path d="M158.926 46.0808C160.674 44.1638 162.73 43.5235 165.189 44.5892C163.264 45.7654 161.287 46.7257 158.926 46.0808Z" fill="#151515"/>
<path d="M212.481 132.317C210.672 133.789 208.761 134.342 206.619 132.999L206.65 133.095C208.482 131.866 210.392 131.341 212.506 132.401L212.481 132.317Z" fill="#151515"/>
<path d="M212.506 132.401C212.878 132.182 213.221 131.886 213.629 131.773C214.005 131.668 214.458 131.713 214.841 131.817C214.952 131.848 215.081 132.365 214.989 132.537C214.684 133.11 214.114 133.256 213.539 133.035C213.154 132.884 212.833 132.559 212.492 132.312C212.481 132.317 212.506 132.401 212.506 132.401Z" fill="#151515"/>
<path d="M99.5188 97.8319C99.8816 93.003 102.699 89.5571 105.158 85.9133C105.492 86.102 105.826 86.2907 106.168 86.4824C103.95 90.2618 101.74 94.0443 99.5188 97.8319Z" fill="#151515"/>
<path d="M100.441 112.844C98.5772 110.647 96.1655 108.688 97.2346 105.227C98.2283 107.826 100.597 109.721 100.941 112.634C100.774 112.704 100.608 112.774 100.441 112.844Z" fill="#151515"/>
<path d="M97.4613 103.594C96.7836 102.021 97.4323 100.694 98.0928 98.5449C99.1542 100.934 98.1882 102.257 97.4613 103.594Z" fill="#151515"/>
<path d="M116.426 131.483C119.657 133.508 122.556 135.927 124.9 138.986C121.401 137.228 118.018 135.334 116.009 131.723C116.151 131.644 116.292 131.565 116.426 131.483Z" fill="#151515"/>
<path d="M245.561 213.448C244.186 213.616 242.692 214.107 241.59 212.209C243.341 211.682 244.408 212.835 245.561 213.448Z" fill="#151515"/>
<path d="M159.131 139.902C158.006 142.498 155.806 142.766 153.386 142.56C154.898 140.799 156.947 140.204 159.131 139.902Z" fill="#151515"/>
</g>
<defs>
<clipPath id="clip0">
<rect width="278" height="350" fill="white" transform="translate(0.5 0.769287)"/>
</clipPath>
</defs>
</svg>
