<svg xmlns="http://www.w3.org/2000/svg" xmlns:xlink="http://www.w3.org/1999/xlink" viewBox="0 0 595.28 841.89"><defs><style>.cls-1{fill:none;}.cls-2{clip-path:url(#clip-path);}.cls-3{fill:#1d1d1b;}</style><clipPath id="clip-path"><rect class="cls-1" width="595.28" height="841.89"/></clipPath></defs><g id="Layer_2" data-name="Layer 2"><g id="Layer_1-2" data-name="Layer 1"><g class="cls-2"><path class="cls-3" d="M-15.07,879.93h-2.17c-10.06-43.62-58.18-79.47-89-108.37-33-31-70.09-61-96.46-98.07-23.33-32.81-7.48-51,22.07-71.08,32.82-22.25,69.34-38.75,104.05-57.72,22.43-12.26,71-32.5,76.33-62.56,4-22.58-9-51.08-15.73-72-12-37.59-26-74.52-38.37-112-4.64-14.06-9.19-28.23-12.92-42.57-2.87-11.05-2.43-26-6.36-36.31-7.24-19.08-28.08,5.08-37.73,14.12-24.27,22.72-46,48-70.51,70.51-9.84,9-33.24,35.08-36.3,10.24-1.43-11.69,3.92-30.24,6-41.21,4.73-24.65,10.45-49.11,16.18-73.55C-176.37,116-149,31.9-147.28-54.21c1.86-91.87,6.88-183.68,7.68-275.57.87,0,1.32,0,2.25,0-.23,92-5.74,183.89-7.31,275.84-1.46,86.28-26.47,169.83-45.14,253.69-5.44,24.42-10.86,48.87-15.2,73.52-2,11.57-6.74,29.5-5.27,41.68,2.94,24.35,25-1.55,34.53-10.66,23.69-22.56,44.8-47.7,68.29-70.46,9.13-8.84,29.22-33.12,36-14.58,3.81,10.39,3.31,25.1,6.18,36.16,3.72,14.36,8.3,28.55,13,42.62,12.46,37.56,26.57,74.55,38.68,112.23C-6.9,431.1,6.1,459.54,2,482.1c-5.49,30-53.91,50.24-76.35,62.55-34.66,19-71.12,35.59-103.91,57.86-29.63,20.12-45.4,38.18-22,71,26.37,37,63.3,67,96.24,98C-73.17,800.6-25.47,836.31-15.07,879.93Z"/><path class="cls-3" d="M-8,879.76l-2.08.07c-11-43.55-57.72-79-88.66-108.28-32.7-31-69.21-60.94-95.48-97.79-23.52-33-7.92-50.71,21.82-71,32.68-22.34,69-39.12,103.51-58.28C-46.43,532,1.66,511.69,7.41,481.82,11.75,459.25-1.23,430.91-8,410.06c-12.37-37.94-26.88-75.15-39.62-113-4.75-14.11-9.42-28.35-13.17-42.77-2.72-10.48-2-26.33-5.87-35.91-3.39-8.29,0-7.75-10-5.17-7.87,2-17.69,15.45-22.69,20.64-21.92,22.76-41.7,47.51-63.75,70.14-9.47,9.71-27.7,34.37-31,11.49-5.25-36.12,9.76-80.45,16.64-115.29,16.67-84.3,36.11-166.33,37.68-252.4,1.69-92.69,8.37-185.31,8.38-278,1.06-.09,1.61-.15,2.73-.28-.34,93.23-7.5,186.34-9.57,279.54-1.89,85.71-19,167.05-34.87,251.28-6.58,34.94-20.7,78.83-15.16,114.94,3.42,22.35,20.44-1.92,29.81-11.78,21.46-22.62,40.76-47.2,62.13-69.92,4.85-5.16,14.35-18.52,22-20.65,9.78-2.7,6.16-3.19,9.46,4.88,3.88,9.52,3.06,25.41,5.79,35.84,3.77,14.46,8.49,28.73,13.29,42.87,12.9,37.95,27.59,75.27,40.1,113.35C1.18,430.71,14.2,459,9.78,481.62,4,511.45-44,531.82-66.4,544.33c-34.47,19.24-70.68,36.12-103.3,58.5-10.69,7.33-25.06,16.53-31.51,28.52-8.51,15.8.29,29.25,9.75,42.52,26.2,36.77,62.51,66.72,95.07,97.68C-65.46,801-19.16,836.26-8,879.76Z"/><path class="cls-3" d="M-1.1,879.4l-2,.13c-11.51-43.34-56.8-78.4-87.62-108-32.17-30.88-68-60.78-93.89-97.33-9.44-13.31-18.3-26.7-9.79-42.49,6.45-12,20.77-21.24,31.41-28.63,32.45-22.52,68.45-39.65,102.73-59.1,22.37-12.69,69.93-33.26,75.9-63C20.19,458.3,7,430,0,409.08-12.93,370.63-28.13,333-41.45,294.68c-4.94-14.22-9.8-28.6-13.67-43.16-2.74-10.35-1.87-26.35-5.71-35.74-3.13-7.64.88-7.28-8.54-4.31-7.36,2.31-16.19,15.47-20.79,20.59-20.23,22.53-38.58,46.69-58.84,69.19-9.06,10.07-23.89,33.54-27.47,12.34-6.06-35.82,6.07-78.4,12-113.32,8.36-49.5,18.23-98.84,24.82-148.62,4.43-33.39,2.92-65.34,4.18-98.74,3.56-94.81,11.84-189.47,13.81-284.34l3.16-.5c-3,95.7-11.7,191.17-16.12,286.81-1.54,33.23.64,65.27-3.45,98.54-6,49.14-15.49,97.83-23.39,146.69-5.63,34.78-17,76.74-10.76,112.32,1.38,7.93-1.74,8.52,4.61,9s18.43-17.43,22.07-21.54c19.84-22.42,37.84-46.39,57.67-68.81C-83.38,226-74.79,213-67.54,210.58c9.28-3.06,5.18-3.37,8.26,4.11,3.84,9.34,3,25.42,5.72,35.73,3.92,14.62,8.85,29,13.87,43.31C-26.17,332.21-10.74,370,2.38,408.63c7.1,20.91,20.39,49.27,15.79,72-6,29.72-53.4,50.39-75.75,63.17-34.19,19.55-70.09,36.8-102.44,59.39-10.63,7.42-24.92,16.7-31.36,28.69-8.49,15.79.36,29.16,9.78,42.47,25.77,36.46,61.33,66.33,93.32,97.17C-57.54,801.19-12.69,836.16-1.1,879.4Z"/><path class="cls-3" d="M5.52,878.87,3.58,879c-11.65-43-55.45-77.75-85.91-107.49-31.48-30.73-66.43-60.52-91.77-96.73-9.35-13.36-18.13-26.67-9.69-42.44,6.41-12,20.6-21.36,31.18-28.87,32.11-22.8,67.76-40.35,101.7-60.16,22.29-13,69.27-34,75.3-63.64,4.66-22.95-9-51.41-16.29-72.41C-5.55,368.21-21.59,330-35.66,291.08c-5.2-14.4-10.33-29-14.39-43.73-2.81-10.23-2-26.57-5.85-35.77-3.21-7.61,1.36-6.3-7.8-3.74-6.71,1.88-15.59,15.73-19.53,20.31-19,22.08-36.33,45.6-55.3,67.73-3.37,3.93-15.16,21.8-21,21.37-6.16-.45-2.44-.75-4.23-8.59-7.74-33.88,3.38-76,8.22-109.3,6.84-47.11,15.48-94,20.33-141.42,3.37-32.92-.18-64.95,2.1-97.73,6.83-97.9,16.73-195.6,22.52-293.57l3.53-.7c-7.13,99-17.54,197.78-25.5,296.74-2.61,32.58,1.43,64.5-1.68,97.25-4.41,46.55-12.71,92.67-19.18,139-4.61,33-15.2,74.39-7.3,107.79,1.85,7.82-1.93,8,4.12,8.43,5.68.4,17.31-17.4,20.59-21.27,18.66-22,35.66-45.33,54.45-67.21,3.92-4.55,12.6-18.26,19.25-20.17,9.07-2.61,4.48-3.88,7.69,3.61,3.91,9.15,3.09,25.62,5.93,35.82,4.13,14.84,9.35,29.46,14.64,43.92,14.32,39.14,30.64,77.53,44.54,116.83,7.45,21.05,21.22,49.58,16.55,72.62C21.06,508.91-25.75,530-48,543.13c-33.84,19.93-69.38,37.62-101.37,60.52-10.56,7.55-24.69,17-31.09,29-8.4,15.76.32,29,9.63,42.42,25.13,36.1,59.81,65.85,91,96.52C-49.46,801.32-6.11,836,5.52,878.87Z"/><path class="cls-3" d="M11.93,878.19l-1.88.21C-4.13,825.74-62.47,782.8-99.64,745.64c-21.83-21.82-96.21-80.5-68.8-117.18,29.38-39.31,86.52-61.13,127.6-85.91,30.27-18.26,79.89-40.85,73.61-82.76C26,414.69,3.09,370.4-13.69,328.5c-15.85-39.58-27.8-78.31-38.2-119.23-2.66-10.47.12-10.78-10-4.25-12.68,8.15-22.85,25.49-32,37C-105,255.89-115.79,270-127,283.77c-7,8.58-15.22,22.37-26.2,26.15-7.81-36.08-.49-76.4,4.2-112.6,7.37-56.94,21.59-116.93,17.95-174.63-3.24-51.33,5-101.88,10.62-153.15,7.47-68.48,15.15-136.94,22.21-205.46l3.86-.86q-12,103.95-24.39,207.88c-6.07,51.58-15.61,102.74-11.82,154.41,4.14,56.4-9.74,115.28-16.77,171-4.51,35.74-11.2,75-3.56,110.59,10.84-3.83,18.91-17.43,25.82-25.94,11.07-13.63,21.73-27.6,32.65-41.35,9-11.38,19.09-28.54,31.64-36.62,10.09-6.5,7.32-6.17,10,4.21,10.67,41.13,22.82,80.05,39,119.82,17.08,42.1,40.44,86.63,47.38,132,6.4,41.86-43.12,64.69-73.3,83.09-40.95,25-97.85,47-127.1,86.43-27.22,36.66,46.31,95,68.12,117C-59.82,782.87-2.12,825.71,11.93,878.19Z"/><path class="cls-3" d="M18.17,877.38l-1.83.25C2.17,823.2-59.2,777.59-96.57,738.87c-22.07-22.87-83.5-72.42-60.62-107.93,12.34-19.15,36.36-33,55.1-45.12,25-16.15,50.8-30.85,75.9-46.77,30.48-19.32,76-41.48,67.9-83.46C32.86,409.49,9.91,365.3-8.1,322.3-18.23,298.13-28.47,273.92-37,249.12c-3-8.68-5.85-17.38-8-26.3-1.24-5.12-.3-20.7-3.3-24.31-4.9-5.9-2.74-6.79-12.52,2.09-10.45,9.47-19,21.58-27.79,32.57-11.73,14.74-23,29.83-35,44.37-5.91,7.17-13.3,19.8-22.79,21.61C-155.9,208.87-119.22,119.64-129.24,30-135-21.79-121.07-75.93-114-127.49-104.39-198-95-268.56-84.85-339l4.14-1c-11,71.25-20.93,142.66-31.2,214C-119.36-74.3-134.6-19.17-128.36,32.77c6.11,50.75-6.79,105.25-13,155.46-4.48,36.42-6.89,70.94-3.1,107.44,9.37-1.8,16.66-14.27,22.49-21.35,11.82-14.37,23-29.28,34.59-43.83,8.65-10.85,17.14-22.82,27.48-32.17,9.72-8.78,7.57-7.84,12.5-2,3,3.55,2.15,19.3,3.41,24.4,2.21,9,5.14,17.72,8.18,26.44,8.7,25,19.14,49.32,29.47,73.64C12.06,364,35.43,408.45,44.56,454.88c8.24,41.95-37.12,64.35-67.51,83.85-25,16-50.73,30.86-75.57,47.12-18.68,12.23-42.58,26.18-54.85,45.38C-176.06,666.73-115.49,716-93.47,739-56.43,777.67,4.23,823.17,18.17,877.38Z"/><path class="cls-3" d="M24.26,876.46l-1.79.28C9.19,823.14-49.77,777.79-86,739.26-107.9,716-166.24,667.43-144,632c12.09-19.32,35.69-33.56,54.22-46,24.56-16.55,50-31.67,74.74-48C15.11,518,60.11,495,51.39,453.06c-9.81-47.22-34.23-92.27-53.45-136.14C-12.88,292.22-23.82,267.5-33,242.13c-3.2-8.84-6.28-17.7-8.64-26.81-1.31-5.06-.67-21.18-3.71-24.63-5-5.69-2.66-6.61-12.39,1.82-10.15,8.81-18.38,20.68-26.72,31.13-11.25,14.08-22,28.55-33.51,42.45-5.63,6.81-12.66,18.94-21.7,20.62-9.51-82.91,25.61-165.41,14.35-247.56-7.18-52.31,10.89-109.85,19.16-161.83C-94.5-196-83.3-269.41-70.59-342.56l4.36-1.12c-13.31,73.93-25,148.15-37.15,222.27C-111.94-69.33-131-10.79-123.56,41.66-117,87.73-129.2,137.83-135,183.42c-4.26,33.71-6.35,65.48-2.62,99.26,8.88-1.6,15.81-13.59,21.33-20.27,11.3-13.7,21.93-28,33-41.84,8.22-10.29,16.34-22,26.37-30.66,9.69-8.35,7.27-7.3,12.29-1.69,3.07,3.42,2.52,19.67,3.86,24.74,2.42,9.16,5.58,18.07,8.84,27,9.39,25.55,20.55,50.44,31.59,75.3,19.6,44.14,44.45,89.46,54.59,137,8.93,41.91-35.89,65.18-66,85.33C-36.31,554-61.67,569.28-86.1,586-104.56,598.54-128,612.9-140,632.28c-22,35.48,35.4,83.63,57.25,107.1C-46.95,777.86,11.28,823.11,24.26,876.46Z"/><path class="cls-3" d="M30.24,875.46l-1.76.31C16.27,823-40.22,778.09-75.09,739.68c-21.69-23.89-76.68-71.1-55.24-106.62,11.79-19.52,35-34.18,53.25-47,24.13-17,49.2-32.55,73.48-49.3,30-20.66,74.34-44.57,64.87-86.47-11-48.43-36.88-94.41-57.4-139.24C-7.7,285.74-19.39,260.44-29.3,234.47c-3.44-9-6.77-18.06-9.36-27.37-1.41-5.1-1.06-21.61-4.21-25-5-5.4-2.28-6.89-11.94,1.32S-72.32,203-80.2,212.87c-10.41,13-34.39,56.78-52,59.66-2.86-32-1.28-61.59,3-93.47,5.75-42.38,17.63-89.13,11.21-132-3-19.79-1-34.68,2.63-54.77,6.67-37,13.08-74,19.5-111,13.17-75.93,25.84-152,40.14-227.69l4.54-1.21c-14.51,76.44-27.53,153.18-41,229.81C-98.66-80.5-105.21-43.13-112-5.81c-3.66,20.06-5.79,35-2.8,54.8,6.29,41.58-5.54,86.95-11.36,128-4.41,31.13-5.75,59.85-3.41,91.08,19.22-6.66,38.37-43,50.76-58.56,7.72-9.7,15.39-20.87,24.91-28.94s6.78-6.44,11.71-1.14c3.18,3.43,2.91,20,4.37,25.16,2.66,9.36,6.07,18.46,9.58,27.53C-18.12,258.26-6.2,283.72,5.6,309.17c20.93,45.13,47.32,91.38,58.62,140.19,9.71,41.91-34.45,66.08-64.35,87-24.15,16.87-49.1,32.59-73.1,49.69-18.22,13-41.25,27.79-52.95,47.37-21.21,35.53,32.74,82.35,54.36,106.41C-37.36,778.15,18.39,823,30.24,875.46Z"/><path class="cls-3" d="M36.13,874.4l-1.74.32C23.44,822.88-30.53,778.31-64,740.12c-21.45-24.48-72.84-70.34-52.2-105.89C-104.72,614.49-82,599.36-64,586.09c23.68-17.42,48.33-33.47,72.16-50.67C38,514,81.59,489.13,71.29,447.19,59.09,397.49,31.6,350.55,9.7,304.68c-12.36-25.87-24.84-51.77-35.52-78.38-3.7-9.21-7.29-18.45-10.12-28-1.58-5.28-1.48-21.93-4.79-25.47-4.86-5.2-1-7.18-10.88.63C-60.76,180.73-68,192-75.13,201.12c-11.41,14.54-29.62,49.64-47.37,55.81-.65-29.46,0-56.26,4.8-85.6,6.13-37.9,18-80,12.25-118.58-2.92-19.62-.57-34.9,3-54.8Q-92.1-59.14-82-116.29c13.86-78.13,27.48-156.31,41.9-234.35l4.67-1.28q-21.16,118-41.74,236Q-87.34-58.37-97.53-.87c-3.51,19.8-5.87,35.25-3,54.77,5.41,37.43-6.52,78.14-12.85,114.78-4.94,28.57-5.35,54.72-5.61,83.41,17-6,34.73-40.52,45.67-54.6,6.8-8.76,13.86-20.32,22.82-27.06,10-7.55,5.56-5.6,10.41-.39,3.37,3.63,3.33,20.24,5,25.62,2.91,9.58,6.58,18.88,10.36,28.14,10.92,26.82,23.64,52.89,36.23,78.94,22.33,46.2,50.28,93.43,62.87,143.52,10.55,42-32.85,67-62.54,88.77C-12,552.36-36.48,568.56-60,586.11c-18,13.4-40.55,28.66-51.9,48.47-20.38,35.56,29.91,81,51.27,105.68C-27.65,778.37,25.56,822.85,36.13,874.4Z"/><path class="cls-3" d="M42,873.3l-1.73.33c-9.1-48.14-55.51-89-86.1-125C-66.73,724-123.07,672-101.72,635.43c24-41.09,77.11-68,114.39-95.69C40.1,519.4,90.61,490.41,83.1,450c-9.2-49.43-40.76-98-62.83-142.33C-.59,265.78-31.07,219.05-38,172c-1.21-8.16,2.35-14.87-6-12.35-8.13,2.47-16.92,18.92-21.57,25-13.74,18.09-25.65,41.11-42.88,56-11.07-59.23,27.06-120.19,22.56-180.39-4-53.75,10.34-108,19.34-161.48C-52.32-185.76-37.62-270.28-24.27-355l4.75-1.31c-12.29,85.16-26.91,170-40.75,254.91C-69-47.77-82.26,6.36-78.86,60.3c3.72,59.08-27.88,116.37-25.06,175.34,12.89-11.64,22-28.88,32-42.91,7.86-11,19.06-33.46,32.7-38,6.55,23,11,45.63,21.08,68.4C1.63,267.58,24.79,310.44,46.25,354c14,28.41,42.48,72.19,41.51,105.09-.82,27.58-30.22,47.64-49.52,63.25-32.32,26.14-67.37,48.75-99.3,75.38-22.8,19-51,40.87-37.54,72.92,16,38.07,50.33,71.23,76.45,102.19C2.7,802.34,34.86,834.26,42,873.3Z"/><path class="cls-3" d="M47.78,872.18l-1.72.33C39.69,834,8.79,802.24-15.21,772.9c-25.14-30.72-58.26-63.72-73.29-101.29-12.8-32,14.67-54.19,37.16-73.58,31.44-27.1,66.07-50.23,97.91-76.83,19.11-16,48.15-36.53,48.64-64.16.6-33.52-29.09-78-43.64-106.77-32.44-64.14-78.69-130.66-89-202.39-26.08,13.79-38.19,56.09-57.8,77.43,4-23,5.66-45.53,12.39-68.63,9.12-31.34,23.14-64.42,23.23-97.55C-59.51,4.69-51.08-48.79-43.29-103-31-188.35-16.91-273.66-8.2-359.47l4.77-1.33C-16-220.9-49.46-82-52.93,58.18c-.81,32.41-15.31,64.34-25,94.78C-85,175.49-86.44,198.21-92,220.47c18-20.94,30.35-62.31,55.17-75.54,2.37,24.68,11.67,47,22.16,69.68C6.46,260.14,31,304,53.8,348.69c14.8,28.95,45,73.69,44.55,107.47C98,483.82,69.11,504.59,50.08,520.7,18.44,547.5-16,570.85-47.24,598.14-69.61,617.69-96.77,640-84.25,672c14.62,37.36,47.24,70.28,72,100.9C11.35,802.2,41.72,833.9,47.78,872.18Z"/><path class="cls-3" d="M53.59,871.06l-1.72.33c-1.55-36-35.27-70.33-56.41-97.41-24-30.7-54.52-62.63-69-99.54-12.37-31.53,11.74-53.76,33.44-73.68,32.45-29.78,68.87-54.9,101.86-84,19.61-17.33,48-40.11,42.94-69.34-6.93-39.87-33.4-79.49-51.93-114.52C29.34,288.62,4.43,245-16.47,199.5c-9.23-20.1-16.79-40.71-19.32-61.87-22,16-32.29,48.65-48.7,69.82,4.21-7.42,2.78-17.22,4.27-25.56,2.54-14.23,7.3-28,12.07-41.57,9.7-27.63,24-56.85,24.45-86.71C-41.68-85.88-4.91-224.77,7.89-364l4.74-1.31C-.67-226.3-38.42-87.48-40.43,51.83c-.41,28.93-14.64,57.08-24.32,83.73-4.79,13.18-9.54,26.51-12.1,40.34-1.54,8.34-.09,18.16-4.54,25.5,15.09-20.19,25.37-52.14,46.3-66.89,1.75,21.6,10.23,42.3,19.58,62.42C5.78,242.75,31.08,286.66,54.87,331.2c18.84,35.25,45.71,75.09,52.89,115.27,5.23,29.25-23,52.22-42.55,69.72C32.43,545.55-3.79,570.9-36,600.89c-21.56,20.06-45.4,42.42-33.31,73.93,14.09,36.71,44.15,68.57,67.7,99.16C19.17,801,52.3,835.29,53.59,871.06Z"/><path class="cls-3" d="M59.44,870l-1.73.32C57,835.05,25.27,801,5.23,774c-22.4-30.14-51.91-62.09-64.59-98.27-11.1-31.67,11.54-53.93,33-74.54C5.38,570.73,41.16,544.83,73.44,515c19.37-17.91,47.2-41.35,41.63-70.64-7.78-40.89-35.59-81.25-55.13-117C35.22,282.07,9,237.46-13.2,190.9-23.4,169.5-28.14,149-33.4,127c-18.19,10.65-29.25,41.85-40.89,58.92,4.86-7.3,3.39-17,5-25.45,2.51-12.89,7.16-25.22,11.93-37.41C-47.82,98.8-34,73.24-33.79,46.54c.42-54,10.45-107.51,19-161.19C-1.21-199,14.5-283.39,23.83-368.36l4.67-1.28c-10,84.78-26.07,168.9-40.07,253.08C-17.84-78.86-24.2-41.15-29.52-3.3c-2.55,18.14-1.07,33.63-2.16,51.24-1.7,27.39-16.48,52.45-26,77.63-4.39,11.6-8.33,23.44-9.81,35.81-.77,6.44-.36,12.21-3.83,17.81,10.12-15.87,21.53-46.64,38.66-55.34,13.34,72.51,59.25,137.43,94.75,201.86,19.83,36,48,76.57,56.06,117.75,5.71,29.31-22,52.93-41.26,71-32.07,30-67.66,56.18-99.18,86.84C-43.64,622.07-66,644.45-55.2,676.1-42.88,712.08-13.9,744,8.1,774,27.83,801,59,835,59.44,870Z"/><path class="cls-3" d="M65.35,868.92l-1.75.31c-.36-42.09-42-85.43-64.86-118C-20.43,724-60.8,678.37-44.56,642c19-42.52,68.58-73.95,102.5-104,25.17-22.31,75.38-57.28,67.42-96.6-4.23-20.85-16.39-41.59-26-60.28-15.75-30.64-32.95-60.55-50-90.5-27-47.5-63.52-98.11-77.71-151.46-4.37-16.44,1.2-32.18-13.88-11.76-8.32,11.26-15,23.66-22.79,35.25,8.87-13.75,7.37-36.14,13.8-52.11C-42.1,88-27.82,65.7-26.64,40.76c.82-17.48-.57-31.71,2.34-49.88,6-37.55,12.91-75,19.73-112.38,15.22-83.55,32.27-167,44-251.11L44-373.83C31.41-290,14-206.94-1.8-123.72-8.87-86.45-16-49.18-22.33-11.78-25.41,6.45-24.16,20-24.75,37.5c-.8,23.87-15,45.05-23.87,66.52-6.61,16-5,37.58-13.8,51.52C-54.87,145-48.88,133.26-40.91,123c15-19.36,9.17-1.78,13.32,13.6,14.5,53.7,51.51,104.58,78.86,152.35C68.53,319.06,86,349.15,102,380c9.74,18.79,22.08,39.63,26.42,60.6,8.12,39.33-41.83,74.62-66.91,97.13-33.76,30.31-83,62-101.87,104.68-16,36.3,23.27,81.46,42.3,109C24.41,783.88,65.23,827.08,65.35,868.92Z"/><path class="cls-3" d="M71.36,867.94l-1.79.29C69.93,826.93,31,784.1,9.32,751.57c-18.63-28-55.51-72.19-40-108.38,18.42-42.91,67-75.32,100.41-106.2,24.85-23,74.22-59,65.74-98.31-4.58-21.27-17.32-42.34-27.37-61.35C91.58,346.06,73.59,315.55,55.78,285c-28.2-48.4-66.3-99.9-81.5-154.41-3.66-13.13,2.63-34-12.12-18.15-7.22,7.77-11.8,18-18.65,26,8.58-14.48,6.68-34.23,13.73-50.26C-34.38,69.08-20.88,51-20.53,29.37c.08-4.85-1.5-9.42-1.65-14.11-.38-11.46,2-22,4.27-33.7,7.08-37,14.79-73.87,22.43-110.75C21.6-211.55,40-293.78,54.63-376.62L59-377.74c-16.28,86.35-36,172.08-54.4,258-7.45,34.81-15,69.62-21.9,104.54C-20.43.55-18,12.67-18.76,28c-1,20.22-14.41,36.93-22.23,54.83-7,16-6.64,32.84-13,48.61,6.17-7.15,11-19.8,18.91-25,4.31-2.85,3.81-4.51,7.56-3.07.07,0,3.68,27.84,4.76,30.77,20.46,55.72,55.69,107,85.55,158,17.6,30,35.35,60,51.47,90.89,9.25,17.7,22,38.37,25.09,58.46,6,38.46-45.49,76-69.52,98.41C37.46,570-10.92,602.74-27.38,645.24-41.27,681.09-5,725.12,13.17,752.82,34.31,785,71.92,827.27,71.36,867.94Z"/><path class="cls-3" d="M77.49,867.06l-1.83.25c.89-40.2-34.92-82-55.3-114.29C2.62,724.92-31.51,681.69-18,646c16.15-42.74,63.84-76.11,95.87-106.78,23.8-22.8,74.72-61,68.48-99.5-3.3-20.33-16.39-41.21-25.88-59.07-16.61-31.25-34.86-61.65-53-92.06C36.79,237,.64,185.13-20.58,128.67c-3-8.1-4.1-15.62-5.22-23.94-.14-1,1.69-7.34.34-8.14-3.82-2.26-1.06-2.15-6.7.08-6.42,2.54-11.21,14-16.4,18.22,5.57-16,5.73-32.59,13.17-48.13s20.18-29.24,20.91-47.31c.18-4.37-1.06-8.38-1.37-12.67-.78-10.78.46-18.12,2.88-29C-5.35-56.71,2.66-91.06,10.62-125.43c19.67-84.9,40.16-169.65,58.51-254.85,1.67-.42,2.5-.62,4.14-1-19.13,84.7-39.9,169-60,253.5C4.41-90.85-4.48-53.93-12.93-16.91c-3,13.08,1.42,22.7.11,35.52-1.72,16.92-14.59,29.11-21.5,43.94-6.16,13.22-9.85,32-11.65,45.86,3.82-3.47,11.75-17,17.08-17s2.52,1,4.51,6c1,2.56-.41,9.77-.06,12.67,1,8.09,4.73,16,7.83,23.43C7.48,191.17,44.05,244.55,76,298.08c17.78,29.81,35.72,59.64,51.66,90.5,8.39,16.25,21,36.23,22.1,55,2.21,38.52-51.36,78.74-75.5,102-28.88,27.84-80.61,64.77-90.53,106-8.32,34.58,22.91,74.61,39.63,101.5C43.57,785.64,78.49,826.74,77.49,867.06Z"/><path class="cls-3" d="M83.77,866.28l-1.88.22c1.17-39.91-32.06-80.6-51.58-113.23-16.24-27.15-45.81-66.65-37.68-101,9.8-41.41,60.71-78.79,89.4-107.16,23.93-23.65,76.89-64.47,74.53-103-1.17-19-14.09-39.1-22.66-55.45-16.36-31.21-34.74-61.37-53-91.52C48.21,241.05,10.77,187.12-14,128.75c-5.49-13-4.77-24.63-8-36.88-1.08-4.06.93-7.81-4-8.69C-30.44,82.42-37.3,91.7-41,93.49-39.92,79.76-35.19,59.38-28.67,47-22,34.25-9.38,25.24-7.68,10.21-6.27-2.23-11-11.07-7.78-23.87Q5.8-78.56,19.72-133.18C40.81-216.62,62.15-300,82.81-383.53l3.87-.87C57.71-270.44,28-156.66-1.16-42.75c-3.58,14-6.63,22.45-5.41,35.86.66,7.28,2.5,13,0,20.2-2.78,8-9.54,13.37-14.42,19.94-5.3,7.15-21.73,53.23-16.22,54.21,3,.54,7-7.14,10.67-7.15,9.22,0,4.44,12.44,4.74,18.26,1.85,35.89,35,79.44,52.16,108.52,27.78,47,57.1,93.11,84.59,140.31,15.59,26.76,46,65.6,45,98.73-.83,29-36.81,60.3-54.73,78.76-28,28.86-58.5,55.75-84,87-17.54,21.5-30.86,41.8-23.38,70.07,8.79,33.17,31,63.85,48.26,93.07C61.54,801.23,85,834.46,83.77,866.28Z"/><path class="cls-3" d="M90.24,865.64l-1.94.17c1.2-31.58-21.1-64.46-36.09-90.8C35.62,745.86,14.37,715.36,6,682.52c-7.21-28.28,5.88-48.62,23.23-70.31,25.18-31.49,55.33-58.75,83.06-87.94,17.76-18.71,53.38-50.36,54.15-79.36.89-33.43-30-72.5-45.85-99.4-28.1-47.67-58-94.23-86.42-141.72C16.51,174.22-16.67,131-19,94.48c-.49-7.63,4-17.76-4.38-21.85-2.65-1.3-7.18,4.19-9.41,2.91-4.27-2.46,4.15-19.88,4.76-22.62,3-13.45,3.28-21.61,13.16-32.24C-10,15.48-2.95,12,0,5.21S.58-6.58.34-13.37c-.47-13.37,1.84-21,5.57-35.12C35.7-161.1,65.84-273.63,95.5-386.27l3.55-.7C69.48-274.77,39.13-162.78,9.36-50.64c-3.7,14-5.94,21.58-5.58,34.85.18,6.55,2.49,11.6-.62,18s-10.34,9-15.26,13.69C-22.5,25.69-22.84,33.79-25.88,47c-1.08,4.65-9,19.24-5,24,1.31,1.56,6.93-2.55,8.94-1.24C-14,75-18.27,84.82-17.7,93c2.55,36.71,35.67,79.81,53.55,109.58C64.47,250.22,94.65,297,123,344.82c16,26.94,47,66.1,46.16,99.63-.76,29-36.24,60.78-53.94,79.58-27.6,29.32-57.63,56.73-82.7,88.31-17.27,21.77-30.28,42.12-23.17,70.4,8.22,32.72,29.08,63.15,45.41,92.26C69.55,801.41,91.39,834.13,90.24,865.64Z"/><path class="cls-3" d="M96.92,865.15l-2,.13c.93-31.36-19.87-63.72-34.28-90.29-15.78-29.07-35.76-59.34-43.73-91.77-6.95-28.32,5.88-48.63,23-70.57,24.84-31.8,54.58-59.54,81.93-89.13,17.55-19,52.74-51,53.51-80,.9-33.74-30.6-73.05-46.75-100.08C99.79,295.15,69.07,248,39.94,200,21.6,169.68-11.27,127.08-14.33,89.82c-.81-9.85,2.64-18.06-4.21-26.12-1.7-2-6.67-.1-7.94-2.41-3.62-6.63,4-20.7,5.57-26.79C-17.65,21.7-16.74,13.4-5,5.69.28,2.25,8.08,1.53,11.84-4s1.65-10.53,1.68-16.64C13.6-33.61,15.44-41.35,19-55,47.87-166.23,78.9-277,107-388.42c1.29-.21,1.92-.32,3.17-.51C83.23-277.62,51.82-167.41,23.67-56.4,20.28-43,18.69-35,18.35-22.23,18.2-16.36,20.25-11.11,16-6.06S3.84-1-1.7,2c-12.38,6.78-13.73,15.2-17.16,28C-20.67,36.7-28,50.46-24.6,57.79c1.2,2.61,6,1.52,7.56,3.78,6.29,9,3.34,16.7,4.25,27.16,3.28,37.47,36,79.81,54.51,110.3C71,247.27,102,294.53,131,343c16.2,27,47.85,66.41,46.92,100.21-.79,29-35.86,61.11-53.36,80.18C97.3,553,67.67,580.9,42.92,612.77c-17.1,22-29.87,42.29-23,70.62,7.89,32.33,27.53,62.53,43.1,91.59C77.33,801.63,97.72,833.84,96.92,865.15Z"/><path class="cls-3" d="M103.84,864.84l-2.08.07c.39-31.25-19.1-63.09-33.08-89.94-15.14-29.07-34-59.12-41.83-91.24-6.91-28.38,5.76-48.51,22.8-70.69,24.59-32,54-60.16,81-90.07,17.38-19.22,52.21-51.53,53.11-80.45,1.06-33.9-30.87-73.35-47.19-100.39-29.42-48.75-60.77-96.31-90.5-144.87C27.1,166.27-5,124.65-8.81,86.68c-1.07-10.74,1.32-19.4-4.48-29.08-1.64-2.74-5.61-3.42-6.82-6.57-3.11-8,3.78-22.45,6-29.68C-10.06,8.49-7-.56,6.82-4.9c6.26-2,15.41-.13,20.67-4.65,5.09-4.38,3.8-9.22,4.35-15.25C33-36.92,33.78-46.13,36.66-58.74c25.28-110.7,58-219.84,80.58-331.14,1.12-.13,1.67-.19,2.74-.29-20,111.43-53.46,220.25-77,331-2.58,12.09-3,22.23-4.52,33.92-.79,6.27.07,10.79-5.43,15C27.24-6,17.43-8.65,10.76-7-3.7-3.49-7.69,5.46-12.09,18.67-14.67,26.4-21,40.31-18.21,48.9c1.09,3.38,5,4.57,6.57,7.53C-6.24,66.51-8.15,75.06-7,86.07c4,38.16,35.81,79.42,55,110.64,29.88,48.67,61.38,96.33,90.95,145.2,16.35,27,48.37,66.49,47.23,100.41-1,28.9-35.7,61.26-53,80.52-27,30-56.25,58.22-80.79,90.3-17,22.25-29.67,42.3-22.74,70.71,7.82,32,26.41,62,41.4,91.11C84.86,801.91,104,833.6,103.84,864.84Z"/><path class="cls-3" d="M111,864.72l-2.16,0c-1-64.69-57.9-119.23-73.19-180.69-7.09-28.49,5.53-48.28,22.58-70.69,24.46-32.16,53.54-60.6,80.37-90.74,17.23-19.36,51.8-51.77,53-80.59,1.38-33.9-30.77-73.37-47.14-100.31-29.84-49.1-61.66-97-91.82-145.86-19.57-31.74-50.39-72-55-110.61C-3.65,74-2.81,65.43-7.51,55c-1.53-3.4-5.16-5.44-6.1-9.24C-19.08,23.59-1.43-7.22,21.08-9.93c8.28-1,19.14,3.32,26.89-.53C61.32-17.12,58.1-46.48,60.15-59c18.17-110.92,54.1-219.69,65.8-331.56.93,0,1.39,0,2.26,0-7.31,112-44.52,221.23-59.81,332.3-1.9,13.76,2.22,42-13.3,48.63C46.45-6,34.94-10.93,25.86-10.18c-23.42,1.95-43.7,31.82-37.5,55.4,1,3.87,4.29,6.21,6,9.69C-.8,65.16-1.58,74.16-.2,85.18c4.82,38.76,35.13,78.56,54.87,110.53,30.25,49,62.18,96.9,92.11,146.07,16.36,26.89,48.53,66.34,47,100.21-1.28,28.78-35.79,61.18-53,80.57C114,552.75,85,581.27,60.57,613.45c-17.07,22.47-29.7,42.13-22.51,70.66C53.56,745.59,109.39,800.05,111,864.72Z"/><path class="cls-3" d="M119.21,865.24c-1.07-.12-1.59-.18-2.6-.26-.1-31.22-18.94-62.81-32.69-89.86-14.82-29.17-33.13-59.19-41-91.21-7-28.37,5.66-48.21,22.63-70.48,24.55-32.22,53.77-60.68,80.71-90.86,17.26-19.33,51.91-51.72,53-80.57,1.27-33.93-30.62-73.48-46.93-100.52-29.4-48.75-60.77-96.27-90.49-144.83C42.59,165.21,11.3,124.23,7.21,85.89,6,74.62,7.37,66.11,1.68,55.82-.47,51.94-4.63,49.38-6,45-13.74,21.52,7.67-8.25,30.72-10.37c9.5-.87,21.72,4.12,30.72.14C77-17.09,72.69-45.73,74.67-59.79,90.17-170,125.14-278.31,133.72-389.42a18.49,18.49,0,0,1,2.53,1.25C127.13-277.91,93.16-170.46,77.57-61c-2,14.28,2.28,42.91-13.25,50-9.07,4.13-21.79-.51-31.43.29C9.87-8.85-12,21.91-3.5,45.07c1.68,4.59,6.18,7.31,8.63,11.38C11.3,66.74,9.66,75.19,10.8,86.59c3.82,38.12,35.4,79.51,54.42,110.73,29.44,48.32,60.54,95.62,89.67,144.14,16.26,27.09,48,66.63,46.8,100.55-1,28.89-35.75,61.26-53.05,80.57-27,30.17-56.36,58.6-81,90.83-16.95,22.2-29.6,42.11-22.69,70.43C52.81,716,71.4,746.09,86.36,775.29,100.18,802.24,119.38,834,119.21,865.24Z"/><path class="cls-3" d="M129,866.78c-1.25-.24-1.86-.35-3.06-.56.69-31.26-19.47-63.58-33.49-90.35-15.36-29.31-34.71-59.73-42.58-92.18-6.86-28.24,5.9-48.29,22.85-70.32,24.84-32.27,54.47-60.63,81.76-90.78,17.41-19.23,52.43-51.55,53.32-80.54,1-33.79-30.18-73.23-46.27-100.33C133.13,293.84,102.77,247.15,74,199.47,55.51,168.72,23.64,126.71,20.35,89.1c-1.05-11.95.89-20-6.33-30.6-3.17-4.63-8.8-7.78-11-13.06C-7,21.87,14.87-9.73,38.6-12.3c10.25-1.11,24,2.89,33.5-1.81,15.82-7.83,11.32-35.93,13.52-51,15.54-106.51,47.15-211.09,57.13-318.35,1.14,1,1.73,1.5,2.92,2.64-10.28,106.35-41.35,210-56.51,315.69-1.86,13,1.67,39-10,47.72-9.81,7.36-28.06,2.7-39.51,4.44C17.54-9.66-4,21.58,5.05,44,7.82,50.92,14.92,54.77,19,60.77c6.68,9.95,4.94,18.93,6.29,30.32,4.17,35.29,29.55,70.33,47.38,100.42,30.5,51.47,63.31,101.55,93.6,153.15,15.72,26.77,46.63,66.9,43.83,99.12-2.45,28.21-31.82,55.35-49.86,75.36-29.46,32.67-62.13,63.16-88.64,98.38-15,19.94-25.76,39.21-19.94,64.72,7.48,32.76,27.46,63.61,43,93C109,802.23,129.88,835.14,129,866.78Z"/><path class="cls-3" d="M140.29,869.23c-1.41-.34-2.11-.51-3.47-.82,1.15-31.83-20.9-65.34-35.55-92.25-16.1-29.6-37-60.83-44.68-94-5.9-25.51,5-44.84,20.11-64.68,26.85-35.25,59.92-65.66,89.74-98.3,18.19-19.91,47.95-47,50.35-75.33,2.72-32-27.48-71.74-42.94-98.43C144.47,294.68,112.6,245.46,83,194.86,65.52,164.94,40.79,130.23,36.7,95.28c-1.43-12.16.22-20.94-7.39-31.28-5-6.84-13.68-11.4-17.29-19.28-10.8-23.55,11-55.53,34.28-60.2C58.79-18,78.47-14.26,89-22.68c12.05-9.68,8.33-34.5,10.36-48.54C114-172.27,142.59-271.45,153-373.1c1.29,1.48,1.94,2.25,3.27,3.87C145.91-269.87,118.37-172.86,104-74.06c-2,13.94,1.81,39.49-10.61,48.86-11.52,8.7-30.67,5.52-44.12,8.52C25.8-11.46,3,21.2,15.09,45.1c4.23,8.33,13.3,13.13,18.82,20.46,8,10.59,6.48,19.21,8,31.79,4.09,34.79,28.45,69.29,45.79,99.13,29.18,50.19,60.62,99,89.59,149.33,15.34,26.64,45.19,66.22,42.49,98.05-2.4,28.33-32.34,55.44-50.6,75.31-30,32.63-63.25,63-90.25,98.26-15.17,19.8-26.16,39.16-20.19,64.68,7.8,33.39,29.1,64.8,45.47,94.5C119,803.51,141.53,837.28,140.29,869.23Z"/><path class="cls-3" d="M152.85,872.47l-3.84-1c1.32-32.63-22.88-67.42-38.31-94.61-16.44-29-36.32-58.27-45.58-90.49-8.39-29.17,2.85-48.66,21-71.47,28.18-35.44,62.21-66,92.87-99.16,17.39-18.82,44.48-43.23,48.18-70.25,4.45-32.6-31-80.52-45.7-106-24.66-42.74-50.67-84.68-75.54-127.3-18.29-31.34-48.35-72-51.55-109.9-1.12-13.25.14-21.37-9.16-32.71-6.44-7.85-16.1-13.3-21.57-22C8,22.85,30-11.95,54.87-19.35c14.93-4.43,35.78-2.21,48.87-11.76,14.49-10.57,9.71-32.5,12-48.3,13.3-93.53,38.63-185.36,48.74-279.33,1.41,1.91,2.12,2.9,3.57,4.93-9.87,91.19-34.07,180.37-46.93,271.14C118.78-66.42,123.46-45,108.73-34,95.15-23.9,73.63-25.61,58.1-20.7,32.44-12.59,10.16,22.83,27,48.22c6,9.11,16.23,14.93,23.2,23.26,9.7,11.59,8.73,19.73,9.91,33.4,3.27,37.7,32.68,77.9,50.81,109.18,24.46,42.2,50.06,83.74,74.31,126.07,14.53,25.37,49.5,73,45,105.36-3.74,27.06-31,51.46-48.49,70.23-30.87,33.17-65.11,63.68-93.48,99.12-18.24,22.79-29.59,42.28-21,71.51,9.48,32.45,29.75,61.94,46.48,91C129.41,804.61,154.17,839.68,152.85,872.47Z"/><path class="cls-3" d="M166.5,876.41l-4.14-1.23c1.21-33.61-25.56-70.12-41.73-97.36-16.69-28.12-35.78-56.2-46.86-87.14-11.56-32.23,1.36-53.63,22-78.47,25.45-30.59,55.11-57.52,82.83-86,19.32-19.85,58.32-52.1,59.73-83.37,1.36-29.92-23.2-63.8-36.84-88.7-26.58-48.53-55.85-95.52-82.9-143.78-16.85-30.05-38.83-63.43-43.4-98-2-15.34-1.9-24.15-12.71-36.22C54,66.68,42.51,59.79,35,49.36c-20.18-28.18,4.63-64.69,33.09-74,16.23-5.3,37.59-5.5,51.92-15.78,17.5-12.55,12.6-36.5,15.34-55.47,11.83-82,32.52-162.71,41.42-245.09,1.52,2.29,2.28,3.46,3.83,5.85-8.35,77.63-27,154-38.63,231.14-3.12,20.78,2.29,48.29-17.79,61.35C109.45-33,90.1-32.33,73.76-26.85,44.46-17,16.15,19.82,38.1,49.58c8.78,11.9,22.14,19.67,31.68,30.89,10,11.72,9.76,20.39,11.17,34.35,3.5,34.54,27.69,70,44,99.18,25,44.83,51.82,88.64,76.59,133.61,13.8,25.05,42.84,66.76,39.62,97.07-3.08,29-37.31,58.62-56.19,78-28.17,28.95-58.37,56.13-84.66,86.86-21.49,25.13-36.4,46.71-24.87,79.65,11,31.44,30.71,59.85,47.76,88.19C139.79,805,167.62,842.2,166.5,876.41Z"/><path class="cls-3" d="M181.08,880.92l-4.4-1.39c.82-35.19-29-73.54-46.42-101.6-17.91-28.85-38.8-57.87-50.14-90.16-10.7-30.49,2.44-50.41,22.23-74.13,28.31-33.94,62.25-63,93.18-94.49,18.49-18.82,50-45.21,53.82-72.8,4.51-32.35-27.55-78.07-41.8-104-22.36-40.72-46.13-80.65-68.41-121.41-16.4-30-36.93-63.28-41.93-97.54-2.57-17.57-3.67-26.21-16.65-39.89-10.08-10.61-22.66-18.8-32.13-30-26.07-30.87-1-70.57,31.8-83.1,18-6.88,39.36-8.46,55.76-19.11,22-14.27,17-37.47,20.32-60.49,10-70.39,27.23-140.2,33.69-211,1.6,2.6,2.41,3.92,4,6.6C188-246,172-179.3,162.65-112c-3.27,23.57,1.39,45.82-21,60.5-17,11.14-39,13.16-57.69,20.51C50-17.67,24.52,22.72,52.26,54.45c10.19,11.67,23.29,20.4,34,31.55,13.4,14,15,22.8,17.74,40.88,5.08,34,24.84,66.71,41,96.6,21.8,40.24,45.07,79.66,66.94,119.86,14,25.78,45.43,71,40.87,103.06-3.94,27.63-35.68,54-54.28,72.76-31.17,31.46-65.35,60.5-93.9,94.44-20,23.75-33.27,43.6-22.31,74.21,11.67,32.57,33,61.78,51.23,90.83C151.29,806.81,181.75,845.45,181.08,880.92Z"/><path class="cls-3" d="M196.41,885.9l-4.61-1.52c-3.35-38.54-30.62-73.71-51-105.11C121.72,749.82,99,719.7,87,686.34c-9.82-27.35,1.33-47.12,19.21-68.5,28.81-34.46,63.9-63.6,95.84-95,19.07-18.76,57.38-49,59.62-79.13,2.14-28.78-20.35-61.85-32.89-86.15-22-42.63-46.31-84-68.7-126.41-15.66-29.65-35.43-62.11-40-96.06-2.27-16.82-5-26.84-17.35-40.16C89.8,81,73.66,70.38,61,56.21,31.36,23.21,54-17.51,90.38-33.12c21.9-9.41,47.78-12.57,67.48-26.54,20.52-14.55,17.3-34.95,20.06-57.19,7.5-60.2,21-119.88,25.94-180.38l4.21,7.2c-4.48,57.7-17,114.64-23.65,172.11-2.36,20.53-.3,39.52-17.78,54C147.8-48.28,119-44.55,96.91-35.32,58.75-19.35,33,21.08,64.07,56.53c24.59,28.07,59.44,42.68,63.71,82.95,3.52,33.11,23.81,66.53,39,95.51,20.52,39.1,42.59,77.37,62.9,116.59,12.73,24.58,39.05,64.86,34.94,94-4.36,30.82-42.86,61.26-63.19,80.85-30.38,29.26-63.08,56.79-90.71,88.78-18.1,20.95-32,41.37-22.1,69.56,13,37.06,39.38,70.29,60.49,102.79C168.41,817.22,193,849.63,196.41,885.9Z"/><path class="cls-3" d="M212.3,891.23l-4.75-1.61c-4.19-37.74-30.28-70.55-50.78-101.16-22.05-32.93-50.25-67.33-63.49-105.21-10.19-29.2,6.2-49.58,25.34-70.78,29-32.14,62.66-59.87,94-89.66,19.11-18.19,55.74-47.22,60.72-75.46,5.15-29.16-19.49-66.76-31.56-91-20.57-41.24-43.4-81.32-64.08-122.5-13.38-26.63-29.35-55.34-33-85.43-5-41.09-42-58.6-68.69-86.59-37.76-39.63-12.74-82.45,33.06-101,23-9.3,50.15-14.14,70.54-29,19.1-13.94,18.87-32.1,20.82-53.66C205-172.09,215-221.91,218.24-272.34l4.33,7.64c-2.7,47.26-11.41,94-15.25,141.16-1.77,21.65-2.15,39.81-21.51,53.5C164.45-54.94,137-49.7,113.1-40c-47.71,19.37-72.25,62.37-33,103.15,27.52,28.56,66.73,47.31,72,89.45,3.75,29.75,18.85,57.85,32,84.34,20.09,40.53,42.31,80,62.29,120.57,11.81,24,35.77,61.12,30.56,89.9-5.12,28.29-42.06,57.28-61.29,75.42-31.58,29.78-65.48,57.47-94.75,89.6C101.64,633.63,85,654,95.48,683.28c13.65,38.23,42.36,72.86,64.85,106.05C181.19,820.12,207.81,853.16,212.3,891.23Z"/><path class="cls-3" d="M228.59,896.81l-4.85-1.67c-5-36.32-29.62-67.29-50-96.7-24.47-35.37-55.53-71.3-71.45-111.65-12.44-31.53,1.18-48.94,22.87-72.85,29.88-33,65.28-60.84,97.83-91,20.69-19.19,60.94-49.72,63.66-81.16,2.29-26.51-20.15-63.25-31-85.82-29.3-60.74-75.82-125.36-85.48-193.27C163.73,117.41,118,94.8,88,64.35,49.31,25,68.42-18,116.06-38.88,142.32-50.37,171.8-56,196.45-71c22.3-13.58,26-29.21,27.22-53.67,2-40.56,7.84-80.89,9.32-121.48l4.41,7.93c-1,37.64-5.28,75.12-6.76,112.74-1,24.66-5.72,40.07-28.09,53.49-25.41,15.25-55.62,21-82.63,32.73C95.71-28.75,73.14-13.93,69,14.05c-3.19,21.5,8.46,36.87,23.1,51.61,30.82,31.06,78.9,55,85.73,101.31,9.88,67,54.07,130,82.67,190.21,10.61,22.34,32.33,58.48,30,84.62-2.86,31.5-43.46,62-64.28,81.12-32.81,30.17-68.47,58-98.63,91-22,24-35.72,41.27-23,73,16.38,40.71,48,76.88,72.91,112.55C198.18,829,223.29,860.17,228.59,896.81Z"/><path class="cls-3" d="M245.08,902.51l-4.89-1.69C234,863,207.31,830.92,185.47,800.53c-25.13-35-54.42-69.45-73.35-108.39-15.15-31.15-6-49.08,16.53-73.83,30.51-33.52,67-61.67,100.9-91.63,21.82-19.3,60.79-48,68.68-78.26,6.33-24.26-12.14-56.7-21.47-77.83-27.4-62-70.75-125-80.37-193-7-49.3-63.24-77.09-95.6-109.84C85,51.76,70.8,35.3,75.71,11.62c6-28.95,31.81-42.14,57-52.45,28.69-11.73,61.49-17.54,87.78-34.56,21.57-14,26.36-28.5,26.69-52.68.42-30.35.84-60.73.77-91.08l4.45,8.06c.43,28.13,1.75,56.31,1.65,84.45-.22,60.23-68.36,67.32-113.78,84.53C115-32.54,85.72-19.12,78.45,9.64c-6.06,24,9.07,42.2,25,58.3,34.34,34.59,91.35,62.69,100.42,113.9C215.46,247,252.28,305.58,278.8,365.59c9.95,22.51,28.25,54.29,24,79.85-5.18,30.8-44.11,58.2-65.79,77.47-34.54,30.69-71.77,59-103.5,92.68-22.76,24.17-35.26,42.82-20,74.82C132.43,730,162.63,765,188.28,800.26,210.79,831.22,238.43,863.84,245.08,902.51Z"/><path class="cls-3" d="M261.61,908.24l-4.88-1.69c-7.61-39.95-36.91-73.47-60.62-105.29-27-36.14-58.59-71.56-78.12-112.51-15.4-32.28.53-52.48,23.71-76,33.28-33.79,71.73-62.23,107.19-93.61,21.18-18.75,59.31-45.55,63.26-76.5C315,420,299.4,390.54,291,370.42c-24.16-58.18-59.07-115-68.55-177.92C214.72,141,151.9,108.33,117.08,75.14c-16.62-15.84-37.21-35.8-33.33-60.8C88.44-16,121.88-30.1,147.3-39.27,190.69-54.91,279.86-62.89,274-124.92c-2.11-22.46-8.33-44.57-11-67l4.45,8c3.47,20.79,12.27,40.78,15.06,61.6,8.25,61.57-94,70.53-135,85.32-25.11,9.07-59.61,24-61.86,55.24C84,41.47,104.92,60.82,119.94,75.35c36.4,35.19,100.62,68.15,110.22,121.57C241.4,259.46,273,315.11,296.72,373.68c8.34,20.63,22.25,47.9,18.46,70.88-5.12,31-46.16,59.93-67.68,78.45-33.54,28.86-68.75,56-100.57,86.83-24,23.27-43.09,44-27.62,77.09,19.44,41.62,52,77.57,79.47,114C223.16,833.16,253.54,867.65,261.61,908.24Z"/><path class="cls-3" d="M278,913.88l-4.83-1.65c-9.07-41.92-41.17-77.34-66.79-110.51-28.47-36.86-62.95-74-82.7-116.57-14.25-30.76,2.9-49,24.43-70.88,31.41-31.87,68-58.72,102.34-87.35C273.1,508,317,478.23,324.23,446.4c5.37-23.76-10.07-54.13-18.45-75.67-21-54.06-48.23-105.67-57.28-163.3-3.92-24.94-20.74-42.06-38.79-59-26.34-24.71-55.7-46-81.83-70.94C110.82,61.21,84.76,37.16,93.41,10.63c9.08-27.79,44.34-38.72,68.78-46.51,33.4-10.66,155.19-23.76,139.5-80.11-4.87-17.48-19.12-31.07-23.72-48.95l4.39,7.86c4.78,17.4,21.27,27.8,27.17,44.33C328.37-60,200-44.45,170.92-36.09c-25.45,7.31-70,19.52-76.17,51.16-5.25,27.17,24.77,52.65,42,68.51,25.39,23.34,53.21,43.89,78.37,67.47,18.76,17.57,36.47,34.89,41.09,60.92,10.12,57,34.82,107.7,55,161.83,7.2,19.31,20.78,47.87,17.31,69.58-5.12,32-47.56,60.55-70.26,79.62-37.66,31.61-78.6,60.53-112.83,96-23.87,24.73-32.38,40.41-16.16,72.28,20.33,40,52.16,74.83,79.59,109.94C235.42,835.17,268.35,870.91,278,913.88Z"/><path class="cls-3" d="M294.06,919.32l-4.71-1.58c-10.67-44.34-45.35-81-73.18-115.93-28.44-35.7-61.87-71.29-82.58-112.38-16.29-32.32-4.82-48.7,20.11-73.35,36-35.59,78.1-64.58,116.82-97,21.67-18.16,59.65-43.86,65.94-73.52,4.55-21.47-6.43-47.08-13.29-67-18-52.39-40.26-101.54-49.05-156.39-4.31-26.9-25.33-46.17-44.74-63.94C202,133.16,172.09,111.1,144.85,85.93c-16-14.75-47.42-40.27-45-66,3-32.78,50.49-44.63,75.71-51.37,21.92-5.85,175.06-25.47,151.56-73.76-7.36-15.13-29-16.18-34.36-33.6,1.72,3,2.58,4.53,4.3,7.51,6,17.83,28.74,14.56,37,29.32C359.66-55.88,198.75-34.81,179.3-29.86c-25,6.35-74.07,17.57-77.14,50.31-2.43,25.93,30.63,52.39,46.63,67.09,28,25.72,58.68,48.34,86.77,74,19.65,17.92,41.68,37.68,46,64.94,8.55,53.61,29.15,101.81,46.21,153.25,6.53,19.68,16.9,44.82,12.31,65.91-6.46,29.72-44.65,55.33-66.46,73.47-39,32.44-81.37,61.39-117.66,97-25.2,24.7-36.73,41-20.16,73.46,21.11,41.39,55,77.2,83.85,113.16C247.89,837.79,283.06,874.66,294.06,919.32Z"/><path class="cls-3" d="M309.62,924.45,305.08,923c-12-46-48.92-83.82-78.39-119.91C197,766.72,161.22,729.79,140,687.57c-16.67-33.22-1.17-50.88,24.47-74.51,35.1-32.34,74.21-60.14,111.43-89.93,22.89-18.32,64.52-45.39,72.85-75.69,5.87-21.35-5.53-50.36-11.67-70.23C322.5,330,307.36,285.46,299.4,236.8c-4.72-28.91-29.94-49.87-50.51-68.48-30.1-27.24-62.91-51.34-93-78.64-17.54-15.94-51.67-43.16-47.06-70.23,5-29.39,49.88-38.55,73.58-44.15,16.9-4,195.28-27.54,167.42-68.73-9.78-14.45-36.88-.56-42.8-20.49,1.68,2.84,2.51,4.25,4.16,7,5.85,20.48,33.21,3.17,43.78,16.05,31.57,38.47-147,63.31-163.63,66.79C167.88-19.14,118.1-11,110.78,18c-6.76,26.82,30.9,56.59,47.13,71.52,30.87,28.39,64.81,53.22,96.12,81.11,21,18.74,47.6,40.66,52.25,69.85,8.08,50.63,24,96.86,37.84,146.27,4.72,16.86,12.71,39.71,9,57.51C345.94,478.74,299.57,507,274,527.17c-34.8,27.37-70.91,53.32-103.92,82.89-11.2,10-30.7,26.93-35.78,42.35-4.78,14.51,4.1,29.19,11.15,41.26,22.86,39.17,54.69,73.71,83.37,108.58C258.64,838.55,297.18,877.83,309.62,924.45Z"/><path class="cls-3" d="M324.51,929.15l-4.33-1.34c-12.09-43.4-46.47-79.29-74.66-113.22C212.6,775,176.06,736,149.45,691.63c-7.55-12.59-15.51-26.69-9.38-41.3,5.94-14.15,19.57-25.54,30.49-35.61,36.2-33.35,77.07-61.27,115.74-91.61,24-18.86,65.83-44.93,74.11-76.58,5.1-19.5-2.37-43.22-7.2-62.22-11.5-45.18-23.58-87.8-29.71-133.83-3.61-27.07-29.35-48.61-48.27-65.84-35.78-32.54-75.26-60.75-111-93.28-15.91-14.45-51.49-42.56-49-67.9C118.47-9.39,182.64-17,204.74-20.79c39.84-6.85,80.56-10.32,119.72-20.66,11.11-2.94,62.46-20.5,44.78-40.45-11.21-12.65-42.74,13.46-48.32-9,1.6,2.59,2.39,3.87,4,6.37,5.32,23.22,38.46-6,49.85,6.26C393-58.51,339.86-41.23,329.33-38.58c-39.78,10-81,13.19-121.42,19.74-21.65,3.51-87.28,10.4-90.55,43-2.55,25.5,34.31,54.27,50.29,68.71C204.23,126,244.48,154.7,281,187.79c19.09,17.28,45.74,39.24,49.36,66.56,5.94,44.84,16.58,86.78,27.14,131,4.48,18.78,11.41,42.08,6.31,61.24-8.42,31.71-50.4,57.7-74.58,76.54-38.9,30.32-80,58.21-116.43,91.56-11,10.05-24.7,21.43-30.68,35.59-6.2,14.66,1.91,28.81,9.52,41.41,27,44.67,63.94,83.83,97.24,123.68C277.39,849.43,312.19,885.5,324.51,929.15Z"/><path class="cls-3" d="M338.54,933.32l-4.06-1.18c-13.05-44.83-49.46-81.77-79-116.64-34.06-40.18-73.56-80-99.9-126-7.68-13.41-15.06-26.18-7.41-41.4,7.3-14.53,21.48-26,33.37-36.5,38-33.45,80.26-61.48,120.07-92.61,22.5-17.6,60.89-41.39,70.24-70.53,5.75-17.92-.6-41.63-4.07-59.35-4.41-22.61-10.26-44.9-14.93-67.45-4.1-19.77-4.06-39.38-7.1-59.08-4.87-31.56-38.74-57-61.55-76.49-33.32-28.45-68.34-54.84-101.56-83.4C164.37,87,117.85,52.85,123.77,24.29c6.09-29.44,61.94-34.08,85.07-37.5,42.29-6.26,85.25-8.87,127.15-17.6,1.91-.4,78.56-24.51,50-40.15-12.4-6.79-47.77,23.59-51.88.64,1.51,2.27,2.26,3.39,3.74,5.56,3.74,23.73,41-9.68,53.45-2.53,25.73,14.8-41,36.85-44.58,37.66C300.23-19,252.26-17.95,205.29-10.33,184.74-7,133.06-2.92,125.31,23c-8.37,28,42.23,65.24,58.56,79.38,37.18,32.2,77.24,61,113.93,93.78,20.15,18,51.11,41.57,54.94,70.56,2.57,19.39,2.15,38.75,5.86,58.32,4.2,22.23,9.57,44.23,13.52,66.52,2.85,16.06,8.07,37.38,4,53.64-8.21,32.46-52.88,59.54-77.18,78-40.39,30.73-83.71,58.89-121,93.43-10.42,9.63-25.06,21.47-29,35.51-3.7,13.28.93,23.22,7.53,35.12,25.89,46.71,66.51,86.94,100.89,127.26C287.57,850,325,887.63,338.54,933.32Z"/><path class="cls-3" d="M351.53,936.84l-3.73-1C333.69,889,294.59,850.53,263.32,814.3,228.26,773.66,185.89,732.71,160.24,685c-17.05-31.72,1.84-50.17,26.26-71.44,35.83-31.2,75.51-57.83,113.6-86.13,26.25-19.51,72.31-46.45,82.35-79.94,5.38-18,.87-40.08-1.74-58.33-2.77-19.29-6.41-38.44-9.28-57.72-2.83-18.95-1.53-38.76-4.58-57.43-4.87-29.73-36.7-53.83-58-72.24C269.74,168,227.61,138,188.76,104,172.2,89.47,125.53,55.88,129,28.85,132.84-.79,198.31-4.06,217.88-6.5c48.25-6,98.51-6.21,145.88-17.89,8-2,59.8-19.41,38.86-35-12-8.89-53.48,33.2-56.19,6.72,1.41,1.9,2.1,2.82,3.48,4.6,1.5,26.87,45.59-16.73,57-8.35,21.25,15.58-31.44,32.83-39.21,34.68C319.78-10.32,269.08-10.32,220.32-4.57,201.1-2.3,134.66.48,130.9,29.92c-3.47,27.12,44.25,61.14,60.87,75.59,39.52,34.37,82.3,64.83,122,99,21.45,18.41,54.06,42.79,58.95,72.67,3,18.28,1.41,38,3.8,56.56,2.42,18.79,5.63,37.48,7.95,56.28,2.22,18.07,6.37,39.85,1,57.55-10.11,33.54-56.35,60.44-82.7,79.92-38.26,28.29-78.11,54.88-114.12,86.09-24.51,21.24-43.5,39.69-26.35,71.45,25.89,47.94,68.64,89,104,129.85C297.82,851.16,337.32,889.79,351.53,936.84Z"/><path class="cls-3" d="M363.31,939.6c-1.32-.28-2-.42-3.35-.73-14.64-48.14-55.78-87.64-88.15-124.64-34.37-39.27-71.79-77.7-99.67-122-6.86-10.91-16.18-24-12.92-37.74,3.77-16,27.31-34.84,38.36-44.1C234.94,579,275.88,552.24,315,523.21c24.47-18.16,66.77-42.92,77.62-73.71,5.86-16.63,1.91-39.35.59-56.47-1.37-17.91-3.44-35.75-4.93-53.64s.79-37.21-1.53-54.78c-4.07-30.74-41.15-56.65-62.59-75-38-32.54-78.68-61.78-117.3-93.52-18.49-15.19-77.23-55.47-70.15-84.89C143.16,4.34,197.18,3.17,219,.68c50.8-5.8,103-5.52,153.22-15.59,8.07-1.62,65.32-16.75,44.74-34.78-11-9.64-59.33,40.44-59.12,11.31,1.28,1.47,1.91,2.16,3.16,3.49-1,29.81,48.89-22,59.72-12.49,20.85,18.23-37.08,33.16-45.06,34.72C324.92-2.77,272.31-3.16,221.05,2.48c-21.66,2.38-76.25,3.25-82.65,30-7,29.4,52.84,70.11,71.28,85.18,39.19,32,80.46,61.54,119,94.36,21.52,18.33,59.3,44.41,63.39,75.25,2.28,17.24-.26,36.51.86,54.06s2.71,34.88,3.72,52.35c1,17,4.66,39.46-1.13,55.88-10.86,30.82-53.34,55.57-77.87,73.69-39.26,29-80.35,55.79-117.86,87.13-11.07,9.25-34.67,28.09-38.46,44.09-3.26,13.75,6.07,26.84,13,37.75,28.08,44.5,65.76,83,100.36,122.45C307.15,851.68,348.67,891.31,363.31,939.6Z"/><path class="cls-3" d="M373.7,941.5c-1.14-.17-1.73-.26-2.92-.47-14.51-48.59-56.92-88.52-89.69-125.58C246,775.78,207.75,737,179.28,692.12c-6.92-10.92-16.24-24-13-37.75,3.82-16.07,27.47-34.83,38.62-44.07,37.81-31.35,79.23-58.06,118.81-87.06,24.59-18,67.52-42.76,78.34-73.66,5.59-16,2.44-38,2.22-54.68-.22-16.49-.75-33-1-49.48-.27-16.84,2.77-36,.53-52.58-4.18-31-43.37-57.29-65.07-75.5-39.8-33.39-82.3-63.5-122.76-96.06-18.4-14.8-80.63-56.22-73.76-85.59,6.21-26.55,62-26.9,83.43-29.12C277.94,1.15,331.52,1.68,383.3-8c7.84-1.46,67.27-16.17,45.74-34.95-10.46-9.13-63.71,46.43-61,14.83,1.14,1,1.7,1.4,2.8,2.21C367.42,5.7,422.78-50.51,432.72-41c22.43,21.45-47.28,34.89-51.13,35.49C332.8,2.1,283.12,2.88,234,7.44,216.83,9,150.1,10.7,143.17,34.93c-8.38,29.32,56,72.17,72.68,85.65,41.19,33.24,84.24,64.11,125.2,97.63,22.71,18.58,61.32,44.84,66.73,76.23,5.46,31.62-.26,69.91-.47,102.12-.1,15.2,2.57,34.86-1.51,49.56-8.68,31.26-49.28,54.65-73.66,72.81-43.36,32.29-89.73,60.83-130.61,96.35-28.11,24.41-42.52,40.47-21.65,74.39,31.21,50.71,75.57,93.51,114.55,138.15C324.28,862,360.49,897.19,373.7,941.5Z"/><path class="cls-3" d="M382.52,942.42c-.95,0-1.44-.08-2.44-.17-12.83-44.47-49.69-79.78-79.63-113.9-39.35-44.83-84.25-87.79-115.67-138.84-20.8-33.79-6.24-50,21.77-74.27,41.1-35.55,87.75-64,131.35-96.29,24.4-18.06,65.36-41.47,73.83-72.8,3.93-14.54,1.45-33.77,2.17-48.87,1.48-30.83,9.31-68.11,3.91-98.54-5.57-31.41-45.26-57.65-68.08-76-42.1-33.88-86.23-65.12-128.57-98.7-17.24-13.69-82-55.55-74.64-85.39,6-24.22,75.13-26.09,91.5-27.63,50-4.71,100.54-5.63,150.2-13.43,4-.62,74.89-14.33,51.72-36.51-9.45-9-27.4,11.15-34,16.37s-32.7,25-28.91.27a13.49,13.49,0,0,0,2.39.77c-4.33,25.53,22.26,5.26,29-.23s24.65-26.13,34.28-16.91c23.5,22.49-47.83,36.49-51.93,37.14-50,8-100.92,9-151.25,13.87-16.33,1.58-85.93,3.59-91.74,27.94-7.12,29.85,58.08,71.53,75.36,85.14,42.78,33.67,87.33,65,129.87,99,22.86,18.25,62.92,44.41,68.56,75.79,5.42,30.08-3.22,66.87-5.18,97.25-1,15.09,1.51,34.16-2.36,48.68-8.35,31.35-49.46,54.79-73.84,72.8-43.68,32.26-90.43,60.7-131.6,96.27-11.39,9.84-27.55,21.93-32.35,37.11-4.38,13.83,4.08,25.61,10.53,37.09,29,51.69,77.17,94.87,116,139.06C332.78,862.54,369.91,897.9,382.52,942.42Z"/><path class="cls-3" d="M390,942.68c-.89-.07-1.33-.1-2.21-.14-12.44-44.5-49.76-79.9-79.65-113.9C269.26,784.4,221,741.13,191.94,689.35c-6.43-11.47-14.81-23.19-10.44-37,4.81-15.19,20.93-27.27,32.33-37.12,41.18-35.57,88-64,131.68-96.23,24.34-18,65.62-41.45,73.83-72.8,3.8-14.47,1.25-33.31,2.5-48.37,2.46-29.66,12-65.71,6.45-95.19-5.85-31-46.15-56.73-68.83-74.63C316.69,194.3,272,163.11,229,129.68c-17.36-13.49-82.33-54.17-75.84-83.89,5.38-24.67,75.28-27.79,91.69-29.62C295.28,10.56,346.35,8.78,396.38,0c4.46-.78,75.82-16.08,52.22-38.79-9.79-9.42-28,11.89-34.78,17.46s-34.34,26.6-29.17.14l2,0c-5.32,26.4,22.46,5.37,29.22-.13s25.2-26.84,34.93-17.4C474.1-16.11,403.3-.56,398.73.27c-49.69,9-100.44,11-150.53,16.9-16.41,1.92-85.93,5.43-91.26,30-6.42,29.6,58.12,70.21,75.43,83.72,42.7,33.35,87.08,64.49,129.54,98.14,22.59,17.9,62.6,43.63,68.48,74.48,5.58,29.29-3.93,65.13-6.38,94.59-1.24,15,1.32,33.81-2.48,48.22-8.24,31.34-49.49,54.84-73.82,72.81-43.66,32.24-90.38,60.65-131.52,96.2-11.4,9.85-27.53,21.94-32.35,37.13-4.39,13.79,4,25.5,10.46,37,29.06,51.77,77.23,95,116.09,139.33C340.27,862.81,377.48,898.2,390,942.68Z"/><path class="cls-3" d="M397.65,943.68c-.92-.17-1.37-.25-2.28-.39-12.74-44.4-49.7-79.81-79.5-113.93C277.13,785,229.28,741.64,200.2,689.91c-6.45-11.47-14.9-23.15-10.49-36.95,4.85-15.17,21-27.27,32.36-37.13,41-35.5,87.53-63.9,131-96.12,24.29-18,65.41-41.5,73.71-72.78,3.79-14.29,1.21-32.93,2.45-47.81C431.69,370,440.9,335,435.52,306c-5.73-30.94-44.53-56.85-67-75.17C327,197,283.6,165.65,241.87,132.11c-17.1-13.75-80.44-55-73.76-84.4,5.46-24.08,73.12-27.89,89.44-29.91,49-6.08,98.73-8.45,147.34-17.58,4.86-.92,73.63-16.25,51.2-38.57-9.58-9.55-28.65,11.85-35.42,17.21s-35.08,26.34-29.46.07L393-21c-5.72,26.22,22.91,5.22,29.62,0s26.14-26.71,35.68-17.12C480.37-16,412.78-.74,407.75.22c-48,9.18-97.17,11.68-145.63,17.84-16.33,2.07-82.79,6-88.33,29.84-6.83,29.4,55.73,70.85,72.75,84.76,41.21,33.64,84.16,65.08,125.12,99,22.38,18.54,60.48,44.53,66.07,75.51,5.22,28.91-3.81,63.44-6.23,92.47-1.24,14.82,1.34,33.39-2.44,47.61-8.31,31.26-49.36,54.77-73.63,72.77-43.42,32.21-89.88,60.61-130.79,96.08-11.38,9.87-27.48,22-32.33,37.13-4.42,13.81,4,25.48,10.49,37,29.06,51.71,76.77,95.09,115.45,139.5C348,863.87,384.85,899.3,397.65,943.68Z"/><path class="cls-3" d="M405.47,945.45c-.93-.25-1.4-.37-2.33-.6-12.89-44.32-49.45-79.79-79.08-114.05-38.5-44.5-85.86-88-114.84-139.66-6.44-11.48-14.9-23.14-10.48-36.95,4.85-15.13,20.9-27.24,32.25-37.11,40.7-35.42,86.92-63.81,130.12-96,24.19-18,65.05-41.54,73.36-72.72,3.76-14.08,1.17-32.43,2.41-47.11,2.43-28.73,11-62.07,6.24-90.75C438.05,279.74,402,254,380,235.16c-39.44-33.85-80.95-65.19-120.65-98.73-17-14.38-76.39-55.21-69.55-84.58,5.54-23.78,68.12-28.46,84.79-30.87,46.79-6.77,94.32-9.91,140.65-19.68C421,.1,485-15.8,463.48-37.6,453.94-47.28,434-26,427.06-20.74c-6.75,5.11-36,26-30.12-.1l1.55.09c-5.91,26.08,23.6,5.23,30.39.17,7-5.21,27.19-26.45,36.76-16.73C486.92-15.7,424.36.88,418.31,2.24c-45.62,10.25-92.55,13.81-138.68,21-16.9,2.64-78,8-83.43,31.87-6.65,29.35,51.27,69.47,68.34,84,39.12,33.33,80,64.47,118.9,98.1,21.68,18.76,57.07,44.3,62,74.83,4.58,28.51-3.81,61.42-6.24,90-1.24,14.61,1.34,32.87-2.4,46.88-8.3,31.15-49.06,54.67-73.22,72.7-43.09,32.15-89.2,60.54-129.8,95.92-11.33,9.87-27.35,22-32.19,37.11-4.43,13.8,4,25.46,10.46,37C241,743.3,288.16,786.81,326.57,831.36,356.14,865.66,392.58,901.15,405.47,945.45Z"/><path class="cls-3" d="M413.49,947.91c-1-.33-1.44-.48-2.39-.79-12.89-44.25-49-79.82-78.43-114.22-38.16-44.65-85-88.27-113.77-139.94-6.4-11.51-14.82-23.18-10.41-37,4.83-15.08,20.75-27.2,32-37.08,40.32-35.32,86.16-63.68,129-95.78,24.06-18.05,64.55-41.57,72.81-72.64,3.69-13.86,1.12-31.84,2.38-46.29,2.43-28,10.66-60.12,6.17-88.09C446,285.66,411.36,260,389.87,241c-38.07-33.65-78.2-64.86-116.53-98.22-17-14.76-73.82-55.06-67.2-84.26,5.37-23.68,65.15-29.75,82-32.64,45.22-7.74,91.27-11.9,135.94-22.6,6.51-1.56,67.22-18.43,46.65-39.87-9.52-9.92-30.6,11.33-37.71,16.41-6.91,5-37.06,25.62-31.12-.37l1.35.1c-6.38,28.24,29.13,2.05,35.28-2.28,7.1-5,25.07-22.63,33.95-14.09C492.66-17.42,440.24.14,431.22,2.65c-47.05,13-96.64,16.48-144.52,25.48C266,32,217,36.27,212.16,61.86c-5.53,29.1,50.12,68.82,68.18,84.62,37.65,32.93,77.29,63.67,114.24,97.41,20.51,18.72,55.22,44.24,58.94,74.25,3.45,27.78-3.89,58.36-6.4,86.08-1.42,15.68,1.46,35.6-3.55,50.5-10.33,30.69-53.13,55.55-77.35,73.4-39.08,28.8-80,55.3-117.3,86.46-11.21,9.36-34.3,27.91-38.14,44-3.25,13.66,5.75,26.49,12.57,37.4,28.35,45.42,66.4,84.94,101.29,125.33C356.9,858.66,399.46,899.29,413.49,947.91Z"/><path class="cls-3" d="M421.66,951c-1-.4-1.46-.59-2.44-1-13.91-48.59-56.08-89.31-88.13-126.78-34.61-40.48-72.36-80.11-100.47-125.55-6.76-10.93-15.71-23.78-12.47-37.43,3.82-16.06,26.69-34.57,37.86-44,37-31.09,77.64-57.57,116.42-86.31,24.1-17.87,66.54-42.71,76.78-73.31,4.93-14.73,2.08-34.31,3.52-49.81,2.54-27.3,9.31-56.65,6.39-84.07-3.21-30.1-35.93-55.67-56.13-75-35.48-33.93-73.78-64.86-110-98-18-16.49-70.7-56-65.13-85.33,4.78-25.2,50.84-29.93,71.35-34.12C345.32,21,393.23,17,438.45,3.6c9.37-2.77,58.71-20.33,39.11-39.45-8.95-8.72-27.63,8.81-35,13.75-6.36,4.28-42.6,30.12-36.33,2l1.17.12c-6.2,28.12,30.35,2.44,36.82-1.82,7.45-4.92,26.43-22.4,35.42-13.59C499-16.45,451.25,1.1,441.72,4,397.38,17.51,350.3,21.68,305,31.24c-20.44,4.32-65,9.21-69.73,34.22-5.58,29.52,45.55,68.84,63.58,85.72,35.52,33.23,73.17,64.27,107.94,98.31,20.05,19.62,51.75,45.21,54.67,75.37,2.64,27.28-3.83,56.07-6.38,83.19-1.46,15.43,1.37,34.85-3.52,49.52-10.2,30.55-52.48,55.39-76.52,73.26-38.65,28.72-79.15,55.18-116,86.24-11.15,9.4-33.92,27.89-37.72,43.95-3.24,13.64,5.67,26.49,12.42,37.44,28,45.45,65.6,85.12,100.09,125.64C365.8,861.63,407.8,902.39,421.66,951Z"/><path class="cls-3" d="M430,954.53l-2.47-1.1c-13.68-48.56-55.27-89.43-87-127.09-34.18-40.62-71.46-80.41-99.16-125.89-6.69-11-15.5-23.85-12.29-37.48,3.77-16,26.26-34.45,37.38-43.89,36.54-31,76.71-57.41,115-86.08,23.9-17.88,65.77-42.69,75.84-73.15,4.8-14.49,2-33.54,3.5-48.77,2.59-26.7,8.27-54.15,6.4-81.07-2.12-30.36-31.14-55.91-50.78-76.42-32.91-34.34-68.9-65.67-102.61-99.21-18.08-18-65-56.7-59.48-86.75,4.55-24.53,45.21-29.74,65.45-34.4,43-9.89,88-14.49,130-28.28,8.43-2.76,55.12-22.23,34.83-39.29-10-8.39-28.25,7.83-36.59,13.19-6.76,4.35-44,29.43-38,1.43l1,.13c-5.86,28,31.69,3.13,38.6-1.26,8.46-5.37,27.07-21.46,37.1-13C506.81-17,462,2.44,453.35,5.36c-41,13.91-85.08,18.67-127.12,28.69-20.15,4.8-59.08,10.14-63.53,34.46-5.53,30.3,39.53,68.7,57.64,87.23,32.92,33.68,68.18,65.14,100.27,99.63,19.46,20.92,47.28,46.45,49,76.9,1.54,26.73-3.79,53.65-6.4,80.15-1.49,15.15,1.26,34-3.49,48.45-10,30.42-51.71,55.22-75.54,73.1C346,562.62,306,589,269.63,620c-11.11,9.45-33.47,27.85-37.23,43.86-3.2,13.61,5.57,26.5,12.23,37.5,27.57,45.49,64.7,85.33,98.75,126C375,865.06,416.38,906,430,954.53Z"/><path class="cls-3" d="M438.39,958.5l-2.51-1.22c-13.34-48.52-54.33-89.57-85.64-127.43-33.71-40.76-70.49-80.73-97.71-126.27-6.6-11-15.25-23.94-12.09-37.53,3.73-16,25.76-34.3,36.84-43.8,36-30.91,75.69-57.25,113.5-85.84,23.66-17.89,64.9-42.67,74.77-73,4.64-14.22,2-32.73,3.47-47.66,2.62-26,7.21-51.73,6.44-77.94-.9-30.71-25.86-56.12-44.86-78.11C400.48,224.88,367,193.06,335.94,159c-18.18-20-58.62-57.46-53.25-88.43,4.15-23.92,39-29.19,58.92-34.58C381.26,25.3,423,20.57,461.71,6.39c9.1-3.34,49.43-22.66,30-39.06-11.95-10.08-85.33,48.42-78.37,13.38l.9.12c-6.8,35.16,67.36-23.27,79.54-13C513-16,474.49,3.32,465.19,6.85,427.52,21.14,386.64,26,348,36.89c-19.77,5.55-53,10.92-57,34.62-5.27,31.27,33.26,68.35,51.47,89,30.23,34.18,63.05,66.16,92.36,101.15,18.79,22.45,42.59,47.81,43.16,78.62.49,26-3.81,51.3-6.45,77-1.53,14.85,1.12,33.19-3.46,47.33-9.81,30.26-50.86,55-74.44,72.92-37.66,28.56-77.17,54.89-113,85.76-11.06,9.52-33,27.79-36.66,43.77-3.15,13.59,5.45,26.51,12,37.56C283,750.13,319.6,790.15,353.16,831,384.35,868.87,425.16,910,438.39,958.5Z"/><path class="cls-3" d="M446.89,962.79c-1-.53-1.51-.79-2.52-1.3-12.64-47.8-52.31-88.49-82.72-126-34.73-42.83-77.12-86.22-102.14-135.91-15.7-31.18,1.69-49.73,25.43-70.85,34.5-30.68,73-56.71,109.8-84.44,25.4-19.12,70.26-45.93,79.11-78.87,3.81-14.14,1.92-30.75,3.54-45.48,2.73-24.75,7.39-49.43,6.73-74.45-.8-30.3-21-55.29-39.14-78.21-30.05-38-64.11-72.69-94-110.79-16.82-21.41-44.84-51.83-41.1-81.66,3.16-25.23,36.53-31.05,57.4-37.18,35.9-10.55,74.48-15.79,108.93-30.86,10-4.39,40.16-24.28,22-38.19-12.3-9.44-88.26,47.87-81.92,12.5l.81.11c-6.15,35.53,70.6-21.73,83.16-12.06,17.86,13.74-10.83,33.57-21,38.16-33.59,15.19-71.43,20.62-106.53,31.32C351.82,45,320.11,50.9,317,75.9c-3.7,30.09,22.95,60.16,39.75,82.16,29.22,38.25,62.64,73.1,92,111.26,17.9,23.27,37.32,48.29,37.88,78.66.47,24.75-4,49-6.79,73.53-1.64,14.63.22,31.07-3.53,45.12-8.79,32.89-53.41,59.68-78.73,78.81-36.66,27.71-75,53.72-109.31,84.37C264.61,651,247.41,669.49,263,700.64c24.86,49.7,67.07,93.16,101.64,136C394.9,874.24,434.38,915,446.89,962.79Z"/><path class="cls-3" d="M455.46,967.31,452.92,966c-12.19-47.78-51.24-88.69-81.2-126.39-34.18-43-76-86.63-100.4-136.37-15.27-31.07,1.48-49.59,25-70.79,33.93-30.58,71.86-56.53,108.13-84.18,25.13-19.15,69.15-45.88,77.77-78.65,3.65-13.84,1.83-29.88,3.53-44.27,2.82-23.81,7.08-47.25,6.91-71.34-.21-30.5-18.21-55.69-35.61-79.64-27.94-38.47-60.09-73.72-87.9-112.27-16.68-23.11-40.92-52.7-37.34-83.24,2.88-24.53,31.65-30.69,52.51-37.59,33.49-11.08,69.84-17,101.73-32.53,10.39-5,36.36-24.76,19.06-38.19-13.19-10.25-91.87,46.91-86.19,11l.75.09c-5.58,36.89,74.51-22,87.48-10.48C544.75,4.49,400.5,38.3,388.43,42.43c-20.76,7.1-48.8,13.44-51.62,37.79-3.55,30.64,20.15,60.25,36.72,83.64,27.38,38.66,59.11,74.06,86.62,112.64,17.24,24.17,34.87,49.47,35,80,.13,23.81-4.1,46.91-6.94,70.42-1.73,14.28.07,30.16-3.53,43.91-8.55,32.72-52.32,59.43-77.37,78.59C371.24,577,333.47,603,299.72,633.51c-23.46,21.22-40,39.74-24.88,70.78,24.27,49.76,65.87,93.46,99.88,136.51C404.55,878.56,443.42,919.53,455.46,967.31Z"/><path class="cls-3" d="M464.06,972l-2.55-1.39c-11.69-47.76-50.12-88.89-79.62-126.79-33.61-43.18-74.77-87-98.61-136.85-14.82-30.95,1.27-49.46,24.56-70.74,33.33-30.47,70.7-56.35,106.4-83.89,24.86-19.19,68-45.84,76.4-78.44,3.48-13.53,1.73-29,3.52-43.05,2.91-22.81,7-45.07,7.07-68.19.15-30.37-16.21-55.57-32.86-80.08C442.2,244,411.75,208.55,385.7,170c-16.36-24.25-37.62-52.9-34.41-83.75C353.82,61.94,378.92,55,399.84,47,412.56,42.08,549.83,6,512-27.56c-13.67-12.13-95.66,46.67-90.62,9.3l.71.06c-4.8,37.58,78-21.16,91.94-8.78,38,33.64-95.92,70.61-108.95,75.87-21,8.49-44.61,15.64-47,39.85-3,31,16.94,59.09,33.2,83.79,25.4,38.58,55.24,74.06,80.76,112.56,16.36,24.69,32.07,49.81,31.74,80.11-.26,22.83-4.23,44.73-7.15,67.26-1.81,13.92-.09,29.25-3.52,42.69-8.3,32.55-51.2,59.17-76,78.37-35.53,27.52-72.73,53.37-105.89,83.8-23.22,21.31-39.11,39.82-24.42,70.74,23.66,49.81,64.63,93.75,98.07,137C414.28,883,452.52,924.21,464.06,972Z"/><path class="cls-3" d="M472.68,976.67l-2.55-1.4c-10.94-47.06-48.06-87.86-76.66-125.41-33.12-43.51-72.77-87.28-97-136.78-14.95-30.55-3.23-47.59,19.84-70.12,34.43-33.61,75.18-60.83,112.82-90.6,23.14-18.3,64.23-44.69,71-76.33,2.52-11.8.61-25.4,2.17-37.55,2.87-22.4,6.11-43.73,7.07-66.37,1.28-30.3-12.78-55.09-28.51-80.44-23.84-38.4-51.92-74-76.37-112-16.17-25.11-38.52-57.93-33.71-89.78,3.09-20.4,23.55-28.42,41-36.2,29.12-13,61.19-21.12,88.73-37.43,10.82-6.41,37.16-28.06,17.75-42.35-15-11-98.66,45.47-94.49,8l.69,0c-3.93,37.7,80.55-18.74,95.82-7.46C539.5-11.3,513.94,10.18,503,16.77,476,33.12,444.38,41.43,415.73,54.54c-17.25,7.89-37.23,16-40.27,36.18-4.8,31.94,17.16,65,33.17,90.37,24.08,38.18,51.78,74,75.23,112.57,15.58,25.62,29.33,50.59,28.05,81-.94,22.34-4.22,43.31-7.12,65.4-1.58,12.07.31,25.52-2.17,37.24-6.68,31.59-47.51,57.95-70.58,76.27-37.46,29.74-78,56.94-112.26,90.51-23,22.54-34.54,39.61-19.74,70.11,24,49.51,63.49,93.35,96.45,136.92C425,888.74,461.89,929.61,472.68,976.67Z"/><path class="cls-3" d="M481.29,981.33,478.74,980c-10.45-47.05-46.95-88.07-75.09-125.83-32.55-43.69-71.58-87.7-95.17-137.25-14.48-30.4-3.29-47.53,19.47-70.09,33.78-33.48,73.92-60.63,110.94-90.3,22.9-18.35,63.13-44.64,69.64-76.11,2.39-11.56.54-24.65,2.19-36.53,3-21.36,6.41-41.47,7.23-63.15,1.16-30.81-12.15-56.47-27.41-82.76-22.72-39.12-49.68-75.61-73-114.35-15.6-25.92-37.33-60-32.36-92.14,3-19.63,22.38-27.79,39.07-35.72,14.35-6.83,140.12-48.14,100.84-79.9-15.67-12.67-102.38,44.94-99,6.13h.71c-3.18,39,84.29-18.49,100.28-5.56C566,7.86,442,49.07,427.56,56c-16.41,7.9-35.63,16.06-38.69,35.41-5.08,32.16,16.72,66.89,32.15,93,23.07,39,49.75,75.82,72.21,115.21,15.15,26.58,28.35,52.59,27.25,83.6-.75,21.4-4.26,41.15-7.27,62.22-1.68,11.8.15,24.74-2.2,36.24-6.44,31.42-46.42,57.68-69.24,76-36.84,29.64-76.81,56.76-110.39,90.21C308.71,670.48,297.67,687.63,312,718c23.42,49.57,62.27,93.65,94.65,137.39C434.65,893.2,471,934.29,481.29,981.33Z"/><path class="cls-3" d="M489.86,985.85c-1-.52-1.52-.79-2.54-1.32-9.75-46.36-45-87-72.26-124.45-32-44-69.69-87.88-93.53-137.13-16.68-34.46-2.09-52.56,23.27-77.32,33.55-32.74,72.86-59.22,108.83-89.14C474.39,539.22,508.81,516,516.21,488c3.25-12.33,1-26.72,3-39.45,3.18-20.49,7.39-39.65,7.64-60.62.4-34.11-15.67-64.44-32.32-93.47-20.53-35.79-43.47-70.12-64-105.88-15.82-27.54-36.13-61.74-33-94.93C399.5,72,421.21,63.28,439,54.74c13.45-6.46,132.94-48.86,92.19-77.5C514.37-34.59,426,21,428.55-18.15l.76-.07c-2.4,39.62,86.93-16.49,103.91-4C573,7,456.56,48.08,442.39,55c-17.55,8.53-39,17.27-41,38.57-3.16,33.3,17.09,68,32.75,95.73,20.3,36,43,70.61,63.23,106.63,16.51,29.34,32.41,60,32,94.31C529.16,411,525,429.78,521.72,450c-2,12.66.18,26.9-3,39.16-7.33,28-41.55,51.22-62.23,68.49-35.8,29.89-74.93,56.35-108.3,89.05C322.88,671.49,308.48,689.61,325,724c23.67,49.27,61.16,93.26,93,137.26C445.15,898.76,480.23,939.49,489.86,985.85Z"/><path class="cls-3" d="M498.36,990.15l-2.51-1.24c-9.34-46.35-44-87.22-70.83-124.84C393.56,820,356.48,775.81,333.2,726.5,317,692.19,331,674,356.07,649.22c32.94-32.62,71.67-59,107.06-88.86,20.51-17.28,54.26-40.48,61.43-68.35,3.11-12.11,1-26,3-38.51,3.28-19.66,7.53-37.65,7.76-57.89.39-34.64-14.88-65.95-30.94-96-19.51-36.5-41.41-71.65-61-108.12-15.24-28.45-34.81-63.76-31.62-97.35,2-20.72,22.41-29.5,39.41-38.16C465.62,48.67,577.13,7.71,538-21c-17.7-13-108.75,42.7-106.86,2.57l.83-.13c-1.69,40.35,90.07-15.18,108.07-1.95C578.92,8,470,49.12,455.47,56.73,438.69,65.54,418.88,74.39,417,94.89c-3.11,33.75,15.84,69.05,30.9,97.86,19.15,36.61,40.64,71.93,59.75,108.56,15.81,30.3,30.67,61.77,30.22,96.5-.26,20-4.48,37.68-7.81,57.1-2.12,12.41,0,26.2-3,38.25-7.11,27.83-40.67,51-61.11,68.31-35.21,29.79-73.78,56.18-106.55,88.77-25,24.83-38.81,43-22.75,77.27,23.12,49.32,60,93.53,91.33,137.7C454.65,902.89,489.13,943.81,498.36,990.15Z"/><path class="cls-3" d="M506.78,994.13,504.3,993c-8.78-45.67-42.24-86.16-68.27-123.44C405,825.06,370.1,781,345.76,732.18c-16.63-33.33-6.23-51.27,18.44-76.76,31.36-32.4,69-58.61,103.54-87.48,22.36-18.7,58.45-43.52,65-73.93,2.53-11.86,1-24.44,3.29-36.49,3.45-18.26,6.8-34.56,7.49-53.34,2.8-77-56.31-148.21-87.12-215.41-12.87-28.08-26.95-58.66-23.93-90.32,2.06-21.54,19.38-30.14,37.83-40.65,15.35-8.74,108.27-45.95,76.52-75.26-18.15-16.74-114,38.93-112.7-1.49l.93-.19C433.91,21.51,530.44-34,548.85-17c31.67,29.24-57.56,67-73.19,76.46-18.4,11.09-34.18,19.73-36,41.24-2.74,31.72,9.85,61.85,22.63,90.27,30.22,67.2,86.9,138.7,83.7,215.23-.78,18.58-4,34.58-7.53,52.62-2.33,12-.79,24.45-3.3,36.24-6.46,30.37-42.35,55.17-64.64,73.89-34.35,28.84-71.87,55-103.07,87.4-24.58,25.51-34.86,43.46-18.36,76.76,24.2,48.8,58.91,92.95,89.82,137.48C464.79,907.93,498.09,948.47,506.78,994.13Z"/><path class="cls-3" d="M515.1,997.7l-2.45-1c-8.52-45.64-41.43-86.28-67.09-123.75C415,828.3,380.65,784,356.78,735.18,340.54,702,350.56,684,374.94,658.45c30.85-32.3,68-58.45,102-87.24,22.15-18.75,57.56-43.49,63.93-73.77,2.45-11.65.94-23.92,3.32-35.73,3.54-17.55,6.78-32.84,7.63-51,3.54-75.39-49.71-145.85-78.31-212.78-12.25-28.68-23.06-57.66-20.81-89.21C454.26,87,467.85,77.64,486,65.05c16.12-11.18,99.25-51.92,67.79-81-19-17.56-117.2,37.48-116.45-3.71l1-.27c-.63,41.41,98.3-13.42,117.49,4.37,31.4,29.11-49.82,71.76-66.1,83.79-18.05,13.33-31.05,23.19-32.52,45.26-2.08,31.26,8.3,59.8,20.34,88.3,28,66.36,80.21,136.19,76.67,210.77-.85,18-4.08,33-7.67,50.32-2.43,11.74-.9,23.92-3.33,35.53-6.33,30.23-41.56,55-63.65,73.73-33.86,28.76-70.88,54.9-101.58,87.16C353.74,684.81,343.83,702.81,360,736c23.75,48.85,57.94,93.18,88.37,137.86C473.89,911.39,506.64,952.06,515.1,997.7Z"/><path class="cls-3" d="M523.27,1000.77c-1-.33-1.44-.5-2.4-.85-8.35-45.61-40.73-86.37-66.06-124-30.13-44.79-64-89.23-87.45-138.11-15.92-33.13-6.23-51.14,17.92-76.71,30.39-32.18,67.09-58.3,100.63-87,22-18.81,56.76-43.48,63-73.63,2.39-11.5.8-23.51,3.35-35.12,3.72-16.92,7-31.26,7.76-48.88,3.27-72-47.09-140-74-204.23-11.72-27.94-20.9-54.87-19.8-85.33C467.07,104,480.22,92,497.62,77c16.5-14.18,94.56-62.58,63.27-91.75-19.67-18.34-120.22,35.94-119.82-6l1.21-.36C441.94,21.07,543.16-33,563-14.4,594.25,14.82,517,66,500.5,81.13c-17.27,15.79-30.31,28.65-31.17,52-1.09,29.87,8.26,56.49,19.78,83.83,26.56,63,76.4,130.18,73.36,200.94-.75,17.5-4,31.57-7.79,48.33-2.61,11.55-1,23.5-3.37,35-6.25,30.1-40.89,54.76-62.81,73.58-33.41,28.7-70,54.8-100.24,86.95-24.09,25.59-33.7,43.6-17.87,76.71,23.38,48.89,57.08,93.37,87.09,138.2C482.72,914.39,515,955.17,523.27,1000.77Z"/><path class="cls-3" d="M531.29,1003.25c-.94-.26-1.41-.39-2.35-.67-9-49.73-45.93-95.27-73.2-136.27-26.81-40.33-55.9-80.34-77.19-124-6.05-12.39-13.3-28.54-9.4-42.83,4.09-15,19.94-30.46,30.23-40.8,28.15-28.28,60.31-52.57,90.66-78.39,24.12-20.54,61.09-46.37,67.64-79.46,2-10.12,0-20.95,2.28-31.24,3.79-17.17,8.13-31.09,8.47-49.31,1.21-66.22-46.38-130.57-71.75-189.18-11.63-26.85-23.61-55.27-21.58-85.15,1.49-21.85,14.59-36.57,29.09-52.14C520.4,76.4,601,14.08,567.3-14.37,546-32.36,445,20.77,445.35-22l1.38-.44c-.3,42.94,101.24-9.87,122.71,8.32,33.59,28.47-46.79,94-63,112.29-14.36,16.22-27.77,32-29.21,54.28-1.9,29.28,10.29,57.28,21.8,83.48,25.16,57.31,72.48,120.71,71.67,185.62-.23,18.13-4.62,31.75-8.46,48.76C560,480.57,562,491.36,560,501.46c-6.55,33.05-43.37,58.88-67.45,79.43C462.3,606.7,430.24,631,402.18,659.24,391.91,669.58,376.11,685,372,700c-3.89,14.29,3.35,30.43,9.38,42.84,21.22,43.65,50.2,83.7,76.92,124C485.53,908,522.33,953.52,531.29,1003.25Z"/><path class="cls-3" d="M539.12,1005.05c-.91-.17-1.37-.26-2.29-.46-9-49.7-45.46-95.26-72.5-136.46-26.52-40.42-55.26-80.54-76.35-124.2-6-12.43-13.24-28.56-9.34-42.85,4.08-15,19.76-30.39,30-40.76,27.86-28.21,59.7-52.47,89.74-78.25,24-20.58,60.52-46.39,67.07-79.36,2-10.07-.09-20.81,2.33-31,3.94-16.69,8.47-29.65,8.41-47.61-.24-61.88-47.1-123.18-71.87-177.49-11.23-24.62-24.19-51.85-22.52-79.67,1.39-23.28,15.7-41.47,29.77-59.09,16-20,96.11-93,63-121.49-21.71-18.64-124.69,33.35-124.3-10l1.6-.54C451.39,19.27,555-32.35,576.72-13.52c32.87,28.42-47.25,104.35-63.11,125-13.91,18-28.76,37.29-30.07,60.88-1.52,27.28,11.73,54.18,22.87,78.22,24.62,53.17,71.34,113.68,72,174.41.21,17.91-4.4,30.62-8.38,47.19-2.46,10.21-.33,20.94-2.34,31-6.57,32.93-43,58.74-67,79.34-30,25.77-61.72,50-89.5,78.21-10.23,10.37-25.88,25.81-30,40.75-3.9,14.29,3.35,30.41,9.34,42.85,21.06,43.65,49.7,83.8,76.15,124.26C493.76,909.8,530,955.36,539.12,1005.05Z"/><path class="cls-3" d="M546.75,1006.07c-.89-.07-1.34-.12-2.24-.22-9.28-49.66-45.2-95.18-72.06-136.57-26.3-40.51-54.74-80.72-75.73-124.37-6-12.45-13.29-28.54-9.35-42.84,4.11-14.92,19.71-30.35,29.91-40.74,27.64-28.14,59.23-52.39,89-78.13,23.87-20.63,60.12-46.45,66.74-79.31,2-10.07-.14-20.8,2.37-31,4-16.36,8.85-28.54,8.31-46.39-.79-26.22-13.06-50.95-24.3-74.17-15.37-31.76-32.91-62.43-48.12-94.27-10.9-22.83-24.91-49.24-23.68-75.41,1.13-24,17.31-45.51,30.79-64.28C534,96.64,614,14.92,581.92-13.3c-21.85-19.24-126.76,31.43-126-12.3l1.83-.65c-.93,43.82,104.53-6.41,126.37,13C615.72,14.82,536,98.36,520.51,120.4c-13.29,18.91-30,41.18-31.06,65.24-1.16,25.79,13.18,52.15,24,74.58,15.17,31.52,32.56,61.91,47.89,93.34,11.15,22.89,23.62,47.47,24.6,73.35.68,17.84-4.22,29.86-8.28,46.14-2.54,10.21-.33,21-2.37,31-6.66,32.84-42.86,58.67-66.7,79.3-29.75,25.74-61.27,50-88.86,78.11-10.2,10.4-25.78,25.83-29.91,40.74-4,14.31,3.37,30.38,9.36,42.84,21,43.63,49.35,83.86,75.59,124.4C501.58,910.92,537.35,956.42,546.75,1006.07Z"/><path class="cls-3" d="M554.32,1006.26l-2.34,0c-9.51-49.32-44-93.23-70.75-134.76-27.36-42.46-60.37-85.75-79.31-132.86-13.12-32.61-3-49.56,20.55-74.21,29.36-30.73,63.68-56.66,95.57-84.65,20.83-18.29,55.08-43.62,61.86-72.33,2.79-11.84.07-24.41,3.49-36.32,4.31-15,8.6-27.17,7.82-43.6-1.2-25.23-14.12-49.68-24.85-71.89-14.88-30.78-31.7-60.58-46.69-91.3-10.77-22.06-25.76-48.59-25.14-73.88.59-23.47,16.27-45.78,28.92-64.58C542,98.35,563.44,72.59,580,43.7c7.3-12.77,23.78-40.64,11.91-55.26C571.05-37.19,461.07,18.1,462.5-28L466-29.27c-.54,45.58,107.13-7.67,128.17,18.06,12,14.68-4.07,42.28-11.49,55.16C566,72.83,544.17,98.36,525.41,125.82c-12.92,18.9-28.32,40.93-28.81,64.65-.53,25.49,14.15,51.76,25.08,74,15.1,30.67,32.11,60.36,47.09,91.08,10.9,22.35,23.57,46.57,24.72,72,.75,16.59-3.56,28.61-7.92,43.79-3.41,11.89-.67,24.4-3.42,36.23-6.69,28.72-41,54.08-61.86,72.33-31.92,28-66.28,53.87-95.66,84.59C401.13,689,391,706.11,403.92,738.68c18.79,47.16,52.16,90.48,79.64,132.83C510.39,912.89,545.32,956.88,554.32,1006.26Z"/><path class="cls-3" d="M564.21,1006.07l-3.23.08c-8-49.53-44.1-93.69-71.22-134.7C461.93,829.34,427.59,786,409,738.73c-12.75-32.48-2.41-49.94,21-74.34C459.46,633.69,494,607.89,526,580c20.82-18.14,55.41-43.55,61.93-72.29,2.69-11.87-.09-24.29,3.37-36.22,4.53-15.6,9-27.52,8.31-44.6-1-25.72-13.33-49.42-24.65-72-15.32-30.55-32.86-59.93-48.31-90.41-11.37-22.41-25.57-48.15-25.21-74,.33-24.24,15.38-45.63,29-64.62,19.46-27.13,42.35-52,59.44-80.82,7.81-13.16,23.07-39.95,10.88-54.93C579.3-36.23,477.36,11.48,476.08-33.27l5-2C483,9.19,582.5-35.87,604-9.17,631.53,25,549.72,102.71,532.63,125.94c-14,19-29,40.1-29.26,64.52-.3,26,13.8,51.52,25.36,74,25.3,49.15,71.43,105,73.67,162,.68,17.29-3.82,29.29-8.55,45.08-3.59,12-.72,24.38-3.4,36.29-6.46,28.75-41.15,54.16-62,72.26-32.06,27.86-66.61,53.62-96.09,84.3-23.39,24.33-33.81,41.91-21.1,74.36,18.55,47.32,53.32,90.65,81.36,132.65C519.91,912.26,556.49,956.47,564.21,1006.07Z"/><path class="cls-3" d="M576.92,1005.66l-4,.14c-7-49.07-44.22-92.8-71.55-132.74-28.79-42.07-63.65-84.53-83.36-132-13.16-31.7-5.77-49,17.64-73.92,31.39-33.38,69.16-60.38,103.55-90.5,20.42-17.88,52.29-41.72,57.57-70.1,2.08-11.17.09-22.47,3.29-33.6,5-17.26,10.49-29.25,9.77-48.3C607.64,368.12,560.86,314.2,535,266.19c-12-22.39-26.7-47.62-27-73.88-.28-27.08,16.5-48.9,32.77-69.17C558.28,101.38,642.05,26,612.25-7.75,590.23-32.67,497.8,1.64,494.82-41l6.46-2.71C504.63-1.11,594.5-32.33,616.45-6.67c29.81,34.84-54.93,108.2-73.11,130.12-16.68,20.11-33.67,41.63-33.37,68.88.29,26.34,15,51.36,27.29,73.71,26.19,47.7,73.76,101.32,75.87,157.83.73,19.38-5,31.57-10.18,49.12-3.28,11.2-1.28,22.53-3.36,33.77-5.26,28.39-37.23,52.21-57.66,70-34.46,30.07-72.31,57-103.76,90.36-23.43,24.84-30.9,42.23-17.67,73.9C440.35,788.6,475.66,831,504.73,873,532.29,912.77,570.05,956.52,576.92,1005.66Z"/><path class="cls-3" d="M592.12,1005.06l-4.74.2c-6.74-49.33-45.87-93.06-74-132.48-29.84-41.78-66.28-84-86.6-131.67-13.47-31.61-5.83-49.11,17.67-73.84,31.63-33.28,69.68-60,104.32-90,20.51-17.72,52.69-41.47,57.92-69.87,2.11-11.46.2-22.9,3.63-34.31,5.52-18.38,12-31.08,11.3-51.38-2.06-56.44-51.78-109.32-78.91-156.16-12.8-22.11-27.95-46.74-28.25-73.17-.31-27.61,17.54-48.45,35.21-68,20.12-22.3,107.16-90.25,77.82-128.07C605.92-31.47,522.14-8.22,518.17-50.9l7.71-3.3c4,42.2,84.3,23.79,105.94,51.05,30.52,38.46-55.17,102.51-76.54,124.92-17.89,18.76-38.33,40.08-39.2,67.44-.88,28,16.08,54.89,29.92,77.89,27.72,46,76.8,97.9,79.22,154,.87,20.19-5.86,33.27-11.53,51.57-3.47,11.16-1.31,21.87-3.22,33-5.35,31.25-40.65,56.4-63.1,75.49-34.28,29.17-72.07,55.63-102.74,88.76-23,24.84-28.33,42-14.08,73.45,21.45,47.38,57.65,89.26,87.9,131C546.49,913.17,585.55,956.32,592.12,1005.06Z"/><path class="cls-3" d="M609.5,1004.3l-5.35.24c-6.79-48.95-47.29-92-76.07-130.39-31.18-41.6-68.57-83.26-90.78-130.74-14.69-31.42-9.24-48.57,13.92-73.34,30.88-33,68.9-59.31,103.39-88.33,22.59-19,58-44,63.49-75.24,2-11.47-.05-22.34,3.62-33.84,6.13-19.22,13.83-33.08,12.89-54.32-2.48-55.92-54.21-107.06-83-152-14.35-22.42-32.35-49.18-31.33-77.12,1-27.56,23.18-48.29,41.92-66.15,24-22.8,111.48-80.58,82.41-122.7-20.7-30-94.94-20.54-99.14-63.07l8.78-3.8c4.14,42.53,75,37.16,95.49,67.62C680,46,587.93,102.55,562.3,126.58c-17.16,16.08-37.75,34.65-40.32,59.53-2.77,26.77,14.79,53.06,28.45,74.34,19.55,30.47,42,59,61.46,89.51,13,20.48,26,41.9,27,66.66.81,21.76-6.94,35.84-13.47,55.44-4.21,12.63-1.79,25.29-4.41,37.91-6.34,30.58-45.71,57.62-67.58,75.63-31.77,26.18-66,50.53-94.79,80.12-21.12,21.75-35.2,40.5-22.07,70.77,22,50.84,63.91,95.52,97.09,139.25C562,913.13,602.8,956.25,609.5,1004.3Z"/><path class="cls-3" d="M628.74,1003.39l-5.87.28c-7.2-48.27-49.54-91.22-78.72-128.26-34.28-43.52-77.54-87.92-100.58-138.89-13.66-30.21.7-49,22-70.59,29-29.48,63.47-53.65,95.46-79.68,22-17.87,61.62-44.72,68.08-75.3,2.75-13,.51-26,4.95-39,7-20.59,15.94-35.73,15-58.62-1-24.72-14.89-45.86-28.46-65.84-20.42-30.05-44-57.86-64.52-87.82C542,239.12,523,212.82,526.1,186.2c2.91-25,25.58-43,43.42-58.06,28.77-24.32,122.4-74,94.71-122.95-19.05-33.63-84-38-87.93-81.19L586-80.21c3.73,43.2,65.54,52,84,86.23,28,51.8-69.87,100.2-100.83,125.47C549.46,147.61,527.66,165.65,528,193c.3,25.2,18,48.53,31.85,68.06C579,288.14,600.58,313.36,620,340.25c15.56,21.58,32.1,44.66,33.43,72,1.16,23.71-9.21,40-16.23,61.39-4,12.13-2.57,23.87-4.78,36.11C626.93,540,590.23,565.08,568.52,583c-31.82,26.29-66,50.24-95.88,78.79-24.38,23.29-41,43.82-25,76.9,24.71,50.94,67.32,94.35,102.4,138.22C579.19,913.34,621.48,955.65,628.74,1003.39Z"/><path class="cls-3" d="M649.51,1002.37l-6.29.31c-8-48-51.86-90-81.87-126.13C525,832.87,481,789.78,455.07,738.73c-16.76-33,.18-53.47,24.78-76.65,30.16-28.42,64.55-52.18,96.62-78.3,21.87-17.82,58.78-42.63,64.4-72.93,2.35-12.66,1.11-24.72,5.36-37.26,7.63-22.53,19.13-40.12,18.06-65.1-1.16-27.09-19.46-50.27-35.43-70.9-20.4-26.37-43-50.94-63.19-77.49-14.15-18.62-33.58-42.05-33.75-67-.19-27.57,24.27-45,44.61-59.9,34.57-25.3,134-66.8,109.29-122.78-16.69-37.9-72.63-56.48-75.9-101l10.41-4.54c3,44.85,55.48,67.65,71.88,106.41C716.55,68.76,620,106.36,583.37,131.41c-20.28,13.88-48.44,31.53-49.9,58.65-1.43,26.65,20.37,51.71,35.88,71.23,22.37,28.13,47.35,54.12,69.24,82.64,14.17,18.47,29.32,38.54,30.46,62.54C670.25,432,658.34,450,650.39,473c-4.25,12.27-2.92,24.09-5.22,36.45-5.66,30.46-38.54,53-60.88,71.22-34.51,28.1-72,53.28-104.12,84.16-24.5,23.53-38.1,44-20.73,76.13,27.37,50.7,71.29,93.34,108.16,137.1C597.72,913.75,641.28,954.43,649.51,1002.37Z"/><path class="cls-3" d="M671.51,1001.26l-6.62.33c-9-47.6-53.34-87.43-84-122.42-38.28-43.7-81.87-86.32-112.44-136.09-19.66-32-8.34-51.41,16.46-75.51,31.62-30.72,68.86-55.35,103.32-82.68,22.41-17.78,58.9-41.27,65.38-71.32,3-13.93,1.38-27.6,6.48-41.48,8.63-23.47,21.64-43.21,20.35-69.39s-20.94-48.49-37.15-67.52c-23.28-27.34-49.15-52.39-72.16-80-14.58-17.49-37.51-42.84-33.78-68,3.9-26.32,37.68-44.07,57.8-56.13,37.56-22.51,132.14-53.86,115-111.69-13.3-44.76-62-77.21-64.33-125.62l11-4.78c2,49.7,48.14,85.93,60.58,132.53C733.12,80.63,637.56,109.75,598.62,132c-20.19,11.52-55.54,29-59.63,55.26-3.9,25.07,19.93,50.44,34.61,67.51,23.51,27.34,49.87,52.07,73.66,79.15,16.4,18.66,36.74,40.89,38.1,67,1.38,26.7-12.32,47.2-21.19,71.11-5.22,14.08-3.69,27.95-6.79,42.09-6.58,30-43.16,53.43-65.64,71.15C557.16,612.5,519.81,637,488.06,667.69c-25,24.09-36.32,43.41-16.28,75.39C503,792.86,547.16,835.36,586,879,617.09,913.86,662.12,953.53,671.51,1001.26Z"/><path class="cls-3" d="M694.41,1000.07l-6.85.36c-10.26-47.4-56.08-86.2-87.71-120.35-40.27-43.49-85.33-85.51-118.66-134.84-21.12-31.25-13.92-49.66,11.86-74.85,31.1-30.39,68.33-54.62,102.76-80.93,22.42-17.13,61.08-42,69.85-71.09,4.34-14.41,2.2-29.63,7.46-44.32,9.32-26,25.84-48.74,24-77.78-1.62-25.76-23.14-47-39.76-64.74-24.6-26.26-51.84-49.91-76.33-76.28-15.13-16.3-40.94-41.07-38-66.12,3.11-26.54,39.59-42.17,59.83-52.73,33.93-17.7,70.93-31.17,102.85-52.52,24.47-16.36,35.08-29.26,28.82-58.54-10.82-50.61-50.13-95.17-51.21-147.95l11.35-4.93c3.57,55,37.34,101.61,47.37,155.07,5.62,29.95-4.81,42.34-30.22,58.55-32.89,21-70.7,34-105.53,51.25-20.26,10-58.36,25.32-61.65,51.86-3.09,24.9,23.75,49.73,38.91,65.57,25,26.1,52.75,49.43,77.88,75.42,16.8,17.38,39,38.51,40.73,64.22,2,29.55-15.36,53.16-24.92,79.62-5.37,14.87-3.32,30.32-7.77,44.9-8.86,29.1-47.64,53.84-70.13,70.9-34.55,26.23-71.9,50.37-103.13,80.69-26,25.21-33.13,43.51-11.63,74.72,34,49.33,79.66,91.24,120.55,134.66C637.21,913.93,683.67,952.55,694.41,1000.07Z"/><path class="cls-3" d="M717.9,998.84l-7,.37C699.21,952,652,914.28,619.36,880.92c-43.23-44.18-98-88.34-130.31-141.62-19.65-32.44-6.78-48.31,19.38-72.53,31.87-29.5,69.23-53,103.69-79.32,24-18.27,60.94-41.66,67.77-73.57,3.26-15.23,2.93-29.06,8.89-44C698.89,444.54,717,418.71,714.4,390c-2.3-25.54-24.87-45.6-42.34-62.34C645.85,302.58,617.24,280.08,591,255c-16.08-15.35-44.73-39.13-43.07-64.06,1.76-26.38,42.43-40.72,62-49.44,37-16.46,76.14-28.6,112-47.49,26.38-13.88,42.1-26,38.83-56.79C754.41-23,724-78.43,722-139.38l11.56-5C734.87-81.95,762-23.69,768.23,38.08c3.11,30.79-10.13,42.61-37.05,56.58C695,113.43,655.47,125,617.92,140.5c-20.76,8.59-63.33,22.06-68.19,47.74-4.47,23.6,24.49,48,39.09,61.84,28.26,26.85,59.58,50.24,88,76.9,16.94,15.89,40.63,36,42.56,61C721.74,418.54,702.49,445,692,472.2c-5.79,15.07-5.08,29.9-8.58,45.09-6.75,29.22-41.24,50.47-63.34,67.3C585.56,610.9,548.61,634.46,515.83,663c-28.62,25-44.54,43.41-22,78.31,31.11,48.19,80,88.75,120.3,128.79C649.73,905.52,704.79,947.62,717.9,998.84Z"/><path class="cls-3" d="M741.65,997.59l-7,.37c-14.49-51.53-71.2-93.12-107.94-128.27-41.7-39.89-92-80.1-124.71-128.34-9.56-14.12-18.1-25.47-10.6-42.57,6.16-14,21.11-25.86,32.21-35.38,33.1-28.4,70.33-51.75,105.19-77.86,22.28-16.69,57-37.67,64-66.88,3.76-15.7,3.31-31.07,9.37-46.65,10.94-28.13,32.23-57,29.47-88.66-2.17-24.87-27.61-44.64-44.9-59.71-29.78-26-62.36-48.54-92-74.7-14.63-12.9-46-37.15-41.21-60.54,5.26-25.6,51.93-38,72.72-45.59,39.73-14.51,81.27-25,119.73-42.78,28.85-13.34,42.35-24.15,40.48-56.3-3.9-67.18-25.65-132.5-25.3-200l11.59-5c-1.08,69.16,18,136.79,21.29,205.69.48,10,2.14,23.1-3.26,32.26-6.59,11.21-24.52,19.25-35.36,24.2-38.6,17.65-80.61,27.61-120.69,41.21-20.46,6.95-75.11,20.09-79.37,48-3.86,25.31,34.32,52.28,50.19,65.32,28.21,23.18,58.35,44,86.27,67.5,17.74,15,42.43,33.77,45.2,58.54,3.48,31.07-19.24,62.23-30.23,89.6-6.88,17.13-5.65,34.1-10.81,51-8.52,27.92-46.1,51-67.83,67-34.66,25.5-71.58,48.47-104.06,76.81-23.4,20.41-42.43,39.56-23.33,69.29,33.16,51.63,88.78,94.27,132.89,135.84C670.33,905.67,726.88,946.56,741.65,997.59Z"/><path class="cls-3" d="M765.35,996.35l-7,.36c-15.5-49.59-73.91-91.33-110.49-124.59-46.1-41.92-101.58-83.31-137.81-134.93-20.4-29.06-4.54-47.92,19-68.64,32-28.12,68.79-50.66,103.31-75.41,23.32-16.73,64.7-40.81,72.84-71.32,4.72-17.69,4.81-34.53,12-52,11.77-28.64,35-60.61,31.75-93.07-2.65-26.45-34.36-47.42-53.27-61.88-29.22-22.34-60.25-42.23-89.21-64.91-15.27-11.95-50.7-35.62-48.19-58.32,3.13-28.28,60.38-39.58,80-45.62,44.8-13.81,92-22.71,135.3-41.07,12-5.1,28.44-11.33,35.29-23.18,5.18-8.95,3.5-24.07,3.36-33.67-1.12-73.82-14.88-147.29-12-221.19l11.46-4.89c-3.58,76.17,8.14,152.2,8.23,228.36,0,9.7,1.62,25.15-3.79,34.12-7.13,11.83-24,17.82-36.18,22.76-44.32,17.93-92.4,26.36-138.15,39.72-19.39,5.67-78.7,16.45-81.93,44.71-2.58,22.58,33.93,46.18,49.17,57.77,29.49,22.4,61,42,90.73,64.06,19,14.12,51.58,34.88,54.35,61.31,3.43,32.87-20.67,65.89-32.63,94.87-7.28,17.65-7.48,34.72-12.32,52.64-8.24,30.5-49.74,54.47-73.13,71.12-34.64,24.68-71.57,47.13-103.67,75.18-23.7,20.7-39.64,39.49-18.88,68.51,36.93,51.64,93,92.87,139.75,134.72C690.2,905.09,749.3,946.64,765.35,996.35Z"/><path class="cls-3" d="M788.68,995.13l-6.85.36c-8-23.21-24.54-39.54-41.77-56.58-27.44-27.14-56.77-52.26-86-77.47-44.28-38.23-95.18-75.56-131.19-122.27-8-10.36-16.76-21.46-12.85-35.07,3.77-13.13,17.39-24.14,27.3-32.88,34.19-30.15,74.32-53.52,111.37-79.86,23-16.37,63-38.87,70.39-69.37,4.06-16.77,4.49-32.94,11.1-49.55,11.88-29.81,41.15-68.33,36.29-102.17-3.49-24.3-31-41.17-49.17-54.22-32.64-23.4-67.67-43.27-100.45-66.46C603.1,239.84,557.6,213,564,189.32c7-25.81,59.57-33.27,80.43-38.69,47.85-12.45,97.5-19.83,144.3-36,14.39-5,37-10.44,45.23-25,5.55-9.83,3.65-25.32,3.93-35.84,2.13-81-4.68-162.26.63-243.18l11.15-4.71c-6,82.51-1.26,165.46-4.21,248.08-.49,13.81,1.26,29.6-7.18,41-10.18,13.71-33.91,19.15-49.11,23.73-44.52,13.42-90.71,20.63-135.88,31.46-19.25,4.62-82.87,14.43-87.36,40.74-4,23.42,39.79,49,55.13,59.36,30.8,20.89,63.26,39.21,94.08,60.08,18.9,12.8,53,32.36,56,58.13,3.93,33.46-22.3,69.61-34.71,98.91-8.25,19.49-8,38.47-14.17,57.87-8.7,27.43-43.42,47.68-65.63,63.46-37,26.29-76.89,49.43-111.54,78.91-29.09,24.75-43.36,41.24-17.27,73.49,37.54,46.4,88,83.26,133.16,121.7,29.2,24.86,58.5,49.66,85.94,76.48C764.11,956.1,780.6,972.19,788.68,995.13Z"/><path class="cls-3" d="M811.33,994l-6.62.33c-8.46-22.72-25.19-38.52-42.56-55-27.93-26.47-57.69-50.9-87.36-75.36-46.53-38.36-97.71-75-137.32-120.87-10.86-12.58-21.66-24-15.84-40.75,5.39-15.56,23-28.2,35.24-38,32.91-26.28,69.36-47.87,104-71.81,22.91-15.85,62.52-38.56,70.5-67.57,5.14-18.72,6-36.44,13.66-54.84,12.42-30,43.94-71.88,38.42-106.18-3.82-23.72-32.38-39.51-50.54-51.44-36.23-23.82-75-43.45-111.36-67.08-14.62-9.5-55.24-31.78-52.8-53.1,3.26-28.59,80.78-37.65,98.44-41.21,46.59-9.39,94.15-15.71,140-28.51,13.93-3.89,34.28-8.22,45.41-18.88,12.24-11.73,9.7-31.12,10.63-46.86,5.19-87.2,4.89-174.79,12.49-261.85l10.67-4.43c-8.27,89.21-9.72,178.94-15.9,268.29-1.1,15.93,1.41,35.63-11.16,47.33C847.88,116.87,827.14,121,813,124.72c-46.7,12.42-95,18.36-142.42,27.36-17.39,3.31-97,11.78-100.31,40.33C567.81,213.66,609.37,235.8,624,245c36.89,23.34,76.19,42.66,113,66.19,18.27,11.69,47.43,27.24,51.37,51,5.75,34.57-26.7,77.63-39.26,107.89-7.71,18.6-8.72,36.53-14,55.45-8.06,29-47.79,51.61-70.75,67.4-34.71,23.86-71.26,45.38-104.3,71.58-12.22,9.7-30,22.32-35.37,37.86-5.84,16.8,5.18,28.2,16.13,40.71,40.2,45.88,91.91,82.4,139,120.7,30,24.43,60.12,48.81,88.4,75.25C785.7,955.46,802.65,971.21,811.33,994Z"/><path class="cls-3" d="M833,992.88l-6.28.31c-9-22.54-26.12-38-43.84-54.12C754.13,913,723.63,889,693.22,864.9c-48.49-38.36-100.05-75-142.85-119.87-12.8-13.42-26.44-27.06-17.32-45.82,6.29-12.94,20.87-23.62,31.6-32.19,32.6-26.06,69-47.15,103.58-70.37,24.66-16.56,68.28-39.47,76.4-71.56,4.45-17.56,5.53-34.57,12.55-51.92,13.34-33,47.24-77.46,42.07-114.89-3.44-24.84-40.45-42.95-59.48-54.06-35.44-20.67-72.66-38.14-107.95-59.06-12.62-7.49-63.53-32.53-57.07-55,2.79-9.73,20.67-16.11,28.08-18.83,22.44-8.23,46.61-12.06,70.07-16.07,52.42-8.95,106.07-13.85,157.77-26.68,13.79-3.43,34.78-7.17,45.81-17.75s8.91-27,10.21-41c8.87-96.35,14.3-193,24.28-289.26,4-1.65,6-2.47,10-4.07-10.56,98.3-17.75,196.94-27.49,295.33-1.41,14.2.55,30.94-10.57,41.36s-32.61,14.08-46.56,17.39c-52.55,12.45-107,17-160.2,25.53-23.82,3.83-48.34,7.48-71.18,15.54-7.34,2.6-25.76,8.87-28.59,18.59-6.53,22.48,45.35,47.33,57.87,54.57C670,265.42,707.71,282.61,743.62,303c19.1,10.87,56.79,28.75,60.31,53.61,5.35,37.73-29.37,83.26-42.86,116.51-7.1,17.52-8.27,34.71-12.8,52.42-8.2,32.1-51.93,54.91-76.65,71.4-34.69,23.15-71.18,44.17-103.89,70.16-10.76,8.55-25.4,19.2-31.71,32.13-9.19,18.81,4.69,32.42,17.59,45.77C596.94,789.85,649,826.44,698,864.74c30.73,24,61.56,48,90.59,74.07C806.46,954.87,823.82,970.3,833,992.88Z"/><path class="cls-3" d="M853.28,991.89l-5.86.28c-11-26.37-34.2-44.81-55.7-62.82-26.26-22-53.51-42.76-80.75-63.51-51.89-39.51-111.69-76.74-154.63-126.18-10.52-12.11-21.53-22.13-14.27-38.72,5.54-12.66,19.95-23.25,30.15-31.43,37.53-30.11,80.35-53.32,120.07-80.28,22.09-15,54.6-33,63.85-59.94,3.19-9.3,2.42-20.67,5-30.38,2.87-10.82,7-21.18,11.39-31.45,7.87-18.33,17.37-35.92,25.44-54.16,6.91-15.62,20.82-42.43,17.35-60.63-4.89-25.65-42-41.07-61.89-51.83-36.6-19.83-74.92-36.27-111.58-56-15.05-8.09-69-32.6-60.29-56.79,8.38-23.14,75.84-26.45,95.93-29.39,58.43-8.54,118.3-11.64,176-24.57,12.49-2.8,35.58-7.07,45.71-16.84,9.14-8.81,7.77-22.47,9.11-34.25,11.95-105.25,23.43-210.54,35.5-315.77,3.73-1.48,5.56-2.21,9.18-3.63C940.49-129.24,927.26-22.18,914.59,85c-1.4,11.86,0,25.63-9.31,34.42-10.29,9.75-33.77,13.84-46.35,16.54-58.56,12.57-119.18,15.27-178.41,23.44-20.1,2.77-88.8,5.62-97.24,28.76-8.83,24.23,46,48.48,61,56.37,37.1,19.49,75.83,35.67,112.86,55.28,20,10.55,57.64,25.73,62.63,51.42,3.55,18.3-10.69,45.53-17.64,61.21-8.2,18.52-17.84,36.38-25.84,55a234.65,234.65,0,0,0-11.58,31.83c-2.61,9.75-1.85,21.18-5.07,30.52-9.3,26.94-41.91,44.87-64,59.81-39.83,26.89-82.76,50-120.4,80.06C565,677.76,550.5,688.33,545,701c-7.31,16.63,3.84,26.62,14.44,38.69,43.43,49.47,103.74,86.58,156.11,126,27.5,20.71,55,41.46,81.52,63.43C818.69,947.08,842.11,965.48,853.28,991.89Z"/><path class="cls-3" d="M872,991l-5.34.24c-11.26-26.2-34.82-44.28-56.55-61.9-26.75-21.7-54.48-42.16-82.21-62.56-55.08-40.53-122.37-79.9-166.78-132.61-8.18-9.71-15.41-18.58-10.19-31.61,4.67-11.7,19.45-23.31,28.63-30.73,37-29.94,79.85-52.68,119.51-78.81,23.39-15.41,60.59-35.25,68.67-63.84,5.59-19.77,7.57-39.09,15.7-58.44,9.36-22.27,21.1-43.46,30.63-65.66,7.08-16.49,18.2-38.71,15.39-57-3.77-24.47-43.48-40.74-62.54-50.3-40.45-20.28-82.77-36.63-123-57.26-14.22-7.28-60.7-26.54-58.43-47.51,3-27.43,91.8-31.06,108.61-33,60.24-6.94,121.85-8.68,181.34-20.93,14-2.87,34.88-5.44,45.09-16.2,8.16-8.6,7.24-25.18,8.61-35.92,14.2-110.57,31.34-220.76,44.67-331.44,3.33-1.28,5-1.9,8.18-3.1-13.6,112.35-32.4,224-47.19,336.24-1.42,10.75-.5,27.46-8.73,36.05-10.32,10.77-31.51,13.18-45.57,16C820.18,152.69,757.89,154.07,697,160.67c-16.74,1.82-106.82,4.93-109.81,32.43-2.29,21,44.72,40.06,59,47.21,40.7,20.41,83.41,36.52,124.28,56.58,19.11,9.39,59.31,25.46,63.12,50,2.86,18.37-8.46,40.81-15.59,57.39-9.67,22.48-21.55,44-31,66.52-8.2,19.48-10.24,38.92-15.88,58.82-8.11,28.59-45.42,48.37-68.85,63.73-39.76,26.07-82.67,48.72-119.8,78.62-9.19,7.39-24,19-28.7,30.67-5.24,13,2.05,21.92,10.27,31.6,44.82,52.77,112.65,92,168.15,132.47C760,887.06,788,907.49,815,929.17,836.82,946.74,860.59,964.78,872,991Z"/><path class="cls-3" d="M888.65,990.32l-4.72.19c-11.28-26.06-35.14-43.8-57-61-27.12-21.42-55.23-41.57-83.34-61.66C686.81,827.22,619.06,788.38,572.14,736c-8.27-9.23-17.29-18.75-12.73-31.88,5.21-15,22.26-26.26,34.13-35.46,35-27.1,74.4-48.18,111.59-72.05,23.76-15.24,66.3-37.34,74.19-67.81,5.26-20.28,7.57-39.37,16.13-59.27,9.16-21.32,20.12-41.81,29.56-63,7.06-15.86,21.94-44.38,18.42-62.7-5.26-27.34-51.45-42.93-72.28-52.41C735.12,275,698,261.12,662,244.63c-14.08-6.45-75.34-28.83-70-53.76,2.17-10.23,21.34-14.44,29.75-16.79,28.58-8,59.26-10.18,88.68-12.75,54.33-4.75,109-7,163.05-14.27,17.86-2.39,52.93-4.17,66.2-19.41,7.2-8.27,6.64-28,8-37.52C963.69-24.82,986.1-138.94,1000-254.18c2.88-1,4.28-1.54,7-2.49C993.07-140,969.07-24.72,952.58,91.57c-1.34,9.44-.8,29.35-8,37.57-13.34,15.29-48.83,16.86-66.74,19.16-54.63,7-109.77,9-164.63,13.52-29.68,2.43-60.63,4.46-89.5,12.36-8.45,2.31-27.74,6.42-29.93,16.71-5.33,25,56.44,47.15,70.54,53.49,36.3,16.33,73.71,30.06,110,46.3,20.92,9.36,67.5,24.71,72.78,52.14,3.55,18.42-11.49,47.13-18.59,63.05C819,427.3,808,448,798.68,469.57c-8.61,20-11,39.18-16.27,59.57-7.9,30.48-50.55,52.52-74.33,67.72-37.27,23.81-76.77,44.83-111.83,71.89-11.89,9.18-29,20.42-34.19,35.42-4.57,13.14,4.47,22.67,12.77,31.87,47.23,52.42,115.47,91.15,172.64,131.66,28.3,20.06,56.6,40.18,83.91,61.6C853.31,946.49,877.36,964.19,888.65,990.32Z"/><path class="cls-3" d="M903.08,989.78l-4,.14c-11-26-35.1-43.38-56.91-60.26-27.36-21.18-55.72-41-84.1-60.81-57.91-40.37-126.55-79-175.36-131-9.26-9.86-17.66-18.43-15.08-32.21,3-16.13,27.36-31.46,39.12-40.06,33-24.16,69.19-43.87,103.83-65.6,25.54-16,67.8-36.52,78.35-67.69,3.15-9.31,2.47-20.65,5.16-30.36,3.18-11.52,7.68-22.57,12.42-33.53,10.15-23.48,22.47-46,32.57-69.46,7.15-16.61,18.87-39.43,16-58-3.84-24.87-43.46-38.59-63.68-47.63-42.12-18.85-86-33.49-128.15-52.24-14.57-6.48-72.44-28-63.9-52.29,3.48-9.91,26.74-13.89,34-15.58,26.06-6.06,53.21-7.84,79.81-9.85,59.66-4.52,119.88-5.19,179.26-13,16.47-2.17,52.77-3.52,64.17-19.19,6.86-9.42,5.61-28.39,7.15-38.88,17.42-118.25,44.83-235.25,58.37-354,2.35-.76,3.48-1.12,5.66-1.79-13.28,119.86-42.24,237.74-59.92,357-1.54,10.39-.26,29.45-7,38.82-11.4,15.74-48,16.94-64.48,19-59.85,7.63-120.52,8.05-180.64,12.35-26.78,1.91-54.11,3.59-80.36,9.59-7.29,1.67-30.57,5.56-34.07,15.53-8.6,24.48,49.59,45.77,64.2,52.17,42.45,18.61,86.6,33.06,129,51.76,20.29,8.95,60.13,22.52,63.95,47.49,2.86,18.67-8.92,41.53-16.1,58.21-10.2,23.7-22.62,46.39-32.87,70.07-4.76,11-9.3,22.13-12.51,33.71-2.7,9.72-2,21.06-5.15,30.36-10.53,31.19-52.9,51.65-78.46,67.63-34.69,21.68-70.9,41.34-104,65.48-11.78,8.59-36.12,23.88-39.16,40-2.6,13.8,5.78,22.37,15.06,32.23,49,52,118.1,90.6,176.29,130.89,28.53,19.76,57,39.59,84.55,60.76C867.9,946.36,892.12,963.76,903.08,989.78Z"/><path class="cls-3" d="M914.91,989.44l-3.21.07C901,963.33,876.45,946,854.5,929.28c-27.81-21.17-56.65-40.95-85.5-60.66-58.69-40.1-128.84-78.45-178.15-130.7-9.32-9.88-17.57-18.43-14.93-32.26,3.1-16.2,27.36-31.38,39.23-40,33.23-24.08,69.56-43.63,104.39-65.24,25.57-15.87,68.19-36.27,78.64-67.5,3.11-9.28,2.4-20.58,5.09-30.28,3.25-11.71,7.87-23,12.7-34.08,10.44-24.1,23.08-47.2,33.48-71.32,7.26-16.82,19.07-39.67,16.28-58.53-3.73-25.22-43.92-38.46-64.38-47.23-43-18.42-87.76-32.45-130.81-50.77-14.74-6.27-73.47-27.1-64.74-52,3.56-10.15,26.66-13.87,34.1-15.52,26.63-5.91,54.36-7.35,81.49-9.06,61.08-3.85,122.69-3.72,183.51-11,16.43-2,53.68-2.88,64.94-18.82,6.51-9.21,5.14-28.42,6.64-38.52,18-121.18,50.76-240.76,63-362.73,1.75-.45,2.57-.65,4.13-1C1032-145.27,997.7-25.13,979.64,96.65c-1.47,10,0,29.2-6.41,38.33-11.17,16-48.63,16.87-65,18.79-61.17,7.14-123.12,6.8-184.54,10.49-27.26,1.64-55.12,3-81.87,8.88-7.53,1.66-30.45,5.33-34,15.55-8.79,25.13,50.06,45.77,64.88,52,43.26,18.22,88.23,32.09,131.45,50.42,20.54,8.71,60.8,21.84,64.47,47.17,2.74,18.92-9,41.72-16.33,58.59-10.47,24.27-23.1,47.56-33.7,71.77-4.89,11.16-9.5,22.46-12.76,34.2-2.69,9.69-1.95,20.95-5,30.23-10.4,31.24-53.12,51.63-78.7,67.46-34.87,21.57-71.25,41.09-104.52,65.15-11.91,8.61-36.11,23.74-39.24,40-2.67,13.83,5.5,22.39,14.83,32.28,49.36,52.34,119.94,90.62,178.79,130.63,29,19.69,57.92,39.46,85.84,60.63C879.7,945.85,904.41,963.17,914.91,989.44Z"/><path class="cls-3" d="M923.82,989.32h-2.31c-10-26.45-35-43.74-56.89-60.27-28.11-21.18-57.29-40.91-86.48-60.56-59.09-39.79-130.67-77.92-180-130.51-9.32-10-17.22-18.51-14.49-32.34,3.22-16.33,27.2-31.32,39.23-40,33.34-24,69.82-43.46,104.77-65,25.56-15.74,68.54-36.12,78.77-67.42,3-9.23,2.23-20.38,4.89-30,3.27-11.81,7.93-23.17,12.85-34.38,10.74-24.52,23.52-48.09,34.14-72.66,7.34-17,18.94-39.51,16.36-58.58C871.21,312,831,299.1,810.25,290.49c-43.63-18.16-89-31.68-132.71-49.73-15.07-6.22-73.93-26.47-65-52.16,3.63-10.45,25.88-14,33.68-15.71,26.95-5.91,55.07-7.07,82.53-8.57,62.08-3.38,124.7-2.6,186.55-9.54,16.24-1.83,54.09-2.52,64.93-18.84,5.9-8.88,4.3-28.13,5.69-37.67,17.79-122.7,56.17-243.83,65.5-367.57a20.29,20.29,0,0,1,2.44-.14c-3.8,58-17.94,115.67-29.16,172.61-12.81,65-27.33,130-36.69,195.61-1.33,9.33.37,28.55-5.31,37.31-10.65,16.45-48.6,17.12-64.76,18.92-62.07,6.9-124.9,6-187.2,9.23-27.51,1.45-55.71,2.55-82.71,8.49-7.94,1.74-29.79,5.26-33.44,15.83-9,25.94,49.76,46,64.95,52.29,43.81,18,89.36,31.39,133.13,49.49,20.8,8.61,60.94,21.43,64.32,47.22,2.5,19.12-9,41.47-16.35,58.51C850,420.73,837.15,444.4,826.36,469c-4.92,11.22-9.59,22.59-12.86,34.41-2.65,9.6-1.83,20.68-4.81,29.87-10.13,31.33-53.22,51.73-78.76,67.42-35,21.5-71.5,40.9-104.87,64.92-12.08,8.71-35.93,23.63-39.2,40-2.75,13.82,5,22.4,14.31,32.37,49.19,52.71,121.17,90.78,180.3,130.48C809.73,888.12,839,907.84,867.15,929,889,945.5,914.16,962.79,923.82,989.32Z"/></g></g></g></svg>