<svg width="280" height="352" viewBox="0 0 280 352" fill="none" xmlns="http://www.w3.org/2000/svg">
<g clip-path="url(#clip0)">
<path d="M73.8383 317.488C76.8137 318.467 79.701 319.339 82.5374 320.364C86.8774 321.935 91.1545 323.665 94.9422 326.382C99.0447 329.329 101.061 333.539 101.559 338.388C101.889 341.596 101.597 344.869 101.569 348.114C101.563 348.572 101.663 349.22 100.966 349.219C100.331 349.219 100.296 348.669 100.307 348.146C100.374 344.81 100.465 341.498 100.158 338.145C99.5418 331.48 95.625 327.444 90.0175 324.773C85.3383 322.544 80.4528 320.776 75.4894 319.237C73.2952 318.558 71.7958 318.902 70.2031 320.756C62.3909 329.851 54.4934 338.871 46.6341 347.925C40.6558 354.812 34.5597 361.602 28.7313 368.621C27.8337 369.704 26.7378 370.286 25.1982 370.408C19.7314 370.847 14.2782 371.499 8.82254 372.068C4.04955 372.567 -0.726383 373.059 -5.49935 373.552C-6.47759 373.654 -7.47592 373.643 -8.43106 373.847C-11.5508 374.511 -13.951 373.701 -16.403 371.442C-25.07 363.451 -33.2678 354.978 -41.914 346.969C-43.137 345.837 -43.8015 346.401 -44.5825 347.194C-46.2987 348.941 -47.965 350.735 -49.646 352.515C-49.9162 352.8 -50.1483 353.124 -50.445 353.377C-50.7476 353.635 -51.1209 353.855 -51.4316 353.383C-51.6104 353.116 -51.5528 352.821 -51.3183 352.604C-50.888 352.204 -50.4253 351.84 -49.9979 351.434C-48.2881 349.806 -46.6842 348.085 -45.1891 346.249C-44.3835 345.26 -44.5252 344.662 -45.2826 343.757C-47.1909 341.474 -49.6399 339.792 -51.7561 337.733C-58.1489 331.515 -64.6812 325.444 -71.1631 319.32C-71.6569 318.853 -72.0675 318.275 -72.8697 318.031C-75.334 319.907 -76.9438 322.804 -79.5201 324.641C-79.6847 324.483 -79.8494 324.326 -80.0169 324.168C-78.8228 322.856 -77.6404 321.533 -76.4315 320.233C-72.8049 316.338 -73.8692 316.513 -76.7222 314.122C-78.9046 312.294 -81.0363 310.377 -82.9989 308.318C-84.3446 306.911 -85.8302 306.303 -87.7031 306.338C-91.2923 306.402 -94.6233 305.067 -98.0698 304.367C-98.5272 304.273 -98.9598 303.966 -99.3572 303.689C-99.5779 303.538 -99.8189 303.288 -99.6753 302.943C-99.4839 302.48 -99.1707 302.467 -98.7463 302.649C-96.6714 303.535 -94.476 303.995 -92.2808 304.467C-90.7318 304.8 -89.2047 304.82 -87.5024 304.631C-87.9617 303.183 -89.0658 302.489 -90.007 301.713C-92.3631 299.771 -94.4014 297.494 -96.704 295.487C-99.1859 293.32 -98.9156 289.559 -96.3758 286.777C-93.2657 283.364 -90.1085 280 -87.0072 276.581C-79.349 268.142 -71.7143 259.681 -64.062 251.236C-56.6741 243.084 -49.3009 234.921 -41.8718 226.808C-34.6507 218.925 -27.2237 211.229 -20.1613 203.206C-15.2917 197.675 -10.3662 192.197 -5.46122 186.696C-4.38575 185.49 -3.23016 184.786 -1.72609 184.676C6.29957 184.082 14.2487 182.854 22.2004 181.71C29.4308 180.671 34.9518 183.501 39.8831 188.424C49.4783 198.004 59.1597 207.495 69.0221 216.805C76.5241 223.886 83.8953 231.105 91.3408 238.248C98.7011 245.307 106.091 252.335 113.451 259.394C114.936 260.817 116.298 262.373 117.812 263.764C118.865 264.73 118.758 265.344 117.82 266.406C113.075 271.781 108.433 277.245 103.782 282.698C103.2 283.38 102.128 283.942 102.901 285.184C103.115 285.525 102.677 285.724 102.402 285.652C100.718 285.206 100.292 286.569 99.4686 287.519C95.6682 291.9 91.7766 296.201 87.9468 300.558C83.5347 305.58 79.1549 310.626 74.7692 315.672C74.3829 316.108 73.8877 316.489 73.8383 317.488ZM-30.7255 217.302L-30.796 217.219C-30.4602 217.98 -30.8146 218.534 -31.3282 219.051C-33.8134 221.56 -36.2986 224.074 -38.7809 226.588C-41.0197 228.855 -44.031 230.27 -45.844 233.009C-46.2012 233.548 -46.8376 233.823 -46.8362 234.688C-46.8319 236.742 -48.5064 237.836 -49.9981 238.414C-50.9748 238.793 -51.6655 239.271 -52.2981 239.942C-53.8484 241.583 -55.337 243.28 -56.8608 244.945C-57.2232 245.342 -57.2936 245.809 -57.2961 246.308C-58.2266 246.877 -58.9866 247.627 -59.6173 248.513C-63.7397 252.319 -67.3182 256.633 -71.0672 260.79C-77.778 268.23 -84.6006 275.568 -91.3614 282.963C-92.1842 283.863 -93.1572 284.677 -93.8057 286.151C-89.4003 286.475 -85.3436 285.689 -81.2723 285.521C-75.0089 285.261 -68.7664 284.489 -62.5035 284.329C-60.6453 284.282 -59.6378 283.661 -58.5859 282.445C-54.2239 277.405 -49.9617 272.267 -45.4145 267.396C-40.9237 262.587 -36.8533 257.407 -32.3038 252.666C-28.0126 248.193 -24.192 243.319 -20.0419 238.73C-16.0226 234.285 -12.1004 229.751 -8.1193 225.273C-2.38538 218.824 3.43677 212.453 9.07364 205.921C10.8446 203.87 13.4992 202.317 13.678 199.138C13.6844 199.026 13.9601 198.832 14.1019 198.839C15.8235 198.928 16.3334 197.411 17.2245 196.449C19.9601 193.496 22.6898 190.537 25.3225 187.495C26.4962 186.138 27.8202 184.854 28.7244 183.056C24.7288 182.308 21.0358 183.022 17.3997 183.586C11.2922 184.536 5.14833 185.089 -0.984443 185.785C-2.45335 185.952 -3.6136 186.407 -4.59093 187.484C-8.09029 191.34 -11.722 195.087 -15.0831 199.059C-19.6538 204.462 -24.392 209.707 -29.2361 214.863C-30.041 215.718 -30.8577 216.571 -31.5684 217.502C-31.7855 217.787 -31.4022 217.919 -31.1266 217.743C-30.9635 217.632 -30.8563 217.449 -30.7255 217.302ZM17.4129 201.194C17.9487 202.127 18.4874 203.058 19.2398 204.365C16.4897 202.661 16.5338 202.705 14.4497 204.752C13.4374 205.745 12.8951 207.238 11.3803 207.703C11.3211 207.156 11.6361 206.788 11.9864 206.435C12.9485 205.459 13.9458 204.512 14.852 203.489C15.3214 202.956 16.3053 202.323 15.5884 201.569C14.7717 200.71 14.2817 201.786 13.8183 202.307C8.60437 208.153 3.39339 214.001 -1.79698 219.865C-7.17752 225.946 -12.561 232.024 -17.8886 238.15C-18.881 239.291 -20.468 240.028 -20.6219 241.809C-21.3258 241.98 -21.8481 242.459 -22.2673 242.986C-25.383 246.906 -28.8016 250.559 -32.1289 254.29C-35.3969 257.952 -38.6355 261.639 -41.8946 265.307C-47.3077 271.4 -52.7208 277.493 -58.1574 283.568C-58.9744 284.483 -58.9921 285.056 -57.9895 285.959C-49.6067 293.497 -41.2625 301.076 -32.957 308.702C-23.8488 317.065 -14.7614 325.448 -5.7394 333.902C-1.37097 337.997 3.24704 341.807 7.54113 345.998C10.492 348.88 13.023 352.437 17.2281 353.815C17.4434 353.884 17.4692 354.029 17.5747 354.204C20.2111 358.508 24.1566 361.537 27.8409 364.836C29.07 365.939 29.8248 365.624 30.7344 364.508C35.0119 359.249 39.557 354.225 44.0551 349.153C51.8599 340.347 59.4294 331.34 67.1137 322.427C68.4419 320.886 70.1821 319.659 70.7188 317.528C70.7791 317.289 71.0346 317.016 71.2654 316.922C73.8585 315.845 75.1206 313.369 76.8378 311.442C82.1944 305.435 87.3215 299.225 92.8133 293.334C94.6845 291.325 96.4146 289.182 98.1888 287.081C98.5098 286.702 98.7191 286.212 98.2575 285.778C97.8607 285.407 97.3322 285.354 96.8965 285.641C96.4994 285.902 96.2429 286.377 95.8516 286.65C95.0809 287.184 94.8678 288.412 93.6686 288.406L93.7274 288.456C93.6999 286.916 95.8351 286.413 95.6103 284.751C94.426 284.133 92.8884 284.439 91.6395 282.594C94.5496 283.643 96.8683 283.661 99.0983 282.526C99.1456 283.099 99.0804 283.714 99.9187 283.827C100.952 283.966 101.528 283.375 102.128 282.668C106.199 277.878 110.315 273.129 114.363 268.321C115.058 267.497 116.136 266.879 116.341 265.645C115.987 265.545 115.798 265.447 115.615 265.449C115.027 265.464 114.442 265.517 113.857 265.555C115.306 262.9 115.315 262.888 112.999 260.651C106.006 253.892 98.9008 247.253 91.9707 240.423C82.0427 230.641 71.7851 221.196 61.7265 211.546C55.7772 205.838 49.9971 199.96 44.0329 194.27C41.0493 191.423 38.2766 188.347 35.005 185.801C34.0871 185.087 33.2569 184.536 32.0874 185.068C31.1309 183.228 30.7921 183.051 29.7732 184.181C25.4003 189.029 21.0863 193.931 16.7398 198.805C15.6882 199.982 16.1542 200.688 17.4129 201.194ZM-42.2689 344.18C-42.1475 345.259 -41.7117 345.528 -41.3856 345.881C-38.298 349.189 -34.7917 352.05 -31.526 355.167C-26.2055 360.242 -20.9266 365.358 -15.7101 370.536C-13.5412 372.689 -11.0804 373.228 -8.16856 372.77C-4.78368 372.235 -1.38156 371.794 2.02894 371.448C8.66079 370.776 15.3039 370.21 21.9385 369.57C23.4044 369.43 24.885 369.275 26.3076 368.924C28.0348 368.499 28.44 366.669 27.0129 365.603C23.9202 363.294 21.3858 360.417 18.6643 357.726C16.657 355.742 14.65 353.689 11.3832 354.819C11.327 354.84 11.1863 354.617 10.9366 354.35C11.8301 354.074 12.8685 354.342 13.4376 353.376C12.5682 351.846 10.9835 350.957 9.73423 349.772C2.32657 342.739 -5.14048 335.77 -12.6551 328.852C-21.031 321.14 -29.5169 313.542 -37.8869 305.822C-44.0902 300.098 -50.5253 294.63 -56.5533 288.709C-58.5783 286.719 -60.7867 284.801 -64.0389 285.385C-65.4876 285.643 -66.9473 285.73 -68.4245 285.788C-72.6405 285.952 -76.8768 286.052 -81.0591 286.562C-85.1586 287.062 -89.2796 287.144 -93.3787 287.563C-96.0445 287.833 -96.8038 288.435 -97.0328 291.053C-97.174 292.668 -96.5957 293.954 -95.4846 295.012C-92.1423 298.182 -88.7614 301.314 -85.4072 304.47C-84.8899 304.957 -84.3513 305.353 -83.6099 305.354C-81.3503 305.357 -79.088 305.43 -76.8308 305.333C-75.0995 305.259 -74.9148 304.955 -75.3793 303.369C-77.1675 297.251 -72.8232 293.943 -67.5938 293.733C-65.3012 293.641 -62.9075 294.011 -60.6275 294.664C-53.9882 296.569 -48.1447 299.861 -43.3317 304.83C-40.2377 308.023 -37.4107 311.451 -37.1189 316.19C-37.0535 317.266 -36.6305 317.723 -35.6128 317.989C-30.8752 319.213 -26.7703 321.713 -22.8562 324.541C-18.7155 327.535 -15.4294 331.287 -13.5872 336.096C-12.5728 338.744 -12.4299 341.413 -14.5336 343.832C-16.4917 346.085 -19.0749 346.376 -21.7426 346.463C-26.3957 346.617 -30.5582 344.994 -34.6685 342.978C-36.0121 342.321 -37.211 340.527 -38.7622 341.195C-40.2039 341.818 -41.2838 343.301 -42.2689 344.18ZM-37.6289 339.65C-36.0242 341.233 -34.3049 341.783 -32.7194 342.497C-29.3215 344.031 -25.845 345.213 -22.0057 345.342C-16.3382 345.53 -12.0281 341.982 -15.2363 335.122C-16.8843 331.599 -19.3296 328.625 -22.3955 326.287C-26.7796 322.946 -31.4735 320.117 -36.9524 318.859C-37.926 318.636 -38.6391 318.301 -38.3777 316.854C-38.0493 315.033 -38.8913 313.335 -39.7974 311.46C-43.0733 314.371 -45.318 317.77 -48.2061 320.525C-50.4947 322.706 -50.3964 324.852 -49.3344 327.426C-47.1811 332.635 -43.3183 336.254 -38.6312 339.263C-36.8369 337.839 -35.5746 335.919 -33.9011 334.453C-32.2425 333.001 -31.368 330.668 -29.0191 329.974C-31.5007 333.496 -34.532 336.512 -37.6289 339.65ZM-82.1974 306.384C-82.2753 306.608 -82.3562 306.829 -82.4341 307.054C-81.3788 308.043 -80.3234 309.033 -79.271 310.025C-77.4807 311.704 -75.6875 313.38 -73.9061 315.068C-73.1477 315.787 -72.5256 316.006 -71.7465 314.99C-71.3004 314.41 -70.8755 313.348 -69.6937 313.875C-69.7956 314.149 -69.8204 314.37 -69.9392 314.509C-71.8945 316.783 -71.9539 316.839 -69.8517 318.765C-61.8901 326.055 -54.4748 333.922 -46.3201 341.009C-45.238 341.951 -44.5034 343.867 -43.0608 343.653C-41.7365 343.456 -41.0332 341.668 -40.144 340.506C-40.0489 340.379 -40.0832 340.154 -40.0373 339.838C-41.0759 339.053 -42.2092 338.273 -43.2592 337.393C-47.3474 333.961 -50.659 329.978 -51.2332 324.44C-51.388 322.95 -51.9202 322.474 -53.2002 322.074C-61.5079 319.49 -68.4022 314.886 -73.3866 307.638C-73.8528 306.959 -74.2989 306.401 -75.2294 306.408C-77.5542 306.428 -79.8757 306.396 -82.1974 306.384ZM-67.387 295.451C-66.9305 298.028 -65.6147 300.062 -64.0292 301.935C-63.0397 303.104 -61.9863 303.313 -61.0059 302.222C-58.965 299.954 -56.2353 300.452 -53.7224 300.046C-53.4564 300.003 -53.1525 300.078 -53.045 300.436C-52.9463 300.768 -53.063 301.066 -53.303 301.212C-54.4705 301.927 -55.6644 302.598 -56.8435 303.289C-57.842 303.875 -58.7439 304.648 -59.9759 303.536C-60.4786 303.082 -61.2485 303.435 -61.6548 304.341C-57.5527 308.523 -52.5958 311.338 -47.0639 313.207C-44.0621 314.222 -44.0937 314.038 -41.8865 311.597C-40.6061 310.182 -41.0156 309.385 -41.9723 308.162C-45.8284 303.245 -50.7701 299.762 -56.4529 297.381C-59.8543 295.957 -63.3952 294.641 -67.387 295.451ZM-48.8202 318.737C-49.3097 318.563 -49.5809 318.455 -49.8581 318.368C-56.659 316.288 -62.468 312.599 -67.2946 307.406C-69.3774 305.161 -69.2883 305.079 -72.4144 306.41C-72.3212 306.677 -72.2696 306.97 -72.1261 307.21C-71.7746 307.8 -71.4262 308.401 -70.9947 308.93C-66.2188 314.788 -60.1274 318.708 -52.9521 320.935C-50.5427 321.683 -50.5006 321.547 -48.8202 318.737ZM-45.553 315.21C-46.0644 314.723 -46.7434 314.639 -47.3773 314.414C-52.5018 312.603 -57.3695 310.247 -61.2071 306.329C-63.0848 304.41 -64.8144 304.144 -66.9559 305.289C-67.0651 305.861 -66.8926 306.211 -66.6194 306.502C-61.8955 311.544 -56.1443 314.978 -49.6423 317.172C-47.4101 317.922 -47.377 317.819 -45.553 315.21ZM-64.9763 302.878C-66.4622 300.598 -68.1062 298.61 -68.7548 296.074C-68.9981 295.124 -69.6633 295.247 -70.377 295.595C-71.2624 296.028 -71.3401 296.779 -71.1789 297.592C-70.8938 299.036 -70.52 300.456 -69.883 301.795C-68.5123 304.675 -68.2705 304.744 -64.9763 302.878ZM-72.7557 296.913C-74.4601 298.657 -74.853 300.384 -74.373 302.405C-73.6877 305.296 -72.8473 305.578 -70.2323 303.676C-71.5842 301.754 -71.9444 299.42 -72.7557 296.913Z" fill="#151515"/>
<path d="M143.807 118.666C143.015 115.775 143.077 112.867 143.201 109.98C143.396 105.475 142.597 101.197 140.816 97.0742C139.14 93.1882 136.789 89.7302 134.17 86.0581C132.721 88.1815 131.706 90.1061 131.854 92.4327C131.952 94.0055 131.444 95.2087 130.404 96.4239C127.914 99.334 125.603 102.399 123.213 105.395C121.149 107.982 119.073 108.524 115.913 107.338C114.041 106.633 112.341 105.611 111.014 104.144C110.039 103.07 109.194 103.033 107.918 103.529C105.462 104.485 103.006 105.356 100.23 105.23C97.9764 105.127 96.2614 104.332 94.8103 102.752C91.8317 99.5038 90.4872 95.5634 90.0839 91.2554C89.9551 89.8864 89.9414 88.5092 89.8658 87.1346C89.8468 86.8065 89.9544 86.541 90.262 86.4658C90.7619 86.3412 91.0377 86.7003 91.0327 87.1022C91.0053 88.9816 91.4243 90.8042 91.6186 92.6552C91.906 95.3697 92.9098 97.7805 94.1738 100.131C95.5637 102.709 97.8054 103.917 100.652 104.014C102.941 104.091 105.118 103.47 107.211 102.585C108.167 102.182 108.959 101.666 108.277 100.371C107.11 98.1428 108.008 96.4038 109.403 94.5047C114.525 87.5327 120.162 80.9742 125.493 74.1687C132.882 64.7407 140.297 55.3305 147.909 46.0838C152.278 40.7748 157.253 36.0245 162.869 31.9837C168.072 28.2394 173.632 25.215 179.77 23.3284C187.155 21.0551 194.636 20.0443 202.396 21.1214C207.869 21.8823 213.197 23.0651 218.345 25.0243C221.479 26.2165 224.299 28.0692 227.021 29.9864C235.192 35.7349 241.65 42.914 245.949 52.0886C249.876 60.4753 251.606 69.1935 251.225 78.3678C250.865 87.0517 248.419 95.1604 244.112 102.707C243.626 103.561 243.158 104.425 242.696 105.291C242.66 105.359 242.727 105.481 242.776 105.741C243.861 106.184 245.047 106.474 246.329 106.516C249.678 106.631 252.917 107.359 256.066 108.481C261.639 110.463 263.694 113.405 263.626 119.315C263.615 120.166 263.862 121.078 263.273 121.849C262.402 121.818 262.434 121.212 262.414 120.604C262.386 119.72 262.249 118.835 262.283 117.955C262.433 113.951 260.213 111.49 256.862 109.963C253.9 108.612 250.663 107.971 247.445 107.778C245.413 107.655 243.178 106.382 241.42 107.478C239.847 108.46 238.956 110.486 237.652 111.951C226.564 124.43 215.471 136.907 204.342 149.351C194.719 160.112 185.041 170.823 175.421 181.588C174.735 182.355 174.104 182.81 173.033 183.029C168.778 183.897 166.345 186.683 165.068 190.779C164.182 193.629 162.678 196.133 159.393 196.855C158.913 196.959 158.411 197.06 157.99 197.289C156.598 198.044 156.337 199.334 157.506 200.723C160.876 204.724 164.902 207.7 170.241 208.567C173.328 209.067 176.476 209.275 179.454 210.331C181.978 211.228 183.721 215.69 182.454 218.018C182.382 218.151 182.149 218.247 181.983 218.264C181.611 218.301 181.477 217.987 181.475 217.715C181.473 217.032 181.594 216.344 181.571 215.661C181.478 213.131 180.342 211.633 177.894 210.982C176.475 210.605 175.006 210.22 173.556 210.2C167.143 210.114 162.131 207.127 157.717 202.817C156.95 202.068 156.287 201.193 155.199 200.735C154.044 201.344 153.294 202.427 152.58 203.443C151.503 204.978 150.161 205.175 148.481 204.897C145.518 204.406 143.51 202.581 142.066 200.171C141.205 198.736 140.794 197.091 142.408 195.619C143.411 194.705 144.203 193.547 145.065 192.482C146.272 190.99 147.251 189.603 147.51 187.411C147.838 184.641 149.579 182.058 152.467 181.033C156.131 179.73 158.356 177.277 159.323 173.611C159.503 172.924 159.695 172.363 160.209 171.837C163.849 168.111 167.355 164.261 170.675 160.249C171.159 159.664 171.795 159.531 172.419 159.254C174.622 158.275 176.405 156.735 177.877 154.848C179.179 153.179 179.078 152.886 177.698 151.162C175.867 148.874 174.056 146.625 173.475 143.551C172.666 139.286 174.209 135.638 175.962 132.006C177.326 129.182 178.744 126.378 180.282 123.647C182.693 119.362 183.592 114.656 184.337 109.896C184.41 109.426 184.398 109.423 185.376 108.255C185.912 109.673 185.507 110.992 185.305 112.303C184.465 117.811 182.383 122.845 179.65 127.674C177.87 130.822 176.203 134.034 175.121 137.54C173.664 142.261 175.062 146.193 178.006 149.807C178.37 150.255 178.835 150.66 179.497 150.642C179.639 150.537 179.914 150.42 179.909 150.328C179.67 147.366 181.358 145.918 183.912 145.071C184.672 144.82 185.145 144.152 185.68 143.558C192.652 135.83 199.692 128.164 206.635 120.412C213.108 113.184 219.579 105.95 225.867 98.5617C229.139 94.7159 231.094 90.1038 232.546 85.2438C234.018 80.3159 234.156 75.2719 233.446 70.3536C232.485 63.6903 229.801 57.6122 225.495 52.2529C219.672 45.0061 212.037 40.8916 203.158 39.0227C197.133 37.7536 191.114 38.2104 185.152 40.092C175.895 43.0147 168.928 48.996 162.66 56.0744C156.275 63.2853 150.723 71.1623 144.562 78.5516C143.833 79.4256 143.154 79.9985 142.012 80.2704C140.004 80.7478 138.13 81.6159 136.546 83.0116C135.015 84.3573 134.945 84.7056 135.99 86.4783C137.185 88.5058 138.703 90.3104 139.844 92.3879C142.528 97.275 144.336 102.329 144.431 108.019C144.49 111.598 144.147 115.119 143.807 118.666ZM122.874 102.949C123.668 102.989 123.874 102.487 124.166 102.122C125.938 99.8913 127.607 97.568 129.508 95.4529C130.307 94.5615 130.731 93.7539 130.663 92.601C130.336 87.129 135.347 80.5318 141.173 79.2288C142.391 78.9572 143.207 78.3053 143.98 77.3192C149.552 70.2166 155.077 63.0693 160.86 56.1391C164.879 51.3248 169.2 46.7691 174.749 43.5733C180.241 40.4096 185.976 37.8826 192.324 37.3182C199.998 36.6364 207.397 37.8682 214.275 41.5503C217.495 43.272 220.673 45.1354 223.173 47.7932C227.356 52.2417 230.814 57.1652 232.828 63.0773C235.676 71.4437 235.799 79.734 232.965 88.0771C231.07 93.656 227.876 98.4184 223.937 102.772C218.002 109.329 212.325 116.124 206.319 122.616C199.912 129.54 193.747 136.675 187.328 143.581C186.247 144.743 185.953 145.589 186.616 147.124C187.69 149.62 187.62 152.327 186.815 154.912C185.746 158.341 183.271 160.538 179.951 161.656C178.285 162.218 177.04 163.066 175.955 164.438C174.124 166.748 172.139 168.94 170.152 171.119C169.564 171.764 169.066 172.722 167.376 172.68C170.232 168.859 173.481 165.894 175.882 162.076C175.304 161.91 174.92 161.852 174.584 161.694C172.589 160.753 171.248 161.254 169.839 163.064C167.371 166.229 164.533 169.108 161.853 172.105C160.765 173.323 160.985 174.385 162.42 175.007C163.537 175.489 164.796 175.277 165.503 174.618C167.471 172.778 168.833 173.867 170.3 175.196C171.532 176.31 172.796 177.357 173.645 178.854C174.573 180.493 174.804 180.464 176.152 179.035C176.826 178.32 177.448 177.555 178.101 176.82C183.384 170.874 188.648 164.913 193.954 158.991C201.096 151.019 208.273 143.079 215.427 135.119C221.469 128.397 227.532 121.696 233.519 114.926C235.795 112.352 238.086 109.751 240.02 106.924C247.788 95.5798 251.29 83.0701 249.692 69.3048C248.727 60.9954 246.073 53.1561 241.391 46.2847C232.939 33.8763 221.555 25.6199 206.44 22.9537C198.088 21.4805 189.911 21.6071 181.749 24.0005C170.108 27.4134 160.399 33.8241 152.46 42.8888C144.307 52.1977 136.815 62.0567 129.004 71.6511C123.487 78.426 118.084 85.2901 112.661 92.1394C112.213 92.7075 111.524 93.2566 111.732 94.2359C116.86 95.394 120.837 98.0506 122.874 102.949ZM164.142 189.355C165.896 185.525 168.39 183.056 172.085 181.904C173.227 181.55 173.098 180.748 172.666 179.806C171.76 177.833 170.074 176.637 168.468 175.349C167.838 174.843 167.208 174.952 166.591 175.431C164.934 176.72 163.153 176.716 161.323 175.865C160.872 175.656 160.274 175.283 160.058 175.841C159.08 178.371 156.813 179.799 154.853 181.748C158.815 183.264 161.549 185.84 164.142 189.355ZM152.753 201.296C154.15 199.71 155.368 198.336 156.571 196.953C157.082 196.368 157.817 195.834 158.019 195.146C158.831 192.393 156.619 191.126 154.998 189.69C153.175 188.076 150.817 187.706 149.668 188.906C147.945 190.703 146.452 192.717 144.678 194.859C148.323 196.03 150.986 197.989 152.753 201.296ZM114.844 100.195C114.171 101.3 113.252 101.499 112.32 101.763C111.394 102.027 111.337 102.754 111.96 103.325C113.704 104.915 115.519 106.428 118.046 106.577C119.233 106.645 120.444 106.779 121.256 105.633C122.137 104.396 121.685 103.156 121.082 102.018C119.491 99.0101 116.913 97.1645 113.773 96.0195C112.818 95.6718 111.825 95.6845 110.862 95.8066C109.354 95.9969 108.617 97.4678 109.057 99.1842C109.523 101.01 110.122 101.27 111.98 100.692C112.778 100.444 113.494 99.7389 114.844 100.195ZM174.218 159.818C176.98 161.68 179.251 161.13 181.542 159.575C186.024 156.539 186.482 153.592 185.729 148.334C185.621 147.583 185.512 146.358 184.25 146.52C183.088 146.671 181.669 147.004 181.502 148.333C181.241 150.409 180.027 152.726 182.333 154.514C182.516 154.654 182.407 155.046 182.111 155.216C181.138 155.373 181.002 153.833 179.978 154.117C179.152 155.139 178.431 156.205 177.535 157.093C176.57 158.045 175.44 158.829 174.218 159.818ZM144.605 196.425C142.954 196.372 142.317 197.235 142.799 198.86C143.418 200.941 146.986 203.796 149.168 203.958C150.798 204.079 151.744 202.818 151.176 201.282C150.328 198.99 146.959 196.499 144.605 196.425ZM160.012 195.345C161.244 193.567 161.334 193.275 160.632 191.903C158.924 188.563 156.128 186.492 152.577 185.516C151.512 185.224 150.21 185.043 149.242 186.04C148.981 186.311 148.669 186.649 148.88 187.073C149.087 187.49 149.474 187.489 149.868 187.311C151.609 186.531 153.144 187.287 154.638 188.027C157.634 189.511 159.569 191.829 160.012 195.345ZM162.499 192.382C163.035 189.376 161.177 186.494 157.183 184.216C155.572 183.297 153.743 182.159 151.337 183.657C156.534 185.076 160.352 187.646 162.499 192.382Z" fill="#151515"/>
<path d="M152.038 247.103C150.896 245.652 151.275 244.419 151.442 243.385C152.817 235.011 150.334 227.923 144.573 221.832C141.232 218.298 141.253 218.254 138.132 222.033C131.442 230.132 124.695 238.189 118.128 246.392C116.532 248.387 113.877 248.876 110.907 247.915C107.519 246.816 105.456 244.237 104.342 240.865C103.661 238.802 104.57 237.249 105.806 235.763C109.004 231.92 112.199 228.071 115.394 224.224C119.784 218.942 124.156 213.648 128.573 208.386C129.83 206.889 131.343 205.611 132.759 204.282C134.314 202.827 136.549 203.113 138.361 203.832C141.132 204.931 143.397 206.778 144.771 209.58C145.958 211.998 145.745 213.906 143.563 215.497C142.213 216.48 142.342 217.37 143.146 218.441C143.791 219.301 144.534 220.094 145.284 220.867C151.836 227.612 154.599 235.514 152.038 247.103ZM118.403 243.455C118.952 243.098 119.245 242.99 119.42 242.781C125.956 234.944 132.474 227.09 139.009 219.256C140.088 217.964 140.743 216.874 140.251 214.88C139.774 212.93 139.112 211.31 137.581 210.247C136.054 209.187 134.464 207.598 132.265 209.002C132.066 209.128 131.538 209.134 131.488 209.037C130.713 207.443 130.158 208.595 129.644 209.196C126.446 212.93 123.261 216.672 120.093 220.43C116.485 224.712 112.889 229.002 109.307 233.305C108.362 234.44 108.446 234.84 109.941 235.3C114.055 236.556 116.937 239.083 118.403 243.455ZM112.979 245.993C115.07 245.956 115.948 244.799 115.444 242.743C114.86 240.343 111.972 237.94 109.494 237.795C107.938 237.704 106.801 238.762 106.876 240.231C107.016 243.001 110.235 246.041 112.979 245.993ZM142.486 212.223C142.191 208.255 139.485 205.907 135.838 206.352C138.835 207.165 140.287 209.679 142.486 212.223Z" fill="#151515"/>
<path d="M63.0387 147.996C59.7671 148.336 57.2436 147.93 54.7225 147.655C49.8927 147.127 47.3998 144.786 46.2421 140.713C46.0274 139.962 45.3226 139.142 45.9691 138.067C47.0948 138.596 47.2367 139.728 47.4949 140.634C48.6265 144.624 51.4934 146.018 55.3276 146.588C57.7715 146.949 60.1901 146.489 62.5923 146.915C63.1944 147.021 63.786 146.844 64.2693 146.486C67.0179 144.455 69.5163 145.721 71.8896 147.178C73.5651 148.209 74.8719 149.696 75.657 151.559C76.6609 153.938 76.3461 155.996 74.5087 157.754C72.9117 159.279 71.693 161.351 69.2216 161.737C68.453 161.857 68.1305 162.538 67.6966 163.05C62.4335 169.277 57.1822 175.509 51.9308 181.745C50.3498 183.622 49.442 183.798 47.0418 182.979C45.3404 182.4 44.2388 181.206 43.3808 179.762C42.3704 178.067 42.5535 176.348 43.8224 174.844C47.7483 170.197 51.6917 165.569 55.6293 160.932C56.702 159.669 57.8337 158.449 58.8271 157.127C59.3416 156.444 60.1691 155.774 60.0292 154.831C59.6525 152.243 60.8204 150.292 63.0387 147.996ZM59.4501 158.897C58.6117 159.38 57.6586 159.76 57.5876 160.945C61.108 162.201 61.2139 162.281 62.0396 164.283C57.7914 160.948 56.4825 161.013 54.4015 164.773C56.1981 165.778 58.7691 165.555 60.1174 168.183C55.266 164.952 53.3105 164.974 51.5758 168.012C51.9797 168.741 53.2515 167.835 53.4257 169L53.4881 168.929C52.0876 169.014 50.387 168.266 49.5706 170.233C51.2344 171.229 53.5322 170.703 54.8246 173.29C53.1194 172.285 51.8829 171.492 50.46 171.326C48.4585 171.094 47.8744 170.949 47.3925 173.334C50.4245 173.645 52.8286 174.863 53.7961 178.01C51.9792 177.483 51.2083 175.174 48.8225 174.999C49.7158 176.485 51.0677 177.248 51.4766 178.728C51.6216 179.258 52.2598 179.228 52.6812 178.832C53.0255 178.511 53.2084 177.992 53.7961 178.004C55.1669 176.241 56.4876 174.436 57.9231 172.726C61.5696 168.386 65.2456 164.069 68.9599 159.782C69.9939 158.588 69.7784 157.407 69.096 156.272C68.3784 155.08 67.3255 154.185 65.9692 153.714C64.4064 153.171 63.1088 153.339 62.347 155.014C63.467 156.078 65.3696 155.434 66.5549 157.001C60.9075 155.778 60.8898 155.784 59.4085 158.947L59.4501 158.897ZM73.4132 156.533C75.1011 155.132 75.4133 153.577 74.2982 151.555C73.069 149.333 71.2097 147.866 68.7798 147.062C66.4945 146.308 65.7605 146.579 64.5494 148.896C68.9201 150.813 69.4417 149.908 73.4132 156.533ZM48.794 182.293C49.8956 182.331 50.5754 181.673 50.6375 180.503C50.7551 178.31 48.6044 176.053 46.1981 175.843C44.4679 175.692 43.6209 176.699 44.0524 178.388C44.5303 180.241 46.9393 182.224 48.794 182.293ZM71.0032 159.34C71.389 158.988 71.6881 158.836 71.7839 158.597C71.9215 158.249 71.9946 157.835 71.9581 157.463C71.6091 154.086 67.9774 150.317 63.8145 150.512C62.1127 150.592 61.7049 151.195 61.5458 153.423C65.7941 150.406 70.3056 153.092 71.0032 159.34Z" fill="#151515"/>
<path d="M49.8149 125.273C48.3905 125.978 46.9417 125.683 45.5293 125.771C45.0477 125.801 44.5312 125.71 44.1364 126.089C43.7623 126.453 43.6742 126.938 43.6658 127.431C43.6535 128.09 44.1227 128.181 44.6364 128.24C45.4098 128.327 46.1893 128.401 46.9535 128.556C48.6591 128.896 49.6167 129.95 49.6944 131.499C49.7668 132.927 49.0472 133.872 47.1931 134.261C45.3686 134.645 43.5142 134.523 41.6704 134.064C40.4963 133.772 39.6717 133.298 39.5216 132.026C39.3603 130.645 39.7677 129.533 40.98 128.735C41.5727 128.348 42.8784 128.908 42.6412 127.343C42.4241 125.906 41.6102 125.65 40.4077 125.691C40.1684 125.699 39.9214 125.479 39.2054 125.141C41.5117 124.686 43.399 124.143 42.6572 121.344C45.45 122.209 47.4079 124.055 49.8149 125.273ZM44.6568 129.446C43.7374 129.595 42.765 129.711 41.8157 129.922C41.2184 130.055 40.7467 130.451 40.6459 131.101C40.5268 131.866 40.8547 132.438 41.5679 132.746C43.4483 133.559 45.3927 133.398 47.309 132.976C47.9803 132.829 48.4794 132.261 48.4806 131.454C48.4818 130.639 47.9938 130.181 47.28 129.991C46.4275 129.768 45.5538 129.631 44.6568 129.446ZM45.7406 124.315C45.1676 123.727 44.784 123.054 43.9982 123.662C43.8855 123.75 43.8187 124.104 43.8921 124.184C44.3504 124.674 44.9148 124.63 45.7406 124.315Z" fill="#151515"/>
<path d="M268.295 131.321C268.332 133.824 267.278 134.791 264.866 134.123C263.706 133.801 262.819 134.101 261.778 134.352C260.461 134.674 259.048 134.906 258.182 133.332C257.442 131.99 257.555 130.037 258.63 128.961C259.426 128.164 260.423 127.799 261.545 128.381C262.806 129.035 263.926 129.469 265.513 128.875C267.084 128.286 268.268 129.577 268.295 131.321ZM258.868 131.418C258.898 132.535 259.325 133.308 260.536 133.397C261.794 133.489 262.966 132.511 262.948 131.415C262.932 130.389 261.964 129.646 260.709 129.639C259.489 129.63 258.986 130.319 258.868 131.418ZM264.606 131.76C264.709 132.399 264.761 133.138 265.686 133.143C266.723 133.148 266.933 132.44 266.908 131.586C266.891 130.891 266.8 130.128 265.914 130.153C265.013 130.178 264.616 130.847 264.606 131.76Z" fill="#151515"/>
<path d="M182.284 100.222C182.685 100.981 182.108 101.202 181.855 101.565C181.078 102.687 181.624 103.493 182.65 103.862C183.897 104.306 183.648 103.238 183.832 102.503C184.423 100.147 186.307 99.1906 188.524 99.9673C189.745 100.396 190.547 101.21 190.736 102.461C190.901 103.552 189.584 105.345 188.348 105.487C185.913 105.761 183.458 105.814 181.175 104.587C179.796 103.847 180.122 102.625 180.266 101.494C180.426 100.236 181.266 100.01 182.284 100.222ZM187.709 104.065C188.293 104.074 189.252 103.766 189.191 102.498C189.129 101.244 188.076 100.952 187.059 101.047C186.108 101.137 184.975 101.371 185.063 102.671C185.142 103.925 186.155 104.119 187.709 104.065Z" fill="#151515"/>
<path d="M181.574 95.155C181.489 96.3041 181.437 97.1787 181.353 98.0471C181.321 98.3839 181.028 98.5537 180.742 98.5405C180.331 98.5236 180.072 98.3656 180.113 97.8162C180.221 96.3509 180.232 94.8821 180.307 93.4137C180.32 93.1537 180.466 92.9003 180.634 92.3987C182.182 93.6065 183.6 94.7457 185.053 95.8377C186.092 96.6173 187.22 97.1758 188.596 96.8607C189.613 96.6265 189.891 95.9925 189.263 95.1855C189.034 94.8917 188.71 94.63 188.377 94.4657C187.809 94.188 187.243 93.9191 187.731 93.1975C188.091 92.6645 188.583 93.0098 189.034 93.1894C190.629 93.8359 191.211 94.8349 190.858 96.3728C190.55 97.7218 189.269 98.5812 187.731 98.3546C186.565 98.1831 185.487 97.758 184.533 96.9995C183.71 96.348 182.972 95.5286 181.574 95.155Z" fill="#151515"/>
<path d="M137.871 127.6C137.785 128.962 137.735 129.94 137.651 130.915C137.622 131.245 137.359 131.374 137.045 131.399C136.676 131.43 136.48 131.148 136.454 130.888C136.287 129.037 136.417 127.199 136.664 125.061C138.586 125.895 139.712 127.426 141.193 128.441C142.161 129.105 143.088 129.828 144.344 129.802C144.94 129.79 145.567 129.77 145.748 129.032C145.911 128.362 146.077 127.686 145.207 127.28C144.733 127.059 144.054 127.037 143.918 126.322C145.676 125.781 146.731 126.289 147.095 127.845C147.494 129.546 146.849 130.775 145.383 130.972C143.775 131.185 142.273 130.915 140.955 129.856C140.07 129.142 139.333 128.198 137.871 127.6Z" fill="#151515"/>
<path d="M145.523 137.018C145.973 135.788 145.713 134.699 145.827 133.639C145.871 133.249 145.929 132.83 146.399 132.77C146.872 132.711 147.056 133.063 147.116 133.48C147.145 133.672 147.152 133.868 147.169 134.063C147.619 139.154 147.491 139.248 142.839 137.448C141.118 136.78 139.366 136.183 137.647 135.509C137.058 135.276 136.386 135 136.587 133.849C139.692 134.751 142.446 136.418 145.523 137.018Z" fill="#151515"/>
<path d="M95.7601 75.8962C96.2451 78.1004 96.062 79.8165 96.0002 81.5066C95.9657 82.4729 95.283 82.5403 94.5195 82.2438C91.7013 81.1418 88.9549 79.8569 86.0409 79.0027C85.6309 78.8824 85.3549 78.5559 85.5255 78.1194C85.6812 77.7182 86.0185 77.6017 86.4695 77.7902C88.4443 78.6249 90.4131 79.4743 92.4119 80.244C94.5433 81.0647 94.7272 80.9179 94.8891 78.7052C94.9491 77.9489 94.6875 77.129 95.7601 75.8962Z" fill="#151515"/>
<path d="M85.388 72.3821C87.4126 71.5561 89.3006 72.0357 91.1497 72.0363C92.7891 72.0358 92.7891 72.0477 93.653 70.6157C94.4853 71.3234 95.3559 72.0638 96.2323 72.8071C93.3635 73.5106 87.371 73.341 85.388 72.3821Z" fill="#151515"/>
<path d="M266.038 122.549C267.049 123.494 267.858 124.249 269.001 125.321C265.186 125.76 261.844 125.421 258.502 125.061C258.198 125.027 258.057 124.689 258.148 124.391C258.241 124.072 258.578 123.932 258.844 124.025C260.365 124.562 261.936 123.997 263.465 124.268C264.761 124.493 265.784 124.226 266.038 122.549Z" fill="#151515"/>
<path d="M120.452 300.338C121.772 300.463 121.735 301.92 122.595 302.465C123.356 302.049 123.126 301.28 123.28 300.651C123.434 300.034 122.903 299.305 123.769 298.612C124.977 300.902 123.67 302.917 123.585 305.157C121.74 303.811 121.456 303.355 120.452 300.338Z" fill="#151515"/>
<path d="M102.64 287.25C105.078 287.058 108.28 288.795 109.766 291.048C107.047 289.601 104.844 288.425 102.64 287.25Z" fill="#151515"/>
<path d="M112.366 291.977C115.1 293.398 116.424 295.515 118.651 297.222C116.463 297.581 116.079 295.935 115.155 295.156C114.238 294.38 112.94 293.951 112.366 291.977Z" fill="#151515"/>
<path d="M122.819 295.397C121.361 293.386 119.975 291.798 117.861 291.114C117.598 291.029 117.547 290.636 117.755 290.389C117.862 290.262 118.149 290.125 118.252 290.179C120.199 291.229 122.191 292.244 123.187 294.4C123.243 294.516 123.07 294.74 122.819 295.397Z" fill="#151515"/>
<path d="M107.011 286.781C109.53 286.826 111.593 287.856 113.912 288.382C112.741 289.275 112.705 289.366 110.441 288.483C109.338 288.052 107.923 288.18 107.011 286.781Z" fill="#151515"/>
<path d="M82.2133 276.993C80.4497 277.607 79.4998 276.214 78.3207 275.738C75.2846 274.504 75.3294 274.392 73.3643 277.444C74.4776 278.082 75.6692 278.41 76.9328 278.532C77.0509 278.545 77.1854 278.823 77.2317 279.001C77.3331 279.391 77.0043 279.576 76.7476 279.521C74.6143 279.067 72.4871 278.571 70.2964 277.804C73.2244 277.065 74.0691 274.218 76.2755 272.503C76.8515 273.653 77.7363 274.49 78.8886 275.016C80.0143 275.534 81.2741 275.83 82.2133 276.993Z" fill="#151515"/>
<path d="M78.9634 269.617C79.5092 268.012 80.7549 267.029 81.6857 265.795C82.2895 264.994 82.4552 264.366 81.5436 263.554C80.5497 262.671 79.7817 261.533 78.9096 260.503C79.51 259.785 79.8188 260.617 80.151 260.941C82.0291 262.779 83.6626 265.063 86.9587 263.993C86.6816 265.038 86.1094 264.878 85.7345 264.832C84.2939 264.656 83.4277 265.375 82.4744 266.367C81.3727 267.511 80.588 269.04 78.9634 269.617Z" fill="#151515"/>
<path d="M66.9828 265.46C67.7806 266.56 67.7577 266.994 67.5818 267.322C66.9585 268.474 67.3367 269.043 68.486 269.56C69.6795 270.098 71.0244 270.51 72.0427 271.81C70.6165 272.284 69.8294 271.408 69.0196 270.914C67.4884 269.975 66.0828 269.323 64.5359 270.867C64.144 271.258 63.5227 271.456 62.8442 270.717C64.8787 269.702 66.6839 268.461 66.9828 265.46Z" fill="#151515"/>
<path d="M26.1457 234.492C28.9863 233.531 29.7594 231.389 31.0975 229.656C31.645 231.169 30.8481 232.211 30.0232 232.936C28.7592 234.047 28.815 235.253 29.1388 236.638C29.3324 237.469 29.925 238.259 29.3673 239.317C28.0724 238.944 28.7109 237.703 28.3277 236.977C27.8888 236.15 27.8975 235.039 26.1457 234.492Z" fill="#151515"/>
<path d="M21.99 230.812C20.6764 232.384 21.6484 233.485 23.3142 234.688C19.9804 233.893 19.9804 233.893 18.3303 234.834L18.392 234.89C20.2389 233.026 18.0343 230.916 18.5965 228.989C19.2347 228.96 19.3661 229.25 19.4821 229.671C20.0272 231.665 20.0391 231.662 22.0576 230.875L21.99 230.812Z" fill="#151515"/>
<path d="M56.4785 261.541C57.9991 259.362 60.0017 258.22 62.6926 258.804C64.758 259.255 65.9049 260.259 66.6084 262.465C64.872 261.215 63.6215 259.686 61.5129 259.608C59.5135 259.535 58.1368 260.731 56.4785 261.541Z" fill="#151515"/>
<path d="M30.2188 225.792C27.0706 222.782 23.8787 221.965 20.3377 225.31C20.7348 223.332 22.1113 222.748 23.6479 222.632C26.3398 222.433 28.9679 222.591 30.2188 225.792Z" fill="#151515"/>
<path d="M110.178 265.109C107.482 265.506 105.285 265.518 102.809 265.062C104.917 264.169 107.501 264.164 110.178 265.109Z" fill="#151515"/>
<path d="M92.0124 264.69C94.1645 264.358 96.3405 263.985 98.478 264.765C96.3236 265.537 94.1736 265.479 92.0124 264.69Z" fill="#151515"/>
<path d="M82.1332 302.291C80.0032 304.659 77.8702 307.024 75.7402 309.392C77.0429 306.491 79.2251 304.318 81.3867 302.133C81.4877 302.03 81.9148 302.254 82.1892 302.324L82.1332 302.291Z" fill="#151515"/>
<path d="M30.0022 214.473C32.1318 215.642 33.8694 217.229 35.3574 219.102C32.8531 218.427 31.5883 216.225 30.0022 214.473Z" fill="#151515"/>
<path d="M81.3964 280.028C83.7246 280.507 86.0527 280.989 88.3808 281.467C88.3354 281.686 88.29 281.901 88.2445 282.12C85.8104 282.152 83.5459 281.369 81.248 280.745C81.2965 280.506 81.345 280.267 81.3964 280.028Z" fill="#151515"/>
<path d="M66.2642 276.708C63.8194 276.509 61.6178 275.546 59.4102 274.61C59.4763 274.397 59.5394 274.182 59.6055 273.969C61.8852 274.673 64.1649 275.376 66.4446 276.079C66.3845 276.289 66.3243 276.498 66.2642 276.708Z" fill="#151515"/>
<path d="M76.4458 258.149C74.0938 256.559 72.445 254.943 70.6321 253.069C72.786 253.538 75.0416 255.488 76.4458 258.149Z" fill="#151515"/>
<path d="M59.2549 270.829C55.8257 269.632 54.9637 268.381 55.366 265.371C55.9684 267.718 57.4604 269.389 59.2549 270.829Z" fill="#151515"/>
<path d="M5.4334 214.175C6.95637 211.529 9.21728 209.56 11.4782 207.592C9.8435 210.137 7.98537 212.477 5.4334 214.175Z" fill="#151515"/>
<path d="M86.0183 278.872C88.3947 279.147 90.183 280.631 92.2881 281.413C89.8813 281.294 87.7288 280.556 86.0183 278.872Z" fill="#151515"/>
<path d="M51.6372 234.578C49.3384 233.561 47.9159 231.597 46.229 229.913C48.7359 230.665 49.9057 232.958 51.6372 234.578Z" fill="#151515"/>
<path d="M55.4246 331.128C55.6023 331.608 55.6177 332.057 55.2729 332.493C53.6763 334.512 52.0768 336.528 49.8098 337.953C51.7029 335.702 53.599 333.454 55.4921 331.203C55.4921 331.206 55.4246 331.128 55.4246 331.128Z" fill="#151515"/>
<path d="M61.2739 289.655C61.1843 291.573 59.4487 293.645 57.2999 295.07C57.253 294.99 57.1473 294.865 57.1711 294.836C58.5299 293.105 59.9034 291.38 61.2739 289.655Z" fill="#151515"/>
<path d="M40.4627 263.401C42.1988 264.714 43.9348 266.026 45.9092 267.52C43.4562 267.203 41.964 266.137 40.4627 263.401Z" fill="#151515"/>
<path d="M26.9292 211.66C24.9002 210.444 23.0226 209.09 21.9913 206.865C24.0412 208.031 25.5297 209.815 26.9292 211.66Z" fill="#151515"/>
<path d="M37.729 260.585C35.6544 258.474 34.7766 256.264 33.7773 254.125C35.2464 255.094 36.7637 257.59 37.729 260.585Z" fill="#151515"/>
<path d="M64.3871 286.683C65.3615 284.454 67.0505 282.832 68.918 280.988C68.7501 282.61 67.3319 284.426 64.3871 286.683Z" fill="#151515"/>
<path d="M49.3233 269.436C51.4507 270.458 53.5781 271.479 55.7056 272.504C53.1185 272.417 50.8181 271.699 48.984 269.931C49.0971 269.766 49.2102 269.601 49.3233 269.436Z" fill="#151515"/>
<path d="M37.8954 221.664C40.4021 223.031 41.605 225.2 43.8369 226.592C42.0735 226.58 39.7207 224.585 37.8954 221.664Z" fill="#151515"/>
<path d="M68.1538 250.636C65.7009 249.143 64.3676 247.068 62.3437 245.438C64.336 245.735 66.856 247.961 68.1538 250.636Z" fill="#151515"/>
<path d="M30.3588 243.392C31.7484 245.436 32.2417 247.749 32.4243 250.159C30.9577 248.142 30.784 245.729 30.3588 243.392Z" fill="#151515"/>
<path d="M20.8813 197.122C21.2777 195.274 23.0539 194.517 24.0534 193.139C24.6632 192.3 25.5497 191.661 26.3155 190.932C25.1677 193.58 23.123 195.437 20.8813 197.122Z" fill="#151515"/>
<path d="M107.441 273.115C105.916 275.079 104.826 277.458 102.321 278.489C103.838 276.516 105.122 274.321 107.441 273.115Z" fill="#151515"/>
<path d="M0.414618 219.448C1.96057 217.499 3.35956 215.411 5.53454 214.063C4.32662 216.335 2.54257 218.055 0.414618 219.448Z" fill="#151515"/>
<path d="M69.3794 316.127C70.1736 313.888 72.1854 312.699 73.7148 311.096C72.5941 313.058 71.3441 314.908 69.3236 316.074L69.3794 316.127Z" fill="#151515"/>
<path d="M64.3449 321.808C63.3325 323.378 62.2791 324.903 60.6113 325.825C61.5708 324.205 62.7918 322.843 64.3449 321.808Z" fill="#151515"/>
<path d="M69.3228 316.074C68.6946 318.198 66.7254 319.167 65.3531 320.643C66.4107 318.887 67.4919 317.149 69.3787 316.127C69.3787 316.127 69.3228 316.074 69.3228 316.074Z" fill="#151515"/>
<path d="M26.559 190.623C27.8269 188.752 29.2271 187.01 31.2092 185.832C29.9207 187.682 28.8086 189.706 26.559 190.623Z" fill="#151515"/>
<path d="M113.972 265.455C112.946 267.516 111.516 269.196 109.426 270.243C110.684 268.402 112.179 266.788 113.972 265.455Z" fill="#151515"/>
<path d="M82.186 302.323C81.7953 301.899 81.7949 301.408 82.1396 301.011C83.0251 299.987 83.9665 299.008 85.0226 298.115C84.6736 299.927 82.9765 300.814 82.1213 302.279C82.133 302.29 82.186 302.323 82.186 302.323Z" fill="#151515"/>
<path d="M57.9691 240.363C56.0664 240.433 55.6833 238.536 54.4675 237.726C56.263 237.815 57.1606 239.023 57.9067 240.422L57.9691 240.363Z" fill="#151515"/>
<path d="M57.9043 240.421C59.0265 240.453 59.4741 241.301 60.2407 242.156C58.6585 241.947 58.6585 241.947 57.9695 240.362C57.9695 240.362 57.9043 240.421 57.9043 240.421Z" fill="#151515"/>
<path d="M6.30818 249.24C5.89347 250.624 4.65789 251.375 3.7695 252.39C3.8959 250.78 5.26973 250.142 6.30818 249.24Z" fill="#151515"/>
<path d="M102.064 278.927C101.565 280.588 100.393 281.696 99.0114 282.629C99.4632 280.929 100.871 280.017 102.064 278.927Z" fill="#151515"/>
<path d="M-2.88799 222.984C-1.86922 221.887 -0.850445 220.789 0.16537 219.692C-0.256609 221.342 -1.14603 222.558 -2.88799 222.984Z" fill="#151515"/>
<path d="M22.0585 230.875C21.9008 229.385 23.477 229.014 23.8816 227.887C23.6865 229.054 23.6865 229.054 21.988 230.809C21.9909 230.812 22.0585 230.875 22.0585 230.875Z" fill="#151515"/>
<path d="M87.3657 295.884C87.4899 294.702 88.529 294.261 89.4215 293.013C89.1971 294.726 87.9869 295.125 87.3657 295.884Z" fill="#151515"/>
<path d="M6.97696 248.467C7.55189 246.945 8.42583 246.447 9.03833 245.664C8.74164 247.073 8.74164 247.073 6.97696 248.467Z" fill="#151515"/>
<path d="M18.3299 234.836C18.3347 236.205 17.1741 236.734 16.296 237.465C16.5855 236.299 17.3606 235.496 18.3917 234.89C18.3917 234.89 18.3299 234.836 18.3299 234.836Z" fill="#151515"/>
<path d="M17.312 201.247C17.5481 200.125 18.1697 199.298 19.1885 198.768C19.0907 199.997 18.1542 200.586 17.312 201.247Z" fill="#151515"/>
<path d="M0.0746666 255.968C0.615425 255.353 0.860762 254.743 1.64157 254.552C1.45694 255.42 1.09413 255.896 0.0746666 255.968Z" fill="#151515"/>
<path d="M2.18965 256.971C1.93872 258.096 1.3167 258.427 0.654056 259.195C0.654398 257.974 1.23853 257.543 2.18965 256.971Z" fill="#151515"/>
<path d="M109.198 270.488C109.176 271.803 108.286 272.531 107.346 273.224C107.282 271.849 108.564 271.386 109.198 270.488Z" fill="#151515"/>
<path d="M93.6696 288.4C93.8586 289.557 92.8674 289.871 92.2118 290.42C92.2524 289.412 92.9698 288.917 93.7284 288.451C93.7284 288.451 93.6696 288.4 93.6696 288.4Z" fill="#151515"/>
<path d="M19.0906 198.872C19.5231 198.049 19.9939 197.266 20.9818 197.008C20.7961 198.083 20.1197 198.655 19.0906 198.872Z" fill="#151515"/>
<path d="M13.6165 240.063C14.0399 239.297 14.4 238.77 15.3848 238.547C15.058 239.494 14.783 240.116 13.6165 240.063Z" fill="#151515"/>
<path d="M55.4924 331.206C55.9915 330.655 56.2468 329.829 57.1778 329.719C57.5202 330.347 56.896 330.542 56.6491 330.866C56.3488 331.26 55.9602 331.574 55.4308 331.134C55.4249 331.128 55.4924 331.206 55.4924 331.206Z" fill="#151515"/>
<path d="M40.207 349.637C40.4027 350.636 39.6572 350.863 38.9823 351.143C39.1572 350.438 39.3351 349.733 40.2628 349.693L40.207 349.637Z" fill="#151515"/>
<path d="M40.2618 349.692C40.19 349.29 40.3571 348.96 40.6155 348.683C40.859 348.425 41.0499 348.065 41.5518 348.106C41.6266 349.073 41.028 349.445 40.2059 349.639C40.2059 349.636 40.2618 349.692 40.2618 349.692Z" fill="#151515"/>
<path d="M10.686 196.045C8.8996 195.35 7.65108 194.017 6.566 192.489C8.41497 193.087 9.6308 194.458 10.686 196.045Z" fill="#151515"/>
<path d="M190.665 160.019C189.266 161.581 187.87 163.146 186.47 164.708C186.99 162.385 188.902 161.218 190.254 159.591C190.392 159.731 190.53 159.873 190.665 160.019Z" fill="#151515"/>
<path d="M202.023 147.233C201.921 148.072 201.283 148.58 200.767 149.127C199.935 150.003 199.021 150.802 198.019 151.509C199.212 149.949 199.884 147.904 202.091 147.298L202.023 147.233Z" fill="#151515"/>
<path d="M246.073 90.243C245.42 92.1015 245.283 93.5164 244.414 94.7355C244.116 92.8485 244.116 92.8485 246.073 90.243Z" fill="#151515"/>
<path d="M220.936 125.938C220.557 127.801 218.802 128.572 217.739 130.148C218.068 128.249 218.793 127.364 220.995 125.998L220.936 125.938Z" fill="#151515"/>
<path d="M192.687 157.46C193.15 155.846 194.474 155.087 195.655 154.177C195.012 155.583 193.885 156.576 192.687 157.46Z" fill="#151515"/>
<path d="M185.137 166.175C184.166 167.242 183.197 168.307 181.896 169.737C182.271 167.573 183.763 166.921 185.137 166.175Z" fill="#151515"/>
<path d="M215.452 132.079C215.011 133.303 214.28 134.248 213.051 134.77C213.521 133.608 214.403 132.756 215.452 132.079Z" fill="#151515"/>
<path d="M202.09 147.298C201.966 145.509 203.752 145.084 204.623 144.01C204.232 145.438 203.161 146.361 202.019 147.23C202.022 147.233 202.09 147.298 202.09 147.298Z" fill="#151515"/>
<path d="M210.444 138.099C209.672 139.407 208.646 140.277 207.577 141.312C207.982 139.41 208.47 138.866 210.444 138.099Z" fill="#151515"/>
<path d="M240.129 103.036C239.999 101.292 241.11 100.795 241.575 99.9405C241.769 101.159 241.086 101.894 240.129 103.036Z" fill="#151515"/>
<path d="M180.297 170.992C180.058 172.001 179.29 172.544 178.452 173.024C178.796 172.113 179.405 171.43 180.297 170.992Z" fill="#151515"/>
<path d="M223.522 123.401C223.723 122.311 224.42 121.679 225.603 120.858C225.229 122.428 224.178 122.73 223.522 123.401Z" fill="#151515"/>
<path d="M152.457 62.645C152.317 63.5161 152.083 64.3099 151.037 64.7892C150.846 63.5026 152.144 63.3497 152.457 62.645Z" fill="#151515"/>
<path d="M228.319 117.816C228.474 116.927 228.996 116.531 229.746 116.021C229.654 117.087 229.2 117.54 228.319 117.816Z" fill="#151515"/>
<path d="M220.994 125.998C220.976 125.073 221.58 124.66 222.338 124.339C222.436 125.403 221.814 125.784 220.936 125.939C220.936 125.939 220.994 125.998 220.994 125.998Z" fill="#151515"/>
<path d="M59.3968 158.957C60.9929 158.758 62.601 158.515 64.147 160.606C62.2129 159.902 60.833 159.398 59.4532 158.898C59.4502 158.898 59.3968 158.957 59.3968 158.957Z" fill="#151515"/>
<path d="M53.4222 169.002C54.7809 168.421 55.4909 169.379 56.1113 170.503C55.2367 169.978 54.3651 169.45 53.4875 168.929C53.4846 168.932 53.4222 169.002 53.4222 169.002Z" fill="#151515"/>
</g>
<defs>
<clipPath id="clip0">
<rect width="277.684" height="349.619" fill="white" transform="translate(277.743 351.062) rotate(-179.707)"/>
</clipPath>
</defs>
</svg>
