<svg width="297" height="359" viewBox="0 0 297 359" fill="none" xmlns="http://www.w3.org/2000/svg">
<g clip-path="url(#clip0)">
<g clip-path="url(#clip1)">
<path d="M313.573 222.515C318.528 224.024 322.882 226.819 327.498 229.044C329.597 230.06 329.83 232.023 329.907 233.958C330.023 237.179 330.081 240.399 329.946 243.62C329.849 245.893 330.788 247.189 332.81 248.07C335.316 249.153 337.774 250.391 340.193 251.677C343.26 253.312 345.109 255.624 344.712 259.435C344.431 262.143 344.731 264.909 344.634 267.647C344.499 271.67 342.428 274.195 338.558 275.201C337 275.607 335.384 275.829 333.865 276.323C330.449 277.435 327.343 277.164 324.14 275.317C321.063 273.547 320.84 273.74 319.021 276.816C317.618 279.196 315.857 280.762 312.983 281.043C311.232 281.217 309.49 281.681 307.806 282.213C304.99 283.103 302.368 282.803 299.978 281.12C297.791 279.582 295.527 279.621 293.059 280.201C287.263 281.575 281.409 282.716 275.632 284.177C273.281 284.767 271.2 284.573 269.101 283.529C257.866 277.919 246.651 272.28 235.369 266.757C233.172 265.683 232.398 264.184 232.33 261.824C232.204 257.8 227.627 254.018 223.544 254.502C221.309 254.763 219.035 255.121 216.935 255.866C214.216 256.823 211.961 256.175 209.591 254.889C206.194 253.041 202.682 251.416 199.266 249.608C196.305 248.041 193.383 247.286 190.006 248.447C188.09 249.105 185.961 249.84 183.861 249.105C178.142 247.122 176.372 244.945 176.497 239.316C176.604 234.499 176.372 229.673 176.488 224.856C176.546 222.583 175.656 221.325 173.653 220.387C170.43 218.878 167.547 216.789 165.05 214.236C164.315 213.481 163.56 212.872 162.554 213.123C157.609 214.332 152.916 212.504 148.242 211.663C138.905 209.999 129.615 207.89 120.887 203.925C120.161 203.596 119.368 203.219 118.594 203.18C113.02 202.919 109.875 199.359 107.63 194.871C103.837 187.298 102.289 179.386 104.737 171.019C105.86 167.17 108.317 164.635 112.236 163.562C113.165 163.31 114.181 163.136 114.955 162.614C116.252 161.734 118.245 160.786 117.907 159.151C117.462 157.033 115.236 158.077 113.814 158.077C101.08 158.048 88.3454 158.155 75.6112 158.126C65.4317 158.107 61.0386 153.58 60.9805 143.24C60.9708 141.141 61.0096 139.052 60.9709 136.953C60.8934 133.074 60.7773 133.026 56.7423 133.123C50.801 133.268 44.8693 133.364 38.928 133.432C32.6771 133.5 30.1418 131.353 29.2516 125.172C28.9323 122.938 28.9323 120.665 29.4645 118.44C30.645 113.594 32.5319 112.075 37.5733 112.027C45.1499 111.969 52.7362 111.785 60.3032 112.027C63.806 112.143 65.5478 110.915 66.6606 107.655C68.6829 101.726 71.4794 96.0966 72.9889 89.9353C74.7597 82.7197 80.7591 78.5122 88.3647 78.5025C104.331 78.4735 120.297 78.5122 136.253 78.4058C137.879 78.3961 140.385 79.373 141.033 77.4288C141.769 75.2429 139.601 73.705 138.014 72.3798C134.279 69.246 129.828 68.1046 125.029 67.8241C118.042 67.4082 111.762 65.2126 106.876 59.9508C105.395 58.3548 103.924 56.7009 103.412 54.4569C104.921 53.9249 105.182 54.8728 105.56 55.4531C109.827 62.069 116.155 65.0578 123.751 65.8897C125.987 66.1315 128.261 66.2862 130.447 66.7989C136.011 68.1143 140.724 70.7646 143.027 76.3262C143.82 78.2317 145.097 78.5025 146.81 78.4831C152.452 78.4251 158.093 78.3961 163.734 78.3767C177.92 78.3477 192.115 78.5315 206.301 78.2317C213.664 78.0769 218.503 82.6616 218.338 90.0223C218.154 98.0698 218.561 106.127 218.774 114.174C218.841 116.66 218.29 118.914 217.235 121.158C212.861 130.492 208.575 139.874 204.278 149.247C201.598 155.108 197.282 158.165 190.615 158.01C182.235 157.807 173.856 157.961 165.476 157.961C165.079 159.557 166.366 159.509 167.092 159.867C174.736 163.639 182.352 167.479 190.083 171.068C192.018 171.967 192.88 173.089 192.783 175.062C192.676 177.132 193.731 178.235 195.512 179.096C198.831 180.701 202.033 181.968 205.914 182.326C209.939 182.703 213.79 184.967 217.69 186.485C226.844 190.055 235.969 193.682 245.122 197.26C246.138 197.657 247.154 198.344 248.48 197.725C249.119 193.005 248.712 188.178 248.77 183.371C248.828 178.051 249.399 175.217 256.27 172.576C263.933 169.636 271.897 168.901 279.938 168.591C285.734 168.369 291.501 168.853 297.191 170.091C299.272 170.545 301.323 170.294 303.394 169.704C317.947 165.516 332.52 161.395 347.073 157.226C351.302 156.017 351.34 156.269 351.311 151.713C351.224 134.96 351.224 118.208 351.302 101.455C351.311 98.3213 350.944 96.1353 347.383 94.7812C343.589 93.34 340.774 90.2351 339.409 86.1727C338.858 84.5478 338.906 84.5284 340.387 81.2204C340.551 86.9368 343.164 90.4963 347.479 92.8854C350.324 94.462 351.234 93.9687 351.224 90.6994C351.195 74.7593 351.098 58.8191 351.04 42.879C351.011 34.0287 351.069 25.1688 350.924 16.3185C350.895 14.5001 351.398 13.262 352.724 12.1303C360.813 5.22424 368.884 -1.69154 376.925 -8.65568C378.405 -9.94211 379.982 -10.1839 381.85 -9.93244C396.219 -8.04632 410.599 -6.18921 424.978 -4.3708C433.764 -3.25847 442.569 -2.24287 451.356 -1.12087C461.574 0.18491 471.792 1.54872 482.01 2.89319C485.513 3.35746 485.813 3.57026 485.852 7.07167C485.968 16.2508 485.978 25.4396 486.007 34.6187C486.065 54.7567 486.123 74.8947 486.152 95.0326C486.162 105.005 486.065 114.977 486.094 124.94C486.103 126.661 485.233 129.07 486.703 129.95C488.668 131.13 490.603 129.273 492.296 128.122C496.467 125.278 499.825 121.564 503.047 117.744C505.398 114.948 507.866 112.308 510.633 110.006C511.63 110.847 511.204 111.408 510.769 111.872C506.724 116.254 502.689 120.636 498.605 124.978C495.712 128.064 492.49 130.753 488.348 131.991C486.384 132.581 486.094 133.751 486.113 135.579C486.181 145.89 486.123 156.211 486.113 166.522C486.103 171.309 486.113 176.097 486.113 181.427C489.839 179.918 492.896 178.196 496.477 177.809C501.353 177.287 506.124 177.983 510.933 178.361C511.736 178.428 512.52 178.631 513.323 178.747C522.816 180.169 530.808 177.809 536.924 169.955C539.788 166.28 543.175 163.02 546.329 159.586C546.968 158.89 547.549 158.058 548.7 158.087C549.474 158.996 548.681 159.519 548.178 160.06C544.394 164.239 540.523 168.35 536.808 172.586C530.75 179.502 523.203 181.949 514.223 180.566C510.885 180.053 507.508 179.724 504.131 179.444C501.402 179.221 498.654 179.086 495.935 179.618C487.748 181.224 486.239 183.235 486.278 191.592C486.365 208.829 486.278 226.065 486.336 243.301C486.365 253.099 486.549 262.897 486.665 272.696C486.674 273.344 486.742 274.001 486.636 274.63C485.794 279.902 486.732 279.698 491.716 280.356C498.422 281.227 505.137 282.078 511.872 282.687C516.739 283.132 520.193 286.005 523.57 288.955C525.893 290.986 525.157 294.913 522.342 297.341C516.236 302.603 510.14 307.865 503.995 313.088C494.793 320.922 485.513 328.67 476.369 336.572C474.182 338.468 471.86 339.532 469.015 339.735C467.099 339.871 465.183 340.17 463.277 340.499C456.89 341.602 450.591 341.573 444.108 340.635C428.655 338.391 413.114 336.756 397.613 334.831C394.255 334.415 390.917 333.903 387.578 333.332C385.44 332.974 384.317 333.564 383.921 335.876C383.205 340.035 381.569 343.904 379.382 347.521C378.405 349.146 377.418 350.81 375.444 351.98C374.893 350.268 376.025 349.398 376.702 348.498C379.373 344.949 380.931 340.896 381.985 336.659C382.75 333.574 382.227 332.771 379.228 332.394C369.803 331.204 360.368 330.15 350.943 329.008C342.003 327.925 333.052 326.89 324.121 325.662C319.718 325.052 316.795 321.744 313.815 318.91C312.16 317.334 313.457 313.281 315.808 311.25C321.421 306.414 327.091 301.636 332.742 296.838C338.016 292.35 343.212 287.775 348.621 283.442C350.75 281.739 351.456 279.844 351.447 277.242C351.379 256.939 351.408 236.637 351.408 216.334C351.408 209.245 351.418 202.155 351.398 195.065C351.379 190.412 351.137 190.248 346.841 191.467C337.232 194.175 327.633 196.932 317.986 199.504C315.005 200.298 313.244 201.574 313.147 204.96C312.973 210.86 312.199 216.75 313.689 222.593C311.512 223.395 309.412 224.566 308.658 226.781C307.09 231.385 303.336 233.116 299.272 234.277C287.234 237.711 275.1 237.575 263.014 234.47C258.708 233.368 254.789 231.559 253.454 226.626C253.231 225.784 252.351 225.069 251.654 224.43C249.98 222.883 249.612 220.968 249.506 218.772C249.283 214.294 249.496 209.825 249.041 205.318C248.674 201.642 247.474 199.988 244.232 198.789C235.33 195.5 226.457 192.134 217.709 188.468C205.575 183.381 205.188 183.197 192.231 186.572C191.312 186.814 189.831 186.389 189.599 188.372C206.639 199.553 224.425 209.825 241.174 221.403C240.381 223.782 237.681 222.641 236.985 224.749C248.122 230.321 259.202 235.834 270.252 241.415C272.158 242.373 274.006 242.111 275.893 241.686C291.598 238.165 307.303 234.644 322.998 231.095C323.821 230.911 325.001 231.153 325.156 229.557C322.224 228.048 319.224 226.529 316.254 224.962C315.16 224.401 313.728 224.13 313.573 222.515ZM263.391 227.448C262.066 226.21 260.489 225.852 258.195 225.639C260.053 227.4 261.669 227.7 263.459 227.371C264.688 228.589 266.381 228.783 267.901 228.938C276.658 229.827 285.434 230.33 294.172 228.696C297.356 228.106 300.675 227.961 304.052 225.823C302.968 225.823 302.474 225.717 302.049 225.842C292.982 228.377 283.751 229.044 274.403 228.367C270.736 228.086 267.068 227.748 263.391 227.448ZM364.103 194.513C363.387 193.701 362.41 193.585 360.484 192.869C362.12 194.484 363.136 194.523 364.2 194.417C366.658 196.845 369.967 197.222 373.064 197.725C383.94 199.504 394.826 199.34 405.596 196.912C408.112 196.342 410.928 196.138 413.269 193.991C388.962 198.576 380.147 198.653 364.103 194.513ZM311.861 254.395C310.312 253.07 308.725 251.813 305.822 251.455C307.767 253.573 309.654 254.183 311.599 254.705C312.528 256.185 314.231 256.446 315.596 257.239C318.576 258.961 320.724 261.021 319.766 264.948C319.476 266.128 319.785 267.492 319.979 268.749C320.221 270.384 321.518 271.109 322.892 271.651C324.053 272.106 324.837 271.612 324.875 270.413C324.962 267.695 324.914 264.977 324.933 262.259C324.943 260.741 323.975 259.938 322.766 259.377C319.128 257.694 315.818 255.334 311.861 254.395ZM457.732 153.754C456.852 149.798 456.997 145.794 457.181 141.789C457.326 138.665 457.394 135.531 456.59 132.446C448.249 134.496 445.424 137.92 445.453 145.745C445.521 163.146 445.675 180.556 445.704 197.957C445.724 210.038 445.569 222.128 445.579 234.209C445.588 257.094 445.666 279.979 445.666 302.874C445.666 304.208 446.169 305.727 444.843 306.868C443.818 305.543 444.253 304.034 444.243 302.641C444.127 282.494 444.069 262.346 443.953 242.208C443.943 239.984 444.901 237.15 443.411 235.708C442.298 234.625 439.531 235.254 437.499 235.118C437.334 235.109 437.18 235.051 437.025 235.031C430.764 234.441 426.274 238.475 421.233 241.057C421.107 241.125 421.02 241.309 420.972 241.454C419.036 246.87 414.285 248.437 409.447 249.975C401.503 252.5 393.345 253.051 385.082 252.848C381.434 252.761 381.337 252.712 380.631 256.243C379.673 260.973 378.85 265.712 378.502 270.558C377.65 282.6 379.605 294.323 382.063 306.017C382.895 310.002 382.972 310.07 386.998 310.563C409.379 313.32 431.77 316.067 454.152 318.814C457.258 319.191 457.49 319.007 457.635 315.96C457.684 314.993 457.635 314.026 457.626 313.059C457.616 298.579 457.694 284.099 457.548 269.62C457.461 260.953 457.587 252.287 457.539 243.62C457.471 233.203 457.519 222.786 457.587 212.369C457.635 203.702 457.684 195.026 457.432 186.369C457.113 175.449 457.094 164.529 457.655 153.628C459.213 154.828 458.748 156.549 458.748 158.097C458.787 170.323 458.777 182.539 458.787 194.765C458.806 220.213 458.826 245.671 458.855 271.119C458.874 285.134 458.903 299.14 458.98 313.155C458.99 314.519 458.806 315.98 459.426 317.111C460.48 317.324 460.954 316.879 461.438 316.463C468.183 310.728 474.869 304.905 481.71 299.285C484.052 297.36 484.923 295.242 484.846 292.244C484.652 284.67 484.768 277.097 484.758 269.523C484.749 262.104 484.758 254.695 484.749 247.277C484.739 239.703 484.691 232.13 484.691 224.566C484.691 217.157 484.575 209.738 484.778 202.329C484.971 194.852 484.333 187.404 484.449 179.918C484.623 169.336 484.546 158.745 484.4 148.163C484.342 144.014 484.942 139.835 484.255 135.667C483.975 133.954 483.539 132.949 481.652 133.036C476.785 133.258 472.034 132.213 467.225 131.788C458.323 131.004 458.545 131.033 458.574 139.884C458.593 144.507 459.59 149.247 457.732 153.754ZM401.309 130.617C399.219 128.315 399.055 125.452 398.068 122.967C397.448 121.4 396.471 119.523 399.325 118.836C400.293 118.604 400.158 117.55 400.158 116.786C400.167 106.475 400.196 96.1547 400.1 85.8439C400.08 83.3774 399.413 83.0582 397.081 83.89C396.026 84.2673 395.029 84.8186 393.994 85.2829C385.314 89.1518 376.76 93.369 367.49 95.7C365.139 96.2901 364.945 97.6926 364.955 99.5787C365.013 111.505 365.003 123.431 365.119 135.357C365.139 136.905 364.655 138.568 365.594 140.096C366.068 140.135 366.571 140.29 367.016 140.193C376.015 138.094 385.15 137.746 394.323 138.114C401.928 138.423 409.35 139.613 416.153 143.337C419.288 145.058 420.797 147.593 420.372 151.287C420.139 153.348 420.362 155.456 420.314 157.546C420.159 164.297 420.575 171.048 420.043 177.819C419.665 182.549 419.975 182.578 424.591 183.158C430.009 183.845 435.457 184.357 440.837 185.296C443.469 185.75 444.001 184.715 443.982 182.558C443.972 181.427 443.992 180.305 443.992 179.173C443.992 159.345 444.05 139.526 443.972 119.697C443.885 94.0848 443.682 68.4625 443.566 42.85C443.556 41.2153 443.082 39.3969 444.727 37.9847C445.24 44.4749 445.395 50.9458 445.443 57.4166C445.501 64.0229 445.463 70.6291 445.463 77.2354C445.463 83.6869 445.443 90.1287 445.443 96.5802C445.443 103.187 445.405 109.793 445.472 116.409C445.54 122.86 445.153 129.331 445.743 136.982C448.685 133.713 451.075 131.739 454.123 131.053C456.513 130.511 457.152 129.118 457.161 126.913C457.181 119.842 457.548 112.762 457.345 105.701C456.765 86.076 457.219 66.441 456.939 46.806C456.861 41.4958 456.852 36.176 456.939 30.8658C456.968 28.912 456.261 27.8287 454.307 27.5772C453.349 27.4515 452.401 27.258 451.443 27.1419C438.834 25.546 426.226 23.9307 413.608 22.3638C403.864 21.1547 394.1 20.0037 384.356 18.8333C375.241 17.7307 366.135 16.5893 357.011 15.5544C352.559 15.0514 352.443 15.2352 352.463 19.8102C352.463 20.1294 352.482 20.4583 352.482 20.7775C352.53 36.0599 352.569 51.352 352.618 66.6344C352.637 74.8463 352.627 83.0679 352.695 91.2798C352.724 94.6748 353.237 95.1197 356.585 95.3518C362.1 95.7387 363.01 94.9069 363.02 89.384C363.029 71.1708 363.02 52.9576 363.058 34.7445C363.058 33.1775 362.604 31.4268 363.629 30.0533C364.007 30.0824 364.394 30.1114 364.771 30.1501C364.771 51.3036 364.771 72.4476 364.771 93.6302C368.806 94.0848 371.806 92.7306 374.718 91.5409C382.024 88.5618 389.165 85.1765 396.49 82.236C399.374 81.0754 400.274 79.3924 400.225 76.4326C400.08 67.0987 400.158 57.7551 400.167 48.4116C400.167 46.5738 400.1 44.8618 397.768 44.3588C397.1 44.2138 396.819 43.4303 397.081 42.7726C398.319 39.6097 398.387 35.9245 401.338 32.8583C402.451 36.234 403.409 39.1164 404.367 41.9988C404.696 42.995 404.744 44.1364 403.612 44.4362C401.338 45.0553 401.783 46.7963 401.783 48.3149C401.832 70.7162 401.909 93.1175 401.996 115.519C402.006 117.086 401.667 118.798 403.902 119.388C404.754 119.61 404.967 120.607 404.657 121.419C403.554 124.379 403.138 127.629 401.309 130.617ZM133.128 114.116C133.128 114.136 133.128 114.155 133.128 114.174C118.642 114.174 104.147 114.174 89.6614 114.174C84.0297 114.174 78.3884 114.01 72.7567 114.223C66.9025 114.445 63.3222 117.898 63.1771 123.595C62.9835 130.985 62.9739 138.404 63.2448 145.794C63.4577 151.684 67.1444 155.234 72.9696 155.824C74.4114 155.969 75.8628 156.008 77.3143 156.008C108.24 155.95 139.156 155.892 170.082 155.804C177.484 155.785 184.896 155.766 192.299 155.524C198.279 155.34 202.333 151.316 202.449 145.465C202.595 138.384 202.488 131.295 202.459 124.214C202.449 122.096 202.033 120.084 200.766 118.275C198.511 115.064 195.424 114.039 191.583 114.058C172.095 114.174 152.616 114.116 133.128 114.116ZM67.6669 111.959C71.6439 111.959 75.3306 111.959 79.0173 111.959C115.778 111.959 152.529 111.911 189.29 112.027C192.841 112.037 194.805 110.982 196.237 107.645C199.527 99.9462 203.253 92.4404 206.755 84.8283C207.259 83.7256 208.197 82.6423 207.53 81.056C205.894 80.5144 204.124 80.7368 202.391 80.7368C168.698 80.7271 135.005 80.7271 101.312 80.7271C96.9574 80.7271 92.603 80.6304 88.2583 80.7562C81.9686 80.9496 76.2402 84.8379 75.1565 90.3028C74.1404 95.4486 71.7987 100.004 69.9989 104.811C69.1571 107.055 67.8217 109.135 67.6669 111.959ZM484.178 7.22643C482.368 6.96528 481.826 7.623 481.236 8.12597C475.101 13.3394 469.189 18.843 462.774 23.6889C459.077 26.4842 457.984 29.7632 458.11 34.0094C458.313 40.9058 458.632 47.8216 458.439 54.718C458.255 61.2953 458.245 67.8822 458.39 74.4304C458.622 84.2189 458.352 93.9977 458.603 103.786C458.797 111.505 458.671 119.223 458.632 126.942C458.622 128.606 458.884 129.776 460.925 129.757C466.905 129.699 472.789 130.898 478.73 131.266C483.955 131.594 483.965 131.478 484.284 126.449C484.352 125.327 484.536 124.205 484.536 123.083C484.546 104.744 484.749 86.3952 484.458 68.0563C484.246 54.5632 484.207 41.0702 484.168 27.5772C484.168 20.8259 484.178 14.0745 484.178 7.22643ZM357.253 201.313C357.185 201.748 357.02 202.358 357.02 202.967C357.04 214.845 357.301 226.723 357.011 238.581C356.904 242.827 358.569 245.371 362.042 246.986C366.735 249.172 371.738 250.323 376.915 250.759C379.179 250.952 380.447 250.227 381.066 247.905C381.976 244.491 383.185 241.154 384.356 237.817C384.617 237.072 384.85 235.979 386.562 236.279C385.275 240.254 383.969 244.017 382.847 247.828C381.956 250.836 382.218 251.204 385.304 251.397C394.584 251.968 403.612 250.546 412.35 247.489C414.701 246.667 417.198 245.439 418.601 242.779C417.159 242.247 416.52 242.885 415.814 243.146C414.672 243.562 413.966 243.214 413.55 242.121C412.466 239.316 413.821 233.435 416.25 231.675C418.446 230.079 419.346 228.096 419.259 225.494C419.211 223.889 419.249 222.283 419.249 220.677C419.269 214.932 419.269 214.932 413.434 215.996C413.434 214.052 413.579 212.166 413.395 210.309C413.143 207.842 413.598 205.995 416.056 204.728C417.507 203.983 418.92 202.754 418.959 200.83C398.368 209.544 377.941 209.748 357.253 201.313ZM486.713 290.096C486.665 290.899 486.471 291.721 486.578 292.505C487.149 296.509 485.155 298.985 482.165 301.384C474.898 307.226 467.854 313.358 460.761 319.433C459.319 320.661 457.964 321.222 455.971 320.913C450.891 320.12 445.753 319.636 440.644 318.998C422.607 316.744 404.58 314.471 386.543 312.207C383.543 311.83 383.282 312.111 383.64 315.303C383.93 317.856 384.259 320.41 384.511 322.973C384.869 326.726 384.956 326.861 388.701 327.538C389.494 327.683 390.297 327.703 391.101 327.799C406.747 329.695 422.384 331.581 438.021 333.516C447.398 334.677 456.765 336.524 466.18 333.825C466.48 333.738 466.818 333.787 467.138 333.777C470.486 333.69 473.224 332.462 475.808 330.218C489.674 318.204 503.656 306.327 517.629 294.439C522.719 290.116 522.671 289.284 516.681 286.044C515.839 285.589 514.929 285.096 514.001 284.98C505.708 283.877 497.415 282.852 489.113 281.788C487.497 281.585 486.849 282.291 486.578 283.867C486.239 285.947 486.839 288.007 486.713 290.096ZM476.475 5.34031C459.397 3.25107 443.605 1.3456 427.823 -0.617902C413.792 -2.35894 399.751 -4.10964 385.74 -5.99577C383.495 -6.29561 382.334 -6.01511 382.353 -3.50995C382.392 1.8002 382.363 7.11036 382.334 12.4108C382.324 14.297 382.963 15.3416 385.062 15.5544C389.697 16.038 394.294 16.7828 398.919 17.3535C416.143 19.4814 433.386 21.5029 450.591 23.7759C453.262 24.1241 455.178 23.6502 457.152 21.9285C461.148 18.4271 465.319 15.1385 469.363 11.7048C471.521 9.89602 473.582 7.95186 476.475 5.34031ZM311.802 184.532C291.076 192.705 270.852 193.333 250.183 184.503C250.183 191.476 250.106 198.034 250.232 204.592C250.27 206.807 251.615 208.48 253.541 209.622C255.35 210.695 257.257 211.479 259.279 212.108C270.591 215.638 282.144 215.551 293.717 214.168C298.488 213.597 303.258 212.504 307.525 210.047C309.625 208.838 311.783 207.542 311.802 204.679C311.832 197.986 311.802 191.293 311.802 184.532ZM270.455 282.271C271.626 281.43 271.665 280.762 271.665 280.134C271.674 269.039 271.616 257.936 271.694 246.841C271.713 244.52 270.61 243.466 268.675 242.508C260.024 238.252 251.47 233.813 242.839 229.537C240.178 228.222 237.691 226.423 234.527 225.852C233.395 229.402 234.101 232.778 234.091 236.095C234.053 244.288 234.13 252.48 233.995 260.673C233.956 263.284 234.856 264.803 237.255 265.896C242.519 268.295 247.677 270.926 252.864 273.489C258.747 276.42 264.62 279.36 270.455 282.271ZM364.345 300.02C363.039 297.747 363.358 295.967 363.358 294.275C363.329 280.579 363.31 266.883 363.368 253.196C363.378 250.749 362.933 249.018 360.436 247.799C356.624 245.932 355.259 242.663 355.337 238.281C355.549 226.065 355.327 213.839 355.327 201.613C355.327 198.895 355.066 196.1 356.469 193.585C357.02 192.598 356.662 191.728 356.372 190.809C356.13 190.064 356.014 189.155 354.901 189.271C354.011 189.358 353.353 189.88 353.305 190.78C353.188 192.869 353.15 194.958 353.15 197.057C353.14 225.388 353.13 253.718 353.169 282.039C353.179 289.119 353.324 296.2 353.392 303.28C353.411 304.953 353.382 306.472 355.704 306.733C362.904 307.536 370.074 308.522 377.273 309.325C380.369 309.673 380.669 309.257 380.302 306.191C380.186 305.234 379.915 304.295 379.74 303.348C377.931 293.53 376.005 283.732 376.596 273.663C376.954 267.54 377.699 261.476 379.063 255.498C379.518 253.486 378.976 252.413 376.857 252.238C373.644 251.968 370.461 251.484 367.355 250.594C365.826 250.159 365.245 250.71 365.226 252.151C365.207 253.283 365.197 254.405 365.197 255.537C365.197 268.42 365.216 281.314 365.178 294.197C365.168 295.909 365.565 297.709 364.345 300.02ZM316.273 314.239C319.331 317.14 322.563 319.288 327.091 319.781C341.799 321.387 356.469 323.389 371.158 325.236C374.186 325.613 377.215 326.01 380.253 326.349C382.334 326.581 383.214 325.642 382.934 323.515C382.576 320.806 382.276 318.088 382.034 315.361C381.792 312.71 380.544 311.53 377.766 311.25C370.887 310.573 364.036 309.557 357.175 308.677C351.66 307.971 351.456 307.739 351.447 301.984C351.437 297.157 351.476 292.331 351.418 287.494C351.408 286.498 351.998 285.202 350.585 284.564C346.463 287.233 318.15 311.695 316.273 314.239ZM377.234 182.616C377.573 184.116 378.56 183.719 379.237 183.777C386.795 184.425 394.323 184.251 401.841 183.168C406.515 182.491 410.898 181.04 415.079 178.873C417.701 177.509 419.259 175.71 419.143 172.46C418.949 167.005 419.123 161.531 419.123 156.066C419.123 155.04 419.694 153.822 418.998 153.435C398.184 162.575 377.854 162.556 356.846 153.899C359.197 158.019 362.826 159.422 366.445 160.544C369.493 161.492 372.725 161.888 375.87 162.527C380.234 163.407 381.656 165.109 381.608 169.385C381.589 171.155 381.492 172.925 381.618 174.685C381.869 178.341 381.24 181.475 377.234 182.616ZM380.389 167.315C378.763 167.498 377.766 167.46 376.886 167.74C361.113 172.799 345.138 177.142 329.162 181.485C324.817 182.665 320.54 184.077 316.234 185.412C314.996 185.789 313.709 186.186 313.767 187.878C313.864 190.993 313.322 194.165 314.115 197.144C314.86 197.212 315.209 197.348 315.489 197.26C336.052 191.409 356.604 185.528 377.167 179.705C379.624 179.009 380.495 177.529 380.408 175.13C380.321 172.741 380.389 170.342 380.389 167.315ZM372.028 164.113C370.587 162.769 369.251 162.798 368.013 162.517C364.549 161.724 361.171 160.621 358.443 158.281C356.575 156.665 354.804 156.868 352.647 157.497C338.122 161.695 323.569 165.757 309.045 169.936C307.729 170.313 306.093 170.197 305.193 171.6C305.387 171.87 305.503 172.228 305.735 172.335C309.18 173.863 312.422 175.565 313.496 179.637C313.738 180.556 314.531 180.74 315.431 180.518C316.525 180.247 317.637 180.063 318.721 179.753C335.877 174.898 353.034 170.023 370.19 165.129C370.77 164.964 371.283 164.529 372.028 164.113ZM231.73 230.263C232.862 228.27 232.272 226.258 232.756 224.43C233.404 221.983 236.656 223.27 237.681 221.016C237.168 220.629 236.704 220.203 236.181 219.875C221.512 210.589 206.823 201.313 192.154 192.018C186.087 188.168 186.096 188.159 181.955 194.02C179.516 197.483 179.497 197.734 182.971 199.949C188.119 203.238 193.383 206.362 198.521 209.67C200.863 211.179 203.04 212.427 206.097 211.914C208.768 211.469 212.9 214.013 212.852 216.131C212.774 219.13 214.768 219.913 216.587 221.122C218.058 222.099 219.47 223.212 221.028 224.014C224.676 225.91 227.666 228.996 231.73 230.263ZM204.685 140.793C206.03 140.677 206.097 139.942 206.349 139.4C209.087 133.577 211.661 127.667 214.593 121.951C216.209 118.798 216.887 115.606 216.49 112.192C216.171 109.445 216.432 106.736 216.422 104.009C216.413 98.8629 216.209 93.7172 216.035 88.5811C215.967 86.4339 215.358 84.451 213.771 82.8938C211.99 81.1431 210.849 81.2688 209.707 83.4838C208.671 85.486 207.839 87.5752 206.881 89.6161C203.882 96.0192 200.824 102.413 197.873 108.845C197.34 110.006 196.111 111.379 198.163 112.53C203.272 115.393 204.714 120.133 204.675 125.598C204.665 130.647 204.685 135.705 204.685 140.793ZM292.808 278.112C289.276 275.414 286.653 273.982 282.841 274.93C278.864 275.917 278.051 274.978 278.196 270.655C278.303 267.763 278.39 264.89 278.216 261.998C278.022 258.961 278.109 255.895 278.177 252.838C278.274 247.925 278.429 247.76 283.015 246.735C286.15 246.029 289.295 245.303 292.45 244.694C294.172 244.355 295.846 243.456 297.646 243.882C300.104 244.462 299.078 246.774 299.678 248.282C300.065 249.25 300.849 249.878 301.913 249.743C302.968 249.608 302.842 248.602 302.968 247.857C303.045 247.383 303.055 246.899 303.074 246.416C303.229 242.363 303.21 242.295 307.129 241.376C310.883 240.496 314.686 239.8 318.45 238.968C322.872 237.991 322.863 237.972 324.14 242.295C324.227 242.605 324.275 242.934 324.411 243.214C324.875 244.162 325.688 244.704 326.714 244.665C328.107 244.607 327.981 243.427 327.991 242.518C328.01 240.109 328.03 237.691 327.885 235.283C327.72 232.439 327.517 232.275 324.633 232.913C308.783 236.443 292.934 240.013 277.093 243.601C273.407 244.433 273.348 244.501 273.339 248.476C273.31 258.613 273.339 268.74 273.368 278.876C273.377 281.952 273.745 282.349 276.735 281.739C281.786 280.714 286.779 279.486 292.808 278.112ZM124.632 188.952C124.613 184.338 123.064 178.003 121.003 173.785C119.861 171.454 118.449 169.356 116.301 167.779C112.178 164.742 108.811 165.535 106.653 170.187C105.627 172.393 104.96 174.753 104.979 177.181C105.037 183.893 106.585 190.238 110.088 196.032C110.93 197.415 112.033 198.576 113.301 199.592C117.026 202.58 120.626 201.874 122.716 197.531C124.061 194.775 124.787 191.796 124.632 188.952ZM354.069 154.886C355.791 153.802 355.472 152.293 355.501 150.939C355.559 147.409 357.03 144.526 360.233 143.192C363.107 142.002 363.368 140.009 363.358 137.456C363.291 126.042 363.3 114.629 363.262 103.216C363.242 97.0155 363.223 97.0155 357.03 97.1316C352.656 97.2089 352.695 97.2476 352.743 101.291C352.869 111.205 352.966 121.119 353.005 131.033C353.024 136.963 352.792 142.901 352.956 148.821C353.005 150.726 352.55 152.922 354.069 154.886ZM155.858 210.434C149.839 200.133 152.442 190.335 157.474 180.643C148.736 180.044 142.049 181.349 136.931 184.715C131.444 188.333 130.873 190.954 134.511 196.167C139.688 203.586 146.859 208.123 155.858 210.434ZM386.572 158.677C392.533 159.006 399.403 158.261 406.157 156.636C409.602 155.804 412.96 154.595 415.95 152.632C419.849 150.069 419.849 147.38 415.833 144.846C412.127 142.505 407.947 141.364 403.641 140.474C397.419 139.197 391.12 139.236 384.879 139.371C377.167 139.545 369.406 140.3 362.342 143.927C360.097 145.078 357.214 146.2 357.311 149.179C357.398 152.081 360.126 153.28 362.507 154.315C369.861 157.536 377.583 158.842 386.572 158.677ZM279.474 170.516C277.829 170.516 274.906 170.274 272.032 170.565C266.101 171.174 260.208 172.132 254.867 175.004C252.951 176.039 250.57 176.871 250.667 179.724C250.764 182.394 252.689 183.603 254.818 184.532C256.589 185.296 258.369 186.098 260.218 186.572C266.778 188.265 273.416 188.971 280.238 189.029C288.028 189.097 295.604 188.372 303.055 186.118C305.232 185.46 307.293 184.59 309.122 183.226C312.509 180.711 312.47 177.683 308.812 175.623C306.587 174.376 304.245 173.254 301.71 172.654C294.811 171.029 287.853 169.859 279.474 170.516ZM63.8254 114.377C54.7199 114.377 46.553 114.387 38.3861 114.368C36.7218 114.368 36.1412 115.258 36.1412 116.796C36.1606 120.645 36.1606 124.505 36.1412 128.354C36.1315 129.892 36.7605 130.821 38.3765 130.821C45.1209 130.83 51.8654 130.84 58.6098 130.83C60.1774 130.83 61.0289 130.027 60.9031 128.432C60.5451 123.711 61.4256 119.214 63.8254 114.377ZM311.106 210.105C304.032 213.849 298.13 215.367 290.36 216.151C284.563 216.731 278.806 216.644 273.029 216.257C271.781 216.17 270.397 215.754 270.184 217.785C270.039 219.207 269.12 220.31 267.659 220.223C266.072 220.126 265.036 219.043 264.949 217.34C264.872 215.841 264.117 214.951 262.646 214.69C258.669 213.984 255.05 212.224 251.373 210.512C250.851 215.841 251.48 217.186 255.505 219.217C256.647 219.797 257.866 220.261 259.095 220.629C273.494 224.972 287.921 224.856 302.368 220.822C304.584 220.203 306.597 219.217 308.445 217.94C311.048 216.141 312.199 213.694 311.106 210.105ZM361.917 187.201C362.72 188.797 363.91 189.02 364.936 189.348C380.137 194.243 395.358 193.923 410.569 189.416C412.563 188.826 414.469 187.888 416.085 186.476C418.504 184.357 418.669 183.593 417.333 179.947C404.522 184.947 390.23 187.327 379.586 185.296C373.402 184.116 367.8 185.044 361.917 187.201ZM301.439 271.97C301.41 271.97 301.391 271.97 301.362 271.97C301.362 273.74 301.236 275.52 301.391 277.271C301.633 279.979 303.229 281.227 305.948 280.84C308.174 280.53 310.39 280.095 312.577 279.573C316.205 278.712 318.15 276.574 318.392 272.879C318.595 269.842 318.576 266.766 318.431 263.72C318.276 260.45 316.534 259.087 313.341 259.648C311.135 260.034 308.958 260.644 306.78 261.214C303.413 262.095 301.671 264.174 301.449 267.637C301.362 269.068 301.439 270.519 301.439 271.97ZM326.307 266.447C326.317 266.447 326.317 266.447 326.327 266.447C326.327 267.888 326.298 269.33 326.336 270.771C326.433 274.601 328.098 275.965 331.775 275.191C333.652 274.795 335.519 274.33 337.387 273.866C341.199 272.918 342.854 271.206 343.164 267.318C343.415 264.136 343.406 260.924 343.299 257.732C343.231 255.672 341.354 253.738 339.67 254.009C336.516 254.512 333.313 255.053 330.313 256.088C327.952 256.91 326.588 259.067 326.346 261.64C326.191 263.226 326.307 264.842 326.307 266.447ZM228.044 242.169C228.005 242.169 227.966 242.169 227.927 242.169C227.927 240.254 228.024 238.33 227.898 236.424C227.782 234.644 226.631 232.99 224.995 233.087C221.018 233.319 216.974 233.851 213.481 236.028C212.436 236.676 211.516 237.885 211.381 239.171C210.926 243.32 210.945 247.509 211.265 251.668C211.371 253.07 212.348 254.328 213.664 254.337C217.845 254.376 222.083 253.921 225.557 251.445C227.308 250.188 228.518 248.079 228.082 245.526C227.889 244.443 228.044 243.291 228.044 242.169ZM191.641 179.376C188.032 177.693 184.587 178.157 181.258 179.492C170.769 183.68 161.692 198.411 167.847 212.495C168.814 214.71 170.43 216.431 172.888 217.602C167.005 198.015 176.701 184.357 191.641 179.376ZM280.896 256.581C280.896 259.976 281.012 262.791 280.857 265.596C280.751 267.676 281.593 268.817 283.402 269.697C288.153 271.999 292.827 274.466 297.549 276.816C298.207 277.145 299.001 277.571 299.93 276.565C299.93 273.934 299.891 271.051 299.949 268.179C299.978 266.563 299.368 265.48 297.927 264.697C292.634 261.785 287.137 259.309 280.896 256.581ZM209.784 251.3C209.784 247.75 209.794 244.588 209.784 241.434C209.784 239.984 208.981 239.016 207.752 238.407C202.304 235.718 196.837 233.058 191.254 230.321C189.638 234.238 190.141 238.01 190.993 241.473C191.689 244.317 195.299 244.423 197.563 245.826C198.376 246.329 199.285 246.677 200.146 247.112C203.098 248.602 205.943 250.343 209.784 251.3ZM125.948 204.031C132.121 206.401 138.034 207.639 144.933 208.983C142.727 207.194 141.237 206.004 139.775 204.786C136.273 201.855 133.399 198.479 131.492 194.252C130.128 191.225 130.564 188.671 132.518 186.157C134.463 183.661 137.085 182.171 139.872 180.808C141.304 180.111 143.191 179.995 144.333 178.109C138.295 176.561 132.663 175.12 126.528 173.553C130.041 183.971 132.092 193.807 125.948 204.031ZM360.92 11.7531C361.094 12.0626 361.259 12.3722 361.433 12.6817C366.822 13.3587 372.212 14.0938 377.612 14.6742C380.689 15.0031 381.047 14.7322 381.105 11.7241C381.192 6.93626 381.018 2.14841 380.969 -2.63944C380.96 -3.27782 380.979 -3.90652 379.837 -4.51589C373.625 0.82329 367.277 6.28821 360.92 11.7531ZM440.179 204.592C434.006 207.446 428.113 210.163 422.22 212.901C421.097 213.423 420.497 214.274 420.643 215.57C420.807 217.099 421.755 217.689 423.178 217.95C428.064 218.849 432.999 219.217 437.944 219.633C439.376 219.749 440.46 219.333 440.489 217.592C440.537 213.462 441.031 209.332 440.179 204.592ZM179.604 200.114C178.336 205.55 178.936 210.357 178.926 215.145C178.926 217.282 180.126 217.466 181.81 217.089C186.677 215.996 191.564 214.942 196.431 213.839C197.292 213.646 198.434 213.781 198.647 212.137C192.763 207.939 186.396 204.263 179.604 200.114ZM388.294 329.086C388.294 329.125 388.285 329.154 388.285 329.192C387.801 329.173 387.317 329.134 386.833 329.134C386.011 329.134 385.111 329.173 385.024 330.227C384.946 331.185 385.672 331.61 386.543 331.707C388.623 331.93 390.704 332.055 392.775 332.316C411.74 334.686 430.706 337.095 449.691 339.397C450.91 339.542 453.088 340.451 453.329 338.536C453.571 336.572 451.336 336.959 450.01 336.795C434.702 334.889 419.385 333.032 404.067 331.136C398.813 330.479 393.558 329.773 388.294 329.086ZM440.963 226.491C440.47 223.212 440.721 222.283 436.976 224.101C431.19 226.916 425.287 229.479 419.443 232.178C418.417 232.652 417.401 233.155 416.472 233.774C414.972 234.76 413.947 238.949 415.03 240.274C416.511 242.073 418.001 240.399 419.298 239.809C425.587 236.917 431.78 233.842 438.06 230.94C440.053 230.011 441.166 228.735 440.963 226.491ZM415.679 213.481C416.888 213.926 417.856 213.191 418.833 212.736C424.678 210.038 430.503 207.291 436.338 204.553C441.331 202.213 441.408 202.019 439.937 195.916C438.157 196.138 436.609 196.99 435.022 197.734C429.767 200.191 424.533 202.677 419.278 205.114C413.976 207.571 413.976 207.552 415.679 213.481ZM140.53 174.762C144.952 176.484 149.752 176.823 154.358 177.964C158.828 179.067 162.931 178.438 166.966 176.542C170.063 175.082 173.246 174.405 176.72 174.434C180.116 174.453 183.571 174.095 187.403 172.499C184.209 170.652 181.19 170.149 178.404 169.104C177.339 168.707 176.604 169.307 175.694 169.53C164.179 172.286 152.713 175.478 140.53 174.762ZM379.808 330.769C380.128 330.788 380.447 330.817 380.776 330.827C381.579 330.827 382.537 330.885 382.692 329.86C382.895 328.496 381.782 328.428 380.824 328.312C380.35 328.254 379.866 328.235 379.382 328.177C361.858 325.942 344.325 323.698 326.801 321.474C326.007 321.377 325.195 321.406 324.391 321.396C323.675 321.387 323.075 321.638 323.172 322.441C323.221 322.857 323.559 323.466 323.908 323.582C324.808 323.882 325.775 323.998 326.723 324.124C334.058 325.072 341.383 326.029 348.718 326.948C359.072 328.235 369.445 329.502 379.808 330.769ZM197.785 182.481C186.938 180.411 177.862 188.323 174.146 198.411C171.475 205.685 172.83 214.158 177.484 217.476C176.41 212.33 176.817 207.562 176.942 202.764C177.059 198.353 178.771 195.142 181.2 191.854C183.619 188.565 186.019 185.576 190.48 184.938C192.657 184.638 194.718 183.545 197.785 182.481ZM311.125 245.893C315.944 248.36 320.182 250.304 324.198 252.635C328.572 255.179 332.558 254.192 337.28 252.064C332.984 249.878 329.143 248.195 325.582 246.048C321.034 243.311 316.563 243.417 311.125 245.893ZM286.392 251.213C291.318 253.709 295.478 255.43 299.223 257.8C303.587 260.557 307.632 259.59 312.683 257.771C308.145 255.372 304.1 253.515 300.336 251.184C296.011 248.505 291.859 249.085 286.392 251.213ZM221.502 231.501C220.612 229.537 218.899 229.257 217.535 228.56C214.545 227.032 211.313 225.891 208.507 224.072C204.346 221.383 200.843 223.221 195.947 224.711C200.582 227.071 204.307 228.599 207.626 230.756C212.097 233.667 216.49 233.822 221.502 231.501ZM255.883 227.806C265.249 237.333 298.778 236.85 306.122 227.787C283.673 233.764 272.855 233.842 255.883 227.806ZM362.4 196.419C365.148 199.698 365.574 199.92 368.671 201.168C373.383 203.074 378.386 203.393 383.34 203.722C391.575 204.263 399.713 203.46 407.608 200.888C409.757 200.191 411.808 199.292 413.647 196.487C394.371 203.789 375.338 202.232 362.4 196.419ZM161.538 206.623C158.296 192.821 163.386 183.177 175.907 176.9C168.224 175.739 161.692 182.113 158.896 189.058C156.187 195.761 157.096 202.803 161.538 206.623ZM474.579 334.725C474.792 335.034 475.072 335.073 475.392 334.802C490.864 321.706 506.327 308.609 521.78 295.494C522.254 295.087 522.612 294.536 523 294.023C523.077 293.917 523.077 293.704 523.038 293.549C522.883 292.921 522.487 293.801 522.729 293.211C517.436 296.229 476.446 331.552 474.579 334.725ZM314.164 182.674C314.318 183.139 314.463 183.603 314.618 184.067C335.848 178.177 357.098 172.354 378.144 165.854C378.018 165.429 377.902 164.993 377.776 164.568C356.565 170.594 335.365 176.639 314.164 182.674ZM212.784 220.968C211.671 223.686 212.929 224.517 214.506 225.281C217.825 226.887 221.173 228.473 224.386 230.282C226.902 231.694 229.592 233.261 229.524 236.685C229.437 240.999 230.143 245.39 229.079 249.617C228.353 252.49 229.872 252.838 232.34 253.409C232.34 247.277 232.321 241.521 232.35 235.766C232.359 234.19 231.875 233 230.492 232.13C224.666 228.502 218.861 224.808 212.784 220.968ZM420.749 202.793C426.236 200.172 431.432 197.696 436.638 195.22C436.57 194.9 436.493 194.591 436.425 194.272C431.112 193.624 425.79 192.985 420.12 192.289C420.333 195.897 420.526 199.021 420.749 202.793ZM437.199 221.819C431.935 220.426 427.319 220.174 422.713 219.855C420.643 219.71 420.149 221.432 420.439 222.767C420.923 224.962 420.962 227.119 420.497 230.011C426.207 227.177 431.596 225.262 437.199 221.819ZM416.888 188.778C398.029 196.738 379.024 196.709 359.149 189.3C372.077 198.866 407.038 198.208 416.888 188.778ZM179.294 231.085C179.323 231.085 179.362 231.085 179.391 231.085C179.391 233.638 179.342 236.192 179.41 238.745C179.439 239.684 179.613 240.728 180.881 240.854C181.868 240.951 182.855 240.767 183.532 240.022C183.919 239.587 184.229 238.91 184.238 238.33C184.316 234.344 184.335 230.359 184.287 226.374C184.268 224.991 183.493 224.053 182.206 223.424C180.32 222.515 179.487 222.805 179.323 224.856C179.168 226.916 179.294 229.005 179.294 231.085ZM443.092 231.124C444.33 227.458 444.33 193.633 443.092 189.996C442.086 193.972 442.086 227.226 443.092 231.124ZM309.229 246.899C308.038 246.841 307.419 247.277 307.071 248.079C306.684 249.008 307.177 249.646 307.932 250.033C313.06 252.654 318.199 255.256 323.346 257.848C324.682 258.526 325.92 258.38 326.578 256.93C327.265 255.421 325.843 254.995 324.933 254.531C320.231 252.142 315.489 249.83 310.748 247.499C310.177 247.218 309.567 247.035 309.229 246.899ZM254.779 221.403C267.91 229.431 300.607 228.541 308.561 220.407C290.882 227.245 272.894 227.1 254.779 221.403ZM193.799 225.726C192.541 225.746 192.076 226.374 191.854 227.187C191.593 228.115 192.115 228.705 192.88 229.102C196.295 230.853 199.721 232.584 203.146 234.315C204.859 235.186 206.552 236.095 208.294 236.898C209.407 237.411 210.491 237.362 211.216 236.163C212.184 234.557 210.713 234.228 209.833 233.764C205.004 231.249 200.147 228.802 195.299 226.355C194.728 226.065 194.128 225.862 193.799 225.726ZM301.739 261.698C301.642 260.566 300.684 260.17 299.852 259.754C295.111 257.384 290.34 255.092 285.599 252.712C284.331 252.074 283.189 251.668 282.338 253.235C281.322 255.111 283.064 255.469 284.06 255.972C288.647 258.284 293.292 260.499 297.927 262.704C298.633 263.043 299.446 263.342 300.2 263.313C301.033 263.294 301.565 262.598 301.739 261.698ZM123.035 172.48C122.368 173.099 122.939 173.698 123.142 174.221C126.664 183.187 128.27 192.115 122.677 200.926C122.31 201.507 122.232 202.135 122.948 202.551C123.567 202.899 124.167 202.774 124.719 202.358C125.938 201.439 126.499 200.124 126.925 198.731C129.683 189.639 128.396 181.03 123.829 172.818C123.732 172.615 123.316 172.596 123.035 172.48ZM162.36 210.599C159.157 207.823 156.941 204.67 156.225 200.559C155.084 193.991 156.864 188.207 160.512 182.829C160.976 182.142 162.215 181.649 161.325 180.459C159.98 180.469 159.312 181.456 158.741 182.384C155.925 186.969 154.077 191.912 153.971 197.328C153.884 201.932 155.122 206.207 158.112 209.854C159.167 211.14 160.309 212.185 162.36 210.599ZM145.591 161.811C145.572 165.167 146.636 167.015 148.581 167.005C150.836 166.995 152.703 164.181 152.829 160.873C152.906 158.88 152.345 157.952 150.139 158.029C146.307 158.165 145.61 158.619 145.591 161.811ZM163.937 169.955C164.073 168.011 163.125 166.502 162.196 165.022C161.363 163.687 160.841 161.376 159.244 161.531C157.27 161.714 156.632 164.036 155.954 165.806C155.558 166.85 155.093 167.924 155.471 169.075C155.771 169.984 156.138 171.213 157.328 170.787C159.477 170.013 161.847 171.164 163.937 169.955ZM150.032 172.683C151.6 172.441 153.419 172.731 153.351 170.603C153.293 168.824 152.074 168.03 150.361 168.485C147.739 169.172 145.668 168.495 143.956 166.396C143.259 165.545 142.175 165.487 141.324 166.019C139.766 167.005 139.795 168.707 139.785 170.323C139.775 171.29 140.375 171.957 141.246 171.793C144.343 171.193 147.294 171.783 150.032 172.683ZM423.575 187.888C422.21 187.917 420.72 187.414 420.43 188.816C420.014 190.809 421.852 190.49 422.994 190.664C427.106 191.293 431.219 191.902 435.351 192.444C436.609 192.608 437.905 192.579 439.183 192.55C439.628 192.54 440.073 192.299 440.189 191.728C440.334 190.993 440.024 190.48 439.405 190.19C438.979 189.996 438.486 189.9 438.021 189.842C433.106 189.155 428.19 188.507 423.575 187.888ZM481.439 4.79865C478.062 5.94967 458.042 23.5148 456.465 26.4842C465.735 19.3847 473.911 12.4495 481.439 4.79865ZM179.197 177.945C168.089 181.669 160.628 194.011 163.725 203.876C164.083 192.337 169.317 183.738 179.197 177.945ZM207.936 215.261C207.849 214.719 207.762 214.187 207.675 213.646C199.334 214.642 191.283 217.05 183.068 218.791C183.368 219.952 184.064 220.349 184.616 220.232C192.405 218.617 200.166 216.934 207.936 215.261ZM354.553 12.8074C354.775 13.1073 355.008 13.4071 355.23 13.707C358.752 12.7784 360.436 9.21895 363.204 7.21676C366.31 4.96308 369.164 2.34186 372.019 -0.240677C374.631 -2.61042 377.679 -4.53523 379.944 -7.26285C379.682 -7.55303 379.421 -7.8432 379.15 -8.13337C370.964 -1.14988 362.758 5.82393 354.553 12.8074ZM186.822 222.225C187.432 223.947 188.467 223.27 189.319 223.086C195.879 221.674 202.42 220.242 208.981 218.82C209.745 218.656 210.81 218.666 210.636 217.611C210.413 216.257 209.194 216.663 208.333 216.837C203.34 217.901 198.327 218.936 193.373 220.165C191.176 220.716 188.777 220.881 186.822 222.225ZM469.518 334.976C465.415 335.576 461.458 336.176 457.5 336.727C456.445 336.872 455.487 337.269 455.574 338.4C455.7 340.083 457.123 339.735 458.168 339.6C461.816 339.126 465.444 338.584 469.073 338.023C469.857 337.907 470.66 337.723 471.366 337.394C471.695 337.24 472.015 336.65 471.995 336.272C471.976 335.895 471.599 335.354 471.25 335.218C470.679 334.996 470.012 335.034 469.518 334.976ZM128.396 158.909C127.661 159.993 128.028 161.134 128.144 162.169C128.425 164.703 129.935 165.574 132.915 165.293C135.286 165.061 134.86 163.214 135.073 161.753C135.305 160.186 134.473 159.316 132.992 159.209C131.463 159.093 129.954 158.358 128.396 158.909ZM441.524 187.104C434.606 186.137 427.793 184.58 420.71 185.325C426.874 187.25 433.386 187.037 439.618 188.478C440.344 188.652 441.253 188.517 441.524 187.104ZM33.6641 116.022C30.3838 120.268 30.5192 125.888 33.6641 128.47C33.6641 124.446 33.6641 120.403 33.6641 116.022ZM366.339 202.793C363.465 201.013 361.007 198.885 360.117 195.365C359.952 194.717 359.217 194.301 358.627 194.388C357.765 194.513 357.417 195.268 357.33 196.138C357.185 197.589 358.017 198.47 358.985 199.369C361.026 201.265 363.513 202.222 366.339 202.793ZM411.334 201.787C413.559 201.526 415.408 200.655 416.956 199.263C417.653 198.634 418.34 197.879 418.727 197.048C419.24 195.955 419.123 194.688 417.885 194.165C416.714 193.672 416.075 194.775 415.853 195.626C415.137 198.295 413.172 199.92 411.334 201.787ZM164.15 164.007C166.086 170.255 166.086 170.255 171.601 168.253C169.134 166.85 167.024 165.651 164.15 164.007ZM122.948 167.373C119.213 163.687 118.884 163.591 115.584 165.148C117.868 166.26 119.145 169.704 122.948 167.373ZM310.448 243.543C314.618 243.456 318.45 241.783 322.534 241.367C318.305 240.999 314.338 242.199 310.448 243.543ZM189.541 225.959C187.248 229.508 188.757 233.426 188.477 237.217C188.351 233.445 188.38 229.682 189.541 225.959ZM288.463 248.36C291.482 247.847 294.52 247.644 297.52 247.093C294.249 245.632 291.453 247.905 288.463 248.36ZM320.947 321.387C319.64 319.23 318.053 317.469 315.276 317.285C316.747 319.21 318.373 320.922 320.947 321.387ZM154.348 163.813C156.003 162.266 156.458 160.815 156.535 159.199C156.564 158.638 156.216 158.329 155.712 158.232C155.2 158.136 154.735 158.348 154.561 158.832C154.019 160.312 154.28 161.792 154.348 163.813ZM186.125 175.507C187.112 176.455 188.496 176.078 189.599 176.62C190.431 177.026 191.206 176.736 191.186 175.623C191.176 174.675 190.615 174.114 189.648 174.259C188.428 174.453 187.025 174.163 186.125 175.507ZM124.022 158.909C123.626 160.438 122.464 162.043 124.284 163.997C124.942 161.966 124.98 160.438 124.022 158.909ZM142.504 159.848C141.662 159.886 140.975 160.205 140.84 161.124C140.704 162.043 140.54 163.097 141.778 163.436C142.765 163.707 143.201 163.049 143.336 162.188C143.472 161.289 143.772 160.302 142.504 159.848ZM138.227 166.841C138.73 165.409 139.756 164.21 138.305 162.865C138.121 162.691 137.55 162.624 137.434 162.749C136.282 163.997 137.453 165.109 137.734 166.27C137.763 166.396 137.918 166.492 138.227 166.841ZM188.757 243.156C188.119 243.262 188.167 243.746 188.157 244.172C188.138 245.062 188.438 245.71 189.483 245.565C189.967 245.497 190.422 245.158 190.315 244.665C190.151 243.852 189.464 243.446 188.757 243.156ZM129.228 168.853C129.286 168.717 129.422 168.572 129.402 168.456C129.238 167.624 128.744 167.024 127.941 166.754C127.496 166.609 126.896 166.676 126.867 167.208C126.838 167.885 127.438 168.301 127.97 168.659C128.357 168.911 128.754 169.143 129.228 168.853ZM440.189 232.845C440.073 232.294 439.705 232.072 439.212 232.265C438.805 232.429 438.167 232.739 438.157 233C438.109 233.842 438.825 233.929 439.473 233.822C439.976 233.755 440.199 233.348 440.189 232.845ZM133.892 167.876C134.744 169.549 134.84 170.816 136.679 171.59C136.098 169.907 135.789 168.814 133.892 167.876ZM127.438 170.922C126.374 169.936 125.541 169.21 124.187 170.033C125.067 170.845 125.89 171.493 127.438 170.922ZM120.752 161.772C121.564 160.737 121.719 159.819 120.655 158.871C119.861 159.906 119.687 160.834 120.752 161.772ZM281.496 271.854C281.351 272.106 281.08 272.357 281.08 272.609C281.08 273.16 281.428 273.518 281.999 273.334C282.222 273.257 282.502 272.87 282.493 272.628C282.464 272.077 282.019 271.883 281.496 271.854Z" fill="#151515"/>
<path d="M282.29 171.135C283.189 171.309 284.341 171.377 285.376 171.754C291.269 173.892 297.143 176.107 303.007 178.312C303.878 178.641 305.01 178.893 304.865 180.15C304.729 181.33 303.578 181.456 302.697 181.707C295.914 183.661 289.111 185.567 282.319 187.501C280.083 188.139 277.974 188.101 275.739 187.22C270.359 185.093 264.901 183.168 259.482 181.166C258.447 180.788 257.131 180.566 257.228 179.105C257.305 178.003 258.36 177.606 259.289 177.345C266.236 175.352 273.194 173.389 280.161 171.445C280.77 171.28 281.428 171.261 282.29 171.135ZM288.55 184.048C288.995 183.942 290.137 183.816 291.163 183.419C292.43 182.926 294.192 182.781 294.114 180.808C294.046 179.125 292.498 178.912 291.366 178.535C285.309 176.494 279.135 176.571 272.952 177.887C271.558 178.186 270.146 178.67 268.907 179.357C267.233 180.285 267.291 181.64 268.926 182.636C269.604 183.052 270.349 183.41 271.113 183.613C273.232 184.164 275.032 184.996 276.387 181.775C277.655 178.757 284.031 179.241 285.638 182.23C286.218 183.284 286.46 184.27 288.55 184.048ZM296.272 179.163C296.978 181.862 296.978 181.862 300.22 180.576C299.088 179.541 297.781 179.134 296.272 179.163ZM261.959 180.266C265.462 181.349 265.462 181.349 266.198 178.341C264.756 178.709 263.392 178.864 261.959 180.266ZM284.409 174.762C282.328 173.35 280.722 174.463 279.058 174.811C280.819 175.778 282.502 175.623 284.409 174.762ZM279.571 184.203C279.571 184.309 279.57 184.406 279.561 184.512C280.819 184.512 282.067 184.512 283.325 184.512C283.315 184.406 283.315 184.309 283.306 184.203C282.067 184.203 280.819 184.203 279.571 184.203Z" fill="#151515"/>
</g>
</g>
<defs>
<clipPath id="clip0">
<rect width="297" height="359" fill="white"/>
</clipPath>
<clipPath id="clip1">
<rect width="520" height="362" fill="white" transform="translate(29 -10)"/>
</clipPath>
</defs>
</svg>
