<svg width="279" height="351" viewBox="0 0 279 351" fill="none" xmlns="http://www.w3.org/2000/svg">
<g clip-path="url(#clip0)">
<path d="M62.9357 216.814C67.4041 219.432 70.9902 223.163 74.9629 226.398C76.7694 227.874 76.5392 229.838 76.1652 231.737C75.5301 234.897 74.8385 238.043 73.9586 241.145C73.3366 243.333 73.9485 244.812 75.7111 246.138C77.8971 247.773 80.0002 249.548 82.0543 251.362C84.6582 253.664 85.9189 256.342 84.6479 259.956C83.746 262.525 83.3952 265.286 82.6654 267.926C81.599 271.808 78.9986 273.782 75.0002 273.862C73.3906 273.895 71.7671 273.736 70.1749 273.863C66.5942 274.152 63.6359 273.167 60.9497 270.626C58.3679 268.19 58.1065 268.326 55.6227 270.895C53.7053 272.884 51.6284 273.999 48.768 273.604C47.024 273.367 45.2221 273.414 43.4609 273.54C40.5153 273.752 38.0344 272.851 36.1006 270.659C34.3307 268.655 32.1194 268.167 29.5846 268.158C23.6279 268.148 17.6687 267.898 11.7106 267.977C9.28652 268.005 7.30792 267.334 5.50818 265.83C-4.11593 257.764 -13.7145 249.674 -23.4059 241.682C-25.293 240.128 -25.6977 238.49 -25.2154 236.178C-24.4032 232.235 -27.9766 227.494 -32.0607 227.016C-34.2955 226.751 -36.5904 226.571 -38.8057 226.807C-41.6729 227.107 -43.7153 225.953 -45.7224 224.151C-48.5968 221.566 -51.6359 219.169 -54.5382 216.617C-57.0542 214.405 -59.7214 212.992 -63.2757 213.337C-65.292 213.532 -67.5333 213.752 -69.4049 212.549C-74.5067 209.293 -75.7236 206.765 -74.2938 201.318C-73.0715 196.658 -72.1764 191.909 -70.9447 187.251C-70.3603 185.054 -70.9341 183.624 -72.6644 182.246C-75.4481 180.03 -77.7676 177.328 -79.6027 174.265C-80.1428 173.36 -80.7354 172.592 -81.7726 172.603C-86.8629 172.631 -91.003 169.763 -95.3534 167.859C-104.049 164.072 -112.595 159.863 -120.163 153.979C-120.793 153.49 -121.477 152.939 -122.221 152.722C-127.582 151.173 -129.814 146.981 -130.955 142.094C-132.885 133.847 -132.553 125.791 -128.229 118.222C-126.243 114.738 -123.264 112.844 -119.203 112.71C-118.241 112.682 -117.212 112.748 -116.338 112.42C-114.872 111.865 -112.713 111.406 -112.663 109.737C-112.604 107.574 -115.011 108.073 -116.395 107.742C-128.774 104.757 -141.185 101.902 -153.564 98.9166C-163.461 96.5335 -166.682 91.1102 -164.337 81.0397C-163.859 78.9959 -163.336 76.9728 -162.886 74.9223C-162.061 71.1317 -162.162 71.0577 -166.11 70.2146C-171.922 68.9758 -177.714 67.6922 -183.509 66.3781C-189.604 64.9921 -191.572 62.3147 -191.002 56.0963C-190.794 53.8489 -190.266 51.6381 -189.231 49.5979C-186.957 45.1587 -184.769 44.1199 -179.855 45.2438C-172.472 46.9471 -165.05 48.5303 -157.746 50.523C-154.366 51.4495 -152.387 50.6592 -150.547 47.7472C-147.203 42.4498 -143.176 37.6239 -140.277 31.9817C-136.878 25.3747 -130.066 22.6756 -122.666 24.4327C-107.13 28.1128 -91.6092 31.8587 -76.0644 35.4612C-74.481 35.8294 -72.2703 37.3617 -71.1881 35.6212C-69.9651 33.6659 -71.7162 31.6666 -72.9519 30.0091C-75.857 26.0934 -79.9213 23.9495 -84.5244 22.5619C-91.2231 20.5347 -96.8214 16.9405 -100.352 10.6877C-101.422 8.79152 -102.468 6.84116 -102.446 4.53941C-100.854 4.37257 -100.82 5.35523 -100.588 6.00735C-97.9737 13.4335 -92.5125 17.8104 -85.3175 20.3837C-83.1995 21.138 -81.0237 21.8167 -79.0157 22.8232C-73.9094 25.395 -69.9415 29.0673 -68.9932 35.0117C-68.664 37.0494 -67.4845 37.6094 -65.8142 37.9884C-60.3136 39.2422 -54.8198 40.5243 -49.3282 41.8157C-35.5238 45.0822 -21.7594 48.558 -7.89208 51.5611C-0.693769 53.1208 2.94728 58.7039 1.07768 65.8251C-0.970241 73.6098 -2.4463 81.541 -4.10834 89.4178C-4.61981 91.8514 -5.67971 93.9153 -7.22679 95.853C-13.6488 103.916 -19.9973 112.046 -26.353 120.164C-30.3215 125.243 -35.229 127.213 -41.6778 125.514C-49.7813 123.371 -57.9678 121.575 -66.1184 119.629C-66.875 121.089 -65.612 121.341 -64.9892 121.857C-58.43 127.302 -51.9148 132.805 -45.2283 138.092C-43.5548 139.416 -42.9778 140.707 -43.5302 142.604C-44.1145 144.593 -43.3447 145.91 -41.8129 147.161C-38.9575 149.494 -36.1365 151.47 -32.4455 152.719C-28.6178 154.021 -25.3976 157.117 -21.9574 159.5C-13.8828 165.097 -5.84992 170.745 2.22242 176.352C3.11855 176.973 3.94729 177.877 5.38048 177.583C7.09796 173.14 7.82366 168.351 8.99665 163.689C10.2887 158.528 11.5022 155.904 18.7979 154.932C26.935 153.852 34.8516 154.986 42.7447 156.553C48.434 157.683 53.9311 159.493 59.1777 162.018C61.0956 162.944 63.1494 163.175 65.3005 163.083C80.4286 162.389 95.5597 161.766 110.683 161.091C115.077 160.897 115.056 161.151 116.086 156.713C119.892 140.398 123.783 124.104 127.75 107.827C128.487 104.781 128.637 102.57 125.488 100.426C122.133 98.1429 120.116 94.4689 119.732 90.2007C119.573 88.4921 119.625 88.4845 121.833 85.6108C120.665 91.2091 122.38 95.2781 126.022 98.6042C128.423 100.798 129.423 100.53 130.172 97.3477C133.847 81.8368 137.455 66.31 141.1 50.7923C143.128 42.1773 145.242 33.5732 147.156 24.9312C147.551 23.1558 148.327 22.0684 149.88 21.2756C159.352 16.4372 168.808 11.5849 178.246 6.67883C179.985 5.77143 181.575 5.90256 183.334 6.58093C196.872 11.7529 210.427 16.8989 223.99 22.0073C232.278 25.1299 240.607 28.1629 248.892 31.2949C258.527 34.9382 268.149 38.6381 277.776 42.319C281.075 43.5842 281.318 43.8608 280.542 47.2755C278.523 56.2306 276.398 65.1704 274.295 74.1052C269.674 93.706 265.053 113.307 260.404 132.901C258.097 142.603 255.687 152.28 253.401 161.977C253.011 163.653 251.604 165.794 252.831 166.991C254.467 168.595 256.781 167.239 258.695 166.512C263.412 164.715 267.541 161.882 271.562 158.915C274.498 156.742 277.512 154.747 280.738 153.15C281.512 154.2 280.968 154.647 280.436 154.997C275.485 158.32 270.542 161.644 265.562 164.92C262.031 167.249 258.272 169.116 253.957 169.359C251.909 169.476 251.355 170.547 250.949 172.33C248.62 182.374 246.167 192.399 243.762 202.426C242.641 207.08 241.538 211.74 240.3 216.923C244.274 216.321 247.648 215.356 251.221 215.812C256.086 216.436 260.564 218.222 265.154 219.706C265.919 219.958 266.635 220.338 267.389 220.637C276.291 224.225 284.614 223.786 292.386 217.567C296.026 214.657 300.077 212.273 303.943 209.666C304.726 209.137 305.484 208.463 306.597 208.758C307.139 209.823 306.245 210.146 305.63 210.556C300.98 213.742 296.26 216.841 291.662 220.099C284.164 225.419 276.255 226.046 267.842 222.615C264.714 221.341 261.505 220.237 258.286 219.179C255.683 218.329 253.042 217.559 250.274 217.445C241.938 217.106 240.003 218.712 238.099 226.849C234.181 243.634 230.093 260.379 226.146 277.157C223.899 286.694 221.802 296.267 219.639 305.824C219.498 306.457 219.411 307.112 219.161 307.699C217.118 312.631 218.078 312.652 222.773 314.449C229.093 316.853 235.427 319.24 241.836 321.397C246.467 322.961 249.16 326.557 251.759 330.211C253.546 332.726 251.919 336.375 248.616 338.082C241.455 341.782 234.304 345.484 227.114 349.137C216.344 354.62 205.518 360.001 194.789 365.563C192.221 366.899 189.715 367.395 186.901 366.931C185.006 366.618 183.073 366.465 181.143 366.342C174.675 365.931 168.554 364.44 162.466 362.021C147.957 356.25 133.221 351.05 118.591 345.578C115.421 344.393 112.293 343.119 109.179 341.789C107.182 340.944 105.953 341.257 105.03 343.414C103.368 347.293 100.879 350.676 97.9114 353.687C96.5834 355.04 95.237 356.429 93.0451 357.109C92.9063 355.316 94.2096 354.732 95.0774 354.014C98.4995 351.182 100.956 347.602 102.966 343.726C104.426 340.903 104.104 340 101.274 338.937C92.3836 335.591 83.4519 332.374 74.55 329.075C66.1051 325.944 57.6395 322.859 49.2378 319.59C45.0969 317.974 43.0229 314.078 40.7823 310.629C39.5391 308.712 41.7415 305.071 44.5004 303.641C51.0824 300.241 57.7075 296.91 64.3183 293.557C70.4901 290.416 76.6068 287.173 82.8745 284.215C85.3404 283.053 86.4678 281.373 87.0627 278.84C91.7123 259.078 96.4559 239.337 101.171 219.59C102.818 212.694 104.474 205.8 106.102 198.9C107.164 194.37 106.967 194.154 102.505 194.341C92.5299 194.744 82.5531 195.196 72.572 195.457C69.4889 195.537 67.4794 196.369 66.599 199.64C65.0593 205.338 62.9382 210.888 63.0307 216.916C60.7266 217.191 58.4124 217.842 57.1639 219.821C54.5698 223.935 50.5159 224.747 46.2934 224.932C33.7876 225.476 22.0167 222.526 10.9825 216.699C7.05033 214.627 3.65866 211.957 3.50556 206.849C3.48453 205.979 2.7943 205.078 2.26492 204.295C0.996127 202.401 1.08329 200.453 1.48971 198.293C2.31338 193.885 3.55832 189.588 4.16284 185.099C4.65887 181.438 3.87596 179.551 1.00158 177.631C-6.89345 172.365 -14.7423 167.03 -22.3991 161.433C-33.0198 153.666 -33.3536 153.397 -46.74 153.671C-47.6903 153.693 -49.0314 152.935 -49.7179 154.81C-35.7407 169.643 -20.8276 183.765 -7.22489 198.917C-8.5493 201.047 -10.9101 199.31 -12.0775 201.199C-2.53851 209.205 6.95748 217.14 16.4095 225.135C18.0412 226.509 19.8995 226.685 21.8337 226.709C37.9267 226.932 54.0198 227.155 70.1102 227.348C70.9528 227.36 72.0449 227.87 72.5662 226.353C70.0649 224.205 67.4999 222.031 64.9744 219.817C64.0412 219.017 62.7112 218.421 62.9357 216.814ZM12.9805 209.957C11.9786 208.445 10.5276 207.73 8.34647 206.991C9.74467 209.134 11.2468 209.801 13.0644 209.897C13.9766 211.368 15.5787 211.95 17.0204 212.453C25.3314 215.352 33.7511 217.88 42.6296 218.32C45.8631 218.485 49.1251 219.115 52.9062 217.82C51.8521 217.568 51.3968 217.35 50.9535 217.374C41.5461 217.733 32.4122 216.238 23.4777 213.408C19.9758 212.284 16.4873 211.103 12.9805 209.957ZM118.588 201.314C118.08 200.358 117.156 200.018 115.45 198.874C116.665 200.825 117.644 201.099 118.704 201.243C120.531 204.175 123.662 205.31 126.557 206.519C136.723 210.776 147.349 213.144 158.388 213.284C160.968 213.314 163.754 213.77 166.53 212.225C141.823 211.039 133.231 209.067 118.588 201.314ZM53.8654 247.425C52.6673 245.776 51.4157 244.185 48.6753 243.162C50.0751 245.674 51.7689 246.705 53.5393 247.665C54.0992 249.32 55.695 249.97 56.8378 251.058C59.3368 253.425 60.9477 255.928 59.1038 259.525C58.5474 260.605 58.5318 262.004 58.428 263.272C58.2836 264.918 59.3763 265.925 60.587 266.771C61.6108 267.482 62.4878 267.185 62.804 266.027C63.52 263.404 64.1042 260.749 64.7543 258.11C65.1164 256.635 64.3617 255.629 63.3155 254.803C60.1675 252.321 57.4969 249.256 53.8654 247.425ZM219.123 183.415C219.185 179.363 220.257 175.502 221.365 171.65C222.232 168.645 223.026 165.612 222.961 162.425C214.372 162.482 210.829 165.156 209.04 172.774C205.064 189.714 201.171 206.685 197.158 223.616C194.371 235.371 191.412 247.095 188.615 258.848C183.309 281.109 178.07 303.386 172.752 325.655C172.442 326.953 172.579 328.547 171.024 329.349C170.334 327.822 171.108 326.456 171.422 325.099C175.989 305.475 180.612 285.865 185.176 266.251C185.684 264.084 187.274 261.55 186.159 259.803C185.328 258.49 182.49 258.459 180.545 257.855C180.388 257.808 180.25 257.715 180.104 257.661C174.152 255.633 168.848 258.513 163.345 259.854C163.207 259.891 163.079 260.049 162.998 260.179C159.858 264.998 154.873 265.419 149.81 265.791C141.496 266.401 133.434 265.043 125.444 262.926C121.916 261.994 121.833 261.924 120.326 265.194C118.296 269.572 116.395 273.991 114.93 278.623C111.305 290.139 110.484 301.995 110.158 313.94C110.042 318.009 110.102 318.093 113.902 319.508C135.032 327.387 156.172 335.26 177.304 343.13C180.237 344.218 180.506 344.094 181.355 341.164C181.627 340.234 181.804 339.282 182.019 338.339C185.373 324.253 188.811 310.188 192.033 296.07C193.961 287.62 196.097 279.22 198.062 270.779C200.416 260.631 202.883 250.51 205.368 240.394C207.428 231.975 209.49 223.548 211.256 215.069C213.482 204.374 215.999 193.748 219.077 183.275C220.314 184.804 219.462 186.37 219.103 187.876C216.301 199.776 213.454 211.656 210.624 223.55C204.732 248.307 198.838 273.073 192.956 297.832C189.719 311.468 186.494 325.098 183.315 338.748C183.007 340.077 182.489 341.455 182.829 342.699C183.805 343.151 184.37 342.828 184.937 342.536C192.829 338.524 200.685 334.413 208.644 330.536C211.369 329.208 212.708 327.35 213.329 324.415C214.9 317.004 216.772 309.665 218.522 302.296C220.235 295.078 221.966 287.874 223.679 280.655C225.429 273.287 227.141 265.909 228.898 258.552C230.618 251.346 232.228 244.103 234.147 236.944C236.072 229.716 237.18 222.324 239.032 215.069C241.659 204.817 244.044 194.498 246.36 184.172C247.268 180.122 248.822 176.197 249.122 171.983C249.246 170.253 249.056 169.173 247.201 168.819C242.415 167.905 238.037 165.786 233.458 164.255C224.981 161.425 225.191 161.505 223.163 170.12C222.108 174.622 221.977 179.463 219.123 183.415ZM169.617 147.807C168.118 145.082 168.623 142.259 168.241 139.612C168.002 137.944 167.487 135.892 170.423 135.887C171.418 135.886 171.532 134.829 171.709 134.086C174.113 124.06 176.539 114.028 178.839 103.977C179.393 101.573 178.818 101.108 176.357 101.375C175.243 101.497 174.146 101.802 173.031 102.013C163.69 103.76 154.39 105.875 144.832 105.99C142.408 106.017 141.894 107.337 141.466 109.173C138.752 120.787 135.973 132.384 133.316 144.011C132.975 145.521 132.118 147.027 132.676 148.731C133.128 148.879 133.582 149.147 134.037 149.156C143.278 149.204 152.243 150.987 161.08 153.475C168.406 155.543 175.348 158.424 181.1 163.626C183.75 166.029 184.629 168.844 183.357 172.339C182.653 174.289 182.379 176.392 181.847 178.413C180.128 184.943 178.965 191.607 176.875 198.069C175.409 202.581 175.704 202.682 180.058 204.318C185.169 206.245 190.349 208.009 195.364 210.171C197.819 211.224 198.577 210.341 199.059 208.239C199.312 207.136 199.592 206.049 199.854 204.948C204.46 185.662 209.119 166.399 213.649 147.094C219.513 122.162 225.267 97.1932 231.103 72.2541C231.473 70.6619 231.434 68.7831 233.362 67.7916C232.354 74.2234 231.001 80.5533 229.545 86.8584C228.067 93.2975 226.495 99.7141 224.961 106.14C223.463 112.415 221.948 118.676 220.449 124.951C218.915 131.377 217.343 137.793 215.872 144.244C214.44 150.535 212.56 156.739 211.357 164.318C214.978 161.821 217.761 160.457 220.885 160.497C223.335 160.525 224.28 159.319 224.802 157.176C226.463 150.303 228.465 143.502 229.907 136.587C233.901 117.364 238.903 98.3711 243.191 79.2079C244.349 74.0249 245.575 68.8483 246.893 63.7036C247.375 61.81 246.94 60.5922 245.097 59.8936C244.194 59.5488 243.317 59.1404 242.412 58.805C230.519 54.3243 218.631 49.8248 206.722 45.37C197.525 41.9309 188.296 38.5437 179.09 35.1422C170.48 31.9526 161.889 28.7276 153.254 25.6016C149.041 24.0786 148.886 24.2304 147.842 28.6848C147.768 28.9953 147.71 29.3196 147.636 29.6301C144.134 44.5058 140.62 59.3887 137.117 74.2645C135.229 82.2563 133.31 90.2508 131.468 98.2538C130.708 101.563 131.103 102.115 134.306 103.118C139.581 104.775 140.659 104.178 141.951 98.8079C146.191 81.095 150.411 63.3777 154.679 45.6716C155.043 44.1475 155.007 42.339 156.324 41.2413C156.684 41.3572 157.054 41.4753 157.412 41.6006C152.499 62.1757 147.588 82.7414 142.668 103.345C146.487 104.724 149.72 104.104 152.829 103.623C160.627 102.422 168.359 100.788 176.167 99.6293C179.241 99.1701 180.507 97.7422 181.147 94.8521C183.174 85.7397 185.42 76.6697 187.599 67.5839C188.026 65.7964 188.358 64.1154 186.206 63.0846C185.591 62.7884 185.5 61.9612 185.906 61.3821C187.846 58.5934 188.768 55.0247 192.35 52.7279C192.649 56.2697 192.911 59.2958 193.173 62.3218C193.262 63.3672 193.044 64.4886 191.873 64.5173C189.517 64.5913 189.546 66.3881 189.193 67.8651C184.037 89.6651 178.91 111.472 173.792 133.281C173.437 134.807 172.71 136.394 174.747 137.487C175.524 137.901 175.499 138.919 175.009 139.638C173.249 142.26 172.09 145.325 169.617 147.807ZM-87.3986 69.4693C-87.4031 69.4881 -87.4076 69.507 -87.4121 69.5258C-101.501 66.1614 -115.6 62.7947 -129.69 59.4303C-135.167 58.1223 -140.616 56.6521 -146.143 55.551C-151.889 54.4077 -156.174 56.9348 -157.638 62.4423C-159.543 69.585 -161.275 76.7987 -162.728 84.0493C-163.889 89.8281 -161.127 94.1371 -155.599 96.0639C-154.23 96.5399 -152.827 96.9147 -151.415 97.2518C-121.322 104.378 -91.2377 111.502 -61.1374 118.6C-53.9329 120.301 -46.719 122.004 -39.4628 123.488C-33.6037 124.698 -28.7256 121.726 -27.2535 116.061C-25.4679 109.208 -23.9247 102.287 -22.3085 95.3941C-21.8259 93.3315 -21.7633 91.278 -22.5762 89.2243C-24.0233 85.5772 -26.7875 83.8631 -30.5285 82.9896C-49.5108 78.5762 -68.4432 73.9957 -87.3986 69.4693ZM-150.568 52.1674C-146.7 53.0911 -143.114 53.9474 -139.528 54.8037C-103.773 63.3417 -68.0157 71.8304 -32.2873 80.4813C-28.8354 81.3155 -26.68 80.7463 -24.512 77.8332C-19.5237 71.1086 -14.1569 64.6734 -8.98185 58.0829C-8.23633 57.1273 -7.07178 56.2916 -7.35276 54.5936C-8.81755 53.6869 -10.5916 53.492 -12.2763 53.0897C-45.0459 45.2548 -77.8177 37.4292 -110.59 29.6036C-114.825 28.5923 -119.038 27.4868 -123.293 26.6C-129.455 25.3274 -135.93 27.7789 -138.254 32.8426C-140.437 37.6117 -143.773 41.4989 -146.64 45.7566C-147.98 47.7437 -149.762 49.4563 -150.568 52.1674ZM278.878 47.0372C277.178 46.3629 276.499 46.8768 275.808 47.2289C268.63 50.8749 261.601 54.8548 254.235 58.0782C249.991 59.9385 248.166 62.8738 247.302 67.0331C245.898 73.7882 244.602 80.589 242.812 87.2519C241.106 93.6066 239.566 100.011 238.187 106.414C236.139 115.989 233.604 125.437 231.576 135.016C229.971 142.569 228.056 150.047 226.226 157.546C225.83 159.162 225.812 160.361 227.802 160.816C233.632 162.149 239.076 164.682 244.77 166.419C249.776 167.953 249.812 167.842 251.291 163.024C251.617 161.948 252.057 160.9 252.317 159.808C256.586 141.973 261.045 124.174 265.022 106.269C267.949 93.0953 271.046 79.9623 274.142 66.8292C275.71 60.2625 277.287 53.698 278.878 47.0372ZM110.345 206.337C110.178 206.744 109.876 207.299 109.735 207.892C106.995 219.449 104.49 231.063 101.454 242.529C100.364 246.635 101.392 249.496 104.396 251.873C108.453 255.09 113.051 257.371 117.985 258.997C120.143 259.711 121.544 259.3 122.686 257.186C124.364 254.076 126.315 251.111 128.229 248.137C128.656 247.474 129.136 246.464 130.732 247.154C128.557 250.722 126.412 254.078 124.436 257.524C122.871 260.243 123.04 260.661 125.997 261.566C134.891 264.277 144.002 264.991 153.211 264.047C155.689 263.794 158.402 263.179 160.385 260.917C159.106 260.065 158.337 260.538 157.589 260.628C156.382 260.767 155.776 260.264 155.625 259.104C155.222 256.124 157.906 250.719 160.677 249.571C163.184 248.529 164.52 246.809 165.039 244.258C165.365 242.685 165.776 241.133 166.149 239.571C167.502 233.987 167.502 233.987 161.58 233.667C162.031 231.776 162.61 229.975 162.863 228.126C163.191 225.668 164.062 223.977 166.747 223.315C168.332 222.928 169.991 222.062 170.476 220.198C148.424 223.892 128.508 219.346 110.345 206.337ZM215.644 322.761C215.411 323.53 215.032 324.285 214.953 325.072C214.579 329.099 212.065 331.045 208.599 332.683C200.174 336.678 191.898 341.006 183.588 345.267C181.901 346.127 180.453 346.358 178.586 345.594C173.829 343.643 168.944 341.979 164.122 340.171C147.102 333.79 130.096 327.392 113.078 321.002C110.248 319.938 109.929 320.15 109.536 323.338C109.225 325.889 108.952 328.449 108.601 331.001C108.078 334.734 108.131 334.886 111.616 336.414C112.354 336.74 113.131 336.945 113.89 337.226C128.668 342.704 143.44 348.17 158.2 353.684C167.05 356.99 175.732 360.963 185.516 360.525C185.828 360.51 186.146 360.635 186.459 360.7C189.736 361.393 192.685 360.834 195.719 359.252C211.996 350.788 228.355 342.482 244.706 334.165C250.661 331.142 250.807 330.322 245.734 325.779C245.021 325.141 244.251 324.45 243.374 324.122C235.564 321.123 227.737 318.2 219.908 315.237C218.384 314.664 217.589 315.2 216.959 316.67C216.147 318.614 216.252 320.758 215.644 322.761ZM271.824 43.4137C255.698 37.4149 240.78 31.8937 225.886 26.3183C212.643 21.3661 199.393 16.4023 186.203 11.3134C184.089 10.5004 182.894 10.5035 182.331 12.9447C181.136 18.1186 179.874 23.2768 178.615 28.4256C178.167 30.2579 178.546 31.4223 180.539 32.1169C184.935 33.6639 189.232 35.4558 193.599 37.0851C209.857 43.1553 226.16 49.1265 242.366 55.3333C244.883 56.2923 246.856 56.2763 249.176 55.0602C253.876 52.5827 258.697 50.3526 263.428 47.9523C265.947 46.6942 268.403 45.2819 271.824 43.4137ZM70.0355 179.458C47.9771 182.594 28.1604 178.508 10.1079 165.118C8.4882 171.901 6.88977 178.262 5.48899 184.669C5.01218 186.833 5.93177 188.773 7.53963 190.33C9.05027 191.795 10.7224 193 12.5435 194.081C22.7259 200.142 33.9838 202.741 45.5615 204.083C50.3341 204.636 55.2279 204.681 59.9491 203.283C62.2723 202.594 64.6722 201.835 65.356 199.055C66.9388 192.551 68.4651 186.034 70.0355 179.458ZM7.11787 264.922C8.45214 264.375 8.6448 263.735 8.79083 263.123C11.377 252.335 13.8995 241.521 16.5516 230.748C17.1095 228.495 16.2815 227.213 14.6215 225.832C7.19585 219.683 -0.093018 213.378 -7.49537 207.215C-9.77809 205.318 -11.7791 202.99 -14.7242 201.7C-16.6498 204.89 -16.7468 208.338 -17.5268 211.562C-19.4672 219.522 -21.2947 227.508 -23.3293 235.445C-23.9735 237.976 -23.4509 239.663 -21.3706 241.283C-16.8077 244.839 -12.4023 248.596 -7.95291 252.293C-2.91124 256.51 2.11876 260.735 7.11787 264.922ZM94.3181 303.992C93.5754 301.478 94.2994 299.821 94.6925 298.174C97.8454 284.846 101.008 271.52 104.243 258.221C104.821 255.843 104.79 254.056 102.645 252.291C99.37 249.589 98.8022 246.093 99.8952 241.849C102.94 230.016 105.563 218.073 108.402 206.181C109.034 203.538 109.429 200.758 111.378 198.638C112.143 197.806 111.997 196.876 111.928 195.915C111.866 195.135 111.964 194.223 110.855 194.078C109.969 193.956 109.207 194.311 108.951 195.175C108.353 197.18 107.83 199.203 107.343 201.244C100.753 228.798 94.1639 256.351 87.6238 283.907C85.9887 290.796 84.4854 297.716 82.9069 304.618C82.537 306.25 82.1561 307.721 84.3543 308.514C91.1702 310.967 97.9152 313.592 104.731 316.045C107.662 317.103 108.05 316.768 108.405 313.7C108.514 312.742 108.469 311.766 108.519 310.804C109.04 300.835 109.442 290.857 112.355 281.201C114.125 275.329 116.259 269.603 118.974 264.106C119.884 262.254 119.606 261.084 117.585 260.423C114.523 259.413 111.539 258.203 108.725 256.616C107.339 255.838 106.646 256.239 106.293 257.637C106.011 258.733 105.741 259.822 105.478 260.923C102.486 273.454 99.5099 285.999 96.4799 298.522C96.0729 300.185 96.0409 302.027 94.3181 303.992ZM44.258 306.656C46.5581 310.189 49.2029 313.028 53.4931 314.56C67.4261 319.538 81.2293 324.892 95.0873 330.101C97.9456 331.171 100.799 332.26 103.676 333.295C105.646 334.004 106.72 333.296 106.941 331.161C107.222 328.444 107.562 325.73 107.96 323.021C108.34 320.387 107.4 318.95 104.764 318.032C98.2295 315.775 91.8018 313.196 85.3333 310.747C80.1326 308.779 79.9889 308.506 81.3161 302.906C82.4277 298.209 83.5864 293.524 84.6532 288.806C84.8752 287.835 85.7503 286.711 84.5244 285.762C79.895 287.401 46.6747 304.618 44.258 306.656ZM134.123 192.792C134.104 194.329 135.156 194.173 135.801 194.386C143.002 196.772 150.364 198.351 157.929 199.044C162.632 199.471 167.233 199.078 171.802 197.941C174.669 197.224 176.602 195.836 177.244 192.648C178.323 187.297 179.764 182.012 181.033 176.697C181.271 175.699 182.11 174.647 181.522 174.109C159.154 178.165 139.384 173.424 120.962 160.125C122.292 164.679 125.496 166.886 128.755 168.818C131.5 170.447 134.551 171.584 137.462 172.935C141.502 174.805 142.49 176.791 141.45 180.938C141.02 182.655 140.515 184.354 140.228 186.096C139.624 189.711 138.284 192.613 134.123 192.792ZM140.745 178.642C139.121 178.443 138.161 178.174 137.239 178.242C120.723 179.499 104.175 180.013 87.6279 180.526C83.1279 180.665 78.6399 181.045 74.1416 181.343C72.8493 181.423 71.5054 181.509 71.1688 183.169C70.5395 186.221 69.2756 189.181 69.3554 192.263C70.0644 192.502 70.3718 192.714 70.6649 192.695C92.0241 191.779 113.381 190.833 134.733 189.945C137.285 189.838 138.476 188.601 138.949 186.248C139.419 183.904 140.042 181.586 140.745 178.642ZM133.357 173.586C132.267 171.943 130.961 171.661 129.822 171.101C126.636 169.525 123.608 167.668 121.497 164.757C120.056 162.753 118.286 162.539 116.042 162.649C100.94 163.359 85.8407 163.93 70.7431 164.621C69.3755 164.682 67.8118 164.189 66.6108 165.344C66.7361 165.653 66.7659 166.028 66.9671 166.185C69.9628 168.472 72.7203 170.881 72.8193 175.091C72.8411 176.041 73.5702 176.404 74.4972 176.396C75.6236 176.387 76.7487 176.467 77.8747 176.417C95.6895 175.679 113.509 174.922 131.333 174.147C131.936 174.122 132.535 173.817 133.357 173.586ZM-18.4686 205.341C-16.9046 203.666 -17.0115 201.572 -16.1163 199.906C-14.9173 197.677 -12.0538 199.683 -10.5327 197.729C-10.9416 197.234 -11.2946 196.712 -11.7264 196.271C-23.838 183.832 -35.9707 171.398 -48.0801 158.95C-53.0872 153.797 -53.0755 153.789 -58.4651 158.529C-61.6412 161.33 -61.7184 161.57 -58.854 164.532C-54.6108 168.926 -50.2164 173.187 -45.987 177.598C-44.0598 179.61 -42.232 181.329 -39.1388 181.541C-36.4378 181.728 -33.0098 185.162 -33.5488 187.211C-34.3206 190.11 -32.5637 191.335 -31.0751 192.933C-29.8714 194.225 -28.7556 195.635 -27.4268 196.778C-24.3189 199.469 -22.1273 203.165 -18.4686 205.341ZM-23.9943 112.036C-22.6591 112.236 -22.4225 111.536 -22.052 111.068C-18.036 106.04 -14.1599 100.89 -9.98042 96.0109C-7.67628 93.3192 -6.27612 90.3719 -5.86898 86.9588C-5.54156 84.2128 -4.65841 81.6393 -4.03431 78.984C-2.84857 73.9767 -1.85108 68.9245 -0.827596 63.8885C-0.394753 61.7842 -0.527157 59.714 -1.709 57.8307C-3.03415 55.7143 -4.17394 55.5714 -5.79899 57.4607C-7.27108 59.1676 -8.56573 61.0065 -9.97152 62.769C-14.3764 68.3004 -18.8354 73.8088 -23.2 79.3796C-23.9872 80.3849 -25.5015 81.4354 -23.7735 83.0314C-19.4691 87.0028 -19.1675 91.9476 -20.4744 97.2541C-21.6565 102.163 -22.8126 107.088 -23.9943 112.036ZM29.8251 266.068C27.0166 262.623 24.7985 260.621 20.8701 260.658C16.7727 260.694 16.2 259.592 17.3454 255.421C18.1206 252.632 18.8725 249.858 19.3748 247.005C19.892 244.006 20.6888 241.044 21.4646 238.087C22.7 233.33 22.8888 233.206 27.5881 233.274C30.8015 233.315 34.0288 233.34 37.2386 233.48C38.9925 233.551 40.8297 233.065 42.4814 233.897C44.7372 235.032 43.2027 237.042 43.4357 238.649C43.5875 239.68 44.2039 240.474 45.2706 240.589C46.328 240.702 46.4392 239.695 46.7346 239C46.9199 238.557 47.0417 238.088 47.1728 237.623C48.2647 233.717 48.2616 233.646 52.2868 233.663C56.143 233.679 60.0036 233.884 63.858 233.95C68.3861 234.026 68.3811 234.005 68.6193 238.507C68.6321 238.829 68.6028 239.16 68.6694 239.464C68.901 240.494 69.5658 241.21 70.5725 241.41C71.9412 241.677 72.0929 240.5 72.3135 239.618C72.8917 237.28 73.4722 234.933 73.8904 232.556C74.3909 229.752 74.2314 229.545 71.2784 229.496C55.0419 229.249 38.7965 229.039 22.5559 228.85C18.7768 228.803 18.7046 228.856 17.7719 232.72C15.3893 242.573 13.0655 252.43 10.7393 262.296C10.0344 265.29 10.2999 265.761 13.3497 265.863C18.5008 266.039 23.6426 266.003 29.8251 266.068ZM-113.043 140.285C-111.991 135.793 -112.025 129.271 -113.05 124.691C-113.619 122.158 -114.506 119.789 -116.229 117.756C-119.533 113.845 -122.993 113.834 -126.172 117.858C-127.682 119.765 -128.88 121.905 -129.425 124.271C-130.927 130.814 -130.895 137.345 -128.834 143.794C-128.336 145.335 -127.533 146.72 -126.536 148.002C-123.606 151.774 -119.941 151.924 -116.9 148.185C-114.951 145.816 -113.553 143.087 -113.043 140.285ZM118.032 160.439C119.959 159.786 119.998 158.244 120.341 156.934C121.218 153.513 123.318 151.051 126.743 150.497C129.815 150.007 130.532 148.13 131.115 145.644C133.7 134.527 136.361 123.428 138.974 112.317C140.395 106.282 140.376 106.278 134.326 104.952C130.054 104.012 130.082 104.059 129.19 108.002C127.01 117.675 124.801 127.34 122.536 136.992C121.178 142.764 119.573 148.486 118.358 154.282C117.962 156.147 117.01 158.177 118.032 160.439ZM-87.6611 168.433C-91.1227 157.015 -86.3152 148.09 -79.17 139.832C-87.5296 137.219 -94.3364 136.936 -100.097 139.021C-106.274 141.265 -107.438 143.682 -105.11 149.598C-101.798 158.016 -95.8771 164.094 -87.6611 168.433ZM148.765 171.676C154.487 173.381 161.342 174.252 168.289 174.24C171.833 174.231 175.379 173.835 178.744 172.62C183.132 171.032 183.756 168.417 180.439 165.019C177.378 161.882 173.577 159.801 169.596 157.935C163.84 155.248 157.704 153.823 151.602 152.505C144.061 150.883 136.337 149.814 128.624 151.702C126.173 152.3 123.108 152.722 122.51 155.642C121.921 158.484 124.296 160.285 126.371 161.844C132.776 166.685 139.984 169.749 148.765 171.676ZM41.8459 158.317C40.2459 157.935 37.4597 157.021 34.597 156.636C28.686 155.851 22.7318 155.414 16.8693 156.967C14.7654 157.529 12.2569 157.785 11.6883 160.583C11.1624 163.202 12.7545 164.825 14.6094 166.223C16.1543 167.377 17.6996 168.572 19.3872 169.462C25.3753 172.632 31.6678 174.861 38.2896 176.501C45.8503 178.376 53.3883 179.431 61.1588 178.969C63.4292 178.835 65.6361 178.467 67.7317 177.565C71.6099 175.906 72.2754 172.952 69.1963 170.099C67.3213 168.368 65.3043 166.733 62.9777 165.561C56.6445 162.378 50.1492 159.624 41.8459 158.317ZM-154.866 53.6272C-163.723 51.5123 -171.669 49.6249 -179.608 47.7093C-181.227 47.3227 -181.998 48.0534 -182.355 49.5492C-183.23 53.2981 -184.127 57.0518 -185.04 60.7917C-185.406 62.2853 -185.01 63.3346 -183.439 63.7099C-176.881 65.2857 -170.323 66.8616 -163.761 68.4187C-162.236 68.7828 -161.221 68.1997 -160.973 66.6182C-160.225 61.9439 -158.324 57.7738 -154.866 53.6272ZM63.418 204.171C55.6686 206.169 49.5747 206.275 41.8351 205.232C36.0626 204.45 30.4828 203.028 24.9539 201.31C23.76 200.936 22.5107 200.21 21.8318 202.136C21.3604 203.485 20.2102 204.344 18.8092 203.92C17.2882 203.458 16.5327 202.163 16.8434 200.487C17.1163 199.011 16.5889 197.97 15.219 197.375C11.5147 195.764 8.40355 193.212 5.22471 190.692C3.47864 195.755 3.77815 197.208 7.22168 200.119C8.19748 200.949 9.27552 201.684 10.3855 202.326C23.3815 209.895 37.4415 213.133 52.43 212.565C54.7291 212.478 56.9159 211.986 59.0101 211.173C61.9597 210.028 63.6481 207.915 63.418 204.171ZM118.159 193.694C118.57 195.433 119.676 195.926 120.597 196.484C134.246 204.775 149.125 208 164.967 207.148C167.043 207.038 169.115 206.568 171.015 205.57C173.86 204.071 174.197 203.366 173.745 199.509C160.123 201.397 145.669 200.392 135.788 195.944C130.047 193.361 124.382 192.962 118.159 193.694ZM39.6469 262.098C39.6187 262.092 39.5999 262.087 39.5717 262.08C39.1605 263.802 38.6248 265.504 38.3688 267.243C37.9751 269.933 39.2382 271.518 41.9728 271.773C44.2094 271.989 46.4658 272.08 48.7142 272.08C52.4435 272.085 54.8318 270.458 55.9252 266.92C56.8283 264.013 57.5238 261.017 58.0903 258.02C58.699 254.804 57.3217 253.073 54.0855 252.877C51.8498 252.741 49.5906 252.828 47.3404 252.877C43.8607 252.951 41.6835 254.57 40.6628 257.886C40.2456 259.258 39.9839 260.687 39.6469 262.098ZM65.118 262.502C65.1274 262.505 65.1274 262.505 65.1368 262.507C64.8021 263.909 64.4391 265.304 64.142 266.714C63.3465 270.462 64.6486 272.176 68.4048 272.277C70.3228 272.327 72.2471 272.309 74.1714 272.292C78.0998 272.255 80.1069 270.974 81.3112 267.264C82.295 264.227 83.0314 261.102 83.6692 257.972C84.0818 255.953 82.7052 253.635 81.0047 253.508C77.8196 253.264 74.5785 253.047 71.4205 253.357C68.9331 253.608 67.105 255.389 66.2722 257.836C65.7532 259.343 65.4909 260.941 65.118 262.502ZM-24.8199 216.066C-24.8576 216.057 -24.8952 216.048 -24.9329 216.039C-24.4881 214.176 -23.9469 212.326 -23.6267 210.444C-23.3263 208.686 -24.0621 206.81 -25.6752 206.524C-29.5973 205.826 -33.655 205.404 -37.5582 206.709C-38.7251 207.097 -39.9001 208.059 -40.3306 209.279C-41.7367 213.21 -42.6906 217.288 -43.3461 221.407C-43.5683 222.796 -42.9097 224.246 -41.632 224.561C-37.5751 225.57 -33.3471 226.112 -29.3932 224.51C-27.3976 223.694 -25.7314 221.924 -25.5618 219.339C-25.4985 218.241 -25.0805 217.157 -24.8199 216.066ZM-45.6427 146.535C-48.7624 144.06 -52.2209 143.711 -55.7685 144.236C-66.9436 145.874 -79.1933 158.094 -76.4784 173.221C-76.0516 175.6 -74.8798 177.65 -72.761 179.359C-73.9342 158.942 -61.3315 147.91 -45.6427 146.535ZM23.2399 242.359C22.4514 245.661 21.9106 248.426 21.1085 251.118C20.522 253.116 21.0757 254.422 22.6313 255.698C26.7178 259.041 30.6909 262.525 34.7379 265.908C35.3015 266.381 35.9744 266.979 37.1116 266.217C37.7227 263.658 38.3545 260.845 39.0782 258.064C39.4816 256.5 39.1403 255.305 37.9199 254.208C33.4478 250.147 28.677 246.462 23.2399 242.359ZM-44.7007 220.706C-43.8762 217.253 -43.1322 214.179 -42.4093 211.11C-42.0723 209.699 -42.6288 208.571 -43.6826 207.693C-48.3569 203.813 -53.0568 199.956 -57.8516 195.996C-60.3332 199.431 -60.7199 203.217 -60.6959 206.783C-60.6787 209.711 -57.1929 210.653 -55.3163 212.543C-54.6425 213.221 -53.8387 213.771 -53.1021 214.394C-50.5775 216.528 -48.2148 218.882 -44.7007 220.706ZM-115.266 155.258C-109.811 158.997 -104.348 161.574 -97.95 164.484C-99.6803 162.231 -100.853 160.728 -101.991 159.203C-104.718 155.539 -106.729 151.588 -107.602 147.034C-108.225 143.773 -107.209 141.39 -104.724 139.398C-102.252 137.422 -99.3556 136.583 -96.3283 135.903C-94.7736 135.559 -92.9113 135.884 -91.3627 134.315C-96.8762 131.407 -102.019 128.697 -107.622 125.748C-106.625 136.696 -106.915 146.741 -115.266 155.258ZM157.939 22.8123C158.037 23.1538 158.125 23.493 158.222 23.8345C163.307 25.7449 168.379 27.7117 173.496 29.5303C176.413 30.5648 176.824 30.3846 177.579 27.4722C178.776 22.8355 179.718 18.1381 180.783 13.47C180.922 12.8468 181.087 12.2398 180.118 11.3819C172.835 15.1322 165.392 18.9734 157.939 22.8123ZM190.242 228.787C183.575 230.128 177.212 231.403 170.844 232.697C169.631 232.944 168.85 233.633 168.69 234.927C168.495 236.452 169.281 237.246 170.603 237.83C175.147 239.84 179.862 241.344 184.575 242.897C185.941 243.342 187.092 243.189 187.524 241.503C188.531 237.497 189.97 233.594 190.242 228.787ZM-62.1675 163.91C-64.663 168.902 -65.196 173.717 -66.3174 178.372C-66.8139 180.451 -65.6895 180.909 -63.9643 180.933C-58.9763 181 -53.9784 181.11 -48.9882 181.168C-48.1056 181.18 -47.0265 181.576 -46.4375 180.027C-51.1849 174.577 -56.5242 169.523 -62.1675 163.91ZM110.861 337.825C110.852 337.863 110.836 337.889 110.827 337.926C110.361 337.795 109.9 337.645 109.429 337.533C108.629 337.342 107.745 337.17 107.415 338.176C107.118 339.089 107.725 339.672 108.549 339.968C110.521 340.667 112.515 341.273 114.469 342.008C132.366 348.718 150.253 355.465 168.184 362.114C169.337 362.538 171.243 363.928 171.923 362.122C172.615 360.268 170.351 360.125 169.099 359.657C154.653 354.249 140.185 348.885 125.726 343.483C120.769 341.623 115.822 339.716 110.861 337.825ZM185.919 250.268C186.2 246.964 186.661 246.12 182.596 247.019C176.314 248.412 169.977 249.534 163.666 250.802C162.558 251.025 161.453 251.278 160.406 251.664C158.718 252.275 156.747 256.111 157.494 257.651C158.516 259.745 160.354 258.464 161.752 258.191C168.542 256.839 175.279 255.285 182.062 253.922C184.216 253.481 185.595 252.498 185.919 250.268ZM164.347 231.742C165.42 232.456 166.532 231.965 167.588 231.75C173.9 230.483 180.204 229.164 186.515 227.857C191.915 226.74 192.035 226.57 192.022 220.292C190.239 220.094 188.535 220.563 186.819 220.919C181.137 222.088 175.468 223.29 169.792 224.44C164.063 225.598 164.068 225.579 164.347 231.742ZM-94.2842 130.176C-90.3829 132.878 -85.7933 134.322 -81.5783 136.502C-77.4862 138.613 -73.3496 138.954 -68.9846 138.047C-65.6336 137.346 -62.3798 137.427 -59.0077 138.262C-55.7087 139.069 -52.2656 139.524 -48.1678 138.861C-50.8446 136.323 -53.6643 135.132 -56.1323 133.469C-57.0754 132.836 -57.93 133.249 -58.8664 133.254C-70.7067 133.261 -82.601 133.702 -94.2842 130.176ZM102.216 337.491C102.523 337.584 102.826 337.686 103.144 337.772C103.925 337.959 104.844 338.238 105.232 337.277C105.747 335.997 104.68 335.673 103.775 335.337C103.328 335.171 102.862 335.04 102.404 334.871C85.8786 328.628 69.3456 322.373 52.8176 316.139C52.0683 315.86 51.2709 315.7 50.492 315.504C49.7978 315.328 49.1559 315.433 49.0635 316.237C49.014 316.652 49.2018 317.324 49.5137 317.518C50.3194 318.018 51.2336 318.356 52.1267 318.698C59.0407 321.324 65.943 323.957 72.8638 326.554C82.6356 330.21 92.4307 333.852 102.216 337.491ZM-40.3874 150.982C-50.4572 146.449 -61.1231 152.037 -67.0804 160.986C-71.3674 167.441 -72.0177 175.997 -68.2612 180.305C-68.1107 175.05 -66.6079 170.506 -65.3713 165.869C-64.2339 161.606 -61.8222 158.881 -58.6961 156.246C-55.5793 153.609 -52.551 151.259 -48.0639 151.675C-45.8766 151.889 -43.618 151.304 -40.3874 150.982ZM55.1247 238.984C59.239 242.503 62.9098 245.378 66.2743 248.578C69.9376 252.068 74.0443 252.034 79.1315 251.061C75.4604 247.937 72.1148 245.408 69.15 242.493C65.3622 238.774 60.9893 237.839 55.1247 238.984ZM29.8326 238.414C34.0436 241.985 37.6908 244.626 40.7828 247.801C44.3873 251.496 48.546 251.495 53.8813 250.899C50.0243 247.512 46.5215 244.766 43.4018 241.625C39.817 238.014 35.6445 237.614 29.8326 238.414ZM-28.7044 204.17C-29.1142 202.053 -30.715 201.382 -31.8803 200.388C-34.4336 198.207 -37.312 196.346 -39.6191 193.926C-43.0417 190.344 -46.8756 191.318 -51.9839 191.63C-48.0238 195.002 -44.7552 197.354 -42.0279 200.222C-38.3559 204.092 -34.1189 205.263 -28.7044 204.17ZM5.59384 208.561C12.4916 220.003 45.2158 227.32 54.4643 220.211C31.2406 220.811 20.7003 218.373 5.59384 208.561ZM116.489 202.772C118.4 206.6 118.763 206.915 121.485 208.848C125.625 211.796 130.417 213.268 135.16 214.738C143.043 217.178 151.145 218.287 159.423 217.619C161.674 217.44 163.878 217.042 166.318 214.74C145.873 217.366 127.722 211.431 116.489 202.772ZM-81.2512 166.045C-81.1984 151.867 -74.008 143.67 -60.3712 140.472C-67.5746 137.559 -75.408 142.241 -79.741 148.347C-83.9331 154.237 -84.6839 161.297 -81.2512 166.045ZM193.477 363.35C193.612 363.701 193.876 363.804 194.249 363.614C212.341 354.47 230.422 345.323 248.499 336.155C249.055 335.87 249.531 335.417 250.027 335.008C250.127 334.923 250.176 334.716 250.174 334.556C250.17 333.909 249.579 334.673 249.952 334.155C244.103 335.861 196.03 360.698 193.477 363.35ZM72.7633 178.2C72.806 178.687 72.8394 179.173 72.8821 179.66C94.8997 178.862 116.92 178.134 138.901 176.7C138.877 176.256 138.865 175.806 138.842 175.363C116.812 176.298 94.7863 177.254 72.7633 178.2ZM-34.738 191.899C-36.4516 194.285 -35.4213 195.386 -34.0646 196.495C-31.2093 198.828 -28.3213 201.149 -25.6166 203.654C-23.4976 205.612 -21.245 207.761 -22.1062 211.075C-23.1928 215.251 -23.5257 219.686 -25.5427 223.55C-26.9158 226.176 -25.519 226.867 -23.2516 227.996C-21.8273 222.031 -20.5094 216.429 -19.1445 210.838C-18.7689 209.307 -18.9632 208.037 -20.1069 206.869C-24.9303 201.988 -29.7192 197.046 -34.738 191.899ZM171.761 222.524C177.707 221.249 183.336 220.047 188.975 218.848C188.983 218.522 188.979 218.203 188.988 217.876C183.971 216.012 178.943 214.155 173.589 212.161C172.958 215.719 172.421 218.803 171.761 222.524ZM183.342 244.85C178.546 242.273 174.115 240.956 169.709 239.576C167.729 238.954 166.849 240.514 166.821 241.879C166.782 244.127 166.318 246.234 165.195 248.939C171.406 247.509 177.093 246.898 183.342 244.85ZM171.261 207.995C151.069 211.358 132.591 206.915 114.98 195.093C125.332 207.4 159.49 214.88 171.261 207.995ZM-69.662 193.962C-69.6338 193.969 -69.5961 193.977 -69.5679 193.984C-70.161 196.468 -70.8011 198.94 -71.3283 201.44C-71.518 202.359 -71.5912 203.416 -70.3875 203.832C-69.4499 204.156 -68.4472 204.206 -67.6154 203.639C-67.1379 203.306 -66.6794 202.719 -66.5352 202.157C-65.5344 198.299 -64.59 194.427 -63.7115 190.54C-63.4091 189.19 -63.9441 188.098 -65.0498 187.187C-66.674 185.865 -67.5508 185.954 -68.187 187.91C-68.8161 189.878 -69.179 191.939 -69.662 193.962ZM186.913 255.269C188.969 251.991 196.825 219.092 196.465 215.267C194.563 218.9 186.84 251.244 186.913 255.269ZM53.0464 239.522C51.9022 239.189 51.1988 239.469 50.6735 240.169C50.0814 240.982 50.4131 241.718 51.0574 242.269C55.4368 246.01 59.8301 249.734 64.2351 253.451C65.3767 254.42 66.6151 254.566 67.5921 253.308C68.6108 252 67.3261 251.256 66.5492 250.593C62.53 247.177 58.4551 243.827 54.3848 240.458C53.8946 240.053 53.3444 239.733 53.0464 239.522ZM6.00808 202.077C16.9153 212.935 48.9244 219.664 58.5502 213.599C39.7666 216.144 22.3038 211.825 6.00808 202.077ZM-54.3092 192.119C-55.5372 191.845 -56.135 192.349 -56.5402 193.088C-57.01 193.93 -56.6388 194.625 -55.9873 195.189C-53.0716 197.685 -50.1419 200.164 -47.2123 202.644C-45.7486 203.888 -44.3127 205.166 -42.8051 206.351C-41.8418 207.109 -40.7764 207.313 -39.792 206.315C-38.4779 204.978 -39.8321 204.317 -40.5807 203.661C-44.6931 200.093 -48.8494 196.585 -52.9964 193.079C-53.4843 192.664 -54.0206 192.327 -54.3092 192.119ZM42.3245 252.177C42.4932 251.054 41.6536 250.445 40.9408 249.848C36.8794 246.441 32.7718 243.104 28.7127 239.688C27.628 238.773 26.6118 238.113 25.4196 239.439C23.9955 241.028 25.6065 241.781 26.4591 242.501C30.3834 245.815 34.3866 249.048 38.3826 252.27C38.9911 252.763 39.712 253.244 40.4529 253.391C41.2668 253.565 41.9462 253.011 42.3245 252.177ZM-110.771 123.893C-111.564 124.34 -111.148 125.056 -111.071 125.611C-109.728 135.15 -110.239 144.207 -117.726 151.478C-118.218 151.957 -118.44 152.551 -117.84 153.122C-117.318 153.604 -116.705 153.621 -116.072 153.345C-114.673 152.734 -113.822 151.585 -113.084 150.329C-108.29 142.126 -107.542 133.454 -110.077 124.406C-110.124 124.186 -110.525 124.071 -110.771 123.893ZM-81.3745 170.103C-83.8451 166.659 -85.268 163.077 -85.0097 158.912C-84.5949 152.259 -81.5197 147.047 -76.7224 142.663C-76.1112 142.103 -74.7919 141.911 -75.3815 140.547C-76.6919 140.244 -77.5705 141.049 -78.3415 141.819C-82.1451 145.625 -85.0908 150.003 -86.4523 155.247C-87.6064 159.705 -87.3946 164.151 -85.3333 168.392C-84.6062 169.888 -83.7383 171.169 -81.3745 170.103ZM-86.3538 118.754C-87.1521 122.015 -86.5459 124.059 -84.6519 124.501C-82.4567 125.015 -79.9865 122.711 -79.0958 119.523C-78.5577 117.603 -78.888 116.569 -81.0518 116.132C-84.8103 115.374 -85.5936 115.654 -86.3538 118.754ZM-70.4006 130.937C-69.8173 129.078 -70.3892 127.39 -70.949 125.734C-71.4484 124.243 -71.4197 121.873 -73.0086 121.653C-74.9713 121.373 -76.1316 123.483 -77.2015 125.047C-77.83 125.971 -78.5312 126.907 -78.4314 128.114C-78.3509 129.068 -78.2785 130.349 -77.022 130.211C-74.7529 129.957 -72.7143 131.628 -70.4006 130.937ZM-84.5588 130.361C-82.9779 130.489 -81.2759 131.194 -80.8476 129.109C-80.4907 127.364 -81.4924 126.31 -83.2638 126.354C-85.9739 126.413 -87.8308 125.273 -89.0092 122.834C-89.4891 121.844 -90.5298 121.536 -91.4816 121.856C-93.226 122.454 -93.5932 124.116 -93.9778 125.685C-94.2118 126.623 -93.7833 127.412 -92.898 127.454C-89.747 127.59 -87.0134 128.85 -84.5588 130.361ZM177.971 208.683C176.638 208.394 175.305 207.559 174.697 208.855C173.829 210.697 175.692 210.813 176.762 211.248C180.616 212.814 184.474 214.362 188.367 215.849C189.553 216.301 190.821 216.574 192.07 216.842C192.505 216.936 192.994 216.804 193.24 216.276C193.552 215.595 193.369 215.025 192.834 214.598C192.465 214.311 192.008 214.103 191.569 213.938C186.948 212.129 182.317 210.357 177.971 208.683ZM276.778 44.0398C273.226 44.375 249.673 56.8098 247.45 59.3317C258.115 54.5794 267.679 49.733 276.778 44.0398ZM-57.4138 142.252C-69.0834 143.294 -79.2065 153.566 -78.4861 163.881C-75.4578 152.741 -68.3689 145.593 -57.4138 142.252ZM-38.1278 185.223C-38.0867 184.676 -38.0479 184.138 -38.0068 183.591C-46.3511 182.623 -54.7411 183.095 -63.1361 182.881C-63.1139 184.079 -62.5284 184.627 -61.9649 184.642C-54.0133 184.88 -46.0742 185.046 -38.1278 185.223ZM151.501 22.3589C151.648 22.7023 151.804 23.0478 151.951 23.3912C155.593 23.3061 158.057 20.235 161.214 18.9304C164.759 17.4597 168.144 15.5732 171.52 13.7243C174.612 12.0261 178.023 10.8619 180.859 8.73477C180.673 8.39185 180.486 8.04893 180.29 7.70376C170.705 12.5949 161.104 17.4722 151.501 22.3589ZM-60.2818 187.093C-60.0888 188.909 -58.9245 188.491 -58.0536 188.51C-51.3444 188.66 -44.6495 188.787 -37.9381 188.928C-37.1564 188.945 -36.1233 189.202 -36.0478 188.136C-35.9498 186.767 -37.2301 186.879 -38.1081 186.848C-43.2117 186.724 -48.3274 186.566 -53.4316 186.61C-55.6961 186.636 -58.0684 186.239 -60.2818 187.093ZM188.496 362.42C184.366 362.05 180.377 361.714 176.4 361.331C175.34 361.227 174.316 361.39 174.138 362.511C173.87 364.178 175.334 364.169 176.382 364.28C180.04 364.667 183.696 364.983 187.355 365.28C188.145 365.349 188.968 365.357 189.732 365.201C190.088 365.127 190.535 364.627 190.604 364.256C190.673 363.884 190.432 363.27 190.124 363.057C189.621 362.708 188.962 362.591 188.496 362.42ZM-102.405 111.938C-103.371 112.821 -103.279 114.017 -103.406 115.05C-103.722 117.58 -102.456 118.778 -99.4919 119.197C-97.1321 119.522 -97.1172 117.626 -96.5709 116.255C-95.9811 114.785 -96.5883 113.745 -98.0036 113.298C-99.4637 112.83 -100.761 111.764 -102.405 111.938ZM195.612 212.09C189.108 209.542 182.843 206.445 175.781 205.524C181.329 208.828 187.713 210.134 193.439 212.983C194.105 213.321 195.021 213.4 195.612 212.09ZM-184.585 48.2213C-188.762 51.5895 -189.935 57.0869 -187.476 60.3293C-186.542 56.4156 -185.603 52.483 -184.585 48.2213ZM118.839 209.887C116.457 207.488 114.561 204.847 114.512 201.216C114.503 200.548 113.884 199.972 113.29 199.92C112.423 199.842 111.909 200.495 111.622 201.322C111.144 202.699 111.749 203.748 112.481 204.848C114.027 207.166 116.223 208.675 118.839 209.887ZM162.837 219.359C165.063 219.622 167.063 219.204 168.892 218.209C169.716 217.759 170.559 217.185 171.129 216.466C171.881 215.522 172.063 214.263 170.979 213.467C169.955 212.715 169.078 213.639 168.664 214.415C167.347 216.846 165.059 217.97 162.837 219.359ZM-68.8119 125.201C-68.3808 131.728 -68.3808 131.728 -62.551 131.061C-64.6253 129.124 -66.3985 127.467 -68.8119 125.201ZM-109.669 118.905C-112.446 114.453 -112.744 114.283 -116.315 115.031C-114.352 116.643 -113.909 120.289 -109.669 118.905ZM55.0118 236.541C59.0885 237.425 63.2042 236.687 67.2726 237.231C63.245 235.892 59.1076 236.137 55.0118 236.541ZM-58.5043 191.356C-61.5593 194.276 -61.001 198.436 -62.1545 202.059C-61.4007 198.361 -60.4986 194.708 -58.5043 191.356ZM32.5095 236.12C35.565 236.322 38.5675 236.831 41.6132 236.991C38.7713 234.811 35.5233 236.372 32.5095 236.12ZM47.1437 314.694C46.3741 312.293 45.2394 310.212 42.5809 309.388C43.5644 311.602 44.748 313.645 47.1437 314.694ZM-78.3011 122.736C-76.3323 121.615 -75.5529 120.309 -75.1025 118.756C-74.9439 118.217 -75.2109 117.835 -75.6778 117.624C-76.1542 117.411 -76.6554 117.51 -76.9371 117.94C-77.8079 119.254 -77.8975 120.754 -78.3011 122.736ZM-50.1088 141.491C-49.369 142.642 -47.9355 142.596 -46.9884 143.379C-46.2733 143.968 -45.453 143.865 -45.2134 142.779C-45.0027 141.855 -45.4183 141.179 -46.3931 141.095C-47.624 141 -48.9213 140.392 -50.1088 141.491ZM-106.659 110.923C-107.4 112.317 -108.902 113.609 -107.586 115.932C-106.474 114.109 -106.082 112.631 -106.659 110.923ZM-88.9001 116.128C-89.7279 115.97 -90.4702 116.121 -90.8154 116.983C-91.1606 117.845 -91.5655 118.833 -90.4394 119.449C-89.5423 119.942 -88.966 119.404 -88.6343 118.598C-88.2936 117.754 -87.7727 116.864 -88.9001 116.128ZM-94.6843 121.936C-93.8624 120.661 -92.5862 119.732 -93.6857 118.088C-93.8241 117.876 -94.3637 117.677 -94.5058 117.772C-95.9156 118.719 -95.0351 120.072 -95.0318 121.267C-95.0327 121.396 -94.9046 121.526 -94.6843 121.936ZM-63.2609 207.901C-63.9068 207.856 -63.9721 208.338 -64.0804 208.749C-64.3059 209.61 -64.1646 210.31 -63.1144 210.412C-62.6281 210.458 -62.1071 210.235 -62.0961 209.73C-62.0674 208.902 -62.6413 208.347 -63.2609 207.901ZM-103.905 121.803C-103.817 121.685 -103.651 121.575 -103.643 121.458C-103.61 120.61 -103.951 119.913 -104.669 119.463C-105.068 119.218 -105.667 119.145 -105.819 119.655C-106.005 120.307 -105.518 120.851 -105.083 121.323C-104.765 121.657 -104.433 121.975 -103.905 121.803ZM183.69 256.269C183.705 255.706 183.399 255.404 182.874 255.478C182.44 255.543 181.747 255.696 181.677 255.948C181.435 256.755 182.111 257.006 182.766 257.053C183.271 257.104 183.582 256.761 183.69 256.269ZM-99.1412 121.936C-98.7016 123.761 -98.9018 125.016 -97.2932 126.196C-97.467 124.424 -97.5144 123.289 -99.1412 121.936ZM-106.126 123.401C-106.933 122.194 -107.574 121.295 -109.082 121.78C-108.414 122.775 -107.765 123.596 -106.126 123.401ZM-110.505 112.948C-109.474 112.13 -109.11 111.272 -109.925 110.103C-110.937 110.925 -111.322 111.788 -110.505 112.948ZM20.2762 257.354C20.0766 257.564 19.7547 257.746 19.6963 257.991C19.5682 258.527 19.8239 258.956 20.4219 258.91C20.6563 258.886 21.0192 258.575 21.0659 258.338C21.1657 257.795 20.7777 257.503 20.2762 257.354Z" fill="#151515"/>
<path d="M261.413 305.865C260.427 304.079 260.876 302.197 261.028 300.394C261.276 297.48 261.046 294.61 260.448 291.783C260.089 290.076 260.167 287.708 257.157 288.192C256.794 288.255 256.163 287.438 255.85 286.916C254.306 284.34 252.833 281.72 250.824 278.218C255.487 279.351 258.938 280.523 262.33 282.775C260.358 284.949 260.943 287.127 261.642 289.532C263.232 294.954 263.392 300.451 261.413 305.865Z" fill="#151515"/>
<path d="M156.161 154.409C156.796 154.71 157.58 154.967 158.23 155.41C163.677 159.138 169.097 162.898 174.518 166.649C175.192 167.118 175.918 167.619 175.656 168.551C175.403 169.445 174.508 169.61 173.722 169.651C165.697 170.052 157.658 170.429 149.629 170.809C148.613 170.855 147.785 170.448 146.955 169.882C141.638 166.276 136.303 162.704 130.984 159.107C130.452 158.752 129.892 158.389 129.49 157.905C128.685 156.947 128.964 156.069 130.072 155.638C130.798 155.344 131.643 155.267 132.44 155.219C139.345 154.839 146.26 154.461 153.171 154.143C154.118 154.091 155.083 154.301 156.161 154.409ZM152.545 159.97C149.736 158.901 146.892 158.481 143.986 158.861C142.179 159.096 139.563 158.551 139.19 160.987C138.846 163.262 141.495 163.795 143.017 164.795C144.34 165.668 145.571 165.972 147.047 164.166C149.868 160.723 155.324 162.334 156.413 166.81C156.755 168.215 157.183 168.794 158.536 168.67C160.121 168.531 161.755 168.523 163.293 168.165C165.095 167.74 165.465 166.357 164.233 164.978C163.375 164.028 162.332 163.271 161.1 162.808C158.263 161.773 155.587 160.229 152.545 159.97ZM152.415 157.642C153.554 159.077 154.764 158.928 155.799 159.176C156.674 159.385 157.529 160.305 158.527 159.459C155.924 157.445 155.924 157.445 152.415 157.642ZM170.424 167.839C169.516 166.558 168.822 165.299 167.126 166.027C166.892 166.131 166.711 166.972 166.87 167.308C167.715 169.101 168.95 168.68 170.424 167.839ZM133.871 158.643C134.133 159.044 134.24 159.388 134.462 159.54C135.301 160.108 136.123 161.249 137.217 159.959C137.495 159.628 137.85 158.977 137.714 158.755C137.124 157.809 136.08 158.097 135.177 158.13C134.903 158.154 134.618 158.344 133.871 158.643ZM153.64 167.799C152.333 167.149 151.043 166.344 148.947 166.957C150.894 167.302 152.267 167.551 153.64 167.799Z" fill="#151515"/>
<path d="M44.441 159.573C45.2759 159.952 46.3801 160.285 47.2996 160.893C52.5349 164.34 57.7334 167.859 62.9247 171.366C63.6954 171.888 64.7382 172.396 64.3049 173.585C63.8991 174.701 62.7499 174.556 61.835 174.596C54.7836 174.921 47.7245 175.195 40.6681 175.498C38.3457 175.6 36.303 175.073 34.3333 173.697C29.5945 170.378 24.7334 167.238 19.9278 164.032C19.0083 163.425 17.78 162.903 18.2133 161.505C18.5447 160.45 19.6627 160.309 20.6269 160.271C27.8474 159.947 35.0705 159.653 42.2985 159.38C42.9296 159.362 43.5741 159.496 44.441 159.573ZM47.5313 173.587C47.989 173.587 49.1288 173.73 50.2185 173.582C51.566 173.397 53.3127 173.665 53.6957 171.728C54.0207 170.075 52.5642 169.509 51.5507 168.879C46.1329 165.487 40.1102 164.128 33.7906 163.971C32.3656 163.939 30.8792 164.082 29.515 164.462C27.671 164.976 27.413 166.307 28.7722 167.656C29.3344 168.218 29.976 168.739 30.6724 169.114C32.6055 170.142 34.1629 171.369 36.2286 168.551C38.1625 165.91 44.2525 167.862 45.1207 171.142C45.4406 172.302 45.4467 173.318 47.5313 173.587ZM56.1764 170.63C56.2367 173.418 56.2367 173.418 59.6884 172.92C58.8276 171.651 57.6514 170.952 56.1764 170.63ZM22.5461 163.733C25.7016 165.6 25.7016 165.6 27.1155 162.845C25.6278 162.868 24.2648 162.701 22.5461 163.733ZM45.6597 163.594C43.9642 161.737 42.1435 162.446 40.4438 162.398C41.9321 163.748 43.6057 163.988 45.6597 163.594ZM38.7613 171.652C38.7365 171.756 38.7141 171.85 38.6799 171.951C39.9035 172.243 41.1176 172.533 42.3411 172.825C42.3564 172.719 42.3789 172.625 42.3942 172.52C41.1895 172.232 39.9754 171.942 38.7613 171.652Z" fill="#151515"/>
</g>
<defs>
<clipPath id="clip0">
<rect width="278" height="350" fill="white" transform="translate(0.5 0.431641)"/>
</clipPath>
</defs>
</svg>
