<svg width="297" height="359" viewBox="0 0 297 359" fill="none" xmlns="http://www.w3.org/2000/svg">
<g clip-path="url(#clip0)">
<g clip-path="url(#clip1)">
<path d="M254.344 41.4485C253.297 39.2748 251.578 38.1542 249.162 38.5461C248.161 38.7089 247.441 39.5489 247.21 40.6174C246.684 43.1413 248.661 44.1165 250.195 45.3166C255.082 49.1637 255.139 49.2071 250.567 53.4714C245.445 58.2351 240.171 62.8398 235.087 67.6456C233.339 69.298 232.347 68.7801 231.096 67.1956C228.547 63.9739 227.377 60.4509 228.827 56.4976C229.826 53.7505 229.738 50.9308 229.93 48.1172C230.033 46.5104 229.691 44.9582 227.667 42.8885C228.853 48.7363 228.077 53.3393 226.854 58.0569C225.915 61.6789 227.229 65.4706 230.114 68.0807C231.97 69.7601 231.796 71.4028 231.293 73.3571C233.17 73.1045 234.426 70.6025 236.719 71.8363C235.961 70.2101 235.888 68.8736 237.47 67.4823C243.315 62.3495 249.075 57.1118 254.778 51.8306C256.354 50.3688 257.614 50.5815 259.094 51.8486C261.3 53.7284 261.398 54.8058 259.058 57.6962C253.117 65.027 247.1 72.2834 241.141 79.5931C240.256 80.6841 239.271 81.4488 237.819 81.4453C238.12 84.0469 236.063 85.3209 234.817 87.3026C233.645 86.0833 232.69 85.0968 231.736 84.1103C231.5 83.8463 231.255 83.5818 231.021 83.3079C230.697 83.3594 230.384 83.4015 230.061 83.453C228.655 83.6826 227.386 83.2791 226.672 82.1061C225.701 80.5278 227.479 79.9289 228.117 78.9339C229.295 77.0885 231.578 75.8876 231.419 73.2542C228.83 74.3773 227.72 76.9478 225.985 78.9014C224.507 80.5692 223.396 80.2148 221.794 78.9807C217.977 76.0366 214.019 73.2647 210.029 70.551C208.563 69.5552 206.923 68.4791 205.049 70.0541C203.112 71.6855 202.896 73.1856 204.689 75.0917C207.106 77.6548 210.149 79.4325 212.965 81.4977C216.444 84.0418 216.519 84.4868 213.867 87.7499C203.574 100.389 193.271 113.028 182.94 125.636C180.225 128.945 179.955 128.93 176.354 126.94C170.821 123.877 168.076 117.088 169.822 110.067C171.556 103.095 168.899 97.7332 164.038 93.0963C163.601 92.6705 162.856 92.5676 162.25 92.3123L162.325 92.2265C162.28 93.1755 162.95 93.7248 163.518 94.2984C167.785 98.6507 169.536 103.72 168.325 109.81C167.494 113.969 167.68 118.057 169.739 121.961C171.708 125.691 174.776 128.081 178.83 129.686C177.75 132.8 175.48 134.822 173.677 137.073C163.156 150.19 152.445 163.146 141.934 176.264C128.303 193.289 114.807 210.412 101.263 227.502C96.2945 233.777 95.88 233.843 91.6018 226.726C89.252 222.825 85.9568 220.732 81.6293 220.042C80.716 219.899 79.5842 219.724 79.0468 221.055C79.8593 222.254 81.1232 221.525 82.1452 221.694C85.301 222.207 87.7464 223.75 89.4346 226.441C90.8474 228.696 92.0302 231.118 94.1758 232.824C95.6224 233.969 95.1382 235.073 94.1613 236.209C88.5775 242.729 85.7397 251.14 79.439 257.238C76.7658 259.828 76.9106 260.618 79.5691 262.985C81.5891 264.784 80.8607 265.954 79.6777 267.538C74.883 273.923 70.394 280.567 65.2648 286.672C62.1895 290.331 60.2164 293.984 61.5518 298.629C62.095 300.503 61.3593 301.452 60.4523 302.592C52.394 312.776 44.3357 322.96 36.258 333.133C35.5562 334.014 34.9561 335.391 33.5814 334.912C32.0099 334.371 31.3657 333.031 31.6354 331.304C32.5119 325.645 30.0114 321.404 25.3132 318.8C20.4693 316.117 17.115 312.789 17.3934 306.906C15.6162 307.154 15.6563 308.198 15.7692 309.196C16.2233 313.489 18.3021 316.704 22.185 318.68C26.0778 320.657 28.9283 323.516 29.9581 327.902C30.1824 328.876 30.4775 330.015 29.5864 330.705C28.5798 331.489 27.7723 330.551 26.9947 329.965C24.0657 327.773 21.1485 325.552 18.1873 323.398C16.5821 322.224 14.9394 321.529 13.5211 323.721C12.2798 325.623 12.8118 326.996 14.4608 328.453C19.9135 333.264 19.679 333.16 15.0058 339.001C6.0591 350.176 -2.6472 361.525 -11.4599 372.807C-11.9681 373.459 -12.487 374.12 -13.0246 374.76C-15.4104 377.578 -15.4538 377.635 -18.4173 375.522C-19.9566 374.421 -21.6862 373.841 -23.4197 373.331C-31.5247 370.921 -31.5364 370.951 -36.6736 364.835C-36.1825 369.531 -33.8564 371.929 -30.1706 373.153C-27.9694 373.89 -25.6593 374.304 -23.4463 375.012C-22.0299 375.464 -20.5888 376.008 -19.3634 376.82C-17.086 378.323 -16.8685 379.417 -18.6126 381.701C-22.154 386.325 -25.8683 390.819 -29.5062 395.378C-31.2756 397.58 -32.6248 400.487 -34.8951 401.819C-37.7762 403.496 -39.3554 399.258 -42.1606 398.746C-44.2722 398.364 -46.2833 397.457 -48.4794 398.022C-54.0115 399.467 -59.5445 400.23 -65.1431 397.955C-62.6505 400.592 -59.5855 401.289 -56.3021 400.978C-53.9958 400.76 -51.7176 400.16 -49.4197 399.741C-45.3906 399.001 -41.8348 400.047 -38.7192 402.65C-37.5917 403.597 -36.914 404.527 -38.1095 405.981C-44.8058 414.08 -50.0597 423.223 -56.4574 431.529C-60.7223 437.063 -65.2371 442.413 -69.6843 447.806C-71.0404 449.441 -72.4461 450.893 -69.7503 452.61C-68.2623 453.557 -69.1835 454.596 -69.9568 455.503C-72.4388 458.425 -74.9296 461.327 -77.4016 464.25C-83.4009 471.377 -89.4672 478.45 -95.3519 485.674C-97.5939 488.43 -98.8189 487.959 -100.657 485.259C-102.652 482.329 -102.785 479.076 -101.779 475.689C-100.648 471.867 -100.044 467.995 -101.794 463.938C-103.287 464.654 -102.717 465.698 -102.644 466.524C-102.367 469.715 -102.529 472.881 -103.476 475.931C-104.852 480.36 -103.874 484.242 -100.732 487.428C-99.0946 489.095 -99.0422 490.1 -100.403 491.994C-104.476 497.67 -108.26 503.552 -111.667 509.667C-119.173 523.138 -124.307 537.506 -127.803 552.48C-133.055 574.996 -132 597.393 -126.504 619.736C-125.474 623.942 -124.371 628.092 -122.881 632.145C-122.249 633.874 -121.417 634.733 -119.603 633.485C-118.09 632.44 -116.505 632.572 -114.848 633.198C-113.545 633.694 -112.216 633.399 -110.962 632.851C-108.527 631.789 -107.975 630.729 -108.841 628.185C-115.701 607.977 -117.784 587.253 -114.997 566.139C-112.489 547.111 -106.092 529.409 -96.4494 512.756C-88.0297 498.206 -76.6531 486.059 -66.0403 473.257C-63.5971 470.313 -61.2397 467.293 -58.8347 464.317C-57.8638 463.11 -56.9458 461.951 -55.1718 463.325C-53.3596 464.732 -52.1713 463.578 -51.0551 462.11C-42.0999 450.265 -31.7626 439.641 -21.5687 428.899C-19.9912 427.247 -18.862 426.25 -16.7069 428.137C-13.8557 430.635 -10.1857 431.437 -6.53324 431.847C-1.88531 432.365 1.29242 434.411 2.38134 439.162C2.44569 439.436 2.78362 439.655 3.02229 439.86C3.11753 439.945 3.30954 439.916 3.44873 439.934C3.18995 435.031 1.52079 432.531 -2.75654 431.143C-4.64464 430.534 -6.65615 430.328 -8.61795 429.955C-12.1351 429.281 -15.2375 427.841 -17.8743 424.925C-14.1001 420.434 -10.3587 415.991 -6.63674 411.538C-3.32401 407.582 0.0563215 403.669 3.23503 399.605C4.87832 397.506 6.68423 396.759 9.29517 397.34C11.7187 397.87 14.2334 398.035 16.6961 398.407C18.5039 398.671 20.1434 399.076 21.4361 396.976C22.2541 395.641 24.166 396.012 25.6499 395.987C31.1949 395.885 36.5432 396.764 41.8002 398.709C48.322 401.128 53.2231 399.857 57.112 395.113C58.3398 393.621 59.5944 392.01 58.7794 389.81C57.5599 389.94 57.3807 390.791 57.0176 391.531C54.1408 397.486 49.7402 399.807 43.6093 397.731C36.8992 395.452 30.239 393.697 23.1066 394.579C22.7837 394.62 22.2776 394.711 22.1365 394.553C18.802 390.705 15.2369 393.825 11.7527 394.146C10.6753 394.244 9.55995 395.001 8.30977 394.098C13.0109 388.468 17.6798 382.877 22.3487 377.286C28.5344 369.88 34.7206 362.463 40.9163 355.056C44.0678 351.291 44.0778 351.292 47.9201 354.147C48.5925 354.647 49.2116 355.203 49.8846 355.693C51.5391 356.88 52.9327 356.509 54.2679 355.063C55.7856 353.408 55.3058 351.998 53.8221 350.801C50.06 347.77 46.2322 344.835 42.4268 341.861C41.7749 341.353 41.103 340.844 40.3972 340.402C38.2227 339.025 38.2081 337.712 39.8697 335.644C47.9059 325.669 55.8858 315.631 63.6446 305.43C65.4754 303.031 68.0983 302.882 70.1821 302.701C73.3234 302.421 74.908 300.819 76.6212 298.724C82.2222 291.905 87.919 285.161 93.52 278.341C94.8984 276.668 95.9341 275.205 98.2241 277.36C99.9914 279.024 101.93 278.405 103.427 276.598C105.333 274.283 107.181 271.926 109.097 269.612C111.088 267.222 112.547 264.311 115.92 263.313C116.736 263.07 117.34 261.963 117.956 261.187C125.006 252.337 132.028 243.456 139.097 234.617C145.228 226.947 151.464 219.353 157.557 211.65C158.874 209.993 160.29 209.403 162.295 209.899C164.073 210.342 165.861 210.775 167.667 211.06C170.1 211.44 172.67 213.07 174.76 210.005C175.362 209.118 176.966 209.611 178.126 209.638C183.707 209.779 188.975 211.194 194.044 213.449C197.13 214.818 200.292 215.741 203.714 215.468C209.278 215.026 213.272 211.59 214.421 206.247C213.298 205.752 213.074 206.681 212.685 207.349C209.145 213.506 204.134 215.822 197.574 213.201C190.68 210.451 183.782 208.311 176.333 208.243C176.163 208.243 175.93 208.3 175.844 208.215C171.811 204.146 167.259 207.37 162.938 207.262C162.778 207.252 162.633 207.154 162.172 206.987C162.436 205.189 163.664 203.858 164.722 202.546C178.457 185.607 191.992 168.497 206.082 151.858C218.032 137.752 229.627 123.374 241.395 109.126C244.496 105.368 244.721 105.281 248.652 107.981C250.705 109.392 252.669 110.947 254.665 112.454C255.328 112.953 255.912 113.588 256.633 113.95C258.366 114.811 259.856 114.336 261.044 112.841C262.329 111.222 262.104 109.727 260.563 108.487C257.058 105.681 253.511 102.912 249.952 100.183C246.633 97.6384 246.383 97.4537 249.023 94.5806C256.889 85.9983 261.815 75.5841 267.622 65.7114C268.044 64.9944 268.446 64.2663 268.81 63.516C269.902 61.255 271.371 61.2995 273.227 62.6483C274.419 63.5182 275.432 64.7183 276.999 64.9788L277.255 64.7131C276.874 64.1904 276.602 63.5336 276.113 63.1549C268.254 57.1536 260.373 51.201 252.505 45.2091C251.334 44.3204 250.071 43.4664 249.143 42.3513C248.243 41.2778 248.993 40.6098 250.189 40.3681C251.8 40.0501 252.779 41.8393 254.356 41.5795L254.344 41.4485ZM244.268 92.9548L244.323 93.0481C242.839 90.6289 239.564 90.9813 237.534 88.8312C242.537 82.6484 247.414 76.5785 252.329 70.5508C254.009 68.494 255.815 66.5345 257.496 64.4776C259.058 62.5742 261.179 61.7447 263.431 61.083C263.409 60.5909 263.566 60.2994 264.128 60.452C264.851 60.2532 265.548 60.3133 266.218 60.6824C266.921 60.3122 266.937 58.8106 268.213 59.435C268.388 59.5252 268.519 60.0335 268.436 60.2591C267.974 61.5046 267.05 61.2011 266.138 60.8581C267.317 62.6488 266.715 64.2368 265.708 65.8917C262.829 70.6742 260.075 75.5341 257.447 80.4713C254.595 85.8163 250.564 90.4323 245.747 94.2419L245.832 94.1466C245.217 93.8708 244.569 93.6432 244.268 92.9548ZM57.4998 309.514C57.3697 311.079 56.5395 312.103 54.7595 312.922C55.2745 311.109 56.3822 310.311 57.5757 309.588C58.0215 308.282 58.7447 307.201 60.5596 306.124C59.6395 308.014 59.0109 309.19 57.4998 309.514ZM4.81069 375.877C4.97306 374.273 5.66921 373.141 7.58295 373.131C6.63044 374.018 5.67795 374.905 4.72544 375.792C4.18269 377.042 3.53471 378.207 1.64971 379.11C2.59632 377.282 3.18727 376.064 4.81069 375.877ZM-127.956 597.095C-129.562 595.23 -128.758 593.103 -128.63 591.047C-130.597 586.416 -128.589 581.623 -129.2 576.931C-129.257 576.527 -128.946 575.823 -128.606 575.653C-126.256 574.506 -126.92 572.304 -126.723 570.442C-126.192 565.394 -125.731 560.342 -123.784 555.576L-123.89 555.68C-123.581 551.862 -123.232 548.066 -121.194 544.677L-121.262 544.813C-121.041 542.893 -121.196 540.891 -119.899 539.233C-119.735 538.13 -119.206 537.289 -118.158 536.829C-114.244 530.783 -111.913 524.046 -109.573 517.32C-110.925 517.312 -110.79 518.962 -111.812 519.324L-111.705 519.2C-112.668 522.37 -113.945 525.402 -116.023 528.097C-115.86 526.313 -114.282 524.651 -114.831 523.047C-115.961 519.707 -114.172 517.506 -112.513 515.137C-111.986 512.603 -109.991 510.825 -109.037 508.516C-107.468 505.972 -105.909 503.427 -104.312 500.905C-103.077 498.942 -101.956 496.863 -99.6367 495.905C-98.9828 494.29 -98.3295 492.685 -97.6757 491.07C-96.6582 489.576 -95.499 488.23 -93.9323 487.288C-93.5192 486.551 -93.0968 485.824 -92.6837 485.086C-90.777 483.283 -89.9402 480.056 -86.4412 480.347C-86.0539 479.708 -85.6565 479.07 -85.2692 478.431C-83.8792 477.079 -82.4892 475.727 -81.1092 474.374C-78.2023 473.119 -77.077 470.098 -74.8909 468.141C-72.2303 465.77 -70.9369 461.917 -67.0602 460.868L-67.0737 460.928C-68.0136 458.81 -65.8605 458.123 -65.1412 456.762C-66.6648 453.299 -66.2321 452.743 -62.0949 452.91C-61.6778 452.624 -61.2606 452.337 -60.8335 452.052C-60.0032 450.677 -59.6365 449.005 -58.2167 448.005C-56.3226 445.029 -55.296 441.462 -52.2923 439.221C-51.5074 438.635 -51.7838 437.868 -51.9751 437.016C-52.3177 435.483 -51.1301 435.211 -50.2127 435.805C-47.9906 437.225 -45.9115 438.867 -43.8212 440.49C-43.0348 441.096 -43.1629 441.93 -43.7362 442.668C-45.3573 444.728 -46.8377 446.957 -49.512 447.825C-48.9431 450.472 -51.0937 451.29 -52.6747 452.481C-53.8275 453.366 -55.2085 453.868 -56.1712 455.104C-60.411 460.55 -64.7654 465.899 -69.0822 471.289C-69.1107 476.136 -72.6155 478.208 -76.2155 480.194C-76.5207 481.669 -77.3684 482.823 -78.4094 483.854C-78.1821 484.779 -78.6687 485.402 -79.2828 485.978C-80.5681 487.426 -81.4212 489.371 -83.5828 489.857C-84.1067 491.129 -84.4661 492.501 -85.63 493.405C-87.1763 495.56 -88.3582 497.996 -90.6411 499.548C-91.2732 501.134 -92.5732 502.141 -93.768 503.234C-94.1749 504.212 -94.5718 505.191 -94.9792 506.179C-95.8999 508.08 -96.3609 510.347 -98.8228 511.007C-99.7324 512.887 -100.642 514.768 -101.542 516.66C-101.905 518.612 -102.599 520.405 -104.129 521.76C-105.096 523.246 -105.693 524.905 -106.171 526.6C-106.926 529.802 -108.014 532.865 -109.972 535.557C-111.931 538.629 -112.21 542.249 -113.235 545.626C-113.682 547.824 -113.278 550.201 -114.675 552.194L-114.597 552.058C-114.901 554.034 -115.106 556.026 -115.528 557.975C-118.128 570.085 -118.652 582.315 -117.81 594.664C-117.627 596.718 -117.435 598.772 -117.263 600.836C-116.836 601.932 -116.508 603.023 -117.539 604.065C-117.416 602.96 -117.291 601.846 -117.168 600.741C-118.82 598.813 -117.975 596.658 -117.743 594.548C-119.639 593.377 -117.93 591.001 -119.32 589.569C-120.387 590.539 -120.117 591.757 -120.047 592.803C-119.204 604.28 -117.097 615.529 -113.572 626.5C-113.359 627.163 -113.19 628.575 -112.253 628.129C-110.471 627.279 -110.698 628.789 -110.545 629.429C-110.227 630.699 -111.325 631.147 -112.273 631.433C-114.27 632.029 -116.218 630.715 -118.193 631.092C-121.576 631.739 -122.499 629.853 -122.722 626.775C-121.93 627.622 -121.287 628.29 -120.39 629.243C-120.678 626.412 -118.715 624.331 -119.62 621.605C-123.285 610.616 -124.403 599.223 -124.652 587.71C-124.67 586.977 -124.034 585.682 -125.515 585.486C-125.709 588.851 -125.898 592.135 -126.097 595.429C-125.226 598.745 -124.889 602.1 -125.134 605.501C-125.803 602.147 -126.874 598.83 -126.014 595.364C-127.502 594.257 -126.839 592.652 -126.908 591.246C-127.046 588.243 -127.184 585.24 -128.619 582.333C-128.658 585.265 -128.696 588.198 -128.746 591.15C-127.926 593.09 -128.558 595.198 -128.071 597.179C-127.804 598.286 -127.188 599.413 -128.182 600.498C-128.087 599.372 -128.022 598.233 -127.956 597.095ZM151.069 215.774C151.058 217.356 150.184 218.267 148.271 219.149C149.082 217.402 149.793 216.362 151.164 215.87C151.697 214.618 151.974 213.101 153.923 213.174C153.128 214.28 152.462 215.413 151.069 215.774ZM-12.492 396.837C-12.2743 395.317 -11.4669 394.342 -9.45524 393.326C-10.5733 395.175 -11.2477 396.278 -12.5678 396.763C-12.8878 398.147 -13.473 399.265 -15.4637 399.741C-14.5038 398.204 -13.908 397.076 -12.492 396.837ZM236.095 111.406C236.826 109.835 237.844 108.511 239.386 107.659C239.852 105.993 240.622 104.615 242.558 104.395C241.846 105.807 241.03 107.112 239.537 107.818C239.103 109.606 238.104 110.95 236.435 111.766C235.588 113.25 234.959 114.956 232.983 115.354C232.631 118.338 230.204 119.611 228.332 121.336C229.391 118.933 230.977 116.971 233.049 115.417C233.472 113.639 234.625 112.403 236.095 111.406ZM184.172 127.54C184.628 126.064 185.235 124.746 187.499 124.386C186.431 125.887 185.768 127.131 184.371 127.742C183.96 129.311 183.2 130.509 180.884 130.896C182.072 129.392 182.67 128.064 184.172 127.54ZM-11.4478 399.231C-10.3771 397.51 -9.24885 395.832 -7.37923 394.848C-6.85716 393.956 -6.34504 393.064 -5.82297 392.173C-4.58389 390.832 -3.82872 389.022 -1.99227 388.266L-2.12605 388.329C-1.72889 386.649 -0.507853 385.447 0.50642 384.183C6.9445 376.22 13.459 368.321 19.9641 360.412C22.8833 356.853 25.8307 353.327 28.92 349.598C30.262 350.647 31.5179 351.45 32.5404 352.481C33.677 353.618 32.9424 354.547 31.8781 355.287C31.4021 357.293 29.3867 358.199 28.5263 359.923C26.2011 363.255 23.3726 366.107 20.1466 368.556C18.5689 370.558 18.0594 373.494 15.1185 374.296C14.6557 374.68 14.1829 375.064 13.7195 375.458C12.7714 378.879 10.157 381.142 7.99524 383.723C5.94284 385.968 3.89987 388.225 1.84747 390.471C1.32829 392.704 -0.0304505 393.688 -2.3217 393.296L-2.42878 393.59C-1.16622 396.367 -4.42035 397.041 -4.95224 398.974C-5.70917 400.814 -7.56673 401.588 -8.81695 402.949C-9.6016 404.226 -10.3857 405.493 -11.1703 406.77C-14.8407 409.804 -16.9025 414.303 -20.6963 417.22C-22.074 419.054 -21.9284 418.962 -22.6092 417.911C-23.76 416.152 -22.8785 413.538 -25.0113 412.133C-26.1332 413.702 -25.4514 415.083 -25.0421 416.499C-24.5991 418.027 -23.6829 419.512 -24.3137 421.249C-26.3851 421.039 -27.5991 419.507 -29.0315 418.463C-35.9519 413.397 -35.9197 413.359 -30.0572 406.695C-27.2568 403.46 -25.2847 399.477 -21.4372 397.194C-20.4345 395.609 -18.4265 395.354 -17.2869 393.827C-14.3253 389.88 -11.181 386.065 -8.10417 382.205C-7.60759 381.583 -6.68576 381.055 -6.90534 380.171C-7.7412 376.767 -5.20986 375.25 -3.2797 373.388C-1.54226 370.523 0.0440677 367.499 3.74663 366.69C8.1145 361.282 12.5012 355.895 16.8214 350.445C17.4159 349.687 18.3272 349.169 17.4396 347.535C16.5149 345.849 18.4721 344.039 20.0241 343.527C21.7193 342.964 22.8603 344.892 24.0514 345.952C25.5852 347.323 24.0867 348.298 23.3204 349.256C19.5682 353.888 15.7677 358.487 12.0148 363.129C10.7854 364.651 9.11988 365.918 8.93533 368.081C12.1153 367.302 12.7189 363.601 15.4667 362.326C15.7827 361.012 16.529 360.054 18.1201 359.384C17.3191 360.77 16.8297 361.964 15.382 362.231C14.8591 365.226 12.366 366.776 10.49 368.741C9.77568 369.491 9.58253 368.148 9.01979 368.005C8.58785 368.201 8.02244 368.279 7.75333 368.604C-1.83337 380.282 -11.4012 391.982 -20.9503 403.703C-21.4357 404.306 -22.1343 404.957 -21.2105 405.962C-17.3446 404.752 -14.4996 401.96 -11.5174 399.398L-11.4478 399.231ZM-125.504 552.733C-125.736 550.496 -125.302 548.347 -124.59 546.245C-123.893 544.241 -123.59 542.095 -122.218 539.85C-122.049 542.645 -122.606 544.676 -124.626 546.173C-124.493 548.404 -124.202 550.654 -125.56 552.67C-126.063 554.964 -125.645 557.453 -127.009 559.568C-127.248 563.731 -127.488 567.894 -127.728 572.057C-128.505 569.548 -128.473 567.086 -128.193 564.648C-127.995 562.947 -128.751 560.95 -126.952 559.631C-126.549 557.32 -127.402 554.737 -125.504 552.733ZM103.799 270.299C103.316 270.331 102.807 270.482 102.363 270.356C101.694 270.157 101.328 269.545 101.266 268.881C101.217 268.347 101.665 268.042 102.185 268.052C102.846 268.06 103.54 268.19 103.727 268.942C103.841 269.399 103.701 269.912 103.693 270.393C104.898 270.702 105.179 268.775 106.486 269.201C106.306 270.252 105.652 270.996 104.829 271.38C103.87 271.845 104.349 270.49 103.799 270.299ZM-29.2205 426.796C-30.0709 429.041 -31.8337 430.432 -33.767 431.653C-34.4028 432.257 -35.0286 432.862 -35.6643 433.467C-36.3952 435.027 -37.3353 436.396 -38.9427 437.174C-40.0139 439.427 -41.437 440.136 -43.5568 438.331C-44.5597 437.482 -45.7021 436.796 -46.7367 435.975C-49.5912 433.707 -49.5806 433.698 -47.4875 430.222C-44.5624 426.214 -41.6379 422.215 -38.7128 418.206C-38.0306 415.751 -36.8222 414.769 -34.4616 416.568C-31.823 418.583 -29.0771 420.474 -26.4713 422.537C-24.9283 423.747 -25.9903 424.447 -27.2022 424.969C-27.8685 425.581 -28.5448 426.194 -29.2205 426.796ZM199.706 155.598C199.996 153.692 201.129 152.455 202.827 151.661C204.502 147.631 208.134 145.256 210.916 142.17C208.984 145.976 206.23 149.102 202.941 151.778C202.399 153.53 201.411 154.875 199.621 155.513C198.926 158.008 197.195 159.731 195.328 161.356C192.134 166.732 188.06 171.386 183.442 175.577C183.249 177.189 182.483 178.307 180.641 178.822C181.405 177.373 182.123 176.212 183.527 175.662C186.75 170.308 190.413 165.311 195.403 161.441C195.762 158.697 197.33 156.854 199.706 155.598ZM122.701 204.135C121.851 206.711 120.153 208.556 117.967 209.983C119.37 207.89 120.315 205.38 122.786 204.22C123.868 201.428 125.554 199.111 128.093 197.464C129.26 195.117 130.771 193.05 132.892 191.52C131.687 193.834 130.464 196.128 128.169 197.538C127.076 200.34 125.343 202.614 122.701 204.135ZM169.439 192.801C169.087 194.223 168.381 195.355 166.332 196.669C167.375 194.556 168.033 193.381 169.514 192.886C170.616 190.104 172.311 187.808 174.915 186.245C175.119 184.614 175.885 183.476 177.783 183.054C177.048 184.515 176.157 185.545 174.829 186.16C173.651 188.877 171.966 191.184 169.439 192.801ZM175.657 138.188C175.955 136.663 176.576 135.436 178.512 135.037C177.736 136.515 177.256 137.9 175.572 138.093C174.547 140.939 172.841 143.245 170.245 144.848C168.341 148.525 166.063 151.9 162.626 154.356C162.21 156.195 161.249 157.573 159.4 158.207C157.563 161.928 155.247 165.271 151.849 167.759C151.387 169.516 150.243 170.762 148.783 171.77C146.716 175.317 143.989 178.325 141.051 181.161C140.721 182.715 139.937 183.802 137.407 184.257C139.038 182.889 139.493 181.432 141.136 181.246C142.416 177.113 145.453 174.293 148.461 171.451C149.194 169.85 149.843 168.155 151.923 167.854C153.377 163.831 156.239 160.91 159.474 158.302C159.719 156.313 160.766 155.011 162.701 154.451C164.423 150.633 166.96 147.454 170.187 144.815C171.357 142.058 172.967 139.676 175.657 138.188ZM71.9279 287.506C72.1818 285.878 72.8407 284.524 74.4635 283.826C74.1126 285.398 73.2133 286.578 71.852 287.432C70.664 290.148 69.131 292.594 66.4505 294.092C66.7608 295.663 64.05 297.34 66.6386 298.831C68.5872 299.955 69.0736 297.769 70.2867 297.228C70.6054 297.086 70.8292 297.199 70.9996 297.72C70.7207 298.215 70.4649 298.831 70.0751 299.339C68.1087 301.83 67.1297 301.784 64.4838 299.548C62.3722 297.774 63.4094 296.462 64.8875 295.144C65.352 294.73 65.9771 294.486 66.5263 294.167C67.7525 291.483 69.0075 288.821 71.9279 287.506ZM37.0997 335.565C37.2221 333.959 38.0759 333.047 40.0961 332.232C39.0349 333.963 38.408 335.109 37.005 335.469C36.1897 338.497 34.331 340.684 31.6012 342.17C30.6788 345.492 28.2816 347.638 25.8267 349.741C27.4192 346.958 28.9259 344.099 31.6764 342.254C32.741 339.421 34.5232 337.17 37.0997 335.565ZM219.046 132.662C219.191 131.348 219.536 130.226 221.274 130.496C220.916 131.667 220.372 132.598 218.97 132.587C218.106 135.763 215.54 137.538 213.166 139.455C214.643 136.765 216.405 134.343 219.046 132.662ZM215.545 89.399C215.498 87.6133 216.578 86.774 218.567 85.456C217.638 87.6663 216.844 88.7525 215.46 89.3139C213.684 93.8895 209.682 96.5941 206.626 100.094C208.765 95.8201 211.744 92.2654 215.545 89.399ZM243.972 98.9678C239.508 99.4321 237.33 96.0313 234.685 93.4351C234.267 93.0305 234.54 92.4752 234.9 92.1353C235.112 91.9272 235.626 91.7063 235.75 91.8036C238.563 94.099 242.862 94.757 243.867 99.0618C245.952 99.2019 247.951 99.4471 247.685 102.337C252.894 102.847 255.976 106.74 259.523 109.849C260.305 110.535 259.979 111.328 259.292 111.949C257.97 113.155 258.302 111.401 257.806 111.133C254.736 109.483 252.296 106.969 249.444 105.022C248.432 104.333 247.665 103.557 247.802 102.223C245.662 102.15 243.781 101.771 243.972 98.9678ZM222.796 83.8463C223.867 83.5073 224.891 82.9552 226.009 83.891C228.14 85.6663 230.367 87.347 232.488 89.1418C232.688 89.3136 232.564 90.0877 232.361 90.4667C232.002 91.1472 231.1 91.3257 230.673 90.9205C228.129 88.4803 224.314 87.3994 222.912 83.7428C220.478 83.743 218.954 82.9041 219.41 79.8452C221.793 80.393 223 81.5142 222.796 83.8463ZM106.718 250.213C107.228 251.084 107.739 251.955 108.25 252.825C104.155 250.526 100.244 248.168 97.7774 244.039C99.1403 244.899 100.503 245.759 101.866 246.618C100.669 245.308 99.9989 243.556 98.3183 242.648C97.6284 242.278 96.7292 241.715 97.0516 240.812C97.4588 239.654 98.7585 240.219 99.6283 239.899C99.7038 235.977 103.011 236.818 105.206 236.263C105.648 234.686 102.464 235.184 103.773 233.316C104.865 231.756 105.775 229.855 108.264 230.479C108.575 229.415 106.4 228.749 107.984 227.328C114.461 231.918 120.936 236.547 127.221 241.857C124.95 243.209 124.061 240.904 122.562 241.198C122.505 242.708 125.239 243.576 123.434 245.536C121.863 247.248 120.511 249.154 119.025 250.951C118.035 252.146 117.079 252.402 115.672 251.269C113.345 249.402 110.881 247.658 108.336 246.109C105.239 244.218 103.199 240.865 99.5337 239.803C102.773 245.308 107.207 249.36 113.357 251.467C114.388 251.816 115.236 252.747 116.116 253.478C116.66 253.94 116.81 254.63 116.336 255.214C115.755 255.912 115.175 255.367 114.622 255.055C111.937 253.498 109.826 251.033 106.718 250.213ZM203.92 120.843C201.826 118.409 198.555 120.244 195.499 118.345C199.001 118.587 201.812 118.138 204.504 119.214C204.886 119.366 205.916 119.916 204.777 120.572C204.507 120.727 204.128 120.695 203.804 120.756C203.967 121.577 205.467 121.633 205.08 122.603C204.647 123.7 203.809 123.291 203.058 122.767C202.23 122.188 201.572 120.728 200.37 121.961C200.28 123.869 203.725 124.398 201.917 126.748C200.25 128.916 198.689 125.58 196.927 126.611C196.893 127.551 197.566 128.03 198.168 128.545C198.988 129.254 199.515 130.015 198.713 131.081C197.856 132.224 196.909 132.309 195.689 131.588C194.943 131.144 194.182 130.099 193.131 131.13C192.904 132.459 194.048 132.776 194.764 133.378C195.673 134.131 195.998 134.921 195.111 135.882C194.385 136.672 193.639 137.099 192.516 136.414C191.617 135.861 190.847 134.605 189.302 135.518C189.601 137.638 192.383 138.039 192.633 140.137C192.967 140.587 193.292 141.036 193.626 141.496C195.606 140.157 196.94 143.62 198.85 142.448C199.089 141.6 198.647 141.284 198.295 140.963C197.286 140.034 196.225 139.161 197.295 137.61C198.553 135.769 199.539 137.269 200.597 137.85C201.179 138.174 201.76 138.538 202.357 137.901C202.626 136.885 201.894 136.372 201.272 135.876C200.217 135.054 199.662 134.261 200.687 132.987C201.744 131.676 202.686 132.361 203.713 132.971C204.497 133.447 205.283 134.394 206.241 133.237C206.363 132.172 205.554 131.785 204.878 131.335C203.701 130.557 203.332 129.654 204.312 128.468C205.023 127.608 205.819 127.173 206.879 127.895C207.294 128.179 207.697 128.483 208.146 128.689C208.839 129.009 209.642 129.666 210.162 128.464C210.486 127.702 209.175 127.175 209.799 126.25C212.833 126.785 215.877 127.331 219.238 127.925C216.68 128.869 217.23 131.315 215.961 132.825C202.927 148.372 189.959 163.972 177.154 179.703C166.548 192.735 156.192 205.952 145.729 219.103C144.897 220.157 144.169 221.317 142.651 221.41C139.687 221.58 136.707 222.18 133.828 220.862C132.94 220.46 131.676 220.327 132.185 218.954C132.648 217.699 133.66 217.877 134.613 218.533C134.883 218.719 135.152 218.925 135.443 219.082C136.045 219.417 136.759 219.718 137.255 219.106C138.011 218.158 137.086 217.684 136.506 217.15C136.144 216.818 135.689 216.552 135.421 216.156C134.875 215.383 135.033 214.541 135.603 213.862C136.227 213.117 137.021 213.072 137.799 213.658C139.134 214.646 140.458 215.664 141.783 216.662C142.57 217.258 143.348 218.014 144.38 216.781C143.787 214.904 141.89 214.284 140.574 213.117C139.431 212.099 138.178 211.246 138.623 209.428C138.201 208.933 137.778 208.448 137.366 207.954C135.89 208.7 134.726 208.403 133.331 207.391C131.88 206.326 130.519 204.575 127.828 205.021C128.968 207.681 131.555 208.15 133.075 209.75C133.68 210.386 134.205 211.017 133.653 211.897C133.101 212.787 132.413 213.428 131.213 212.878C130.178 212.408 129.292 210.925 127.9 212.127C127.95 213.532 128.946 213.98 129.682 214.593C130.781 215.508 130.343 216.324 129.567 217.101C128.887 217.783 127.963 218 127.465 217.09C126.423 215.177 124.457 215.214 122.812 214.569C120.647 213.723 120.012 212.044 121.168 210.067C121.667 209.214 122.275 208.408 122.92 207.643C128.782 200.629 134.252 193.311 139.952 186.166C155.398 166.822 171.064 147.67 186.635 128.433C194.539 118.661 191.142 120.078 203.92 120.843ZM199.136 113.987C199.961 111.661 201.131 110.285 202.314 108.891C206.807 103.57 211.309 98.2603 215.677 92.8423C221.007 86.2175 218.886 86.1656 227.045 91.6433C227.315 91.8291 227.573 92.0443 227.832 92.2495C229.231 93.3517 229.596 94.4945 228.306 96.013C222.281 103.068 216.284 110.156 210.326 117.265C208.799 119.08 207.374 118.948 205.672 117.548C203.779 115.977 201.967 114.22 199.136 113.987ZM219.231 124.559C217.529 124.381 216.687 124.382 215.876 124.205C211.319 123.152 210.615 121.108 213.603 117.574C217.989 112.387 222.355 107.17 226.864 102.1C228.589 100.156 229.277 96.7299 232.03 96.4075C234.753 96.0834 236.196 99.3817 238.541 100.568C240.77 101.698 240.756 102.809 239.124 104.719C234.505 110.142 230.048 115.706 225.677 121.334C223.751 123.827 221.409 124.844 219.231 124.559ZM128.836 240.427C127.918 240.545 127.562 239.943 127.087 239.485C121.957 234.472 116.284 230.18 110.002 226.723C109.032 226.186 108.207 225.538 108.822 224.431C109.527 223.15 110.435 221.649 112.265 222.396C113.791 223.024 115.104 224.062 116.232 225.339C119.335 228.863 123.152 231.466 127.229 233.714C128.384 234.351 129.482 235.116 130.538 235.918C131.239 236.449 131.595 237.221 131.113 238.104C130.554 239.114 129.966 240.122 128.836 240.427ZM130.56 228.397C130.966 226.908 129.918 226.497 129.192 225.894C128.417 225.258 127.521 224.646 128.358 223.492C129.142 222.405 130.166 222.885 131.033 223.315C133.575 224.574 136.299 225.101 138.745 225.242C137.98 228.784 136.162 231.494 133.33 233.875C130.924 231.473 127.401 230.559 125.487 227.263C127.676 226.468 128.488 229.079 130.56 228.397ZM100.941 262.522C97.2507 261.899 95.1025 260.413 93.7284 257.659C92.7764 255.751 91.4324 254.041 90.3361 252.205C89.5963 250.961 90.2046 249.964 91.1996 249.21C92.1318 248.502 92.8756 249.326 93.2317 249.928C95.6521 253.994 98.8811 257.585 100.941 262.522ZM86.8998 282.157C85.669 282.137 85.0845 281.502 84.527 280.919C83.8473 280.199 84.0301 279.458 84.6229 278.731C86.0687 276.931 87.5244 275.132 88.8938 273.267C90.1547 271.547 91.3112 272.164 92.6237 273.201C94.0898 274.358 93.6906 275.376 92.6444 276.498C91.1719 278.066 89.7476 279.667 88.2563 281.214C87.8105 281.649 87.2131 281.935 86.8998 282.157ZM123.158 225.777C119.452 223.871 116.716 221.81 113.978 218.908C118.078 217.101 121.777 218.105 125.419 218.695C126.392 218.851 127.064 219.872 126.397 221.015C125.852 221.966 125.075 222.402 123.938 221.805C122.878 221.254 122.029 219.822 120.502 220.766C120.127 222.928 123.042 222.755 123.158 225.777ZM89.0568 263.47C91.5752 263.746 93.5368 265.341 95.6793 268.84C96.0913 269.515 96.8033 270.197 96.0955 271.007C95.3561 271.846 94.338 271.958 93.4329 271.325C91.421 269.907 89.4636 268.412 87.5063 266.917C86.7098 266.31 85.9051 265.673 86.5443 264.488C87.1049 263.448 87.9984 263.239 89.0568 263.47ZM217.289 80.6748C213.225 78.8884 210.21 75.5897 206.658 73.0815C206.109 72.6894 205.933 71.918 206.497 71.3494C207.029 70.8091 207.744 70.9203 208.311 71.3236C211.275 73.4373 214.259 75.5322 217.137 77.7512C217.942 78.3785 218.09 79.4588 217.289 80.6748ZM72.7642 300.476C72.4762 300.259 72.1788 300.031 71.8908 299.814C73.0536 297.187 75.0663 295.109 76.9908 292.996C78.9148 290.893 79.8426 287.651 83.5689 287.475C79.9636 291.815 76.3689 296.146 72.7642 300.476ZM20.0372 339.992C23.301 338.627 27.227 338.112 31.1531 338.468C29.6794 340.927 29.6936 341.028 26.7896 341.362C24.491 341.621 21.9291 342.625 20.0372 339.992ZM72.5061 280.067C72.0704 284.159 66.4241 291.416 62.5558 293.017C65.8693 288.7 69.1927 284.384 72.5061 280.067ZM78.816 276.073C80.4782 273.644 82.2543 271.152 83.8952 268.572C84.5235 267.577 85.0814 267.629 85.8608 268.185C86.7465 268.807 86.6529 269.562 86.0496 270.299C84.3687 272.356 82.6978 274.413 80.9598 276.417C80.4995 276.931 79.7943 277.001 78.816 276.073ZM42.0285 344.954C38.8655 345.262 35.702 345.581 32.1357 345.937C35.2685 341.8 37.6821 341.458 42.0285 344.954ZM40.5591 348.034C37.6556 352.885 35.6406 353.09 32.1369 348.701C35.0408 348.368 37.6703 347.407 40.5591 348.034ZM194.703 114.082C197.368 110.76 200.033 107.438 202.688 104.115C200.809 108.053 198.634 111.744 194.703 114.082ZM21.7542 333.129C21.5422 330.373 17.1086 329.787 18.3052 326.05C21.8889 327.307 22.72 329.749 21.7542 333.129ZM30.7329 334.978C27.801 335.971 25.722 336.242 23.2673 335.731C26.3907 332.455 26.3907 332.455 30.7329 334.978ZM13.9762 346.625C13.416 342.957 14.5419 341.319 17.1512 340.187C18.0554 343.274 16.4911 344.696 13.9762 346.625ZM-10.288 378.554C-11.7642 374.963 -10.2487 373.518 -7.91336 372.099C-6.6095 375.029 -8.52918 376.361 -10.288 378.554ZM-15.906 384.972C-17.3811 381.711 -15.4355 380.451 -13.7359 378.766C-12.935 381.907 -12.935 381.907 -15.906 384.972ZM-17.1931 419.875C-18.0233 417.243 -16.732 415.865 -15.1016 414.687C-14.976 414.594 -14.1815 415.06 -14.0607 415.398C-13.37 417.321 -14.8033 418.38 -15.911 419.528C-16.0923 419.718 -16.4816 419.696 -17.1931 419.875ZM-38.9505 410.5C-37.256 413.953 -39.3808 415.193 -41.1418 417.075C-42.3572 414 -41.1767 412.285 -38.9505 410.5ZM-34.102 404.398C-32.553 407.072 -33.6784 408.7 -35.4449 409.981C-36.4686 410.713 -36.8975 409.637 -36.9337 408.873C-37.0402 406.894 -35.6563 405.822 -34.102 404.398ZM-31.1207 403.418C-32.1726 400.984 -30.932 399.442 -29.1239 398.134C-28.9984 398.041 -28.4414 398.283 -28.3331 398.49C-27.1547 400.641 -28.7956 401.829 -30.0224 403.131C-30.1831 403.312 -30.5724 403.289 -31.1207 403.418ZM-41.049 442.793C-39.6667 445.927 -41.0976 447.468 -43.148 448.982C-43.9834 445.919 -43.9834 445.919 -41.049 442.793ZM-46.0121 448.798C-44.6065 451.873 -45.9215 453.491 -48.3542 455.033C-49.4372 452.096 -48.3472 450.386 -46.0121 448.798ZM-64.0417 444.094C-62.8754 447.326 -63.9837 449.006 -66.6807 450.443C-68.0607 447.269 -65.9548 446.007 -64.0417 444.094ZM-53.8374 462.07C-54.6556 458.707 -53.8106 456.903 -51.3407 455.583C-50.0234 458.453 -51.5059 460.021 -53.8374 462.07ZM-46.6745 424.449C-47.6175 421.34 -46.4447 419.585 -44.3536 417.712C-43.4255 420.73 -43.9044 422.786 -46.6745 424.449ZM-30.7581 432.106C-29.1817 434.13 -30.0163 435.404 -31.3942 436.547C-31.8882 436.949 -32.4788 437.466 -33.1242 437.018C-33.7019 436.615 -33.8363 435.816 -33.5822 435.229C-33.0611 434.007 -32.1733 433.027 -30.7581 432.106ZM-48.8317 424.686C-47.7926 427.69 -48.9377 429.488 -51.1739 431.272C-52.015 428.309 -51.3305 426.335 -48.8317 424.686ZM6.81709 352.844C7.35202 356.951 7.35145 356.961 4.08501 358.546C3.4048 356.093 4.71297 354.596 6.81709 352.844ZM26.4463 366.304C26.5652 369.285 25.7592 371.282 24.4318 371.547C24.1782 371.602 23.7076 371.425 23.5993 371.218C22.5116 369.232 24.1633 368.206 25.1852 366.982C25.3676 366.772 25.7128 366.692 26.4463 366.304ZM-26.333 398.024C-26.1018 394.181 -26.1018 394.181 -23.7734 391.49C-21.5862 394.561 -23.8459 395.884 -26.333 398.024ZM-1.94536 402.422C-3.26136 399.181 -1.35547 398.089 0.553792 396.416C1.57661 399.53 0.00211439 400.782 -1.94536 402.422ZM-9.60254 408.072C-9.27143 412.588 -9.27142 412.588 -12.5235 413.924C-13.5533 411.28 -11.4507 410.249 -9.60254 408.072ZM-35.348 437.021C-35.1387 440.869 -35.1387 440.869 -38.2224 442.064C-38.8667 439.683 -37.4084 438.535 -35.348 437.021ZM-24.5972 426C-23.9124 429.245 -25.0052 430.654 -27.3041 431.614C-28.6792 428.53 -26.8461 427.483 -24.5972 426ZM5.86477 390.111C6.16673 391.13 6.42042 391.595 6.41454 392.045C6.40077 393.677 5.52431 394.809 4.10178 395.508C3.91633 395.598 3.40696 395.398 3.27868 395.191C2.19311 393.515 3.60579 392.465 4.37414 391.297C4.61561 390.93 5.08865 390.717 5.86477 390.111ZM11.9391 346.167C13.5154 349.583 11.5257 350.741 9.712 352.319C8.56099 349.519 10.0671 348.063 11.9391 346.167ZM-56.2775 437.629C-56.8134 434.584 -56.8134 434.584 -53.8631 432.4C-53.2959 435.597 -53.2471 435.62 -56.2775 437.629ZM30.9841 360.555C31.7153 362.991 31.0697 364.637 29.3067 365.857C28.8373 366.181 28.4005 365.765 28.2883 365.278C27.7792 362.985 29.1095 361.799 30.9841 360.555ZM99.3988 250.503C101.5 252.106 103.602 253.71 105.703 255.313C102.536 255.171 100.508 253.512 99.3988 250.503ZM20.5315 372.484C22.262 375.659 20.264 376.786 18.3347 378.458C17.1735 375.486 18.829 374.219 20.5315 372.484ZM-5.76424 372.003C-5.88159 367.949 -5.90099 367.938 -2.97743 366.394C-2.35598 368.823 -3.37979 370.427 -5.76424 372.003ZM-0.267103 365.247C-1.08349 362.376 -0.13071 360.788 1.4649 359.517C1.90604 359.162 2.32886 359.647 2.45046 360.145C3.03119 362.412 1.7927 363.743 -0.267103 365.247ZM10.5945 384.333C11.4952 387.48 10.4865 388.994 8.23487 390.177C7.13284 387.569 8.24077 386.07 10.5945 384.333ZM-18.3735 384.509C-17.2212 387.811 -18.4572 389.272 -20.4971 390.777C-21.5592 388.172 -20.0987 386.814 -18.3735 384.509ZM46.8569 350.69C46.337 350.5 45.8923 350.394 45.5039 350.182C44.5625 349.657 43.1623 349.446 43.5754 347.837C43.7437 347.176 44.2842 346.486 44.8997 346.581C46.3005 346.782 47.2629 347.639 47.2232 349.199C47.2068 349.659 47.0001 350.118 46.8569 350.69ZM49.3855 350.265C50.1944 350.482 50.7341 350.503 51.1102 350.755C52.0553 351.39 53.099 352.051 52.7174 353.462C52.5894 353.945 52.1988 354.293 51.6391 354.271C50.3002 354.214 49.5868 353.382 49.2852 352.182C49.1901 351.746 49.3292 351.243 49.3855 350.265ZM13.7493 383.643C13.5554 380.747 13.5554 380.747 15.9687 378.842C16.2554 381.694 16.2554 381.694 13.7493 383.643ZM140.892 227.609C141.129 227.843 141.367 228.067 141.594 228.3C140.02 230.243 138.446 232.176 136.872 234.119C137.509 231.401 139.307 229.581 140.892 227.609ZM-61.0575 443.585C-61.1994 441.002 -60.4354 438.692 -59.3319 438.315C-59.0972 438.238 -58.5843 438.378 -58.5048 438.563C-57.5532 440.651 -58.9503 441.953 -60.1888 443.284C-60.285 443.389 -60.4852 443.387 -61.0575 443.585ZM33.8931 359.61C33.0275 357.768 33.4554 356.25 35.1628 355.126C35.3817 354.978 36.2259 355.277 36.3595 355.565C37.2293 357.509 35.7896 358.508 34.5578 359.548C34.4622 359.643 34.2448 359.591 33.8931 359.61ZM-6.79266 407.633C-7.83572 405.219 -6.43209 403.977 -4.98371 402.828C-4.56369 402.492 -4.03527 402.883 -3.90483 403.401C-3.41669 405.363 -4.71188 406.46 -6.00533 407.528C-6.1209 407.621 -6.32883 407.579 -6.79266 407.633ZM74.0572 292.627C75.3384 290.727 76.0542 288.385 78.3625 287.436C77.4463 289.607 76.2238 291.53 74.0572 292.627ZM80.5471 284.286C80.8136 283.31 81.3428 282.469 82.3795 282.208C83.2841 281.979 84.1738 282.531 84.3199 283.301C84.641 285.032 83.0434 284.77 82.0754 285.055C81.4233 285.248 80.8018 285.082 80.5471 284.286ZM106.339 260.789C107.894 260.588 108.905 261.117 109.128 262.642C109.172 262.915 108.522 263.589 108.233 263.562C106.639 263.41 106.294 262.269 106.339 260.789ZM108.161 258.369C110.632 259.303 111.965 259.991 113.416 261.927C110.872 261.4 109.799 260.377 108.161 258.369ZM122.529 216.696C120.355 217.232 118.833 217.044 117.321 216.336C118.84 216.223 120.361 215.029 122.529 216.696ZM196.504 116.38C198.532 116.466 199.705 115.061 201.147 117.148C199.586 117.298 198.467 117.595 196.504 116.38ZM140.804 223.046C138.558 223.969 138.558 223.969 136.101 223.146C137.927 223.101 139.36 223.073 140.804 223.046ZM-123.74 612.603C-123.16 614.54 -122.608 615.904 -122.923 617.909C-123.892 616.12 -124.711 614.851 -123.74 612.603ZM87.5495 257.113C87.5324 257.934 86.9707 258.122 86.2753 258.022C85.6192 257.934 84.923 257.673 85.0189 256.878C85.0979 256.201 85.7208 255.646 86.3586 255.703C86.987 255.749 87.3907 256.393 87.5495 257.113ZM114.701 257.874C113.094 257.081 111.796 256.826 112.041 255.187C112.947 255.79 114.123 256.068 114.701 257.874ZM-22.8933 424.415C-22.7935 423.9 -22.5604 423.503 -21.974 423.757C-21.3583 424.023 -20.8521 424.453 -21.0666 425.222C-21.2046 425.704 -21.5781 426.104 -22.1115 425.973C-22.9221 425.786 -22.9013 425.076 -22.8933 424.415ZM-80.4476 471.056C-80.5835 471.329 -80.6435 471.676 -80.8307 471.795C-81.2672 472.071 -81.4162 473.094 -82.2697 472.434C-81.7755 471.851 -81.4953 470.986 -80.4476 471.056ZM156.964 208.37C157.677 206.949 158.159 206.065 159.457 205.609C159.259 207.14 158.573 207.732 156.964 208.37ZM105.335 225.323C105.377 226.337 105.303 227.624 103.728 226.973C104.292 226.394 104.813 225.863 105.335 225.323ZM91.503 244.98C92.2567 245.635 93.6632 245.736 93.5876 247.224C92.1888 247.163 91.5541 246.356 91.503 244.98ZM82.0659 257.89C81.4532 258.616 81.3992 260.075 79.7514 259.99C80.2648 258.728 80.7629 257.905 82.0659 257.89ZM49.2735 319.658C49.945 320.348 49.3467 320.824 48.9526 321.232C48.4951 321.697 48.2292 322.663 47.1845 322.192C47.4859 320.957 48.2883 320.242 49.2735 319.658ZM77.0422 278.525C77.106 277.938 77.3326 277.831 77.6893 278.072C77.9303 278.236 78.1989 278.441 78.2944 278.697C78.3468 278.831 78.0412 279.093 77.8988 279.306C77.5754 279.007 77.2521 278.707 77.0422 278.525ZM-127.293 607.15C-127.397 606.874 -127.601 606.591 -127.567 606.343C-127.489 605.867 -127.762 604.859 -127.075 605.109C-126.624 605.275 -126.703 606.483 -127.293 607.15ZM210.609 125.044C209.976 124.918 209.317 124.7 209.185 124.031C209.069 123.443 209.658 123.297 210.058 123.48C210.605 123.732 211.296 124.072 211.489 124.554C211.707 125.107 211.002 125.017 210.609 125.044ZM264.242 58.4753L264.583 58.6451L264.225 58.7748L264.242 58.4753Z" fill="#FAFAFA"/>
<path d="M263.154 47.7847C262.856 47.3969 262.646 46.864 262.249 46.6308C258.778 44.6281 257.075 41.8557 257.665 37.6827C257.973 35.4667 256.871 33.38 255.338 31.8293C252.459 28.9392 251.209 25.5919 251.974 21.1885C250.159 23.4781 249.974 24.2487 250.53 26.4243C251.088 28.5698 252.362 30.2858 253.747 31.9682C255.61 34.229 256.471 36.8527 256.352 39.8007C256.302 41.1902 255.353 41.3159 254.344 41.4481L254.29 41.5151C256.513 44.4877 259.686 46.2629 262.675 48.288C262.835 48.1169 262.995 47.9458 263.154 47.7847Z" fill="#FAFAFA"/>
<path d="M214.759 195.84C216.051 195.854 216.72 195.882 217.383 195.85C219.441 195.768 221.037 194.839 221.259 192.728C221.495 190.548 219.862 189.502 218.001 188.944C216.209 188.401 214.388 188.546 212.574 188.903C210.973 189.221 209.725 190.031 209.585 191.766C209.447 193.461 210.494 194.593 211.993 195.17C213.071 195.582 214.245 195.72 214.759 195.84ZM215.131 194.248C214.313 193.32 211.943 193.955 212.107 191.971C212.237 190.416 214.111 190.744 215.347 190.685C215.989 190.652 216.657 190.72 217.28 190.856C218.24 191.062 219.284 191.362 219.151 192.627C219.054 193.613 218.087 193.717 217.315 193.893C216.696 194.038 216.051 194.101 215.131 194.248Z" fill="#FAFAFA"/>
<path d="M217.232 203.695C220.849 202.12 221.522 201.047 220.639 198.982C219.676 196.743 217.79 196.264 215.318 197.625C214.325 198.168 213.679 199.303 212.41 199.41C210.884 199.132 212.234 196.556 209.853 196.689C208.725 198.347 209.372 200.347 209.494 202.228C209.561 203.323 210.551 203.36 211.39 203.038C212.978 202.428 214.112 201.171 215.404 200.124C216.276 199.423 217.261 198.317 218.435 199.326C219.761 200.475 218.5 201.333 217.788 202.214C217.583 202.473 217.542 202.831 217.232 203.695Z" fill="#FAFAFA"/>
<path d="M276.934 64.9047C278.25 67.094 279.903 67.4395 281.684 65.5487C283.328 63.8002 282.576 62.2345 280.926 60.9676C275.075 56.464 269.506 51.5961 263.154 47.7849C262.994 47.956 262.834 48.1271 262.664 48.2976C263.888 50.171 265.876 51.1468 267.574 52.4465C271.402 55.3712 275.262 58.2677 279.069 61.2113C279.971 61.9042 281.145 62.7331 280.629 64.0456C279.904 65.8569 278.403 64.7789 277.179 64.6384L276.934 64.9047Z" fill="#FAFAFA"/>
<path d="M66.7958 226.29C67.7419 224.992 66.8739 224.412 66.695 223.69C66.5327 223.03 66.5835 222.321 67.169 221.894C68.0361 221.273 68.648 221.779 69.2085 222.482C69.5638 222.924 69.587 224.087 70.4666 223.597C76.4602 220.225 71.0441 226.094 73.7838 226.352C74.6487 226.291 75.6501 225.077 75.6326 223.293C75.6125 221.379 74.2905 220.331 72.4008 220.272C71.231 220.235 70.1602 220.043 69.0522 219.629C67.2286 218.943 65.761 219.73 64.9545 221.386C63.987 223.404 64.2253 225.181 66.7958 226.29Z" fill="#FAFAFA"/>
<path d="M230.971 32.4707C233.627 32.0926 234.328 30.6906 233.855 28.6401C233.43 26.8126 231.302 25.6685 229.555 26.4394C227.91 27.1661 226.453 28.2943 224.906 29.247C223.081 28.9316 224.794 26.6663 222.913 26.0973C221.849 28.0594 222.535 30.0621 222.145 31.9729C224.773 32.4346 226.028 30.9843 227.423 29.8926C228.567 28.9869 229.676 27.4581 231.276 28.3915C233.078 29.4368 230.94 30.9064 230.971 32.4707Z" fill="#FAFAFA"/>
<path d="M148.925 94.8009C151.953 92.481 152.403 91.0946 151.089 89.3863C149.709 87.6041 148.017 87.9475 144.166 90.811C143.007 90.7643 143.434 89.6069 143.026 89.0426C142.581 88.416 141.914 88.1772 141.529 88.9464C140.828 90.3384 140.989 91.8803 141.367 93.3243C141.638 94.3616 142.571 94.3352 143.39 94.0317C144.69 93.5356 145.401 92.3344 146.344 91.4271C147.172 90.6233 148.064 89.5728 149.316 90.4362C150.79 91.4525 149.623 92.4171 149.017 93.3639C148.886 93.5666 148.976 93.9124 148.925 94.8009Z" fill="#FAFAFA"/>
<path d="M230.997 38.6324C230.631 39.2424 230.403 39.9004 231.366 40.0459C231.773 40.1094 232.379 39.8438 232.668 39.5299C234.209 37.8155 233.635 35.4386 231.344 34.8561C229.321 34.339 227.186 34.1761 225.113 33.8265C222.514 33.3864 220.914 36.129 222.067 38.5393C222.461 39.3533 223.182 40.0558 224.004 39.7024C225.36 39.1094 223.955 38.4676 223.8 37.8477C223.628 37.1867 223.454 36.5457 224.093 36.0616C224.857 35.4845 225.947 35.5272 226.36 36.172C227.445 37.8571 228.225 37.5314 229.866 36.7042C231.424 35.9024 231.601 37.365 230.997 38.6324Z" fill="#FAFAFA"/>
<path d="M249.265 16.0346C250.103 15.0511 249.379 14.5787 249.161 14.0152C248.762 12.9405 248.916 12.0078 250.035 11.5413C250.938 11.1626 251.636 11.5634 252.025 12.4572C252.3 13.084 252.71 13.7787 253.434 13.3897C254.416 12.8652 255.35 11.5968 256.269 13.2022C256.806 14.1446 255.381 14.894 255.328 16.153C257.283 16.2956 258.1 15.3309 258.197 13.6537C258.284 12.1362 257.466 11.0274 256.055 10.6557C254.624 10.2829 253.099 10.3254 251.643 10.0513C249.819 9.71594 248.252 9.96634 247.465 11.8142C246.731 13.6049 247.198 15.0542 249.265 16.0346Z" fill="#FAFAFA"/>
<path d="M251.203 8.82389C253.981 8.4128 255.714 5.96833 258.912 4.70993C255.895 2.64325 253 3.3481 250.533 2.52504C250.209 2.41623 247.814 2.95954 249.712 4.6213C250.884 5.65037 249.529 7.61577 251.203 8.82389ZM252.032 5.55612C252.367 4.94439 252.902 4.70471 253.542 4.90178C253.699 4.95091 253.88 5.46214 253.799 5.64781C253.533 6.27354 252.987 6.5426 252.33 6.28448C252.174 6.21538 252.137 5.8126 252.032 5.55612Z" fill="#FAFAFA"/>
<path d="M75.9711 214.628C71.563 212.902 68.6298 212.873 65.7327 214.48C67.7171 216.026 71.3892 213.834 72.321 217.483C74.1824 217.34 75.1527 216.144 75.9711 214.628Z" fill="#FAFAFA"/>
<path d="M142.416 82.2362C144.386 84.3729 147.605 82.2243 149.101 85.125C149.461 85.8368 151.055 84.416 151.513 83.4207C152.028 82.2985 151.03 82.0707 150.214 81.9637C147.68 81.6176 145.178 81.7541 142.416 82.2362Z" fill="#FAFAFA"/>
<path d="M162.25 92.3022C159.557 90.194 159.557 90.194 155.887 89.2116C156.229 90.7538 157.771 90.4118 158.71 90.9867C159.803 91.6606 160.872 92.5735 162.336 92.207C162.325 92.2164 162.25 92.3022 162.25 92.3022Z" fill="#FAFAFA"/>
<path d="M192.633 140.137C190.807 141.394 189.179 141.671 187.349 139.883C186.126 138.68 184.749 137.359 182.33 137.1C182.67 139.724 185.014 140.069 186.159 141.407C186.928 142.312 188.881 142.665 187.847 144.459C186.767 146.33 185.452 145.693 184.141 144.616C183.625 144.186 183.009 143.92 182.291 144.39C181.493 145.736 182.942 145.97 183.507 146.583C184.187 147.303 185.17 147.811 184.22 148.998C183.431 149.994 182.651 150.671 181.3 149.782C180.528 149.276 179.797 148.393 178.629 148.847C177.771 150.179 179.094 150.516 179.732 151.094C180.369 151.681 181.086 152.283 180.545 153.154C180.027 153.975 179.273 154.713 178.071 154.374C177.016 154.073 176.25 152.766 174.917 153.471C174.699 154.48 175.342 154.978 176.002 155.517C176.786 156.163 177.567 156.859 176.691 157.98C175.859 159.044 174.908 159.38 173.696 158.509C173.042 158.041 172.364 157.461 171.431 158.018C170.863 159.358 172.097 159.659 172.776 160.219C173.81 161.06 173.703 161.875 172.873 162.719C172.149 163.458 171.396 164.016 170.29 163.221C168.578 161.981 167.078 160.382 164.682 159.543C164.182 161.447 165.555 161.947 166.463 162.701C167.362 163.443 168.283 164.157 169.139 164.938C169.824 165.568 170.032 166.302 169.316 167.092C168.738 167.73 168.166 168.268 167.195 167.921C166.204 167.564 165.577 166.085 164.198 166.907C163.679 168.27 164.891 168.61 165.524 169.277C166.147 169.934 166.51 170.596 165.92 171.454C165.296 172.369 164.506 172.865 163.392 172.38C162.376 171.941 161.559 170.812 160.217 171.516C159.963 172.784 161.013 173.165 161.74 173.758C162.401 174.286 163.11 174.848 162.465 175.782C161.897 176.601 161.179 177.421 160.023 176.974C158.993 176.584 158.229 175.429 156.889 175.902C156.008 176.943 156.986 177.36 157.56 177.824C158.479 178.568 159.528 179.129 158.512 180.603C157.353 182.29 156.309 181.458 155.194 180.643C154.656 180.241 154.084 179.908 153.132 180.103C152.455 181.767 154.125 182.154 154.901 182.95C155.629 183.703 155.6 184.372 154.977 185.118C154.309 185.921 153.599 186.611 152.471 185.845C150.495 184.499 148.819 182.64 145.973 181.785C146.141 184.439 148.211 184.839 149.367 185.997C150.323 186.953 152.348 187.461 151.202 189.438C150.002 191.503 148.73 190.107 147.501 189.345C147.231 189.179 146.883 189.129 146.555 189.081C146.416 189.062 146.26 189.164 146.076 189.223C145.02 190.515 146.397 190.955 147.028 191.482C148.088 192.374 148.493 193.169 147.511 194.394C146.518 195.639 145.594 195.346 144.528 194.543C143.895 194.056 143.302 193.391 142.148 193.605C141.499 194.96 142.655 195.587 143.457 196.264C144.183 196.877 144.586 197.541 144.037 198.381C143.476 199.25 142.742 199.819 141.539 199.309C140.552 198.892 139.785 197.596 138.416 198.398C137.936 199.433 138.764 199.851 139.367 200.326C140.317 201.062 141.34 201.732 140.337 203.137C139.476 204.349 138.457 204.3 137.33 203.524C136.791 203.153 136.221 202.78 135.146 203.178C134.883 205.137 138.284 205.743 137.335 207.962C137.757 208.457 138.18 208.942 138.593 209.437C140.887 206.994 142.231 211.129 144.361 210.32C145.065 208.707 143.54 208.399 142.862 207.649C142.278 207.014 141.683 206.389 142.255 205.501C142.817 204.601 143.571 204.044 144.747 204.492C145.776 204.882 146.558 206.089 148.139 205.418C148.598 204.053 147.247 203.684 146.536 202.982C145.675 202.121 145.726 201.233 146.448 200.343C147.084 199.558 147.841 199.632 148.669 200.04C149.633 200.516 150.375 201.731 151.729 201.007C152.211 199.402 150.674 199.144 149.998 198.354C149.388 197.637 149.215 196.986 149.794 196.148C150.505 195.107 151.241 195.04 152.307 195.662C153.207 196.194 153.953 197.509 155.335 196.637C155.87 195.015 154.353 194.738 153.624 193.995C152.934 193.294 152.731 192.641 153.349 191.825C154 190.951 154.764 190.374 155.854 191.108C157.088 191.95 158.288 192.851 159.5 193.722C160.269 194.277 160.925 195.236 162.271 194.302C161.824 192.143 159.728 191.501 158.358 190.24C157.368 189.332 156.091 188.547 157.253 186.992C158.263 185.627 159.25 186.405 160.22 187.132C160.901 187.642 161.631 188.025 162.458 187.401C162.446 187.09 162.516 186.743 162.391 186.476C161.825 185.161 159.041 184.64 160.877 182.502C162.562 180.536 163.803 182.991 165.29 183.097C165.43 183.105 165.576 183.003 165.739 182.942C166.725 181.647 165.367 181.238 164.76 180.632C164.012 179.888 163.305 179.287 164.182 178.155C165.091 176.975 166.004 176.948 167.136 177.814C167.769 178.301 168.371 178.977 169.432 178.657C170.298 177.185 168.769 176.776 168.121 176.018C167.539 175.333 167.147 174.66 167.687 173.809C168.315 172.824 169.159 172.602 170.23 173.144C171.076 173.574 171.795 174.486 172.998 173.945C173.722 172.674 172.502 172.303 171.853 171.745C170.994 171.005 170.545 170.268 171.347 169.222C172.203 168.099 173.071 167.979 174.328 168.762C176.203 169.942 177.576 172.024 180.27 172.39C180.421 170.445 179.111 169.889 178.163 169.133C177.254 168.4 176.3 167.744 175.39 167.01C174.472 166.266 174.331 165.407 175.108 164.44C175.862 163.522 176.623 163.345 177.652 164.096C178.411 164.65 179.1 165.551 180.513 165.021C180.911 163.672 179.544 163.233 178.908 162.455C178.299 161.719 178.15 161.009 178.697 160.209C179.353 159.255 180.169 158.992 181.259 159.545C182.213 160.031 182.939 161.335 184.329 160.503C184.815 159.199 183.694 158.834 182.986 158.262C182.173 157.595 181.468 156.963 182.275 155.807C183.116 154.604 184.085 154.479 185.251 155.268C186.032 155.793 186.739 156.565 187.752 156.193C188.413 154.638 187.19 154.297 186.524 153.688C185.639 152.876 185.487 152.046 186.213 151.096C186.938 150.146 187.717 150.021 188.757 150.751C189.508 151.275 190.182 152.256 191.386 151.704C192.103 150.734 191.312 150.207 190.719 149.712C189.669 148.821 188.52 148.073 189.951 146.533C191.351 145.011 192.247 146.325 193.354 146.929C194.8 147.724 195.732 149.29 197.433 149.678C197.69 149.733 198.025 149.472 198.589 149.244C197.678 147.328 195.964 146.298 194.351 145.264C192.699 144.207 192.688 143.004 193.595 141.524C193.302 141.037 192.967 140.587 192.633 140.137Z" fill="#FAFAFA"/>
<path d="M231.727 84.0896C233.923 84.3962 235.836 84.2258 236.245 81.4648C235.521 80.9824 234.788 80.4995 234.065 80.0171C232.974 81.0362 230.829 81.073 231.012 83.2872C231.246 83.5611 231.492 83.8256 231.727 84.0896Z" fill="#FAFAFA"/>
<path d="M245.748 94.2218C245.955 93.5826 245.993 92.9237 245.375 92.5275C244.892 92.2193 244.513 92.528 244.324 93.038L244.269 92.9447C244.787 93.3351 245.306 93.7255 245.824 94.1259L245.748 94.2218Z" fill="#FAFAFA"/>
<path d="M241.53 74.2264C241.983 72.2692 245.044 73.2066 245.294 70.4264C245.456 68.6628 244.963 68.0034 243.871 67.3095C242.363 66.3513 241.197 67.4662 240.587 68.5028C239.864 69.7434 239.694 71.3062 239.292 72.7254C239.692 73.079 240.102 73.4431 240.502 73.7967L240.368 73.6889C240.749 73.871 241.139 74.0537 241.53 74.2264Z" fill="#FAFAFA"/>
<path d="M238.167 74.5138C236.201 74.561 236.021 76.4738 235.029 77.5285C236.37 77.9062 237.861 78.0922 237.995 79.9529C238.512 79.6721 239.493 79.1477 239.484 79.1371C238.55 77.2604 240.721 76.9546 241.139 75.7867C240.142 75.3587 239.154 74.9413 238.167 74.5138Z" fill="#FAFAFA"/>
<path d="M251.746 59.6092C251.825 60.4953 252.368 60.9773 252.934 61.0699C254.511 61.3509 253.267 59.9872 253.737 59.4834C254.387 58.7896 253.561 58.1811 253.034 58.1108C251.891 57.9548 252.498 59.4221 251.746 59.6092Z" fill="#FAFAFA"/>
<path d="M238.167 74.5138C239.154 74.9413 240.152 75.3593 241.139 75.7867C241.271 75.2433 241.403 74.69 241.534 74.1466C240.953 74.4938 240.608 74.2236 240.358 73.6983L240.492 73.8062C239.8 73.4759 239.098 73.145 238.405 72.8147C238.333 73.3815 238.25 73.9477 238.167 74.5138Z" fill="#FAFAFA"/>
<path d="M122.676 241.305C118.348 236.969 113.51 233.315 108.151 230.353C108.361 231.927 110.677 232.581 109.927 234.642C109.607 235.505 110.393 236.131 111.045 236.629C111.822 237.235 112.631 237.792 113.43 238.359C117.691 241.419 117.691 241.419 122.676 241.305Z" fill="#FAFAFA"/>
<path d="M116.001 245.899C113.322 242.67 110.06 240.338 106.491 238.13C106.542 240.547 106.51 240.595 109.991 243.109C111.78 244.404 113.439 246.032 116.001 245.899Z" fill="#FAFAFA"/>
</g>
</g>
<defs>
<clipPath id="clip0">
<rect width="297" height="359" fill="white"/>
</clipPath>
<clipPath id="clip1">
<rect width="383.6" height="651.83" fill="white" transform="matrix(-0.998349 -0.0574439 -0.0574439 0.998349 286.005 4.55615)"/>
</clipPath>
</defs>
</svg>
