<svg width="297" height="359" viewBox="0 0 297 359" fill="none" xmlns="http://www.w3.org/2000/svg">
<g clip-path="url(#clip0)">
<path d="M247.842 181.235C248.895 175.894 252.2 173.371 256.994 172.613C260.596 172.034 263.864 171.103 265.043 167.06C265.071 166.948 265.12 166.843 265.189 166.751C265.258 166.659 265.345 166.581 265.445 166.523C265.544 166.465 265.654 166.428 265.769 166.414C265.883 166.4 265.999 166.409 266.11 166.441C266.875 166.623 266.66 167.276 266.546 167.741C266.169 169.025 265.476 170.194 264.531 171.142C263.586 172.089 262.418 172.784 261.135 173.164C258.927 173.931 256.62 174.425 254.358 175.064C251.951 175.747 249.405 179.347 249.495 181.786C249.616 182.542 250.02 183.224 250.627 183.693C253.259 186.461 255.271 189.758 256.53 193.364C257.524 196.786 257.749 200.386 257.189 203.906C256.792 207.239 255.219 209.983 253.486 212.67C252.789 213.743 252.974 214.133 253.952 214.748C261.238 219.395 268.473 224.104 275.749 228.767C283.854 233.959 291.971 239.137 300.099 244.3C306.039 248.101 311.988 251.835 317.873 255.754C319.52 256.841 320.271 256.286 321.02 254.81C321.43 254.018 321.529 252.612 322.811 252.864C323.853 253.048 324.117 254.195 324.517 255.099C325.877 258.177 328.312 260.618 329.627 263.736C329.961 264.54 330.504 264.634 331.111 263.783C332.336 262.066 334.414 260.648 335.051 258.878C335.794 256.74 337.377 257.091 338.562 256.434C342.991 254 348.059 252.977 353.086 253.502C350.431 248.891 351.707 244.98 354.593 241.135C356.662 238.382 357.815 235.248 356.448 231.724C356.28 231.282 355.683 230.732 356.473 230.377C357.263 230.021 357.729 230.574 358.019 231.264C359.584 234.933 358.658 238.225 356.499 241.325C355.205 243.2 353.867 245.104 353.471 247.412C352.803 250.862 354.559 253.546 357.835 254.729C361.801 256.134 365.252 258.701 367.739 262.095C368.852 263.615 369.375 266.137 371.115 266.447C372.854 266.756 374.363 264.74 375.942 263.701C397.62 249.437 419.298 235.173 441 220.976C442.879 219.74 443.067 218.889 441.749 217.135C439.998 214.816 440.221 214.455 443.005 214.097C446.55 213.648 450.099 213.238 453.652 212.835C454.317 212.756 455.115 212.569 455.545 213.238C455.975 213.907 455.44 214.556 455.105 215.135C453.273 218.388 451.322 221.555 449.514 224.813C448.691 226.379 447.946 226.429 446.88 225.042C444.658 222.163 444.629 222.182 441.499 224.241L410.504 244.635C408.082 246.229 407.619 248.264 408.991 250.924C410.112 253.094 412.038 254.294 414.141 255.235C416.59 256.32 418.602 258.199 419.852 260.569C420.483 261.621 420.803 262.83 420.775 264.057C420.795 264.289 420.731 264.521 420.595 264.711C420.458 264.9 420.258 265.034 420.031 265.089C419.916 265.106 419.799 265.096 419.688 265.061C419.578 265.025 419.477 264.964 419.394 264.883C419.311 264.802 419.247 264.703 419.209 264.593C419.171 264.483 419.158 264.366 419.173 264.251C419.06 259.769 415.769 257.88 412.427 256.178C408.91 254.397 406.737 251.731 406.421 247.844C405.67 247.652 405.312 248.133 404.897 248.406C394.444 255.284 383.984 262.167 373.531 269.045C373.035 269.278 372.64 269.683 372.419 270.184C372.197 270.685 372.164 271.249 372.326 271.773C374.086 282.306 369.774 291.236 360.455 296.118C353.554 299.727 346.254 299.759 339.344 295.777C337.59 294.761 336.517 294.904 334.929 295.959C320.502 305.544 306.008 315.04 291.536 324.572C290.855 325.073 290.288 325.713 289.872 326.45C289.456 327.187 289.201 328.003 289.124 328.845C289.046 329.687 289.148 330.536 289.423 331.336C289.697 332.136 290.138 332.869 290.716 333.487C292.765 335.589 295.494 336.64 297.904 338.187C300.315 339.734 301.241 342.185 301.707 344.899C301.801 345.431 301.775 346.093 301.096 346.181C300.417 346.27 300.13 345.568 300.099 345.117C299.794 341.09 296.841 339.449 293.81 337.676C288.846 334.799 288.389 334.618 287.029 327.804C286.367 327.779 285.944 328.272 285.487 328.573C272.669 337.007 259.85 345.441 247.004 353.832C245.489 354.829 245.176 355.629 246.394 356.967C246.632 357.267 246.843 357.587 247.024 357.925C248.225 359.827 248.093 360.109 245.781 360.391C243.141 360.705 240.508 361.045 237.857 361.295C236.573 361.413 235.932 361.824 236.165 363.268C237.02 368.613 235.463 373.466 232.914 378.072C229.518 384.207 219.307 389.073 212.282 388.371C203.849 387.521 197.807 383.285 193.82 376.028C192.3 373.555 191.492 370.711 191.483 367.809C191.557 365.805 190.794 364.443 188.861 363.309C180.637 358.482 172.529 353.364 164.365 348.394C160.321 345.936 158.216 346.502 155.762 350.553C154.622 352.43 153.852 354.513 152.553 356.32C151.101 358.299 149.094 359.138 146.816 359.613C146.054 359.777 145.298 359.671 145.217 358.833C145.137 357.995 145.887 358.014 146.532 357.968C149.613 357.702 151.391 355.845 152.572 353.144C153.754 350.442 155.04 347.558 157.854 345.921C158.913 345.306 158.513 344.884 157.645 344.359C151.01 340.36 144.409 336.318 137.801 332.281C137.002 331.783 136.188 331.386 135.475 330.832C132.466 328.655 132.422 328.602 130.534 331.554C129.454 333.227 128.744 332.988 127.788 331.456C126.009 328.613 124.097 325.848 122.255 323.047C121.643 322.118 121.247 321.764 119.958 322.295C115.915 323.931 111.81 324.912 107.335 324.273C101.701 323.595 96.5623 320.722 93.0341 316.278C87.4444 309.339 86.2507 301.565 89.4635 293.175C89.9067 291.794 90.6299 290.52 91.5879 289.432C93.3134 287.713 92.7443 286.102 91.7935 284.454C88.2041 278.205 84.4528 272.053 80.9967 265.727C79.6499 263.275 77.9127 261.04 76.8517 258.4C75.8843 255.965 71.107 255.894 68.7188 258.161C66.7242 260.047 66.0202 262.711 64.6332 264.945C63.9823 266.106 63.0834 267.11 62.0003 267.885C60.9173 268.659 59.6768 269.186 58.3672 269.426C57.6713 269.566 56.6499 269.788 56.4614 268.786C56.2729 267.784 57.2451 267.861 57.8957 267.76C61.3575 267.233 63.0142 264.74 64.2697 261.887C66.1432 257.655 68.8047 254.542 74.1657 254.956C74.1316 254.105 73.9115 253.271 73.521 252.513L59.6972 228.703C59.4104 228.267 59.2594 227.742 58.9894 227.285C58.4524 226.11 57.7662 225.01 56.9477 224.011C55.7073 222.779 54.7789 224.496 53.8324 224.893C51.5754 225.836 51.4819 224.822 51.4404 223.048C51.3509 219.8 51.0742 216.531 50.9373 213.273C50.8959 212.277 50.7057 211.941 49.5557 211.858C45.8306 211.679 42.2087 210.576 39.0165 208.647C35.8244 206.719 33.1625 204.026 31.2709 200.812C26.3182 192.88 27.1641 181.655 33.2562 174.934C34.6246 173.419 36.2217 172.143 37.4914 170.478C36.702 169.605 35.4931 169.448 34.6631 168.622C32.5007 166.472 32.7367 163.921 33.3902 161.382C34.0437 158.843 34.1016 156.706 31.5153 155.234C31.4104 155.186 31.3163 155.117 31.2385 155.032C31.1608 154.947 31.1011 154.847 31.063 154.738C31.0248 154.629 31.0091 154.514 31.0167 154.399C31.0243 154.284 31.0551 154.172 31.1072 154.069C31.4524 153.473 32.0348 153.674 32.5366 153.845C34.0329 154.345 35.7376 157.247 35.5203 159.049C35.3423 160.63 35.1264 162.216 34.811 163.775C34.3735 165.895 35.088 167.401 37.0737 168.163C38.6594 168.768 39.9687 169.186 42.0135 168.404C51.3602 164.854 60.7125 166.635 67.7333 174.66C73.4888 181.245 74.2093 188.828 71.8956 197.2C75.1062 195.855 78.1312 194.602 81.1352 193.301C83.0736 192.466 84.0268 192.935 83.768 194.938C83.5092 196.94 83.7891 197.739 86.1824 197.782C95.5728 197.972 104.959 198.451 114.344 198.818C132.207 199.514 150.067 200.206 167.924 200.892C182.237 201.437 196.548 201.931 210.852 202.554C212.474 202.623 212.628 202.142 212.475 200.789C212.241 198.828 212.435 196.839 213.042 194.959C213.422 193.685 212.462 192.832 212.521 191.616C213.392 191.913 213.982 191.627 214.573 190.44C218.61 182.306 225.203 177.855 234.336 177.436C238.283 177.183 242.219 178.078 245.667 180.014L247.842 181.235ZM297.669 246.739C297.294 246.378 296.897 246.041 296.482 245.728C292.436 243.189 288.361 240.7 284.32 238.137C273.401 231.158 262.498 224.152 251.611 217.118C250.763 216.561 250.393 216.528 249.561 217.116C247.695 218.547 245.664 219.749 243.512 220.697C231.223 225.578 218.38 219.551 213.785 207.494C213.32 206.274 212.842 205.718 211.45 205.672C196.012 205.1 180.599 204.47 165.133 203.855C163.397 203.875 161.717 204.482 160.369 205.577C157.631 207.563 156.463 210.533 155.214 213.474C153.551 217.435 150.853 220.275 146.689 221.602C146.069 221.795 145.427 221.971 145.185 221.168C145.02 220.621 145.596 220.345 145.976 220.238C150.579 218.94 152.563 215.31 154.293 211.295C155.233 209.1 156.116 206.768 158.132 205.196C158.516 204.892 159.297 204.757 159.08 204.101C158.864 203.445 158.061 203.625 157.48 203.598C147.478 203.21 137.487 202.835 127.509 202.473C113.81 201.975 100.103 201.605 86.3867 200.863C83.79 200.728 83.2785 201.351 83.3571 203.665C83.4464 206.166 82.9445 206.383 80.7386 205.162C77.8163 203.553 74.9251 201.882 71.9836 200.306C71.4445 200.016 70.8209 199.177 70.1117 200.34C66.7507 205.766 62.1753 209.596 55.8093 210.999C55.377 211.089 54.805 211.138 54.7518 211.695C54.6987 212.252 55.1577 212.452 55.5403 212.722C57.369 213.946 59.193 215.162 60.9883 216.427C64.0615 218.593 64.0566 218.617 60.8859 220.815C60.0928 221.337 59.4051 221.677 60.1307 222.92C61.9674 225.96 63.535 229.167 65.3646 232.213C71.6191 242.605 77.5236 253.197 83.3877 263.805C87.1187 270.565 91.1684 277.187 94.9897 283.928C95.417 284.671 95.6736 284.594 96.1461 284.129C98.7589 281.612 102.053 280.519 105.469 279.735C109.49 278.822 113.686 279.05 117.583 280.395C121.481 281.741 124.925 284.149 127.525 287.348C129.664 289.944 130.009 290.158 133.387 289.41C135.757 288.873 136.658 287.083 137.501 285.238C138.266 283.412 139.152 281.639 140.152 279.931C140.773 278.94 141.604 278.097 142.586 277.463C143.569 276.829 144.678 276.419 145.837 276.262C146.464 276.157 147.151 276.268 147.332 276.978C147.462 277.517 146.91 277.798 146.48 277.846C142.375 278.314 140.898 281.437 139.716 284.682C138.172 288.871 135.462 291.412 130.641 291.585C135.042 302.46 132.933 311.812 124.097 319.715C127.665 320.05 130.941 320.331 134.258 320.657C136.314 320.84 136.513 321.221 135.487 323.053C135.333 323.399 135.139 323.726 134.909 324.027C133.677 325.36 134.19 326.139 135.575 326.968C142.013 330.84 148.401 334.776 154.804 338.703C160.89 342.429 166.959 346.175 173.055 349.884C178.827 353.397 184.637 356.843 190.408 360.356C191.51 361.034 191.954 360.885 192.183 359.567C192.505 357.836 193.154 356.182 194.096 354.694C197.551 349.053 202.121 344.919 208.861 343.679C206.582 339.609 206.582 339.609 207.251 334.899C207.568 332.643 207.742 330.48 205.248 329.163C204.82 328.933 204.408 328.415 204.886 327.835C205.364 327.254 205.784 327.489 206.278 327.819C208.097 329.028 209.218 330.544 209.137 332.88C209.013 334.393 208.783 335.895 208.45 337.376C208.001 339.914 208.726 341.187 211.116 342.236C212.318 342.717 213.592 342.996 214.885 343.063C218.691 343.244 222.388 344.391 225.628 346.397C228.976 348.513 231.73 351.447 233.632 354.921C234.528 356.594 235.187 356.366 236.012 354.819C236.838 353.273 237.941 351.728 238.868 350.166C240.373 347.629 240.514 347.547 241.995 350.156C243.152 352.179 244.066 352.417 246.112 351.061C272.261 333.743 298.481 316.532 324.675 299.297C327.533 297.416 330.363 295.493 333.249 293.655C334.535 292.809 334.704 292.257 333.592 291.065C331.845 289.257 330.451 287.139 329.483 284.82C326.883 278.565 327.082 272.332 329.763 265.95C325.801 265.547 322.032 265.171 318.265 264.783C315.135 264.446 314.923 264.186 316.684 261.727C318 259.837 317.465 258.961 315.666 257.892C311.501 255.411 307.402 252.812 303.368 250.094C298.945 247.107 294.041 248.368 291.834 253.229C291.3 254.566 290.667 255.862 289.942 257.106C288.335 259.535 286.166 261.249 283.105 261.389C282.588 261.412 281.735 261.564 281.731 260.655C281.727 259.746 282.391 259.852 283.053 259.785C284.274 259.656 285.44 259.216 286.442 258.507C287.444 257.798 288.246 256.843 288.773 255.735C290.692 251.82 292.257 247.648 297.674 246.746L297.669 246.739ZM332.81 287.402C338.938 297.089 352.118 299.474 361.386 293.612C371.052 287.498 373.7 274.39 368.011 265.029C362.019 255.19 348.392 251.799 338.583 258.458C336.301 259.977 334.34 261.931 332.815 264.209C331.289 266.487 330.227 269.043 329.691 271.732C329.155 274.421 329.154 277.189 329.689 279.878C330.225 282.566 331.285 285.123 332.81 287.402V287.402ZM231.082 354.234C225.678 345.135 212.297 341.479 202.305 348.125C200.001 349.643 198.02 351.6 196.474 353.885C194.927 356.169 193.848 358.737 193.296 361.44C192.744 364.143 192.731 366.928 193.258 369.636C193.784 372.344 194.84 374.921 196.365 377.22C202.459 386.684 215.785 389.322 225.232 383.218C234.384 377.319 237.861 363.636 231.067 354.244L231.082 354.234ZM61.8989 206.655C64.231 205.168 66.2438 203.231 67.8198 200.959C69.3957 198.686 70.5034 196.122 71.0782 193.416C71.6529 190.711 71.6833 187.918 71.1675 185.201C70.6516 182.484 69.6 179.896 68.0738 177.59C61.3591 167.602 49.0671 165.104 39.0382 171.631C29.333 177.996 26.7315 190.427 33.0255 200.569C38.986 210.141 52.5389 212.813 61.8847 206.664L61.8989 206.655ZM252.245 188.3C249.176 183.788 244.459 180.661 239.109 179.588C233.759 178.515 228.201 179.584 223.63 182.563C219.059 185.543 215.838 190.196 214.66 195.524C213.482 200.852 214.44 206.43 217.329 211.059C223.477 220.948 236.932 223.409 246.236 217.461C255.54 211.513 258.913 197.857 252.245 188.3ZM121.542 319.349C130.93 313.171 133.686 300.29 128.162 291.117C121.84 280.605 108.021 277.934 98.6077 284.261C94.0376 287.305 90.851 292.028 89.7382 297.405C88.6254 302.783 89.6761 308.382 92.6626 312.99C98.8912 322.939 112.26 325.394 121.589 319.359L121.542 319.349Z" fill="#151515"/>
<path d="M209.664 106.858C212.222 102.513 215.836 101.425 220.133 101.404C223.216 101.422 226.209 100.866 227.865 97.688C228.127 97.1676 228.704 96.5828 229.331 96.959C230.158 97.4385 229.594 98.1681 229.265 98.7426C227.669 101.482 225.027 102.555 222.082 102.998C220.43 103.225 218.741 103.21 217.089 103.406C212.412 103.955 209.903 107.735 211.123 112.359C215.066 127.231 219.019 142.103 222.983 156.976C223.463 158.81 224.093 160.607 224.432 162.462C224.724 164.072 225.443 164.449 226.9 163.91C227.545 163.703 228.202 163.537 228.868 163.414C229.922 163.181 230.318 163.658 230.108 164.646C229.272 168.759 228.469 172.891 227.559 176.97C227.32 178.07 226.56 178.314 225.742 177.429C222.876 174.318 219.993 171.229 217.225 168.034C216.193 166.839 217.566 166.529 218.295 166.142C219.375 165.575 221.25 166.153 221.584 164.777C221.875 163.664 221.091 162.316 220.762 161.069C216.377 144.508 211.984 127.945 207.583 111.381C205.008 101.711 202.374 92.0589 199.825 82.3815C199.549 81.355 199.25 80.9476 198.158 81.1853C189.937 82.9291 182.865 80.6304 176.86 74.9269C171.42 69.7724 169.102 60.0252 171.406 52.8371C172.903 47.8615 176.034 43.536 180.293 40.5599C181.437 39.8077 181.444 39.3523 180.017 38.8479C176.674 37.6582 175.502 35.3477 176.175 31.8741C176.741 28.9834 177.751 25.9436 174.347 23.9446C174.265 23.9024 174.195 23.8416 174.141 23.767C174.088 23.6923 174.053 23.6061 174.039 23.5153C174.025 23.4245 174.033 23.3317 174.062 23.2446C174.091 23.1574 174.14 23.0783 174.205 23.0138C174.358 22.8471 174.565 22.7412 174.79 22.7159C175.014 22.6907 175.24 22.7477 175.426 22.8765C176.291 23.2718 177.034 23.8927 177.577 24.6739C178.12 25.4552 178.442 26.3681 178.511 27.317C178.704 29.1661 178.091 30.9415 177.729 32.7256C177.318 34.7467 178.034 36.0676 179.876 36.9849C180.919 37.4965 182.298 37.3672 183.012 38.6383C183.282 39.1262 183.807 38.617 184.211 38.4534C195.409 33.9521 207.331 38.0355 213.005 48.6973C216.671 55.5918 216.706 62.7252 212.974 69.798C210.974 73.6481 207.866 76.8098 204.05 78.8748C202.546 79.7007 202.62 80.4199 202.939 81.6531C204.873 88.7458 206.754 95.8525 208.654 102.957L209.664 106.858ZM210.697 47.8199C204.146 38.1752 191.37 35.268 181.796 41.6294C171.254 48.6373 169.289 61.305 175.694 70.7898C182.435 80.7701 194.535 83.1182 204.585 76.7312C214.279 70.5365 216.786 57.7275 210.688 47.8056L210.697 47.8199Z" fill="#151515"/>
<path d="M131.648 363.932C131.324 363.508 131.03 363.061 130.769 362.596C130.2 361.342 128.224 360.175 129.109 358.968C130.349 357.306 132.189 356.194 134.238 355.87C134.576 355.784 134.929 355.773 135.272 355.839C135.615 355.904 135.939 356.045 136.221 356.25C136.504 356.455 136.738 356.72 136.906 357.025C137.075 357.331 137.174 357.67 137.197 358.018C137.318 359.229 137.585 359.759 138.898 360.073C141.16 360.632 141.668 363.615 139.966 365.431C139.799 365.588 139.617 365.728 139.422 365.85C135.113 369.198 135.113 369.198 131.648 363.932ZM136.974 365.475C138.487 364.398 140.216 363.68 138.972 361.898C137.85 360.302 136.471 361.209 135.211 362.048C134.068 362.8 133.099 363.274 134.249 364.975C135.399 366.675 136.233 366.075 136.974 365.475V365.475ZM134.265 360.859C135.186 360.252 136.544 359.656 135.699 358.154C134.901 356.816 133.716 357.411 132.777 358.193C131.935 358.859 130.304 359.103 131.575 360.847C132.56 362.267 133.297 361.536 134.246 360.83L134.265 360.859Z" fill="#151515"/>
<path d="M34.1168 279.454C33.7955 279.028 33.5018 278.582 33.2376 278.118C32.6332 276.857 30.6836 275.621 31.4972 274.461C32.1037 273.629 32.8731 272.928 33.7587 272.401C34.6443 271.875 35.6277 271.534 36.6491 271.399C38.4296 271.18 39.4763 272.273 39.672 274.048C39.7527 274.824 39.6611 275.448 40.8303 275.498C41.4111 275.486 41.9755 275.691 42.4147 276.071C42.8539 276.451 43.1368 276.98 43.2091 277.557C43.3951 278.96 43.2352 280.304 41.9557 281.238L41.7627 281.365C37.497 284.591 37.497 284.591 34.1168 279.454ZM39.4095 280.978C39.8382 280.696 40.124 280.508 40.3383 280.367C41.453 279.634 42.3267 278.721 41.4664 277.413C40.606 276.106 39.3966 276.431 38.2886 277.252C38.0457 277.432 37.7929 277.599 37.5312 277.75C36.4243 278.386 35.5554 278.886 36.5966 280.484C37.6379 282.083 38.4124 281.89 39.4095 280.978V280.978ZM36.5861 276.345C37.3726 275.735 38.9317 275.242 38.1035 273.719C37.2753 272.195 36.0097 273.182 35.0354 273.864C34.1923 274.418 32.8146 274.721 33.8959 276.364C34.8643 277.836 35.5931 276.968 36.5861 276.345V276.345Z" fill="#151515"/>
<path d="M285.692 223.464C286.831 222.97 287.906 222.58 288.906 222.045C292.642 220.068 293.832 216.244 295.409 212.759C297.631 207.889 301.394 205.33 306.643 204.764C307.255 204.699 307.978 204.459 308.132 205.269C308.286 206.079 307.498 206.157 306.927 206.348C306.792 206.417 306.647 206.464 306.497 206.488C300.318 206.776 297.671 211.046 295.833 216.095C294.048 220.976 290.272 223.624 285.784 225.594C285.703 225.642 285.612 225.67 285.519 225.677C285.426 225.684 285.332 225.669 285.245 225.635C285.158 225.6 285.08 225.546 285.018 225.477C284.955 225.408 284.908 225.325 284.882 225.235C284.409 224.267 285.421 223.97 285.692 223.464Z" fill="#151515"/>
<path d="M50.1321 276.268C49.3899 276.878 48.47 277.23 47.5103 277.273C46.5506 277.315 45.603 277.045 44.8098 276.504C44.3489 276.223 43.8389 275.822 44.1888 275.233C44.5387 274.644 45.0105 274.692 45.7057 275.064C46.1228 275.325 46.5911 275.492 47.0787 275.555C47.5664 275.618 48.0619 275.575 48.5315 275.43C49.0011 275.284 49.4338 275.039 49.8001 274.71C50.1663 274.382 50.4576 273.979 50.6539 273.528C50.8312 273.234 50.9156 272.893 50.8961 272.549C50.8766 272.206 50.7541 271.877 50.5446 271.604C50.3402 271.374 50.0717 271.211 49.7736 271.135C49.4756 271.059 49.1616 271.074 48.8723 271.179C47.998 271.406 47.1566 271.683 46.2698 272C43.8878 272.83 41.8388 272.346 41.3096 270.81C40.7012 269.03 42.6336 266.038 44.7828 265.648C45.7897 265.467 46.9492 265.175 47.8553 265.961C48.1739 266.243 49.0627 266.364 48.6075 267.104C48.5481 267.229 48.4594 267.337 48.349 267.42C48.2385 267.503 48.1097 267.558 47.9734 267.58C47.8371 267.602 47.6975 267.591 47.5664 267.548C47.4354 267.504 47.3168 267.43 47.2208 267.33C45.8295 266.352 44.6443 266.978 43.4742 267.861C43.1215 268.089 42.8652 268.439 42.7543 268.845C42.6433 269.25 42.6854 269.682 42.8727 270.058C43.2875 270.891 44.0129 270.967 44.8307 270.685C45.6484 270.403 46.409 270.158 47.1958 269.907C49.7936 269.078 51.5555 269.577 52.342 271.332C53.1284 273.088 52.2922 274.867 50.1321 276.268Z" fill="#151515"/>
<path d="M155.339 148.388C154.614 149.021 153.691 149.381 152.729 149.407C151.767 149.432 150.825 149.122 150.067 148.529C149.661 148.254 149.135 147.812 149.553 147.219C149.972 146.626 150.371 146.906 150.903 147.201C151.329 147.45 151.802 147.608 152.292 147.665C152.782 147.721 153.278 147.675 153.75 147.53C154.221 147.384 154.657 147.142 155.03 146.82C155.403 146.497 155.704 146.1 155.916 145.654C156.206 145.022 156.462 144.352 155.951 143.716C155.725 143.453 155.421 143.269 155.084 143.189C154.746 143.11 154.392 143.139 154.073 143.273C152.837 143.635 151.622 144.076 150.382 144.401C149.141 144.726 147.814 144.606 146.972 143.327C146.131 142.048 146.52 140.881 147.328 139.776C148.844 137.754 151.456 136.916 153.056 138.055C153.422 138.316 154.201 138.52 153.822 139.22C153.443 139.919 152.944 139.644 152.445 139.337C150.79 138.378 149.526 139.21 148.385 140.309C148.135 140.553 147.973 140.873 147.923 141.218C147.873 141.564 147.938 141.916 148.108 142.221C148.268 142.529 148.539 142.764 148.866 142.88C149.193 142.996 149.551 142.983 149.869 142.844C150.817 142.558 151.737 142.229 152.683 141.955C155.245 141.18 156.756 141.671 157.563 143.443C158.371 145.216 157.555 146.869 155.339 148.388Z" fill="#151515"/>
<path d="M146.214 190.646C145.07 189.873 144.151 189.27 144.608 187.833C145.999 183.426 144.32 180.906 139.884 178.194C137.258 176.584 135.268 174.525 134.908 171.301C134.866 170.696 134.892 170.089 134.986 169.49C135.038 169.056 135.086 168.522 135.731 168.569C135.847 168.559 135.964 168.575 136.074 168.615C136.183 168.656 136.282 168.72 136.364 168.802C136.446 168.885 136.508 168.985 136.547 169.095C136.586 169.205 136.601 169.322 136.59 169.438C136.153 173.442 138.697 175.658 141.675 177.354C147.106 180.363 147.336 185.116 146.214 190.646Z" fill="#151515"/>
<path d="M149.649 151.753C149.367 151.882 149.049 151.911 148.748 151.835C148.447 151.76 148.181 151.584 147.993 151.338C146.676 149.911 145.532 150.305 144.023 151.216C142.513 152.128 142.052 153.138 142.562 154.706C142.802 155.46 143.152 156.366 142.088 156.554C141.024 156.742 141.261 155.655 141.105 155.061C140.396 152.115 139.728 149.165 139.102 146.212C138.973 145.58 138.818 144.894 139.599 144.4C140.381 143.907 140.821 144.405 141.253 144.704C143.947 146.526 146.599 148.425 149.257 150.301C149.805 150.668 150.64 150.988 149.649 151.753ZM140.801 146.63C141.072 147.977 141.303 149.074 141.515 150.174C141.586 150.547 141.663 151.1 142.115 150.884C142.93 150.5 143.701 150.027 144.413 149.475C144.82 149.207 144.557 148.807 144.2 148.591C143.132 147.932 142.363 146.811 140.801 146.63Z" fill="#151515"/>
<path d="M38.5496 144.544C37.8677 145.033 37.0612 145.318 36.2237 145.367C35.3862 145.417 34.552 145.227 33.8177 144.822C33.2573 144.515 32.3792 144.192 32.9346 143.355C33.49 142.519 33.946 143.212 34.4855 143.44C36.3689 144.249 37.8225 143.548 39.0272 142.049C39.2993 141.776 39.4709 141.418 39.5141 141.035C39.5574 140.651 39.4697 140.264 39.2653 139.937C39.0523 139.618 38.7314 139.386 38.3614 139.283C37.9914 139.181 37.5969 139.215 37.2499 139.379C36.1137 139.769 34.9492 140.115 33.7802 140.423C32.3713 140.787 31.0432 140.729 30.1716 139.327C29.2999 137.924 29.8709 136.863 30.6935 135.779C31.9512 134.143 34.5454 133.122 35.9027 133.846C36.3803 134.105 37.3941 134.37 37.0165 135.212C36.639 136.054 35.9729 135.571 35.4103 135.245C34.0203 134.44 32.9318 135.166 31.9044 135.986C31.5621 136.239 31.3231 136.608 31.2316 137.023C31.1401 137.439 31.2023 137.874 31.4068 138.248C31.7841 139.024 32.5784 139.095 33.3841 138.841C34.1898 138.587 34.9761 138.398 35.7582 138.139C38.3539 137.26 40.0736 137.695 40.8719 139.453C41.5998 141.073 40.6092 143.271 38.5496 144.544Z" fill="#151515"/>
<path d="M291.641 147.778C292.495 148.838 293.04 150.113 293.215 151.462C293.342 152.053 293.292 152.668 293.073 153.231C292.854 153.794 292.474 154.28 291.981 154.629C291.475 155.033 290.85 155.261 290.202 155.276C289.555 155.292 288.92 155.096 288.394 154.717C287.226 154.004 286.221 153.053 285.447 151.925C284.673 150.796 284.147 149.517 283.903 148.171C283.701 147.512 283.728 146.805 283.98 146.164C284.231 145.523 284.691 144.986 285.286 144.64C285.86 144.274 286.535 144.1 287.214 144.142C287.893 144.185 288.541 144.442 289.065 144.876C290.14 145.628 291.022 146.622 291.641 147.778ZM286.92 150.936C287.418 151.87 288.115 152.683 288.96 153.32C289.228 153.591 289.575 153.77 289.951 153.833C290.327 153.896 290.713 153.84 291.055 153.672C291.386 153.476 291.637 153.167 291.761 152.802C291.885 152.437 291.874 152.039 291.731 151.681C291.16 149.405 289.835 147.39 287.97 145.965C287.682 145.714 287.323 145.557 286.943 145.516C286.562 145.475 286.179 145.552 285.844 145.736C284.975 146.206 285.174 146.975 285.338 147.738C285.608 148.913 286.15 150.008 286.92 150.936V150.936Z" fill="#151515"/>
<path d="M254.656 78.2172C255.624 79.4122 256.196 80.8792 256.291 82.4141C256.359 82.9777 256.268 83.549 256.029 84.0639C255.79 84.5788 255.412 85.0169 254.938 85.3289C254.464 85.6409 253.912 85.8146 253.344 85.8303C252.777 85.8461 252.216 85.7034 251.725 85.4182C250.447 84.7333 249.347 83.7586 248.513 82.5722C247.679 81.3857 247.134 80.0204 246.923 78.5857C246.753 77.9595 246.789 77.2953 247.026 76.6912C247.262 76.0872 247.688 75.5756 248.238 75.2322C248.803 74.8482 249.477 74.6563 250.159 74.6847C250.842 74.7132 251.497 74.9606 252.028 75.3903C253.136 76.0866 254.042 77.0613 254.656 78.2172V78.2172ZM249.735 81.5062C250.577 82.4557 251.497 83.3332 252.485 84.1299C252.724 84.3319 253.02 84.4532 253.332 84.4763C253.644 84.4994 253.955 84.4231 254.221 84.2585C254.486 84.0939 254.693 83.8493 254.811 83.5599C254.929 83.2705 254.953 82.9511 254.878 82.6475C254.663 81.3389 254.175 80.0902 253.446 78.9824C252.717 77.8746 251.764 76.9324 250.647 76.217C250.347 76.0503 250.002 75.9824 249.661 76.0229C249.32 76.0634 249.001 76.2103 248.748 76.4427C248.152 76.9064 248.293 77.5098 248.422 78.1108C248.667 79.3081 249.111 80.4558 249.735 81.5062V81.5062Z" fill="#151515"/>
<path d="M166.34 16.1794C165.399 15.0608 164.825 13.6787 164.699 12.2221C164.608 11.6612 164.677 11.0859 164.899 10.5628C165.121 10.0396 165.486 9.58996 165.953 9.26575C166.419 8.94154 166.968 8.75603 167.536 8.73067C168.104 8.70531 168.667 8.84113 169.161 9.12243C170.529 9.79425 171.7 10.8079 172.562 12.0653C173.423 13.3227 173.945 14.7812 174.078 16.2996C174.192 16.8987 174.116 17.5187 173.859 18.0719C173.602 18.625 173.177 19.0833 172.645 19.382C172.1 19.7275 171.462 19.8967 170.817 19.8665C170.173 19.8363 169.553 19.6082 169.043 19.2131C167.891 18.4565 166.959 17.4102 166.34 16.1794V16.1794ZM171.204 13.317C170.615 12.1638 169.757 11.1692 168.702 10.4173C168.421 10.2235 168.091 10.1108 167.75 10.0916C167.409 10.0724 167.069 10.1474 166.767 10.3083C165.987 10.6784 165.999 11.3664 166.156 12.0719C166.637 14.5371 168.069 16.7138 170.143 18.1309C170.41 18.3538 170.743 18.4815 171.091 18.4939C171.438 18.5063 171.78 18.4027 172.062 18.1995C172.33 17.9867 172.529 17.6983 172.631 17.3716C172.734 17.0448 172.736 16.6948 172.637 16.3668C172.409 15.2567 171.921 14.2165 171.213 13.3313L171.204 13.317Z" fill="#151515"/>
<path d="M32.6448 280.904C33.5014 281.955 34.046 283.225 34.2168 284.569C34.3234 285.128 34.2658 285.706 34.0508 286.232C33.8359 286.759 33.4729 287.212 33.0057 287.537C32.5528 287.943 31.9827 288.195 31.3774 288.257C30.7721 288.318 30.1629 288.186 29.6375 287.879C28.3685 287.193 27.2774 286.22 26.4513 285.038C25.6252 283.855 25.0869 282.496 24.8796 281.068C24.6851 280.408 24.7223 279.701 24.985 279.064C25.2478 278.427 25.7202 277.9 26.324 277.569C26.9205 277.244 27.6012 277.107 28.2768 277.176C28.9524 277.245 29.5914 277.516 30.1101 277.954C31.1718 278.728 32.0395 279.738 32.6448 280.904V280.904ZM27.7787 283.778C28.3296 284.798 29.0782 285.698 29.9807 286.425C30.2508 286.694 30.5977 286.873 30.9736 286.937C31.3495 287.002 31.7361 286.948 32.0803 286.784C32.4 286.573 32.6395 286.26 32.7604 285.897C32.8813 285.533 32.8767 285.139 32.7472 284.779C32.2126 282.401 30.8132 280.308 28.821 278.905C28.5145 278.67 28.1376 278.547 27.7517 278.553C27.3658 278.56 26.9935 278.697 26.6953 278.942C25.9808 279.412 26.1544 280.127 26.3116 280.802C26.5841 281.887 27.0923 282.898 27.8001 283.764L27.7787 283.778Z" fill="#151515"/>
<path d="M165.001 17.1941C165.879 18.2462 166.453 19.5175 166.663 20.8716C166.807 21.46 166.773 22.0778 166.567 22.6472C166.36 23.2167 165.99 23.7123 165.503 24.0718C165.003 24.4855 164.381 24.7231 163.733 24.7479C163.085 24.7728 162.447 24.5834 161.917 24.2091C160.664 23.4963 159.597 22.4966 158.804 21.2919C158.012 20.0872 157.516 18.7118 157.357 17.2784C157.213 16.6437 157.282 15.9792 157.554 15.3878C157.825 14.7963 158.284 14.3109 158.86 14.0067C159.42 13.6865 160.064 13.5442 160.706 13.5985C161.349 13.6528 161.96 13.9012 162.459 14.3107C163.533 15.0455 164.406 16.0366 165.001 17.1941V17.1941ZM160.238 20.1946C160.791 21.2558 161.57 22.1835 162.518 22.9127C162.8 23.17 163.159 23.3286 163.539 23.3647C163.919 23.4008 164.3 23.3124 164.626 23.1129C164.909 22.9115 165.12 22.6253 165.229 22.2958C165.338 21.9663 165.339 21.6107 165.232 21.2804C164.988 20.0597 164.503 18.8997 163.806 17.8676C163.109 16.8356 162.215 15.9522 161.174 15.2685C160.888 15.073 160.549 14.969 160.203 14.9703C159.856 14.9716 159.518 15.0781 159.234 15.2757C158.491 15.703 158.584 16.3891 158.737 17.0875C158.985 18.2272 159.5 19.292 160.238 20.1946V20.1946Z" fill="#151515"/>
<path d="M23.8098 146.635C22.8745 145.516 22.3676 144.1 22.3798 142.641C22.3355 142.068 22.4514 141.494 22.7145 140.982C22.9776 140.471 23.3777 140.042 23.87 139.745C24.3623 139.448 24.9276 139.293 25.5027 139.298C26.0779 139.303 26.6403 139.468 27.1273 139.774C28.3278 140.522 29.3577 141.514 30.1499 142.686C30.9422 143.858 31.4793 145.184 31.7263 146.577C31.8859 147.207 31.838 147.872 31.5894 148.472C31.3409 149.073 30.9051 149.577 30.3469 149.911C29.8362 150.238 29.2416 150.409 28.6352 150.405C28.0288 150.4 27.4367 150.22 26.931 149.885C25.5784 149.152 24.4875 148.017 23.8098 146.635V146.635ZM25.3658 145.888C25.9252 146.973 26.7292 147.912 27.7143 148.633C27.978 148.852 28.3014 148.986 28.6425 149.019C28.9837 149.052 29.3269 148.982 29.6276 148.817C29.9355 148.653 30.178 148.389 30.315 148.068C30.452 147.747 30.4752 147.388 30.3807 147.052C30.1336 145.794 29.6317 144.599 28.9059 143.541C28.18 142.483 27.2455 141.585 26.1598 140.902C25.8718 140.717 25.5336 140.626 25.1918 140.642C24.85 140.658 24.5216 140.779 24.2519 140.99C23.6375 141.394 23.7406 142.002 23.8459 142.629C24.0609 143.829 24.5709 144.957 25.33 145.912L25.3658 145.888Z" fill="#151515"/>
<path d="M276.588 70.5952C275.703 71.024 275.154 70.4229 274.606 69.9333C273.044 68.5242 271.857 69.5205 270.405 70.3017C268.954 71.0829 268.987 72.1767 269.35 73.4741C269.547 74.1941 270.011 75.1789 269.025 75.4387C268.038 75.6984 268.107 74.5578 267.952 73.9021C267.275 70.9589 266.635 68.0111 265.946 65.0654C265.805 64.4311 265.742 63.8685 266.288 63.4069C266.52 63.2021 266.82 63.0925 267.129 63.1001C267.438 63.1077 267.732 63.2319 267.954 63.4478C270.744 65.3861 273.528 67.3355 276.306 69.2959C276.765 69.6189 277.477 69.9387 276.588 70.5952ZM267.286 64.7983C267.671 66.3164 268.062 67.5334 268.277 68.7943C268.467 69.9081 268.889 69.958 269.767 69.5031C271.695 68.4805 271.796 68.168 270.049 66.8195C269.23 66.0886 268.29 65.4994 267.286 64.7983Z" fill="#151515"/>
<path d="M296.5 151.133C295.435 151.957 295.27 151.38 295.18 150.978C294.346 147.534 293.454 144.108 292.794 140.631C292.564 139.379 293.574 138.704 294.666 139.399C297.639 141.303 300.523 143.367 303.428 145.387C303.698 145.579 304.171 145.83 303.843 146.251C303.724 146.393 303.578 146.509 303.413 146.593C303.249 146.677 303.069 146.726 302.884 146.738C302.512 146.672 302.163 146.516 301.867 146.281C299.664 144.926 298.073 145.184 296.278 147.031C295.407 147.932 296.363 148.715 296.289 149.552C296.245 150.216 296.796 150.898 296.5 151.133ZM294.151 140.67C294.524 142.124 294.879 143.426 295.189 144.737C295.332 145.36 295.442 146.086 296.281 145.697C297.065 145.432 297.747 144.933 298.238 144.267C298.6 143.557 297.534 143.276 297.05 142.867C296.163 142.11 295.147 141.468 294.151 140.67V140.67Z" fill="#151515"/>
<path d="M256.391 77.229C254.736 74.714 254.685 72.3011 256.214 70.3627C256.794 69.5035 257.64 68.8591 258.622 68.5293C259.604 68.1995 260.668 68.2026 261.648 68.5381C262.219 68.7052 263.004 68.8238 262.752 69.655C262.5 70.4861 261.859 70.181 261.231 70.0206C257.946 69.1823 255.974 71.2272 256.783 74.4938C257.153 75.7962 257.914 76.9535 258.964 77.8091C259.506 78.3446 260.209 78.6871 260.964 78.7839C261.72 78.8806 262.486 78.7262 263.145 78.3444C263.825 78.0633 264.369 77.5303 264.665 76.8569C264.96 76.1835 264.984 75.422 264.73 74.7316C264.545 74.0141 264.532 73.4494 265.311 73.326C266.089 73.2026 266.273 73.9011 266.297 74.5608C266.401 76.5398 265.834 78.1827 264.063 79.2253C262.292 80.2679 260.586 80.7249 258.731 79.4778C257.787 78.9206 256.985 78.1506 256.391 77.229V77.229Z" fill="#151515"/>
<path d="M277.948 156.471C276.982 155.291 276.451 153.814 276.446 152.289C276.389 151.739 276.486 151.185 276.725 150.687C276.965 150.19 277.338 149.768 277.802 149.47C278.267 149.171 278.805 149.008 279.358 148.997C279.91 148.987 280.454 149.13 280.93 149.41C282.299 150.152 283.46 151.224 284.308 152.529C285.156 153.835 285.664 155.331 285.786 156.883C285.838 157.432 285.737 157.984 285.495 158.479C285.253 158.974 284.879 159.393 284.415 159.689C283.95 159.985 283.413 160.148 282.862 160.158C282.311 160.168 281.768 160.026 281.292 159.748C279.903 158.977 278.747 157.844 277.948 156.471V156.471ZM279.369 155.751C279.895 156.797 280.68 157.69 281.649 158.346C281.939 158.6 282.306 158.749 282.69 158.769C283.075 158.789 283.455 158.679 283.77 158.456C284.054 158.261 284.269 157.981 284.385 157.657C284.5 157.333 284.511 156.98 284.414 156.65C283.894 154.197 282.44 152.044 280.36 150.645C280.041 150.436 279.665 150.333 279.285 150.348C278.904 150.364 278.538 150.498 278.237 150.732C277.622 151.136 277.777 151.761 277.854 152.376C278.032 153.633 278.563 154.814 279.388 155.779L279.369 155.751Z" fill="#151515"/>
<path d="M128.459 163.771C129.531 163.066 130.602 162.36 131.674 161.655C132.131 161.354 132.617 161.035 133.031 161.694C133.444 162.354 133.044 162.71 132.572 163.02C131.107 163.984 129.643 164.948 128.185 165.907C127.17 166.574 126.808 166.086 126.676 165.169C126.577 163.575 126.853 161.98 127.482 160.513C127.826 159.592 127.992 158.614 127.972 157.631C127.972 156.075 127.096 155.32 125.681 155.442C125.391 155.441 125.103 155.507 124.842 155.634C124.58 155.762 124.352 155.948 124.174 156.178C123.996 156.408 123.873 156.676 123.814 156.961C123.756 157.246 123.764 157.54 123.838 157.822C123.969 158.565 124.206 159.33 123.245 159.348C122.284 159.366 122.385 158.43 122.41 157.768C122.377 157.036 122.575 156.312 122.977 155.699C123.378 155.085 123.962 154.614 124.647 154.351C125.835 153.917 127.13 153.567 128.291 154.585C129.705 155.815 129.574 157.437 129.299 159.041C129.023 160.645 128.457 162.042 128.026 163.533L128.459 163.771Z" fill="#151515"/>
<path d="M174.132 11.2162C172.599 8.8869 172.508 6.30538 173.967 4.44487C175.425 2.58437 177.104 1.86862 179.349 2.57249C179.9 2.74188 180.754 2.79447 180.581 3.60472C180.361 4.60922 179.587 4.25822 178.942 3.97677C178.354 3.69093 177.69 3.60668 177.05 3.73705C176.41 3.86742 175.831 4.20514 175.403 4.69789C174.88 5.19483 174.518 5.8365 174.363 6.54058C174.208 7.24466 174.267 7.97904 174.532 8.6495C175.383 11.0482 177.14 12.8617 179.023 12.8612C181.497 12.8406 182.823 11.3849 182.569 8.99219C182.483 8.27052 182.201 7.4836 183.172 7.4183C184.142 7.35299 184.081 8.16155 184.112 8.84731C184.205 9.99273 183.888 11.134 183.217 12.067C182.546 12.9999 181.565 13.6638 180.449 13.9397C177.928 14.7595 175.879 13.8552 174.132 11.2162Z" fill="#151515"/>
<path d="M131.838 156.848C130.911 155.738 130.328 154.382 130.161 152.945C130.027 152.355 130.074 151.739 130.295 151.177C130.517 150.614 130.904 150.132 131.404 149.793C131.922 149.41 132.551 149.207 133.195 149.216C133.839 149.225 134.462 149.445 134.969 149.843C136.13 150.543 137.125 151.486 137.887 152.607C138.649 153.727 139.16 154.999 139.385 156.336C139.579 156.992 139.545 157.694 139.29 158.328C139.034 158.962 138.572 159.492 137.979 159.831C136.607 160.734 135.406 160.357 134.209 159.517C133.196 158.852 132.378 157.931 131.838 156.848ZM133.075 156.034C133.581 157.098 134.386 157.991 135.391 158.606C135.684 158.853 136.049 158.998 136.432 159.018C136.815 159.038 137.194 158.932 137.511 158.716C137.803 158.477 138.013 158.153 138.111 157.789C138.21 157.425 138.191 157.039 138.059 156.686C137.434 154.497 136.168 152.545 134.423 151.082C134.111 150.801 133.715 150.63 133.297 150.595C132.878 150.56 132.459 150.663 132.105 150.888C131.348 151.294 131.419 152.025 131.541 152.692C131.724 153.929 132.256 155.089 133.075 156.034V156.034Z" fill="#151515"/>
<path d="M16.2272 151.901C15.2999 150.802 14.7568 149.43 14.6804 147.994C14.5768 147.394 14.6666 146.776 14.9368 146.231C15.207 145.685 15.6436 145.239 16.1837 144.957C16.6473 144.625 17.201 144.443 17.7711 144.433C18.3412 144.424 18.9005 144.589 19.3747 144.905C20.5706 145.649 21.5954 146.637 22.3816 147.805C23.1678 148.973 23.6975 150.294 23.9358 151.682C24.0874 152.288 24.0505 152.926 23.8299 153.511C23.6094 154.095 23.2158 154.599 22.7016 154.954C22.1875 155.309 21.5772 155.498 20.9524 155.497C20.3276 155.496 19.718 155.305 19.2049 154.948C17.919 154.268 16.8779 153.202 16.2272 151.901ZM17.5419 151.036C18.112 152.112 18.9181 153.044 19.9 153.764C20.1625 153.982 20.4843 154.117 20.824 154.151C21.1637 154.184 21.5057 154.116 21.8061 153.953C22.1209 153.806 22.3749 153.554 22.5252 153.241C22.6754 152.927 22.7124 152.572 22.6301 152.234C22.39 150.976 21.8985 149.78 21.185 148.718C20.4716 147.655 19.5509 146.747 18.4782 146.048C18.1965 145.87 17.8709 145.775 17.5379 145.771C17.2049 145.768 16.8775 145.858 16.5924 146.03C15.8168 146.407 15.9595 147.122 16.0645 147.81C16.2769 149.005 16.792 150.125 17.5607 151.065L17.5419 151.036Z" fill="#151515"/>
<path d="M233.067 85.2251C235.634 83.618 238.007 84.5955 238.236 87.1375C238.221 87.3093 238.241 87.4823 238.294 87.6462C238.348 87.8101 238.434 87.9616 238.547 88.0916C238.66 88.2216 238.798 88.3274 238.953 88.4028C239.108 88.4781 239.277 88.5215 239.449 88.5302C240.117 88.713 240.707 89.1104 241.126 89.6613C241.546 90.2121 241.773 90.8857 241.772 91.5783C241.827 92.304 241.674 93.0303 241.332 93.6725C240.989 94.3147 240.471 94.8464 239.838 95.2056C239.282 95.5438 238.64 95.716 237.989 95.702C237.337 95.688 236.704 95.4883 236.162 95.1264C235.717 94.8865 235.129 94.5366 235.543 93.9058C235.883 93.3954 236.336 93.4456 236.876 93.8782C237.064 94.0705 237.291 94.2194 237.542 94.3144C237.794 94.4095 238.063 94.4483 238.331 94.4282C238.598 94.4081 238.859 94.3296 239.093 94.1982C239.327 94.0668 239.53 93.8856 239.686 93.6675C240.034 93.2554 240.227 92.7344 240.231 92.1949C240.236 91.6555 240.051 91.1316 239.709 90.7142C239.453 90.2407 239.036 89.8744 238.533 89.6813C238.031 89.4882 237.476 89.481 236.968 89.661C236.574 89.7772 236.257 90.4158 235.79 89.9551C235.323 89.4945 235.783 89.1509 236.072 88.8277C236.415 88.5164 236.63 88.0885 236.675 87.6275C236.72 87.1664 236.591 86.7052 236.315 86.3336C236.157 86.066 235.913 85.8602 235.622 85.7498C235.332 85.6394 235.013 85.631 234.717 85.7261C234.221 85.8353 233.783 86.1247 233.487 86.5384C233.192 86.952 233.061 87.4605 233.119 87.9653C233.172 88.637 233.016 89.3643 232.26 89.2269C231.504 89.0895 231.748 88.2631 231.783 87.7082C231.786 87.2225 231.904 86.7444 232.128 86.313C232.351 85.8815 232.672 85.5088 233.067 85.2251V85.2251Z" fill="#151515"/>
<path d="M277.048 164.485C276.447 164.915 275.726 165.143 274.987 165.138C274.248 165.133 273.53 164.895 272.935 164.458C272.564 164.221 272.132 163.86 272.488 163.359C272.541 163.257 272.617 163.169 272.71 163.103C272.803 163.036 272.911 162.993 273.024 162.976C273.138 162.96 273.253 162.971 273.362 163.008C273.47 163.045 273.568 163.108 273.647 163.191C274.655 164.022 275.745 164.216 276.651 163.088C277.003 162.678 277.198 162.157 277.201 161.617C277.204 161.076 277.014 160.553 276.666 160.139C275.852 158.996 274.861 158.563 273.561 159.326C273.304 159.495 273.04 159.669 272.773 159.404C272.507 159.139 272.618 158.718 272.912 158.432C273.31 158.126 273.573 157.677 273.645 157.18C273.718 156.684 273.594 156.178 273.3 155.771C273.148 155.501 272.91 155.291 272.623 155.175C272.336 155.059 272.019 155.043 271.722 155.13C271.197 155.258 270.74 155.582 270.446 156.036C270.153 156.49 270.045 157.04 270.144 157.571C270.216 158.21 269.9 158.756 269.3 158.638C268.701 158.521 268.769 157.831 268.769 157.349C268.772 155.423 270.184 154.084 272.313 153.943C274.441 153.802 275.267 154.917 275.218 156.802C275.213 157.635 275.469 157.743 276.17 157.907C276.845 158.047 277.457 158.404 277.911 158.924C278.366 159.443 278.639 160.097 278.688 160.785C278.788 161.493 278.686 162.215 278.397 162.869C278.107 163.523 277.64 164.083 277.048 164.485Z" fill="#151515"/>
<path d="M150.588 19.4388C153.346 17.6241 155.68 18.5563 155.977 21.1865C156.11 22.3686 156.767 22.3868 157.517 22.7021C157.954 22.9247 158.343 23.2325 158.661 23.6075C158.978 23.9825 159.217 24.4171 159.364 24.8857C159.51 25.3543 159.562 25.8476 159.516 26.3365C159.469 26.8254 159.326 27.3001 159.093 27.7328C158.861 28.1654 158.544 28.5472 158.162 28.8558C157.78 29.1644 157.34 29.3936 156.869 29.5298C156.397 29.666 155.902 29.7066 155.415 29.6491C154.927 29.5917 154.456 29.4373 154.028 29.1952C153.593 28.9387 152.921 28.6951 153.271 28.0448C153.55 27.5341 154.048 27.4517 154.608 27.9129C154.791 28.1074 155.014 28.2599 155.262 28.36C155.51 28.4602 155.777 28.5057 156.044 28.4933C156.311 28.4809 156.572 28.4111 156.809 28.2884C157.047 28.1658 157.255 27.9934 157.42 27.7828C157.811 27.3622 158.035 26.8122 158.047 26.2376C158.06 25.6629 157.861 25.1037 157.488 24.6662C157.345 24.4198 157.156 24.204 156.929 24.0312C156.703 23.8584 156.445 23.732 156.17 23.6591C155.894 23.5863 155.607 23.5685 155.325 23.6067C155.043 23.645 154.771 23.7385 154.525 23.882C154.23 24.025 154.018 24.5432 153.596 24.1042C153.174 23.6651 153.404 23.2988 153.777 22.9618C153.979 22.8183 154.15 22.6358 154.281 22.4251C154.412 22.2143 154.5 21.9796 154.539 21.7346C154.578 21.4896 154.568 21.2393 154.509 20.9983C154.45 20.7573 154.343 20.5305 154.196 20.3312C154.019 20.0768 153.763 19.8878 153.467 19.7934C153.172 19.699 152.854 19.7045 152.562 19.8089C152.068 19.9126 151.63 20.1947 151.331 20.6011C151.031 21.0076 150.892 21.51 150.94 22.0124C150.979 22.6935 150.846 23.4257 150.114 23.324C149.382 23.2223 149.615 22.3626 149.639 21.8243C149.623 21.3826 149.7 20.9425 149.863 20.5319C150.026 20.1212 150.273 19.749 150.588 19.4388V19.4388Z" fill="#151515"/>
<path d="M294.339 370.081C293.76 370.468 293.08 370.674 292.384 370.672C291.688 370.671 291.008 370.462 290.432 370.071C290.051 369.851 289.548 369.537 289.821 369.019C290.095 368.501 290.523 368.343 291.113 368.804C292.128 369.6 293.197 369.716 294.08 368.552C294.417 368.133 294.593 367.607 294.578 367.069C294.562 366.532 294.354 366.017 293.993 365.619C293.858 365.367 293.674 365.145 293.452 364.966C293.23 364.786 292.975 364.653 292.7 364.574C292.426 364.495 292.138 364.472 291.855 364.506C291.571 364.539 291.298 364.63 291.049 364.771C290.757 364.964 290.451 365.339 290.095 364.877C289.74 364.414 290.078 364.182 290.338 363.908C290.718 363.591 290.962 363.141 291.02 362.649C291.077 362.158 290.944 361.663 290.648 361.267C290.479 361.009 290.228 360.814 289.936 360.713C289.644 360.613 289.326 360.612 289.034 360.712C288.541 360.829 288.107 361.121 287.814 361.535C287.521 361.948 287.388 362.454 287.44 362.958C287.486 363.634 287.342 364.364 286.591 364.234C285.839 364.104 286.082 363.258 286.121 362.711C286.232 360.825 287.572 359.626 289.606 359.527C291.639 359.428 292.594 360.489 292.525 362.408C292.498 363.285 292.906 363.345 293.538 363.512C294.211 363.67 294.814 364.042 295.257 364.572C295.7 365.102 295.959 365.762 295.995 366.452C296.08 367.151 295.97 367.859 295.678 368.5C295.385 369.14 294.922 369.687 294.339 370.081V370.081Z" fill="#151515"/>
<path d="M10.4737 287.977C13.2406 286.269 15.6161 287.296 15.814 289.869C15.8698 290.856 16.2817 290.984 17.0939 291.238C17.5463 291.391 17.9618 291.636 18.3138 291.958C18.6658 292.28 18.9465 292.673 19.1378 293.11C19.329 293.547 19.4267 294.02 19.4245 294.497C19.4223 294.974 19.3202 295.446 19.1249 295.881C18.9355 296.36 18.6508 296.795 18.2879 297.161C17.925 297.526 17.4916 297.814 17.014 298.006C16.5364 298.199 16.0247 298.292 15.5099 298.281C14.9951 298.27 14.4879 298.154 14.0193 297.94C13.5489 297.677 12.6796 297.46 13.1637 296.64C13.485 296.07 13.9869 296.242 14.5114 296.603C15.4657 297.275 16.4873 297.412 17.3097 296.359C17.6522 295.943 17.8403 295.422 17.8423 294.883C17.8442 294.344 17.6598 293.822 17.3204 293.403C16.5917 292.296 15.6524 291.88 14.4103 292.513C14.0106 292.714 13.631 293.118 13.2836 292.496C13.0392 292.125 13.2428 291.796 13.5624 291.504C13.9346 291.233 14.1884 290.829 14.2715 290.376C14.3545 289.924 14.2605 289.456 14.0089 289.071C13.8659 288.794 13.6305 288.577 13.3437 288.457C13.057 288.337 12.7371 288.322 12.4401 288.413C11.9065 288.518 11.4331 288.822 11.1168 289.265C10.8005 289.707 10.6654 290.253 10.739 290.792C10.8182 291.426 10.6443 291.94 10.0227 291.96C9.18744 291.997 9.41509 291.223 9.41074 290.765C9.36584 290.25 9.43818 289.732 9.62229 289.249C9.80639 288.766 10.0975 288.331 10.4737 287.977V287.977Z" fill="#151515"/>
<path d="M14.6256 155.177C14.349 154.773 13.9322 154.486 13.456 154.371C12.9798 154.257 12.4782 154.324 12.0484 154.559C11.6798 154.699 11.3795 155.316 10.8918 154.777C10.404 154.238 10.8584 154.011 11.1878 153.671C11.5382 153.373 11.7672 152.957 11.8316 152.501C11.896 152.046 11.7913 151.582 11.5373 151.199C11.3787 150.887 11.1092 150.645 10.7816 150.521C10.454 150.398 10.0921 150.401 9.76687 150.531C9.28645 150.66 8.87142 150.963 8.60334 151.382C8.33525 151.801 8.2335 152.305 8.31801 152.795C8.38818 153.353 8.34516 154.19 7.4471 154.023C6.8168 153.905 6.93748 153.171 6.9476 152.673C6.99424 151.751 7.39516 150.884 8.06653 150.251C8.7379 149.619 9.62777 149.27 10.5502 149.278C12.4343 149.185 13.4505 150.216 13.3661 152.002C13.3186 153.19 13.9861 153.038 14.6868 153.294C15.1275 153.471 15.5283 153.735 15.8654 154.07C16.2025 154.405 16.4691 154.804 16.6496 155.243C16.83 155.683 16.9205 156.154 16.9159 156.629C16.9112 157.104 16.8115 157.573 16.6225 158.009C16.4525 158.492 16.1821 158.934 15.8291 159.305C15.4761 159.676 15.0486 159.968 14.5745 160.162C14.1005 160.356 13.5907 160.448 13.0788 160.43C12.567 160.413 12.0646 160.287 11.6047 160.062C11.0844 159.8 10.2649 159.582 10.6208 158.784C10.9767 157.987 11.4773 158.374 12.0396 158.762C12.2443 158.935 12.4832 159.062 12.7406 159.136C12.998 159.209 13.2681 159.228 13.5331 159.19C13.7981 159.152 14.0521 159.058 14.2784 158.915C14.5046 158.772 14.698 158.582 14.846 158.359C15.6748 157.425 15.4293 156.429 14.6256 155.177Z" fill="#151515"/>
<path d="M239.479 84.4666C239 81.2802 240.191 79.6671 242.945 79.5746C243.897 79.5424 244.822 79.8754 245.036 80.6358C245.563 82.3236 246.668 83.7716 248.157 84.7254C249.656 85.8683 249.622 87.7137 248.295 89.3852C246.968 91.0568 245.386 91.0946 243.647 90.2728C243.207 90.0709 242.482 89.872 242.857 89.165C242.917 89.0462 243.004 88.9432 243.111 88.864C243.218 88.7849 243.342 88.7318 243.474 88.7091C243.605 88.6864 243.74 88.6947 243.867 88.7332C243.995 88.7718 244.111 88.8396 244.208 88.9312C245.237 89.7487 246.271 89.8878 247.151 88.7354C247.532 88.2968 247.734 87.731 247.718 87.15C247.702 86.5691 247.468 86.0155 247.063 85.5988C246.179 84.5829 245.064 84.2417 243.894 85.2168C243.629 85.3907 243.528 85.6724 243.236 85.3219C242.944 84.9714 242.837 84.5604 243.286 84.1527C243.699 83.8744 243.991 83.4503 244.105 82.9654C244.219 82.4805 244.145 81.9705 243.899 81.5375C243.731 81.2306 243.457 80.9956 243.128 80.8766C242.799 80.7575 242.438 80.7626 242.112 80.8909C241.593 81.0303 241.147 81.3627 240.866 81.8202C240.584 82.2776 240.489 82.8254 240.598 83.3513C240.677 83.9851 240.248 84.2672 239.479 84.4666Z" fill="#151515"/>
<path d="M115.275 163.948C114.394 161.364 115.73 158.897 119.02 159.026C119.686 159.059 120.463 159.275 120.543 159.785C121.023 162.07 122.938 163.145 124.295 164.709C125.487 166.085 125.116 167.7 123.816 169.007C123.271 169.655 122.506 170.079 121.667 170.195C120.829 170.312 119.977 170.114 119.276 169.639C118.912 169.428 118.277 169.272 118.606 168.698C118.658 168.575 118.738 168.466 118.839 168.38C118.941 168.294 119.061 168.233 119.191 168.201C119.32 168.17 119.455 168.169 119.585 168.199C119.715 168.229 119.836 168.289 119.938 168.374C120.959 169.115 121.982 169.456 122.909 168.221C123.281 167.776 123.481 167.213 123.475 166.634C123.469 166.054 123.257 165.496 122.876 165.059C122.719 164.795 122.504 164.571 122.248 164.403C121.991 164.234 121.7 164.126 121.396 164.086C121.092 164.046 120.783 164.075 120.492 164.171C120.201 164.267 119.935 164.428 119.714 164.641C119.271 164.932 119.089 164.919 118.837 164.553C118.774 164.482 118.728 164.398 118.7 164.308C118.672 164.217 118.663 164.122 118.675 164.028C118.687 163.934 118.719 163.844 118.768 163.763C118.817 163.682 118.883 163.613 118.962 163.559C119.911 162.792 120.258 161.857 119.541 160.783C119.36 160.529 119.097 160.346 118.797 160.263C118.497 160.181 118.177 160.205 117.892 160.331C117.372 160.475 116.927 160.811 116.646 161.272C116.365 161.732 116.27 162.283 116.381 162.811C116.506 163.639 115.938 163.849 115.275 163.948Z" fill="#151515"/>
<path d="M301.437 360.547C301.092 360.098 300.596 359.788 300.041 359.677C299.486 359.566 298.909 359.661 298.418 359.943C298.121 360.067 298.056 360.949 297.477 360.224C297.098 359.757 297.311 359.443 297.671 359.073C298.019 358.779 298.272 358.388 298.397 357.95C298.526 357.026 298.479 356.084 297.235 355.858C296.993 355.803 296.742 355.798 296.498 355.843C296.254 355.887 296.021 355.98 295.813 356.117C295.606 356.253 295.428 356.43 295.291 356.637C295.153 356.844 295.059 357.076 295.013 357.32C294.741 358.073 295.245 359.696 293.965 359.29C293.044 358.995 293.563 357.373 293.996 356.443C294.744 354.825 296.288 354.434 297.85 354.614C298.468 354.688 299.035 354.996 299.433 355.474C299.832 355.952 300.032 356.565 299.993 357.186C299.95 357.539 300.049 357.895 300.268 358.175C300.487 358.455 300.808 358.637 301.161 358.681C301.624 358.857 302.046 359.123 302.404 359.466C302.762 359.808 303.047 360.218 303.243 360.673C303.439 361.127 303.542 361.617 303.545 362.112C303.548 362.607 303.452 363.097 303.262 363.554C303.047 364.023 302.739 364.442 302.357 364.786C301.974 365.131 301.525 365.393 301.036 365.557C300.548 365.721 300.032 365.783 299.519 365.739C299.005 365.695 298.507 365.546 298.054 365.302C297.647 365.088 296.812 364.972 297.168 364.236C297.524 363.501 298.027 363.487 298.659 363.982C299.627 364.737 300.637 364.81 301.45 363.773C301.817 363.315 302.016 362.745 302.014 362.158C302.011 361.571 301.808 361.002 301.437 360.547V360.547Z" fill="#151515"/>
<path d="M18.6262 282.613C20.8626 281.141 23.255 282.116 23.5144 284.72C23.6213 285.879 24.2236 285.923 25.0069 286.226C25.65 286.476 26.1993 286.92 26.5785 287.496C26.9576 288.072 27.1478 288.752 27.1225 289.441C27.1203 290.13 26.9258 290.804 26.561 291.388C26.1962 291.971 25.6755 292.442 25.0577 292.745C24.4983 293.078 23.8533 293.239 23.2031 293.208C22.5529 293.177 21.9261 292.956 21.4008 292.571C21.0108 292.337 20.5305 292.12 20.8756 291.555C20.9289 291.453 21.0047 291.365 21.0972 291.296C21.1898 291.228 21.2966 291.181 21.4098 291.16C21.523 291.139 21.6395 291.143 21.7506 291.174C21.8617 291.204 21.9645 291.259 22.0512 291.335C23.1305 292.119 24.1866 292.448 25.1601 291.112C25.4871 290.686 25.6579 290.16 25.6439 289.623C25.6298 289.086 25.4318 288.571 25.083 288.162C24.941 287.89 24.739 287.653 24.4924 287.47C24.2458 287.287 23.961 287.162 23.6592 287.104C23.3573 287.047 23.0464 287.058 22.7497 287.138C22.453 287.218 22.1781 287.364 21.9458 287.565C21.5457 287.828 21.2986 287.888 21.0331 287.469C20.9752 287.394 20.9336 287.308 20.9112 287.216C20.8887 287.124 20.8858 287.028 20.9027 286.935C20.9196 286.842 20.9559 286.753 21.0092 286.675C21.0625 286.597 21.1317 286.531 21.2122 286.481C21.4248 286.353 21.6099 286.185 21.7565 285.985C21.9031 285.785 22.0083 285.558 22.0661 285.317C22.1239 285.076 22.133 284.825 22.093 284.581C22.0529 284.336 21.9645 284.102 21.8328 283.892C21.6754 283.624 21.4302 283.418 21.1387 283.309C20.8473 283.201 20.5273 283.196 20.2328 283.296C19.7016 283.394 19.2281 283.692 18.9096 284.128C18.591 284.564 18.4516 285.106 18.5201 285.641C18.5869 286.365 18.365 286.962 17.6089 286.855C16.8528 286.749 17.1945 285.961 17.2091 285.501C17.1851 284.939 17.3022 284.381 17.5497 283.876C17.7973 283.372 18.1674 282.937 18.6262 282.613V282.613Z" fill="#151515"/>
<path d="M174.953 256.839C174.628 256.415 174.334 255.968 174.073 255.503C173.49 254.258 171.55 253.068 172.442 251.856C173.709 250.21 175.573 249.13 177.632 248.851C177.958 248.802 178.29 248.819 178.61 248.901C178.929 248.982 179.229 249.128 179.491 249.327C179.753 249.527 179.973 249.778 180.136 250.064C180.3 250.35 180.405 250.666 180.444 250.993C180.655 252.186 180.713 252.864 182.255 253.17C184.352 253.572 184.862 256.697 183.291 258.386C183.123 258.542 182.943 258.684 182.752 258.812C178.436 262.133 178.436 262.133 174.953 256.839ZM180.583 258.253C180.84 258.084 181.09 257.92 181.34 257.755C182.405 257.054 183.169 256.132 182.368 254.96C181.566 253.788 180.341 253.887 179.195 254.713C178.623 255.089 178.059 255.46 177.487 255.836C176.916 256.212 176.728 256.581 177.078 257.314C178.097 259.439 178.546 259.593 180.547 258.277L180.583 258.253ZM175.804 251.395C175.183 252.008 173.659 252.181 174.771 253.856C175.735 255.32 176.49 254.507 177.333 253.921C178.176 253.335 179.845 252.729 178.991 251.212C178.136 249.696 176.925 250.718 175.804 251.395Z" fill="#151515"/>
<path d="M138.844 232.241C137.409 233.421 135.675 233.415 133.913 232.527C133.373 232.267 132.681 231.884 133.019 231.169C133.358 230.455 133.976 230.663 134.69 231.032C135.546 231.446 136.531 231.505 137.431 231.197C138.33 230.889 139.072 230.238 139.495 229.387C139.686 229.101 139.782 228.761 139.768 228.417C139.753 228.073 139.629 227.743 139.414 227.474C139.213 227.242 138.946 227.077 138.648 227.004C138.35 226.93 138.036 226.951 137.751 227.063C136.446 227.43 135.194 227.845 133.832 228.157C132.471 228.469 131.205 228.442 130.432 227.066C129.66 225.691 130.134 224.59 130.924 223.487C132.304 221.555 135.154 220.704 136.703 221.783C137.043 222.02 137.856 222.243 137.394 222.957C137.332 223.077 137.243 223.18 137.134 223.259C137.024 223.338 136.898 223.389 136.765 223.41C136.632 223.431 136.496 223.42 136.368 223.378C136.24 223.336 136.124 223.265 136.028 223.169C134.545 222.159 133.262 222.84 132.139 223.855C131.832 224.089 131.617 224.422 131.529 224.797C131.442 225.172 131.488 225.566 131.659 225.911C131.74 226.085 131.855 226.24 131.997 226.369C132.139 226.497 132.306 226.596 132.486 226.659C132.667 226.723 132.859 226.749 133.05 226.737C133.241 226.725 133.428 226.675 133.6 226.59C134.427 226.291 135.178 226.063 135.975 225.795C138.608 224.912 140.214 225.33 141.1 227.143C141.986 228.956 141.152 230.723 138.844 232.241Z" fill="#151515"/>
<path d="M206.662 314.134C203.508 309.34 203.489 309.311 208.233 306.282C208.997 305.779 210.066 304.308 210.785 305.493C211.504 306.679 209.638 306.862 208.934 307.52C208.352 308.01 207.714 308.43 207.034 308.77C206.048 309.327 205.523 309.836 206.346 311.056C207.169 312.275 207.722 312.198 208.721 311.459C209.719 310.72 210.757 310.119 211.779 309.447C212.229 309.151 212.715 308.831 213.107 309.535C213.412 310.092 212.986 310.363 212.612 310.619C211.533 311.329 210.52 312.108 209.368 312.753C208.087 313.452 208.365 314.201 209.062 315.105C209.758 316.008 210.022 317.155 211.461 316.106C212.76 315.17 214.133 314.348 215.47 313.469C215.941 313.158 216.431 312.938 216.804 313.614C217.177 314.29 216.718 314.449 216.344 314.705C214.501 315.918 212.651 317.136 210.807 318.349C210.043 318.852 209.579 318.645 209.13 317.947C208.35 316.668 207.499 315.406 206.662 314.134Z" fill="#151515"/>
<path d="M262.849 276.212C262.158 276.718 261.82 276.204 261.697 275.69C260.916 272.232 260.1 268.766 259.492 265.275C259.295 264.135 260.226 263.543 261.268 264.24C264.224 266.196 267.115 268.255 270.016 270.299C270.377 270.552 270.793 270.873 270.263 271.375C269.734 271.877 269.054 271.607 268.623 271.246C267.379 270.212 266.346 269.622 264.661 270.781C262.977 271.941 262.179 272.844 263.05 274.759C263.187 274.988 263.242 275.257 263.205 275.521C263.169 275.785 263.043 276.029 262.849 276.212V276.212ZM261.015 266.157C261.369 267.282 261.648 268.429 261.85 269.59C261.967 270.701 262.301 270.85 263.264 270.37C265.284 269.347 265.365 268.987 263.568 267.548C262.85 266.874 261.971 266.395 261.015 266.157V266.157Z" fill="#151515"/>
<path d="M198.628 319.492C197.777 318.441 197.226 317.179 197.035 315.841C196.915 315.247 196.977 314.631 197.212 314.073C197.447 313.514 197.845 313.04 198.354 312.71C198.829 312.321 199.415 312.093 200.028 312.057C200.641 312.022 201.249 312.181 201.766 312.513C202.944 313.201 203.963 314.132 204.754 315.244C205.546 316.356 206.092 317.623 206.358 318.962C206.686 320.394 206.487 321.836 204.995 322.726C203.502 323.616 202.231 323.193 200.998 322.284C200.005 321.546 199.195 320.591 198.628 319.492V319.492ZM200.016 318.753C200.549 319.839 201.373 320.757 202.396 321.405C202.66 321.629 202.99 321.762 203.336 321.783C203.682 321.805 204.026 321.714 204.316 321.524C204.608 321.336 204.829 321.057 204.945 320.73C205.062 320.403 205.067 320.047 204.961 319.717C204.342 317.276 202.889 315.129 200.853 313.646C200.568 313.453 200.231 313.351 199.887 313.353C199.543 313.355 199.207 313.46 198.924 313.656C198.31 314.06 198.375 314.641 198.469 315.266C198.632 316.558 199.172 317.773 200.02 318.76L200.016 318.753Z" fill="#151515"/>
<path d="M133.403 234.429C133.48 234.49 133.541 234.569 133.581 234.66C133.62 234.75 133.637 234.848 133.631 234.946C133.624 235.045 133.593 235.14 133.541 235.223C133.489 235.307 133.418 235.377 133.333 235.427C132.718 235.924 132.15 235.622 131.688 235.23C130.47 234.188 129.456 233.627 127.755 234.746C126.055 235.865 125.443 236.912 126.073 238.74C126.292 239.353 126.506 240.052 125.786 240.311C124.959 240.61 124.85 239.698 124.735 239.211C123.954 236.049 123.233 232.868 122.553 229.671C122.457 229.42 122.449 229.145 122.53 228.889C122.611 228.633 122.776 228.412 122.998 228.262C123.216 228.099 123.484 228.013 123.756 228.019C124.029 228.025 124.293 228.122 124.504 228.295C127.379 230.253 130.245 232.227 133.113 234.19L133.403 234.429ZM124.076 229.59L124.979 233.685C125.071 234.137 125.17 234.706 125.735 234.601C126.626 234.408 127.413 233.89 127.943 233.148C128.316 232.657 127.736 232.414 127.389 232.151C126.338 231.409 125.278 230.561 124.074 229.633L124.076 229.59Z" fill="#151515"/>
<path d="M167.378 262.303C166.388 261.134 165.811 259.672 165.735 258.142C165.641 257.542 165.728 256.927 165.987 256.377C166.246 255.827 166.664 255.367 167.187 255.057C167.695 254.729 168.291 254.562 168.897 254.581C169.502 254.6 170.087 254.803 170.574 255.163C172.873 256.698 174.484 259.068 175.065 261.771C175.248 262.393 175.221 263.059 174.989 263.665C174.757 264.271 174.332 264.784 173.78 265.125C173.263 265.51 172.637 265.723 171.992 265.731C171.347 265.74 170.716 265.545 170.188 265.174C168.981 264.525 168.001 263.524 167.378 262.303V262.303ZM168.835 261.406C169.357 262.385 170.094 263.234 170.991 263.888C171.673 264.381 172.4 264.599 173.079 264.153C173.384 263.92 173.605 263.594 173.71 263.225C173.814 262.855 173.795 262.462 173.656 262.104C173.087 259.827 171.761 257.811 169.895 256.388C169.6 256.145 169.235 256.004 168.854 255.985C168.473 255.967 168.096 256.072 167.779 256.285C166.943 256.835 167.174 257.543 167.338 258.306C167.586 259.443 168.085 260.51 168.799 261.429L168.835 261.406Z" fill="#151515"/>
<path d="M252.243 276.617C251.312 275.5 250.716 274.142 250.525 272.7C250.404 272.106 250.462 271.489 250.693 270.928C250.924 270.367 251.318 269.888 251.823 269.553C252.278 269.209 252.827 269.011 253.396 268.986C253.966 268.96 254.53 269.107 255.014 269.408C256.328 270.092 257.455 271.086 258.296 272.305C259.137 273.523 259.667 274.929 259.84 276.4C259.991 277.03 259.93 277.693 259.666 278.285C259.402 278.877 258.95 279.366 258.38 279.674C257.836 280.02 257.196 280.185 256.553 280.148C255.909 280.11 255.293 279.871 254.792 279.465C253.709 278.755 252.83 277.773 252.243 276.617ZM256.919 273.469C256.343 272.323 255.47 271.352 254.393 270.657C254.1 270.482 253.763 270.392 253.422 270.4C253.081 270.407 252.749 270.51 252.464 270.698C251.795 271.066 251.798 271.709 251.923 272.303C252.39 274.776 253.806 276.967 255.869 278.409C256.133 278.633 256.461 278.768 256.806 278.796C257.151 278.824 257.497 278.743 257.794 278.565C258.1 278.34 258.327 278.024 258.444 277.663C258.56 277.301 258.561 276.912 258.444 276.55C258.164 275.425 257.644 274.374 256.919 273.469V273.469Z" fill="#151515"/>
<path d="M191.211 324.495C190.25 323.342 189.702 321.901 189.653 320.401C189.569 319.798 189.678 319.184 189.965 318.647C190.253 318.111 190.703 317.679 191.251 317.415C191.723 317.093 192.282 316.924 192.853 316.932C193.423 316.939 193.978 317.122 194.441 317.455C195.612 318.224 196.615 319.222 197.391 320.388C198.167 321.554 198.7 322.864 198.958 324.241C199.109 324.826 199.081 325.444 198.876 326.013C198.672 326.582 198.301 327.077 197.811 327.432C196.62 328.359 195.454 328.174 194.231 327.515C192.931 326.853 191.873 325.796 191.211 324.495V324.495ZM192.525 323.63C193.053 324.307 193.542 324.958 194.084 325.594C194.329 325.888 194.622 326.138 194.95 326.335C196.357 327.15 197.623 326.43 197.611 324.84C197.604 322.93 195.05 319.236 193.294 318.466C192.988 318.315 192.645 318.252 192.305 318.285C191.965 318.317 191.64 318.443 191.367 318.649C190.753 319.053 190.934 319.702 191.03 320.314C191.288 321.51 191.797 322.637 192.521 323.623L192.525 323.63Z" fill="#151515"/>
<path d="M115.254 240.658C114.268 239.487 113.703 238.021 113.649 236.492C113.576 235.893 113.679 235.287 113.946 234.746C114.213 234.205 114.632 233.754 115.151 233.448C115.671 233.142 116.268 232.995 116.87 233.024C117.473 233.052 118.053 233.256 118.541 233.611C120.815 235.172 122.403 237.546 122.978 240.244C123.142 240.832 123.119 241.457 122.911 242.03C122.703 242.604 122.32 243.099 121.817 243.444C121.32 243.856 120.704 244.097 120.06 244.132C119.416 244.167 118.777 243.994 118.239 243.639C116.948 242.993 115.901 241.947 115.254 240.658ZM116.64 239.746C117.201 240.83 118.018 241.761 119.019 242.46C119.292 242.665 119.617 242.789 119.958 242.815C120.298 242.841 120.639 242.77 120.94 242.609C121.185 242.428 121.378 242.184 121.497 241.904C121.617 241.624 121.66 241.316 121.621 241.014C121.582 239.135 119.067 235.312 117.39 234.583C117.081 234.441 116.741 234.384 116.403 234.417C116.065 234.45 115.742 234.573 115.467 234.773C114.838 235.187 114.998 235.819 115.106 236.434C115.332 237.64 115.854 238.77 116.626 239.724L116.64 239.746Z" fill="#151515"/>
<path d="M268.713 265.238C265.568 260.458 265.568 260.458 270.357 257.358C270.743 257.104 271.122 256.855 271.501 256.606C271.879 256.357 272.318 256.293 272.688 256.746C273.135 257.332 272.808 257.691 272.308 258.02C271.165 258.772 270.045 259.56 268.886 260.272C268.064 260.812 267.93 261.31 268.511 262.115C269.093 262.92 269.452 263.544 270.457 262.801C271.32 262.182 272.236 261.63 273.122 261.047C273.637 260.708 274.149 260.74 274.456 261.347C274.763 261.954 274.29 262.152 273.942 262.433C273.813 262.517 273.685 262.602 273.556 262.686C270.656 264.83 270.656 264.83 272.486 268.141C272.797 268.612 273.374 269.195 272.582 269.686C271.789 270.177 271.501 269.444 271.174 268.963C270.373 267.791 269.55 266.51 268.713 265.238Z" fill="#151515"/>
<path d="M166.094 263.138C167.091 264.294 167.649 265.765 167.67 267.292C167.735 267.842 167.646 268.399 167.412 268.901C167.178 269.403 166.809 269.83 166.346 270.135C165.884 270.439 165.346 270.609 164.792 270.625C164.238 270.641 163.691 270.502 163.212 270.225C161.839 269.494 160.671 268.43 159.816 267.13C158.961 265.831 158.446 264.337 158.318 262.787C158.233 262.223 158.325 261.646 158.582 261.136C158.839 260.626 159.247 260.208 159.751 259.94C160.232 259.637 160.79 259.48 161.359 259.487C161.927 259.495 162.481 259.667 162.953 259.983C164.308 260.675 165.408 261.78 166.094 263.138ZM161.184 266.194C161.753 267.37 162.668 268.344 163.807 268.983C165.226 269.708 166.467 268.964 166.244 267.38C166.049 266.11 165.588 264.895 164.892 263.815C164.195 262.735 163.278 261.814 162.202 261.112C161.915 260.925 161.578 260.828 161.235 260.835C160.893 260.841 160.56 260.95 160.28 261.148C159.518 261.547 159.569 262.261 159.7 262.943C159.898 264.139 160.41 265.261 161.184 266.194V266.194Z" fill="#151515"/>
<path d="M250.919 284.595C250.338 284.954 249.667 285.139 248.984 285.13C248.301 285.12 247.635 284.916 247.064 284.54C246.707 284.356 246.123 284.136 246.42 283.562C246.718 282.987 247.151 282.712 247.732 283.19C248.749 284.036 249.796 284.289 250.688 283.139C251.07 282.696 251.277 282.128 251.269 281.543C251.261 280.957 251.04 280.395 250.645 279.962C250.484 279.703 250.268 279.482 250.013 279.314C249.758 279.145 249.469 279.034 249.167 278.987C248.865 278.94 248.557 278.958 248.263 279.041C247.969 279.124 247.696 279.269 247.463 279.466C247.213 279.631 246.993 279.888 246.703 279.557C246.632 279.489 246.576 279.408 246.538 279.317C246.5 279.227 246.482 279.13 246.484 279.032C246.486 278.934 246.509 278.838 246.551 278.749C246.592 278.661 246.652 278.582 246.726 278.518C246.945 278.32 247.144 278.103 247.323 277.869C247.884 276.885 247.878 275.865 246.802 275.335C245.726 274.804 244.742 275.41 244.299 276.541C244.118 276.998 244.283 277.575 244.136 278.082C244.053 278.245 243.932 278.387 243.785 278.495C243.637 278.602 243.466 278.674 243.285 278.703C242.753 278.766 242.814 278.205 242.754 277.896C242.692 277.425 242.727 276.946 242.858 276.489C242.988 276.032 243.211 275.607 243.513 275.239C243.814 274.872 244.188 274.57 244.611 274.353C245.033 274.136 245.496 274.008 245.97 273.977C248.126 273.737 248.928 274.427 249.236 276.948C249.299 277.511 249.185 277.821 250.01 277.923C251.767 278.15 252.486 279.601 252.743 281.142C252.999 282.683 252.072 283.702 250.919 284.595Z" fill="#151515"/>
<path d="M106.451 253.545C105.881 253.893 105.221 254.064 104.553 254.037C103.886 254.009 103.242 253.784 102.703 253.389C102.342 253.167 101.85 252.855 102.25 252.326C102.513 251.979 102.909 251.616 103.402 252.039C104.4 252.887 105.468 253.188 106.407 252.109C106.792 251.671 107.002 251.105 106.995 250.522C106.989 249.938 106.768 249.378 106.374 248.947C106.224 248.681 106.016 248.451 105.767 248.273C105.518 248.096 105.233 247.975 104.932 247.92C104.631 247.865 104.322 247.877 104.026 247.955C103.73 248.033 103.455 248.175 103.22 248.371C102.977 248.53 102.712 248.766 102.43 248.43C102.326 248.318 102.267 248.173 102.263 248.021C102.259 247.869 102.311 247.721 102.409 247.604C102.545 247.422 102.719 247.267 102.872 247.095C103.175 246.801 103.368 246.412 103.419 245.993C103.469 245.574 103.374 245.15 103.149 244.793C103.012 244.514 102.782 244.291 102.498 244.164C102.214 244.036 101.895 244.012 101.595 244.095C101.137 244.169 100.719 244.402 100.414 244.752C100.11 245.102 99.9374 245.548 99.9274 246.012C99.9181 246.775 100.044 247.839 98.9903 247.591C98.1352 247.396 98.5403 246.3 98.6894 245.577C99.0819 243.435 100.675 242.776 102.558 242.837C104.276 242.895 105.135 243.998 105.032 245.725C104.987 246.419 104.967 246.699 105.886 246.821C107.508 247.044 108.282 248.377 108.515 249.883C108.748 251.388 107.837 252.602 106.451 253.545Z" fill="#151515"/>
<path d="M158.439 270.55C158.181 270.082 157.751 269.732 157.241 269.574C156.73 269.416 156.178 269.461 155.7 269.701C155.315 269.862 154.972 270.415 154.529 269.898C154.086 269.38 154.439 269.077 154.797 268.749C155.159 268.466 155.395 268.053 155.456 267.598C155.516 267.143 155.396 266.682 155.12 266.315C154.97 266.043 154.728 265.833 154.438 265.723C154.148 265.612 153.828 265.607 153.534 265.71C153.036 265.811 152.594 266.097 152.297 266.509C151.999 266.921 151.867 267.43 151.927 267.935C151.999 268.635 151.862 269.298 151.103 269.203C150.345 269.109 150.537 268.265 150.583 267.713C150.736 265.626 151.992 264.533 154.218 264.492C156.244 264.459 157.158 265.537 156.98 267.476C156.894 268.403 157.364 268.247 158.001 268.453C158.476 268.59 158.917 268.826 159.295 269.144C159.673 269.462 159.98 269.856 160.196 270.301C160.412 270.745 160.533 271.23 160.55 271.724C160.567 272.218 160.48 272.71 160.295 273.168C160.108 273.646 159.827 274.081 159.469 274.448C159.111 274.815 158.683 275.106 158.21 275.305C157.737 275.503 157.229 275.605 156.717 275.603C156.204 275.602 155.697 275.498 155.225 275.297C154.716 275.037 153.931 274.745 154.289 273.998C154.647 273.251 155.169 273.47 155.776 273.941C155.955 274.115 156.169 274.249 156.404 274.335C156.639 274.421 156.889 274.456 157.139 274.438C157.388 274.42 157.631 274.349 157.851 274.231C158.071 274.112 158.263 273.948 158.415 273.75C158.813 273.314 159.036 272.745 159.04 272.155C159.045 271.564 158.831 270.993 158.439 270.55V270.55Z" fill="#151515"/>
<path d="M114.16 248.472C113.806 248.764 113.388 248.969 112.941 249.07C112.493 249.17 112.028 249.164 111.583 249.052C110.749 248.812 109.362 248.619 109.632 247.643C110.04 246.35 110.908 247.592 111.605 247.778C111.987 247.946 112.415 247.975 112.817 247.862C113.218 247.749 113.568 247.5 113.807 247.158C114.157 246.704 114.339 246.142 114.324 245.569C114.308 244.996 114.096 244.445 113.722 244.01C113.438 243.602 113.029 243.297 112.557 243.14C112.085 242.984 111.575 242.985 111.104 243.142C110.664 243.237 110.388 244.156 109.809 243.462C109.229 242.768 109.942 242.545 110.253 242.146C110.552 241.848 110.742 241.458 110.791 241.039C110.841 240.62 110.747 240.196 110.526 239.837C110.367 239.594 110.139 239.404 109.872 239.292C109.605 239.18 109.31 239.15 109.026 239.206C108.571 239.284 108.154 239.51 107.84 239.848C107.526 240.186 107.332 240.618 107.287 241.077C107.202 241.819 107.475 242.919 106.393 242.689C105.663 242.545 105.924 241.401 106.092 240.676C106.481 238.7 107.871 237.949 109.733 237.963C110.096 237.929 110.462 237.976 110.805 238.101C111.148 238.226 111.458 238.426 111.714 238.687C111.97 238.947 112.164 239.261 112.283 239.606C112.402 239.951 112.443 240.318 112.402 240.681C112.406 241.528 112.689 241.802 113.506 242.002C114.18 242.162 114.781 242.541 115.215 243.08C115.65 243.619 115.892 244.287 115.906 244.979C115.975 245.667 115.848 246.36 115.539 246.979C115.23 247.597 114.752 248.115 114.16 248.472Z" fill="#151515"/>
<path d="M241.569 280.313C241.29 282.114 242.85 282.726 244.227 283.683C245.604 284.64 245.671 286.92 244.543 288.38C243.24 290.056 241.406 290.444 239.742 289.409C239.343 289.16 238.609 288.977 239.109 288.259C239.166 288.16 239.246 288.076 239.341 288.013C239.436 287.949 239.544 287.908 239.658 287.893C239.771 287.878 239.886 287.888 239.995 287.924C240.103 287.96 240.202 288.02 240.284 288.1C241.292 288.87 242.351 289.126 243.278 287.983C243.661 287.548 243.871 286.988 243.867 286.409C243.864 285.83 243.647 285.272 243.259 284.842C242.402 283.758 241.29 283.404 240.114 284.341C239.678 284.69 239.482 284.594 239.242 284.229C239.002 283.865 239.097 283.526 239.443 283.258C239.654 283.129 239.837 282.958 239.982 282.757C240.127 282.556 240.23 282.328 240.285 282.086C240.341 281.845 240.348 281.595 240.306 281.35C240.263 281.106 240.173 280.873 240.039 280.664C239.885 280.393 239.644 280.183 239.354 280.068C239.064 279.954 238.744 279.941 238.447 280.033C237.915 280.121 237.438 280.414 237.12 280.85C236.801 281.285 236.666 281.828 236.744 282.362C236.813 283.105 236.501 283.689 235.788 283.554C235.074 283.419 235.385 282.662 235.421 282.188C235.509 280.625 236.145 279.367 237.789 278.971C239.169 278.657 240.552 278.596 241.569 280.313Z" fill="#151515"/>
<path d="M190.367 332.33C189.931 332.663 189.421 332.884 188.88 332.974C188.339 333.064 187.785 333.019 187.265 332.845C186.534 332.589 185.27 332.428 185.635 331.379C186.06 330.157 186.826 331.291 187.418 331.537C187.826 331.755 188.3 331.817 188.75 331.709C189.2 331.602 189.595 331.333 189.86 330.954C190.16 330.523 190.321 330.01 190.321 329.485C190.32 328.959 190.158 328.447 189.857 328.016C189.556 327.586 189.13 327.258 188.637 327.077C188.144 326.897 187.607 326.872 187.099 327.006C186.681 327.118 186.357 328.027 185.831 327.226C185.469 326.676 186.103 326.474 186.352 326.136C186.663 325.799 186.85 325.367 186.882 324.911C186.915 324.454 186.791 324 186.531 323.622C186.361 323.366 186.114 323.17 185.826 323.061C185.538 322.953 185.223 322.939 184.926 323.02C184.44 323.119 184.008 323.394 183.713 323.792C183.417 324.191 183.28 324.684 183.326 325.178C183.337 325.786 183.355 326.654 182.583 326.569C181.81 326.483 181.906 325.54 182.007 324.9C182.33 322.824 183.761 321.933 185.685 321.855C186.047 321.804 186.416 321.838 186.763 321.953C187.11 322.067 187.425 322.261 187.685 322.518C187.945 322.774 188.143 323.087 188.262 323.433C188.382 323.778 188.42 324.146 188.374 324.509C188.351 325.548 188.974 325.609 189.703 325.907C190.314 326.123 190.847 326.515 191.236 327.034C191.625 327.552 191.851 328.174 191.887 328.821C191.937 329.486 191.825 330.152 191.56 330.764C191.295 331.375 190.886 331.913 190.367 332.33V332.33Z" fill="#151515"/>
<path d="M211.798 368.387C208.648 363.6 208.648 363.6 213.49 360.424C213.933 360.133 214.376 359.841 214.826 359.545C215.426 359.15 215.915 359.084 216.331 359.794C216.746 360.503 216.372 360.79 215.893 361.105C214.872 361.778 213.89 362.495 212.842 363.113C211.947 363.651 211.766 364.169 212.372 365.122C213.063 366.172 213.642 365.853 214.399 365.324C215.285 364.741 216.179 364.153 217.072 363.565C217.672 363.17 218.151 363.121 218.574 363.826C218.997 364.531 218.644 364.804 218.158 365.123C217.394 365.626 216.629 366.129 215.872 366.628C214.986 367.211 214.02 367.58 214.927 369.051C215.944 370.706 216.735 369.745 217.652 369.163C218.417 368.66 219.181 368.156 219.946 367.653C220.532 367.268 221.186 366.52 221.827 367.603C222.468 368.686 221.405 368.844 220.868 369.258C220.502 369.53 220.12 369.781 219.725 370.01C214.985 373.231 214.985 373.231 211.798 368.387Z" fill="#151515"/>
<path d="M47.7859 185.564C48.2484 185.163 48.7883 184.861 49.3722 184.678C49.956 184.495 50.5713 184.433 51.1799 184.498C51.9999 184.624 53.1272 184.936 53.0415 185.771C52.9931 185.996 52.8953 186.207 52.7551 186.389C52.6149 186.571 52.4358 186.72 52.231 186.824C52.0261 186.929 51.8006 186.986 51.5708 186.993C51.341 186.999 51.1126 186.954 50.9023 186.861C50.5073 186.73 50.086 186.7 49.6764 186.773C49.2668 186.846 48.8817 187.02 48.556 187.279C48.2445 187.436 48.0054 187.707 47.8882 188.036C47.771 188.364 47.7846 188.726 47.9262 189.044C48.2286 189.644 48.898 189.572 49.5398 189.365C50.6002 188.993 51.6837 188.691 52.7833 188.459C54.2558 188.177 55.6119 188.308 56.54 189.796C57.468 191.285 57.054 192.663 56.1327 193.986C54.6084 196.166 51.363 196.991 49.5992 195.633C49.1245 195.269 48.4034 194.874 48.896 194.222C49.3001 193.7 49.8901 193.025 50.8235 193.619C51.2681 193.908 51.7754 194.087 52.303 194.14C53.4482 194.247 54.0767 193.475 54.6109 192.622C54.7752 192.409 54.8625 192.147 54.8585 191.878C54.8545 191.609 54.7595 191.349 54.589 191.141C53.8565 190.262 53.0364 190.945 52.2696 191.04C51.6827 191.146 51.1101 191.32 50.5632 191.558C48.6776 192.287 46.953 192.296 45.8406 190.294C44.9013 188.711 45.7186 186.934 47.7859 185.564Z" fill="#151515"/>
<path d="M244.681 201.529C243.591 202.829 242.653 203.365 241.345 202.076C240.161 200.899 239.287 202.17 238.409 202.717C237.53 203.265 236.387 203.597 236.914 205.114C237.136 205.715 237.627 206.508 236.667 207.119C235.707 207.73 235.174 208.102 234.882 206.584C234.26 203.399 233.561 200.235 232.816 197.081C232.695 196.762 232.702 196.409 232.836 196.096C232.969 195.783 233.219 195.534 233.533 195.401C234.114 195.07 234.622 194.551 235.371 195.082C238.465 197.233 241.558 199.366 244.681 201.529ZM235.406 197.874C235.392 199.409 235.446 200.766 236.419 201.467C236.929 201.838 237.815 200.835 238.476 200.267C237.742 199.245 236.668 198.733 235.406 197.874V197.874Z" fill="#151515"/>
<path d="M107.877 304.587C107.741 304.404 107.615 304.213 107.501 304.016C106.791 302.548 104.5 300.871 105.338 299.858C106.93 297.895 109.143 296.533 111.613 295.996C112.506 295.798 113.566 296.165 113.78 296.894C114.366 298.936 115.872 300.074 117.263 301.472C118.525 302.751 118.007 304.454 116.777 305.775C116.658 305.869 116.532 305.952 116.398 306.024C111.393 309.932 111.393 309.932 107.877 304.587ZM113.69 305.533C114.655 304.806 116.304 304.294 115.297 302.654C114.441 301.353 113.303 302.051 112.374 302.755C111.444 303.458 109.979 303.644 111.145 305.416C112.064 306.828 112.806 306.166 113.69 305.533ZM110.926 301.332C111.759 300.732 113.086 300.228 112.333 298.942C111.579 297.657 110.491 298.352 109.602 299.009C108.842 299.581 107.523 299.834 108.525 301.356C109.526 302.877 110.116 301.752 110.904 301.346L110.926 301.332Z" fill="#151515"/>
<path d="M192.927 60.8029C193.11 61.1356 193.319 61.4534 193.552 61.7532C194.429 62.7121 195.445 63.2923 196.798 62.8118C197.075 62.7305 197.334 62.5953 197.558 62.414C197.783 62.2327 197.97 62.0088 198.109 61.7552C198.247 61.5015 198.334 61.2231 198.365 60.9358C198.395 60.6485 198.369 60.358 198.287 60.0809C198.042 58.7581 198.826 58.426 199.775 58.4056C200.917 58.3817 200.664 59.367 200.735 60.0981C200.828 60.9345 200.658 61.7791 200.247 62.5137C199.836 63.2483 199.206 63.8363 198.445 64.1953C197.733 64.7085 196.892 65.0116 196.016 65.0701C195.141 65.1286 194.266 64.94 193.492 64.5259C189.022 62.0413 188.328 56.3035 192.2 53.9096C192.77 53.5324 193.418 53.2891 194.096 53.1979C194.773 53.1067 195.463 53.1699 196.112 53.3828C196.728 53.5716 197.697 53.7222 197.424 54.5674C197.312 54.936 197.068 55.2504 196.738 55.4502C196.409 55.6499 196.017 55.7212 195.638 55.6502C195.01 55.3473 194.288 55.3015 193.627 55.5225C192.965 55.7436 192.416 56.2141 192.097 56.8339C191.21 58.3183 192.199 59.5721 192.927 60.8029Z" fill="#151515"/>
</g>
<defs>
<clipPath id="clip0">
<rect width="297" height="359" fill="white"/>
</clipPath>
</defs>
</svg>
