<svg width="297" height="359" viewBox="0 0 297 359" fill="none" xmlns="http://www.w3.org/2000/svg">
<g clip-path="url(#clip0)">
<g clip-path="url(#clip1)">
<path d="M-35.8236 240.58C-38.804 239.617 -41.6957 238.76 -44.5373 237.749C-48.8853 236.201 -53.1712 234.492 -56.9728 231.794C-61.0904 228.868 -63.1285 224.669 -63.6513 219.822C-63.9969 216.616 -63.7222 213.341 -63.7104 210.096C-63.7074 209.638 -63.8108 208.991 -63.1137 208.988C-62.4787 208.985 -62.4403 209.535 -62.4491 210.058C-62.4993 213.395 -62.5732 216.707 -62.2483 220.059C-61.5984 226.72 -57.661 230.736 -52.0399 233.378C-47.3493 235.583 -42.4549 237.326 -37.4836 238.84C-35.286 239.507 -33.7884 239.156 -32.2052 237.294C-24.4396 228.159 -16.5885 219.098 -8.77566 210.005C-2.83262 203.086 3.22857 196.266 9.02097 189.217C9.91302 188.13 11.0059 187.542 12.5448 187.412C18.0094 186.945 23.4591 186.265 28.9118 185.668C33.6822 185.145 38.4556 184.628 43.2259 184.111C44.2036 184.004 45.202 184.01 46.1561 183.8C49.2724 183.121 51.6768 183.919 54.1402 186.165C62.848 194.111 71.0891 202.543 79.7762 210.507C81.005 211.633 81.6667 211.066 82.4435 210.268C84.1508 208.512 85.8079 206.71 87.4797 204.922C87.7485 204.635 87.9789 204.31 88.2743 204.056C88.5756 203.796 88.9478 203.574 89.2609 204.044C89.441 204.31 89.3849 204.606 89.1516 204.824C88.7233 205.226 88.2625 205.593 87.8371 206C86.1358 207.638 84.5407 209.366 83.0549 211.211C82.2545 212.204 82.3992 212.801 83.1613 213.702C85.0812 215.975 87.5388 217.644 89.6655 219.692C96.09 225.878 102.653 231.915 109.167 238.006C109.663 238.47 110.076 239.046 110.88 239.286C113.334 237.397 114.929 234.492 117.496 232.642C117.662 232.799 117.827 232.956 117.995 233.112C116.808 234.43 115.632 235.76 114.43 237.066C110.824 240.979 111.887 240.799 114.752 243.175C116.944 244.992 119.085 246.899 121.058 248.947C122.411 250.347 123.9 250.947 125.773 250.903C129.362 250.82 132.699 252.138 136.149 252.821C136.607 252.913 137.041 253.217 137.44 253.492C137.662 253.643 137.904 253.891 137.762 254.237C137.573 254.701 137.26 254.715 136.835 254.535C134.755 253.66 132.558 253.211 130.36 252.75C128.809 252.425 127.282 252.413 125.581 252.611C126.047 254.056 127.155 254.745 128.1 255.516C130.466 257.446 132.516 259.713 134.829 261.708C137.322 263.862 137.071 267.624 134.546 270.42C131.453 273.848 128.313 277.229 125.229 280.663C117.614 289.142 110.023 297.641 102.414 306.126C95.068 314.315 87.7367 322.516 80.3493 330.666C73.1686 338.586 65.7811 346.32 58.76 354.38C53.9187 359.935 49.0213 365.438 44.1446 370.965C43.0753 372.176 41.9233 372.886 40.4198 373.004C32.3973 373.639 24.4546 374.907 16.5088 376.092C9.28385 377.168 3.74844 374.366 -1.20803 369.469C-10.8522 359.938 -20.582 350.496 -30.492 341.237C-38.0301 334.195 -45.4382 327.014 -52.9202 319.909C-60.3165 312.887 -67.7423 305.898 -75.1386 298.876C-76.6303 297.461 -78.0009 295.912 -79.5221 294.529C-80.5795 293.569 -80.4761 292.954 -79.5427 291.887C-74.8255 286.488 -70.2117 281 -65.589 275.524C-65.0101 274.838 -63.9408 274.271 -64.7206 273.032C-64.9362 272.692 -64.4991 272.491 -64.2244 272.562C-62.5377 273 -62.1183 271.634 -61.3001 270.68C-57.5222 266.279 -53.6527 261.959 -49.8453 257.582C-45.4589 252.537 -41.105 247.469 -36.7452 242.401C-36.3612 241.963 -35.8679 241.579 -35.8236 240.58ZM69.2518 340.23L69.3227 340.312C68.983 339.553 69.3345 338.997 69.8456 338.477C72.3179 335.956 74.7902 333.429 77.2596 330.903C79.4867 328.624 82.4908 327.194 84.2896 324.445C84.6441 323.905 85.2791 323.627 85.2732 322.761C85.2585 320.707 86.9274 319.605 88.4161 319.019C89.3908 318.635 90.0791 318.154 90.7082 317.48C92.2501 315.831 93.73 314.126 95.2453 312.453C95.6056 312.054 95.6736 311.587 95.6736 311.087C96.6011 310.514 97.3572 309.761 97.9834 308.871C102.086 305.044 105.643 300.711 109.37 296.536C116.043 289.062 122.828 281.688 129.551 274.259C130.369 273.354 131.338 272.536 131.979 271.058C127.572 270.757 123.519 271.563 119.449 271.753C113.187 272.045 106.948 272.849 100.686 273.041C98.8282 273.097 97.8239 273.724 96.7783 274.944C92.4421 280.007 88.2064 285.167 83.6841 290.061C79.2179 294.893 75.1742 300.094 70.649 304.858C66.3808 309.353 62.5851 314.247 58.4587 318.857C54.4622 323.322 50.5632 327.876 46.6051 332.374C40.9043 338.852 35.1148 345.254 29.5115 351.814C27.751 353.874 25.1044 355.44 24.9419 358.62C24.936 358.733 24.6613 358.928 24.5195 358.922C22.7975 358.842 22.2953 360.361 21.4092 361.327C18.6887 364.295 15.9742 367.268 13.3571 370.323C12.1904 371.686 10.873 372.977 9.978 374.78C13.9774 375.507 17.6667 374.774 21.2999 374.192C27.4025 373.211 33.5434 372.625 39.6725 371.898C41.1405 371.724 42.2985 371.263 43.2703 370.181C46.7498 366.307 50.3623 362.542 53.703 358.552C58.246 353.126 62.9573 347.857 67.7749 342.677C68.5754 341.817 69.3877 340.96 70.0937 340.026C70.3093 339.739 69.9253 339.609 69.6506 339.786C69.4882 339.899 69.3818 340.082 69.2518 340.23ZM21.1965 356.584C20.656 355.653 20.1125 354.725 19.3533 353.422C22.1122 355.112 22.0679 355.068 24.1415 353.011C25.1487 352.012 25.6833 350.517 27.1957 350.044C27.2577 350.591 26.9446 350.96 26.5961 351.315C25.639 352.296 24.6465 353.248 23.7456 354.276C23.2789 354.811 22.2983 355.449 23.019 356.2C23.8402 357.054 24.3246 355.975 24.7854 355.452C29.9693 349.58 35.1503 343.705 40.3105 337.815C45.6599 331.707 51.0121 325.601 56.3083 319.448C57.2949 318.301 58.8781 317.557 59.0228 315.775C59.7258 315.6 60.2457 315.119 60.6622 314.59C63.7578 310.653 67.1576 306.983 70.4658 303.235C73.715 299.556 76.9347 295.853 80.175 292.168C85.5568 286.047 90.9386 279.927 96.3441 273.824C97.1564 272.905 97.1711 272.332 96.1639 271.433C87.7426 263.939 79.3597 256.403 71.0153 248.82C61.8644 240.503 52.7342 232.167 43.669 223.759C39.2797 219.686 34.6422 215.901 30.3267 211.731C27.3611 208.864 24.812 205.321 20.5999 203.964C20.3842 203.896 20.3576 203.751 20.2513 203.577C17.5929 199.286 13.6319 196.278 9.93074 192.997C8.69606 191.901 7.94283 192.22 7.03896 193.34C2.78845 198.621 -1.73087 203.669 -6.20291 208.764C-13.9625 217.609 -21.4859 226.655 -29.1244 235.606C-30.4447 237.155 -32.1786 238.39 -32.7044 240.524C-32.7635 240.763 -33.0175 241.038 -33.2479 241.133C-35.8354 242.223 -37.0849 244.706 -38.7921 246.642C-44.1178 252.676 -49.2132 258.912 -54.6747 264.831C-56.5356 266.85 -58.2547 269.001 -60.0181 271.111C-60.3372 271.493 -60.5439 271.983 -60.0802 272.415C-59.6814 272.784 -59.1527 272.834 -58.7185 272.545C-58.3227 272.282 -58.0686 271.806 -57.6787 271.531C-56.9107 270.993 -56.704 269.764 -55.5047 269.764L-55.5638 269.713C-55.5284 271.253 -57.661 271.767 -57.4277 273.428C-56.2402 274.04 -54.7043 273.727 -53.446 275.565C-56.3613 274.531 -58.6801 274.525 -60.9043 275.671C-60.9545 275.098 -60.8925 274.483 -61.7313 274.374C-62.7652 274.241 -63.3382 274.835 -63.9349 275.544C-67.9816 280.355 -72.0726 285.125 -76.0957 289.954C-76.7869 290.782 -77.862 291.405 -78.0599 292.641C-77.7055 292.738 -77.5164 292.836 -77.3333 292.833C-76.7455 292.815 -76.1606 292.759 -75.5758 292.717C-77.0113 295.38 -77.0202 295.392 -74.6926 297.617C-67.6655 304.341 -60.5262 310.943 -53.5611 317.737C-43.5832 327.469 -33.2774 336.861 -23.1695 346.459C-17.191 352.136 -11.3809 357.985 -5.38766 363.644C-2.38956 366.476 0.398832 369.537 3.68345 372.067C4.60504 372.776 5.43801 373.323 6.60476 372.785C7.57066 374.62 7.91034 374.795 8.92349 373.66C13.2715 368.79 17.5604 363.866 21.8818 358.969C22.9274 357.787 22.4578 357.084 21.1965 356.584ZM80.1454 213.294C80.0184 212.215 79.5813 211.949 79.2534 211.598C76.149 208.306 72.628 205.463 69.3464 202.362C64 197.315 58.695 192.226 53.452 187.075C51.2721 184.932 48.8086 184.406 45.8991 184.879C42.517 185.432 39.1172 185.89 35.7085 186.253C29.0802 186.959 22.4401 187.559 15.8088 188.233C14.3437 188.381 12.8639 188.544 11.4431 188.901C9.71807 189.336 9.32225 191.168 10.7548 192.226C13.8593 194.519 16.4084 197.383 19.1436 200.06C21.1611 202.034 23.1785 204.077 26.4395 202.93C26.4956 202.909 26.6374 203.131 26.8885 203.397C25.9964 203.678 24.9567 203.415 24.3925 204.384C25.2698 205.909 26.859 206.789 28.1143 207.969C35.5579 214.964 43.0605 221.894 50.6104 228.774C59.0258 236.443 67.5504 243.997 75.9599 251.674C82.1924 257.366 88.6554 262.801 94.7136 268.691C96.7488 270.671 98.967 272.577 102.216 271.977C103.664 271.711 105.123 271.617 106.6 271.552C110.815 271.365 115.05 271.244 119.23 270.712C123.327 270.192 127.448 270.089 131.544 269.648C134.209 269.365 134.965 268.759 135.181 266.141C135.314 264.524 134.729 263.241 133.612 262.189C130.254 259.036 126.857 255.921 123.487 252.783C122.967 252.298 122.426 251.905 121.685 251.908C119.425 251.917 117.162 251.855 114.906 251.964C113.175 252.047 112.992 252.351 113.464 253.935C115.284 260.044 110.957 263.374 105.728 263.611C103.436 263.714 101.041 263.357 98.7573 262.715C92.1083 260.845 86.248 257.582 81.4097 252.638C78.2993 249.461 75.4548 246.048 75.1388 241.31C75.0679 240.234 74.6425 239.779 73.6235 239.519C68.8797 238.319 64.7621 235.84 60.8335 233.032C56.6775 230.059 53.3722 226.324 51.5054 221.525C50.4775 218.883 50.321 216.214 52.4122 213.785C54.3588 211.521 56.9404 211.216 59.6077 211.116C64.2599 210.939 68.4307 212.54 72.5512 214.535C73.8982 215.185 75.1063 216.973 76.6541 216.297C78.0926 215.667 79.1648 214.178 80.1454 213.294ZM75.5287 217.848C73.9159 216.273 72.1938 215.732 70.6047 215.026C67.199 213.51 63.7164 212.345 59.8765 212.236C54.2082 212.076 49.9163 215.646 53.1596 222.491C54.8255 226.005 57.286 228.966 60.3639 231.289C64.765 234.608 69.4734 237.412 74.9586 238.642C75.9334 238.86 76.6482 239.191 76.3941 240.639C76.0751 242.463 76.9258 244.156 77.8415 246.027C81.1025 243.098 83.3296 239.688 86.2037 236.919C88.4811 234.726 88.3718 232.58 87.2966 230.012C85.1167 224.814 81.2354 221.214 76.533 218.229C74.7459 219.663 73.4935 221.59 71.8276 223.064C70.1764 224.524 69.3139 226.862 66.9686 227.568C69.432 224.034 72.4478 221.001 75.5287 217.848ZM120.267 250.885C120.344 250.661 120.423 250.439 120.5 250.214C119.44 249.23 118.379 248.246 117.322 247.259C115.523 245.589 113.721 243.923 111.931 242.244C111.169 241.529 110.546 241.313 109.772 242.333C109.329 242.915 108.91 243.979 107.725 243.459C107.825 243.184 107.849 242.962 107.967 242.823C109.911 240.539 109.97 240.483 107.858 238.568C99.8591 231.318 92.4037 223.49 84.2128 216.444C83.1258 215.508 82.3815 213.596 80.94 213.817C79.6167 214.021 78.9226 215.812 78.0394 216.979C77.9449 217.106 77.9803 217.331 77.936 217.647C78.9787 218.427 80.1159 219.202 81.1704 220.076C85.2762 223.487 88.6081 227.453 89.2107 232.988C89.3731 234.478 89.9078 234.95 91.1897 235.343C99.5105 237.885 106.428 242.454 111.45 249.677C111.919 250.353 112.368 250.909 113.299 250.897C115.624 250.865 117.945 250.885 120.267 250.885ZM105.513 261.894C105.043 259.32 103.717 257.292 102.122 255.428C101.126 254.263 100.072 254.059 99.097 255.156C97.0678 257.434 94.3355 256.95 91.8248 257.369C91.5589 257.414 91.2547 257.34 91.1454 256.982C91.045 256.651 91.1601 256.353 91.3994 256.205C92.5632 255.484 93.7536 254.807 94.9292 254.11C95.9246 253.518 96.8226 252.741 98.0602 253.847C98.5653 254.299 99.3333 253.941 99.7351 253.034C95.6115 248.873 90.6403 246.083 85.099 244.242C82.092 243.243 82.1245 243.426 79.9298 245.879C78.6567 247.301 79.0703 248.096 80.0332 249.313C83.9145 254.21 88.8739 257.668 94.5688 260.02C97.9775 261.427 101.525 262.724 105.513 261.894ZM86.8269 238.704C87.3173 238.875 87.589 238.981 87.8667 239.067C94.6781 241.112 100.506 244.771 105.359 249.94C107.453 252.174 107.365 252.257 110.484 250.909C110.389 250.643 110.336 250.35 110.191 250.111C109.837 249.523 109.486 248.923 109.051 248.397C104.245 242.563 98.1341 238.674 90.9475 236.484C88.5343 235.748 88.4929 235.884 86.8269 238.704ZM83.5778 242.247C84.0917 242.732 84.7711 242.811 85.4062 243.033C90.5399 244.818 95.4195 247.15 99.2772 251.048C101.165 252.957 102.896 253.214 105.031 252.059C105.138 251.485 104.963 251.137 104.689 250.847C99.9388 245.829 94.1701 242.424 87.657 240.264C85.4209 239.525 85.3884 239.629 83.5778 242.247ZM103.064 254.479C104.562 256.752 106.216 258.732 106.877 261.264C107.125 262.213 107.79 262.086 108.502 261.734C109.385 261.297 109.459 260.546 109.294 259.733C109.001 258.291 108.62 256.873 107.976 255.537C106.591 252.664 106.349 252.596 103.064 254.479ZM110.874 260.404C112.569 258.652 112.953 256.923 112.463 254.905C111.763 252.017 110.921 251.739 108.316 253.654C109.678 255.569 110.05 257.901 110.874 260.404Z" fill="#151515"/>
<path d="M65.3271 181.921C66.5972 182.669 66.1985 183.65 66.2251 184.46C66.3107 187.09 67.442 188.837 69.9616 189.871C73.1872 191.198 76.6136 191.476 79.9602 192.162C81.1713 192.41 82.1224 191.996 82.976 190.885C84.7069 188.63 86.6712 186.555 88.5764 184.366C87.7198 183.225 86.7746 182.232 85.664 181.446C84.3141 180.488 83.168 179.605 82.5241 177.828C82.0102 176.407 80.4269 175.24 79.0888 174.282C76.5663 172.482 75.6624 170.186 76.0642 167.178C76.2503 165.792 76.141 164.364 76.1675 162.683C77.414 163.256 77.3579 164.009 77.2073 164.601C76.9326 165.676 77.2014 166.782 77.0419 167.777C76.6224 170.422 77.9339 172.027 79.7239 173.534C81.3899 174.938 82.4946 177.093 84.9994 177.385C85.2711 177.418 85.5015 177.941 85.7231 178.257C86.3995 179.22 87.0759 180.184 87.7257 181.168C89.1642 183.343 89.6014 183.328 91.3028 181.257C93.6038 178.455 95.8516 175.6 98.3387 172.973C100.315 170.886 101.78 168.445 103.602 166.267C103.726 166.117 103.913 165.951 103.921 165.783C104.172 161.808 107.401 160.966 110.248 159.65C115.072 157.419 119.777 157.555 124.273 160.357C125.266 160.977 127.437 161.149 126.438 163.407C126.22 163.903 126.822 163.953 127.188 164.004C133.985 164.896 140.085 167.893 146.335 170.408C151.643 172.544 157.155 173.806 162.788 174.619C163.446 174.714 164.197 174.542 164.714 175.529C162.9 176.259 161.101 175.727 159.435 175.414C151.986 174.016 144.911 171.418 137.988 168.371C134.381 166.784 130.562 165.865 126.713 165.1C124.291 164.618 123.446 165.05 120.749 167.828C124.619 170.818 128.491 173.821 130.786 178.552C133.767 176.46 136.493 177.096 139.089 179.203C139.491 179.531 139.978 179.811 139.674 180.34C139.373 180.869 138.874 180.701 138.425 180.376C137.79 179.918 137.122 179.51 136.481 179.058C134.954 177.985 133.563 178.387 132.151 179.344C130.774 180.275 131.15 181.623 131.336 182.82C131.545 184.15 132.597 185.486 132.104 186.759C131.643 187.95 129.95 187.906 128.896 188.633C127.203 189.803 127.132 189.7 125.951 187.643C124.811 188.473 124.099 189.579 123.331 190.941C126.296 191.579 129.046 192.176 131.793 192.764C136.608 193.79 141.346 195.064 145.103 198.471C146.438 199.683 147.186 199.03 147.951 198.034C151.545 193.35 155.908 189.348 159.689 184.829C160.221 184.194 160.72 183.476 161.659 183.225C162.061 184.487 161.027 184.912 160.504 185.486C156.8 189.552 153.005 193.533 149.504 197.783C147.555 200.15 147.525 200.099 148.831 202.762C150.012 205.174 150.591 207.745 150.713 210.422C150.727 210.759 150.633 211.01 150.343 211.108C149.882 211.265 149.546 210.996 149.472 210.582C149.259 209.426 149.117 208.259 148.94 207.098C148.63 205.041 148.001 203.143 146.347 201.686C140.611 206.793 136.304 213.029 130.842 218.47C130.449 217.252 131.244 216.921 131.631 216.469C135.249 212.204 138.8 207.878 142.764 203.915C145.989 200.693 145.673 199.701 141.556 197.446C137.713 195.338 133.551 194.399 129.348 193.497C127.525 193.107 125.697 192.741 123.871 192.38C122.897 192.188 121.972 192.043 121.192 192.998C119.207 195.421 117.187 197.812 115.385 200.531C120.69 202.83 120.38 207.455 120.575 212.036C119.263 211.909 119.281 210.99 119.29 210.325C119.311 208.821 118.918 207.402 118.602 205.969C118.327 204.722 117.854 203.551 116.711 202.753C114.898 201.491 114.171 201.533 112.738 203.182C111.321 204.813 109.879 206.424 108.535 208.114C106.562 210.597 103.827 210.969 101.074 210.499C98.894 210.127 96.7496 209.335 94.6819 208.401C93.6097 207.916 93.1696 207.405 93.2405 206.232C93.5122 201.876 88.9013 198.79 85.3893 199.437C83.7588 199.739 83.2714 199.015 82.8136 197.853C82.598 197.307 82.4916 196.707 82.2287 196.187C81.7473 195.235 82.5448 193.763 81.3514 193.246C80.4328 192.847 79.2749 192.939 78.2204 192.927C74.8117 192.894 71.6157 192.052 68.6354 190.439C65.4305 188.695 64.3405 185.89 65.3271 181.921ZM108.943 179.575C110.018 179.755 110.547 180.931 112.098 181.39C110.881 180.293 110.408 178.951 108.89 179.634C109.218 179.217 109.368 178.733 108.958 178.34C107.661 177.101 106.733 175.479 105.091 174.604C105.121 173.079 104.175 171.962 103.413 170.041C103.145 172.403 103.724 173.664 105.147 174.557C105.073 175.568 105.788 176.123 106.388 176.762C107.256 177.684 108.077 178.647 108.943 179.575ZM88.1393 195.702C92.8092 196.122 95.2372 198.994 96.5635 203.034C97.9606 202.156 98.126 201.045 98.0079 199.644C97.8543 197.791 97.6859 195.826 99.2456 194.059C100.436 195.909 98.4894 197.703 99.7684 199.328C101.231 198.365 101.99 196.958 102.958 195.758C105.227 192.957 105.165 190.906 102.846 188.246C100.536 185.595 96.4217 185.642 94.2064 188.331C93.5861 189.085 92.8742 189.768 92.2776 190.542C90.9838 192.215 89.2174 193.527 88.1393 195.702ZM106.146 168.673C106.214 171.212 107.546 172.905 109.061 174.403C111.888 177.196 115.311 179.043 119.03 180.42C120.374 180.92 121.709 181.02 123.08 180.94C125.1 180.822 126.122 179.649 125.883 177.645C125.694 176.061 124.958 174.687 123.96 173.425C122.802 171.962 121.378 171.138 119.512 170.886C117.645 170.635 117.267 172.169 116.472 173.183C115.553 174.359 114.661 174.448 113.518 173.49C112.544 172.674 111.53 171.865 110.417 171.268C109.011 170.511 108.042 168.995 106.146 168.673ZM124.583 186.567C123.464 187.013 122.613 187.735 121.883 188.657C119.878 191.195 117.813 193.684 115.769 196.193C114.461 197.8 114 197.933 112.027 197.233C110.29 196.618 108.568 195.953 106.816 195.386C106.237 195.197 105.573 194.662 104.976 195.483C103.514 197.496 101.585 199.174 100.436 201.453C100.79 201.633 100.947 201.775 101.115 201.79C105.177 202.162 109.046 200.691 113.058 200.549C113.69 200.525 114.103 200.034 114.431 199.538C117.476 194.96 121.355 191.05 124.583 186.567ZM114.735 172.822C115.881 171.761 116.363 170.552 117.122 169.551C117.754 168.72 117.553 168.15 116.821 167.585C114.431 165.75 112.083 163.853 109.637 162.091C108.577 161.326 106.89 162.05 105.957 163.457C105.014 164.878 105.065 165.727 106.349 166.693C109.067 168.732 111.835 170.706 114.735 172.822ZM120.271 166.06C120.043 165.546 119.63 165.653 119.272 165.629C118.817 165.596 118.197 165.771 118.218 165.029C118.238 164.311 118.888 164.488 119.328 164.423C120.678 164.222 122.064 164.16 123.372 163.811C124.625 163.478 124.876 162.411 124.016 161.654C121.13 159.113 113.506 158.371 110.621 161.495C113.306 162.966 115.356 165.257 118.159 166.53C119.131 166.971 119.774 167.08 120.271 166.06ZM113.312 179.767C116.638 182.471 120.271 184.631 124.784 184.696C125.963 184.714 127.227 184.484 127.147 186.357C127.121 186.951 127.569 187.628 128.249 187.383C129.108 187.076 130.417 187.143 130.606 185.97C130.81 184.702 130.299 183.461 129.746 182.306C129.277 181.325 128.258 182.714 127.708 181.901C129.838 178.665 129.808 178.393 126.967 175.458C127.008 176.017 127.061 176.487 127.076 176.957C127.215 181.115 125.844 182.462 121.703 182.335C118.676 182.244 116.044 181.005 113.312 179.767ZM87.3358 192.404C87.1379 192.942 86.7628 192.998 86.3641 193.022C85.8294 193.054 85.3775 193.252 85.4218 193.861C85.4543 194.343 85.6226 194.88 86.1336 195.052C86.7185 195.25 86.9725 194.674 87.2768 194.34C88.5971 192.894 89.8318 191.37 91.2053 189.981C93.4738 187.687 95.3436 185.344 93.3911 181.93C93.273 181.723 93.3911 181.28 92.6497 181.528C90.3251 184.794 86.8514 187.448 84.9019 191.201C85.664 192.099 86.6919 191.467 87.3358 192.404ZM96.9741 204.934C98.4982 205.963 99.8717 206.353 101.325 206.648C107.868 207.987 108.263 207.015 111.681 202.074C111.327 201.814 110.94 201.873 110.553 201.955C107.029 202.7 103.52 203.584 99.8688 202.898C98.3417 202.611 97.9281 203.885 96.9741 204.934ZM98.9118 177.128C98.8025 178.827 98.8379 179.3 99.8511 180.825C103.41 186.186 108.441 189.514 114.593 191.175C115.509 191.423 116.466 191.851 117.465 191.579C117.701 191.514 117.943 191.251 118.061 191.021C118.233 190.684 117.908 190.501 117.665 190.394C117.314 190.238 116.933 190.119 116.555 190.046C109.41 188.642 104.208 184.493 100.276 178.538C99.9131 177.985 99.7507 177.228 98.9118 177.128ZM100.776 173.703C100.3 177.09 102.678 180.745 106.881 184.029C111.53 187.661 117.355 189.744 120.353 188.541C111.557 186.706 105.422 181.697 100.776 173.703ZM86.8662 197.898C90.8715 198.666 93.3114 201.193 94.6849 204.914C94.9625 199.624 92.0974 197.067 86.8662 197.898ZM94.7351 206.421C97.3138 208.776 100.592 209.66 104.379 209.019C102.713 208.229 95.5622 206.306 94.7351 206.421ZM105.434 189.115C108.612 190.956 111.622 193.22 115.548 193.202C111.959 192.383 108.946 190.125 105.434 189.115ZM83.4309 193.276C83.0292 195.374 83.617 196.612 84.2019 197.839C84.3938 198.244 84.8162 198.235 85.2032 198.043C85.5429 197.877 85.5518 197.546 85.4366 197.301C84.8665 196.098 84.2521 194.916 83.4309 193.276ZM116.649 185.994C115.991 185.406 115.255 184.903 114.085 184.803C114.874 185.719 115.719 185.92 116.649 185.994ZM98.9354 182.329C98.6695 182.971 98.962 183.254 99.1924 183.526C99.4405 183.819 99.6177 184.38 100.223 183.99C99.9544 183.334 99.6325 182.77 98.9354 182.329Z" fill="#151515"/>
<path d="M224.244 110.45C226.373 108.257 228.045 105.58 230.58 103.712C231.194 104.572 230.544 104.932 230.166 105.287C228.432 106.907 227.044 108.822 225.476 110.583C224.495 111.685 224.049 112.835 224.377 114.354C224.699 115.837 224.74 117.374 224.235 119.198C222.702 117.72 223.612 115.956 222.926 114.638C220.856 115.592 211.932 125.72 199.967 139.87C192.582 148.606 185.339 157.492 177.208 165.593C178.82 161.872 182.554 159.768 184.506 156.154C183.673 155.459 182.767 155.456 181.943 155.568C179.836 155.858 178.327 154.865 177.027 153.426C173.938 150.004 170.482 146.901 167.516 143.41C165.673 141.241 163.685 140.886 161.402 141.12C154.534 141.814 149.344 138.753 144.79 134.098C144.172 133.466 143.523 132.833 143.047 132.097C141.771 130.123 140.749 128.267 141.546 125.557C142.131 123.569 142.855 121.467 142.864 119.292C142.87 118.03 143.508 117.126 144.344 116.213C146.996 113.323 149.309 110.157 151.743 106.812C148.969 104.98 145.992 103.73 143.165 102.214C137.269 99.0544 138.306 101.085 138.318 94.1309C138.321 93.1674 138.318 92.2011 138.318 90.7766C139.627 91.8376 139.411 92.8956 139.26 93.6964C138.486 97.8132 140.07 100.299 144.013 101.696C146.397 102.542 148.615 103.886 150.836 105.13C152.171 105.878 153.04 105.73 154.032 104.522C157.71 100.038 161.499 95.6499 165.212 91.1963C168.727 86.9791 172.541 83.016 175.616 78.4265C176.664 76.8631 178.454 76.0209 180.424 75.9647C182.188 75.9174 183.96 75.8169 185.691 76.3696C186.787 76.7183 187.259 76.2543 187.36 75.0693C187.729 70.7782 185.96 67.418 182.92 64.6164C181.334 63.1535 179.659 61.7852 177.987 60.4199C175.548 58.428 173.938 55.9131 173.081 52.8898C172.089 49.3878 171.303 45.8533 171.412 42.1828C171.427 41.6981 171.421 41.1189 172.062 41.045C172.925 40.9475 172.939 41.6302 172.951 42.2153C172.993 44.4731 173.158 46.7044 173.465 48.9593C174.168 54.1399 176.475 58.1857 180.714 61.2355C182.947 62.8403 184.961 64.6637 186.58 66.9836C188.273 69.4099 188.792 71.9987 188.55 74.7974C188.414 76.3784 188.784 77.2828 190.376 77.9241C197.234 80.6902 202.72 85.132 206.365 91.6632C206.778 92.405 207.233 92.8187 208.146 92.9399C212.056 93.463 214.998 95.6469 217.521 98.5579C220.318 101.785 222.823 105.151 223.452 109.543C223.479 109.726 223.588 109.915 223.709 110.06C223.824 110.196 224.005 110.279 224.244 110.45ZM175.973 87.1268C176.073 86.32 176.256 85.4748 175.045 85.2946C174.918 86.1664 175.249 86.7456 176.032 87.0766C175.834 88.1937 176.555 88.9059 177.16 89.6743C180.888 94.3909 185.57 97.9048 191.028 100.313C194.298 101.756 197.766 102.536 201.739 101.587C199.91 100.798 198.31 101.354 196.785 100.975C191.046 99.5538 186.116 96.7197 181.635 92.9044C179.559 91.1342 178.197 88.7197 175.973 87.1268ZM192.482 102.4C183.99 98.3747 176.404 93.6078 172.863 83.9351C172.591 84.4316 172.493 84.7271 172.304 84.9458C163.009 95.6056 153.932 106.451 144.934 117.365C143.626 118.952 143.836 120.675 144.444 122.076C145.886 125.395 147.693 128.563 150.765 130.768C153.716 132.889 156.732 134.858 160.031 136.445C161.644 137.219 162.356 136.962 163.443 135.715C170.281 127.863 177.231 120.108 184.102 112.282C186.923 109.064 189.646 105.751 192.482 102.4ZM212.402 120.613C208.754 121.299 207.319 119.316 205.783 117.351C202.401 113.018 198.95 108.742 195.489 104.474C194.053 102.704 193.979 102.716 192.491 104.418C186.556 111.195 180.646 117.995 174.718 124.777C171.489 128.471 168.237 132.148 165.008 135.842C164.314 136.637 163.452 137.311 164.636 138.528C169.418 143.434 174.097 148.44 178.865 153.364C180.404 154.954 183.733 154.803 185.144 153.183C187.531 150.45 189.879 147.684 192.269 144.953C196.791 139.787 200.968 134.332 205.605 129.257C207.892 126.754 210.08 124.133 212.402 120.613ZM201.381 103.121C204.885 107.554 208.113 111.756 211.48 115.849C213.046 117.75 214.331 119.603 213.22 122.197C213.852 122.224 214.127 121.964 214.378 121.689C216.889 118.938 219.379 116.168 221.916 113.438C222.604 112.696 222.687 111.874 222.525 110.979C221.249 103.996 217.376 98.818 211.413 95.1268C210.842 94.7751 210.145 94.6096 209.49 94.4146C207.635 93.859 207.549 93.8944 207.401 95.7917C207.307 97.0093 206.87 98.0289 206.226 99.0632C205.103 100.866 203.718 102.308 201.381 103.121ZM205.372 92.7242C203.753 88.835 200.856 86.06 197.66 83.5716C195.261 81.7009 192.774 79.9307 189.85 78.92C189.153 78.6806 188.456 78.6186 188.116 79.4667C187.847 80.1376 187.779 80.8025 188.521 81.2783C189.543 81.9344 190.402 82.818 190.786 83.9322C191.593 86.2816 193.448 87.7474 195.066 89.4231C195.749 90.1294 196.446 90.8269 197.146 91.5154C198.038 92.3902 197.53 93.1142 196.889 93.794C196.171 94.5535 195.376 95.1238 194.375 94.2284C193.938 93.8383 193.51 93.4275 193.152 92.9665C191.43 90.7471 189.436 89.2162 186.444 88.8616C183.694 88.5365 182.111 86.6038 181.892 83.8938C181.792 82.6584 181.293 81.8782 180.383 81.2133C179.591 80.6341 178.82 80.0253 178.008 79.4726C176.88 78.7043 176.262 78.9998 176.147 80.4154C175.982 82.4102 176.316 84.2572 177.444 86.0216C181.139 91.808 186.553 95.3869 192.612 98.2003C195.323 99.4593 198.132 100.18 201.145 99.9883C203.003 99.87 204.592 99.2494 205.602 97.6004C206.199 96.6251 206.412 95.4489 205.741 94.5417C205.08 93.6462 204.12 94.45 203.322 94.6746C200.909 95.3544 200.915 95.3721 199.066 94.8727C201.163 93.7112 203.47 93.8678 205.372 92.7242ZM196.558 103.458C198.333 105.795 199.896 107.903 201.514 109.968C203.697 112.752 205.916 115.506 208.131 118.264C209.182 119.57 210.411 119.88 212.059 118.932C211.451 118.051 210.993 117.303 210.456 116.621C207.431 112.764 204.294 108.99 201.396 105.039C200.167 103.363 198.877 102.734 196.558 103.458ZM163.086 139.43C159.216 137.553 155.367 135.697 151.843 133.218C148.346 130.759 145.697 127.549 143.446 123.941C144.093 131.11 155.406 140.018 163.086 139.43ZM186.48 84.3548C186.036 84.1213 186.066 83.7342 186.087 83.347C186.119 82.7648 186.243 82.1088 185.458 81.9255C184.716 81.7512 184.114 82.0378 183.668 82.6584C183.18 83.3382 183.015 84.0445 183.284 84.8779C183.883 86.7308 186.406 88.3326 188.382 88.1671C189.336 88.0873 189.797 87.5879 190.021 86.7604C190.328 85.6344 189.578 83.6721 188.606 83.0958C188.131 82.8151 187.646 82.8683 187.386 83.4239C187.186 83.8553 187.121 84.3902 186.48 84.3548ZM143.159 129.526C145.274 133.732 148.665 136.533 153.001 138.253C149.539 135.558 146.107 132.839 143.159 129.526ZM195.574 93.4837C195.627 91.3884 192.99 88.569 190.813 88.303C191.959 90.484 193.778 91.8464 195.574 93.4837ZM182.572 77.9448C183.529 78.7043 184.403 79.4313 185.313 80.111C186.107 80.705 186.583 80.4006 186.71 79.4874C186.861 78.391 186.686 77.466 185.271 77.5399C184.436 77.5842 183.543 77.268 182.572 77.9448ZM183.747 81.1187C182.025 79.5495 180.956 77.7556 178.076 77.797C179.937 79.3692 180.988 81.1897 183.747 81.1187ZM208.908 128.013C209.566 127.372 210.172 127.017 210.506 125.835C209.714 126.586 209.002 126.84 208.908 128.013ZM204.208 133.356C204.341 133.129 204.3 132.907 204.117 132.928C203.957 132.946 203.827 133.164 203.668 133.271C203.467 133.404 203.369 133.649 203.535 133.717C203.821 133.835 204.046 133.599 204.208 133.356Z" fill="#151515"/>
<path d="M236 65.1479C239.217 63.0998 240.363 59.7279 239.515 55.5609C238.635 51.2314 237.028 47.0881 236.186 42.7645C235.321 38.3316 235.005 33.8129 235.229 29.2825C235.247 28.9072 235.276 28.4905 235.846 28.3516C236.532 28.5791 236.387 29.2381 236.366 29.7435C236.044 37.6164 237.97 45.1169 240.058 52.5968C240.505 54.1956 240.877 55.8417 241.03 57.4907C241.308 60.4962 240.206 63.0762 238.183 65.2838C237.719 65.7892 237.232 66.2857 236.836 66.8442C235.696 68.443 236.086 69.7611 237.97 70.2546C242.788 71.5195 247.089 73.9044 251.109 76.6942C252.68 77.7817 253.401 77.7108 254.408 76.378C254.63 76.0824 254.952 75.7751 255.229 75.9524C255.622 76.1386 255.693 76.3189 255.551 76.5257C253.962 78.8131 254.015 78.7629 255.92 81.0059C257.764 83.1781 259.545 85.4064 260.549 88.1459C261.326 90.2678 261.367 92.3306 260.531 94.4496C259.991 95.8149 259.654 97.26 259.152 98.6431C257.702 102.636 253.354 105.041 249.088 104.524C244.374 103.954 239.778 103.044 235.575 100.738C229.534 97.4285 224.362 93.1847 221.033 86.9845C220.321 85.6576 219.725 84.2952 219.884 82.7998C220.061 81.1419 219.154 80.5774 217.819 80.1873C212.183 78.5383 207.073 75.8312 202.646 72.013C199.113 68.9661 196.407 65.2454 195.285 60.5642C195.096 59.7811 195.007 59.0156 195.06 58.2295C195.223 55.8476 195.158 55.6968 193.064 54.8191C192.251 54.4793 191.386 54.2576 190.571 53.9178C188.757 53.1642 188.506 52.4963 189.404 50.7999C190.317 49.077 191.858 48.1224 193.722 48.2141C197.033 48.3766 200.153 48.2347 203.239 46.6478C205.257 45.6104 207.709 46.1454 209.927 46.5473C218.091 48.0279 225.003 51.8461 230.854 57.7478C233.017 59.9347 234.588 62.4704 236 65.1479ZM249.901 83.6302C252.337 85.2202 254.627 86.7569 255.779 89.4078C256.963 92.1356 255.74 94.2456 252.76 94.222C247.343 94.1836 243.178 91.7041 240.41 87.0525C238.986 84.6557 240.528 82.0226 243.346 81.8748C244.705 81.8039 246.093 81.6797 247.34 82.5338C248.081 83.0421 248.698 82.8855 249.381 82.1703C252.311 79.1086 252.293 78.7717 248.645 76.443C248.397 76.2834 248.143 76.1327 247.895 75.976C244.72 73.9842 241.37 72.4179 237.69 71.5579C236.254 71.221 234.609 70.9018 234.783 68.6322C233.153 69.2646 232.133 70.361 230.896 71.1057C230.547 71.3156 230.181 71.5313 229.862 71.1441C229.543 70.76 229.841 70.4526 230.084 70.1334C230.769 69.2262 232.281 69.2291 232.68 67.7692C230.03 67.6894 227.534 67.852 225.059 68.3484C224.811 70.0241 226.291 71.1412 226.105 72.6661C218.227 73.3902 203.88 64.8051 202.383 58.3891C204.406 58.0433 206.474 58.1941 208.491 57.6946C209.847 57.3607 210.213 56.7608 210.216 55.4841C210.222 53.8882 209.729 52.384 209.581 50.8236C209.436 49.2986 209.658 49.077 211.126 49.4287C217.063 50.8502 222.297 53.6961 226.938 57.5853C229.729 59.9259 232.246 62.5709 233.35 66.2177C233.489 66.6787 233.708 67.1309 234.535 66.9595C234.576 64.2435 233.158 62.1276 231.454 60.2746C228.45 57.012 225.133 54.0596 221.178 51.982C216.026 49.278 210.757 47.0231 204.681 47.5343C199.101 48.0042 197.447 52.2864 199.193 56.4504C199.459 57.0829 199.81 57.6769 200.123 58.2916C201.68 61.3385 204.193 63.6022 206.645 65.8453C210.68 69.5365 215.391 72.1489 220.723 73.5143C222.959 74.0876 222.971 74.0315 223.213 76.5671C223.24 76.8597 223.296 77.1522 223.372 77.436C224.377 81.1212 226.202 84.3513 228.991 86.9579C233.956 91.5977 239.822 94.6623 246.288 96.6512C248.952 97.4699 251.631 97.6442 254.376 97.2068C258.62 96.5271 260.635 93.5364 259.619 89.3724C259.022 86.9283 257.554 84.9749 256.047 83.0421C252.975 79.1116 252.786 79.1234 249.901 83.6302ZM197.338 55.8505C195.917 58.2798 196.316 60.2805 197.084 62.2133C198.596 66.0197 200.977 69.2941 204.188 71.7736C208.872 75.3909 214.033 78.2102 219.905 79.4456C220.989 79.6731 221.37 80.0455 221.302 81.1892C221.116 84.2243 221.975 86.9579 223.86 89.399C225.555 91.5947 227.555 93.4743 229.661 95.2298C235.888 100.419 242.865 103.655 251.197 103.129C253.755 102.967 256.036 102.308 257.193 99.6775C257.427 99.1455 257.861 98.6195 257.362 98.0816C256.948 97.6383 256.47 98.0402 256.012 98.1673C251.88 99.3021 247.854 98.5899 243.946 97.2275C238.549 95.348 233.619 92.5759 229.292 88.8109C225.579 85.5837 222.643 81.8246 222.073 76.7592C221.907 75.2934 221.408 74.8885 220.064 74.4984C214.254 72.8139 209.067 70.0773 204.728 65.671C201.89 62.7955 199.376 59.7663 197.338 55.8505ZM231.885 66.0936C230.973 64.0603 230.281 62.3994 228.946 61.0223C224.702 56.6544 219.639 53.5986 213.971 51.4856C213.081 51.1546 211.994 50.3714 211.3 51.3348C210.913 51.8698 211.348 52.9928 211.404 53.8498C211.451 54.5738 212.036 54.7896 212.556 55.0437C213.522 55.5195 214.547 55.8949 215.471 56.4357C219.527 58.8117 223.697 61.0725 226.353 65.1774C227.032 66.2295 227.853 66.6344 229.05 66.4393C229.821 66.3182 230.6 66.2472 231.885 66.0936ZM224.324 71.2387C224.058 70.5915 223.777 69.9768 223.547 69.3414C223.124 68.18 222.652 67.0393 224.628 66.8176C225.549 66.7142 225.26 65.8778 224.938 65.467C223.449 63.5579 222.123 61.4301 219.541 60.7681C217.772 62.2458 217.418 63.8919 218.688 65.934C219.409 67.0924 219.804 68.446 220.431 69.6695C221.373 71.5136 221.766 71.6495 224.324 71.2387ZM241.166 85.6251C242.658 89.5349 245.615 91.4204 249.198 92.4932C250.311 92.8271 251.871 94.0831 252.6 92.7178C253.224 91.5504 251.909 90.2058 250.955 89.2187C249.921 88.1518 248.695 87.2859 247.316 86.7569C246.814 86.5648 246.241 86.6831 245.742 86.2161C244.457 85.0045 242.935 85.2261 241.166 85.6251ZM218.469 59.9081C217.084 58.5192 215.527 57.7242 213.938 56.9854C211.918 56.0456 211.897 56.0367 210.907 58.2207C210.597 58.9063 209.98 59.4737 210.01 60.3455C210.237 60.5169 210.441 60.7652 210.701 60.8538C211.628 61.1671 212.579 61.4035 213.507 61.7109C217.001 62.8546 216.859 62.2399 218.469 59.9081ZM197.409 51.8402C197.589 49.7419 197.612 49.6592 196.797 49.4464C194.818 48.9292 192.898 49.2898 191.282 50.463C189.98 51.4087 190.192 52.313 191.661 53.0046C192.452 53.3769 193.267 53.705 194.086 54.0153C197.119 55.1708 197.119 55.1649 197.409 51.8402ZM216.402 68.839C215.548 67.1368 215.347 65.3932 213.932 64.7312C212.441 64.0367 210.854 63.5845 209.584 62.4586C209.182 62.101 208.725 62.1069 208.335 62.5975C207.927 63.1117 208.143 63.5402 208.533 63.8475C210.848 65.6828 212.99 67.7988 216.402 68.839ZM254.352 91.8371C254.86 88.4326 251.298 84.8921 248.016 85.693C250.781 87.283 252.928 89.1773 254.352 91.8371ZM208.589 59.4412C208.474 59.2462 208.358 59.0511 208.246 58.8561C207.059 59.0777 205.874 59.3023 204.684 59.5239C204.772 60.8125 205.446 61.4804 206.551 61.5069C207.98 61.5424 207.98 60.1948 208.589 59.4412ZM247.077 84.5907C246.123 82.986 244.616 83.4707 242.876 83.6155C244.306 84.4843 245.579 84.7976 247.077 84.5907Z" fill="#151515"/>
<path d="M145.304 137.299C144.704 139.332 143.449 140.201 142.687 141.362C141.922 142.53 141.922 143.073 143.159 143.898C146.125 145.878 148.636 148.343 150.408 151.511C152.106 154.552 151.95 156.993 149.879 159.664C148.34 161.65 146.323 162.419 143.918 162.103C135.373 160.977 128.573 157.052 124.211 149.433C121.656 144.971 123.635 140.227 128.609 138.992C130.417 138.543 130.405 137.278 130.78 135.957C131.332 134.004 130.857 132.452 129.333 131.226C128.092 130.227 126.571 129.748 125.079 129.257C122.94 128.554 120.769 127.948 118.649 127.195C113.934 125.522 111.113 121.532 111.161 116.715C111.167 116.103 111.214 115.444 112.023 115.48C112.644 115.506 112.673 116.089 112.709 116.582C112.779 117.563 112.756 118.562 112.948 119.517C113.415 121.831 114.581 123.634 116.743 124.822C119.177 126.157 121.774 127 124.409 127.768C126.018 128.238 127.578 128.82 129.022 129.665C131.849 131.32 132.564 132.816 132.1 135.984C132.029 136.465 131.885 136.941 131.843 137.426C131.766 138.318 132.044 138.83 133.081 139.022C135.299 139.435 137.444 140.207 139.346 141.416C140.495 142.145 141.062 141.785 141.798 140.928C142.746 139.817 143.416 138.389 145.304 137.299ZM128.765 149.732C128.759 148.499 128.033 147.814 126.978 147.373C127.38 146.691 128.077 146.661 128.757 146.522C130.898 146.079 133.066 146.224 135.205 146.321C136.897 146.398 137.928 145.662 138.897 144.468C139.535 143.682 139.526 143.171 138.664 142.571C137.355 141.664 135.94 141.076 134.41 140.659C131.462 139.858 131.477 139.823 130.118 142.612C130.062 142.728 129.787 142.737 129.613 142.796C129.53 142.624 129.433 142.459 129.374 142.281C129.149 141.625 130.177 140.694 129.037 140.275C128.127 139.941 127.315 140.405 126.606 140.99C124.751 142.53 124.92 144.962 127.04 147.32C127.032 148.564 127.418 149.507 128.83 149.667C129.43 151.839 131.326 152.799 132.978 153.99C131.574 152.572 130.171 151.15 128.765 149.732ZM139.231 157.07C138.312 157.268 137.574 156.437 136.451 156.369C137.388 157.507 138.286 157.427 139.234 157.073C139.322 157.345 139.325 157.752 139.511 157.871C141.446 159.094 143.635 159.682 145.865 159.537C149.442 159.301 150.703 157.395 149.566 154.38C148.845 155.072 148.952 156.213 148.163 156.881C147.655 157.312 147.345 158.033 146.559 158.03C144.081 158.009 141.508 158.668 139.231 157.07ZM135.609 149.54C135.276 147.509 135.276 147.503 133.654 147.465C132.969 147.45 132.28 147.471 131.595 147.468C130.984 147.465 130.316 147.527 130.071 148.127C129.823 148.733 130.301 149.271 130.703 149.676C133.834 152.838 137.308 155.486 141.682 156.706C143.032 157.081 144.421 157.005 145.77 156.836C146.739 156.715 147.563 156.266 147.767 155.042C148.488 150.669 144.958 146.72 140.554 146.883C138.469 146.954 136.853 147.695 135.609 149.54ZM137.148 158.84C135.178 157.528 133.099 156.313 131.258 154.729C129.386 153.118 127.625 151.401 126.06 149.51C128.373 154.209 132.275 157.087 137.148 158.84ZM139.491 145.535C140.776 146.055 141.712 145.807 142.941 145.316C141.579 144.56 140.522 143.156 139.491 145.535ZM139.848 159.96C141.532 160.799 141.532 160.799 143.121 160.424C141.945 160.796 141.112 159.168 139.848 159.96Z" fill="#151515"/>
<path d="M52.8343 78.3635C55.3037 78.1833 57.3063 78.7536 59.3563 78.7448C71.3044 78.6945 80.3903 73.5376 87.0806 63.7437C90.1614 59.234 92.105 54.1863 94.3204 49.2776C97.9742 41.186 103.442 34.906 111.476 30.9991C113.183 30.1687 114.654 28.7856 117.1 28.4487C116.238 29.9057 115.106 30.3726 114.087 30.8987C111.467 32.2492 108.962 33.7771 106.526 35.435C102.178 38.3874 99.1646 42.4509 96.8577 47.0789C95.239 50.3208 93.6322 53.5775 92.2084 56.9052C90.3771 61.1874 87.9343 65.0766 85.0307 68.6702C82.2748 72.0836 78.7362 74.5601 74.7869 76.419C69.0152 79.1378 62.9954 80.6421 56.5502 79.9062C56.1869 79.8648 55.8058 79.9978 55.4248 80.051C55.3332 81.2213 56.0658 81.966 56.5236 82.7965C59.9264 88.9435 61.0193 95.3683 59.8525 102.393C58.8157 108.649 56.5738 114.267 52.8343 119.28C50.551 122.341 48.0491 125.267 45.4262 128.042C39.6279 134.177 36.1365 141.293 35.2828 149.743C35.0347 152.187 34.9874 154.642 34.6566 157.072C34.6094 157.409 34.4085 157.849 33.9122 157.808C33.3983 157.763 33.292 157.314 33.3304 156.945C33.9359 151.303 34.2165 145.602 36.1276 140.179C37.383 136.615 39.3975 133.503 41.8137 130.619C45.0924 126.7 48.38 122.79 51.5553 118.789C56.6772 112.326 58.9516 104.935 59.0373 96.6745C59.0934 91.3077 57.2266 86.6975 54.8074 82.1522C54.1783 80.9612 53.5668 79.7643 52.8343 78.3635Z" fill="#151515"/>
<path d="M277.935 82.7469C277.268 81.6505 277.545 80.6014 277.932 79.6557C278.883 77.3328 277.838 75.6483 276.281 74.1352C274.497 72.4004 272.122 71.57 270.081 70.2135C269.26 69.6697 268.693 70.2578 268.126 70.9257C266.663 72.6457 265.054 74.2416 263.603 75.9704C262.256 77.5781 260.706 77.782 258.857 77.058C257.731 76.6176 256.807 75.9025 255.935 75.1104C253.927 73.2811 253.637 71.2183 255.353 69.1851C258.139 65.884 260.744 62.4293 263.757 59.3144C265.461 57.5501 267.044 55.6646 268.637 53.7969C269.641 52.6207 270.143 51.2228 270.722 49.7629C272.258 45.9004 275.132 42.3717 279.604 43.3145C283.252 44.0828 287.08 48.102 286.991 51.4208C286.968 52.3517 286.758 53.1526 286.138 53.853C285.228 54.8756 284.306 55.8892 283.447 56.9502C282.528 58.085 281.394 58.8741 279.929 58.7647C278.561 58.6642 277.722 59.344 276.898 60.2305C274.825 62.4647 272.884 64.8053 271.07 67.2612C270.187 68.4551 270.435 69.1437 271.688 69.7643C273.628 70.7248 275.448 71.898 277.09 73.3018C280.017 75.7931 280.322 79.1858 277.935 82.7469ZM271.121 53.3181C270.187 53.7703 269.712 54.2313 269.272 54.781C267.742 56.6931 266.084 58.4869 264.424 60.2897C261.636 63.3129 259.152 66.614 256.55 69.8086C255.835 70.6834 255.362 71.6941 255.864 72.7964C256.535 74.2623 257.513 75.5478 259.211 75.8552C260.921 76.1655 262.38 75.8936 263.618 74.2977C266.43 70.6657 269.452 67.2021 272.391 63.6705C273.809 61.9653 275.235 60.269 276.692 58.5283C274.559 56.9384 272.485 55.6144 271.121 53.3181ZM278.287 44.4257C275.844 44.3311 274.447 45.6344 274.884 47.5996C275.587 50.7766 279.205 53.8855 282.407 54.0629C284.767 54.1929 286.052 52.7596 285.659 50.4367C285.136 47.3425 281.722 44.5586 278.287 44.4257ZM273.377 47.6174C272.007 48.8645 271.413 50.153 271.892 51.6573C272.81 54.5298 275.909 57.8663 280.136 57.423C281.255 57.3048 282.124 56.9059 282.711 55.5316C278.157 54.5357 275.011 52.0414 273.377 47.6174Z" fill="#151515"/>
<path d="M168.157 28.6645C165.938 29.0014 165.043 28.366 164.907 26.3593C164.78 24.4857 165.817 23.2947 167.705 23.4602C169.046 23.5784 170.375 23.9449 171.447 24.9674C172.118 25.6087 172.646 26.5307 173.828 26.6726C174.623 25.7092 173.642 24.1251 175.278 22.9814C175.724 25.4728 175.479 27.6567 175.497 29.8141C175.515 31.9685 175.5 34.1229 175.5 36.8033C173.831 35.5621 172.443 34.6076 171.146 33.5377C170.212 32.7664 169.273 32.1133 168.033 32.0483C167.436 32.0158 166.807 32.0305 166.491 32.6512C166.124 33.3693 166.384 34.0017 167.011 34.4243C167.486 34.7465 167.971 35.0124 168.322 35.7306C166.957 36.2123 166.033 35.704 165.333 34.9474C163.971 33.4698 164.789 31.3745 166.795 30.9666C168.233 30.6741 169.53 31.0376 170.721 31.7912C171.772 32.4561 172.765 33.2097 173.79 33.9278C174.682 32.7369 173.725 31.3272 174.528 30.213C174.761 29.8909 174.504 29.4062 174.218 29.161C172.516 27.7158 171.131 25.8599 168.978 24.994C168.145 24.66 167.191 24.3675 166.683 25.4284C166.281 26.2707 166.334 27.1543 167.285 27.7336C167.652 27.9611 168.295 27.9552 168.157 28.6645Z" fill="#151515"/>
<path d="M108.036 99.9813C109.433 100.912 110.933 100.011 112.514 99.7035C113.648 99.4818 114.936 99.6621 115.657 100.77C116.407 101.923 116.262 103.241 115.668 104.408C114.936 105.848 113.48 105.599 112.274 105.413C110.86 105.194 109.598 104.686 108.042 105.191C106.588 105.661 105.312 104.237 105.242 102.57C105.182 101.048 106.178 100.037 108.036 99.9813ZM114.747 102.487C114.711 101.264 113.982 100.744 112.88 100.732C111.831 100.72 110.473 101.876 110.668 102.635C110.969 103.817 111.885 104.281 113.069 104.302C114.339 104.328 114.762 103.616 114.747 102.487ZM107.903 103.69C108.659 103.64 109.312 103.392 109.194 102.484C109.096 101.743 108.603 101.27 107.799 101.22C106.981 101.169 106.842 101.698 106.828 102.348C106.807 103.099 106.89 103.758 107.903 103.69Z" fill="#151515"/>
<path d="M169.383 171.24C167.939 174.059 167.939 174.059 170.266 175.221C170.322 173.273 170.706 171.515 172.939 171.081C173.728 170.927 174.487 170.853 175.258 171.143C176.416 171.577 177.518 172.236 177.58 173.533C177.648 174.949 176.64 175.741 175.338 176.276C172.96 177.251 170.692 176.601 168.453 175.906C167.351 175.564 166.671 174.538 166.798 173.377C166.931 172.165 167.549 171.154 169.383 171.24ZM176.079 173.708C176.026 172.735 174.951 172.014 173.693 172.13C172.724 172.218 172.044 172.724 171.911 173.708C171.796 174.556 172.874 175.499 173.831 175.496C175.054 175.487 176.129 174.633 176.079 173.708Z" fill="#151515"/>
<path d="M122.365 229.566C123.304 228.39 125.085 228.05 124.353 226.365C123.883 225.287 122.763 224.897 121.694 224.79C119.851 224.607 120.241 226.475 119.647 227.346C118.377 227.429 117.819 226.055 116.655 226.126C116.085 226.56 116.309 227.187 116.265 227.74C116.218 228.328 116.271 229.069 115.506 229.084C114.779 229.096 114.694 228.404 114.697 227.793C114.7 226.534 114.697 225.272 114.697 224.155C115.367 223.646 115.781 223.871 116.182 224.187C117.423 225.165 118.386 225.553 119.94 224.223C121.845 222.588 124.973 223.886 125.623 226.191C126.202 228.254 124.805 229.861 122.365 229.566Z" fill="#151515"/>
<path d="M117.345 217.224C117.777 218.25 116.654 218.365 116.548 219.027C116.385 220.017 116.885 220.49 117.753 220.688C118.568 220.874 118.577 220.392 118.722 219.727C119.28 217.145 122.512 216.03 124.638 217.609C126.289 218.835 125.988 221.279 123.932 222.056C121.345 223.034 118.743 222.34 116.288 221.409C115.151 220.978 115.056 219.713 115.269 218.604C115.493 217.443 116.285 217.074 117.345 217.224ZM121.924 217.845C120.961 217.877 119.862 218.935 120.098 219.727C120.417 220.785 121.244 221.246 122.352 221.131C123.371 221.025 124.305 220.709 124.396 219.512C124.452 218.805 122.872 217.812 121.924 217.845Z" fill="#151515"/>
<path d="M109.589 110.328C108.629 109.917 108.097 109.093 107.199 108.969C106.183 109.548 106.936 110.425 106.753 111.129C106.647 111.543 106.452 111.838 105.982 111.847C105.498 111.856 105.288 111.569 105.267 111.132C105.238 110.544 105.208 109.95 105.244 109.362C105.294 108.505 104.854 107.387 105.542 106.85C106.478 106.117 107.054 107.331 107.749 107.763C108.502 108.233 109.042 107.943 109.559 107.411C110.767 106.173 112.256 106.391 113.709 106.678C115.163 106.962 115.815 107.97 115.863 109.424C115.913 110.863 115.824 112.202 114.173 112.799C113.777 112.943 113.408 113.091 113.151 112.683C112.885 112.261 113.175 111.983 113.541 111.773C113.709 111.676 113.881 111.557 113.999 111.41C114.947 110.219 114.87 108.711 113.842 108.067C112.826 107.435 110.877 107.911 110.265 108.93C110.014 109.341 110.191 109.923 109.589 110.328Z" fill="#151515"/>
<path d="M64.4521 174.647C63.241 174.724 62.1333 174.295 60.9961 173.994C59.7112 173.654 59.3095 172.634 59.277 171.55C59.2386 170.309 59.7792 169.289 61.1291 168.875C63.4448 168.166 65.7281 168.145 68.0173 168.979C69.1751 169.401 69.757 170.187 69.76 171.417C69.7629 172.732 69.2785 173.654 67.9287 174.091C66.7826 174.461 65.6247 174.558 64.4521 174.647ZM64.6706 173.474C65.3648 173.512 66.4399 173.453 67.4472 172.963C68.608 172.398 68.7912 171.219 67.8253 170.453C66.3897 169.316 62.8777 169.209 61.3713 170.255C60.299 171 60.3109 172.197 61.4244 172.838C62.3017 173.347 63.2824 173.453 64.6706 173.474Z" fill="#151515"/>
<path d="M274.892 86.4206C275.073 87.2244 274.352 87.2599 274.142 87.6648C273.867 88.1997 273.504 88.6902 274.104 89.2222C274.553 89.6212 275.061 89.964 275.687 89.8339C276.278 89.7098 276.245 89.1572 276.36 88.6814C277.004 86.0689 280.141 85.0198 282.256 86.6866C283.638 87.7771 283.509 90.1856 281.834 90.7885C279.096 91.7726 276.239 91.7785 273.607 90.3541C272.777 89.9049 272.178 88.8971 272.526 87.8332C272.884 86.7486 273.637 86.0896 274.892 86.4206ZM279.725 90.1147C280.667 89.964 281.84 90.0349 281.789 88.6459C281.745 87.4047 280.72 87.0796 279.719 87.1062C278.75 87.1299 277.636 87.384 277.63 88.6341C277.625 89.9256 278.762 89.9847 279.725 90.1147Z" fill="#151515"/>
<path d="M149.767 184.325C149.883 182.922 149.933 182.062 150.03 181.205C150.083 180.735 150.122 180.123 150.751 180.129C151.348 180.132 151.481 180.634 151.451 181.181C151.36 182.933 151.289 184.683 151.203 186.53C149.555 186.441 148.801 185.147 147.794 184.32C146.731 183.445 145.715 182.57 144.391 182.088C143.44 181.743 142.545 181.813 142.073 182.668C141.568 183.581 141.975 184.343 143.024 184.704C143.458 184.854 144.049 185.058 143.756 185.688C143.449 186.35 142.87 186.308 142.268 186.022C140.971 185.401 140.238 184.006 140.519 182.644C140.776 181.403 142.22 180.374 143.668 180.62C145.012 180.85 146.297 181.341 147.339 182.319C147.969 182.916 148.669 183.427 149.767 184.325Z" fill="#151515"/>
<path d="M138.934 77.794C137.729 77.6108 136.736 77.5694 135.815 77.2916C134.418 76.872 133.874 75.8406 133.975 74.36C134.066 72.9887 134.961 72.4893 136.051 72.2883C138.154 71.9012 140.29 71.647 142.378 72.3652C143.418 72.7228 144.277 73.2222 144.248 74.623C144.221 75.9795 143.787 76.9577 142.458 77.271C141.235 77.5576 139.962 77.6492 138.934 77.794ZM139.052 76.5321C140.027 76.5292 141.007 76.5824 141.914 76.1125C142.328 75.8967 142.871 75.8406 142.951 75.2259C143.037 74.5669 142.771 74.0231 142.227 73.7542C140.198 72.7494 138.101 72.7819 136.022 73.5857C135.446 73.8103 135.174 74.3748 135.242 75.019C135.301 75.5864 135.741 75.7815 136.205 75.9795C137.114 76.3755 138.068 76.5203 139.052 76.5321Z" fill="#151515"/>
<path d="M148.015 260.413C148.759 259.479 150.316 259.006 149.592 257.372C149.149 256.376 148.378 256.13 147.474 256.101C145.985 256.053 145.008 256.701 145.132 258.252C143.794 258.492 143.232 257.209 142.16 257.374C141.141 258.022 142.175 259.493 140.801 260.389C140.308 258.521 140.406 256.899 140.698 255.306C141.247 255.12 141.608 255.273 141.924 255.513C142.975 256.302 143.944 256.494 145.099 255.566C146.263 254.629 147.728 254.765 149.051 255.155C151.163 255.782 151.852 258.542 150.395 260.197C149.884 260.785 149.775 260.797 148.015 260.413Z" fill="#151515"/>
<path d="M144.222 85.5987C142.101 83.8639 140.583 82.4927 138.926 81.3194C137.972 80.6427 136.882 79.4458 135.568 80.7047C134.64 81.5943 135.148 82.7291 136.929 84.0265C135.337 84.5909 134.236 84.0974 133.736 82.5902C133.29 81.2426 133.993 79.7738 135.278 79.2419C136.988 78.5355 138.341 79.3867 139.632 80.2703C140.657 80.9707 141.558 81.8543 142.556 82.6936C143.295 81.7804 142.943 80.8761 143.041 80.0516C143.097 79.5847 142.967 78.9434 143.602 78.8902C144.299 78.8311 144.222 79.4487 144.222 79.9363C144.219 81.5972 144.222 83.261 144.222 85.5987Z" fill="#151515"/>
<path d="M281.514 96.568C282.066 95.3386 281.721 94.325 281.948 93.3793C282.037 93.0128 282.27 92.6434 282.746 92.741C283.192 92.8326 283.446 93.2404 283.322 93.6157C282.752 95.3327 283.304 97.1295 282.864 99.0682C281.278 98.4239 280.185 97.2152 279 96.1868C278.173 95.4687 277.314 94.8776 276.309 94.4521C275.231 93.994 274.271 94.2038 273.804 95.1997C273.282 96.3168 273.858 97.0734 275.089 97.2477C275.408 97.2921 275.609 97.4487 275.713 97.7442C274.082 98.4919 273.559 98.3974 272.723 97.2123C271.967 96.1336 272.014 94.8806 272.936 94.0295C273.934 93.1074 275.033 92.806 276.433 93.2818C278.327 93.926 279.694 95.3386 281.514 96.568Z" fill="#151515"/>
<path d="M149.705 251.544C149.82 251.169 149.829 251.062 149.882 250.986C150.496 250.078 149.149 248.146 150.812 248.14C151.793 248.137 151.208 249.975 151.279 250.971C151.344 251.917 151.527 252.918 150.96 254.035C149.341 253.498 148.281 252.18 147.017 251.192C146.166 250.528 145.386 249.806 144.284 249.529C143.342 249.292 142.444 249.254 142.01 250.214C141.579 251.163 141.992 251.914 143.029 252.268C143.375 252.386 143.685 252.608 144.075 252.818C142.622 253.557 141.49 253.368 140.855 252.357C140.143 251.225 140.462 249.334 141.534 248.66C142.926 247.785 144.338 247.948 145.667 248.799C147.014 249.662 148.319 250.596 149.705 251.544Z" fill="#151515"/>
<path d="M75.9812 153.984C74.714 153.877 74.3212 152.633 73.1721 152.562C72.1678 153.286 73.3139 154.841 71.9699 155.736C71.2817 153.863 71.5771 152.149 71.6804 150.556C72.3894 150.236 72.6995 150.499 72.9801 150.754C74.0494 151.726 74.9621 151.953 76.2146 150.807C77.3016 149.811 79.8477 150.009 80.8786 150.795C82.1162 151.738 82.3585 153.026 82.1428 154.468C81.9833 155.541 81.2951 156.171 80.3587 156.617C79.9275 156.824 79.5789 156.729 79.3397 156.398C79.062 156.014 79.2452 155.654 79.6351 155.453C80.9465 154.773 81.0854 153.659 80.6069 152.468C80.2229 151.516 79.2747 151.43 78.359 151.463C76.9353 151.51 76.2411 152.276 76.1791 153.673C76.1732 153.759 76.0757 153.839 75.9812 153.984Z" fill="#151515"/>
<path d="M238.856 22.6175C239.362 21.79 239.043 20.8946 239.164 20.0582C239.223 19.6533 239.317 19.2514 239.769 19.1894C240.248 19.1243 240.46 19.479 240.463 19.9075C240.478 21.725 240.469 23.5455 240.469 25.8181C238.715 24.3729 237.323 23.3327 236.062 22.1535C235.229 21.3733 234.216 21.063 233.232 20.6345C232.329 20.2385 231.631 20.6522 231.259 21.3822C230.875 22.1328 230.958 22.9278 231.948 23.3002C232.47 23.4982 233.085 23.6193 233.144 24.5325C231.877 25.0763 230.872 24.5118 230.184 23.5721C229.502 22.6441 229.534 21.4442 230.214 20.5133C230.949 19.5085 232.095 19.0564 233.339 19.3903C234.571 19.7213 235.684 20.3301 236.727 21.1103C237.406 21.6157 237.84 22.4993 238.856 22.6175Z" fill="#151515"/>
<path d="M228.099 131.773C228.68 130.759 228.415 129.956 228.542 129.199C228.607 128.806 228.722 128.436 229.239 128.475C229.759 128.513 229.832 128.921 229.838 129.305C229.856 130.928 229.847 132.547 229.847 134.711C227.954 133.292 226.501 132.219 225.068 131.12C224.285 130.517 223.446 130 222.486 129.802C221.588 129.616 220.67 129.684 220.366 130.807C220.103 131.773 220.626 132.269 221.515 132.482C221.866 132.568 222.294 132.533 222.418 133.011C220.953 133.658 219.976 133.472 219.376 132.432C218.756 131.356 219.036 129.636 219.961 128.989C221.021 128.247 222.079 128.318 223.287 128.779C225.038 129.447 226.312 130.848 228.099 131.773Z" fill="#151515"/>
<path d="M42.8174 72.0864C41.9579 71.6372 41.1101 71.191 40.283 70.7595C39.0956 71.519 40.1915 72.9878 39.0041 73.8035C38.0411 72.1574 38.6407 70.4285 38.5226 68.8208C39.3053 68.4367 39.6952 69.0484 40.1797 69.3026C41.0658 69.7724 41.6832 70.0946 42.7436 69.2169C44.0403 68.1411 45.7919 68.0052 47.4253 68.9538C48.4326 69.539 49.1326 70.3133 49.0795 71.5308C49.0263 72.7721 48.5596 73.8123 47.3485 74.3738C46.9084 74.5778 46.4299 74.8733 46.0341 74.362C45.5615 73.7503 46.17 73.5818 46.5215 73.2715C47.8448 72.1012 48.0397 71.2826 47.2688 70.3872C46.489 69.4828 45.0121 69.208 44.0551 69.7843C43.6386 70.0355 43.4052 70.461 42.8174 72.0864Z" fill="#151515"/>
<path d="M152.833 219.633C152.644 219.633 152.413 219.703 152.269 219.621C150.068 218.4 147.876 217.162 145.735 215.956C145.868 214.842 146.577 215.241 147.091 215.232C148.263 215.217 149.533 214.943 150.591 215.294C152.139 215.808 152.032 212.179 153.202 214.059C154.147 215.578 155.476 214.792 156.33 215.593C156.268 215.77 156.239 216.074 156.135 216.101C153.249 216.852 153.249 216.849 152.833 219.633ZM150.136 216.869C150.458 217.478 150.928 217.753 151.569 217.629C151.66 217.611 151.793 217.268 151.74 217.153C151.356 216.296 150.756 216.568 150.136 216.869Z" fill="#151515"/>
<path d="M78.7661 142.49C78.8369 145.215 81.3536 143.844 82.5587 145.339C79.8974 145.428 78.4234 146.444 79.2682 149.335C76.3912 148.504 74.6573 146.238 72.1023 145.573C71.7597 145.484 71.6976 145.194 71.7213 144.893C71.7508 144.538 72.0491 144.393 72.3239 144.382C73.3961 144.34 74.5008 144.184 75.5346 144.373C77.0617 144.656 78.1339 144.34 78.7661 142.49ZM77.8888 146.433C77.8652 145.862 77.4428 145.711 76.9495 145.72C76.6275 145.726 76.0781 145.561 76.0988 146.087C76.1254 146.802 76.8136 146.826 77.3423 146.947C77.7027 147.03 77.812 146.767 77.8888 146.433Z" fill="#151515"/>
<path d="M40.0977 77.5714C39.4124 78.5377 39.885 79.5957 39.1171 80.2341C38.1364 78.6855 38.1364 78.6855 38.5529 75.7923C39.0668 75.5411 39.5276 75.7686 39.9087 76.0435C40.8923 76.7527 41.681 76.7705 42.7886 76.0405C44.3364 75.0269 46.1471 74.9352 47.7628 76.0819C48.9502 76.9242 49.1924 78.0738 48.646 79.4598C48.1143 80.8074 47.4113 81.6497 45.8428 81.0084C45.8547 80.4646 46.2032 80.3109 46.5074 80.0568C47.8544 78.9367 48.0375 78.0945 47.2105 77.1872C46.3125 76.2031 44.0499 75.9489 43.5684 77.0719C42.635 79.2411 41.4771 78.2806 40.0977 77.5714Z" fill="#151515"/>
<path d="M240.522 13.8419C239.757 15.6476 238.156 13.9926 237.61 15.157C237.196 16.0347 237.778 17.1222 237.09 18.1507C234.52 17.0838 232.169 15.5737 229.69 14.1492C230.577 12.8253 231.605 13.8892 232.467 13.6823C233.817 13.3602 235.734 14.6428 236.378 12.2903C236.466 11.9653 237.063 11.9564 237.099 12.0717C237.574 13.703 239.06 13.8005 240.522 13.8419ZM235.371 16.1706C235.622 15.9431 235.944 15.7953 235.985 15.5914C236.118 14.9383 235.628 14.8408 235.146 14.8703C234.83 14.888 234.245 14.8496 234.352 15.2634C234.44 15.615 234.99 15.8515 235.371 16.1706Z" fill="#151515"/>
<path d="M147.203 222.13C146.911 223.723 146.645 225.183 146.293 227.098C144.79 224.929 145.673 222.978 145.543 221.158C145.51 220.714 146.075 220.531 146.432 220.661C149.767 221.896 153.181 222.951 156.623 224.677C154.856 225.384 154.874 225.348 151.953 224.004C150.47 223.315 148.904 222.792 147.203 222.13Z" fill="#151515"/>
<path d="M177.492 182.218C174.121 182.502 171.448 180.218 168.16 179.594C167.623 180.741 167.957 181.926 167.83 183.049C167.785 183.442 167.726 183.882 167.265 183.935C166.574 184.012 166.524 183.451 166.518 182.966C166.497 181.595 166.474 180.221 166.527 178.852C166.557 178.072 166.896 177.475 167.844 177.88C171.07 179.263 174.485 180.194 177.492 182.218Z" fill="#151515"/>
<path d="M221.577 126.441C220.25 125.09 219.84 123.837 218.638 123.143C221.148 122.315 223.556 122.797 225.928 122.679C226.87 122.631 227.803 123.042 228.793 122.729C229.319 122.563 229.729 122.965 229.726 123.547C229.726 124.017 229.357 124.183 228.935 124.183C227.567 124.189 226.126 124.464 224.855 124.112C222.983 123.598 221.99 124.133 221.577 126.441Z" fill="#151515"/>
<path d="M59.1348 178.531C59.2441 175.327 59.253 175.303 62.1536 176.338C64.3631 177.127 66.5548 177.975 68.7435 178.823C69.1837 178.995 69.7449 179.258 69.5174 179.854C69.2782 180.481 68.7613 180.227 68.2975 180.029C66.4957 179.258 64.7027 178.468 62.8802 177.747C60.6797 176.876 60.4759 177.05 60.3134 179.464C60.2661 180.183 60.6915 181.468 59.7788 181.48C58.4584 181.498 59.1378 180.185 59.0699 179.411C59.0492 179.125 59.1142 178.826 59.1348 178.531Z" fill="#151515"/>
<path d="M142.093 189.294C141.367 190.48 142.294 192.025 141.095 193.42C140.038 191.366 140.616 189.433 140.581 187.208C144.069 188.464 147.327 189.625 150.58 190.816C150.955 190.955 151.241 191.328 151.023 191.736C150.831 192.096 150.444 192.173 150.015 192.002C148.308 191.307 146.589 190.642 144.879 189.953C143.987 189.593 143.13 189.091 142.093 189.294Z" fill="#151515"/>
<path d="M128.322 158.367C127.911 158.308 127.731 158.099 127.775 157.782C127.831 157.386 128.088 157.07 128.466 156.976C128.738 156.908 129.045 157.082 129.066 157.401C129.104 157.954 128.709 158.199 128.322 158.367Z" fill="#151515"/>
<path d="M95.674 311.09C95.2309 311.237 95.0271 311.852 94.1558 311.645C95.2309 310.091 96.2854 308.696 97.8894 307.522C97.9307 308.122 97.9573 308.498 97.9839 308.873C97.3606 309.763 96.6045 310.516 95.674 311.09Z" fill="#151515"/>
<path d="M12.2935 323.331C9.4579 324.306 8.69581 326.452 7.36661 328.193C6.8113 326.683 7.60292 325.636 8.42407 324.906C9.68238 323.789 9.62035 322.584 9.28952 321.2C9.09162 320.37 8.49495 319.584 9.04731 318.523C10.344 318.889 9.71191 320.134 10.0989 320.858C10.5419 321.682 10.539 322.793 12.2935 323.331Z" fill="#151515"/>
<path d="M16.468 326.99C17.7736 325.411 16.7959 324.315 15.124 323.121C18.4618 323.898 18.4618 323.898 20.1071 322.95L20.0451 322.894C18.2078 324.767 20.4231 326.865 19.8708 328.795C19.2328 328.828 19.0998 328.538 18.9817 328.119C18.4264 326.127 18.4146 326.13 16.4001 326.928L16.468 326.99Z" fill="#151515"/>
<path d="M8.26489 332.052C11.4284 335.045 14.6244 335.846 18.1483 332.483C17.7614 334.463 16.3878 335.054 14.8519 335.178C12.161 335.391 9.53207 335.246 8.26489 332.052Z" fill="#151515"/>
<path d="M8.53954 343.369C6.40393 342.211 4.65823 340.633 3.16064 338.768C5.66843 339.43 6.94448 341.626 8.53954 343.369Z" fill="#151515"/>
<path d="M33.1092 343.542C31.5998 346.196 29.349 348.176 27.0981 350.156C28.7198 347.603 30.5659 345.253 33.1092 343.542Z" fill="#151515"/>
<path d="M11.627 346.167C13.6621 347.372 15.5466 348.717 16.5893 350.936C14.5335 349.781 13.0359 348.005 11.627 346.167Z" fill="#151515"/>
<path d="M0.57666 297.297C2.66205 299.399 3.55114 301.603 4.56134 303.737C3.08739 302.777 1.55732 300.288 0.57666 297.297Z" fill="#151515"/>
<path d="M54.655 275.251C55.8336 272.985 57.4404 271.09 59.7237 268.847C58.4093 271.853 56.2058 273.324 54.655 275.251Z" fill="#151515"/>
<path d="M0.609466 336.219C-1.90421 334.866 -3.1182 332.702 -5.35718 331.322C-3.59376 331.325 -1.23075 333.308 0.609466 336.219Z" fill="#151515"/>
<path d="M8.03471 314.453C6.63462 312.416 6.12952 310.105 5.93457 307.697C7.41147 309.706 7.59755 312.118 8.03471 314.453Z" fill="#151515"/>
<path d="M38.1011 338.244C36.5651 340.2 35.1768 342.295 33.0088 343.655C34.2051 341.376 35.9803 339.647 38.1011 338.244Z" fill="#151515"/>
<path d="M65.6953 306.207C66.6996 305.084 67.701 303.964 68.7053 302.841C68.469 304.665 66.9625 305.327 66.2152 306.68C66.0409 306.521 65.8666 306.364 65.6953 306.207Z" fill="#151515"/>
<path d="M48.1439 327.013C47.1692 328.786 45.7691 330.19 44.2598 331.499C44.7678 329.324 46.3805 328.104 48.1439 327.013Z" fill="#151515"/>
<path d="M53.4522 321.096C52.4627 322.855 50.8972 324.117 49.5769 325.591C50.1647 323.484 51.5028 322.027 53.4522 321.096Z" fill="#151515"/>
<path d="M59.0905 315.845C57.3241 316.221 56.9431 318.419 55.1855 318.806C56.2164 317.547 57.1174 316.141 58.3225 315.074C59.2648 314.24 58.8572 315.538 59.0905 315.845Z" fill="#151515"/>
<path d="M49.5355 284.414C50.3448 283.255 51.1512 282.097 52.3003 280.451C51.8218 282.626 51.7066 282.765 49.4646 284.349C49.4646 284.349 49.5355 284.414 49.5355 284.414Z" fill="#151515"/>
<path d="M42.8716 292.517C42.2602 293.699 41.6015 294.804 40.4141 295.46C40.7567 294.098 41.8466 293.3 42.8716 292.517Z" fill="#151515"/>
<path d="M32.0554 308.481C32.463 307.095 33.6948 306.338 34.5779 305.319C34.4598 306.929 33.0892 307.574 32.0554 308.481Z" fill="#151515"/>
<path d="M4.49335 200.16C4.16252 201.552 3.21729 202.45 2.05054 203.172C2.34001 201.75 3.71059 201.192 4.49335 200.16Z" fill="#151515"/>
<path d="M41.3856 334.69C40.3725 335.793 39.3593 336.895 38.3491 337.997C38.7626 336.345 39.6458 335.125 41.3856 334.69Z" fill="#151515"/>
<path d="M51.5913 278.963C51.7833 277.799 52.569 277.125 53.6236 276.138C53.278 277.637 52.5631 278.402 51.5913 278.963Z" fill="#151515"/>
<path d="M16.3993 326.927C16.5647 328.417 14.9903 328.795 14.5916 329.924C14.7806 328.757 14.7806 328.757 16.4701 326.992C16.4672 326.989 16.3993 326.927 16.3993 326.927Z" fill="#151515"/>
<path d="M31.3905 309.258C30.8234 310.783 29.952 311.285 29.3435 312.071C29.633 310.662 29.633 310.662 31.3905 309.258Z" fill="#151515"/>
<path d="M48.1865 283.061C48.8511 281.401 49.6634 280.759 50.8922 279.571C50.3635 281.318 49.6368 282.027 48.1865 283.061Z" fill="#151515"/>
<path d="M20.1072 322.947C20.0954 321.578 21.2533 321.043 22.1276 320.308C21.844 321.475 21.0731 322.282 20.0452 322.894C20.0452 322.894 20.1072 322.947 20.1072 322.947Z" fill="#151515"/>
<path d="M7.39606 196.443C7.59101 197.599 6.67532 197.939 6.12591 198.941C5.75963 197.392 7.02387 197.138 7.39606 196.443Z" fill="#151515"/>
<path d="M21.2974 356.53C21.067 357.653 20.4497 358.484 19.4336 359.019C19.5252 357.789 20.4586 357.195 21.2974 356.53Z" fill="#151515"/>
<path d="M43.4393 332.339C42.9963 333.397 42.1545 334.107 41.292 334.795C41.549 333.575 41.9684 332.496 43.4393 332.339Z" fill="#151515"/>
<path d="M38.2542 301.722C37.7166 302.339 37.4744 302.951 36.6946 303.146C36.8748 302.277 37.2351 301.799 38.2542 301.722Z" fill="#151515"/>
<path d="M36.1338 300.729C36.379 299.603 36.9993 299.269 37.658 298.498C37.6639 299.719 37.082 300.153 36.1338 300.729Z" fill="#151515"/>
<path d="M49.4648 284.347C49.7838 285.444 49.069 285.911 47.9082 286.552C48.3572 285.464 48.818 284.855 49.5387 284.415C49.5357 284.412 49.4648 284.347 49.4648 284.347Z" fill="#151515"/>
<path d="M19.5307 358.915C19.1024 359.739 18.6357 360.525 17.6492 360.788C17.8294 359.712 18.5028 359.136 19.5307 358.915Z" fill="#151515"/>
<path d="M24.7941 317.696C24.3747 318.464 24.0173 318.993 23.0337 319.221C23.3557 318.272 23.6274 317.649 24.7941 317.696Z" fill="#151515"/>
<path d="M46.9396 287.903C47.0311 288.61 46.6678 288.985 46.0564 289.147C45.9707 289.171 45.6989 288.911 45.7196 288.861C45.9234 288.308 46.2897 287.93 46.9396 287.903Z" fill="#151515"/>
<path d="M69.2524 340.229C67.7696 341.754 66.4197 343.418 64.6475 344.777C65.2648 342.765 67.5953 340.56 69.3174 340.303C69.3263 340.315 69.2524 340.229 69.2524 340.229Z" fill="#151515"/>
<path d="M59.6792 349.527C60.0691 347.774 61.6582 347.086 62.9077 346.102C62.0895 347.476 61.1767 348.77 59.623 349.471C59.623 349.474 59.6792 349.527 59.6792 349.527Z" fill="#151515"/>
<path d="M56.3787 352.13C56.8632 354.214 54.8191 354.58 54.0599 355.819C54.0097 354.034 56.1572 353.75 56.3817 352.151L56.3787 352.13Z" fill="#151515"/>
<path d="M56.3833 352.151C57.7391 351.601 58.1172 349.819 59.6797 349.526L59.6236 349.47C59.0447 350.969 58.3328 352.307 56.3804 352.13C56.3804 352.13 56.3833 352.151 56.3833 352.151Z" fill="#151515"/>
<path d="M50.8682 359.057C51.0336 357.905 51.4796 357.429 52.4809 357.195C52.4454 358.289 51.7484 358.54 50.8682 359.057Z" fill="#151515"/>
<path d="M121.331 269.256C117.81 270.054 114.218 270.246 110.632 270.473C110.609 270.284 110.582 270.092 110.559 269.903C114.156 269.46 117.754 269.019 121.355 268.576C121.346 268.801 121.34 269.028 121.331 269.256Z" fill="#151515"/>
<path d="M24.8762 199.449C28.3381 198.719 31.8531 198.459 35.3592 198.095C35.3888 198.323 35.4183 198.547 35.4449 198.775C31.9565 199.212 28.471 199.65 24.9826 200.087C24.9471 199.874 24.9117 199.662 24.8762 199.449Z" fill="#151515"/>
<path d="M110.986 267.106C113.432 265.8 115.993 266.521 118.385 266.003C117.21 266.852 113.328 267.386 110.986 267.106Z" fill="#151515"/>
<path d="M32.2959 195.509C29.9417 196.972 27.4723 196.186 25.1211 196.422C26.1638 195.645 27.428 196.005 28.5652 195.73C29.6965 195.453 30.816 195.148 32.2959 195.509Z" fill="#151515"/>
<path d="M25.866 194.233C27.3517 194.233 28.6691 193.37 30.2908 193.754C28.6573 194.785 28.2644 194.835 25.866 194.233Z" fill="#151515"/>
<path d="M111.405 265.416C113.901 264.245 113.901 264.246 116.837 264.665C114.891 265.114 113.52 265.62 111.405 265.416Z" fill="#151515"/>
</g>
</g>
<defs>
<clipPath id="clip0">
<rect width="297" height="359" fill="white"/>
</clipPath>
<clipPath id="clip1">
<rect width="517" height="526" fill="white" transform="translate(-230 12)"/>
</clipPath>
</defs>
</svg>
